<?xml version="1.0" encoding="utf-8" standalone="no"?>
<!DOCTYPE svg PUBLIC "-//W3C//DTD SVG 1.1//EN"
  "http://www.w3.org/Graphics/SVG/1.1/DTD/svg11.dtd">
<svg xmlns:xlink="http://www.w3.org/1999/xlink" width="460.8pt" height="345.6pt" viewBox="0 0 460.8 345.6" xmlns="http://www.w3.org/2000/svg" version="1.1">
 <metadata>
  <rdf:RDF xmlns:dc="http://purl.org/dc/elements/1.1/" xmlns:cc="http://creativecommons.org/ns#" xmlns:rdf="http://www.w3.org/1999/02/22-rdf-syntax-ns#">
   <cc:Work>
    <dc:type rdf:resource="http://purl.org/dc/dcmitype/StillImage"/>
    <dc:date>2025-01-04T19:45:53.894641</dc:date>
    <dc:format>image/svg+xml</dc:format>
    <dc:creator>
     <cc:Agent>
      <dc:title>Matplotlib v3.10.0, https://matplotlib.org/</dc:title>
     </cc:Agent>
    </dc:creator>
   </cc:Work>
  </rdf:RDF>
 </metadata>
 <defs>
  <style type="text/css">*{stroke-linejoin: round; stroke-linecap: butt}</style>
 </defs>
 <g id="figure_1">
  <g id="patch_1">
   <path d="M 0 345.6 
L 460.8 345.6 
L 460.8 0 
L 0 0 
z
" style="fill: #ffffff"/>
  </g>
  <g id="axes_1">
   <g id="patch_2">
    <path d="M 57.6 307.584 
L 414.72 307.584 
L 414.72 41.472 
L 57.6 41.472 
z
" style="fill: #ffffff"/>
   </g>
   <g id="matplotlib.axis_1">
    <g id="xtick_1">
     <g id="line2d_1">
      <defs>
       <path id="m66c6f17cde" d="M 0 0 
L 0 3.5 
" style="stroke: #000000; stroke-width: 0.8"/>
      </defs>
      <g>
       <use xlink:href="#m66c6f17cde" x="73.832727" y="307.584" style="stroke: #000000; stroke-width: 0.8"/>
      </g>
     </g>
     <g id="text_1">
      <!-- 0 -->
      <g transform="translate(70.651477 322.182437) scale(0.1 -0.1)">
       <defs>
        <path id="DejaVuSans-30" d="M 2034 4250 
Q 1547 4250 1301 3770 
Q 1056 3291 1056 2328 
Q 1056 1369 1301 889 
Q 1547 409 2034 409 
Q 2525 409 2770 889 
Q 3016 1369 3016 2328 
Q 3016 3291 2770 3770 
Q 2525 4250 2034 4250 
z
M 2034 4750 
Q 2819 4750 3233 4129 
Q 3647 3509 3647 2328 
Q 3647 1150 3233 529 
Q 2819 -91 2034 -91 
Q 1250 -91 836 529 
Q 422 1150 422 2328 
Q 422 3509 836 4129 
Q 1250 4750 2034 4750 
z
" transform="scale(0.015625)"/>
       </defs>
       <use xlink:href="#DejaVuSans-30"/>
      </g>
     </g>
    </g>
    <g id="xtick_2">
     <g id="line2d_2">
      <g>
       <use xlink:href="#m66c6f17cde" x="127.959861" y="307.584" style="stroke: #000000; stroke-width: 0.8"/>
      </g>
     </g>
     <g id="text_2">
      <!-- 500 -->
      <g transform="translate(118.416111 322.182437) scale(0.1 -0.1)">
       <defs>
        <path id="DejaVuSans-35" d="M 691 4666 
L 3169 4666 
L 3169 4134 
L 1269 4134 
L 1269 2991 
Q 1406 3038 1543 3061 
Q 1681 3084 1819 3084 
Q 2600 3084 3056 2656 
Q 3513 2228 3513 1497 
Q 3513 744 3044 326 
Q 2575 -91 1722 -91 
Q 1428 -91 1123 -41 
Q 819 9 494 109 
L 494 744 
Q 775 591 1075 516 
Q 1375 441 1709 441 
Q 2250 441 2565 725 
Q 2881 1009 2881 1497 
Q 2881 1984 2565 2268 
Q 2250 2553 1709 2553 
Q 1456 2553 1204 2497 
Q 953 2441 691 2322 
L 691 4666 
z
" transform="scale(0.015625)"/>
       </defs>
       <use xlink:href="#DejaVuSans-35"/>
       <use xlink:href="#DejaVuSans-30" transform="translate(63.623047 0)"/>
       <use xlink:href="#DejaVuSans-30" transform="translate(127.246094 0)"/>
      </g>
     </g>
    </g>
    <g id="xtick_3">
     <g id="line2d_3">
      <g>
       <use xlink:href="#m66c6f17cde" x="182.086994" y="307.584" style="stroke: #000000; stroke-width: 0.8"/>
      </g>
     </g>
     <g id="text_3">
      <!-- 1000 -->
      <g transform="translate(169.361994 322.182437) scale(0.1 -0.1)">
       <defs>
        <path id="DejaVuSans-31" d="M 794 531 
L 1825 531 
L 1825 4091 
L 703 3866 
L 703 4441 
L 1819 4666 
L 2450 4666 
L 2450 531 
L 3481 531 
L 3481 0 
L 794 0 
L 794 531 
z
" transform="scale(0.015625)"/>
       </defs>
       <use xlink:href="#DejaVuSans-31"/>
       <use xlink:href="#DejaVuSans-30" transform="translate(63.623047 0)"/>
       <use xlink:href="#DejaVuSans-30" transform="translate(127.246094 0)"/>
       <use xlink:href="#DejaVuSans-30" transform="translate(190.869141 0)"/>
      </g>
     </g>
    </g>
    <g id="xtick_4">
     <g id="line2d_4">
      <g>
       <use xlink:href="#m66c6f17cde" x="236.214127" y="307.584" style="stroke: #000000; stroke-width: 0.8"/>
      </g>
     </g>
     <g id="text_4">
      <!-- 1500 -->
      <g transform="translate(223.489127 322.182437) scale(0.1 -0.1)">
       <use xlink:href="#DejaVuSans-31"/>
       <use xlink:href="#DejaVuSans-35" transform="translate(63.623047 0)"/>
       <use xlink:href="#DejaVuSans-30" transform="translate(127.246094 0)"/>
       <use xlink:href="#DejaVuSans-30" transform="translate(190.869141 0)"/>
      </g>
     </g>
    </g>
    <g id="xtick_5">
     <g id="line2d_5">
      <g>
       <use xlink:href="#m66c6f17cde" x="290.34126" y="307.584" style="stroke: #000000; stroke-width: 0.8"/>
      </g>
     </g>
     <g id="text_5">
      <!-- 2000 -->
      <g transform="translate(277.61626 322.182437) scale(0.1 -0.1)">
       <defs>
        <path id="DejaVuSans-32" d="M 1228 531 
L 3431 531 
L 3431 0 
L 469 0 
L 469 531 
Q 828 903 1448 1529 
Q 2069 2156 2228 2338 
Q 2531 2678 2651 2914 
Q 2772 3150 2772 3378 
Q 2772 3750 2511 3984 
Q 2250 4219 1831 4219 
Q 1534 4219 1204 4116 
Q 875 4013 500 3803 
L 500 4441 
Q 881 4594 1212 4672 
Q 1544 4750 1819 4750 
Q 2544 4750 2975 4387 
Q 3406 4025 3406 3419 
Q 3406 3131 3298 2873 
Q 3191 2616 2906 2266 
Q 2828 2175 2409 1742 
Q 1991 1309 1228 531 
z
" transform="scale(0.015625)"/>
       </defs>
       <use xlink:href="#DejaVuSans-32"/>
       <use xlink:href="#DejaVuSans-30" transform="translate(63.623047 0)"/>
       <use xlink:href="#DejaVuSans-30" transform="translate(127.246094 0)"/>
       <use xlink:href="#DejaVuSans-30" transform="translate(190.869141 0)"/>
      </g>
     </g>
    </g>
    <g id="xtick_6">
     <g id="line2d_6">
      <g>
       <use xlink:href="#m66c6f17cde" x="344.468394" y="307.584" style="stroke: #000000; stroke-width: 0.8"/>
      </g>
     </g>
     <g id="text_6">
      <!-- 2500 -->
      <g transform="translate(331.743394 322.182437) scale(0.1 -0.1)">
       <use xlink:href="#DejaVuSans-32"/>
       <use xlink:href="#DejaVuSans-35" transform="translate(63.623047 0)"/>
       <use xlink:href="#DejaVuSans-30" transform="translate(127.246094 0)"/>
       <use xlink:href="#DejaVuSans-30" transform="translate(190.869141 0)"/>
      </g>
     </g>
    </g>
    <g id="xtick_7">
     <g id="line2d_7">
      <g>
       <use xlink:href="#m66c6f17cde" x="398.595527" y="307.584" style="stroke: #000000; stroke-width: 0.8"/>
      </g>
     </g>
     <g id="text_7">
      <!-- 3000 -->
      <g transform="translate(385.870527 322.182437) scale(0.1 -0.1)">
       <defs>
        <path id="DejaVuSans-33" d="M 2597 2516 
Q 3050 2419 3304 2112 
Q 3559 1806 3559 1356 
Q 3559 666 3084 287 
Q 2609 -91 1734 -91 
Q 1441 -91 1130 -33 
Q 819 25 488 141 
L 488 750 
Q 750 597 1062 519 
Q 1375 441 1716 441 
Q 2309 441 2620 675 
Q 2931 909 2931 1356 
Q 2931 1769 2642 2001 
Q 2353 2234 1838 2234 
L 1294 2234 
L 1294 2753 
L 1863 2753 
Q 2328 2753 2575 2939 
Q 2822 3125 2822 3475 
Q 2822 3834 2567 4026 
Q 2313 4219 1838 4219 
Q 1578 4219 1281 4162 
Q 984 4106 628 3988 
L 628 4550 
Q 988 4650 1302 4700 
Q 1616 4750 1894 4750 
Q 2613 4750 3031 4423 
Q 3450 4097 3450 3541 
Q 3450 3153 3228 2886 
Q 3006 2619 2597 2516 
z
" transform="scale(0.015625)"/>
       </defs>
       <use xlink:href="#DejaVuSans-33"/>
       <use xlink:href="#DejaVuSans-30" transform="translate(63.623047 0)"/>
       <use xlink:href="#DejaVuSans-30" transform="translate(127.246094 0)"/>
       <use xlink:href="#DejaVuSans-30" transform="translate(190.869141 0)"/>
      </g>
     </g>
    </g>
    <g id="text_8">
     <!-- Episode -->
     <g transform="translate(216.5225 335.860562) scale(0.1 -0.1)">
      <defs>
       <path id="DejaVuSans-45" d="M 628 4666 
L 3578 4666 
L 3578 4134 
L 1259 4134 
L 1259 2753 
L 3481 2753 
L 3481 2222 
L 1259 2222 
L 1259 531 
L 3634 531 
L 3634 0 
L 628 0 
L 628 4666 
z
" transform="scale(0.015625)"/>
       <path id="DejaVuSans-70" d="M 1159 525 
L 1159 -1331 
L 581 -1331 
L 581 3500 
L 1159 3500 
L 1159 2969 
Q 1341 3281 1617 3432 
Q 1894 3584 2278 3584 
Q 2916 3584 3314 3078 
Q 3713 2572 3713 1747 
Q 3713 922 3314 415 
Q 2916 -91 2278 -91 
Q 1894 -91 1617 61 
Q 1341 213 1159 525 
z
M 3116 1747 
Q 3116 2381 2855 2742 
Q 2594 3103 2138 3103 
Q 1681 3103 1420 2742 
Q 1159 2381 1159 1747 
Q 1159 1113 1420 752 
Q 1681 391 2138 391 
Q 2594 391 2855 752 
Q 3116 1113 3116 1747 
z
" transform="scale(0.015625)"/>
       <path id="DejaVuSans-69" d="M 603 3500 
L 1178 3500 
L 1178 0 
L 603 0 
L 603 3500 
z
M 603 4863 
L 1178 4863 
L 1178 4134 
L 603 4134 
L 603 4863 
z
" transform="scale(0.015625)"/>
       <path id="DejaVuSans-73" d="M 2834 3397 
L 2834 2853 
Q 2591 2978 2328 3040 
Q 2066 3103 1784 3103 
Q 1356 3103 1142 2972 
Q 928 2841 928 2578 
Q 928 2378 1081 2264 
Q 1234 2150 1697 2047 
L 1894 2003 
Q 2506 1872 2764 1633 
Q 3022 1394 3022 966 
Q 3022 478 2636 193 
Q 2250 -91 1575 -91 
Q 1294 -91 989 -36 
Q 684 19 347 128 
L 347 722 
Q 666 556 975 473 
Q 1284 391 1588 391 
Q 1994 391 2212 530 
Q 2431 669 2431 922 
Q 2431 1156 2273 1281 
Q 2116 1406 1581 1522 
L 1381 1569 
Q 847 1681 609 1914 
Q 372 2147 372 2553 
Q 372 3047 722 3315 
Q 1072 3584 1716 3584 
Q 2034 3584 2315 3537 
Q 2597 3491 2834 3397 
z
" transform="scale(0.015625)"/>
       <path id="DejaVuSans-6f" d="M 1959 3097 
Q 1497 3097 1228 2736 
Q 959 2375 959 1747 
Q 959 1119 1226 758 
Q 1494 397 1959 397 
Q 2419 397 2687 759 
Q 2956 1122 2956 1747 
Q 2956 2369 2687 2733 
Q 2419 3097 1959 3097 
z
M 1959 3584 
Q 2709 3584 3137 3096 
Q 3566 2609 3566 1747 
Q 3566 888 3137 398 
Q 2709 -91 1959 -91 
Q 1206 -91 779 398 
Q 353 888 353 1747 
Q 353 2609 779 3096 
Q 1206 3584 1959 3584 
z
" transform="scale(0.015625)"/>
       <path id="DejaVuSans-64" d="M 2906 2969 
L 2906 4863 
L 3481 4863 
L 3481 0 
L 2906 0 
L 2906 525 
Q 2725 213 2448 61 
Q 2172 -91 1784 -91 
Q 1150 -91 751 415 
Q 353 922 353 1747 
Q 353 2572 751 3078 
Q 1150 3584 1784 3584 
Q 2172 3584 2448 3432 
Q 2725 3281 2906 2969 
z
M 947 1747 
Q 947 1113 1208 752 
Q 1469 391 1925 391 
Q 2381 391 2643 752 
Q 2906 1113 2906 1747 
Q 2906 2381 2643 2742 
Q 2381 3103 1925 3103 
Q 1469 3103 1208 2742 
Q 947 2381 947 1747 
z
" transform="scale(0.015625)"/>
       <path id="DejaVuSans-65" d="M 3597 1894 
L 3597 1613 
L 953 1613 
Q 991 1019 1311 708 
Q 1631 397 2203 397 
Q 2534 397 2845 478 
Q 3156 559 3463 722 
L 3463 178 
Q 3153 47 2828 -22 
Q 2503 -91 2169 -91 
Q 1331 -91 842 396 
Q 353 884 353 1716 
Q 353 2575 817 3079 
Q 1281 3584 2069 3584 
Q 2775 3584 3186 3129 
Q 3597 2675 3597 1894 
z
M 3022 2063 
Q 3016 2534 2758 2815 
Q 2500 3097 2075 3097 
Q 1594 3097 1305 2825 
Q 1016 2553 972 2059 
L 3022 2063 
z
" transform="scale(0.015625)"/>
      </defs>
      <use xlink:href="#DejaVuSans-45"/>
      <use xlink:href="#DejaVuSans-70" transform="translate(63.183594 0)"/>
      <use xlink:href="#DejaVuSans-69" transform="translate(126.660156 0)"/>
      <use xlink:href="#DejaVuSans-73" transform="translate(154.443359 0)"/>
      <use xlink:href="#DejaVuSans-6f" transform="translate(206.542969 0)"/>
      <use xlink:href="#DejaVuSans-64" transform="translate(267.724609 0)"/>
      <use xlink:href="#DejaVuSans-65" transform="translate(331.201172 0)"/>
     </g>
    </g>
   </g>
   <g id="matplotlib.axis_2">
    <g id="ytick_1">
     <g id="line2d_8">
      <defs>
       <path id="me3ea020636" d="M 0 0 
L -3.5 0 
" style="stroke: #000000; stroke-width: 0.8"/>
      </defs>
      <g>
       <use xlink:href="#me3ea020636" x="57.6" y="280.720232" style="stroke: #000000; stroke-width: 0.8"/>
      </g>
     </g>
     <g id="text_9">
      <!-- −40 -->
      <g transform="translate(29.495313 284.519451) scale(0.1 -0.1)">
       <defs>
        <path id="DejaVuSans-2212" d="M 678 2272 
L 4684 2272 
L 4684 1741 
L 678 1741 
L 678 2272 
z
" transform="scale(0.015625)"/>
        <path id="DejaVuSans-34" d="M 2419 4116 
L 825 1625 
L 2419 1625 
L 2419 4116 
z
M 2253 4666 
L 3047 4666 
L 3047 1625 
L 3713 1625 
L 3713 1100 
L 3047 1100 
L 3047 0 
L 2419 0 
L 2419 1100 
L 313 1100 
L 313 1709 
L 2253 4666 
z
" transform="scale(0.015625)"/>
       </defs>
       <use xlink:href="#DejaVuSans-2212"/>
       <use xlink:href="#DejaVuSans-34" transform="translate(83.789062 0)"/>
       <use xlink:href="#DejaVuSans-30" transform="translate(147.412109 0)"/>
      </g>
     </g>
    </g>
    <g id="ytick_2">
     <g id="line2d_9">
      <g>
       <use xlink:href="#me3ea020636" x="57.6" y="241.873393" style="stroke: #000000; stroke-width: 0.8"/>
      </g>
     </g>
     <g id="text_10">
      <!-- −30 -->
      <g transform="translate(29.495313 245.672612) scale(0.1 -0.1)">
       <use xlink:href="#DejaVuSans-2212"/>
       <use xlink:href="#DejaVuSans-33" transform="translate(83.789062 0)"/>
       <use xlink:href="#DejaVuSans-30" transform="translate(147.412109 0)"/>
      </g>
     </g>
    </g>
    <g id="ytick_3">
     <g id="line2d_10">
      <g>
       <use xlink:href="#me3ea020636" x="57.6" y="203.026554" style="stroke: #000000; stroke-width: 0.8"/>
      </g>
     </g>
     <g id="text_11">
      <!-- −20 -->
      <g transform="translate(29.495313 206.825773) scale(0.1 -0.1)">
       <use xlink:href="#DejaVuSans-2212"/>
       <use xlink:href="#DejaVuSans-32" transform="translate(83.789062 0)"/>
       <use xlink:href="#DejaVuSans-30" transform="translate(147.412109 0)"/>
      </g>
     </g>
    </g>
    <g id="ytick_4">
     <g id="line2d_11">
      <g>
       <use xlink:href="#me3ea020636" x="57.6" y="164.179715" style="stroke: #000000; stroke-width: 0.8"/>
      </g>
     </g>
     <g id="text_12">
      <!-- −10 -->
      <g transform="translate(29.495313 167.978934) scale(0.1 -0.1)">
       <use xlink:href="#DejaVuSans-2212"/>
       <use xlink:href="#DejaVuSans-31" transform="translate(83.789062 0)"/>
       <use xlink:href="#DejaVuSans-30" transform="translate(147.412109 0)"/>
      </g>
     </g>
    </g>
    <g id="ytick_5">
     <g id="line2d_12">
      <g>
       <use xlink:href="#me3ea020636" x="57.6" y="125.332876" style="stroke: #000000; stroke-width: 0.8"/>
      </g>
     </g>
     <g id="text_13">
      <!-- 0 -->
      <g transform="translate(44.2375 129.132095) scale(0.1 -0.1)">
       <use xlink:href="#DejaVuSans-30"/>
      </g>
     </g>
    </g>
    <g id="ytick_6">
     <g id="line2d_13">
      <g>
       <use xlink:href="#me3ea020636" x="57.6" y="86.486037" style="stroke: #000000; stroke-width: 0.8"/>
      </g>
     </g>
     <g id="text_14">
      <!-- 10 -->
      <g transform="translate(37.875 90.285256) scale(0.1 -0.1)">
       <use xlink:href="#DejaVuSans-31"/>
       <use xlink:href="#DejaVuSans-30" transform="translate(63.623047 0)"/>
      </g>
     </g>
    </g>
    <g id="ytick_7">
     <g id="line2d_14">
      <g>
       <use xlink:href="#me3ea020636" x="57.6" y="47.639198" style="stroke: #000000; stroke-width: 0.8"/>
      </g>
     </g>
     <g id="text_15">
      <!-- 20 -->
      <g transform="translate(37.875 51.438417) scale(0.1 -0.1)">
       <use xlink:href="#DejaVuSans-32"/>
       <use xlink:href="#DejaVuSans-30" transform="translate(63.623047 0)"/>
      </g>
     </g>
    </g>
    <g id="text_16">
     <!-- Loss -->
     <g transform="translate(23.415625 185.495187) rotate(-90) scale(0.1 -0.1)">
      <defs>
       <path id="DejaVuSans-4c" d="M 628 4666 
L 1259 4666 
L 1259 531 
L 3531 531 
L 3531 0 
L 628 0 
L 628 4666 
z
" transform="scale(0.015625)"/>
      </defs>
      <use xlink:href="#DejaVuSans-4c"/>
      <use xlink:href="#DejaVuSans-6f" transform="translate(53.962891 0)"/>
      <use xlink:href="#DejaVuSans-73" transform="translate(115.144531 0)"/>
      <use xlink:href="#DejaVuSans-73" transform="translate(167.244141 0)"/>
     </g>
    </g>
   </g>
   <g id="line2d_15">
    <path d="M 73.832727 122.685846 
L 73.940982 125.556113 
L 74.265744 124.290736 
L 74.373999 127.676559 
L 74.482253 125.269193 
L 74.590507 125.626263 
L 74.698761 125.408635 
L 74.807016 122.896234 
L 74.91527 127.111718 
L 75.131778 122.177931 
L 75.240033 128.848889 
L 75.456541 126.02679 
L 75.564796 108.111663 
L 75.67305 121.248105 
L 75.781304 119.431148 
L 75.889558 120.804065 
L 75.997813 119.426329 
L 76.106067 130.438195 
L 76.214321 126.241646 
L 76.322575 128.365446 
L 76.43083 125.757281 
L 76.539084 120.369725 
L 76.647338 128.289395 
L 76.755592 127.736656 
L 76.863847 129.648212 
L 76.972101 128.083092 
L 77.080355 128.109358 
L 77.18861 119.25893 
L 77.296864 128.88993 
L 77.405118 122.026587 
L 77.513372 130.13754 
L 77.621627 125.322521 
L 77.729881 128.066929 
L 77.838135 114.871821 
L 77.946389 124.908682 
L 78.162898 119.796058 
L 78.271152 120.916924 
L 78.379406 117.248084 
L 78.487661 127.038487 
L 78.704169 122.652236 
L 78.920678 127.993928 
L 79.137186 123.530481 
L 79.245441 127.268568 
L 79.353695 119.082555 
L 79.461949 127.824848 
L 79.678458 124.821657 
L 79.786712 127.067245 
L 79.894966 125.691438 
L 80.00322 125.786252 
L 80.111475 130.219823 
L 80.219729 129.153026 
L 80.327983 125.849815 
L 80.436238 134.083708 
L 80.544492 132.418708 
L 80.761 122.438779 
L 80.977509 132.2623 
L 81.085763 122.739767 
L 81.194017 139.517257 
L 81.302272 125.017504 
L 81.410526 129.565868 
L 81.51878 117.44038 
L 81.627034 137.235467 
L 81.735289 120.220216 
L 81.843543 133.327144 
L 81.951797 119.794791 
L 82.168306 128.784895 
L 82.384814 118.147678 
L 82.493069 139.619278 
L 82.601323 124.364698 
L 82.709577 141.647149 
L 82.817831 128.4284 
L 82.926086 136.479817 
L 83.250848 118.155319 
L 83.359103 137.555279 
L 83.467357 126.369208 
L 83.575611 129.795064 
L 83.79212 121.728082 
L 83.900374 122.596716 
L 84.008628 128.80193 
L 84.116883 119.297021 
L 84.225137 119.600396 
L 84.333391 124.941894 
L 84.441645 119.998132 
L 84.5499 124.163356 
L 84.658154 156.068951 
L 84.766408 131.003789 
L 84.874662 131.834866 
L 84.982917 120.3985 
L 85.091171 122.363584 
L 85.199425 126.609708 
L 85.30768 116.897233 
L 85.415934 122.93195 
L 85.524188 120.563341 
L 85.740697 132.810726 
L 85.848951 151.119613 
L 86.065459 126.48022 
L 86.173714 146.26783 
L 86.281968 123.503973 
L 86.498476 148.649487 
L 86.606731 127.834984 
L 86.714985 147.868378 
L 86.823239 112.556456 
L 86.931494 127.800503 
L 87.039748 122.976235 
L 87.148002 144.969908 
L 87.256256 116.425812 
L 87.472765 143.413204 
L 87.581019 127.91285 
L 87.797528 140.181216 
L 87.905782 201.250999 
L 88.014036 105.611106 
L 88.12229 147.341752 
L 88.230545 104.672492 
L 88.338799 148.267656 
L 88.447053 133.599051 
L 88.663562 183.638248 
L 88.771816 106.358421 
L 88.88007 141.351905 
L 88.988325 113.143958 
L 89.204833 130.046658 
L 89.313087 108.495731 
L 89.63785 132.07981 
L 89.854359 111.960651 
L 90.070867 133.430829 
L 90.179122 124.728059 
L 90.287376 128.851923 
L 90.39563 147.610983 
L 90.612139 129.336681 
L 90.720393 152.633241 
L 90.828647 109.886549 
L 90.936901 113.474316 
L 91.261664 143.119551 
L 91.369918 134.082954 
L 91.586427 177.946822 
L 91.694681 138.993617 
L 91.802936 153.283025 
L 91.91119 109.024655 
L 92.019444 126.144916 
L 92.127698 123.204045 
L 92.235953 189.463006 
L 92.344207 123.321127 
L 92.452461 129.118234 
L 92.560715 125.197008 
L 92.66897 144.407863 
L 92.885478 116.558799 
L 93.210241 127.178355 
L 93.42675 120.566474 
L 93.535004 130.339239 
L 93.643258 116.580499 
L 93.751512 156.651191 
L 93.859767 135.374186 
L 93.968021 150.037404 
L 94.184529 114.668473 
L 94.292784 118.423374 
L 94.401038 134.100662 
L 94.617546 119.22699 
L 94.725801 149.053713 
L 94.834055 119.801419 
L 94.942309 134.222928 
L 95.050564 102.720399 
L 95.267072 121.643982 
L 95.375326 117.983089 
L 95.483581 129.237577 
L 95.591835 152.395185 
L 95.700089 114.615178 
L 95.916598 144.132068 
L 96.024852 131.427792 
L 96.133106 217.908368 
L 96.349615 121.477603 
L 96.457869 134.670405 
L 96.566123 126.961737 
L 96.782632 153.203596 
L 96.890886 123.336506 
L 96.99914 129.642017 
L 97.432157 106.87123 
L 97.540412 121.430873 
L 97.648666 112.121394 
L 97.75692 147.808584 
L 97.865174 124.180986 
L 97.973429 147.177747 
L 98.189937 132.618349 
L 98.298192 145.905177 
L 98.406446 102.773825 
L 98.622954 138.367617 
L 98.839463 118.593522 
L 98.947717 134.102022 
L 99.055971 123.428286 
L 99.164226 90.009673 
L 99.380734 117.034177 
L 99.488988 103.163671 
L 99.705497 114.838944 
L 99.813751 119.430017 
L 99.922006 110.967396 
L 100.03026 117.521483 
L 100.138514 106.100318 
L 100.246768 150.072572 
L 100.355023 127.200397 
L 100.463277 142.581669 
L 100.679785 123.354754 
L 100.78804 155.717657 
L 101.004548 110.317738 
L 101.112802 149.298938 
L 101.221057 113.972137 
L 101.329311 117.018384 
L 101.54582 156.180736 
L 101.762328 105.904316 
L 101.978837 134.031895 
L 102.087091 99.978769 
L 102.195345 142.828065 
L 102.303599 107.13717 
L 102.411854 130.595677 
L 102.628362 100.829849 
L 102.953125 128.529891 
L 103.061379 117.467244 
L 103.277888 139.961292 
L 103.386142 112.277733 
L 103.494396 142.814498 
L 103.602651 99.162837 
L 103.710905 146.391505 
L 103.819159 138.684736 
L 103.927413 115.787722 
L 104.143922 125.679288 
L 104.252176 128.04441 
L 104.36043 158.164856 
L 104.576939 111.060507 
L 104.685193 133.926862 
L 104.793448 132.824423 
L 104.901702 123.86346 
L 105.009956 188.155261 
L 105.11821 186.285588 
L 105.334719 115.440606 
L 105.442973 138.985354 
L 105.659482 102.590043 
L 105.767736 123.459653 
L 105.87599 171.445396 
L 105.984244 136.232235 
L 106.092499 141.159576 
L 106.309007 118.457536 
L 106.417262 120.223395 
L 106.525516 118.542135 
L 106.742024 138.127613 
L 106.850279 134.968378 
L 106.958533 118.2821 
L 107.066787 119.340978 
L 107.175041 130.267547 
L 107.39155 121.152743 
L 107.499804 124.167461 
L 107.608058 123.676838 
L 107.716313 133.165533 
L 107.824567 132.762679 
L 107.932821 123.601074 
L 108.041076 132.093672 
L 108.257584 121.955229 
L 108.365838 147.754902 
L 108.474093 126.353932 
L 108.582347 140.854618 
L 108.690601 119.89726 
L 108.798855 126.600235 
L 108.90711 124.782602 
L 109.123618 139.301741 
L 109.231872 138.979282 
L 109.340127 137.308437 
L 109.448381 119.546735 
L 109.556635 137.295938 
L 109.66489 134.481023 
L 109.773144 168.192049 
L 109.989652 124.330647 
L 110.206161 133.012632 
L 110.314415 160.864832 
L 110.530924 111.614584 
L 110.747432 130.501088 
L 110.963941 131.27169 
L 111.072195 129.758856 
L 111.180449 119.931547 
L 111.288704 160.841478 
L 111.396958 118.240839 
L 111.613466 137.543498 
L 111.721721 126.960381 
L 111.829975 147.637364 
L 112.046483 124.902796 
L 112.154738 123.310208 
L 112.262992 133.835236 
L 112.4795 114.286777 
L 112.696009 125.309058 
L 112.804263 154.678641 
L 112.912518 154.184483 
L 113.129026 139.169753 
L 113.23728 180.14708 
L 113.345535 125.042543 
L 113.453789 139.386364 
L 113.562043 110.184937 
L 113.670297 130.931226 
L 113.778552 121.561909 
L 113.886806 174.690682 
L 114.103314 128.649106 
L 114.211569 124.608178 
L 114.319823 136.495333 
L 114.428077 133.042301 
L 114.536332 125.065789 
L 114.644586 142.563963 
L 114.75284 120.350011 
L 114.969349 141.880812 
L 115.077603 121.789138 
L 115.402366 174.883498 
L 115.51062 116.322604 
L 115.618874 126.514564 
L 115.727128 124.811229 
L 115.943637 111.494546 
L 116.051891 142.681182 
L 116.160146 116.050548 
L 116.2684 119.187506 
L 116.376654 138.684933 
L 116.484908 116.267352 
L 116.593163 137.356827 
L 116.701417 122.431104 
L 116.809671 124.136484 
L 116.917925 114.854043 
L 117.02618 137.520575 
L 117.134434 127.276317 
L 117.350942 130.309126 
L 117.459197 136.924492 
L 117.567451 155.4039 
L 117.675705 129.195707 
L 117.78396 133.808616 
L 117.892214 146.552101 
L 118.000468 190.865926 
L 118.108722 119.808608 
L 118.325231 134.579002 
L 118.433485 127.785098 
L 118.541739 130.764036 
L 118.649994 138.81952 
L 118.758248 241.061251 
L 118.866502 136.073156 
L 118.974756 181.587372 
L 119.299519 131.231607 
L 119.407774 136.74488 
L 119.516028 102.256785 
L 119.624282 127.552883 
L 119.732536 110.335326 
L 119.840791 143.42933 
L 119.949045 131.140782 
L 120.057299 155.481142 
L 120.165553 113.192738 
L 120.273808 134.157377 
L 120.382062 128.104753 
L 120.490316 92.453164 
L 120.59857 141.597763 
L 120.706825 120.89055 
L 120.815079 143.83999 
L 120.923333 104.537183 
L 121.139842 137.518302 
L 121.35635 105.161821 
L 121.464605 117.744065 
L 121.572859 148.823098 
L 121.681113 115.788512 
L 121.789367 167.437601 
L 122.005876 131.733919 
L 122.11413 111.900081 
L 122.330639 146.470269 
L 122.438893 142.808126 
L 122.547147 131.736656 
L 122.655401 107.643274 
L 122.763656 147.714339 
L 122.87191 140.528397 
L 123.088419 168.545676 
L 123.304927 128.971978 
L 123.521436 188.239477 
L 123.62969 114.028446 
L 123.846198 121.979394 
L 123.954453 103.85099 
L 124.062707 153.423373 
L 124.170961 145.213566 
L 124.279215 120.096139 
L 124.495724 162.105663 
L 124.603978 124.755423 
L 124.712233 125.481476 
L 124.820487 131.259894 
L 124.928741 123.157479 
L 125.14525 145.417991 
L 125.253504 101.571142 
L 125.470012 120.946943 
L 125.578267 143.753347 
L 125.686521 135.942778 
L 125.903029 98.238466 
L 126.011284 220.237016 
L 126.119538 143.981271 
L 126.227792 177.453587 
L 126.336047 134.669744 
L 126.444301 145.662595 
L 126.552555 138.632405 
L 126.660809 114.587296 
L 126.877318 212.728476 
L 126.985572 178.58256 
L 127.093826 80.644566 
L 127.202081 127.857662 
L 127.310335 106.580256 
L 127.418589 147.561236 
L 127.526843 100.245238 
L 127.635098 157.91664 
L 127.743352 156.735696 
L 127.959861 128.288436 
L 128.068115 126.677622 
L 128.176369 97.958728 
L 128.284623 159.815051 
L 128.501132 117.152691 
L 128.609386 141.53166 
L 128.71764 114.432576 
L 128.825895 148.123063 
L 128.934149 146.941862 
L 129.150657 115.183299 
L 129.258912 181.399587 
L 129.367166 121.776823 
L 129.47542 128.797888 
L 129.583675 117.188964 
L 129.800183 138.900554 
L 130.016692 110.598046 
L 130.2332 136.920597 
L 130.341454 140.203776 
L 130.449709 128.777538 
L 130.557963 133.829284 
L 130.666217 122.485617 
L 130.774471 170.843456 
L 130.882726 132.992699 
L 130.99098 139.683768 
L 131.099234 138.719227 
L 131.207489 172.239641 
L 131.423997 127.790752 
L 131.532251 151.671719 
L 131.640506 126.057626 
L 131.74876 128.606715 
L 131.857014 142.828884 
L 131.965268 139.439836 
L 132.181777 164.851078 
L 132.398285 123.445529 
L 132.614794 152.097797 
L 132.831303 122.358095 
L 133.047811 145.145314 
L 133.26432 132.199051 
L 133.372574 144.563639 
L 133.589082 123.103616 
L 133.697337 151.022422 
L 133.805591 147.956398 
L 133.913845 148.03798 
L 134.022099 129.325963 
L 134.130354 150.522849 
L 134.238608 123.207156 
L 134.346862 144.063231 
L 134.563371 130.869855 
L 134.671625 136.19613 
L 134.888134 102.654253 
L 134.996388 128.175298 
L 135.104642 120.07662 
L 135.429405 174.018878 
L 135.537659 168.867924 
L 135.645913 116.664557 
L 135.754168 152.136284 
L 135.970676 129.76097 
L 136.078931 122.804125 
L 136.187185 147.008908 
L 136.295439 130.833675 
L 136.403693 162.84547 
L 136.511948 105.762448 
L 136.620202 170.481234 
L 136.728456 123.806685 
L 136.83671 133.205618 
L 136.944965 127.853419 
L 137.053219 132.170916 
L 137.161473 119.816815 
L 137.269727 133.593581 
L 137.377982 133.017442 
L 137.486236 128.35615 
L 137.702745 156.481667 
L 137.919253 131.427018 
L 138.027507 127.606711 
L 138.135762 154.793599 
L 138.244016 121.062627 
L 138.35227 130.82668 
L 138.460524 119.808161 
L 138.568779 176.281883 
L 138.893541 120.455826 
L 139.001796 124.659107 
L 139.218304 144.569466 
L 139.543067 114.388736 
L 139.651321 135.846533 
L 139.759576 133.090764 
L 139.86783 94.766362 
L 139.976084 138.199348 
L 140.084338 122.721703 
L 140.192593 155.153553 
L 140.409101 122.305619 
L 140.517355 106.398202 
L 140.62561 134.645832 
L 140.842118 130.095778 
L 141.058627 167.870049 
L 141.166881 139.087872 
L 141.275135 144.077968 
L 141.38339 129.670568 
L 141.491644 131.129238 
L 141.599898 114.542006 
L 141.708152 137.233649 
L 141.924661 119.18853 
L 142.032915 135.535633 
L 142.141169 111.718253 
L 142.249424 160.094506 
L 142.357678 120.125174 
L 142.465932 177.618017 
L 142.574187 129.112387 
L 142.682441 150.502266 
L 142.790695 108.31 
L 142.898949 136.625463 
L 143.115458 108.937219 
L 143.223712 121.071663 
L 143.331966 152.354138 
L 143.440221 121.079343 
L 143.656729 134.466858 
L 143.764983 131.040004 
L 143.873238 145.553233 
L 143.981492 102.51187 
L 144.089746 150.243383 
L 144.198001 150.156148 
L 144.306255 134.162038 
L 144.414509 139.472527 
L 144.631018 102.782237 
L 144.739272 119.910067 
L 144.847526 98.133754 
L 145.064035 106.89069 
L 145.172289 235.592835 
L 145.280543 119.066699 
L 145.388797 119.178099 
L 145.497052 136.945551 
L 145.605306 130.036024 
L 145.71356 159.671293 
L 145.821815 97.737315 
L 145.930069 176.471527 
L 146.038323 128.62961 
L 146.146577 136.533138 
L 146.254832 131.666315 
L 146.363086 174.859162 
L 146.47134 165.255352 
L 146.579594 104.126531 
L 146.687849 111.12916 
L 146.796103 127.571631 
L 146.904357 171.188614 
L 147.120866 117.430819 
L 147.22912 119.893676 
L 147.337374 131.031949 
L 147.445629 163.513917 
L 147.878646 104.645948 
L 148.095154 142.937671 
L 148.203408 124.829281 
L 148.311663 87.512042 
L 148.419917 153.201216 
L 148.528171 125.047872 
L 148.636425 133.719873 
L 148.74468 124.916922 
L 148.852934 141.770837 
L 148.961188 117.285284 
L 149.069443 127.922638 
L 149.177697 114.109839 
L 149.394205 135.018808 
L 149.50246 117.241809 
L 149.610714 127.943541 
L 149.718968 124.303657 
L 149.827222 107.941371 
L 149.935477 115.585286 
L 150.043731 106.506617 
L 150.260239 149.732593 
L 150.476748 114.019616 
L 150.585002 112.720492 
L 150.693257 130.245722 
L 150.801511 113.500712 
L 150.909765 118.357756 
L 151.018019 141.556302 
L 151.126274 118.944937 
L 151.234528 148.503534 
L 151.342782 143.855222 
L 151.451036 105.982395 
L 151.559291 110.150339 
L 151.775799 172.096868 
L 151.884053 179.776733 
L 152.208816 95.739132 
L 152.317071 119.221335 
L 152.425325 112.347196 
L 152.533579 128.055656 
L 152.641833 111.516333 
L 152.750088 112.808155 
L 152.858342 110.362458 
L 152.966596 113.584476 
L 153.07485 152.764968 
L 153.291359 120.464189 
L 153.399613 139.842289 
L 153.507867 110.063707 
L 153.724376 132.012325 
L 153.83263 167.663818 
L 153.940885 128.256934 
L 154.049139 135.442701 
L 154.157393 121.836271 
L 154.265647 126.871008 
L 154.373902 115.239305 
L 154.482156 127.757168 
L 154.59041 108.892239 
L 154.698664 124.288292 
L 154.806919 120.688823 
L 154.915173 158.314653 
L 155.023427 132.278352 
L 155.131681 151.742981 
L 155.239936 117.269764 
L 155.34819 151.315604 
L 155.456444 121.477576 
L 155.564699 140.313244 
L 155.672953 111.672178 
L 155.781207 155.943834 
L 155.997716 124.578159 
L 156.10597 123.242404 
L 156.322478 135.405306 
L 156.430733 131.234264 
L 156.538987 114.806266 
L 156.755495 138.502284 
L 156.972004 119.765216 
L 157.080258 133.967588 
L 157.188513 133.901955 
L 157.296767 114.386978 
L 157.405021 156.931324 
L 157.513275 104.838453 
L 157.62153 146.844533 
L 157.946292 119.656113 
L 158.054547 160.412693 
L 158.162801 111.064403 
L 158.379309 134.345298 
L 158.487564 201.976658 
L 158.704072 101.015186 
L 158.920581 140.78453 
L 159.028835 127.689039 
L 159.137089 143.074875 
L 159.245344 123.012795 
L 159.353598 140.130861 
L 159.678361 121.097835 
L 159.894869 133.53422 
L 160.111378 107.238007 
L 160.219632 120.385627 
L 160.327886 113.348945 
L 160.544395 141.882999 
L 160.652649 120.25328 
L 160.760903 122.975814 
L 160.869158 109.832487 
L 160.977412 139.769176 
L 161.19392 119.595382 
L 161.302175 113.825342 
L 161.518683 127.648413 
L 161.735192 162.333033 
L 161.843446 109.789265 
L 162.059955 166.537382 
L 162.276463 106.121033 
L 162.492972 131.523902 
L 162.601226 115.477887 
L 162.70948 123.605696 
L 162.817734 112.467657 
L 163.034243 137.452382 
L 163.142497 122.545733 
L 163.250751 125.529354 
L 163.359006 113.23639 
L 163.46726 117.024979 
L 163.575514 129.60179 
L 163.683769 124.385897 
L 163.792023 136.570913 
L 164.008531 119.627846 
L 164.116786 156.374704 
L 164.22504 125.554806 
L 164.333294 140.564058 
L 164.441548 128.944841 
L 164.658057 144.699337 
L 164.874565 109.612687 
L 165.199328 150.692742 
L 165.307583 118.763694 
L 165.415837 130.08121 
L 165.632345 118.263591 
L 165.848854 139.644715 
L 165.957108 116.924414 
L 166.173617 140.784512 
L 166.606634 112.24377 
L 166.714888 126.007908 
L 167.039651 110.792053 
L 167.147905 147.458767 
L 167.256159 106.557305 
L 167.364414 158.151141 
L 167.472668 122.287914 
L 167.580922 159.644741 
L 167.797431 137.179917 
L 167.905685 107.624466 
L 168.122193 128.691561 
L 168.230448 118.855553 
L 168.446956 180.028425 
L 168.555211 113.438924 
L 168.663465 139.627441 
L 168.879973 115.268514 
L 168.988228 153.190381 
L 169.096482 113.990861 
L 169.204736 117.295897 
L 169.421245 152.384725 
L 169.637753 129.654593 
L 169.962516 150.881322 
L 170.07077 134.686222 
L 170.179025 164.484592 
L 170.287279 160.889521 
L 170.395533 111.092836 
L 170.612042 133.780088 
L 170.720296 117.095881 
L 170.82855 75.714187 
L 170.936804 153.782591 
L 171.153313 138.383608 
L 171.261567 122.048863 
L 171.478076 168.042637 
L 171.58633 123.51147 
L 171.694584 126.550529 
L 171.802839 157.119587 
L 172.127601 120.833938 
L 172.235856 124.039942 
L 172.34411 132.397127 
L 172.452364 188.579734 
L 172.560618 127.818832 
L 172.668873 170.804486 
L 172.777127 109.207638 
L 172.885381 155.01992 
L 172.993635 112.342455 
L 173.210144 180.488237 
L 173.318398 153.853345 
L 173.426653 89.082804 
L 173.534907 128.076316 
L 173.643161 248.51588 
L 173.751415 108.898285 
L 173.967924 139.443769 
L 174.076178 116.701936 
L 174.184432 201.968515 
L 174.292687 107.579416 
L 174.400941 195.781708 
L 174.617449 136.538949 
L 174.725704 150.96403 
L 174.942212 92.579799 
L 175.158721 169.554513 
L 175.375229 122.05856 
L 175.483484 117.490168 
L 175.591738 93.756186 
L 175.808246 131.677337 
L 176.024755 91.454667 
L 176.133009 175.089936 
L 176.457772 117.798933 
L 176.674281 153.743702 
L 176.782535 142.796121 
L 176.890789 132.158775 
L 176.999043 167.040058 
L 177.215552 117.831041 
L 177.43206 141.924698 
L 177.540315 118.772148 
L 177.648569 144.715681 
L 177.756823 102.675972 
L 177.973332 121.028942 
L 178.081586 122.055438 
L 178.18984 106.585676 
L 178.406349 149.625949 
L 178.731112 111.912249 
L 178.839366 146.294424 
L 178.94762 116.822693 
L 179.055874 162.566593 
L 179.164129 111.471232 
L 179.380637 141.570593 
L 179.488891 117.901448 
L 179.597146 132.884068 
L 179.813654 101.532433 
L 179.921909 113.814601 
L 180.030163 111.736535 
L 180.246671 130.318827 
L 180.354926 154.164081 
L 180.46318 113.001118 
L 180.679688 142.054072 
L 180.896197 118.322704 
L 181.22096 150.04587 
L 181.329214 139.259309 
L 181.437468 170.873335 
L 181.545723 118.812585 
L 181.762231 125.938127 
L 181.870485 159.188804 
L 182.086994 116.005396 
L 182.195248 149.987724 
L 182.303502 97.616195 
L 182.411757 105.443254 
L 182.520011 138.13275 
L 182.628265 68.647405 
L 182.736519 151.439127 
L 183.061282 100.641881 
L 183.169537 121.124975 
L 183.277791 221.606534 
L 183.602554 140.90837 
L 183.710808 187.457747 
L 183.927316 99.258085 
L 184.143825 153.241697 
L 184.252079 123.650543 
L 184.468588 158.124871 
L 184.576842 84.727872 
L 184.793351 188.021691 
L 185.009859 103.855786 
L 185.118113 154.509113 
L 185.226368 88.930539 
L 185.334622 100.405453 
L 185.442876 156.943842 
L 185.659385 95.797644 
L 185.767639 159.711508 
L 185.875893 82.036583 
L 185.984147 173.091508 
L 186.200656 110.008481 
L 186.30891 144.35294 
L 186.525419 105.142731 
L 186.741927 168.685099 
L 186.958436 89.929285 
L 187.06669 91.486613 
L 187.174944 169.205113 
L 187.391453 56.631006 
L 187.499707 132.981735 
L 187.82447 99.121868 
L 187.932724 136.252621 
L 188.040979 110.559432 
L 188.149233 140.959186 
L 188.257487 102.942744 
L 188.365741 125.523056 
L 188.473996 98.671076 
L 188.58225 113.751198 
L 188.690504 276.069115 
L 188.907013 129.688496 
L 189.015267 165.988205 
L 189.123521 162.158574 
L 189.231775 149.085079 
L 189.448284 182.259639 
L 189.556538 127.010745 
L 189.664793 176.639652 
L 189.773047 107.002565 
L 189.881301 109.617071 
L 189.989555 153.983014 
L 190.09781 82.635003 
L 190.314318 139.832849 
L 190.422572 76.067811 
L 190.530827 174.637775 
L 190.639081 118.993388 
L 190.747335 137.871673 
L 190.855589 182.533418 
L 191.072098 101.984306 
L 191.180352 163.327066 
L 191.396861 112.013411 
L 191.613369 119.832829 
L 191.721624 126.048898 
L 191.829878 170.649073 
L 192.154641 76.387247 
L 192.262895 205.636872 
L 192.371149 108.052322 
L 192.587658 145.670834 
L 192.695912 164.105195 
L 193.020675 84.336694 
L 193.128929 123.859274 
L 193.237183 65.004562 
L 193.345438 73.386721 
L 193.453692 234.250073 
L 193.561946 119.485424 
L 193.6702 125.710217 
L 193.778455 144.182356 
L 193.886709 129.568253 
L 193.994963 145.810804 
L 194.103217 142.233236 
L 194.211472 105.884353 
L 194.319726 140.326295 
L 194.42798 111.529091 
L 194.536235 182.091482 
L 194.752743 102.178263 
L 194.969252 152.804196 
L 195.077506 135.905495 
L 195.18576 93.031327 
L 195.294014 174.051558 
L 195.402269 128.06742 
L 195.510523 153.30081 
L 195.618777 147.337452 
L 195.835286 130.087489 
L 195.94354 128.575103 
L 196.051794 116.461239 
L 196.160049 152.819383 
L 196.268303 151.299496 
L 196.376557 97.744289 
L 196.593066 139.426104 
L 196.70132 140.075693 
L 196.809574 144.000339 
L 196.917828 114.288083 
L 197.026083 114.540639 
L 197.134337 123.698173 
L 197.242591 159.602841 
L 197.4591 65.855889 
L 197.567354 179.042124 
L 197.675608 147.046122 
L 197.783862 148.197791 
L 197.892117 102.515113 
L 198.000371 134.640347 
L 198.108625 122.147264 
L 198.21688 73.041456 
L 198.433388 176.008837 
L 198.866405 88.192258 
L 198.974659 149.061755 
L 199.191168 129.118995 
L 199.299422 156.590234 
L 199.515931 107.710172 
L 199.624185 158.514319 
L 199.840694 101.083582 
L 199.948948 125.388831 
L 200.057202 198.46827 
L 200.165456 134.89556 
L 200.381965 174.9457 
L 200.490219 110.3675 
L 200.598473 144.013913 
L 200.706728 104.620176 
L 200.814982 139.159644 
L 201.03149 107.05153 
L 201.247999 142.007698 
L 201.356253 116.539993 
L 201.572762 156.06092 
L 201.681016 114.674016 
L 201.78927 116.041556 
L 201.897525 146.824009 
L 202.114033 133.628927 
L 202.222287 120.351598 
L 202.330542 176.700268 
L 202.54705 114.170926 
L 202.655304 178.391463 
L 202.871813 119.598012 
L 202.980067 136.263619 
L 203.088322 122.626494 
L 203.196576 146.965218 
L 203.30483 112.292145 
L 203.413084 114.673598 
L 203.521339 134.301422 
L 203.629593 113.146658 
L 203.846101 142.222009 
L 204.06261 125.9338 
L 204.170864 157.924016 
L 204.387373 106.360555 
L 204.495627 157.025902 
L 204.712136 103.234513 
L 204.82039 109.256033 
L 205.036898 180.589394 
L 205.145153 88.167159 
L 205.361661 134.89571 
L 205.469915 150.646283 
L 205.57817 85.066617 
L 205.902932 181.847563 
L 206.011187 142.487567 
L 206.119441 162.415533 
L 206.227695 151.923955 
L 206.33595 101.518278 
L 206.444204 121.668585 
L 206.552458 172.527498 
L 206.660712 159.542209 
L 206.768967 182.637313 
L 206.877221 122.456197 
L 206.985475 140.354425 
L 207.201984 118.508194 
L 207.310238 64.291336 
L 207.418492 131.733854 
L 207.526746 121.520108 
L 207.635001 140.042937 
L 207.743255 95.524432 
L 207.851509 111.641921 
L 207.959764 219.297054 
L 208.176272 114.760153 
L 208.284526 127.140408 
L 208.392781 122.134875 
L 208.501035 150.44279 
L 208.609289 94.988558 
L 208.717543 113.973346 
L 208.825798 176.762245 
L 208.934052 143.938389 
L 209.042306 69.317082 
L 209.258815 173.035926 
L 209.367069 115.032083 
L 209.475323 179.799414 
L 209.583578 93.564941 
L 209.691832 112.830119 
L 209.800086 163.164784 
L 209.90834 97.244529 
L 210.016595 111.167956 
L 210.124849 100.369702 
L 210.233103 77.119311 
L 210.341357 131.529698 
L 210.449612 71.759762 
L 210.66612 105.534185 
L 210.774374 112.906166 
L 210.882629 68.4929 
L 211.099137 152.660597 
L 211.315646 107.090296 
L 211.4239 153.731232 
L 211.532154 93.58219 
L 211.748663 156.26942 
L 211.856917 120.476821 
L 211.965171 147.613986 
L 212.073426 108.922482 
L 212.18168 115.540055 
L 212.289934 171.060157 
L 212.398188 155.743227 
L 212.506443 198.416471 
L 212.614697 180.073074 
L 212.722951 115.702654 
L 212.831206 151.233461 
L 213.047714 53.568 
L 213.155968 132.502936 
L 213.264223 127.119345 
L 213.372477 130.605164 
L 213.588985 248.637195 
L 213.69724 129.66492 
L 213.913748 157.663344 
L 214.022002 110.316108 
L 214.130257 127.635006 
L 214.238511 110.93672 
L 214.346765 70.232016 
L 214.563274 165.763555 
L 214.779782 122.03707 
L 214.888037 117.847191 
L 215.104545 182.304325 
L 215.321054 91.429775 
L 215.429308 97.145685 
L 215.537562 162.823853 
L 215.754071 158.171458 
L 215.862325 174.473481 
L 215.970579 114.472808 
L 216.078834 129.970896 
L 216.187088 111.451545 
L 216.295342 188.359021 
L 216.511851 132.653277 
L 216.620105 128.660233 
L 216.728359 137.722515 
L 216.836613 127.262039 
L 216.944868 134.309041 
L 217.053122 152.504209 
L 217.161376 128.742609 
L 217.26963 170.072892 
L 217.377885 153.043239 
L 217.486139 113.990398 
L 217.594393 206.953413 
L 217.702648 111.623655 
L 217.810902 175.131196 
L 217.919156 142.076866 
L 218.02741 159.215864 
L 218.352173 54.885844 
L 218.568682 246.367022 
L 218.676936 89.788827 
L 218.893444 197.492661 
L 219.001699 107.131191 
L 219.109953 140.383443 
L 219.218207 138.771442 
L 219.54297 98.29369 
L 219.651224 152.588571 
L 219.867733 100.725061 
L 219.975987 164.266376 
L 220.084241 79.656998 
L 220.192496 122.922665 
L 220.30075 68.464018 
L 220.409004 152.998545 
L 220.517258 107.212411 
L 220.625513 107.868385 
L 220.733767 80.447068 
L 220.842021 135.161964 
L 221.05853 84.299891 
L 221.166784 183.955383 
L 221.383293 83.418089 
L 221.491547 189.472372 
L 221.599801 185.775125 
L 221.81631 82.7315 
L 221.924564 75.457683 
L 222.032818 101.15296 
L 222.141072 100.139139 
L 222.249327 171.285037 
L 222.465835 138.970588 
L 222.682344 107.715198 
L 222.790598 123.36218 
L 222.898852 174.81123 
L 223.007107 80.34195 
L 223.115361 130.073212 
L 223.223615 89.84418 
L 223.331869 136.859846 
L 223.548378 99.281671 
L 223.764886 148.078914 
L 223.981395 246.276234 
L 224.197904 117.205571 
L 224.306158 161.700073 
L 224.522666 109.458589 
L 224.630921 110.542426 
L 224.739175 119.568736 
L 224.847429 114.76035 
L 225.172192 161.121051 
L 225.280446 112.960958 
L 225.3887 155.941959 
L 225.496955 97.298626 
L 225.605209 104.145299 
L 225.713463 139.828283 
L 225.821718 111.70678 
L 225.929972 144.084848 
L 226.038226 120.799896 
L 226.14648 130.490056 
L 226.362989 178.306395 
L 226.471243 123.55868 
L 226.579497 125.547099 
L 226.687752 77.212978 
L 226.796006 145.785042 
L 226.90426 117.487854 
L 227.012514 120.809547 
L 227.120769 111.693107 
L 227.229023 112.174148 
L 227.445532 181.763124 
L 227.66204 140.055475 
L 227.770294 108.331864 
L 227.878549 110.24638 
L 228.095057 148.954849 
L 228.203311 116.365158 
L 228.311566 117.211985 
L 228.41982 175.930408 
L 228.636328 96.837212 
L 228.852837 205.419138 
L 228.961091 116.930025 
L 229.069346 183.678126 
L 229.1776 125.007499 
L 229.285854 222.116371 
L 229.502363 105.867626 
L 229.610617 179.371329 
L 229.718871 144.547679 
L 229.827125 164.94673 
L 229.93538 110.986971 
L 230.043634 221.029612 
L 230.260142 134.165187 
L 230.368397 140.753148 
L 230.476651 88.21725 
L 230.584905 137.47195 
L 230.801414 97.03454 
L 230.909668 169.98309 
L 231.017922 109.560339 
L 231.234431 139.401552 
L 231.342685 183.997469 
L 231.667448 61.210036 
L 231.775702 172.393594 
L 231.883956 83.760146 
L 231.992211 123.603015 
L 232.208719 102.497758 
L 232.316974 147.478704 
L 232.425228 94.506448 
L 232.533482 151.834651 
L 232.641736 112.211571 
L 232.749991 112.83427 
L 232.858245 90.025878 
L 232.966499 216.894208 
L 233.183008 106.384737 
L 233.399516 165.080537 
L 233.616025 120.611433 
L 233.724279 209.852862 
L 233.940788 118.94268 
L 234.049042 104.999163 
L 234.157296 142.534562 
L 234.373805 104.175561 
L 234.482059 154.354702 
L 234.590313 104.398604 
L 234.698567 156.881073 
L 234.806822 106.41855 
L 235.02333 111.73181 
L 235.131584 138.819178 
L 235.348093 130.310853 
L 235.456347 161.482539 
L 235.564602 92.503626 
L 235.672856 119.052777 
L 235.78111 102.159589 
L 235.889364 158.122126 
L 235.997619 142.944397 
L 236.105873 91.626467 
L 236.214127 191.834185 
L 236.53889 113.286363 
L 236.647144 118.019641 
L 236.755398 140.206914 
L 236.863653 126.510004 
L 236.971907 170.798277 
L 237.080161 119.477523 
L 237.29667 162.208517 
L 237.404924 119.896022 
L 237.513178 205.493552 
L 237.621433 112.09163 
L 237.729687 207.648004 
L 237.946195 109.776597 
L 238.05445 120.97477 
L 238.162704 114.216146 
L 238.379212 180.036872 
L 238.487467 174.408449 
L 238.595721 132.249088 
L 238.703975 141.168384 
L 238.81223 124.183787 
L 239.028738 148.746822 
L 239.136992 125.695771 
L 239.245247 179.468397 
L 239.461755 135.756045 
L 239.570009 129.877662 
L 239.678264 160.166722 
L 239.894772 119.814665 
L 240.003026 111.509592 
L 240.111281 123.059999 
L 240.219535 107.226775 
L 240.327789 125.712914 
L 240.436044 122.07428 
L 240.544298 155.638062 
L 240.760806 113.80144 
L 240.977315 123.620441 
L 241.085569 111.406113 
L 241.193823 117.821718 
L 241.302078 140.067919 
L 241.410332 127.72454 
L 241.518586 138.730132 
L 241.735095 111.627815 
L 241.843349 114.96699 
L 241.951603 145.990011 
L 242.059858 125.112789 
L 242.168112 143.202549 
L 242.38462 128.830222 
L 242.492875 146.562691 
L 242.709383 126.895995 
L 242.817637 127.531584 
L 242.925892 135.585684 
L 243.034146 124.18822 
L 243.1424 129.022886 
L 243.250654 121.783841 
L 243.358909 126.928765 
L 243.467163 154.705385 
L 243.683672 131.612051 
L 243.90018 141.446073 
L 244.116689 128.811 
L 244.224943 150.282626 
L 244.333197 148.844109 
L 244.441451 129.654426 
L 244.65796 144.325273 
L 244.766214 131.139977 
L 244.874468 139.726423 
L 244.982723 127.620803 
L 245.090977 156.556584 
L 245.307486 104.379191 
L 245.523994 146.435406 
L 245.632248 143.296998 
L 245.740503 113.114349 
L 245.957011 163.243028 
L 246.065265 119.380638 
L 246.17352 120.982728 
L 246.281774 114.628405 
L 246.390028 153.503519 
L 246.498282 132.628402 
L 246.606537 141.543308 
L 246.714791 127.461597 
L 246.823045 138.705118 
L 246.9313 196.724753 
L 247.147808 129.506262 
L 247.256062 139.746742 
L 247.364317 155.044636 
L 247.580825 121.689275 
L 247.689079 173.391128 
L 248.013842 111.438949 
L 248.122096 142.880498 
L 248.230351 84.043935 
L 248.338605 106.667895 
L 248.446859 165.535618 
L 248.663368 119.708938 
L 248.771622 124.437709 
L 248.879876 175.080771 
L 249.096385 101.772609 
L 249.204639 117.207935 
L 249.421148 183.223563 
L 249.529402 132.20398 
L 249.637656 165.898521 
L 249.74591 99.699007 
L 249.854165 228.109642 
L 250.070673 92.626875 
L 250.287182 122.728461 
L 250.395436 127.795301 
L 250.50369 119.615927 
L 250.720199 189.397588 
L 251.044962 112.309225 
L 251.153216 160.31989 
L 251.26147 104.933655 
L 251.369724 150.410681 
L 251.586233 125.816161 
L 251.694487 158.209265 
L 251.802742 103.959953 
L 252.127504 148.988734 
L 252.235759 120.92258 
L 252.344013 148.702252 
L 252.452267 133.580648 
L 252.668776 61.97867 
L 252.77703 182.036967 
L 252.885284 88.600989 
L 252.993538 184.051191 
L 253.101793 145.063517 
L 253.210047 159.98236 
L 253.318301 99.853951 
L 253.53481 137.861289 
L 253.643064 104.458876 
L 253.751318 141.064496 
L 253.967827 95.828178 
L 254.184335 153.019288 
L 254.400844 103.290191 
L 254.509098 114.778412 
L 254.617352 146.454681 
L 254.725607 139.333045 
L 254.942115 69.773838 
L 255.158624 175.3885 
L 255.266878 147.335083 
L 255.375132 180.081925 
L 255.591641 108.860424 
L 255.699895 134.338246 
L 255.808149 80.511463 
L 255.916404 132.127333 
L 256.024658 101.459241 
L 256.132912 138.615687 
L 256.241166 134.145627 
L 256.349421 96.555949 
L 256.457675 153.09886 
L 256.565929 134.935324 
L 256.674184 205.781935 
L 256.890692 104.119825 
L 256.998946 114.68984 
L 257.107201 113.506436 
L 257.215455 223.16866 
L 257.431963 54.793085 
L 257.648472 169.443916 
L 257.756726 116.99518 
L 257.86498 122.539712 
L 257.973235 99.088894 
L 258.081489 179.682559 
L 258.297998 67.841291 
L 258.406252 188.155247 
L 258.62276 113.047252 
L 258.839269 153.604897 
L 258.947523 128.239391 
L 259.055777 205.151509 
L 259.164032 88.584648 
L 259.272286 176.191428 
L 259.38054 127.148642 
L 259.488794 139.110577 
L 259.597049 95.697016 
L 259.705303 120.098474 
L 259.813557 96.438157 
L 259.921812 162.043764 
L 260.13832 77.989376 
L 260.354829 120.443705 
L 260.463083 124.417672 
L 260.571337 112.133757 
L 260.679591 203.75142 
L 260.8961 139.051994 
L 261.004354 123.747695 
L 261.112608 211.623883 
L 261.220863 124.091305 
L 261.329117 137.440938 
L 261.437371 182.064011 
L 261.545626 140.182904 
L 261.65388 142.262565 
L 261.762134 154.384725 
L 261.870388 142.947261 
L 261.978643 192.761448 
L 262.086897 153.173468 
L 262.195151 157.666004 
L 262.303405 123.981958 
L 262.41166 158.71284 
L 262.519914 150.699048 
L 262.628168 155.258734 
L 262.844677 143.986813 
L 262.952931 100.718561 
L 263.061185 148.215907 
L 263.277694 100.134693 
L 263.385948 121.205492 
L 263.494202 113.038817 
L 263.602457 121.129825 
L 263.710711 159.063225 
L 263.927219 113.441195 
L 264.143728 126.133045 
L 264.251982 109.400443 
L 264.360236 144.13847 
L 264.468491 116.434885 
L 264.684999 160.338532 
L 264.901508 109.367188 
L 265.009762 108.778172 
L 265.334525 173.804842 
L 265.442779 109.230663 
L 265.551033 137.955428 
L 265.659288 116.283369 
L 265.767542 167.513232 
L 265.875796 127.310317 
L 265.98405 132.880243 
L 266.092305 216.72791 
L 266.200559 197.570779 
L 266.417068 111.10805 
L 266.525322 121.130296 
L 266.633576 92.441068 
L 266.74183 108.663842 
L 266.850085 153.217804 
L 266.958339 112.715804 
L 267.066593 133.059157 
L 267.174847 131.23325 
L 267.283102 164.154997 
L 267.391356 132.957141 
L 267.607864 174.948538 
L 267.716119 111.208437 
L 267.824373 119.115672 
L 267.932627 97.463434 
L 268.040882 274.504329 
L 268.149136 81.836483 
L 268.365644 149.902982 
L 268.473899 141.803772 
L 268.690407 100.572579 
L 268.906916 112.229248 
L 269.01517 239.812263 
L 269.123424 74.729583 
L 269.231678 187.787323 
L 269.339933 113.398705 
L 269.448187 128.606766 
L 269.664696 95.018713 
L 269.77295 119.864743 
L 269.881204 119.724258 
L 269.989458 113.0659 
L 270.205967 90.633141 
L 270.422475 192.374393 
L 270.53073 120.833412 
L 270.638984 123.525881 
L 270.747238 63.734754 
L 270.963747 295.488 
L 271.180255 97.697893 
L 271.28851 81.560248 
L 271.505018 140.026783 
L 271.613272 266.392615 
L 271.721527 128.358423 
L 271.938035 149.208473 
L 272.046289 100.428559 
L 272.371052 165.485134 
L 272.587561 131.484611 
L 272.695815 156.78495 
L 272.912324 97.959287 
L 273.128832 181.412458 
L 273.345341 118.072634 
L 273.453595 97.308882 
L 273.561849 147.460405 
L 273.670103 108.273085 
L 273.778358 127.729788 
L 273.886612 86.830521 
L 274.10312 95.248674 
L 274.211375 68.976763 
L 274.319629 141.789323 
L 274.536138 99.016774 
L 274.644392 117.529514 
L 274.752646 160.979857 
L 274.969155 130.533805 
L 275.077409 133.597501 
L 275.185663 120.634016 
L 275.293917 198.344154 
L 275.402172 173.204317 
L 275.510426 107.064093 
L 275.61868 171.810941 
L 275.726934 100.643426 
L 275.943443 179.550838 
L 276.051697 86.253099 
L 276.159951 125.414358 
L 276.268206 117.830796 
L 276.484714 163.798336 
L 276.592969 133.205673 
L 276.701223 142.86589 
L 276.809477 124.127435 
L 276.917731 139.122906 
L 277.025986 137.43952 
L 277.13424 137.553424 
L 277.242494 120.554447 
L 277.459003 128.019705 
L 277.675511 159.733014 
L 277.783765 151.945433 
L 277.89202 115.813829 
L 278.000274 148.812345 
L 278.108528 144.852628 
L 278.216783 157.695123 
L 278.325037 108.107304 
L 278.433291 128.172574 
L 278.541545 105.913415 
L 278.6498 126.346333 
L 278.866308 122.091494 
L 278.974562 163.849143 
L 279.082817 110.421856 
L 279.407579 144.739591 
L 279.624088 114.983441 
L 279.732342 162.977151 
L 279.840597 145.067101 
L 279.948851 157.950215 
L 280.057105 99.63861 
L 280.165359 133.847024 
L 280.273614 116.74924 
L 280.381868 168.362429 
L 280.598376 115.688078 
L 280.706631 177.866071 
L 280.814885 106.968883 
L 280.923139 138.480409 
L 281.139648 113.839357 
L 281.247902 113.549276 
L 281.356156 139.027966 
L 281.464411 137.540173 
L 281.572665 117.443484 
L 281.680919 139.041121 
L 281.789173 73.935779 
L 281.897428 138.987912 
L 282.005682 96.931297 
L 282.113936 109.467641 
L 282.22219 139.856166 
L 282.330445 116.657591 
L 282.438699 186.091797 
L 282.655207 125.965088 
L 282.763462 119.790506 
L 282.871716 91.120416 
L 282.97997 104.678232 
L 283.088225 202.546281 
L 283.196479 114.158177 
L 283.304733 154.528066 
L 283.412987 121.823173 
L 283.521242 159.808486 
L 283.73775 108.684765 
L 283.954259 127.013238 
L 284.062513 130.382768 
L 284.170767 145.946845 
L 284.279021 143.339309 
L 284.49553 187.312363 
L 284.603784 159.692173 
L 284.712039 160.852133 
L 284.820293 160.075426 
L 284.928547 151.56428 
L 285.145056 122.939834 
L 285.25331 124.020696 
L 285.361564 160.57539 
L 285.469818 112.853744 
L 285.578073 156.110876 
L 285.794581 128.024385 
L 285.902835 142.928409 
L 286.119344 123.339839 
L 286.227598 135.700151 
L 286.335853 135.522326 
L 286.552361 154.99925 
L 286.660615 126.337984 
L 286.76887 149.205046 
L 286.877124 115.944186 
L 287.093632 150.897065 
L 287.201887 123.552107 
L 287.310141 162.189415 
L 287.418395 153.689869 
L 287.526649 156.220588 
L 287.634904 127.560053 
L 287.743158 139.236203 
L 287.851412 131.127931 
L 287.959667 139.550376 
L 288.067921 118.405983 
L 288.176175 131.256321 
L 288.284429 114.846219 
L 288.392684 146.785284 
L 288.500938 131.676928 
L 288.717446 146.341508 
L 288.825701 106.393588 
L 288.933955 143.644871 
L 289.150463 118.224766 
L 289.366972 143.543388 
L 289.583481 109.748563 
L 290.016498 148.184495 
L 290.124752 115.614987 
L 290.449515 173.381885 
L 290.557769 153.820723 
L 290.666023 106.404645 
L 290.774277 134.97452 
L 290.882532 123.952019 
L 290.990786 131.815102 
L 291.09904 125.332002 
L 291.207295 140.904254 
L 291.315549 115.148466 
L 291.423803 140.103278 
L 291.640312 132.394625 
L 291.748566 140.575087 
L 291.85682 139.170754 
L 291.965074 120.288424 
L 292.073329 164.70629 
L 292.181583 105.809549 
L 292.398091 181.707617 
L 292.506346 117.593295 
L 292.722854 152.13069 
L 292.831109 118.017392 
L 293.047617 135.84145 
L 293.155871 141.376099 
L 293.37238 116.766672 
L 293.588888 129.603469 
L 293.697143 106.207072 
L 293.805397 131.367666 
L 293.913651 126.181759 
L 294.021905 165.793907 
L 294.13016 124.996645 
L 294.238414 146.48842 
L 294.346668 191.466602 
L 294.671431 92.390084 
L 294.779685 131.582127 
L 294.88794 120.730474 
L 295.104448 129.455583 
L 295.320957 152.562649 
L 295.537465 116.296368 
L 295.645719 121.338567 
L 295.753974 138.431455 
L 296.186991 107.545774 
L 296.295245 121.440122 
L 296.403499 162.946324 
L 296.728262 106.171744 
L 296.944771 137.319587 
L 297.053025 136.605243 
L 297.161279 146.346655 
L 297.269533 138.96891 
L 297.377788 139.140874 
L 297.486042 147.609722 
L 297.594296 106.829326 
L 297.702551 151.668968 
L 297.810805 116.365069 
L 297.919059 154.34113 
L 298.135568 114.522047 
L 298.243822 107.987091 
L 298.352076 144.019282 
L 298.46033 141.993958 
L 298.568585 163.052957 
L 298.676839 133.013386 
L 298.893347 140.756028 
L 299.001602 156.475176 
L 299.109856 141.779369 
L 299.21811 90.937744 
L 299.326365 140.954355 
L 299.434619 110.833417 
L 299.542873 150.642675 
L 299.651127 140.222406 
L 299.759382 156.785476 
L 299.97589 109.18671 
L 300.084144 200.095421 
L 300.192399 138.236247 
L 300.300653 140.181618 
L 300.408907 132.031111 
L 300.517161 141.448478 
L 300.625416 117.176717 
L 300.950179 125.808611 
L 301.058433 216.751709 
L 301.274941 99.56743 
L 301.383196 121.110792 
L 301.49145 113.683564 
L 301.707958 146.223225 
L 301.816213 114.221639 
L 301.924467 146.395497 
L 302.140975 111.712978 
L 302.24923 120.007214 
L 302.357484 155.234527 
L 302.573993 125.999989 
L 302.682247 143.617167 
L 302.790501 110.762538 
L 302.898755 168.612742 
L 303.115264 117.205741 
L 303.223518 108.079637 
L 303.331772 111.741653 
L 303.440027 139.310745 
L 303.548281 129.617905 
L 303.656535 134.444946 
L 303.764789 121.046166 
L 303.873044 164.478131 
L 304.089552 117.667708 
L 304.306061 143.533453 
L 304.414315 132.822071 
L 304.522569 108.326257 
L 304.630824 117.989477 
L 304.847332 151.663771 
L 304.955586 109.038723 
L 305.172095 152.866402 
L 305.280349 122.207638 
L 305.496858 149.106369 
L 305.713366 130.389046 
L 305.821621 193.153444 
L 306.038129 134.513646 
L 306.146383 168.980584 
L 306.362892 120.678084 
L 306.471146 147.902398 
L 306.5794 137.95267 
L 306.795909 150.562338 
L 306.904163 130.009476 
L 307.012417 149.036514 
L 307.120672 135.150734 
L 307.228926 106.331771 
L 307.33718 139.695028 
L 307.445435 138.346869 
L 307.553689 138.553835 
L 307.661943 102.306847 
L 307.878452 130.802716 
L 308.09496 122.056023 
L 308.203214 124.433491 
L 308.311469 158.445963 
L 308.419723 119.673308 
L 308.527977 121.43634 
L 308.636231 117.46522 
L 308.744486 106.396981 
L 308.960994 135.218482 
L 309.069249 125.633713 
L 309.177503 121.297981 
L 309.285757 127.437835 
L 309.394011 103.159011 
L 309.61052 144.472243 
L 309.827028 106.613763 
L 309.935283 142.944327 
L 310.043537 225.289614 
L 310.151791 121.206179 
L 310.260045 137.471458 
L 310.476554 118.528146 
L 310.584808 96.801326 
L 310.693063 97.90947 
L 310.801317 118.462269 
L 310.909571 108.800067 
L 311.017825 137.554571 
L 311.12608 122.314836 
L 311.234334 131.308409 
L 311.342588 172.11129 
L 311.450842 117.554293 
L 311.559097 117.828914 
L 311.667351 124.357939 
L 311.775605 107.480504 
L 311.992114 142.611398 
L 312.100368 202.907232 
L 312.208622 106.849104 
L 312.316877 126.178777 
L 312.425131 174.876214 
L 312.533385 115.666855 
L 312.641639 151.451712 
L 312.749894 132.207818 
L 312.858148 140.721487 
L 312.966402 136.375186 
L 313.074656 152.906742 
L 313.399419 112.168959 
L 313.507673 115.576198 
L 313.615928 113.827596 
L 313.724182 143.902846 
L 313.832436 109.960294 
L 313.940691 120.338479 
L 314.048945 113.267733 
L 314.265453 159.151316 
L 314.481962 106.383363 
L 314.590216 146.66119 
L 314.69847 91.940597 
L 314.806725 158.714078 
L 314.914979 106.84762 
L 315.023233 123.472079 
L 315.131487 122.507773 
L 315.239742 185.848278 
L 315.347996 127.180989 
L 315.45625 132.518483 
L 315.564505 126.112856 
L 315.781013 162.832122 
L 315.997522 113.259826 
L 316.21403 161.155924 
L 316.322284 205.617719 
L 316.430539 118.813057 
L 316.647047 126.488785 
L 316.755301 99.849148 
L 316.97181 141.788805 
L 317.080064 112.573 
L 317.188319 168.351437 
L 317.296573 146.431766 
L 317.404827 167.009479 
L 317.513081 110.715088 
L 317.621336 121.339007 
L 317.72959 220.650938 
L 317.946098 122.575302 
L 318.054353 200.539736 
L 318.270861 116.26449 
L 318.48737 178.41085 
L 318.595624 99.156524 
L 318.812133 182.272235 
L 318.920387 130.019118 
L 319.028641 159.937036 
L 319.136895 155.304132 
L 319.24515 171.78958 
L 319.353404 156.728376 
L 319.461658 233.39829 
L 319.678167 108.955776 
L 319.786421 151.116853 
L 320.111184 84.808405 
L 320.327692 170.124988 
L 320.544201 141.708692 
L 320.652455 127.04386 
L 320.868964 174.609756 
L 321.085472 94.980164 
L 321.301981 179.536649 
L 321.518489 88.46709 
L 321.626743 141.941714 
L 321.843252 111.201117 
L 321.951506 107.930168 
L 322.059761 129.14227 
L 322.168015 121.222747 
L 322.276269 168.023002 
L 322.492778 117.59089 
L 322.601032 143.714477 
L 322.81754 64.918672 
L 322.925795 96.911121 
L 323.142303 182.029464 
L 323.250557 178.078003 
L 323.467066 130.872095 
L 323.57532 127.372209 
L 323.683575 112.66673 
L 323.791829 191.874396 
L 324.116592 104.18736 
L 324.224846 115.82135 
L 324.3331 100.408669 
L 324.441354 154.316475 
L 324.549609 119.263828 
L 324.657863 160.257002 
L 324.766117 104.502462 
L 324.874371 154.863707 
L 324.982626 119.534434 
L 325.199134 141.95189 
L 325.415643 95.153187 
L 325.523897 111.815452 
L 325.632151 169.386233 
L 325.740406 102.66676 
L 325.84866 132.789493 
L 325.956914 105.060879 
L 326.065168 135.630366 
L 326.173423 99.466172 
L 326.498185 148.738184 
L 326.60644 113.545666 
L 326.714694 146.752337 
L 326.822948 123.357202 
L 326.931203 157.828819 
L 327.255965 113.886469 
L 327.36422 141.934328 
L 327.580728 108.133582 
L 327.688982 170.396752 
L 327.797237 134.014433 
L 327.905491 162.893598 
L 328.013745 130.247434 
L 328.121999 162.268082 
L 328.338508 114.253249 
L 328.555017 153.62484 
L 328.663271 123.439462 
L 328.771525 124.285093 
L 328.879779 128.345592 
L 328.988034 128.148662 
L 329.096288 116.044472 
L 329.204542 125.721669 
L 329.312796 117.59089 
L 329.421051 154.253328 
L 329.529305 120.163172 
L 329.637559 127.508638 
L 329.745813 115.218411 
L 329.854068 149.418919 
L 330.070576 105.433096 
L 330.178831 171.136011 
L 330.287085 114.56953 
L 330.395339 129.967509 
L 330.611848 109.123009 
L 330.720102 128.043488 
L 330.828356 117.554722 
L 330.93661 122.375333 
L 331.044865 177.230158 
L 331.261373 111.668779 
L 331.369627 135.201756 
L 331.477882 118.600048 
L 331.586136 119.24065 
L 331.802645 160.704466 
L 331.910899 167.311003 
L 332.019153 121.75758 
L 332.127407 146.561144 
L 332.235662 116.559278 
L 332.45217 168.524763 
L 332.668679 140.657825 
L 332.776933 140.183746 
L 332.885187 134.088951 
L 332.993441 161.012388 
L 333.101696 139.158425 
L 333.20995 143.395302 
L 333.318204 122.454185 
L 333.534713 151.142116 
L 333.642967 126.464968 
L 333.859476 159.574085 
L 333.96773 123.863219 
L 334.075984 133.74709 
L 334.184238 131.020777 
L 334.292493 137.8413 
L 334.400747 178.120496 
L 334.509001 127.118117 
L 334.617255 127.566142 
L 334.72551 139.925633 
L 334.833764 138.048793 
L 334.942018 131.741455 
L 335.050273 138.719477 
L 335.266781 121.570325 
L 335.375035 151.172135 
L 335.48329 137.048424 
L 335.699798 143.941182 
L 335.808052 138.812011 
L 335.916307 143.09206 
L 336.024561 132.752679 
L 336.132815 148.315394 
L 336.241069 146.434446 
L 336.349324 127.277343 
L 336.565832 135.628669 
L 336.674087 159.748459 
L 336.782341 142.394551 
L 336.890595 142.977065 
L 336.998849 127.77999 
L 337.107104 155.774402 
L 337.215358 148.128201 
L 337.323612 153.655811 
L 337.431866 131.45394 
L 337.648375 154.328522 
L 337.756629 135.644671 
L 338.081392 159.277555 
L 338.189646 128.771195 
L 338.297901 129.888615 
L 338.406155 134.953175 
L 338.622663 170.552995 
L 338.730918 167.393851 
L 338.839172 122.480089 
L 338.947426 130.195771 
L 339.05568 153.040542 
L 339.163935 146.162681 
L 339.272189 118.528427 
L 339.380443 147.447432 
L 339.488697 143.701937 
L 339.596952 125.773425 
L 339.705206 147.244747 
L 339.81346 116.160083 
L 339.921715 161.486266 
L 340.138223 133.224904 
L 340.246477 160.797621 
L 340.462986 128.108362 
L 340.57124 125.109164 
L 340.679494 156.522763 
L 340.787749 154.710585 
L 340.896003 141.218937 
L 341.004257 156.811013 
L 341.112511 154.460953 
L 341.220766 129.360253 
L 341.32902 135.422167 
L 341.437274 153.90239 
L 341.545529 126.924667 
L 341.653783 131.942416 
L 341.762037 147.478278 
L 341.870291 132.315912 
L 341.978546 187.206278 
L 342.195054 127.019421 
L 342.628071 146.13283 
L 342.736325 138.485628 
L 342.84458 155.060168 
L 343.061088 131.995881 
L 343.277597 166.211837 
L 343.385851 133.419166 
L 343.60236 173.987525 
L 343.818868 116.355488 
L 344.035377 142.624768 
L 344.143631 137.40041 
L 344.251885 161.27153 
L 344.468394 136.790735 
L 344.576648 185.68676 
L 344.793157 128.883988 
L 344.901411 145.805012 
L 345.009665 139.633172 
L 345.117919 174.838411 
L 345.334428 128.928869 
L 345.442682 120.365159 
L 345.550936 145.615695 
L 345.659191 126.206916 
L 345.875699 138.86115 
L 345.983953 140.160233 
L 346.092208 133.328997 
L 346.308716 142.581819 
L 346.525225 119.825415 
L 346.633479 140.140914 
L 346.741733 130.840184 
L 346.958242 133.249839 
L 347.17475 131.210287 
L 347.283005 174.485811 
L 347.391259 115.291185 
L 347.499513 116.431696 
L 347.607767 177.276742 
L 347.824276 134.244028 
L 347.93253 141.406288 
L 348.040785 103.635327 
L 348.149039 138.270362 
L 348.257293 126.889458 
L 348.365547 162.108834 
L 348.582056 111.537783 
L 348.798564 173.96386 
L 348.906819 143.529793 
L 349.123327 159.600255 
L 349.231581 115.650832 
L 349.44809 163.964359 
L 349.556344 98.60758 
L 349.881107 135.332 
L 349.989361 139.05643 
L 350.097616 154.239435 
L 350.20587 124.720508 
L 350.314124 143.278724 
L 350.530633 112.725314 
L 350.638887 148.567635 
L 350.855395 116.072355 
L 350.96365 146.475346 
L 351.180158 124.144266 
L 351.288413 157.834869 
L 351.396667 131.303675 
L 351.504921 137.093715 
L 351.613175 231.343266 
L 351.829684 125.148389 
L 351.937938 121.521051 
L 352.154447 133.061614 
L 352.262701 135.346334 
L 352.370955 120.819849 
L 352.479209 153.256196 
L 352.587464 125.730952 
L 352.695718 163.171538 
L 352.803972 101.988566 
L 352.912226 130.246241 
L 353.020481 118.335462 
L 353.128735 168.843495 
L 353.236989 147.288954 
L 353.345244 160.289385 
L 353.561752 114.037942 
L 353.778261 137.791957 
L 353.886515 114.502702 
L 353.994769 146.533316 
L 354.103023 109.475888 
L 354.211278 226.15849 
L 354.427786 114.339492 
L 354.644295 130.957442 
L 354.752549 157.776275 
L 354.860803 119.501443 
L 354.969058 130.346778 
L 355.077312 113.983354 
L 355.185566 136.168002 
L 355.402075 118.712175 
L 355.510329 158.162437 
L 355.726837 102.380489 
L 355.943346 152.229252 
L 356.159854 139.281307 
L 356.268109 149.287615 
L 356.376363 277.904479 
L 356.484617 125.899995 
L 356.701126 142.634045 
L 356.80938 133.828396 
L 356.917634 150.932512 
L 357.134143 134.877299 
L 357.242397 132.180023 
L 357.350651 138.08297 
L 357.458906 134.999785 
L 357.56716 122.818598 
L 357.675414 128.706363 
L 357.783668 123.459142 
L 358.000177 148.989101 
L 358.216686 125.314708 
L 358.433194 135.505351 
L 358.541448 132.322849 
L 358.649703 140.479904 
L 358.866211 166.917843 
L 358.974465 138.739008 
L 359.08272 140.129459 
L 359.299228 131.779854 
L 359.407482 106.230647 
L 359.623991 159.12641 
L 360.057008 124.168231 
L 360.165262 130.852225 
L 360.273517 142.547202 
L 360.381771 138.257336 
L 360.598279 152.064544 
L 360.706534 227.192523 
L 360.923042 128.834756 
L 361.031296 164.511114 
L 361.139551 128.163149 
L 361.356059 158.15628 
L 361.464314 144.468866 
L 361.572568 153.971663 
L 361.897331 118.359643 
L 362.113839 157.19942 
L 362.330348 133.159491 
L 362.546856 128.105873 
L 362.65511 199.863965 
L 362.871619 138.76771 
L 363.088128 126.059699 
L 363.196382 148.138019 
L 363.304636 128.050868 
L 363.41289 136.775476 
L 363.521145 169.988966 
L 363.737653 119.79236 
L 363.845907 131.306798 
L 363.954162 157.316763 
L 364.062416 132.039517 
L 364.278924 140.165058 
L 364.495433 111.847471 
L 364.603687 116.50533 
L 364.711942 113.915226 
L 364.92845 131.797306 
L 365.036704 138.047872 
L 365.253213 166.067146 
L 365.361467 158.924713 
L 365.469721 118.156955 
L 365.794484 170.764127 
L 365.902738 111.277768 
L 366.010993 160.116115 
L 366.119247 119.939296 
L 366.227501 125.841124 
L 366.335756 122.881798 
L 366.552264 166.768998 
L 366.660518 132.138134 
L 366.768773 142.375816 
L 366.877027 138.310142 
L 366.985281 140.773314 
L 367.093535 201.247383 
L 367.310044 128.752172 
L 367.418298 160.355666 
L 367.526552 122.517662 
L 367.634807 128.740147 
L 367.743061 168.322781 
L 367.851315 165.368387 
L 367.95957 165.989891 
L 368.176078 157.226787 
L 368.284332 135.515921 
L 368.392587 144.787838 
L 368.500841 129.285394 
L 368.825604 177.740873 
L 368.933858 164.775927 
L 369.042112 185.156825 
L 369.150366 132.492545 
L 369.366875 153.305923 
L 369.475129 122.027291 
L 369.691638 151.912076 
L 369.799892 133.939717 
L 369.908146 173.095517 
L 370.124655 130.269063 
L 370.232909 147.736547 
L 370.341163 118.98331 
L 370.449418 145.136256 
L 370.557672 140.262853 
L 370.665926 168.205679 
L 370.882435 129.664101 
L 370.990689 153.048524 
L 371.098943 146.611026 
L 371.207198 118.324294 
L 371.315452 131.535831 
L 371.423706 170.946444 
L 371.53196 131.057051 
L 371.640215 147.614916 
L 371.856723 102.129311 
L 371.964977 119.689019 
L 372.073232 197.40091 
L 372.181486 123.666638 
L 372.397994 175.562033 
L 372.614503 120.995884 
L 372.722757 135.640053 
L 372.831012 172.179391 
L 373.04752 127.512324 
L 373.264029 163.375827 
L 373.697046 128.635437 
L 373.913554 142.459793 
L 374.130063 136.891866 
L 374.238317 138.249183 
L 374.346571 147.350272 
L 374.454826 132.263706 
L 374.56308 139.102936 
L 374.671334 122.338234 
L 374.779588 122.613617 
L 374.996097 157.745559 
L 375.104351 126.259895 
L 375.212605 162.565104 
L 375.429114 138.745573 
L 375.537368 172.283301 
L 375.753877 134.342726 
L 375.970385 121.517339 
L 376.07864 159.463914 
L 376.295148 141.300065 
L 376.403402 154.548853 
L 376.511657 114.732755 
L 376.619911 137.505873 
L 376.836419 120.127393 
L 376.944674 117.849885 
L 377.161182 141.914893 
L 377.269436 131.179601 
L 377.377691 155.116801 
L 377.485945 101.610346 
L 377.702454 134.239738 
L 377.810708 93.407816 
L 378.135471 161.731071 
L 378.243725 105.289134 
L 378.351979 145.695261 
L 378.460233 106.949417 
L 378.568488 129.183982 
L 378.676742 119.735193 
L 378.784996 158.87111 
L 378.89325 146.275762 
L 379.001505 151.631547 
L 379.218013 132.033015 
L 379.326268 145.118054 
L 379.434522 121.078755 
L 379.542776 135.945882 
L 379.65103 174.13221 
L 379.759285 122.437236 
L 379.867539 158.771497 
L 380.084047 132.350343 
L 380.192302 128.624619 
L 380.300556 120.479115 
L 380.517064 196.895348 
L 380.733573 112.465575 
L 380.841827 185.684044 
L 380.950082 112.152982 
L 381.16659 228.325576 
L 381.383099 98.805257 
L 381.491353 149.764574 
L 381.816116 122.746362 
L 381.92437 132.634826 
L 382.032624 171.84042 
L 382.140878 128.668422 
L 382.249133 135.191582 
L 382.357387 159.381031 
L 382.573896 113.6211 
L 382.68215 119.228043 
L 382.790404 133.905059 
L 382.898658 99.380543 
L 383.006913 198.583257 
L 383.115167 119.754714 
L 383.223421 127.77485 
L 383.331675 148.108466 
L 383.43993 101.054617 
L 383.548184 120.000971 
L 383.656438 115.873187 
L 383.764692 85.095565 
L 383.872947 117.870948 
L 383.981201 72.079617 
L 384.089455 77.890516 
L 384.19771 190.680771 
L 384.414218 139.102712 
L 384.522472 180.74314 
L 384.630727 121.668736 
L 384.738981 152.373538 
L 384.847235 111.898008 
L 385.063744 124.637312 
L 385.171998 105.631665 
L 385.280252 105.744122 
L 385.388506 104.748848 
L 385.496761 138.385742 
L 385.605015 99.993493 
L 385.713269 102.732382 
L 385.821524 161.764072 
L 385.929778 126.6301 
L 386.038032 140.73817 
L 386.146286 116.24594 
L 386.254541 132.027048 
L 386.362795 93.982004 
L 386.579303 128.28918 
L 386.687558 92.87301 
L 386.795812 103.417693 
L 386.904066 147.76723 
L 387.01232 134.801184 
L 387.120575 140.998995 
L 387.228829 108.865059 
L 387.337083 144.017876 
L 387.445338 90.724237 
L 387.553592 131.311809 
L 387.878355 100.432214 
L 387.986609 94.735176 
L 388.094863 104.587065 
L 388.203117 151.254137 
L 388.419626 71.970012 
L 388.52788 147.836988 
L 388.744389 129.019626 
L 388.852643 130.001229 
L 389.069152 113.193955 
L 389.177406 204.71573 
L 389.28566 129.687461 
L 389.393914 143.022765 
L 389.502169 182.92829 
L 389.718677 119.696212 
L 389.826931 139.844384 
L 390.04344 100.593386 
L 390.151694 207.73728 
L 390.368203 151.470328 
L 390.584711 99.622336 
L 390.692966 148.778199 
L 390.80122 116.341991 
L 390.909474 156.848231 
L 391.017728 132.557518 
L 391.125983 168.85967 
L 391.234237 148.705056 
L 391.342491 179.768742 
L 391.559 108.483428 
L 391.667254 131.614139 
L 391.775508 120.216542 
L 391.883762 137.996506 
L 391.992017 129.683701 
L 392.100271 136.558482 
L 392.208525 128.586095 
L 392.31678 157.133917 
L 392.425034 118.621335 
L 392.533288 140.116571 
L 392.641542 116.536559 
L 392.749797 119.909145 
L 392.858051 127.896517 
L 392.966305 183.489266 
L 393.182814 89.336399 
L 393.291068 124.141485 
L 393.399322 121.852973 
L 393.507576 150.148976 
L 393.724085 92.676933 
L 393.832339 131.392739 
L 393.940594 123.531511 
L 394.048848 105.501552 
L 394.157102 127.368753 
L 394.265356 185.773332 
L 394.373611 117.975394 
L 394.481865 128.483565 
L 394.590119 125.224322 
L 394.806628 102.862638 
L 395.13139 139.507192 
L 395.347899 100.275688 
L 395.456153 101.680926 
L 395.564408 124.762817 
L 395.672662 96.602147 
L 395.780916 145.781242 
L 396.105679 114.755138 
L 396.213933 99.152317 
L 396.322187 103.65075 
L 396.538696 120.730828 
L 396.64695 119.333867 
L 396.755204 104.474708 
L 396.863459 162.106526 
L 396.971713 128.310338 
L 397.079967 129.948811 
L 397.188222 161.141042 
L 397.296476 122.235774 
L 397.40473 137.877228 
L 397.512984 105.459761 
L 397.621239 122.418987 
L 397.837747 98.82075 
L 398.054256 175.538819 
L 398.270764 117.63186 
L 398.487273 124.57075 
L 398.487273 124.57075 
" clip-path="url(#p88361f3d67)" style="fill: none; stroke: #1f77b4; stroke-width: 1.5; stroke-linecap: square"/>
   </g>
   <g id="patch_3">
    <path d="M 57.6 307.584 
L 57.6 41.472 
" style="fill: none; stroke: #000000; stroke-width: 0.8; stroke-linejoin: miter; stroke-linecap: square"/>
   </g>
   <g id="patch_4">
    <path d="M 414.72 307.584 
L 414.72 41.472 
" style="fill: none; stroke: #000000; stroke-width: 0.8; stroke-linejoin: miter; stroke-linecap: square"/>
   </g>
   <g id="patch_5">
    <path d="M 57.6 307.584 
L 414.72 307.584 
" style="fill: none; stroke: #000000; stroke-width: 0.8; stroke-linejoin: miter; stroke-linecap: square"/>
   </g>
   <g id="patch_6">
    <path d="M 57.6 41.472 
L 414.72 41.472 
" style="fill: none; stroke: #000000; stroke-width: 0.8; stroke-linejoin: miter; stroke-linecap: square"/>
   </g>
   <g id="text_17">
    <!-- Loss curve, seed=0 -->
    <g transform="translate(177.30375 35.472) scale(0.12 -0.12)">
     <defs>
      <path id="DejaVuSans-20" transform="scale(0.015625)"/>
      <path id="DejaVuSans-63" d="M 3122 3366 
L 3122 2828 
Q 2878 2963 2633 3030 
Q 2388 3097 2138 3097 
Q 1578 3097 1268 2742 
Q 959 2388 959 1747 
Q 959 1106 1268 751 
Q 1578 397 2138 397 
Q 2388 397 2633 464 
Q 2878 531 3122 666 
L 3122 134 
Q 2881 22 2623 -34 
Q 2366 -91 2075 -91 
Q 1284 -91 818 406 
Q 353 903 353 1747 
Q 353 2603 823 3093 
Q 1294 3584 2113 3584 
Q 2378 3584 2631 3529 
Q 2884 3475 3122 3366 
z
" transform="scale(0.015625)"/>
      <path id="DejaVuSans-75" d="M 544 1381 
L 544 3500 
L 1119 3500 
L 1119 1403 
Q 1119 906 1312 657 
Q 1506 409 1894 409 
Q 2359 409 2629 706 
Q 2900 1003 2900 1516 
L 2900 3500 
L 3475 3500 
L 3475 0 
L 2900 0 
L 2900 538 
Q 2691 219 2414 64 
Q 2138 -91 1772 -91 
Q 1169 -91 856 284 
Q 544 659 544 1381 
z
M 1991 3584 
L 1991 3584 
z
" transform="scale(0.015625)"/>
      <path id="DejaVuSans-72" d="M 2631 2963 
Q 2534 3019 2420 3045 
Q 2306 3072 2169 3072 
Q 1681 3072 1420 2755 
Q 1159 2438 1159 1844 
L 1159 0 
L 581 0 
L 581 3500 
L 1159 3500 
L 1159 2956 
Q 1341 3275 1631 3429 
Q 1922 3584 2338 3584 
Q 2397 3584 2469 3576 
Q 2541 3569 2628 3553 
L 2631 2963 
z
" transform="scale(0.015625)"/>
      <path id="DejaVuSans-76" d="M 191 3500 
L 800 3500 
L 1894 563 
L 2988 3500 
L 3597 3500 
L 2284 0 
L 1503 0 
L 191 3500 
z
" transform="scale(0.015625)"/>
      <path id="DejaVuSans-2c" d="M 750 794 
L 1409 794 
L 1409 256 
L 897 -744 
L 494 -744 
L 750 256 
L 750 794 
z
" transform="scale(0.015625)"/>
      <path id="DejaVuSans-3d" d="M 678 2906 
L 4684 2906 
L 4684 2381 
L 678 2381 
L 678 2906 
z
M 678 1631 
L 4684 1631 
L 4684 1100 
L 678 1100 
L 678 1631 
z
" transform="scale(0.015625)"/>
     </defs>
     <use xlink:href="#DejaVuSans-4c"/>
     <use xlink:href="#DejaVuSans-6f" transform="translate(53.962891 0)"/>
     <use xlink:href="#DejaVuSans-73" transform="translate(115.144531 0)"/>
     <use xlink:href="#DejaVuSans-73" transform="translate(167.244141 0)"/>
     <use xlink:href="#DejaVuSans-20" transform="translate(219.34375 0)"/>
     <use xlink:href="#DejaVuSans-63" transform="translate(251.130859 0)"/>
     <use xlink:href="#DejaVuSans-75" transform="translate(306.111328 0)"/>
     <use xlink:href="#DejaVuSans-72" transform="translate(369.490234 0)"/>
     <use xlink:href="#DejaVuSans-76" transform="translate(410.603516 0)"/>
     <use xlink:href="#DejaVuSans-65" transform="translate(469.783203 0)"/>
     <use xlink:href="#DejaVuSans-2c" transform="translate(531.306641 0)"/>
     <use xlink:href="#DejaVuSans-20" transform="translate(563.09375 0)"/>
     <use xlink:href="#DejaVuSans-73" transform="translate(594.880859 0)"/>
     <use xlink:href="#DejaVuSans-65" transform="translate(646.980469 0)"/>
     <use xlink:href="#DejaVuSans-65" transform="translate(708.503906 0)"/>
     <use xlink:href="#DejaVuSans-64" transform="translate(770.027344 0)"/>
     <use xlink:href="#DejaVuSans-3d" transform="translate(833.503906 0)"/>
     <use xlink:href="#DejaVuSans-30" transform="translate(917.292969 0)"/>
    </g>
   </g>
  </g>
 </g>
 <defs>
  <clipPath id="p88361f3d67">
   <rect x="57.6" y="41.472" width="357.12" height="266.112"/>
  </clipPath>
 </defs>
</svg>
