<?xml version="1.0" encoding="utf-8" standalone="no"?>
<!DOCTYPE svg PUBLIC "-//W3C//DTD SVG 1.1//EN"
  "http://www.w3.org/Graphics/SVG/1.1/DTD/svg11.dtd">
<svg xmlns:xlink="http://www.w3.org/1999/xlink" width="460.8pt" height="345.6pt" viewBox="0 0 460.8 345.6" xmlns="http://www.w3.org/2000/svg" version="1.1">
 <metadata>
  <rdf:RDF xmlns:dc="http://purl.org/dc/elements/1.1/" xmlns:cc="http://creativecommons.org/ns#" xmlns:rdf="http://www.w3.org/1999/02/22-rdf-syntax-ns#">
   <cc:Work>
    <dc:type rdf:resource="http://purl.org/dc/dcmitype/StillImage"/>
    <dc:date>2025-01-04T19:54:46.061847</dc:date>
    <dc:format>image/svg+xml</dc:format>
    <dc:creator>
     <cc:Agent>
      <dc:title>Matplotlib v3.10.0, https://matplotlib.org/</dc:title>
     </cc:Agent>
    </dc:creator>
   </cc:Work>
  </rdf:RDF>
 </metadata>
 <defs>
  <style type="text/css">*{stroke-linejoin: round; stroke-linecap: butt}</style>
 </defs>
 <g id="figure_1">
  <g id="patch_1">
   <path d="M 0 345.6 
L 460.8 345.6 
L 460.8 0 
L 0 0 
z
" style="fill: #ffffff"/>
  </g>
  <g id="axes_1">
   <g id="patch_2">
    <path d="M 57.6 307.584 
L 414.72 307.584 
L 414.72 41.472 
L 57.6 41.472 
z
" style="fill: #ffffff"/>
   </g>
   <g id="matplotlib.axis_1">
    <g id="xtick_1">
     <g id="line2d_1">
      <defs>
       <path id="m705cf0a6f8" d="M 0 0 
L 0 3.5 
" style="stroke: #000000; stroke-width: 0.8"/>
      </defs>
      <g>
       <use xlink:href="#m705cf0a6f8" x="73.832727" y="307.584" style="stroke: #000000; stroke-width: 0.8"/>
      </g>
     </g>
     <g id="text_1">
      <!-- 0 -->
      <g transform="translate(70.651477 322.182437) scale(0.1 -0.1)">
       <defs>
        <path id="DejaVuSans-30" d="M 2034 4250 
Q 1547 4250 1301 3770 
Q 1056 3291 1056 2328 
Q 1056 1369 1301 889 
Q 1547 409 2034 409 
Q 2525 409 2770 889 
Q 3016 1369 3016 2328 
Q 3016 3291 2770 3770 
Q 2525 4250 2034 4250 
z
M 2034 4750 
Q 2819 4750 3233 4129 
Q 3647 3509 3647 2328 
Q 3647 1150 3233 529 
Q 2819 -91 2034 -91 
Q 1250 -91 836 529 
Q 422 1150 422 2328 
Q 422 3509 836 4129 
Q 1250 4750 2034 4750 
z
" transform="scale(0.015625)"/>
       </defs>
       <use xlink:href="#DejaVuSans-30"/>
      </g>
     </g>
    </g>
    <g id="xtick_2">
     <g id="line2d_2">
      <g>
       <use xlink:href="#m705cf0a6f8" x="127.959861" y="307.584" style="stroke: #000000; stroke-width: 0.8"/>
      </g>
     </g>
     <g id="text_2">
      <!-- 500 -->
      <g transform="translate(118.416111 322.182437) scale(0.1 -0.1)">
       <defs>
        <path id="DejaVuSans-35" d="M 691 4666 
L 3169 4666 
L 3169 4134 
L 1269 4134 
L 1269 2991 
Q 1406 3038 1543 3061 
Q 1681 3084 1819 3084 
Q 2600 3084 3056 2656 
Q 3513 2228 3513 1497 
Q 3513 744 3044 326 
Q 2575 -91 1722 -91 
Q 1428 -91 1123 -41 
Q 819 9 494 109 
L 494 744 
Q 775 591 1075 516 
Q 1375 441 1709 441 
Q 2250 441 2565 725 
Q 2881 1009 2881 1497 
Q 2881 1984 2565 2268 
Q 2250 2553 1709 2553 
Q 1456 2553 1204 2497 
Q 953 2441 691 2322 
L 691 4666 
z
" transform="scale(0.015625)"/>
       </defs>
       <use xlink:href="#DejaVuSans-35"/>
       <use xlink:href="#DejaVuSans-30" transform="translate(63.623047 0)"/>
       <use xlink:href="#DejaVuSans-30" transform="translate(127.246094 0)"/>
      </g>
     </g>
    </g>
    <g id="xtick_3">
     <g id="line2d_3">
      <g>
       <use xlink:href="#m705cf0a6f8" x="182.086994" y="307.584" style="stroke: #000000; stroke-width: 0.8"/>
      </g>
     </g>
     <g id="text_3">
      <!-- 1000 -->
      <g transform="translate(169.361994 322.182437) scale(0.1 -0.1)">
       <defs>
        <path id="DejaVuSans-31" d="M 794 531 
L 1825 531 
L 1825 4091 
L 703 3866 
L 703 4441 
L 1819 4666 
L 2450 4666 
L 2450 531 
L 3481 531 
L 3481 0 
L 794 0 
L 794 531 
z
" transform="scale(0.015625)"/>
       </defs>
       <use xlink:href="#DejaVuSans-31"/>
       <use xlink:href="#DejaVuSans-30" transform="translate(63.623047 0)"/>
       <use xlink:href="#DejaVuSans-30" transform="translate(127.246094 0)"/>
       <use xlink:href="#DejaVuSans-30" transform="translate(190.869141 0)"/>
      </g>
     </g>
    </g>
    <g id="xtick_4">
     <g id="line2d_4">
      <g>
       <use xlink:href="#m705cf0a6f8" x="236.214127" y="307.584" style="stroke: #000000; stroke-width: 0.8"/>
      </g>
     </g>
     <g id="text_4">
      <!-- 1500 -->
      <g transform="translate(223.489127 322.182437) scale(0.1 -0.1)">
       <use xlink:href="#DejaVuSans-31"/>
       <use xlink:href="#DejaVuSans-35" transform="translate(63.623047 0)"/>
       <use xlink:href="#DejaVuSans-30" transform="translate(127.246094 0)"/>
       <use xlink:href="#DejaVuSans-30" transform="translate(190.869141 0)"/>
      </g>
     </g>
    </g>
    <g id="xtick_5">
     <g id="line2d_5">
      <g>
       <use xlink:href="#m705cf0a6f8" x="290.34126" y="307.584" style="stroke: #000000; stroke-width: 0.8"/>
      </g>
     </g>
     <g id="text_5">
      <!-- 2000 -->
      <g transform="translate(277.61626 322.182437) scale(0.1 -0.1)">
       <defs>
        <path id="DejaVuSans-32" d="M 1228 531 
L 3431 531 
L 3431 0 
L 469 0 
L 469 531 
Q 828 903 1448 1529 
Q 2069 2156 2228 2338 
Q 2531 2678 2651 2914 
Q 2772 3150 2772 3378 
Q 2772 3750 2511 3984 
Q 2250 4219 1831 4219 
Q 1534 4219 1204 4116 
Q 875 4013 500 3803 
L 500 4441 
Q 881 4594 1212 4672 
Q 1544 4750 1819 4750 
Q 2544 4750 2975 4387 
Q 3406 4025 3406 3419 
Q 3406 3131 3298 2873 
Q 3191 2616 2906 2266 
Q 2828 2175 2409 1742 
Q 1991 1309 1228 531 
z
" transform="scale(0.015625)"/>
       </defs>
       <use xlink:href="#DejaVuSans-32"/>
       <use xlink:href="#DejaVuSans-30" transform="translate(63.623047 0)"/>
       <use xlink:href="#DejaVuSans-30" transform="translate(127.246094 0)"/>
       <use xlink:href="#DejaVuSans-30" transform="translate(190.869141 0)"/>
      </g>
     </g>
    </g>
    <g id="xtick_6">
     <g id="line2d_6">
      <g>
       <use xlink:href="#m705cf0a6f8" x="344.468394" y="307.584" style="stroke: #000000; stroke-width: 0.8"/>
      </g>
     </g>
     <g id="text_6">
      <!-- 2500 -->
      <g transform="translate(331.743394 322.182437) scale(0.1 -0.1)">
       <use xlink:href="#DejaVuSans-32"/>
       <use xlink:href="#DejaVuSans-35" transform="translate(63.623047 0)"/>
       <use xlink:href="#DejaVuSans-30" transform="translate(127.246094 0)"/>
       <use xlink:href="#DejaVuSans-30" transform="translate(190.869141 0)"/>
      </g>
     </g>
    </g>
    <g id="xtick_7">
     <g id="line2d_7">
      <g>
       <use xlink:href="#m705cf0a6f8" x="398.595527" y="307.584" style="stroke: #000000; stroke-width: 0.8"/>
      </g>
     </g>
     <g id="text_7">
      <!-- 3000 -->
      <g transform="translate(385.870527 322.182437) scale(0.1 -0.1)">
       <defs>
        <path id="DejaVuSans-33" d="M 2597 2516 
Q 3050 2419 3304 2112 
Q 3559 1806 3559 1356 
Q 3559 666 3084 287 
Q 2609 -91 1734 -91 
Q 1441 -91 1130 -33 
Q 819 25 488 141 
L 488 750 
Q 750 597 1062 519 
Q 1375 441 1716 441 
Q 2309 441 2620 675 
Q 2931 909 2931 1356 
Q 2931 1769 2642 2001 
Q 2353 2234 1838 2234 
L 1294 2234 
L 1294 2753 
L 1863 2753 
Q 2328 2753 2575 2939 
Q 2822 3125 2822 3475 
Q 2822 3834 2567 4026 
Q 2313 4219 1838 4219 
Q 1578 4219 1281 4162 
Q 984 4106 628 3988 
L 628 4550 
Q 988 4650 1302 4700 
Q 1616 4750 1894 4750 
Q 2613 4750 3031 4423 
Q 3450 4097 3450 3541 
Q 3450 3153 3228 2886 
Q 3006 2619 2597 2516 
z
" transform="scale(0.015625)"/>
       </defs>
       <use xlink:href="#DejaVuSans-33"/>
       <use xlink:href="#DejaVuSans-30" transform="translate(63.623047 0)"/>
       <use xlink:href="#DejaVuSans-30" transform="translate(127.246094 0)"/>
       <use xlink:href="#DejaVuSans-30" transform="translate(190.869141 0)"/>
      </g>
     </g>
    </g>
    <g id="text_8">
     <!-- Episode -->
     <g transform="translate(216.5225 335.860562) scale(0.1 -0.1)">
      <defs>
       <path id="DejaVuSans-45" d="M 628 4666 
L 3578 4666 
L 3578 4134 
L 1259 4134 
L 1259 2753 
L 3481 2753 
L 3481 2222 
L 1259 2222 
L 1259 531 
L 3634 531 
L 3634 0 
L 628 0 
L 628 4666 
z
" transform="scale(0.015625)"/>
       <path id="DejaVuSans-70" d="M 1159 525 
L 1159 -1331 
L 581 -1331 
L 581 3500 
L 1159 3500 
L 1159 2969 
Q 1341 3281 1617 3432 
Q 1894 3584 2278 3584 
Q 2916 3584 3314 3078 
Q 3713 2572 3713 1747 
Q 3713 922 3314 415 
Q 2916 -91 2278 -91 
Q 1894 -91 1617 61 
Q 1341 213 1159 525 
z
M 3116 1747 
Q 3116 2381 2855 2742 
Q 2594 3103 2138 3103 
Q 1681 3103 1420 2742 
Q 1159 2381 1159 1747 
Q 1159 1113 1420 752 
Q 1681 391 2138 391 
Q 2594 391 2855 752 
Q 3116 1113 3116 1747 
z
" transform="scale(0.015625)"/>
       <path id="DejaVuSans-69" d="M 603 3500 
L 1178 3500 
L 1178 0 
L 603 0 
L 603 3500 
z
M 603 4863 
L 1178 4863 
L 1178 4134 
L 603 4134 
L 603 4863 
z
" transform="scale(0.015625)"/>
       <path id="DejaVuSans-73" d="M 2834 3397 
L 2834 2853 
Q 2591 2978 2328 3040 
Q 2066 3103 1784 3103 
Q 1356 3103 1142 2972 
Q 928 2841 928 2578 
Q 928 2378 1081 2264 
Q 1234 2150 1697 2047 
L 1894 2003 
Q 2506 1872 2764 1633 
Q 3022 1394 3022 966 
Q 3022 478 2636 193 
Q 2250 -91 1575 -91 
Q 1294 -91 989 -36 
Q 684 19 347 128 
L 347 722 
Q 666 556 975 473 
Q 1284 391 1588 391 
Q 1994 391 2212 530 
Q 2431 669 2431 922 
Q 2431 1156 2273 1281 
Q 2116 1406 1581 1522 
L 1381 1569 
Q 847 1681 609 1914 
Q 372 2147 372 2553 
Q 372 3047 722 3315 
Q 1072 3584 1716 3584 
Q 2034 3584 2315 3537 
Q 2597 3491 2834 3397 
z
" transform="scale(0.015625)"/>
       <path id="DejaVuSans-6f" d="M 1959 3097 
Q 1497 3097 1228 2736 
Q 959 2375 959 1747 
Q 959 1119 1226 758 
Q 1494 397 1959 397 
Q 2419 397 2687 759 
Q 2956 1122 2956 1747 
Q 2956 2369 2687 2733 
Q 2419 3097 1959 3097 
z
M 1959 3584 
Q 2709 3584 3137 3096 
Q 3566 2609 3566 1747 
Q 3566 888 3137 398 
Q 2709 -91 1959 -91 
Q 1206 -91 779 398 
Q 353 888 353 1747 
Q 353 2609 779 3096 
Q 1206 3584 1959 3584 
z
" transform="scale(0.015625)"/>
       <path id="DejaVuSans-64" d="M 2906 2969 
L 2906 4863 
L 3481 4863 
L 3481 0 
L 2906 0 
L 2906 525 
Q 2725 213 2448 61 
Q 2172 -91 1784 -91 
Q 1150 -91 751 415 
Q 353 922 353 1747 
Q 353 2572 751 3078 
Q 1150 3584 1784 3584 
Q 2172 3584 2448 3432 
Q 2725 3281 2906 2969 
z
M 947 1747 
Q 947 1113 1208 752 
Q 1469 391 1925 391 
Q 2381 391 2643 752 
Q 2906 1113 2906 1747 
Q 2906 2381 2643 2742 
Q 2381 3103 1925 3103 
Q 1469 3103 1208 2742 
Q 947 2381 947 1747 
z
" transform="scale(0.015625)"/>
       <path id="DejaVuSans-65" d="M 3597 1894 
L 3597 1613 
L 953 1613 
Q 991 1019 1311 708 
Q 1631 397 2203 397 
Q 2534 397 2845 478 
Q 3156 559 3463 722 
L 3463 178 
Q 3153 47 2828 -22 
Q 2503 -91 2169 -91 
Q 1331 -91 842 396 
Q 353 884 353 1716 
Q 353 2575 817 3079 
Q 1281 3584 2069 3584 
Q 2775 3584 3186 3129 
Q 3597 2675 3597 1894 
z
M 3022 2063 
Q 3016 2534 2758 2815 
Q 2500 3097 2075 3097 
Q 1594 3097 1305 2825 
Q 1016 2553 972 2059 
L 3022 2063 
z
" transform="scale(0.015625)"/>
      </defs>
      <use xlink:href="#DejaVuSans-45"/>
      <use xlink:href="#DejaVuSans-70" transform="translate(63.183594 0)"/>
      <use xlink:href="#DejaVuSans-69" transform="translate(126.660156 0)"/>
      <use xlink:href="#DejaVuSans-73" transform="translate(154.443359 0)"/>
      <use xlink:href="#DejaVuSans-6f" transform="translate(206.542969 0)"/>
      <use xlink:href="#DejaVuSans-64" transform="translate(267.724609 0)"/>
      <use xlink:href="#DejaVuSans-65" transform="translate(331.201172 0)"/>
     </g>
    </g>
   </g>
   <g id="matplotlib.axis_2">
    <g id="ytick_1">
     <g id="line2d_8">
      <defs>
       <path id="m65e63ee693" d="M 0 0 
L -3.5 0 
" style="stroke: #000000; stroke-width: 0.8"/>
      </defs>
      <g>
       <use xlink:href="#m65e63ee693" x="57.6" y="277.573055" style="stroke: #000000; stroke-width: 0.8"/>
      </g>
     </g>
     <g id="text_9">
      <!-- −40 -->
      <g transform="translate(29.495313 281.372274) scale(0.1 -0.1)">
       <defs>
        <path id="DejaVuSans-2212" d="M 678 2272 
L 4684 2272 
L 4684 1741 
L 678 1741 
L 678 2272 
z
" transform="scale(0.015625)"/>
        <path id="DejaVuSans-34" d="M 2419 4116 
L 825 1625 
L 2419 1625 
L 2419 4116 
z
M 2253 4666 
L 3047 4666 
L 3047 1625 
L 3713 1625 
L 3713 1100 
L 3047 1100 
L 3047 0 
L 2419 0 
L 2419 1100 
L 313 1100 
L 313 1709 
L 2253 4666 
z
" transform="scale(0.015625)"/>
       </defs>
       <use xlink:href="#DejaVuSans-2212"/>
       <use xlink:href="#DejaVuSans-34" transform="translate(83.789062 0)"/>
       <use xlink:href="#DejaVuSans-30" transform="translate(147.412109 0)"/>
      </g>
     </g>
    </g>
    <g id="ytick_2">
     <g id="line2d_9">
      <g>
       <use xlink:href="#m65e63ee693" x="57.6" y="242.884096" style="stroke: #000000; stroke-width: 0.8"/>
      </g>
     </g>
     <g id="text_10">
      <!-- −30 -->
      <g transform="translate(29.495313 246.683314) scale(0.1 -0.1)">
       <use xlink:href="#DejaVuSans-2212"/>
       <use xlink:href="#DejaVuSans-33" transform="translate(83.789062 0)"/>
       <use xlink:href="#DejaVuSans-30" transform="translate(147.412109 0)"/>
      </g>
     </g>
    </g>
    <g id="ytick_3">
     <g id="line2d_10">
      <g>
       <use xlink:href="#m65e63ee693" x="57.6" y="208.195137" style="stroke: #000000; stroke-width: 0.8"/>
      </g>
     </g>
     <g id="text_11">
      <!-- −20 -->
      <g transform="translate(29.495313 211.994355) scale(0.1 -0.1)">
       <use xlink:href="#DejaVuSans-2212"/>
       <use xlink:href="#DejaVuSans-32" transform="translate(83.789062 0)"/>
       <use xlink:href="#DejaVuSans-30" transform="translate(147.412109 0)"/>
      </g>
     </g>
    </g>
    <g id="ytick_4">
     <g id="line2d_11">
      <g>
       <use xlink:href="#m65e63ee693" x="57.6" y="173.506177" style="stroke: #000000; stroke-width: 0.8"/>
      </g>
     </g>
     <g id="text_12">
      <!-- −10 -->
      <g transform="translate(29.495313 177.305396) scale(0.1 -0.1)">
       <use xlink:href="#DejaVuSans-2212"/>
       <use xlink:href="#DejaVuSans-31" transform="translate(83.789062 0)"/>
       <use xlink:href="#DejaVuSans-30" transform="translate(147.412109 0)"/>
      </g>
     </g>
    </g>
    <g id="ytick_5">
     <g id="line2d_12">
      <g>
       <use xlink:href="#m65e63ee693" x="57.6" y="138.817218" style="stroke: #000000; stroke-width: 0.8"/>
      </g>
     </g>
     <g id="text_13">
      <!-- 0 -->
      <g transform="translate(44.2375 142.616437) scale(0.1 -0.1)">
       <use xlink:href="#DejaVuSans-30"/>
      </g>
     </g>
    </g>
    <g id="ytick_6">
     <g id="line2d_13">
      <g>
       <use xlink:href="#m65e63ee693" x="57.6" y="104.128259" style="stroke: #000000; stroke-width: 0.8"/>
      </g>
     </g>
     <g id="text_14">
      <!-- 10 -->
      <g transform="translate(37.875 107.927478) scale(0.1 -0.1)">
       <use xlink:href="#DejaVuSans-31"/>
       <use xlink:href="#DejaVuSans-30" transform="translate(63.623047 0)"/>
      </g>
     </g>
    </g>
    <g id="ytick_7">
     <g id="line2d_14">
      <g>
       <use xlink:href="#m65e63ee693" x="57.6" y="69.4393" style="stroke: #000000; stroke-width: 0.8"/>
      </g>
     </g>
     <g id="text_15">
      <!-- 20 -->
      <g transform="translate(37.875 73.238519) scale(0.1 -0.1)">
       <use xlink:href="#DejaVuSans-32"/>
       <use xlink:href="#DejaVuSans-30" transform="translate(63.623047 0)"/>
      </g>
     </g>
    </g>
    <g id="text_16">
     <!-- Loss -->
     <g transform="translate(23.415625 185.495187) rotate(-90) scale(0.1 -0.1)">
      <defs>
       <path id="DejaVuSans-4c" d="M 628 4666 
L 1259 4666 
L 1259 531 
L 3531 531 
L 3531 0 
L 628 0 
L 628 4666 
z
" transform="scale(0.015625)"/>
      </defs>
      <use xlink:href="#DejaVuSans-4c"/>
      <use xlink:href="#DejaVuSans-6f" transform="translate(53.962891 0)"/>
      <use xlink:href="#DejaVuSans-73" transform="translate(115.144531 0)"/>
      <use xlink:href="#DejaVuSans-73" transform="translate(167.244141 0)"/>
     </g>
    </g>
   </g>
   <g id="line2d_15">
    <path d="M 73.832727 140.005201 
L 74.049236 142.051694 
L 74.265744 137.572959 
L 74.482253 142.315877 
L 74.590507 135.509347 
L 74.698761 141.289878 
L 74.91527 135.06359 
L 75.023524 142.546923 
L 75.131778 132.363062 
L 75.240033 134.388567 
L 75.456541 146.441964 
L 75.564796 136.192846 
L 75.67305 137.870094 
L 75.781304 135.132309 
L 75.889558 149.613888 
L 76.106067 136.166018 
L 76.214321 140.72303 
L 76.322575 133.602752 
L 76.43083 143.031281 
L 76.539084 137.341415 
L 76.647338 138.425092 
L 76.755592 137.833243 
L 76.863847 151.34749 
L 76.972101 133.981571 
L 77.080355 136.396831 
L 77.18861 141.435322 
L 77.296864 135.447983 
L 77.513372 138.126488 
L 77.621627 138.637321 
L 77.729881 143.719359 
L 77.838135 134.496675 
L 77.946389 137.2596 
L 78.054644 134.641311 
L 78.162898 138.386052 
L 78.271152 136.288298 
L 78.379406 139.490679 
L 78.487661 151.469494 
L 78.595915 132.074708 
L 78.920678 145.529207 
L 79.028932 134.495474 
L 79.137186 137.359145 
L 79.245441 149.091151 
L 79.353695 135.458982 
L 79.461949 136.551479 
L 79.570203 142.307737 
L 79.678458 137.504933 
L 79.786712 150.61924 
L 79.894966 136.027519 
L 80.00322 160.397014 
L 80.111475 137.626612 
L 80.219729 142.876349 
L 80.436238 130.507475 
L 80.544492 140.542752 
L 80.652746 138.800348 
L 80.761 143.547702 
L 80.977509 133.863364 
L 81.085763 135.248406 
L 81.194017 143.389193 
L 81.302272 174.151315 
L 81.51878 133.764431 
L 81.627034 145.077506 
L 81.735289 138.796197 
L 81.951797 143.692133 
L 82.060052 131.398445 
L 82.27656 154.895937 
L 82.384814 135.494538 
L 82.493069 137.915379 
L 82.601323 133.327237 
L 82.709577 142.689075 
L 82.817831 137.724317 
L 83.142594 156.141389 
L 83.359103 145.226494 
L 83.467357 147.437243 
L 83.575611 133.503361 
L 83.683866 137.457182 
L 83.79212 165.096076 
L 83.900374 154.229104 
L 84.008628 185.160155 
L 84.225137 133.478407 
L 84.333391 139.529934 
L 84.441645 136.24977 
L 84.5499 142.922426 
L 84.658154 127.913532 
L 84.766408 141.597668 
L 84.874662 139.03524 
L 85.091171 148.149595 
L 85.30768 142.771527 
L 85.415934 129.339998 
L 85.740697 160.917358 
L 85.848951 125.255338 
L 85.957205 136.237135 
L 86.065459 158.848935 
L 86.173714 139.324101 
L 86.281968 142.25798 
L 86.390222 151.401962 
L 86.498476 140.863498 
L 86.606731 142.654804 
L 86.714985 177.563707 
L 86.823239 128.877018 
L 87.039748 177.818521 
L 87.256256 126.911575 
L 87.364511 164.445903 
L 87.581019 131.235105 
L 87.689273 133.402174 
L 87.797528 130.414036 
L 88.014036 137.37832 
L 88.12229 137.071565 
L 88.230545 148.879901 
L 88.338799 133.535244 
L 88.447053 143.574622 
L 88.555308 134.224163 
L 88.663562 137.752056 
L 88.771816 136.612361 
L 88.88007 145.525642 
L 88.988325 124.680476 
L 89.096579 126.715067 
L 89.204833 163.097534 
L 89.313087 141.334066 
L 89.421342 148.921182 
L 89.529596 137.047066 
L 89.63785 177.990246 
L 89.746104 137.517591 
L 89.854359 172.620891 
L 89.962613 125.760652 
L 90.179122 144.146594 
L 90.287376 145.77094 
L 90.39563 137.930345 
L 90.612139 154.876468 
L 90.828647 133.005061 
L 90.936901 142.030761 
L 91.045156 121.101711 
L 91.369918 171.495578 
L 91.586427 136.58864 
L 91.694681 145.042263 
L 91.802936 137.62689 
L 91.91119 162.967856 
L 92.019444 158.454318 
L 92.127698 132.276814 
L 92.344207 171.924092 
L 92.560715 138.067287 
L 92.66897 138.123194 
L 92.885478 124.763501 
L 92.993732 150.007679 
L 93.101987 134.761896 
L 93.210241 151.132844 
L 93.318495 139.904426 
L 93.42675 155.822308 
L 93.643258 134.244588 
L 93.751512 161.841903 
L 93.859767 137.621324 
L 93.968021 165.129929 
L 94.076275 139.03327 
L 94.292784 145.163365 
L 94.401038 132.650601 
L 94.617546 148.232375 
L 94.834055 122.826079 
L 94.942309 146.647834 
L 95.158818 116.989745 
L 95.267072 149.166328 
L 95.375326 143.194002 
L 95.483581 180.831852 
L 95.591835 171.01705 
L 95.700089 145.520779 
L 95.808343 164.330974 
L 95.916598 131.958159 
L 96.133106 140.14684 
L 96.24136 169.006169 
L 96.457869 133.481969 
L 96.566123 141.109894 
L 96.674378 135.418968 
L 96.782632 136.044106 
L 96.890886 156.604086 
L 96.99914 116.804701 
L 97.215649 154.417401 
L 97.323903 121.079869 
L 97.432157 178.384802 
L 97.540412 133.225418 
L 97.648666 158.93467 
L 97.865174 139.493501 
L 97.973429 146.271414 
L 98.081683 122.512091 
L 98.189937 151.080233 
L 98.298192 143.184331 
L 98.406446 121.732781 
L 98.622954 134.693306 
L 98.731209 166.334084 
L 98.839463 132.254575 
L 98.947717 150.243705 
L 99.055971 149.436086 
L 99.27248 142.46318 
L 99.380734 144.041012 
L 99.488988 127.522598 
L 99.705497 146.047601 
L 99.813751 140.136967 
L 100.03026 161.634952 
L 100.138514 122.812658 
L 100.246768 125.27573 
L 100.463277 152.391604 
L 100.78804 135.223756 
L 100.896294 170.040461 
L 101.221057 123.678522 
L 101.329311 157.15464 
L 101.437565 135.898915 
L 101.54582 157.190261 
L 101.762328 118.224106 
L 101.870582 136.941657 
L 101.978837 130.826068 
L 102.087091 145.950878 
L 102.195345 125.271495 
L 102.303599 146.488259 
L 102.411854 141.486754 
L 102.520108 119.920921 
L 102.736616 142.073787 
L 102.953125 117.913238 
L 103.061379 116.473932 
L 103.169634 94.198147 
L 103.386142 155.691623 
L 103.494396 157.246171 
L 103.602651 128.306981 
L 103.819159 239.368806 
L 104.035668 116.554565 
L 104.143922 150.611896 
L 104.252176 138.054338 
L 104.36043 175.574101 
L 104.468685 289.774082 
L 104.685193 125.884584 
L 104.901702 184.642991 
L 105.226465 136.953912 
L 105.334719 198.812528 
L 105.442973 125.375275 
L 105.659482 157.945716 
L 105.767736 152.138435 
L 105.984244 140.368373 
L 106.092499 173.504639 
L 106.200753 144.577612 
L 106.309007 156.951814 
L 106.417262 150.117365 
L 106.525516 126.555935 
L 106.850279 168.153154 
L 106.958533 130.8945 
L 107.175041 170.157458 
L 107.283296 165.239078 
L 107.39155 165.639444 
L 107.608058 143.114311 
L 107.824567 196.339174 
L 108.041076 141.704964 
L 108.14933 136.657805 
L 108.257584 163.058367 
L 108.474093 150.304987 
L 108.582347 150.110149 
L 108.798855 172.826101 
L 108.90711 160.122035 
L 109.015364 176.799461 
L 109.340127 126.807859 
L 109.448381 159.770736 
L 109.66489 144.041883 
L 109.773144 147.19769 
L 109.881398 231.673331 
L 110.097907 142.561484 
L 110.206161 146.681069 
L 110.314415 157.02741 
L 110.530924 125.346194 
L 110.639178 127.835642 
L 110.747432 141.497402 
L 110.855686 88.772198 
L 111.072195 154.92948 
L 111.180449 154.031808 
L 111.288704 85.717243 
L 111.505212 128.897024 
L 111.613466 120.630515 
L 111.721721 141.07137 
L 111.938229 121.236566 
L 112.046483 127.408633 
L 112.154738 171.871746 
L 112.262992 110.752854 
L 112.4795 149.960395 
L 112.587755 107.226002 
L 112.804263 164.659622 
L 112.912518 97.347772 
L 113.020772 130.326796 
L 113.23728 95.648751 
L 113.562043 157.693507 
L 113.670297 132.491029 
L 113.886806 156.041534 
L 113.99506 134.285982 
L 114.103314 161.14455 
L 114.211569 129.845123 
L 114.536332 164.76915 
L 114.644586 96.059702 
L 114.75284 130.849717 
L 114.969349 98.990675 
L 115.077603 194.388324 
L 115.185857 118.452985 
L 115.294111 134.59102 
L 115.402366 102.853674 
L 115.51062 158.757031 
L 115.618874 149.161629 
L 115.727128 113.409629 
L 115.943637 191.508135 
L 116.160146 129.980857 
L 116.2684 136.292702 
L 116.376654 114.957453 
L 116.484908 119.612923 
L 116.593163 160.418537 
L 116.701417 132.118204 
L 116.809671 179.853092 
L 116.917925 130.58608 
L 117.02618 138.428274 
L 117.242688 126.464457 
L 117.350942 130.880822 
L 117.459197 164.775146 
L 117.567451 133.614066 
L 117.78396 156.826381 
L 118.000468 137.91634 
L 118.108722 176.887876 
L 118.216977 112.308838 
L 118.433485 153.891057 
L 118.541739 147.142129 
L 118.649994 158.744326 
L 118.758248 157.015768 
L 118.866502 129.565045 
L 118.974756 196.136653 
L 119.191265 119.063938 
L 119.299519 180.491482 
L 119.407774 141.339826 
L 119.516028 184.014761 
L 119.624282 181.148331 
L 119.732536 141.782405 
L 119.840791 170.446889 
L 119.949045 148.411084 
L 120.165553 170.674099 
L 120.382062 123.925423 
L 120.490316 129.348507 
L 120.59857 145.406793 
L 120.706825 185.642999 
L 120.815079 163.792491 
L 120.923333 189.096168 
L 121.031587 102.284402 
L 121.139842 109.256282 
L 121.248096 147.70656 
L 121.35635 114.020191 
L 121.464605 197.667726 
L 121.789367 96.800262 
L 121.897622 110.467393 
L 122.11413 151.897636 
L 122.222384 167.432788 
L 122.438893 118.090966 
L 122.547147 166.637964 
L 122.655401 127.799721 
L 122.763656 185.4569 
L 122.87191 178.421212 
L 122.980164 129.523121 
L 123.088419 197.57634 
L 123.196673 120.557392 
L 123.413181 267.335297 
L 123.521436 117.634573 
L 123.62969 145.457015 
L 123.737944 120.594406 
L 123.846198 142.410671 
L 123.954453 100.149983 
L 124.062707 158.684039 
L 124.170961 114.153146 
L 124.279215 133.062229 
L 124.38747 120.415919 
L 124.495724 134.570583 
L 124.603978 168.567734 
L 124.712233 127.866595 
L 124.820487 198.149585 
L 124.928741 121.465499 
L 125.036995 161.215142 
L 125.14525 114.853701 
L 125.253504 177.45408 
L 125.361758 163.322952 
L 125.578267 121.579557 
L 125.686521 136.814083 
L 125.794775 167.725487 
L 126.011284 101.528698 
L 126.227792 207.587904 
L 126.444301 97.254762 
L 126.552555 114.671392 
L 126.660809 82.940455 
L 126.769064 125.579349 
L 126.877318 86.050425 
L 126.985572 173.858136 
L 127.202081 139.065446 
L 127.310335 241.772111 
L 127.418589 98.074804 
L 127.526843 114.961115 
L 127.635098 101.346191 
L 127.743352 140.73894 
L 127.851606 139.902158 
L 128.068115 143.720853 
L 128.176369 125.727043 
L 128.284623 151.503186 
L 128.392878 114.109964 
L 128.501132 136.837645 
L 128.609386 122.765521 
L 128.825895 170.623077 
L 128.934149 170.208782 
L 129.042403 152.659487 
L 129.150657 95.461326 
L 129.258912 152.767711 
L 129.367166 140.956519 
L 129.47542 196.793416 
L 129.800183 91.722997 
L 129.908437 173.248849 
L 130.016692 113.941067 
L 130.124946 130.229882 
L 130.2332 123.246395 
L 130.341454 108.984818 
L 130.557963 141.88291 
L 130.666217 106.578303 
L 130.99098 135.617242 
L 131.099234 120.313244 
L 131.207489 126.407971 
L 131.423997 198.433931 
L 131.640506 122.70097 
L 131.74876 204.648696 
L 131.857014 107.942623 
L 131.965268 155.313833 
L 132.073523 87.452366 
L 132.181777 154.026571 
L 132.398285 109.720743 
L 132.50654 155.417044 
L 132.614794 120.745273 
L 132.723048 145.289463 
L 132.831303 123.940945 
L 132.939557 126.622782 
L 133.047811 116.922535 
L 133.156065 164.018431 
L 133.26432 150.754792 
L 133.480828 177.51112 
L 133.589082 129.409579 
L 133.913845 173.612423 
L 134.130354 113.229617 
L 134.238608 117.214509 
L 134.346862 171.597113 
L 134.455117 107.512184 
L 134.563371 119.352174 
L 134.671625 189.036875 
L 134.888134 127.954694 
L 135.104642 158.746988 
L 135.212896 190.355929 
L 135.321151 99.583508 
L 135.537659 137.757399 
L 135.645913 220.526163 
L 135.754168 193.91727 
L 135.862422 85.942115 
L 135.970676 174.551511 
L 136.187185 136.475183 
L 136.295439 150.719907 
L 136.403693 230.306285 
L 136.620202 144.784732 
L 136.728456 101.747846 
L 136.944965 157.12505 
L 137.053219 167.73473 
L 137.161473 140.923416 
L 137.269727 169.327048 
L 137.377982 154.201591 
L 137.486236 156.550212 
L 137.702745 121.814546 
L 137.919253 145.050282 
L 138.027507 153.168211 
L 138.135762 226.714277 
L 138.35227 128.782496 
L 138.460524 131.429447 
L 138.677033 111.198686 
L 138.785287 106.241323 
L 138.893541 192.07243 
L 139.11005 145.943034 
L 139.218304 204.573885 
L 139.326559 96.497188 
L 139.543067 107.178284 
L 139.651321 106.099197 
L 139.759576 140.61556 
L 139.86783 237.63449 
L 139.976084 125.40418 
L 140.084338 155.153222 
L 140.192593 106.64182 
L 140.300847 176.814596 
L 140.409101 152.668477 
L 140.517355 171.295607 
L 140.62561 115.116735 
L 140.733864 189.218634 
L 140.950373 132.579204 
L 141.166881 180.480128 
L 141.38339 145.923694 
L 141.491644 150.994041 
L 141.599898 159.41106 
L 141.924661 128.408039 
L 142.249424 159.212414 
L 142.357678 138.930303 
L 142.465932 145.391818 
L 142.574187 169.325655 
L 142.682441 135.808655 
L 142.898949 151.707872 
L 143.007204 124.508137 
L 143.223712 172.158408 
L 143.440221 143.240669 
L 143.548475 132.003723 
L 143.764983 185.105576 
L 143.981492 148.225658 
L 144.089746 147.367376 
L 144.198001 152.303885 
L 144.306255 140.987734 
L 144.522763 161.490988 
L 144.631018 145.40161 
L 144.739272 154.889107 
L 144.95578 126.65978 
L 145.064035 144.670492 
L 145.388797 123.327254 
L 145.497052 119.353577 
L 145.71356 172.571969 
L 145.821815 160.848841 
L 145.930069 163.309034 
L 146.254832 143.64804 
L 146.363086 167.852022 
L 146.47134 157.833991 
L 146.579594 157.863714 
L 146.687849 126.101579 
L 146.904357 153.870482 
L 147.012611 118.091536 
L 147.22912 179.641913 
L 147.337374 172.722442 
L 147.445629 147.375282 
L 147.553883 170.828748 
L 147.662137 163.147257 
L 147.770391 128.954919 
L 147.878646 194.366423 
L 147.9869 140.617743 
L 148.095154 146.210674 
L 148.203408 163.184031 
L 148.419917 139.265998 
L 148.528171 166.755964 
L 148.636425 144.615968 
L 148.74468 182.471904 
L 148.852934 143.143447 
L 148.961188 183.629862 
L 149.177697 171.293857 
L 149.50246 138.523877 
L 149.610714 156.722847 
L 149.718968 138.203229 
L 149.935477 177.634638 
L 150.151985 150.782571 
L 150.260239 181.374145 
L 150.368494 116.837493 
L 150.585002 146.553705 
L 150.693257 135.238138 
L 150.909765 154.0782 
L 151.018019 137.216235 
L 151.126274 147.51621 
L 151.342782 121.411166 
L 151.451036 127.493722 
L 151.667545 170.042373 
L 151.775799 132.871883 
L 151.884053 159.492902 
L 152.100562 132.339061 
L 152.208816 175.682716 
L 152.425325 134.19069 
L 152.533579 166.090942 
L 152.750088 129.85746 
L 152.858342 146.852632 
L 152.966596 142.355573 
L 153.183105 150.302023 
L 153.291359 161.116431 
L 153.399613 115.331092 
L 153.507867 153.276641 
L 153.616122 137.896806 
L 153.724376 104.152978 
L 153.83263 150.55423 
L 153.940885 148.781964 
L 154.049139 162.686914 
L 154.265647 127.556813 
L 154.373902 169.368179 
L 154.59041 133.735239 
L 154.698664 165.632837 
L 154.806919 157.845744 
L 154.915173 135.337131 
L 155.023427 191.401558 
L 155.131681 101.319107 
L 155.239936 141.857653 
L 155.34819 138.23794 
L 155.456444 166.935599 
L 155.672953 109.678395 
L 155.781207 153.551606 
L 155.889461 148.629066 
L 155.997716 127.623859 
L 156.322478 155.755641 
L 156.430733 159.616683 
L 156.647241 126.465973 
L 157.080258 165.489315 
L 157.188513 139.232553 
L 157.296767 158.647369 
L 157.405021 126.635972 
L 157.513275 158.466211 
L 157.62153 139.515541 
L 157.729784 178.73956 
L 157.838038 163.795364 
L 157.946292 170.771192 
L 158.162801 128.104833 
L 158.379309 158.602768 
L 158.487564 125.512752 
L 158.704072 178.372059 
L 158.812327 137.703407 
L 158.920581 143.523425 
L 159.028835 142.425721 
L 159.137089 152.666553 
L 159.353598 131.683802 
L 159.461852 132.507622 
L 159.570106 134.576687 
L 159.678361 154.495273 
L 159.894869 138.466738 
L 160.003123 142.196861 
L 160.111378 136.059643 
L 160.219632 108.656264 
L 160.436141 144.296775 
L 160.652649 148.330493 
L 160.760903 119.228038 
L 160.977412 186.128239 
L 161.19392 129.846318 
L 161.302175 140.484568 
L 161.410429 165.431001 
L 161.518683 137.949782 
L 161.626937 149.485415 
L 161.843446 134.297431 
L 161.9517 152.516335 
L 162.059955 152.133166 
L 162.168209 143.713714 
L 162.276463 163.830896 
L 162.70948 117.843933 
L 162.925989 176.238579 
L 163.034243 146.123814 
L 163.142497 155.306557 
L 163.250751 151.968342 
L 163.359006 134.980142 
L 163.46726 163.666637 
L 163.683769 133.125803 
L 163.792023 143.930715 
L 163.900277 134.767268 
L 164.008531 135.84444 
L 164.116786 152.462066 
L 164.22504 124.512881 
L 164.333294 125.898962 
L 164.549803 161.175138 
L 164.658057 157.466578 
L 164.766311 138.156115 
L 164.98282 153.930183 
L 165.091074 123.313945 
L 165.199328 133.900114 
L 165.307583 176.357311 
L 165.415837 175.923778 
L 165.524091 146.92651 
L 165.632345 150.187063 
L 165.848854 114.570602 
L 166.173617 195.968974 
L 166.281871 150.808595 
L 166.390125 164.509468 
L 166.606634 139.64914 
L 166.714888 164.197867 
L 166.823142 155.842895 
L 166.931397 157.450393 
L 167.039651 152.98055 
L 167.147905 119.261121 
L 167.364414 151.877651 
L 167.472668 146.659557 
L 167.580922 149.810211 
L 167.689176 113.903199 
L 167.905685 159.605086 
L 168.122193 136.468705 
L 168.230448 137.420434 
L 168.338702 139.894308 
L 168.446956 165.4677 
L 168.555211 153.992647 
L 168.663465 120.112597 
L 168.771719 139.188034 
L 168.879973 116.706737 
L 168.988228 125.232308 
L 169.096482 161.489522 
L 169.31299 137.447168 
L 169.421245 153.541285 
L 169.529499 140.401863 
L 169.637753 147.161618 
L 169.746007 127.31456 
L 169.854262 129.261553 
L 169.962516 146.282835 
L 170.07077 138.308903 
L 170.179025 188.871733 
L 170.287279 117.025533 
L 170.395533 148.37246 
L 170.503787 146.541751 
L 170.612042 159.630101 
L 170.720296 112.18663 
L 170.82855 175.631634 
L 171.045059 130.974711 
L 171.153313 140.324181 
L 171.261567 164.943907 
L 171.369821 157.994044 
L 171.478076 165.460968 
L 171.58633 163.722858 
L 171.694584 165.22297 
L 171.802839 137.056335 
L 171.911093 162.122202 
L 172.019347 131.57561 
L 172.235856 205.067475 
L 172.34411 138.409786 
L 172.452364 142.611299 
L 172.668873 180.332046 
L 172.777127 141.418997 
L 172.885381 189.310913 
L 172.993635 116.138015 
L 173.10189 176.456083 
L 173.210144 121.096514 
L 173.318398 133.803841 
L 173.426653 126.748831 
L 173.643161 162.798913 
L 173.85967 113.720662 
L 174.076178 140.979677 
L 174.184432 101.205321 
L 174.292687 105.970468 
L 174.400941 223.331507 
L 174.509195 161.753163 
L 174.617449 209.844511 
L 174.833958 131.171815 
L 174.942212 158.108203 
L 175.158721 120.885064 
L 175.375229 174.815704 
L 175.483484 172.03667 
L 175.591738 185.995941 
L 175.808246 254.605077 
L 176.024755 111.147662 
L 176.133009 118.897287 
L 176.241263 135.29002 
L 176.457772 187.294107 
L 176.566026 118.865291 
L 176.674281 212.286503 
L 176.782535 102.74224 
L 176.890789 149.793584 
L 176.999043 126.573419 
L 177.323806 171.944794 
L 177.43206 143.561603 
L 177.540315 147.29374 
L 177.756823 128.28347 
L 177.865077 152.113768 
L 178.081586 146.317652 
L 178.18984 108.418236 
L 178.298095 163.32181 
L 178.406349 107.765929 
L 178.514603 142.190804 
L 178.622857 131.78329 
L 178.731112 148.830627 
L 178.94762 106.641116 
L 179.164129 146.063303 
L 179.272383 150.973806 
L 179.380637 232.375873 
L 179.488891 109.061012 
L 179.597146 109.347201 
L 179.813654 167.112445 
L 179.921909 101.845041 
L 180.030163 161.982396 
L 180.138417 119.796161 
L 180.354926 193.383714 
L 180.46318 146.350032 
L 180.571434 177.734126 
L 180.787943 137.038093 
L 180.896197 174.136137 
L 181.004451 132.414571 
L 181.112705 189.347571 
L 181.329214 118.814908 
L 181.437468 136.425808 
L 181.545723 206.720329 
L 181.653977 108.949129 
L 181.762231 135.034562 
L 181.870485 110.699479 
L 181.97874 119.805712 
L 182.086994 181.448073 
L 182.195248 129.826572 
L 182.303502 137.256312 
L 182.411757 109.824934 
L 182.520011 115.547356 
L 182.628265 127.321948 
L 182.736519 113.271775 
L 183.061282 125.85069 
L 183.169537 121.734283 
L 183.277791 135.844299 
L 183.386045 131.928304 
L 183.494299 136.587697 
L 183.602554 153.103084 
L 183.710808 137.775644 
L 183.927316 155.101958 
L 184.035571 117.994029 
L 184.143825 175.123886 
L 184.252079 134.512178 
L 184.360333 180.400824 
L 184.576842 150.29328 
L 184.793351 161.191069 
L 184.901605 126.65311 
L 185.009859 153.302901 
L 185.118113 151.738941 
L 185.226368 170.218266 
L 185.334622 140.311407 
L 185.442876 156.988418 
L 185.55113 137.889613 
L 185.659385 175.90595 
L 185.767639 143.389549 
L 185.875893 148.397347 
L 186.092402 127.538773 
L 186.417165 151.8641 
L 186.525419 155.975225 
L 186.633673 147.770711 
L 186.741927 157.612686 
L 186.850182 154.969617 
L 186.958436 207.172877 
L 187.06669 135.845486 
L 187.174944 172.229961 
L 187.283199 119.975005 
L 187.499707 172.305487 
L 187.716216 129.288602 
L 187.82447 131.62871 
L 188.040979 142.832789 
L 188.257487 132.31034 
L 188.473996 146.33459 
L 188.58225 163.34602 
L 188.690504 162.884867 
L 188.798758 150.753937 
L 188.907013 120.282955 
L 189.015267 154.162391 
L 189.231775 128.650148 
L 189.448284 164.006601 
L 189.556538 117.020203 
L 189.664793 134.284091 
L 189.773047 127.103125 
L 189.881301 177.175216 
L 189.989555 129.133544 
L 190.206064 155.102446 
L 190.314318 107.888098 
L 190.422572 137.705828 
L 190.639081 131.357978 
L 190.855589 168.188125 
L 191.180352 116.311098 
L 191.288607 149.895065 
L 191.505115 135.203362 
L 191.613369 195.355885 
L 191.829878 122.009011 
L 191.938132 125.388606 
L 192.046386 139.192544 
L 192.154641 111.270567 
L 192.371149 163.800642 
L 192.479403 167.059239 
L 192.587658 156.079793 
L 192.695912 117.736879 
L 192.912421 142.534064 
L 193.020675 109.666733 
L 193.128929 125.198581 
L 193.237183 161.031747 
L 193.345438 102.21185 
L 193.453692 156.523603 
L 193.561946 133.052066 
L 193.778455 179.798699 
L 193.994963 124.5492 
L 194.103217 134.728633 
L 194.211472 160.832506 
L 194.319726 131.351777 
L 194.536235 153.073286 
L 194.644489 134.461943 
L 194.860997 137.974426 
L 194.969252 134.945498 
L 195.077506 125.8652 
L 195.18576 130.839588 
L 195.294014 123.553824 
L 195.402269 131.151742 
L 195.510523 152.677099 
L 195.727031 129.650558 
L 195.835286 134.789356 
L 196.051794 155.591467 
L 196.160049 131.745977 
L 196.268303 148.39445 
L 196.376557 141.165332 
L 196.484811 160.656618 
L 196.593066 138.051958 
L 196.70132 173.175788 
L 196.809574 141.378897 
L 197.026083 174.982748 
L 197.134337 167.251555 
L 197.242591 170.800218 
L 197.4591 133.640606 
L 197.567354 128.932031 
L 197.675608 133.233089 
L 197.783862 128.2452 
L 197.892117 130.16534 
L 198.000371 113.965962 
L 198.21688 146.684574 
L 198.325134 122.1971 
L 198.541642 152.090516 
L 198.649897 124.557642 
L 198.866405 140.987018 
L 198.974659 179.714565 
L 199.082914 116.802345 
L 199.191168 135.418984 
L 199.299422 125.444777 
L 199.407676 129.919872 
L 199.515931 160.28738 
L 199.732439 117.341136 
L 199.840694 121.78035 
L 199.948948 182.525771 
L 200.057202 139.768587 
L 200.273711 192.105767 
L 200.490219 80.260697 
L 200.598473 89.072936 
L 200.706728 174.047676 
L 200.814982 98.713554 
L 200.923236 212.342947 
L 201.139745 85.664524 
L 201.247999 194.784785 
L 201.356253 114.150266 
L 201.464508 190.531995 
L 201.572762 99.015219 
L 201.681016 152.389305 
L 201.78927 118.648149 
L 201.897525 146.120291 
L 202.005779 143.138063 
L 202.114033 96.320081 
L 202.222287 142.814608 
L 202.330542 110.777616 
L 202.438796 173.658768 
L 202.54705 110.552519 
L 202.871813 141.73329 
L 202.980067 76.21671 
L 203.088322 103.874037 
L 203.196576 176.698435 
L 203.30483 130.178981 
L 203.413084 220.964155 
L 203.629593 98.324692 
L 203.737847 115.286261 
L 203.954356 164.555315 
L 204.06261 118.673825 
L 204.170864 129.039372 
L 204.387373 99.908693 
L 204.495627 226.588996 
L 204.603881 103.102986 
L 204.82039 188.005591 
L 204.928644 231.156299 
L 205.036898 134.390564 
L 205.145153 142.230966 
L 205.253407 209.127214 
L 205.361661 144.326533 
L 205.469915 146.432062 
L 205.57817 142.116842 
L 205.686424 179.567949 
L 205.794678 144.190875 
L 205.902932 224.30503 
L 206.011187 131.44182 
L 206.119441 168.195886 
L 206.227695 94.211737 
L 206.33595 182.24693 
L 206.660712 81.236304 
L 206.985475 151.463697 
L 207.093729 129.096502 
L 207.310238 162.310332 
L 207.418492 182.301767 
L 207.526746 134.355177 
L 207.635001 157.945764 
L 207.743255 132.791185 
L 207.851509 170.487398 
L 207.959764 157.174357 
L 208.068018 109.307357 
L 208.176272 129.212456 
L 208.284526 182.585676 
L 208.392781 90.870064 
L 208.501035 147.239912 
L 208.609289 84.050263 
L 208.825798 148.88531 
L 208.934052 114.639279 
L 209.15056 136.236209 
L 209.258815 117.34002 
L 209.367069 126.213572 
L 209.475323 105.941965 
L 209.583578 119.766811 
L 209.691832 114.762518 
L 209.800086 227.135729 
L 210.016595 143.246176 
L 210.124849 186.387314 
L 210.233103 108.213287 
L 210.449612 136.193085 
L 210.557866 135.780441 
L 210.66612 135.999435 
L 210.774374 129.708525 
L 210.882629 161.443674 
L 210.990883 111.712499 
L 211.099137 150.770761 
L 211.207392 119.073068 
L 211.315646 120.77235 
L 211.4239 221.27052 
L 211.532154 126.380723 
L 211.640409 167.343486 
L 211.748663 164.347993 
L 211.856917 212.758622 
L 212.073426 112.241478 
L 212.289934 160.102237 
L 212.398188 112.022373 
L 212.722951 180.753636 
L 212.93946 136.741787 
L 213.047714 172.513206 
L 213.155968 150.670472 
L 213.264223 100.029648 
L 213.372477 122.350162 
L 213.480731 110.028362 
L 213.588985 110.13124 
L 213.69724 144.348038 
L 213.805494 139.172517 
L 213.913748 172.328922 
L 214.022002 100.764246 
L 214.130257 113.58611 
L 214.238511 94.958364 
L 214.346765 123.753682 
L 214.45502 219.004008 
L 214.671528 109.380981 
L 214.779782 121.55409 
L 214.996291 168.168914 
L 215.104545 152.367758 
L 215.212799 99.220317 
L 215.429308 197.310335 
L 215.537562 108.899304 
L 215.645816 199.257249 
L 215.862325 133.544914 
L 216.078834 144.387907 
L 216.187088 119.93448 
L 216.295342 144.325267 
L 216.403596 93.451867 
L 216.620105 193.669641 
L 216.728359 109.798227 
L 216.836613 122.575827 
L 216.944868 157.914207 
L 217.053122 103.16556 
L 217.26963 174.510185 
L 217.486139 134.331356 
L 217.594393 117.274465 
L 217.702648 188.732577 
L 217.810902 113.310745 
L 217.919156 153.175271 
L 218.135665 97.059314 
L 218.243919 218.271005 
L 218.460427 134.235604 
L 218.568682 140.827117 
L 218.676936 131.96962 
L 218.78519 151.001471 
L 219.109953 97.850161 
L 219.218207 168.896268 
L 219.326462 162.047655 
L 219.54297 137.188603 
L 219.651224 161.476601 
L 219.759479 112.787233 
L 219.867733 142.799129 
L 219.975987 121.362787 
L 220.192496 145.923654 
L 220.30075 145.739465 
L 220.409004 117.32553 
L 220.517258 158.38697 
L 220.625513 119.307818 
L 220.733767 186.637843 
L 220.842021 80.345836 
L 220.950276 182.355234 
L 221.05853 127.282185 
L 221.166784 172.302053 
L 221.383293 132.269703 
L 221.491547 124.294713 
L 221.599801 166.024141 
L 221.708055 123.923108 
L 221.81631 191.690767 
L 221.924564 133.186839 
L 222.032818 253.25532 
L 222.249327 102.251764 
L 222.57409 126.283691 
L 222.790598 157.251471 
L 222.898852 94.044127 
L 223.115361 177.552503 
L 223.223615 161.929447 
L 223.331869 117.653438 
L 223.440124 202.181853 
L 223.548378 123.811212 
L 223.656632 203.75897 
L 223.873141 110.286163 
L 223.981395 145.899771 
L 224.089649 109.701148 
L 224.306158 166.304855 
L 224.414412 126.469681 
L 224.522666 130.065877 
L 224.739175 155.47352 
L 224.955683 107.152619 
L 225.063938 116.229008 
L 225.172192 144.383985 
L 225.280446 127.846752 
L 225.3887 275.433366 
L 225.605209 123.420056 
L 225.713463 125.164384 
L 225.821718 91.600504 
L 225.929972 133.297669 
L 226.14648 97.261448 
L 226.254735 152.847159 
L 226.362989 143.987397 
L 226.471243 168.669802 
L 226.687752 104.975779 
L 226.796006 149.56863 
L 226.90426 128.101212 
L 227.120769 160.819632 
L 227.229023 171.455228 
L 227.553786 85.992555 
L 227.770294 183.646817 
L 227.878549 177.940944 
L 227.986803 143.632942 
L 228.095057 218.279302 
L 228.311566 103.01514 
L 228.41982 165.160576 
L 228.528074 112.10564 
L 228.636328 112.916018 
L 228.744583 91.411679 
L 229.069346 150.030541 
L 229.1776 140.248859 
L 229.285854 112.367525 
L 229.394108 185.136455 
L 229.610617 99.754588 
L 229.718871 184.455972 
L 229.827125 88.148292 
L 229.93538 190.268302 
L 230.043634 159.034614 
L 230.151888 176.398557 
L 230.260142 120.832111 
L 230.476651 146.887413 
L 230.584905 91.856936 
L 230.69316 141.289224 
L 230.801414 115.006671 
L 230.909668 150.114458 
L 231.017922 94.341613 
L 231.126177 218.814674 
L 231.342685 201.964551 
L 231.559194 130.08787 
L 231.667448 124.239873 
L 231.883956 174.008788 
L 232.100465 127.278599 
L 232.208719 191.610695 
L 232.316974 100.247777 
L 232.425228 153.453828 
L 232.533482 90.183643 
L 232.858245 184.206127 
L 233.074753 116.689332 
L 233.183008 128.177454 
L 233.291262 124.976299 
L 233.399516 197.983725 
L 233.50777 102.662175 
L 233.616025 187.649983 
L 233.940788 108.959298 
L 234.049042 112.492823 
L 234.26555 144.692998 
L 234.373805 122.315303 
L 234.482059 159.012788 
L 234.590313 120.816068 
L 234.698567 155.994528 
L 234.806822 107.152967 
L 234.915076 166.620331 
L 235.02333 90.074023 
L 235.239839 141.560373 
L 235.348093 276.617555 
L 235.564602 115.117869 
L 235.672856 84.721449 
L 235.78111 199.145643 
L 235.889364 136.497282 
L 235.997619 158.970764 
L 236.214127 111.565875 
L 236.430636 135.69748 
L 236.53889 65.488029 
L 236.755398 197.056815 
L 236.863653 125.68247 
L 236.971907 130.291829 
L 237.080161 128.979782 
L 237.29667 78.124336 
L 237.404924 190.448119 
L 237.513178 83.208968 
L 237.621433 183.442301 
L 237.729687 116.451575 
L 237.837941 129.168321 
L 237.946195 103.404442 
L 238.05445 186.844933 
L 238.270958 140.622746 
L 238.379212 126.985604 
L 238.487467 127.952557 
L 238.703975 178.788468 
L 238.81223 145.020355 
L 238.920484 176.04639 
L 239.136992 92.343241 
L 239.353501 230.348094 
L 239.570009 152.838248 
L 239.678264 191.310129 
L 239.786518 111.513018 
L 239.894772 122.76194 
L 240.003026 168.998087 
L 240.111281 127.267337 
L 240.219535 160.391325 
L 240.327789 124.139625 
L 240.436044 144.062804 
L 240.544298 130.483269 
L 240.760806 142.373627 
L 240.869061 122.450198 
L 240.977315 165.360548 
L 241.085569 162.598516 
L 241.193823 90.773564 
L 241.410332 208.507391 
L 241.62684 111.43241 
L 241.735095 158.256415 
L 241.843349 130.092663 
L 241.951603 223.697519 
L 242.168112 129.302529 
L 242.276366 132.531426 
L 242.38462 107.318866 
L 242.492875 146.34397 
L 242.601129 144.992765 
L 242.709383 130.065962 
L 242.817637 208.257787 
L 242.925892 107.302418 
L 243.034146 138.293185 
L 243.1424 108.270459 
L 243.250654 179.197924 
L 243.358909 133.567697 
L 243.467163 139.473824 
L 243.575417 156.919293 
L 243.683672 146.377805 
L 243.791926 156.026667 
L 244.008434 114.719743 
L 244.116689 137.182437 
L 244.224943 120.063622 
L 244.441451 155.632659 
L 244.65796 119.000311 
L 244.766214 152.697066 
L 244.874468 132.995394 
L 244.982723 141.337732 
L 245.090977 164.931933 
L 245.199231 116.198436 
L 245.307486 152.942124 
L 245.41574 117.549068 
L 245.632248 134.091386 
L 245.740503 125.00371 
L 245.848757 125.731221 
L 246.065265 175.226976 
L 246.17352 139.378854 
L 246.281774 142.890276 
L 246.390028 126.679324 
L 246.606537 137.878942 
L 246.714791 165.882328 
L 246.9313 147.014052 
L 247.039554 146.067041 
L 247.256062 127.236487 
L 247.472571 161.483637 
L 247.580825 129.78931 
L 247.689079 167.921597 
L 247.797334 131.42232 
L 247.905588 174.486426 
L 248.013842 126.123784 
L 248.122096 166.280202 
L 248.446859 107.4921 
L 248.771622 169.096089 
L 248.879876 152.249232 
L 248.988131 153.668288 
L 249.096385 183.544841 
L 249.204639 116.189462 
L 249.312893 143.425301 
L 249.421148 105.989841 
L 249.529402 118.237494 
L 249.637656 149.677112 
L 249.74591 121.172986 
L 249.962419 135.088316 
L 250.070673 124.11789 
L 250.287182 196.577728 
L 250.395436 126.65486 
L 250.50369 147.101155 
L 250.611945 115.153168 
L 250.720199 116.944035 
L 250.828453 133.483834 
L 250.936707 115.476661 
L 251.044962 144.467059 
L 251.153216 131.045612 
L 251.369724 143.007712 
L 251.477979 134.198424 
L 251.586233 140.100705 
L 251.694487 155.355818 
L 251.802742 141.208238 
L 252.01925 162.440421 
L 252.127504 130.420875 
L 252.235759 161.297404 
L 252.452267 121.620317 
L 252.560521 148.213636 
L 252.668776 129.192907 
L 252.77703 150.814262 
L 252.885284 145.082579 
L 252.993538 127.650163 
L 253.101793 145.797604 
L 253.210047 118.88994 
L 253.318301 160.367501 
L 253.53481 140.151024 
L 253.643064 100.459204 
L 253.859573 185.306605 
L 253.967827 127.860333 
L 254.29259 154.006082 
L 254.400844 146.997634 
L 254.509098 131.965662 
L 254.617352 139.742083 
L 254.833861 134.177381 
L 254.942115 132.748389 
L 255.05037 147.073714 
L 255.266878 132.665368 
L 255.375132 151.479502 
L 255.483387 144.713595 
L 255.591641 169.967439 
L 255.699895 113.551165 
L 255.808149 168.633276 
L 255.916404 145.69995 
L 256.024658 148.444942 
L 256.132912 121.893038 
L 256.241166 165.71851 
L 256.457675 96.991714 
L 256.565929 156.720461 
L 256.674184 153.522961 
L 256.890692 123.241929 
L 256.998946 173.733537 
L 257.215455 123.395486 
L 257.323709 101.241563 
L 257.648472 146.385322 
L 257.756726 149.357708 
L 257.86498 115.2957 
L 257.973235 233.300606 
L 258.081489 126.470533 
L 258.189743 146.765108 
L 258.297998 72.441522 
L 258.514506 188.023968 
L 258.62276 79.343896 
L 258.731015 156.489209 
L 258.839269 89.209634 
L 258.947523 140.871223 
L 259.055777 84.937633 
L 259.164032 143.807701 
L 259.272286 98.758493 
L 259.38054 139.44274 
L 259.488794 112.63972 
L 259.597049 156.896786 
L 259.705303 117.728627 
L 259.813557 170.415683 
L 259.921812 127.176851 
L 260.030066 227.387085 
L 260.13832 76.075874 
L 260.354829 188.338267 
L 260.463083 120.081432 
L 260.571337 154.187344 
L 260.679591 109.648131 
L 260.787846 195.737876 
L 260.8961 99.222521 
L 261.004354 172.591878 
L 261.112608 137.800157 
L 261.220863 145.92275 
L 261.329117 94.276607 
L 261.545626 161.764697 
L 261.65388 135.661448 
L 261.762134 145.882088 
L 261.870388 106.47293 
L 261.978643 112.933621 
L 262.086897 138.473855 
L 262.195151 117.798748 
L 262.303405 185.636621 
L 262.519914 146.00812 
L 262.628168 178.905886 
L 262.736422 136.907257 
L 262.952931 205.494258 
L 263.16944 134.520307 
L 263.277694 147.304024 
L 263.385948 145.209927 
L 263.494202 155.036873 
L 263.602457 184.266091 
L 263.710711 176.589536 
L 263.818965 115.333347 
L 264.035474 221.010714 
L 264.143728 107.739388 
L 264.251982 116.005817 
L 264.360236 180.787334 
L 264.576745 123.382184 
L 264.901508 176.557486 
L 265.009762 261.559317 
L 265.118016 119.787302 
L 265.226271 151.058985 
L 265.442779 91.39316 
L 265.551033 145.511117 
L 265.767542 134.839758 
L 265.875796 134.158517 
L 265.98405 188.90193 
L 266.200559 93.081233 
L 266.308813 259.055383 
L 266.525322 122.753345 
L 266.633576 164.106095 
L 266.74183 150.293679 
L 266.850085 113.245312 
L 266.958339 165.513752 
L 267.066593 164.090741 
L 267.174847 112.058535 
L 267.283102 140.350311 
L 267.49961 101.530878 
L 267.607864 95.598282 
L 267.716119 100.800762 
L 267.824373 190.189765 
L 268.040882 86.479144 
L 268.149136 170.62007 
L 268.365644 134.350376 
L 268.473899 171.771865 
L 268.690407 103.577927 
L 268.798661 163.5974 
L 268.906916 53.568 
L 269.01517 204.1113 
L 269.123424 143.019067 
L 269.231678 167.379704 
L 269.339933 129.331872 
L 269.448187 181.416136 
L 269.556441 61.714084 
L 269.77295 197.634333 
L 270.097713 82.887888 
L 270.314221 91.912924 
L 270.422475 231.171385 
L 270.53073 83.378619 
L 270.638984 166.873517 
L 270.747238 154.453725 
L 270.855492 108.343669 
L 270.963747 169.6119 
L 271.180255 147.520572 
L 271.28851 177.627291 
L 271.505018 114.129542 
L 271.613272 169.824068 
L 271.721527 119.805687 
L 271.938035 167.009047 
L 272.046289 95.622468 
L 272.154544 110.276199 
L 272.262798 109.297386 
L 272.371052 111.645654 
L 272.479306 148.743231 
L 272.587561 246.193728 
L 272.695815 114.823772 
L 272.804069 165.656129 
L 272.912324 133.190629 
L 273.020578 153.821535 
L 273.128832 134.625342 
L 273.237086 146.452679 
L 273.345341 129.855293 
L 273.453595 136.081841 
L 273.561849 99.113393 
L 273.670103 173.966639 
L 273.994866 100.080085 
L 274.211375 187.691944 
L 274.319629 72.778078 
L 274.427883 142.067205 
L 274.536138 96.861335 
L 274.644392 103.25334 
L 274.752646 157.858479 
L 274.8609 87.258201 
L 275.185663 213.062275 
L 275.293917 72.475179 
L 275.61868 160.649732 
L 275.726934 143.99506 
L 275.835189 207.389769 
L 275.943443 136.579149 
L 276.159951 164.667765 
L 276.268206 150.915967 
L 276.484714 98.771365 
L 276.592969 147.920263 
L 276.701223 147.099119 
L 276.809477 116.655347 
L 277.025986 158.584767 
L 277.13424 150.898282 
L 277.242494 127.490766 
L 277.350748 178.207334 
L 277.567257 124.435207 
L 277.675511 146.246243 
L 277.783765 136.318105 
L 277.89202 139.747004 
L 278.000274 198.479551 
L 278.216783 127.916909 
L 278.433291 168.950208 
L 278.541545 126.244284 
L 278.758054 187.542731 
L 278.974562 71.899368 
L 279.082817 129.169667 
L 279.191071 126.052158 
L 279.299325 113.36842 
L 279.407579 82.412738 
L 279.732342 158.35068 
L 279.840597 165.552385 
L 279.948851 127.377849 
L 280.057105 192.743134 
L 280.165359 157.130374 
L 280.273614 180.200473 
L 280.490122 120.424975 
L 280.598376 113.977719 
L 280.706631 124.017412 
L 280.814885 62.125108 
L 280.923139 72.619384 
L 281.139648 143.098461 
L 281.247902 64.625615 
L 281.356156 174.648306 
L 281.464411 58.660096 
L 281.680919 174.948763 
L 281.897428 123.580477 
L 282.005682 154.026415 
L 282.113936 95.569858 
L 282.22219 105.783267 
L 282.330445 217.889007 
L 282.546953 153.378904 
L 282.655207 93.81909 
L 282.763462 229.164725 
L 282.871716 90.180464 
L 282.97997 117.493431 
L 283.088225 90.284345 
L 283.304733 212.741982 
L 283.521242 78.906069 
L 283.629496 136.713238 
L 283.73775 103.161862 
L 283.954259 264.477716 
L 284.062513 105.169488 
L 284.279021 244.252849 
L 284.49553 149.290277 
L 284.603784 102.073978 
L 284.820293 133.777221 
L 284.928547 115.214216 
L 285.036801 214.726854 
L 285.145056 128.37993 
L 285.361564 208.105815 
L 285.469818 155.430552 
L 285.578073 158.758096 
L 285.686327 132.356184 
L 285.794581 182.40437 
L 285.902835 103.996444 
L 286.01109 132.742173 
L 286.119344 99.199125 
L 286.227598 178.793176 
L 286.444107 82.436392 
L 286.552361 179.540276 
L 286.76887 69.803314 
L 286.877124 170.845706 
L 286.985378 105.604744 
L 287.093632 143.749801 
L 287.201887 104.452786 
L 287.310141 239.88417 
L 287.526649 138.450261 
L 287.634904 116.198639 
L 287.743158 162.684061 
L 287.959667 79.586989 
L 288.067921 295.488 
L 288.176175 85.409018 
L 288.392684 164.726716 
L 288.500938 114.993903 
L 288.609192 186.953376 
L 288.825701 136.573285 
L 288.933955 90.290045 
L 289.150463 181.916143 
L 289.475226 78.849737 
L 289.583481 166.256049 
L 289.691735 116.440954 
L 289.799989 120.483445 
L 290.016498 83.590301 
L 290.233006 171.435941 
L 290.34126 123.718708 
L 290.449515 210.833907 
L 290.666023 117.731998 
L 290.774277 133.845544 
L 290.882532 132.669966 
L 291.207295 181.1901 
L 291.315549 153.18391 
L 291.423803 76.161093 
L 291.640312 186.789673 
L 291.748566 88.861784 
L 291.85682 111.716896 
L 291.965074 100.823099 
L 292.181583 202.55208 
L 292.289837 106.761494 
L 292.398091 165.247232 
L 292.506346 159.769951 
L 292.6146 141.020913 
L 292.722854 89.283618 
L 292.831109 214.094796 
L 292.939363 208.641651 
L 293.155871 143.539196 
L 293.264126 171.943345 
L 293.480634 133.468295 
L 293.588888 152.421561 
L 293.697143 140.762389 
L 293.805397 289.929197 
L 294.021905 65.911075 
L 294.346668 173.718041 
L 294.454923 143.761623 
L 294.563177 158.498157 
L 294.779685 100.588012 
L 294.88794 107.325165 
L 294.996194 73.29284 
L 295.104448 143.92431 
L 295.212702 136.111011 
L 295.320957 186.201754 
L 295.429211 132.671638 
L 295.537465 146.742368 
L 295.753974 132.516108 
L 295.862228 68.049195 
L 295.970482 156.65053 
L 296.078737 119.016568 
L 296.186991 203.45545 
L 296.295245 173.102061 
L 296.403499 100.364169 
L 296.511754 192.266145 
L 296.728262 100.83437 
L 296.836516 146.803812 
L 296.944771 104.638846 
L 297.161279 146.721119 
L 297.269533 102.838754 
L 297.377788 111.033025 
L 297.594296 169.361241 
L 297.919059 107.880231 
L 298.027313 169.857114 
L 298.243822 113.615677 
L 298.46033 190.690679 
L 298.568585 149.128854 
L 298.676839 152.119619 
L 298.785093 217.24113 
L 299.001602 85.800716 
L 299.109856 131.261913 
L 299.21811 75.565882 
L 299.326365 191.48462 
L 299.434619 124.572997 
L 299.542873 134.360258 
L 299.651127 87.828018 
L 299.759382 152.554602 
L 299.867636 123.583777 
L 299.97589 132.769763 
L 300.192399 77.637945 
L 300.408907 161.966254 
L 300.517161 110.757174 
L 300.625416 125.871668 
L 300.73367 161.966032 
L 300.950179 125.095514 
L 301.058433 153.141837 
L 301.166687 229.980593 
L 301.383196 118.82846 
L 301.49145 194.829234 
L 301.599704 107.764619 
L 301.707958 140.738752 
L 301.816213 96.277544 
L 301.924467 106.702486 
L 302.032721 153.603477 
L 302.140975 63.859649 
L 302.357484 141.006085 
L 302.573993 103.502229 
L 302.682247 158.884625 
L 302.790501 93.444794 
L 303.00701 124.22756 
L 303.115264 110.42746 
L 303.223518 146.765011 
L 303.331772 143.280454 
L 303.440027 109.026097 
L 303.548281 132.866441 
L 303.764789 105.090329 
L 303.873044 211.626709 
L 303.981298 80.598007 
L 304.197807 157.217085 
L 304.414315 173.890497 
L 304.522569 103.556824 
L 304.630824 104.879352 
L 304.739078 156.661935 
L 304.847332 147.01206 
L 304.955586 211.628383 
L 305.063841 127.618244 
L 305.172095 144.715701 
L 305.280349 131.872729 
L 305.388603 94.468992 
L 305.496858 132.678955 
L 305.605112 124.097565 
L 305.713366 136.558615 
L 305.821621 121.461585 
L 305.929875 161.228059 
L 306.254638 120.278569 
L 306.362892 175.078097 
L 306.471146 174.999676 
L 306.687655 97.849701 
L 306.904163 190.711461 
L 307.012417 107.257764 
L 307.120672 156.944806 
L 307.228926 127.186658 
L 307.33718 137.220176 
L 307.445435 247.896146 
L 307.661943 150.262222 
L 307.770197 181.757681 
L 308.09496 123.134906 
L 308.203214 135.745777 
L 308.311469 165.953142 
L 308.419723 126.000618 
L 308.527977 134.672195 
L 308.636231 156.868466 
L 308.744486 121.85709 
L 308.960994 160.802532 
L 309.069249 140.630249 
L 309.285757 163.843951 
L 309.394011 135.831013 
L 309.61052 159.636929 
L 309.827028 145.843359 
L 309.935283 167.099665 
L 310.043537 212.958675 
L 310.151791 117.334644 
L 310.260045 160.22677 
L 310.3683 69.548636 
L 310.584808 158.739901 
L 310.693063 122.400873 
L 310.801317 215.092906 
L 310.909571 193.982891 
L 311.017825 221.358472 
L 311.12608 216.546296 
L 311.234334 140.979441 
L 311.342588 192.005506 
L 311.450842 134.175354 
L 311.559097 196.444143 
L 311.667351 102.03767 
L 311.775605 109.187627 
L 311.883859 179.757538 
L 311.992114 120.617785 
L 312.100368 130.882286 
L 312.208622 125.42038 
L 312.316877 108.856711 
L 312.425131 180.5417 
L 312.533385 157.058788 
L 312.641639 106.687732 
L 312.749894 188.545571 
L 312.858148 188.409247 
L 312.966402 99.026391 
L 313.291165 152.28903 
L 313.507673 137.322188 
L 313.615928 101.284212 
L 313.940691 171.818312 
L 314.048945 121.575026 
L 314.157199 201.821961 
L 314.265453 185.126762 
L 314.373708 121.771313 
L 314.914979 150.757362 
L 315.023233 171.502022 
L 315.239742 126.971112 
L 315.347996 171.817813 
L 315.564505 113.975881 
L 315.672759 126.595068 
L 315.781013 192.142382 
L 315.889267 119.583209 
L 315.997522 130.17767 
L 316.21403 166.570198 
L 316.322284 107.478827 
L 316.430539 165.573498 
L 316.538793 113.651661 
L 316.755301 163.334663 
L 316.863556 133.933173 
L 316.97181 154.138127 
L 317.080064 131.817551 
L 317.188319 132.801459 
L 317.296573 207.689843 
L 317.621336 120.112952 
L 317.72959 92.729416 
L 317.837844 123.120002 
L 317.946098 122.43596 
L 318.054353 117.706595 
L 318.162607 165.163874 
L 318.270861 116.796847 
L 318.379115 148.262021 
L 318.703878 72.641495 
L 318.812133 141.322933 
L 318.920387 96.683046 
L 319.028641 139.210807 
L 319.136895 133.851041 
L 319.24515 147.408536 
L 319.353404 224.559649 
L 319.569912 98.326115 
L 319.786421 178.705776 
L 319.894675 164.74524 
L 320.002929 98.218092 
L 320.111184 107.278887 
L 320.219438 199.336963 
L 320.327692 122.079602 
L 320.435947 194.961819 
L 320.544201 112.415779 
L 320.652455 122.872801 
L 320.760709 216.522014 
L 320.977218 101.434665 
L 321.085472 279.140942 
L 321.193726 84.58936 
L 321.301981 101.446284 
L 321.410235 85.517613 
L 321.518489 135.272722 
L 321.626743 90.27932 
L 321.734998 98.162908 
L 321.951506 187.533181 
L 322.059761 162.428728 
L 322.168015 108.69406 
L 322.384523 140.776432 
L 322.709286 98.983841 
L 322.81754 145.697968 
L 322.925795 137.884555 
L 323.034049 119.335435 
L 323.142303 60.978851 
L 323.250557 75.231013 
L 323.358812 201.58522 
L 323.467066 139.748629 
L 323.683575 151.659293 
L 323.791829 144.52209 
L 323.900083 123.434632 
L 324.008337 161.818691 
L 324.116592 123.993666 
L 324.224846 169.143952 
L 324.3331 146.404348 
L 324.441354 227.923754 
L 324.549609 123.557445 
L 324.657863 139.785653 
L 324.766117 125.58306 
L 324.874371 176.612558 
L 324.982626 107.692087 
L 325.199134 127.304729 
L 325.307389 182.55092 
L 325.415643 126.622895 
L 325.523897 142.280659 
L 325.632151 185.999507 
L 325.84866 142.978584 
L 326.173423 163.56133 
L 326.281677 102.861431 
L 326.389931 194.010977 
L 326.60644 117.28258 
L 326.714694 164.504415 
L 326.822948 142.771921 
L 326.931203 200.806967 
L 327.039457 107.259944 
L 327.147711 132.309229 
L 327.255965 88.514185 
L 327.36422 179.824761 
L 327.472474 167.570329 
L 327.688982 120.773124 
L 327.905491 107.829235 
L 328.121999 135.502674 
L 328.230254 193.927869 
L 328.446762 116.950971 
L 328.663271 105.289145 
L 328.879779 209.903291 
L 329.096288 103.198457 
L 329.204542 116.536264 
L 329.312796 190.551622 
L 329.421051 188.349144 
L 329.529305 115.340188 
L 329.854068 163.005404 
L 329.962322 114.829629 
L 330.070576 192.214474 
L 330.287085 112.008354 
L 330.503593 172.955733 
L 330.720102 98.732385 
L 330.828356 98.882755 
L 331.044865 217.418231 
L 331.261373 92.088688 
L 331.369627 116.253737 
L 331.477882 103.792219 
L 331.802645 194.246862 
L 331.910899 119.980659 
L 332.019153 155.339214 
L 332.127407 150.069111 
L 332.235662 103.432022 
L 332.343916 152.528691 
L 332.45217 139.72457 
L 332.560424 106.402714 
L 332.668679 128.717905 
L 332.776933 185.572191 
L 332.993441 138.940536 
L 333.101696 149.592183 
L 333.318204 111.560393 
L 333.426459 133.259174 
L 333.642967 211.557456 
L 333.96773 68.572883 
L 334.292493 212.936663 
L 334.617255 78.14572 
L 334.72551 238.612406 
L 334.833764 94.283604 
L 334.942018 202.053231 
L 335.050273 157.815197 
L 335.158527 247.051881 
L 335.48329 134.238864 
L 335.591544 135.914394 
L 335.699798 194.785823 
L 335.808052 104.725984 
L 336.024561 121.87007 
L 336.132815 121.11145 
L 336.241069 112.002889 
L 336.349324 120.793516 
L 336.457578 85.185659 
L 336.782341 213.015537 
L 336.890595 172.423768 
L 336.998849 84.951551 
L 337.215358 171.033734 
L 337.323612 106.738145 
L 337.540121 194.977156 
L 337.648375 76.894143 
L 337.864883 148.210301 
L 337.973138 143.678234 
L 338.189646 93.963338 
L 338.297901 98.989756 
L 338.406155 97.987425 
L 338.514409 132.415803 
L 338.622663 113.960647 
L 338.730918 131.032448 
L 338.839172 120.663357 
L 338.947426 177.617919 
L 339.05568 146.00711 
L 339.163935 72.042513 
L 339.272189 87.16757 
L 339.380443 258.923558 
L 339.596952 138.133093 
L 339.705206 177.362609 
L 339.81346 162.051274 
L 339.921715 165.948734 
L 340.138223 105.652226 
L 340.246477 111.424034 
L 340.354732 133.839689 
L 340.462986 103.699556 
L 340.57124 119.797775 
L 340.679494 178.563894 
L 340.787749 177.695876 
L 341.004257 118.354715 
L 341.112511 194.823008 
L 341.32902 115.835956 
L 341.437274 99.476365 
L 341.545529 146.584789 
L 341.653783 119.615828 
L 341.762037 193.393562 
L 341.870291 131.930962 
L 341.978546 214.547867 
L 342.195054 121.739179 
L 342.303308 108.274647 
L 342.411563 110.958217 
L 342.519817 96.002738 
L 342.84458 166.252838 
L 342.952834 115.323689 
L 343.061088 207.221157 
L 343.277597 113.844227 
L 343.494105 167.365254 
L 343.60236 170.4771 
L 343.710614 91.05801 
L 343.818868 148.146807 
L 343.927122 111.447311 
L 344.035377 135.49543 
L 344.143631 119.956407 
L 344.251885 168.449013 
L 344.576648 120.518221 
L 344.793157 94.185268 
L 344.901411 133.519678 
L 345.009665 125.650634 
L 345.117919 148.417665 
L 345.226174 139.838268 
L 345.334428 168.772647 
L 345.442682 65.16245 
L 345.550936 130.347979 
L 345.659191 89.960141 
L 345.875699 236.696127 
L 345.983953 115.931451 
L 346.200462 195.951347 
L 346.308716 103.898928 
L 346.416971 208.280594 
L 346.525225 147.950068 
L 346.633479 199.167411 
L 346.741733 102.250573 
L 346.849988 107.039585 
L 346.958242 90.974087 
L 347.17475 177.993747 
L 347.283005 140.599044 
L 347.391259 164.705462 
L 347.499513 128.762021 
L 347.607767 171.647057 
L 347.716022 154.79048 
L 347.824276 114.170913 
L 347.93253 155.714287 
L 348.040785 123.679326 
L 348.149039 139.256312 
L 348.257293 135.147531 
L 348.365547 227.214517 
L 348.473802 85.307285 
L 348.582056 157.18067 
L 348.69031 111.494194 
L 348.798564 116.933118 
L 349.015073 134.11644 
L 349.123327 93.729005 
L 349.339836 218.930626 
L 349.44809 125.923635 
L 349.556344 131.549409 
L 349.664599 144.758905 
L 349.772853 183.055741 
L 349.989361 144.768459 
L 350.097616 149.956095 
L 350.20587 95.260597 
L 350.314124 116.47973 
L 350.422378 196.589201 
L 350.530633 113.35414 
L 350.638887 211.698027 
L 351.071904 119.579793 
L 351.180158 130.297759 
L 351.288413 121.462202 
L 351.396667 127.931446 
L 351.504921 114.193693 
L 351.613175 185.21951 
L 351.829684 121.75113 
L 351.937938 65.88629 
L 352.046192 129.127924 
L 352.154447 96.750632 
L 352.262701 111.100352 
L 352.370955 161.167762 
L 352.479209 159.286793 
L 352.587464 106.964373 
L 352.695718 120.797886 
L 352.803972 233.387804 
L 353.020481 119.564984 
L 353.128735 124.51451 
L 353.236989 156.761932 
L 353.345244 102.268199 
L 353.453498 132.851044 
L 353.561752 117.812712 
L 353.670006 85.486404 
L 353.778261 134.918528 
L 353.886515 120.423924 
L 354.103023 157.237796 
L 354.319532 139.576022 
L 354.53604 195.270646 
L 354.752549 109.930707 
L 354.969058 170.183345 
L 355.077312 104.414246 
L 355.185566 120.174237 
L 355.29382 162.824694 
L 355.510329 126.625192 
L 355.726837 140.834041 
L 355.835092 151.515754 
L 356.0516 104.614571 
L 356.159854 207.66732 
L 356.268109 157.856133 
L 356.376363 158.855364 
L 356.592872 135.744084 
L 356.701126 174.41914 
L 356.80938 111.981687 
L 356.917634 128.799378 
L 357.025889 99.711879 
L 357.134143 166.485618 
L 357.242397 142.3785 
L 357.350651 146.223375 
L 357.458906 113.598932 
L 357.675414 193.260712 
L 357.891923 125.325354 
L 358.000177 127.92245 
L 358.108431 164.277593 
L 358.216686 124.764868 
L 358.32494 126.946336 
L 358.433194 91.323843 
L 358.541448 147.015349 
L 358.649703 119.998861 
L 358.757957 166.140093 
L 358.866211 111.569924 
L 359.08272 168.141708 
L 359.190974 176.863445 
L 359.299228 96.541551 
L 359.407482 222.19665 
L 359.623991 143.325622 
L 359.732245 183.860559 
L 359.8405 107.552911 
L 359.948754 136.858612 
L 360.057008 211.31335 
L 360.165262 119.270608 
L 360.381771 145.205383 
L 360.490025 72.061066 
L 360.706534 109.623313 
L 360.923042 154.607944 
L 361.031296 121.351114 
L 361.139551 159.628791 
L 361.356059 122.81842 
L 361.464314 142.779532 
L 361.572568 196.631215 
L 361.680822 105.114988 
L 361.789076 124.537408 
L 361.897331 102.071434 
L 362.005585 132.584881 
L 362.113839 201.397407 
L 362.222093 120.432387 
L 362.330348 202.443611 
L 362.438602 129.911813 
L 362.546856 177.708415 
L 362.65511 116.33977 
L 362.763365 172.768797 
L 362.871619 90.89744 
L 362.979873 144.018156 
L 363.088128 102.11411 
L 363.196382 133.623083 
L 363.304636 118.151127 
L 363.41289 159.655149 
L 363.521145 116.466879 
L 363.737653 141.184407 
L 363.845907 133.989317 
L 363.954162 201.75235 
L 364.062416 181.241274 
L 364.17067 105.928315 
L 364.387179 176.192863 
L 364.603687 124.059558 
L 364.711942 175.514888 
L 364.92845 108.788986 
L 365.036704 116.756216 
L 365.144959 108.554319 
L 365.253213 79.64522 
L 365.361467 156.347 
L 365.469721 93.503015 
L 365.68623 123.283138 
L 365.794484 130.612681 
L 365.902738 187.715862 
L 366.010993 139.656131 
L 366.335756 177.746644 
L 366.768773 111.291213 
L 366.877027 141.016441 
L 366.985281 130.351398 
L 367.093535 134.155092 
L 367.20179 193.530409 
L 367.418298 141.706563 
L 367.526552 145.203764 
L 367.634807 92.232813 
L 367.743061 121.367114 
L 367.851315 244.838062 
L 367.95957 233.817195 
L 368.176078 86.185485 
L 368.284332 188.439891 
L 368.392587 117.790854 
L 368.500841 152.525982 
L 368.609095 134.732147 
L 368.717349 97.726044 
L 368.933858 239.373596 
L 369.150366 137.02497 
L 369.258621 127.663932 
L 369.475129 169.654639 
L 369.691638 88.162848 
L 369.799892 124.458118 
L 369.908146 115.829982 
L 370.124655 145.195144 
L 370.232909 110.549899 
L 370.341163 152.922225 
L 370.449418 118.523832 
L 370.557672 176.084106 
L 370.882435 105.641428 
L 370.990689 163.596593 
L 371.315452 126.742128 
L 371.423706 130.539585 
L 371.53196 158.433458 
L 371.640215 86.675039 
L 371.856723 138.958644 
L 371.964977 231.068963 
L 372.181486 116.487405 
L 372.28974 123.915122 
L 372.397994 76.285646 
L 372.614503 158.083011 
L 372.722757 151.366542 
L 372.831012 123.962547 
L 373.04752 147.327054 
L 373.155774 138.113412 
L 373.264029 141.989054 
L 373.372283 205.876342 
L 373.480537 101.715399 
L 373.588791 170.156635 
L 373.8053 133.196373 
L 373.913554 140.363004 
L 374.021808 156.889825 
L 374.238317 124.918118 
L 374.346571 139.495447 
L 374.454826 125.616124 
L 374.56308 169.393056 
L 374.671334 154.323548 
L 374.779588 101.310195 
L 374.887843 190.504527 
L 374.996097 182.020424 
L 375.104351 110.021114 
L 375.212605 111.12887 
L 375.32086 171.331164 
L 375.429114 169.443344 
L 375.537368 233.240702 
L 375.753877 95.24233 
L 375.970385 133.419318 
L 376.07864 75.957361 
L 376.186894 103.675493 
L 376.295148 92.653844 
L 376.403402 133.927071 
L 376.511657 101.724801 
L 376.619911 179.777804 
L 376.728165 177.204315 
L 376.836419 115.778544 
L 377.052928 155.321849 
L 377.161182 73.615078 
L 377.269436 218.202505 
L 377.377691 153.454273 
L 377.485945 174.12444 
L 377.702454 106.686187 
L 377.810708 113.745664 
L 378.135471 173.534396 
L 378.243725 102.4698 
L 378.351979 163.101959 
L 378.568488 107.43678 
L 378.676742 151.095852 
L 378.784996 140.714193 
L 378.89325 72.20701 
L 379.109759 149.8104 
L 379.218013 132.053992 
L 379.326268 200.501329 
L 379.434522 105.481189 
L 379.542776 118.219077 
L 379.65103 97.575588 
L 379.759285 251.025621 
L 379.975793 88.657873 
L 380.084047 182.361592 
L 380.40881 68.45046 
L 380.517064 190.208708 
L 380.625319 90.422296 
L 380.841827 188.49538 
L 380.950082 134.965325 
L 381.16659 169.470319 
L 381.274844 215.131453 
L 381.383099 126.901477 
L 381.491353 133.32239 
L 381.599607 132.162408 
L 381.707861 145.390078 
L 381.816116 141.343341 
L 381.92437 119.479252 
L 382.032624 141.141665 
L 382.465641 93.83403 
L 382.573896 99.981394 
L 382.68215 123.106455 
L 382.790404 122.848298 
L 382.898658 78.258384 
L 383.006913 150.033396 
L 383.115167 92.25776 
L 383.223421 166.183004 
L 383.43993 116.970665 
L 383.548184 166.4693 
L 383.656438 96.520048 
L 383.872947 110.17731 
L 384.089455 219.042569 
L 384.305964 102.275225 
L 384.414218 135.121307 
L 384.522472 133.346517 
L 384.630727 188.697735 
L 384.847235 114.834653 
L 384.955489 91.66951 
L 385.171998 174.085549 
L 385.280252 119.58039 
L 385.388506 143.313466 
L 385.605015 103.431649 
L 385.713269 127.355867 
L 385.821524 119.680773 
L 386.146286 183.593346 
L 386.362795 166.39282 
L 386.471049 240.874856 
L 386.579303 117.737953 
L 386.687558 127.804886 
L 386.795812 96.809045 
L 386.904066 108.675819 
L 387.01232 106.256898 
L 387.120575 171.218625 
L 387.228829 125.017096 
L 387.337083 138.184317 
L 387.445338 131.064772 
L 387.553592 180.329886 
L 387.661846 151.637044 
L 387.7701 157.492804 
L 387.878355 107.467338 
L 387.986609 122.634341 
L 388.094863 106.776021 
L 388.203117 174.67634 
L 388.419626 151.661925 
L 388.52788 103.81402 
L 388.636134 127.472018 
L 388.744389 106.704021 
L 388.852643 114.679039 
L 388.960897 159.32701 
L 389.177406 106.778707 
L 389.28566 102.85678 
L 389.393914 169.383949 
L 389.502169 156.972232 
L 389.610423 170.369507 
L 389.718677 133.283868 
L 389.826931 141.463383 
L 389.935186 126.827701 
L 390.04344 185.878391 
L 390.151694 128.425169 
L 390.259948 140.086714 
L 390.368203 114.214495 
L 390.476457 150.920597 
L 390.584711 92.190829 
L 390.909474 156.670925 
L 391.125983 147.440098 
L 391.234237 96.980225 
L 391.342491 210.612595 
L 391.450745 128.819481 
L 391.559 143.575215 
L 391.667254 108.424363 
L 391.992017 163.999561 
L 392.100271 118.01817 
L 392.31678 173.259359 
L 392.425034 137.686526 
L 392.533288 173.996717 
L 392.641542 117.1909 
L 392.749797 161.362795 
L 392.858051 147.95995 
L 392.966305 88.343045 
L 393.074559 159.734567 
L 393.182814 110.053822 
L 393.291068 180.661033 
L 393.399322 92.158799 
L 393.615831 136.764602 
L 393.724085 73.542992 
L 393.832339 169.832769 
L 393.940594 165.560566 
L 394.157102 143.254054 
L 394.265356 105.21704 
L 394.373611 119.129237 
L 394.481865 116.13495 
L 394.590119 157.826341 
L 394.806628 129.353808 
L 394.914882 130.765432 
L 395.13139 123.751249 
L 395.239645 123.885446 
L 395.347899 119.131296 
L 395.456153 90.916128 
L 395.564408 127.035331 
L 395.672662 101.029782 
L 395.780916 168.291903 
L 395.88917 162.052736 
L 395.997425 178.590972 
L 396.322187 95.416394 
L 396.430442 196.055794 
L 396.538696 175.964075 
L 396.755204 105.888299 
L 396.863459 172.171942 
L 397.079967 71.305679 
L 397.188222 121.131396 
L 397.296476 113.464485 
L 397.40473 122.597595 
L 397.512984 142.627006 
L 397.621239 120.364463 
L 397.837747 165.032226 
L 397.946001 117.626081 
L 398.054256 122.324527 
L 398.16251 171.386397 
L 398.270764 104.788076 
L 398.379018 152.995972 
L 398.487273 121.464612 
L 398.487273 121.464612 
" clip-path="url(#pf72f5ad0e3)" style="fill: none; stroke: #1f77b4; stroke-width: 1.5; stroke-linecap: square"/>
   </g>
   <g id="patch_3">
    <path d="M 57.6 307.584 
L 57.6 41.472 
" style="fill: none; stroke: #000000; stroke-width: 0.8; stroke-linejoin: miter; stroke-linecap: square"/>
   </g>
   <g id="patch_4">
    <path d="M 414.72 307.584 
L 414.72 41.472 
" style="fill: none; stroke: #000000; stroke-width: 0.8; stroke-linejoin: miter; stroke-linecap: square"/>
   </g>
   <g id="patch_5">
    <path d="M 57.6 307.584 
L 414.72 307.584 
" style="fill: none; stroke: #000000; stroke-width: 0.8; stroke-linejoin: miter; stroke-linecap: square"/>
   </g>
   <g id="patch_6">
    <path d="M 57.6 41.472 
L 414.72 41.472 
" style="fill: none; stroke: #000000; stroke-width: 0.8; stroke-linejoin: miter; stroke-linecap: square"/>
   </g>
   <g id="text_17">
    <!-- Loss curve, seed=114514 -->
    <g transform="translate(158.21625 35.472) scale(0.12 -0.12)">
     <defs>
      <path id="DejaVuSans-20" transform="scale(0.015625)"/>
      <path id="DejaVuSans-63" d="M 3122 3366 
L 3122 2828 
Q 2878 2963 2633 3030 
Q 2388 3097 2138 3097 
Q 1578 3097 1268 2742 
Q 959 2388 959 1747 
Q 959 1106 1268 751 
Q 1578 397 2138 397 
Q 2388 397 2633 464 
Q 2878 531 3122 666 
L 3122 134 
Q 2881 22 2623 -34 
Q 2366 -91 2075 -91 
Q 1284 -91 818 406 
Q 353 903 353 1747 
Q 353 2603 823 3093 
Q 1294 3584 2113 3584 
Q 2378 3584 2631 3529 
Q 2884 3475 3122 3366 
z
" transform="scale(0.015625)"/>
      <path id="DejaVuSans-75" d="M 544 1381 
L 544 3500 
L 1119 3500 
L 1119 1403 
Q 1119 906 1312 657 
Q 1506 409 1894 409 
Q 2359 409 2629 706 
Q 2900 1003 2900 1516 
L 2900 3500 
L 3475 3500 
L 3475 0 
L 2900 0 
L 2900 538 
Q 2691 219 2414 64 
Q 2138 -91 1772 -91 
Q 1169 -91 856 284 
Q 544 659 544 1381 
z
M 1991 3584 
L 1991 3584 
z
" transform="scale(0.015625)"/>
      <path id="DejaVuSans-72" d="M 2631 2963 
Q 2534 3019 2420 3045 
Q 2306 3072 2169 3072 
Q 1681 3072 1420 2755 
Q 1159 2438 1159 1844 
L 1159 0 
L 581 0 
L 581 3500 
L 1159 3500 
L 1159 2956 
Q 1341 3275 1631 3429 
Q 1922 3584 2338 3584 
Q 2397 3584 2469 3576 
Q 2541 3569 2628 3553 
L 2631 2963 
z
" transform="scale(0.015625)"/>
      <path id="DejaVuSans-76" d="M 191 3500 
L 800 3500 
L 1894 563 
L 2988 3500 
L 3597 3500 
L 2284 0 
L 1503 0 
L 191 3500 
z
" transform="scale(0.015625)"/>
      <path id="DejaVuSans-2c" d="M 750 794 
L 1409 794 
L 1409 256 
L 897 -744 
L 494 -744 
L 750 256 
L 750 794 
z
" transform="scale(0.015625)"/>
      <path id="DejaVuSans-3d" d="M 678 2906 
L 4684 2906 
L 4684 2381 
L 678 2381 
L 678 2906 
z
M 678 1631 
L 4684 1631 
L 4684 1100 
L 678 1100 
L 678 1631 
z
" transform="scale(0.015625)"/>
     </defs>
     <use xlink:href="#DejaVuSans-4c"/>
     <use xlink:href="#DejaVuSans-6f" transform="translate(53.962891 0)"/>
     <use xlink:href="#DejaVuSans-73" transform="translate(115.144531 0)"/>
     <use xlink:href="#DejaVuSans-73" transform="translate(167.244141 0)"/>
     <use xlink:href="#DejaVuSans-20" transform="translate(219.34375 0)"/>
     <use xlink:href="#DejaVuSans-63" transform="translate(251.130859 0)"/>
     <use xlink:href="#DejaVuSans-75" transform="translate(306.111328 0)"/>
     <use xlink:href="#DejaVuSans-72" transform="translate(369.490234 0)"/>
     <use xlink:href="#DejaVuSans-76" transform="translate(410.603516 0)"/>
     <use xlink:href="#DejaVuSans-65" transform="translate(469.783203 0)"/>
     <use xlink:href="#DejaVuSans-2c" transform="translate(531.306641 0)"/>
     <use xlink:href="#DejaVuSans-20" transform="translate(563.09375 0)"/>
     <use xlink:href="#DejaVuSans-73" transform="translate(594.880859 0)"/>
     <use xlink:href="#DejaVuSans-65" transform="translate(646.980469 0)"/>
     <use xlink:href="#DejaVuSans-65" transform="translate(708.503906 0)"/>
     <use xlink:href="#DejaVuSans-64" transform="translate(770.027344 0)"/>
     <use xlink:href="#DejaVuSans-3d" transform="translate(833.503906 0)"/>
     <use xlink:href="#DejaVuSans-31" transform="translate(917.292969 0)"/>
     <use xlink:href="#DejaVuSans-31" transform="translate(980.916016 0)"/>
     <use xlink:href="#DejaVuSans-34" transform="translate(1044.539062 0)"/>
     <use xlink:href="#DejaVuSans-35" transform="translate(1108.162109 0)"/>
     <use xlink:href="#DejaVuSans-31" transform="translate(1171.785156 0)"/>
     <use xlink:href="#DejaVuSans-34" transform="translate(1235.408203 0)"/>
    </g>
   </g>
  </g>
 </g>
 <defs>
  <clipPath id="pf72f5ad0e3">
   <rect x="57.6" y="41.472" width="357.12" height="266.112"/>
  </clipPath>
 </defs>
</svg>
