<?xml version="1.0" encoding="utf-8" standalone="no"?>
<!DOCTYPE svg PUBLIC "-//W3C//DTD SVG 1.1//EN"
  "http://www.w3.org/Graphics/SVG/1.1/DTD/svg11.dtd">
<svg xmlns:xlink="http://www.w3.org/1999/xlink" width="460.8pt" height="345.6pt" viewBox="0 0 460.8 345.6" xmlns="http://www.w3.org/2000/svg" version="1.1">
 <metadata>
  <rdf:RDF xmlns:dc="http://purl.org/dc/elements/1.1/" xmlns:cc="http://creativecommons.org/ns#" xmlns:rdf="http://www.w3.org/1999/02/22-rdf-syntax-ns#">
   <cc:Work>
    <dc:type rdf:resource="http://purl.org/dc/dcmitype/StillImage"/>
    <dc:date>2025-01-04T19:50:36.716037</dc:date>
    <dc:format>image/svg+xml</dc:format>
    <dc:creator>
     <cc:Agent>
      <dc:title>Matplotlib v3.10.0, https://matplotlib.org/</dc:title>
     </cc:Agent>
    </dc:creator>
   </cc:Work>
  </rdf:RDF>
 </metadata>
 <defs>
  <style type="text/css">*{stroke-linejoin: round; stroke-linecap: butt}</style>
 </defs>
 <g id="figure_1">
  <g id="patch_1">
   <path d="M 0 345.6 
L 460.8 345.6 
L 460.8 0 
L 0 0 
z
" style="fill: #ffffff"/>
  </g>
  <g id="axes_1">
   <g id="patch_2">
    <path d="M 57.6 307.584 
L 414.72 307.584 
L 414.72 41.472 
L 57.6 41.472 
z
" style="fill: #ffffff"/>
   </g>
   <g id="matplotlib.axis_1">
    <g id="xtick_1">
     <g id="line2d_1">
      <defs>
       <path id="ma160c7f611" d="M 0 0 
L 0 3.5 
" style="stroke: #000000; stroke-width: 0.8"/>
      </defs>
      <g>
       <use xlink:href="#ma160c7f611" x="73.832727" y="307.584" style="stroke: #000000; stroke-width: 0.8"/>
      </g>
     </g>
     <g id="text_1">
      <!-- 0 -->
      <g transform="translate(70.651477 322.182437) scale(0.1 -0.1)">
       <defs>
        <path id="DejaVuSans-30" d="M 2034 4250 
Q 1547 4250 1301 3770 
Q 1056 3291 1056 2328 
Q 1056 1369 1301 889 
Q 1547 409 2034 409 
Q 2525 409 2770 889 
Q 3016 1369 3016 2328 
Q 3016 3291 2770 3770 
Q 2525 4250 2034 4250 
z
M 2034 4750 
Q 2819 4750 3233 4129 
Q 3647 3509 3647 2328 
Q 3647 1150 3233 529 
Q 2819 -91 2034 -91 
Q 1250 -91 836 529 
Q 422 1150 422 2328 
Q 422 3509 836 4129 
Q 1250 4750 2034 4750 
z
" transform="scale(0.015625)"/>
       </defs>
       <use xlink:href="#DejaVuSans-30"/>
      </g>
     </g>
    </g>
    <g id="xtick_2">
     <g id="line2d_2">
      <g>
       <use xlink:href="#ma160c7f611" x="127.959861" y="307.584" style="stroke: #000000; stroke-width: 0.8"/>
      </g>
     </g>
     <g id="text_2">
      <!-- 500 -->
      <g transform="translate(118.416111 322.182437) scale(0.1 -0.1)">
       <defs>
        <path id="DejaVuSans-35" d="M 691 4666 
L 3169 4666 
L 3169 4134 
L 1269 4134 
L 1269 2991 
Q 1406 3038 1543 3061 
Q 1681 3084 1819 3084 
Q 2600 3084 3056 2656 
Q 3513 2228 3513 1497 
Q 3513 744 3044 326 
Q 2575 -91 1722 -91 
Q 1428 -91 1123 -41 
Q 819 9 494 109 
L 494 744 
Q 775 591 1075 516 
Q 1375 441 1709 441 
Q 2250 441 2565 725 
Q 2881 1009 2881 1497 
Q 2881 1984 2565 2268 
Q 2250 2553 1709 2553 
Q 1456 2553 1204 2497 
Q 953 2441 691 2322 
L 691 4666 
z
" transform="scale(0.015625)"/>
       </defs>
       <use xlink:href="#DejaVuSans-35"/>
       <use xlink:href="#DejaVuSans-30" transform="translate(63.623047 0)"/>
       <use xlink:href="#DejaVuSans-30" transform="translate(127.246094 0)"/>
      </g>
     </g>
    </g>
    <g id="xtick_3">
     <g id="line2d_3">
      <g>
       <use xlink:href="#ma160c7f611" x="182.086994" y="307.584" style="stroke: #000000; stroke-width: 0.8"/>
      </g>
     </g>
     <g id="text_3">
      <!-- 1000 -->
      <g transform="translate(169.361994 322.182437) scale(0.1 -0.1)">
       <defs>
        <path id="DejaVuSans-31" d="M 794 531 
L 1825 531 
L 1825 4091 
L 703 3866 
L 703 4441 
L 1819 4666 
L 2450 4666 
L 2450 531 
L 3481 531 
L 3481 0 
L 794 0 
L 794 531 
z
" transform="scale(0.015625)"/>
       </defs>
       <use xlink:href="#DejaVuSans-31"/>
       <use xlink:href="#DejaVuSans-30" transform="translate(63.623047 0)"/>
       <use xlink:href="#DejaVuSans-30" transform="translate(127.246094 0)"/>
       <use xlink:href="#DejaVuSans-30" transform="translate(190.869141 0)"/>
      </g>
     </g>
    </g>
    <g id="xtick_4">
     <g id="line2d_4">
      <g>
       <use xlink:href="#ma160c7f611" x="236.214127" y="307.584" style="stroke: #000000; stroke-width: 0.8"/>
      </g>
     </g>
     <g id="text_4">
      <!-- 1500 -->
      <g transform="translate(223.489127 322.182437) scale(0.1 -0.1)">
       <use xlink:href="#DejaVuSans-31"/>
       <use xlink:href="#DejaVuSans-35" transform="translate(63.623047 0)"/>
       <use xlink:href="#DejaVuSans-30" transform="translate(127.246094 0)"/>
       <use xlink:href="#DejaVuSans-30" transform="translate(190.869141 0)"/>
      </g>
     </g>
    </g>
    <g id="xtick_5">
     <g id="line2d_5">
      <g>
       <use xlink:href="#ma160c7f611" x="290.34126" y="307.584" style="stroke: #000000; stroke-width: 0.8"/>
      </g>
     </g>
     <g id="text_5">
      <!-- 2000 -->
      <g transform="translate(277.61626 322.182437) scale(0.1 -0.1)">
       <defs>
        <path id="DejaVuSans-32" d="M 1228 531 
L 3431 531 
L 3431 0 
L 469 0 
L 469 531 
Q 828 903 1448 1529 
Q 2069 2156 2228 2338 
Q 2531 2678 2651 2914 
Q 2772 3150 2772 3378 
Q 2772 3750 2511 3984 
Q 2250 4219 1831 4219 
Q 1534 4219 1204 4116 
Q 875 4013 500 3803 
L 500 4441 
Q 881 4594 1212 4672 
Q 1544 4750 1819 4750 
Q 2544 4750 2975 4387 
Q 3406 4025 3406 3419 
Q 3406 3131 3298 2873 
Q 3191 2616 2906 2266 
Q 2828 2175 2409 1742 
Q 1991 1309 1228 531 
z
" transform="scale(0.015625)"/>
       </defs>
       <use xlink:href="#DejaVuSans-32"/>
       <use xlink:href="#DejaVuSans-30" transform="translate(63.623047 0)"/>
       <use xlink:href="#DejaVuSans-30" transform="translate(127.246094 0)"/>
       <use xlink:href="#DejaVuSans-30" transform="translate(190.869141 0)"/>
      </g>
     </g>
    </g>
    <g id="xtick_6">
     <g id="line2d_6">
      <g>
       <use xlink:href="#ma160c7f611" x="344.468394" y="307.584" style="stroke: #000000; stroke-width: 0.8"/>
      </g>
     </g>
     <g id="text_6">
      <!-- 2500 -->
      <g transform="translate(331.743394 322.182437) scale(0.1 -0.1)">
       <use xlink:href="#DejaVuSans-32"/>
       <use xlink:href="#DejaVuSans-35" transform="translate(63.623047 0)"/>
       <use xlink:href="#DejaVuSans-30" transform="translate(127.246094 0)"/>
       <use xlink:href="#DejaVuSans-30" transform="translate(190.869141 0)"/>
      </g>
     </g>
    </g>
    <g id="xtick_7">
     <g id="line2d_7">
      <g>
       <use xlink:href="#ma160c7f611" x="398.595527" y="307.584" style="stroke: #000000; stroke-width: 0.8"/>
      </g>
     </g>
     <g id="text_7">
      <!-- 3000 -->
      <g transform="translate(385.870527 322.182437) scale(0.1 -0.1)">
       <defs>
        <path id="DejaVuSans-33" d="M 2597 2516 
Q 3050 2419 3304 2112 
Q 3559 1806 3559 1356 
Q 3559 666 3084 287 
Q 2609 -91 1734 -91 
Q 1441 -91 1130 -33 
Q 819 25 488 141 
L 488 750 
Q 750 597 1062 519 
Q 1375 441 1716 441 
Q 2309 441 2620 675 
Q 2931 909 2931 1356 
Q 2931 1769 2642 2001 
Q 2353 2234 1838 2234 
L 1294 2234 
L 1294 2753 
L 1863 2753 
Q 2328 2753 2575 2939 
Q 2822 3125 2822 3475 
Q 2822 3834 2567 4026 
Q 2313 4219 1838 4219 
Q 1578 4219 1281 4162 
Q 984 4106 628 3988 
L 628 4550 
Q 988 4650 1302 4700 
Q 1616 4750 1894 4750 
Q 2613 4750 3031 4423 
Q 3450 4097 3450 3541 
Q 3450 3153 3228 2886 
Q 3006 2619 2597 2516 
z
" transform="scale(0.015625)"/>
       </defs>
       <use xlink:href="#DejaVuSans-33"/>
       <use xlink:href="#DejaVuSans-30" transform="translate(63.623047 0)"/>
       <use xlink:href="#DejaVuSans-30" transform="translate(127.246094 0)"/>
       <use xlink:href="#DejaVuSans-30" transform="translate(190.869141 0)"/>
      </g>
     </g>
    </g>
    <g id="text_8">
     <!-- Episode -->
     <g transform="translate(216.5225 335.860562) scale(0.1 -0.1)">
      <defs>
       <path id="DejaVuSans-45" d="M 628 4666 
L 3578 4666 
L 3578 4134 
L 1259 4134 
L 1259 2753 
L 3481 2753 
L 3481 2222 
L 1259 2222 
L 1259 531 
L 3634 531 
L 3634 0 
L 628 0 
L 628 4666 
z
" transform="scale(0.015625)"/>
       <path id="DejaVuSans-70" d="M 1159 525 
L 1159 -1331 
L 581 -1331 
L 581 3500 
L 1159 3500 
L 1159 2969 
Q 1341 3281 1617 3432 
Q 1894 3584 2278 3584 
Q 2916 3584 3314 3078 
Q 3713 2572 3713 1747 
Q 3713 922 3314 415 
Q 2916 -91 2278 -91 
Q 1894 -91 1617 61 
Q 1341 213 1159 525 
z
M 3116 1747 
Q 3116 2381 2855 2742 
Q 2594 3103 2138 3103 
Q 1681 3103 1420 2742 
Q 1159 2381 1159 1747 
Q 1159 1113 1420 752 
Q 1681 391 2138 391 
Q 2594 391 2855 752 
Q 3116 1113 3116 1747 
z
" transform="scale(0.015625)"/>
       <path id="DejaVuSans-69" d="M 603 3500 
L 1178 3500 
L 1178 0 
L 603 0 
L 603 3500 
z
M 603 4863 
L 1178 4863 
L 1178 4134 
L 603 4134 
L 603 4863 
z
" transform="scale(0.015625)"/>
       <path id="DejaVuSans-73" d="M 2834 3397 
L 2834 2853 
Q 2591 2978 2328 3040 
Q 2066 3103 1784 3103 
Q 1356 3103 1142 2972 
Q 928 2841 928 2578 
Q 928 2378 1081 2264 
Q 1234 2150 1697 2047 
L 1894 2003 
Q 2506 1872 2764 1633 
Q 3022 1394 3022 966 
Q 3022 478 2636 193 
Q 2250 -91 1575 -91 
Q 1294 -91 989 -36 
Q 684 19 347 128 
L 347 722 
Q 666 556 975 473 
Q 1284 391 1588 391 
Q 1994 391 2212 530 
Q 2431 669 2431 922 
Q 2431 1156 2273 1281 
Q 2116 1406 1581 1522 
L 1381 1569 
Q 847 1681 609 1914 
Q 372 2147 372 2553 
Q 372 3047 722 3315 
Q 1072 3584 1716 3584 
Q 2034 3584 2315 3537 
Q 2597 3491 2834 3397 
z
" transform="scale(0.015625)"/>
       <path id="DejaVuSans-6f" d="M 1959 3097 
Q 1497 3097 1228 2736 
Q 959 2375 959 1747 
Q 959 1119 1226 758 
Q 1494 397 1959 397 
Q 2419 397 2687 759 
Q 2956 1122 2956 1747 
Q 2956 2369 2687 2733 
Q 2419 3097 1959 3097 
z
M 1959 3584 
Q 2709 3584 3137 3096 
Q 3566 2609 3566 1747 
Q 3566 888 3137 398 
Q 2709 -91 1959 -91 
Q 1206 -91 779 398 
Q 353 888 353 1747 
Q 353 2609 779 3096 
Q 1206 3584 1959 3584 
z
" transform="scale(0.015625)"/>
       <path id="DejaVuSans-64" d="M 2906 2969 
L 2906 4863 
L 3481 4863 
L 3481 0 
L 2906 0 
L 2906 525 
Q 2725 213 2448 61 
Q 2172 -91 1784 -91 
Q 1150 -91 751 415 
Q 353 922 353 1747 
Q 353 2572 751 3078 
Q 1150 3584 1784 3584 
Q 2172 3584 2448 3432 
Q 2725 3281 2906 2969 
z
M 947 1747 
Q 947 1113 1208 752 
Q 1469 391 1925 391 
Q 2381 391 2643 752 
Q 2906 1113 2906 1747 
Q 2906 2381 2643 2742 
Q 2381 3103 1925 3103 
Q 1469 3103 1208 2742 
Q 947 2381 947 1747 
z
" transform="scale(0.015625)"/>
       <path id="DejaVuSans-65" d="M 3597 1894 
L 3597 1613 
L 953 1613 
Q 991 1019 1311 708 
Q 1631 397 2203 397 
Q 2534 397 2845 478 
Q 3156 559 3463 722 
L 3463 178 
Q 3153 47 2828 -22 
Q 2503 -91 2169 -91 
Q 1331 -91 842 396 
Q 353 884 353 1716 
Q 353 2575 817 3079 
Q 1281 3584 2069 3584 
Q 2775 3584 3186 3129 
Q 3597 2675 3597 1894 
z
M 3022 2063 
Q 3016 2534 2758 2815 
Q 2500 3097 2075 3097 
Q 1594 3097 1305 2825 
Q 1016 2553 972 2059 
L 3022 2063 
z
" transform="scale(0.015625)"/>
      </defs>
      <use xlink:href="#DejaVuSans-45"/>
      <use xlink:href="#DejaVuSans-70" transform="translate(63.183594 0)"/>
      <use xlink:href="#DejaVuSans-69" transform="translate(126.660156 0)"/>
      <use xlink:href="#DejaVuSans-73" transform="translate(154.443359 0)"/>
      <use xlink:href="#DejaVuSans-6f" transform="translate(206.542969 0)"/>
      <use xlink:href="#DejaVuSans-64" transform="translate(267.724609 0)"/>
      <use xlink:href="#DejaVuSans-65" transform="translate(331.201172 0)"/>
     </g>
    </g>
   </g>
   <g id="matplotlib.axis_2">
    <g id="ytick_1">
     <g id="line2d_8">
      <defs>
       <path id="m7ee6837cdc" d="M 0 0 
L -3.5 0 
" style="stroke: #000000; stroke-width: 0.8"/>
      </defs>
      <g>
       <use xlink:href="#m7ee6837cdc" x="57.6" y="304.919391" style="stroke: #000000; stroke-width: 0.8"/>
      </g>
     </g>
     <g id="text_9">
      <!-- −50 -->
      <g transform="translate(29.495313 308.71861) scale(0.1 -0.1)">
       <defs>
        <path id="DejaVuSans-2212" d="M 678 2272 
L 4684 2272 
L 4684 1741 
L 678 1741 
L 678 2272 
z
" transform="scale(0.015625)"/>
       </defs>
       <use xlink:href="#DejaVuSans-2212"/>
       <use xlink:href="#DejaVuSans-35" transform="translate(83.789062 0)"/>
       <use xlink:href="#DejaVuSans-30" transform="translate(147.412109 0)"/>
      </g>
     </g>
    </g>
    <g id="ytick_2">
     <g id="line2d_9">
      <g>
       <use xlink:href="#m7ee6837cdc" x="57.6" y="271.542464" style="stroke: #000000; stroke-width: 0.8"/>
      </g>
     </g>
     <g id="text_10">
      <!-- −40 -->
      <g transform="translate(29.495313 275.341683) scale(0.1 -0.1)">
       <defs>
        <path id="DejaVuSans-34" d="M 2419 4116 
L 825 1625 
L 2419 1625 
L 2419 4116 
z
M 2253 4666 
L 3047 4666 
L 3047 1625 
L 3713 1625 
L 3713 1100 
L 3047 1100 
L 3047 0 
L 2419 0 
L 2419 1100 
L 313 1100 
L 313 1709 
L 2253 4666 
z
" transform="scale(0.015625)"/>
       </defs>
       <use xlink:href="#DejaVuSans-2212"/>
       <use xlink:href="#DejaVuSans-34" transform="translate(83.789062 0)"/>
       <use xlink:href="#DejaVuSans-30" transform="translate(147.412109 0)"/>
      </g>
     </g>
    </g>
    <g id="ytick_3">
     <g id="line2d_10">
      <g>
       <use xlink:href="#m7ee6837cdc" x="57.6" y="238.165537" style="stroke: #000000; stroke-width: 0.8"/>
      </g>
     </g>
     <g id="text_11">
      <!-- −30 -->
      <g transform="translate(29.495313 241.964756) scale(0.1 -0.1)">
       <use xlink:href="#DejaVuSans-2212"/>
       <use xlink:href="#DejaVuSans-33" transform="translate(83.789062 0)"/>
       <use xlink:href="#DejaVuSans-30" transform="translate(147.412109 0)"/>
      </g>
     </g>
    </g>
    <g id="ytick_4">
     <g id="line2d_11">
      <g>
       <use xlink:href="#m7ee6837cdc" x="57.6" y="204.78861" style="stroke: #000000; stroke-width: 0.8"/>
      </g>
     </g>
     <g id="text_12">
      <!-- −20 -->
      <g transform="translate(29.495313 208.587829) scale(0.1 -0.1)">
       <use xlink:href="#DejaVuSans-2212"/>
       <use xlink:href="#DejaVuSans-32" transform="translate(83.789062 0)"/>
       <use xlink:href="#DejaVuSans-30" transform="translate(147.412109 0)"/>
      </g>
     </g>
    </g>
    <g id="ytick_5">
     <g id="line2d_12">
      <g>
       <use xlink:href="#m7ee6837cdc" x="57.6" y="171.411684" style="stroke: #000000; stroke-width: 0.8"/>
      </g>
     </g>
     <g id="text_13">
      <!-- −10 -->
      <g transform="translate(29.495313 175.210902) scale(0.1 -0.1)">
       <use xlink:href="#DejaVuSans-2212"/>
       <use xlink:href="#DejaVuSans-31" transform="translate(83.789062 0)"/>
       <use xlink:href="#DejaVuSans-30" transform="translate(147.412109 0)"/>
      </g>
     </g>
    </g>
    <g id="ytick_6">
     <g id="line2d_13">
      <g>
       <use xlink:href="#m7ee6837cdc" x="57.6" y="138.034757" style="stroke: #000000; stroke-width: 0.8"/>
      </g>
     </g>
     <g id="text_14">
      <!-- 0 -->
      <g transform="translate(44.2375 141.833976) scale(0.1 -0.1)">
       <use xlink:href="#DejaVuSans-30"/>
      </g>
     </g>
    </g>
    <g id="ytick_7">
     <g id="line2d_14">
      <g>
       <use xlink:href="#m7ee6837cdc" x="57.6" y="104.65783" style="stroke: #000000; stroke-width: 0.8"/>
      </g>
     </g>
     <g id="text_15">
      <!-- 10 -->
      <g transform="translate(37.875 108.457049) scale(0.1 -0.1)">
       <use xlink:href="#DejaVuSans-31"/>
       <use xlink:href="#DejaVuSans-30" transform="translate(63.623047 0)"/>
      </g>
     </g>
    </g>
    <g id="ytick_8">
     <g id="line2d_15">
      <g>
       <use xlink:href="#m7ee6837cdc" x="57.6" y="71.280903" style="stroke: #000000; stroke-width: 0.8"/>
      </g>
     </g>
     <g id="text_16">
      <!-- 20 -->
      <g transform="translate(37.875 75.080122) scale(0.1 -0.1)">
       <use xlink:href="#DejaVuSans-32"/>
       <use xlink:href="#DejaVuSans-30" transform="translate(63.623047 0)"/>
      </g>
     </g>
    </g>
    <g id="text_17">
     <!-- Loss -->
     <g transform="translate(23.415625 185.495187) rotate(-90) scale(0.1 -0.1)">
      <defs>
       <path id="DejaVuSans-4c" d="M 628 4666 
L 1259 4666 
L 1259 531 
L 3531 531 
L 3531 0 
L 628 0 
L 628 4666 
z
" transform="scale(0.015625)"/>
      </defs>
      <use xlink:href="#DejaVuSans-4c"/>
      <use xlink:href="#DejaVuSans-6f" transform="translate(53.962891 0)"/>
      <use xlink:href="#DejaVuSans-73" transform="translate(115.144531 0)"/>
      <use xlink:href="#DejaVuSans-73" transform="translate(167.244141 0)"/>
     </g>
    </g>
   </g>
   <g id="line2d_16">
    <path d="M 73.832727 137.016699 
L 73.940982 137.21099 
L 74.049236 129.970692 
L 74.265744 138.116141 
L 74.373999 139.429727 
L 74.482253 138.188179 
L 74.590507 140.356765 
L 74.807016 137.86601 
L 74.91527 140.358877 
L 75.023524 136.29379 
L 75.240033 138.370222 
L 75.348287 133.988624 
L 75.67305 142.309284 
L 75.781304 136.579647 
L 75.889558 138.67659 
L 75.997813 137.740768 
L 76.106067 138.691706 
L 76.322575 136.901247 
L 76.43083 136.485231 
L 76.539084 138.895131 
L 76.647338 138.008261 
L 76.755592 138.945652 
L 76.863847 136.707996 
L 76.972101 144.075107 
L 77.18861 136.416999 
L 77.296864 137.327042 
L 77.405118 132.332477 
L 77.513372 141.704533 
L 77.621627 138.20585 
L 77.729881 147.468056 
L 77.838135 144.85678 
L 77.946389 136.843161 
L 78.054644 140.602186 
L 78.162898 139.481122 
L 78.271152 142.556431 
L 78.487661 135.183365 
L 78.595915 135.409231 
L 78.812424 142.179228 
L 78.920678 134.734208 
L 79.028932 138.613904 
L 79.137186 133.286417 
L 79.245441 143.058553 
L 79.461949 136.949183 
L 79.570203 138.620313 
L 79.678458 142.229697 
L 79.894966 134.943173 
L 80.00322 136.180334 
L 80.111475 134.814738 
L 80.219729 146.749183 
L 80.327983 135.3308 
L 80.436238 142.165785 
L 80.652746 135.110754 
L 80.761 149.250848 
L 80.869255 145.377667 
L 80.977509 145.884409 
L 81.085763 135.018738 
L 81.194017 155.035838 
L 81.302272 153.854998 
L 81.410526 138.248841 
L 81.51878 146.671226 
L 81.735289 134.062405 
L 81.843543 144.039493 
L 81.951797 138.787615 
L 82.168306 152.336227 
L 82.27656 139.342316 
L 82.384814 140.812628 
L 82.493069 134.539509 
L 82.601323 152.036502 
L 82.817831 134.672335 
L 82.926086 133.947005 
L 83.03434 137.71128 
L 83.250848 130.516929 
L 83.359103 139.05753 
L 83.467357 136.471212 
L 83.575611 150.248545 
L 83.683866 136.389342 
L 83.900374 162.405669 
L 84.008628 159.299947 
L 84.116883 140.782903 
L 84.225137 153.122356 
L 84.441645 135.314684 
L 84.5499 133.40666 
L 84.658154 145.681076 
L 84.874662 126.248421 
L 84.982917 152.767476 
L 85.091171 138.967514 
L 85.199425 145.036539 
L 85.30768 140.901895 
L 85.415934 132.325411 
L 85.524188 137.559301 
L 85.632442 165.131161 
L 85.848951 148.470219 
L 85.957205 142.250696 
L 86.065459 124.343954 
L 86.281968 165.724301 
L 86.606731 101.531376 
L 86.823239 156.045716 
L 86.931494 153.941025 
L 87.039748 130.951696 
L 87.148002 142.14808 
L 87.256256 121.304598 
L 87.364511 141.965592 
L 87.472765 137.641389 
L 87.581019 137.790552 
L 87.689273 136.250197 
L 87.797528 186.653559 
L 87.905782 141.48185 
L 88.12229 169.97326 
L 88.338799 108.461664 
L 88.447053 134.523859 
L 88.555308 119.095722 
L 88.663562 128.313597 
L 88.88007 150.911364 
L 88.988325 131.575913 
L 89.204833 140.613497 
L 89.421342 181.788218 
L 89.746104 126.461211 
L 89.854359 133.307953 
L 89.962613 128.804066 
L 90.179122 141.17523 
L 90.287376 133.185314 
L 90.39563 135.401645 
L 90.503884 181.961762 
L 90.720393 126.590556 
L 90.828647 137.129806 
L 91.045156 132.015381 
L 91.15341 137.661051 
L 91.261664 127.988285 
L 91.369918 131.288174 
L 91.478173 150.879624 
L 91.586427 127.663809 
L 91.694681 130.730424 
L 91.91119 149.35409 
L 92.019444 147.901119 
L 92.127698 138.972155 
L 92.235953 165.637945 
L 92.344207 117.204964 
L 92.452461 147.16005 
L 92.560715 142.336507 
L 92.66897 152.840366 
L 92.885478 137.436659 
L 92.993732 152.16813 
L 93.101987 129.353508 
L 93.318495 152.320687 
L 93.42675 147.308571 
L 93.535004 135.412567 
L 93.643258 137.202532 
L 93.859767 167.226896 
L 94.076275 134.072775 
L 94.184529 136.534927 
L 94.292784 128.552829 
L 94.401038 154.181412 
L 94.509292 147.423725 
L 94.617546 163.645542 
L 94.725801 133.144057 
L 94.942309 157.470549 
L 95.158818 133.293277 
L 95.267072 147.425121 
L 95.483581 124.470442 
L 95.591835 143.853828 
L 95.700089 133.128575 
L 95.808343 145.419212 
L 95.916598 137.385751 
L 96.024852 174.577484 
L 96.24136 138.143293 
L 96.349615 135.904433 
L 96.457869 148.926891 
L 96.566123 134.220328 
L 96.674378 166.931672 
L 96.782632 139.041578 
L 96.890886 165.784436 
L 96.99914 129.713272 
L 97.107395 141.305856 
L 97.215649 130.105224 
L 97.323903 138.674358 
L 97.540412 127.779804 
L 97.648666 151.2028 
L 97.865174 136.739479 
L 98.081683 123.648982 
L 98.189937 148.171984 
L 98.298192 148.16043 
L 98.406446 139.633731 
L 98.5147 173.100169 
L 98.622954 125.293784 
L 98.731209 137.032191 
L 98.839463 177.370394 
L 99.164226 130.7247 
L 99.380734 126.375431 
L 99.488988 114.563441 
L 99.922006 157.668369 
L 100.03026 125.353467 
L 100.246768 175.00626 
L 100.355023 179.455166 
L 100.571531 146.818755 
L 100.679785 156.627167 
L 100.78804 156.459863 
L 100.896294 148.461108 
L 101.004548 116.644478 
L 101.112802 156.928436 
L 101.329311 139.79362 
L 101.437565 134.861763 
L 101.654074 141.734935 
L 101.762328 130.588325 
L 101.870582 150.247473 
L 101.978837 118.629561 
L 102.195345 161.723024 
L 102.303599 152.18854 
L 102.411854 161.721578 
L 102.520108 127.121331 
L 102.628362 227.424974 
L 102.736616 129.734919 
L 102.953125 178.638097 
L 103.061379 169.594022 
L 103.277888 118.162203 
L 103.386142 137.605806 
L 103.494396 134.141683 
L 103.602651 135.610461 
L 103.710905 171.368461 
L 103.819159 127.690233 
L 103.927413 142.445757 
L 104.035668 126.909975 
L 104.143922 159.092785 
L 104.252176 127.270878 
L 104.36043 162.598347 
L 104.468685 135.963696 
L 104.576939 161.437644 
L 104.793448 104.900094 
L 104.901702 175.085833 
L 105.009956 157.563405 
L 105.11821 222.950741 
L 105.334719 136.924251 
L 105.442973 133.29144 
L 105.551227 143.168048 
L 105.659482 138.458643 
L 105.767736 116.092455 
L 105.984244 136.046968 
L 106.092499 131.174928 
L 106.200753 162.72874 
L 106.309007 138.609695 
L 106.417262 166.743496 
L 106.63377 120.168818 
L 106.742024 124.076586 
L 106.958533 117.959332 
L 107.066787 179.485348 
L 107.175041 114.95388 
L 107.39155 161.438098 
L 107.608058 118.342473 
L 107.824567 159.155328 
L 107.932821 162.725326 
L 108.14933 124.567748 
L 108.257584 117.196871 
L 108.365838 163.88066 
L 108.474093 146.549187 
L 108.582347 169.765272 
L 108.798855 95.137281 
L 108.90711 100.542411 
L 109.015364 191.886576 
L 109.123618 118.55748 
L 109.231872 152.843876 
L 109.340127 148.050856 
L 109.448381 118.829437 
L 109.556635 131.890892 
L 109.66489 126.373685 
L 109.773144 151.409883 
L 109.881398 120.978259 
L 109.989652 159.31211 
L 110.097907 132.317635 
L 110.206161 186.618446 
L 110.314415 133.823806 
L 110.422669 149.920705 
L 110.530924 120.367976 
L 110.639178 126.666316 
L 110.747432 117.589915 
L 110.855686 162.849758 
L 110.963941 125.664638 
L 111.072195 129.790618 
L 111.180449 152.568023 
L 111.288704 115.76387 
L 111.505212 162.719747 
L 111.613466 155.196473 
L 111.721721 134.716373 
L 111.829975 136.838205 
L 111.938229 129.677514 
L 112.046483 161.086216 
L 112.154738 156.240054 
L 112.262992 129.229138 
L 112.371246 162.913843 
L 112.587755 131.586674 
L 112.696009 140.590081 
L 112.912518 132.632457 
L 113.020772 142.630499 
L 113.23728 134.809882 
L 113.345535 172.947675 
L 113.453789 137.027646 
L 113.562043 137.182465 
L 113.670297 141.179095 
L 113.778552 149.953222 
L 114.103314 116.952804 
L 114.211569 152.295872 
L 114.319823 120.592227 
L 114.428077 155.583627 
L 114.75284 131.58634 
L 114.861094 134.053013 
L 114.969349 147.512958 
L 115.077603 128.847086 
L 115.294111 157.494729 
L 115.51062 129.999815 
L 115.618874 203.221056 
L 115.727128 138.905403 
L 115.835383 175.809387 
L 116.051891 122.374293 
L 116.160146 150.698912 
L 116.376654 140.967178 
L 116.484908 120.064846 
L 116.593163 127.143081 
L 116.701417 173.039109 
L 116.809671 123.142908 
L 117.02618 154.962199 
L 117.242688 104.375523 
L 117.459197 148.010602 
L 117.567451 118.467242 
L 117.675705 118.968832 
L 117.78396 124.369392 
L 117.892214 114.413923 
L 118.000468 145.813633 
L 118.216977 126.672102 
L 118.325231 121.400422 
L 118.541739 147.992316 
L 118.649994 195.045718 
L 118.758248 137.02082 
L 118.866502 146.055888 
L 118.974756 118.106479 
L 119.191265 132.206924 
L 119.299519 175.713522 
L 119.516028 125.697377 
L 119.624282 263.610529 
L 119.840791 150.80551 
L 119.949045 144.893782 
L 120.057299 180.722328 
L 120.165553 171.572063 
L 120.273808 120.668907 
L 120.382062 141.502741 
L 120.490316 138.831916 
L 120.59857 133.043328 
L 120.706825 151.929269 
L 120.815079 122.040474 
L 120.923333 134.649667 
L 121.031587 160.953657 
L 121.139842 141.412987 
L 121.248096 144.06614 
L 121.35635 142.623726 
L 121.464605 215.840045 
L 121.572859 121.832105 
L 121.681113 162.401935 
L 121.897622 136.770161 
L 122.005876 149.798659 
L 122.11413 136.283329 
L 122.330639 161.599831 
L 122.547147 121.663335 
L 122.655401 128.235951 
L 122.763656 157.525781 
L 122.87191 120.952621 
L 122.980164 143.828683 
L 123.088419 128.504852 
L 123.304927 142.269503 
L 123.413181 140.099246 
L 123.62969 130.935725 
L 123.737944 147.193718 
L 123.846198 127.311488 
L 123.954453 161.454265 
L 124.170961 114.913398 
L 124.279215 172.49897 
L 124.38747 131.208713 
L 124.495724 161.050206 
L 124.820487 125.505668 
L 124.928741 155.638961 
L 125.036995 122.910117 
L 125.253504 171.19901 
L 125.361758 119.665609 
L 125.470012 132.214588 
L 125.578267 126.755173 
L 125.686521 114.851149 
L 125.794775 155.16696 
L 125.903029 112.671964 
L 126.119538 125.621746 
L 126.227792 157.554755 
L 126.336047 118.499206 
L 126.444301 193.823654 
L 126.552555 121.569791 
L 126.769064 147.621677 
L 126.877318 139.419612 
L 126.985572 117.104125 
L 127.093826 134.421577 
L 127.202081 129.295256 
L 127.310335 137.456756 
L 127.418589 113.87775 
L 127.526843 268.211061 
L 127.743352 130.675441 
L 127.851606 138.993835 
L 127.959861 183.174035 
L 128.068115 96.213838 
L 128.284623 138.986181 
L 128.392878 135.248938 
L 128.501132 140.957037 
L 128.609386 136.379275 
L 128.825895 165.780499 
L 128.934149 158.01861 
L 129.150657 106.401307 
L 129.367166 124.541798 
L 129.47542 115.367745 
L 129.691929 149.786279 
L 129.800183 152.838655 
L 129.908437 133.986549 
L 130.016692 175.274093 
L 130.124946 118.048564 
L 130.2332 172.258537 
L 130.341454 155.088439 
L 130.449709 120.279554 
L 130.557963 138.806477 
L 130.666217 176.399035 
L 130.774471 124.35216 
L 130.99098 171.897328 
L 131.099234 187.258661 
L 131.315743 165.878906 
L 131.423997 114.082689 
L 131.532251 122.538922 
L 131.640506 184.177212 
L 131.74876 117.28855 
L 131.857014 161.175927 
L 131.965268 139.480397 
L 132.181777 200.482003 
L 132.398285 134.734173 
L 132.50654 167.449151 
L 132.614794 109.140566 
L 132.831303 143.583597 
L 132.939557 143.050711 
L 133.047811 109.262481 
L 133.156065 133.480103 
L 133.26432 257.192005 
L 133.480828 135.817821 
L 133.589082 114.693215 
L 133.697337 122.741341 
L 133.805591 154.491257 
L 133.913845 122.125923 
L 134.022099 179.376993 
L 134.238608 114.579524 
L 134.346862 123.939789 
L 134.455117 113.971083 
L 134.671625 186.956269 
L 134.888134 138.557694 
L 134.996388 119.947547 
L 135.104642 172.868958 
L 135.212896 124.201079 
L 135.321151 163.315103 
L 135.429405 104.28266 
L 135.537659 180.757007 
L 135.754168 122.718831 
L 135.862422 120.588316 
L 135.970676 150.067546 
L 136.078931 131.136562 
L 136.187185 147.869214 
L 136.295439 203.382781 
L 136.403693 184.908392 
L 136.511948 134.071973 
L 136.83671 150.805923 
L 137.161473 105.753513 
L 137.269727 143.606267 
L 137.486236 96.773151 
L 137.702745 112.614262 
L 137.810999 138.739484 
L 137.919253 121.175531 
L 138.027507 189.559652 
L 138.135762 115.721102 
L 138.244016 151.282534 
L 138.35227 143.00877 
L 138.460524 173.866844 
L 138.568779 122.83865 
L 138.677033 174.26588 
L 138.893541 126.633705 
L 139.001796 107.415487 
L 139.11005 152.9551 
L 139.218304 124.302925 
L 139.434813 153.52564 
L 139.543067 108.976093 
L 139.651321 117.115063 
L 139.759576 172.443387 
L 139.976084 119.921374 
L 140.084338 113.095813 
L 140.300847 164.888799 
L 140.409101 136.28395 
L 140.517355 203.294165 
L 140.62561 116.393819 
L 140.733864 164.76218 
L 140.950373 116.087143 
L 141.166881 102.096527 
L 141.275135 97.641722 
L 141.38339 132.152735 
L 141.599898 111.705224 
L 141.708152 111.259308 
L 141.816407 188.617205 
L 141.924661 162.614894 
L 142.141169 190.483841 
L 142.357678 98.461564 
L 142.790695 165.192356 
L 143.007204 110.801996 
L 143.115458 113.880924 
L 143.223712 126.122855 
L 143.331966 178.51143 
L 143.440221 125.750064 
L 143.548475 134.702941 
L 143.656729 126.25197 
L 143.764983 137.663951 
L 143.873238 125.083645 
L 143.981492 145.30346 
L 144.089746 126.456594 
L 144.306255 151.678369 
L 144.522763 127.828267 
L 144.739272 171.240301 
L 144.847526 109.516846 
L 145.064035 167.618296 
L 145.172289 162.520627 
L 145.280543 256.058577 
L 145.497052 108.022808 
L 145.605306 97.800895 
L 145.71356 143.685511 
L 145.821815 116.00316 
L 146.038323 213.606891 
L 146.146577 133.712782 
L 146.254832 160.879047 
L 146.363086 120.348719 
L 146.47134 160.085733 
L 146.579594 139.78656 
L 146.796103 151.463616 
L 146.904357 128.595912 
L 147.120866 147.797034 
L 147.445629 109.81192 
L 147.553883 136.530023 
L 147.770391 113.226618 
L 147.878646 171.806053 
L 147.9869 164.1745 
L 148.203408 121.106923 
L 148.311663 128.089146 
L 148.419917 126.797746 
L 148.528171 185.80279 
L 148.636425 138.347318 
L 148.74468 164.114683 
L 148.852934 87.506064 
L 148.961188 119.010652 
L 149.069443 118.819466 
L 149.177697 121.639566 
L 149.285951 127.998116 
L 149.394205 127.929359 
L 149.610714 121.303023 
L 149.718968 188.559152 
L 149.827222 132.935566 
L 149.935477 150.227844 
L 150.043731 93.332779 
L 150.260239 161.774959 
L 150.368494 94.940061 
L 150.476748 175.926744 
L 150.693257 128.857421 
L 150.801511 143.677328 
L 150.909765 140.893833 
L 151.018019 205.328383 
L 151.126274 131.497849 
L 151.234528 164.496263 
L 151.342782 102.833182 
L 151.451036 126.32442 
L 151.559291 241.284998 
L 151.667545 172.002245 
L 151.775799 182.325039 
L 151.884053 97.044674 
L 151.992308 161.722127 
L 152.100562 147.381595 
L 152.208816 85.443746 
L 152.317071 175.718014 
L 152.641833 114.616196 
L 152.750088 133.611832 
L 152.858342 124.797815 
L 152.966596 144.261428 
L 153.07485 203.623612 
L 153.183105 138.728147 
L 153.291359 160.544234 
L 153.399613 153.963111 
L 153.507867 121.087443 
L 153.616122 144.864324 
L 153.940885 113.947346 
L 154.049139 150.671337 
L 154.157393 129.897842 
L 154.265647 160.174048 
L 154.482156 109.940551 
L 154.59041 116.228033 
L 154.698664 108.249946 
L 154.806919 117.437981 
L 154.915173 98.452794 
L 155.023427 157.726413 
L 155.239936 108.970816 
L 155.564699 145.40106 
L 155.672953 118.100429 
L 155.781207 126.229875 
L 155.997716 101.667614 
L 156.10597 171.685842 
L 156.322478 97.955844 
L 156.430733 109.337649 
L 156.538987 170.646282 
L 156.647241 140.892571 
L 156.755495 167.45193 
L 156.86375 112.26317 
L 156.972004 132.377329 
L 157.188513 118.416028 
L 157.405021 135.923236 
L 157.513275 129.330265 
L 157.62153 193.699056 
L 157.729784 114.76057 
L 157.838038 123.262589 
L 157.946292 140.806294 
L 158.054547 120.7497 
L 158.162801 148.65068 
L 158.271055 120.229872 
L 158.379309 154.742398 
L 158.487564 154.428173 
L 158.595818 155.491041 
L 158.812327 122.200528 
L 158.920581 118.228443 
L 159.137089 105.03335 
L 159.245344 121.670196 
L 159.353598 189.201929 
L 159.570106 125.982226 
L 159.678361 126.275595 
L 159.786615 134.275994 
L 159.894869 126.444608 
L 160.003123 198.751501 
L 160.219632 187.91006 
L 160.436141 112.660595 
L 160.652649 116.131968 
L 160.760903 145.728835 
L 160.869158 135.262474 
L 160.977412 154.873601 
L 161.19392 135.422666 
L 161.302175 199.583957 
L 161.518683 117.731549 
L 161.626937 159.940332 
L 161.9517 111.357289 
L 162.059955 134.369252 
L 162.168209 122.363301 
L 162.384717 154.672294 
L 162.601226 126.741283 
L 162.70948 159.383309 
L 162.817734 116.959861 
L 162.925989 124.512686 
L 163.034243 145.141365 
L 163.142497 123.943713 
L 163.250751 158.864551 
L 163.359006 154.055523 
L 163.575514 112.563616 
L 163.683769 184.425724 
L 163.900277 116.158515 
L 164.008531 142.71003 
L 164.116786 123.224398 
L 164.441548 153.323114 
L 164.658057 91.4439 
L 164.874565 129.46987 
L 164.98282 114.037766 
L 165.091074 140.498598 
L 165.199328 133.658447 
L 165.307583 159.429914 
L 165.415837 150.582219 
L 165.524091 128.475374 
L 165.632345 135.48256 
L 165.848854 168.153173 
L 166.173617 136.482094 
L 166.281871 145.534771 
L 166.390125 196.907293 
L 166.606634 117.776192 
L 166.714888 186.607541 
L 166.823142 115.504096 
L 166.931397 157.945959 
L 167.256159 105.093029 
L 167.364414 148.349601 
L 167.472668 107.131927 
L 167.580922 131.917993 
L 167.689176 116.429001 
L 167.797431 159.361019 
L 167.905685 131.200676 
L 168.013939 212.093881 
L 168.230448 126.638954 
L 168.338702 167.865404 
L 168.446956 110.767036 
L 168.555211 134.794164 
L 168.663465 122.157299 
L 168.771719 85.715685 
L 168.988228 169.550058 
L 169.096482 146.661179 
L 169.204736 160.64064 
L 169.31299 138.823336 
L 169.421245 143.148238 
L 169.529499 172.629387 
L 169.746007 112.661869 
L 169.962516 149.437691 
L 170.07077 104.928388 
L 170.179025 161.136193 
L 170.287279 111.428863 
L 170.395533 148.003066 
L 170.503787 145.127596 
L 170.612042 106.136873 
L 170.720296 117.251915 
L 170.936804 192.404316 
L 171.153313 121.73791 
L 171.261567 144.383501 
L 171.478076 116.530147 
L 171.58633 160.478836 
L 171.802839 120.069974 
L 171.911093 156.898805 
L 172.127601 119.857806 
L 172.34411 100.766573 
L 172.560618 136.842891 
L 172.668873 143.440015 
L 172.777127 107.309007 
L 172.885381 133.485385 
L 172.993635 129.836638 
L 173.10189 115.229002 
L 173.318398 146.816468 
L 173.426653 126.703839 
L 173.534907 126.764136 
L 173.643161 158.428999 
L 173.85967 112.475187 
L 173.967924 129.30376 
L 174.076178 125.475013 
L 174.184432 143.68564 
L 174.292687 115.462875 
L 174.400941 172.01951 
L 174.509195 114.471239 
L 174.617449 116.395732 
L 174.942212 171.113926 
L 175.050467 143.714772 
L 175.266975 161.798059 
L 175.375229 142.930626 
L 175.483484 194.968719 
L 175.808246 112.509462 
L 176.024755 188.332562 
L 176.133009 121.32074 
L 176.241263 148.327926 
L 176.349518 126.22535 
L 176.566026 183.965935 
L 176.782535 115.160385 
L 176.890789 184.591224 
L 177.107298 96.921501 
L 177.215552 144.149379 
L 177.323806 113.894745 
L 177.540315 156.624101 
L 177.756823 103.036271 
L 177.973332 136.056243 
L 178.081586 123.600098 
L 178.18984 159.205838 
L 178.406349 120.811697 
L 178.622857 184.468294 
L 179.055874 122.651741 
L 179.164129 124.970965 
L 179.272383 139.74206 
L 179.380637 121.342964 
L 179.488891 145.641573 
L 179.7054 130.942275 
L 179.813654 109.017938 
L 179.921909 154.301649 
L 180.138417 124.298982 
L 180.246671 118.707896 
L 180.354926 151.399724 
L 180.46318 107.588366 
L 180.571434 124.217937 
L 180.679688 175.313181 
L 180.787943 106.866984 
L 181.004451 140.846999 
L 181.22096 101.481315 
L 181.329214 158.539021 
L 181.437468 128.045155 
L 181.545723 129.752281 
L 181.762231 99.380348 
L 181.97874 117.846496 
L 182.086994 166.47973 
L 182.195248 108.936588 
L 182.303502 149.526746 
L 182.411757 108.704998 
L 182.520011 175.503631 
L 182.736519 138.140264 
L 182.953028 124.602041 
L 183.061282 129.905893 
L 183.169537 127.829393 
L 183.277791 128.508573 
L 183.386045 120.444454 
L 183.602554 151.015476 
L 183.710808 119.167527 
L 183.819062 132.717465 
L 183.927316 121.960029 
L 184.035571 122.217045 
L 184.143825 138.819619 
L 184.252079 116.509528 
L 184.360333 126.437302 
L 184.468588 103.935499 
L 184.576842 108.558423 
L 184.793351 156.931034 
L 184.901605 155.629468 
L 185.009859 128.467876 
L 185.226368 198.765195 
L 185.334622 128.707037 
L 185.442876 146.730378 
L 185.55113 109.534105 
L 185.767639 124.394973 
L 185.875893 116.053915 
L 185.984147 139.351666 
L 186.200656 114.169536 
L 186.30891 158.787115 
L 186.741927 112.607582 
L 186.958436 147.46008 
L 187.174944 125.675341 
L 187.283199 144.934272 
L 187.391453 137.976756 
L 187.499707 120.941168 
L 187.716216 179.361246 
L 187.932724 120.737057 
L 188.040979 146.152284 
L 188.149233 143.999539 
L 188.257487 135.185153 
L 188.365741 135.51976 
L 188.473996 129.277402 
L 188.690504 131.18415 
L 188.798758 112.382864 
L 188.907013 140.432298 
L 189.123521 121.347767 
L 189.231775 204.901342 
L 189.448284 121.364353 
L 189.556538 131.930987 
L 189.664793 119.679121 
L 189.773047 135.699698 
L 189.881301 135.593057 
L 189.989555 148.948092 
L 190.206064 123.012 
L 190.314318 129.089256 
L 190.530827 162.385086 
L 190.639081 136.17803 
L 190.855589 150.001332 
L 190.963844 127.270849 
L 191.072098 129.819362 
L 191.180352 140.438918 
L 191.288607 139.020718 
L 191.396861 119.083247 
L 191.613369 127.703581 
L 191.721624 130.681843 
L 191.829878 122.66306 
L 191.938132 128.290585 
L 192.046386 150.839537 
L 192.154641 111.636807 
L 192.262895 123.654049 
L 192.371149 113.052329 
L 192.587658 128.82757 
L 192.695912 115.508428 
L 192.804166 122.936236 
L 192.912421 117.939547 
L 193.128929 186.49021 
L 193.237183 132.815523 
L 193.345438 167.07641 
L 193.453692 124.10129 
L 193.561946 127.946903 
L 193.6702 117.370003 
L 193.886709 141.572394 
L 193.994963 157.480007 
L 194.211472 129.107796 
L 194.319726 156.661011 
L 194.42798 147.869985 
L 194.536235 112.374003 
L 194.644489 157.828636 
L 194.752743 157.731903 
L 194.860997 132.589567 
L 194.969252 136.319186 
L 195.077506 174.562918 
L 195.18576 130.438702 
L 195.294014 161.162369 
L 195.402269 134.068439 
L 195.510523 163.632613 
L 195.727031 122.584365 
L 195.835286 178.488486 
L 195.94354 117.828095 
L 196.051794 120.556954 
L 196.268303 146.267928 
L 196.376557 128.738494 
L 196.593066 131.894069 
L 196.70132 129.147439 
L 196.809574 121.831608 
L 197.242591 145.076365 
L 197.350845 132.670053 
L 197.4591 136.451419 
L 197.675608 119.039695 
L 197.783862 126.559211 
L 197.892117 158.007934 
L 198.108625 117.562687 
L 198.21688 166.841903 
L 198.325134 125.747863 
L 198.433388 147.388691 
L 198.541642 133.774718 
L 198.758151 171.947423 
L 198.974659 133.41839 
L 199.082914 155.257932 
L 199.191168 136.341563 
L 199.299422 205.401403 
L 199.515931 153.633593 
L 199.732439 130.233495 
L 199.840694 156.52283 
L 200.057202 123.3634 
L 200.165456 110.934918 
L 200.273711 146.296198 
L 200.381965 126.096342 
L 200.490219 145.776669 
L 200.598473 130.602143 
L 200.706728 179.41131 
L 201.139745 123.002419 
L 201.247999 135.161784 
L 201.356253 126.085397 
L 201.464508 141.649062 
L 201.572762 123.252318 
L 201.681016 138.144931 
L 201.78927 116.62911 
L 201.897525 127.465491 
L 202.005779 193.782961 
L 202.222287 108.815336 
L 202.330542 126.920853 
L 202.438796 169.508894 
L 202.54705 112.500795 
L 202.655304 167.71849 
L 202.763559 145.158471 
L 202.871813 189.241753 
L 202.980067 126.346802 
L 203.196576 189.737389 
L 203.30483 147.856228 
L 203.413084 157.511384 
L 203.521339 209.637715 
L 203.737847 123.601244 
L 203.846101 139.050518 
L 203.954356 130.556535 
L 204.170864 196.181279 
L 204.387373 162.185556 
L 204.603881 152.374035 
L 204.712136 122.797812 
L 204.82039 146.563275 
L 204.928644 111.984889 
L 205.036898 120.29142 
L 205.145153 179.254215 
L 205.361661 122.070622 
L 205.469915 143.602322 
L 205.57817 127.150032 
L 205.686424 165.873887 
L 205.794678 149.417889 
L 205.902932 158.713489 
L 206.119441 126.810138 
L 206.227695 145.65461 
L 206.33595 124.940118 
L 206.444204 130.98033 
L 206.552458 163.323167 
L 206.768967 133.331435 
L 206.877221 117.308852 
L 206.985475 144.248748 
L 207.093729 97.783388 
L 207.201984 121.076519 
L 207.310238 119.082774 
L 207.418492 142.244041 
L 207.635001 101.90715 
L 207.743255 140.152068 
L 207.851509 128.397695 
L 207.959764 134.044172 
L 208.068018 202.28613 
L 208.176272 126.188958 
L 208.284526 148.932808 
L 208.501035 121.849852 
L 208.609289 121.012462 
L 208.717543 132.411839 
L 208.825798 105.504693 
L 208.934052 200.218604 
L 209.042306 130.250281 
L 209.15056 150.560468 
L 209.258815 126.416424 
L 209.367069 137.868398 
L 209.475323 115.433669 
L 209.583578 158.650397 
L 209.691832 149.699389 
L 209.800086 119.643909 
L 209.90834 143.844728 
L 210.016595 134.371648 
L 210.124849 108.869613 
L 210.341357 170.819731 
L 210.449612 130.086165 
L 210.557866 163.852331 
L 210.66612 138.161532 
L 210.774374 149.578848 
L 210.990883 123.498511 
L 211.099137 160.822457 
L 211.315646 119.179923 
L 211.4239 135.560161 
L 211.532154 129.22704 
L 211.640409 135.689694 
L 211.856917 120.638988 
L 212.073426 147.798352 
L 212.289934 119.679424 
L 212.506443 161.152134 
L 212.722951 124.633022 
L 212.831206 168.48484 
L 212.93946 129.267762 
L 213.047714 150.5385 
L 213.264223 115.086959 
L 213.372477 160.75485 
L 213.588985 122.685972 
L 213.69724 121.375729 
L 213.913748 142.594898 
L 214.130257 113.016987 
L 214.346765 147.431304 
L 214.563274 136.051215 
L 214.671528 142.175889 
L 214.779782 140.020188 
L 214.888037 134.220074 
L 215.104545 144.77897 
L 215.212799 129.98788 
L 215.429308 145.753742 
L 215.537562 123.056676 
L 215.862325 161.79828 
L 215.970579 136.9385 
L 216.187088 146.047415 
L 216.295342 141.051755 
L 216.403596 144.64044 
L 216.511851 168.760602 
L 216.728359 130.156097 
L 216.836613 153.898579 
L 217.053122 132.429212 
L 217.161376 148.69394 
L 217.26963 183.142064 
L 217.594393 129.468611 
L 217.702648 146.372387 
L 217.810902 138.924988 
L 217.919156 148.813383 
L 218.02741 131.16957 
L 218.135665 148.02023 
L 218.243919 124.621888 
L 218.352173 149.007275 
L 218.460427 144.235701 
L 218.568682 147.281596 
L 218.676936 139.44154 
L 218.78519 154.694207 
L 218.893444 132.975831 
L 219.001699 150.178357 
L 219.109953 133.704116 
L 219.218207 191.246273 
L 219.326462 129.035882 
L 219.434716 147.911911 
L 219.54297 137.036277 
L 219.651224 138.827974 
L 219.759479 134.272349 
L 219.867733 166.340601 
L 219.975987 128.202975 
L 220.192496 137.005209 
L 220.30075 136.399643 
L 220.409004 138.136957 
L 220.625513 151.330103 
L 220.733767 141.150308 
L 220.842021 186.94791 
L 220.950276 145.750198 
L 221.166784 175.54552 
L 221.383293 143.857348 
L 221.491547 130.611478 
L 221.708055 143.941587 
L 221.81631 145.718571 
L 222.032818 152.809691 
L 222.141072 152.606329 
L 222.249327 128.356481 
L 222.357581 158.077072 
L 222.465835 128.939666 
L 222.682344 145.214371 
L 222.898852 137.278003 
L 223.007107 146.772232 
L 223.223615 139.146937 
L 223.331869 140.840952 
L 223.440124 127.471345 
L 223.656632 149.487177 
L 223.764886 142.522584 
L 223.981395 147.93923 
L 224.089649 142.555295 
L 224.197904 129.551587 
L 224.306158 139.965921 
L 224.414412 128.89961 
L 224.522666 131.801958 
L 224.630921 125.589766 
L 224.739175 132.974862 
L 224.847429 128.524233 
L 224.955683 133.027675 
L 225.063938 124.743826 
L 225.172192 156.981533 
L 225.280446 132.245465 
L 225.496955 146.315755 
L 225.605209 136.397897 
L 225.713463 140.045594 
L 225.821718 125.967517 
L 225.929972 153.507145 
L 226.14648 132.167573 
L 226.362989 163.069478 
L 226.471243 149.570606 
L 226.579497 165.333283 
L 226.687752 136.750535 
L 226.796006 140.98247 
L 226.90426 134.92553 
L 227.012514 141.745166 
L 227.120769 140.178074 
L 227.229023 153.537351 
L 227.445532 128.530143 
L 227.553786 141.404508 
L 227.66204 129.031508 
L 227.770294 139.918879 
L 227.878549 136.052108 
L 227.986803 141.164173 
L 228.095057 133.605064 
L 228.203311 146.511048 
L 228.311566 139.533858 
L 228.41982 122.488959 
L 228.528074 132.997585 
L 228.636328 169.894692 
L 228.744583 141.066889 
L 228.961091 161.898092 
L 229.069346 127.718257 
L 229.1776 138.782661 
L 229.285854 134.088781 
L 229.394108 148.844654 
L 229.610617 127.341861 
L 229.718871 151.922252 
L 229.827125 132.896521 
L 230.043634 147.302012 
L 230.151888 143.304353 
L 230.260142 149.450627 
L 230.368397 147.864639 
L 230.476651 138.541712 
L 230.584905 140.916148 
L 230.69316 122.791938 
L 230.801414 151.002721 
L 231.017922 141.030594 
L 231.126177 140.416851 
L 231.342685 130.792902 
L 231.450939 138.583976 
L 231.559194 160.375827 
L 231.667448 148.408822 
L 231.775702 155.910839 
L 231.992211 138.712475 
L 232.100465 141.256967 
L 232.208719 157.231342 
L 232.425228 136.722964 
L 232.533482 142.590578 
L 232.641736 135.914936 
L 232.858245 146.557342 
L 232.966499 130.261516 
L 233.291262 179.522128 
L 233.50777 127.364255 
L 233.724279 168.802424 
L 233.832533 115.467252 
L 234.049042 138.879533 
L 234.157296 134.676475 
L 234.373805 167.438707 
L 234.590313 134.933331 
L 234.698567 131.898433 
L 234.915076 141.258733 
L 235.02333 143.395997 
L 235.131584 166.223573 
L 235.239839 122.031701 
L 235.348093 158.319155 
L 235.564602 141.360585 
L 235.672856 143.383326 
L 235.78111 141.559594 
L 235.889364 112.513244 
L 235.997619 153.100844 
L 236.105873 133.83241 
L 236.214127 162.076861 
L 236.430636 128.868705 
L 236.53889 124.767543 
L 236.647144 148.75281 
L 236.755398 134.133268 
L 236.863653 137.975102 
L 236.971907 135.022374 
L 237.080161 122.245298 
L 237.188416 145.893627 
L 237.29667 112.950109 
L 237.513178 137.412651 
L 237.621433 137.525569 
L 237.729687 120.038573 
L 237.837941 126.829953 
L 237.946195 124.657364 
L 238.05445 140.278907 
L 238.162704 138.251826 
L 238.379212 124.0777 
L 238.487467 122.079918 
L 238.595721 153.080626 
L 238.81223 133.788158 
L 238.920484 130.066002 
L 239.028738 130.345595 
L 239.136992 159.562855 
L 239.245247 140.433679 
L 239.353501 141.877614 
L 239.461755 141.828546 
L 239.570009 147.413687 
L 239.678264 109.42793 
L 239.894772 156.856509 
L 240.111281 143.350607 
L 240.219535 168.948865 
L 240.327789 126.03379 
L 240.544298 163.073376 
L 240.652552 147.482144 
L 240.760806 211.800313 
L 240.977315 141.40555 
L 241.085569 131.025828 
L 241.193823 157.551421 
L 241.410332 138.059333 
L 241.518586 139.335375 
L 241.62684 137.124666 
L 241.735095 139.396822 
L 241.843349 149.047227 
L 241.951603 133.910152 
L 242.059858 152.700407 
L 242.168112 125.461018 
L 242.276366 159.637568 
L 242.38462 153.745839 
L 242.492875 120.843023 
L 242.709383 145.594063 
L 242.817637 128.169805 
L 242.925892 131.800029 
L 243.034146 179.575295 
L 243.250654 138.70257 
L 243.358909 211.252073 
L 243.467163 119.63063 
L 243.575417 194.441781 
L 243.791926 116.310394 
L 243.90018 175.485509 
L 244.116689 121.67599 
L 244.333197 140.426377 
L 244.441451 96.462117 
L 244.549706 170.990681 
L 244.766214 117.325243 
L 244.874468 179.628497 
L 245.199231 106.537536 
L 245.41574 152.06539 
L 245.632248 121.958729 
L 245.848757 130.07865 
L 245.957011 120.118454 
L 246.065265 129.679839 
L 246.17352 111.569154 
L 246.281774 160.028481 
L 246.390028 130.500765 
L 246.498282 147.039177 
L 246.606537 134.93806 
L 246.823045 147.096641 
L 246.9313 113.34884 
L 247.039554 173.133496 
L 247.256062 108.085078 
L 247.472571 133.225292 
L 247.580825 129.275569 
L 247.689079 130.82153 
L 247.797334 120.522425 
L 247.905588 128.377387 
L 248.013842 128.232654 
L 248.122096 130.200915 
L 248.230351 123.680771 
L 248.446859 164.864296 
L 248.555114 148.469936 
L 248.663368 158.013078 
L 248.988131 124.286204 
L 249.096385 110.204224 
L 249.312893 131.878769 
L 249.421148 134.662267 
L 249.529402 131.130985 
L 249.637656 150.428672 
L 249.74591 129.483616 
L 249.854165 157.16903 
L 249.962419 145.929602 
L 250.070673 151.876765 
L 250.287182 100.830676 
L 250.395436 161.424473 
L 250.50369 116.956739 
L 250.611945 168.903321 
L 250.720199 104.640135 
L 250.828453 154.0659 
L 251.044962 147.384861 
L 251.153216 140.512139 
L 251.26147 143.047561 
L 251.369724 157.094975 
L 251.477979 117.216162 
L 251.586233 130.435335 
L 251.694487 103.424568 
L 252.01925 151.796884 
L 252.127504 138.966808 
L 252.235759 111.788751 
L 252.344013 144.792421 
L 252.452267 107.563121 
L 252.560521 124.834876 
L 252.668776 116.557675 
L 252.77703 162.304926 
L 252.885284 140.2677 
L 253.101793 155.13008 
L 253.210047 135.701876 
L 253.318301 137.494631 
L 253.426556 130.242543 
L 253.53481 108.992703 
L 253.751318 171.940971 
L 253.967827 116.736645 
L 254.184335 145.256324 
L 254.29259 149.209327 
L 254.400844 145.634357 
L 254.617352 125.16222 
L 254.725607 141.886664 
L 254.833861 136.051912 
L 254.942115 140.7212 
L 255.05037 129.468894 
L 255.158624 152.729401 
L 255.266878 110.588816 
L 255.483387 132.990447 
L 255.591641 133.507071 
L 255.699895 132.260716 
L 255.808149 163.493073 
L 256.024658 117.53245 
L 256.132912 134.48082 
L 256.241166 133.600959 
L 256.349421 137.242945 
L 256.565929 107.557717 
L 256.782438 140.431723 
L 256.998946 107.012071 
L 257.107201 123.887827 
L 257.215455 160.470985 
L 257.323709 103.141558 
L 257.540218 161.439527 
L 257.756726 131.305133 
L 257.86498 128.587818 
L 257.973235 104.282826 
L 258.081489 140.443431 
L 258.189743 92.474998 
L 258.406252 153.613974 
L 258.62276 134.716284 
L 258.731015 151.222819 
L 258.839269 207.871848 
L 258.947523 105.693169 
L 259.164032 137.642713 
L 259.272286 107.745276 
L 259.488794 173.457285 
L 259.597049 118.09568 
L 259.705303 139.432881 
L 259.813557 132.331593 
L 259.921812 132.797486 
L 260.13832 145.377053 
L 260.246574 144.074162 
L 260.354829 123.895124 
L 260.571337 156.902588 
L 260.679591 152.067458 
L 260.787846 135.667015 
L 260.8961 179.495263 
L 261.004354 98.826162 
L 261.112608 149.868704 
L 261.220863 118.093465 
L 261.437371 162.131969 
L 261.545626 134.243601 
L 261.65388 146.947616 
L 261.762134 131.455519 
L 261.870388 135.535966 
L 261.978643 113.28695 
L 262.086897 131.4868 
L 262.195151 122.009432 
L 262.303405 147.646223 
L 262.41166 105.558487 
L 262.628168 148.561487 
L 262.736422 185.393412 
L 263.16944 133.295087 
L 263.277694 181.32919 
L 263.494202 104.04068 
L 263.602457 230.625069 
L 263.818965 104.87072 
L 263.927219 122.404587 
L 264.035474 116.883526 
L 264.143728 135.595225 
L 264.251982 132.772687 
L 264.360236 120.829121 
L 264.468491 151.386134 
L 264.684999 122.684043 
L 264.793254 147.502156 
L 264.901508 126.946816 
L 265.009762 132.290748 
L 265.118016 130.30742 
L 265.226271 123.373974 
L 265.334525 144.36732 
L 265.442779 100.824469 
L 265.551033 133.732207 
L 265.659288 121.541451 
L 265.767542 183.467985 
L 265.875796 137.549921 
L 265.98405 206.691432 
L 266.200559 116.608527 
L 266.308813 165.691153 
L 266.417068 149.578907 
L 266.525322 110.179183 
L 266.74183 131.689735 
L 266.850085 174.335491 
L 266.958339 153.6293 
L 267.174847 111.153696 
L 267.283102 138.33431 
L 267.391356 121.916595 
L 267.49961 166.336075 
L 267.607864 153.609432 
L 267.716119 114.745804 
L 267.824373 129.122089 
L 267.932627 118.992811 
L 268.040882 150.973213 
L 268.149136 136.688093 
L 268.25739 158.486887 
L 268.473899 124.82165 
L 268.582153 140.380588 
L 268.690407 255.433562 
L 268.798661 132.88319 
L 268.906916 205.591693 
L 269.123424 130.048815 
L 269.231678 102.902449 
L 269.448187 136.301628 
L 269.556441 120.147781 
L 269.664696 150.323804 
L 269.77295 134.625476 
L 269.881204 143.545999 
L 269.989458 131.232999 
L 270.097713 158.734339 
L 270.205967 158.009408 
L 270.314221 150.021249 
L 270.53073 113.425229 
L 270.638984 171.299617 
L 270.855492 113.189424 
L 270.963747 121.2795 
L 271.072001 106.113843 
L 271.180255 116.255982 
L 271.28851 166.007722 
L 271.396764 130.995658 
L 271.505018 131.761222 
L 271.721527 151.476872 
L 271.938035 106.863683 
L 272.046289 139.70927 
L 272.262798 126.955234 
L 272.371052 120.935201 
L 272.479306 156.790138 
L 272.587561 137.576992 
L 272.695815 187.13319 
L 272.912324 110.949773 
L 273.020578 160.97312 
L 273.237086 124.150137 
L 273.345341 155.529761 
L 273.561849 117.448813 
L 273.670103 176.377976 
L 273.778358 103.3792 
L 273.994866 142.298647 
L 274.10312 123.065934 
L 274.211375 160.062459 
L 274.319629 125.880407 
L 274.427883 146.391754 
L 274.536138 127.704408 
L 274.752646 168.960839 
L 274.969155 109.849563 
L 275.077409 148.80109 
L 275.293917 114.503103 
L 275.402172 139.294667 
L 275.510426 204.707105 
L 275.61868 141.127041 
L 275.726934 144.358553 
L 275.835189 123.617428 
L 275.943443 137.854841 
L 276.051697 101.617745 
L 276.159951 177.110865 
L 276.37646 129.856546 
L 276.484714 157.976009 
L 276.701223 120.248851 
L 276.809477 130.344632 
L 276.917731 127.582089 
L 277.025986 138.214997 
L 277.13424 211.061305 
L 277.242494 122.520926 
L 277.350748 128.486681 
L 277.567257 146.783257 
L 277.675511 137.504341 
L 277.783765 156.252836 
L 277.89202 127.411744 
L 278.108528 132.130666 
L 278.216783 102.918479 
L 278.325037 167.836998 
L 278.6498 141.205536 
L 278.758054 139.35175 
L 278.866308 134.340908 
L 278.974562 157.35235 
L 279.082817 114.573401 
L 279.299325 167.322277 
L 279.407579 117.003778 
L 279.624088 139.437686 
L 279.840597 117.822789 
L 279.948851 131.935511 
L 280.057105 163.454687 
L 280.165359 129.051794 
L 280.273614 131.356488 
L 280.490122 170.817866 
L 280.706631 128.809698 
L 280.923139 161.217764 
L 281.031393 155.777078 
L 281.139648 140.409508 
L 281.247902 170.118796 
L 281.356156 131.082865 
L 281.464411 174.719605 
L 281.572665 157.336675 
L 281.680919 182.450039 
L 281.789173 106.457109 
L 282.005682 189.433765 
L 282.330445 134.513675 
L 282.438699 153.693328 
L 282.546953 229.934508 
L 282.655207 118.325407 
L 282.763462 198.763858 
L 282.97997 130.233045 
L 283.196479 110.759002 
L 283.304733 143.526238 
L 283.412987 115.061589 
L 283.521242 138.148485 
L 283.73775 134.984671 
L 283.846004 164.296805 
L 283.954259 154.806715 
L 284.170767 79.641636 
L 284.279021 189.698861 
L 284.387276 106.658862 
L 284.49553 134.273116 
L 284.603784 198.42523 
L 284.820293 89.60495 
L 284.928547 102.6086 
L 285.145056 164.17602 
L 285.25331 150.549497 
L 285.361564 119.100117 
L 285.469818 121.671632 
L 285.578073 165.39513 
L 285.686327 127.230599 
L 285.794581 146.78495 
L 285.902835 97.198152 
L 286.01109 141.990125 
L 286.119344 137.387957 
L 286.335853 213.225158 
L 286.444107 136.438803 
L 286.552361 155.207693 
L 286.660615 114.741225 
L 286.76887 153.63863 
L 286.877124 99.937767 
L 286.985378 160.419445 
L 287.201887 112.550572 
L 287.310141 111.455632 
L 287.526649 132.168456 
L 287.634904 144.761299 
L 287.743158 137.188408 
L 287.851412 118.114992 
L 287.959667 141.482443 
L 288.067921 103.178084 
L 288.176175 125.756416 
L 288.392684 103.469242 
L 288.717446 153.296591 
L 288.825701 83.154009 
L 288.933955 142.382295 
L 289.042209 131.161772 
L 289.150463 147.016984 
L 289.366972 138.340615 
L 289.475226 166.973718 
L 289.583481 128.782668 
L 289.799989 141.161386 
L 289.908243 188.419546 
L 290.016498 130.258902 
L 290.233006 166.705996 
L 290.34126 90.168697 
L 290.557769 154.387228 
L 290.666023 173.78178 
L 290.774277 132.649516 
L 290.882532 140.037789 
L 290.990786 123.035836 
L 291.207295 156.182445 
L 291.423803 102.342731 
L 291.748566 200.415872 
L 291.965074 134.921867 
L 292.073329 160.689734 
L 292.181583 124.155521 
L 292.398091 146.600097 
L 292.6146 138.875379 
L 292.722854 136.708961 
L 292.831109 117.946022 
L 292.939363 151.800552 
L 293.155871 111.457242 
L 293.264126 118.397222 
L 293.37238 192.579754 
L 293.588888 146.077963 
L 293.697143 145.643337 
L 293.913651 126.446753 
L 294.13016 141.5284 
L 294.238414 138.706715 
L 294.346668 145.266605 
L 294.454923 139.093195 
L 294.563177 139.382842 
L 294.671431 140.306308 
L 294.779685 149.64189 
L 294.88794 125.117765 
L 295.104448 146.759526 
L 295.212702 141.657382 
L 295.320957 145.87809 
L 295.429211 160.106072 
L 295.645719 139.734472 
L 295.753974 187.558465 
L 295.862228 178.614319 
L 295.970482 116.434503 
L 296.078737 174.765505 
L 296.186991 134.192215 
L 296.403499 142.711504 
L 296.511754 152.169034 
L 296.620008 119.968237 
L 296.728262 131.046114 
L 296.836516 160.750249 
L 296.944771 137.727178 
L 297.053025 184.19956 
L 297.269533 112.005437 
L 297.377788 145.916171 
L 297.486042 139.770695 
L 297.594296 112.806029 
L 297.702551 143.342664 
L 297.810805 120.422073 
L 298.027313 146.008333 
L 298.135568 164.009191 
L 298.46033 99.085296 
L 298.568585 166.264125 
L 298.785093 131.84991 
L 298.893347 112.724394 
L 299.001602 154.111555 
L 299.21811 120.41776 
L 299.434619 163.487068 
L 299.542873 107.892458 
L 299.759382 153.916954 
L 299.867636 151.42614 
L 300.084144 108.53604 
L 300.192399 157.449588 
L 300.300653 129.852281 
L 300.517161 145.925828 
L 300.625416 187.929862 
L 300.841924 105.908086 
L 300.950179 129.321507 
L 301.058433 191.23532 
L 301.166687 167.881062 
L 301.383196 106.080513 
L 301.49145 139.148568 
L 301.599704 133.092865 
L 301.707958 138.852103 
L 301.816213 115.585911 
L 302.032721 155.877735 
L 302.140975 154.173209 
L 302.24923 119.144898 
L 302.357484 121.066307 
L 302.465738 200.534702 
L 302.573993 176.5206 
L 302.682247 107.031211 
L 303.00701 174.041748 
L 303.115264 123.724101 
L 303.331772 163.814711 
L 303.440027 142.40457 
L 303.548281 144.465334 
L 303.656535 110.951075 
L 303.873044 164.702437 
L 304.089552 104.157486 
L 304.197807 136.963593 
L 304.306061 132.382407 
L 304.414315 195.656422 
L 304.522569 123.913942 
L 304.630824 123.945302 
L 304.739078 113.549082 
L 304.955586 165.381762 
L 305.063841 113.167709 
L 305.280349 129.176625 
L 305.388603 101.188336 
L 305.821621 181.240427 
L 305.929875 127.172513 
L 306.146383 136.161225 
L 306.362892 107.879392 
L 306.795909 165.397642 
L 306.904163 124.013625 
L 307.012417 130.822004 
L 307.120672 147.628487 
L 307.445435 107.678132 
L 307.553689 155.479776 
L 307.661943 134.355509 
L 307.770197 136.363514 
L 307.878452 156.773469 
L 308.09496 113.295668 
L 308.203214 125.659282 
L 308.419723 175.765728 
L 308.527977 140.811775 
L 308.636231 162.776841 
L 308.744486 120.977297 
L 308.85274 124.797932 
L 308.960994 195.298231 
L 309.069249 127.406025 
L 309.285757 151.072999 
L 309.394011 126.767965 
L 309.61052 162.055488 
L 309.718774 123.429553 
L 309.935283 153.882054 
L 310.043537 120.12758 
L 310.151791 138.741542 
L 310.260045 186.90476 
L 310.3683 125.350228 
L 310.476554 134.95616 
L 310.584808 220.131768 
L 310.693063 130.809631 
L 310.801317 140.560899 
L 310.909571 123.180335 
L 311.12608 150.416249 
L 311.234334 127.072468 
L 311.342588 134.576228 
L 311.450842 127.065166 
L 311.559097 146.827125 
L 311.667351 133.785899 
L 311.883859 144.699691 
L 311.992114 132.961469 
L 312.208622 155.877649 
L 312.425131 133.553238 
L 312.641639 148.084972 
L 312.749894 148.591137 
L 312.858148 136.500267 
L 312.966402 141.447284 
L 313.074656 134.27332 
L 313.182911 142.151693 
L 313.291165 128.324227 
L 313.399419 149.143545 
L 313.507673 144.667989 
L 313.615928 162.064689 
L 313.724182 119.467415 
L 313.832436 134.885614 
L 313.940691 173.227531 
L 314.048945 165.861291 
L 314.157199 124.899967 
L 314.265453 130.47396 
L 314.481962 149.872155 
L 314.806725 126.990938 
L 315.023233 175.698046 
L 315.131487 147.533492 
L 315.239742 193.024875 
L 315.347996 135.780393 
L 315.564505 146.084745 
L 315.672759 113.425353 
L 315.781013 151.798208 
L 315.889267 130.802323 
L 315.997522 147.288677 
L 316.105776 145.847314 
L 316.21403 136.478945 
L 316.322284 136.670376 
L 316.430539 152.508644 
L 316.538793 146.214954 
L 316.647047 124.665717 
L 316.755301 131.35991 
L 316.863556 151.333594 
L 316.97181 148.917063 
L 317.080064 107.051325 
L 317.188319 137.080939 
L 317.296573 133.015717 
L 317.404827 119.891739 
L 317.513081 121.292913 
L 317.621336 150.565712 
L 317.72959 129.844049 
L 317.946098 144.560004 
L 318.054353 112.437011 
L 318.162607 165.366505 
L 318.48737 134.898933 
L 318.595624 142.710778 
L 318.703878 142.471356 
L 318.812133 128.414783 
L 319.028641 149.695908 
L 319.24515 125.537475 
L 319.353404 144.289729 
L 319.461658 129.551839 
L 319.678167 139.606696 
L 319.786421 140.615166 
L 319.894675 137.799849 
L 320.111184 155.274025 
L 320.219438 128.256704 
L 320.435947 176.600068 
L 320.544201 140.601254 
L 320.652455 142.787112 
L 320.760709 137.495499 
L 320.868964 156.290624 
L 321.085472 128.235682 
L 321.193726 163.599307 
L 321.410235 141.575348 
L 321.518489 149.16543 
L 321.626743 141.897794 
L 321.734998 142.413875 
L 321.843252 116.637134 
L 322.059761 154.832872 
L 322.276269 113.801882 
L 322.384523 163.337093 
L 322.601032 119.433216 
L 322.81754 200.262238 
L 323.034049 145.360791 
L 323.142303 143.419732 
L 323.250557 125.788997 
L 323.358812 182.186086 
L 323.467066 139.454809 
L 323.57532 144.616505 
L 323.683575 136.563699 
L 323.791829 139.296252 
L 323.900083 131.111351 
L 324.008337 139.489344 
L 324.224846 129.623253 
L 324.3331 154.698534 
L 324.549609 139.358437 
L 324.657863 153.251403 
L 324.766117 135.949603 
L 324.874371 165.233077 
L 324.982626 123.206837 
L 325.09088 131.730491 
L 325.199134 130.293315 
L 325.307389 132.788807 
L 325.415643 124.933033 
L 325.632151 155.882915 
L 325.740406 127.842969 
L 325.84866 166.863704 
L 326.173423 126.712851 
L 326.281677 186.381804 
L 326.389931 122.158483 
L 326.498185 130.3259 
L 326.60644 124.77642 
L 326.822948 140.291267 
L 327.039457 129.427821 
L 327.147711 140.31008 
L 327.255965 130.148737 
L 327.36422 130.369302 
L 327.472474 202.187869 
L 327.580728 140.31616 
L 327.797237 149.432007 
L 327.905491 167.133606 
L 328.013745 132.801035 
L 328.121999 136.247926 
L 328.338508 124.491082 
L 328.446762 130.881093 
L 328.555017 151.841779 
L 328.771525 130.317725 
L 328.988034 152.108478 
L 329.096288 164.461104 
L 329.204542 108.363269 
L 329.312796 155.192297 
L 329.421051 53.568 
L 329.529305 66.142095 
L 329.637559 103.976366 
L 329.745813 88.593783 
L 329.854068 102.691316 
L 330.070576 132.990153 
L 330.178831 132.018103 
L 330.395339 152.795805 
L 330.503593 135.123139 
L 330.611848 226.350166 
L 330.720102 123.606726 
L 330.93661 145.620297 
L 331.044865 123.757502 
L 331.153119 175.300083 
L 331.261373 113.015539 
L 331.369627 126.97966 
L 331.477882 121.544661 
L 331.586136 134.683348 
L 331.69439 186.338587 
L 331.802645 141.706216 
L 331.910899 198.499663 
L 332.019153 179.567783 
L 332.127407 182.397378 
L 332.235662 209.21704 
L 332.45217 131.01361 
L 332.560424 135.948573 
L 332.668679 117.215153 
L 332.776933 163.206477 
L 332.885187 154.356731 
L 332.993441 162.758299 
L 333.101696 149.789447 
L 333.20995 164.632871 
L 333.426459 113.509833 
L 333.642967 144.362788 
L 333.96773 137.859757 
L 334.075984 146.790962 
L 334.184238 127.784602 
L 334.292493 129.939725 
L 334.400747 148.319386 
L 334.509001 117.022418 
L 334.617255 154.84835 
L 334.72551 130.666135 
L 334.833764 140.246939 
L 335.050273 116.701915 
L 335.158527 173.260361 
L 335.266781 114.455268 
L 335.48329 136.666988 
L 335.591544 244.880787 
L 335.808052 132.048107 
L 335.916307 161.992083 
L 336.024561 94.60772 
L 336.132815 110.681666 
L 336.241069 144.819235 
L 336.349324 126.923067 
L 336.457578 132.044245 
L 336.565832 152.130895 
L 336.674087 148.94834 
L 336.782341 139.849952 
L 336.890595 163.195758 
L 336.998849 157.029372 
L 337.107104 167.795816 
L 337.215358 115.643451 
L 337.431866 147.972414 
L 337.540121 127.607529 
L 337.648375 155.876646 
L 337.756629 122.442666 
L 337.864883 141.240637 
L 337.973138 138.683123 
L 338.297901 110.820025 
L 338.514409 134.551949 
L 338.622663 109.131185 
L 338.947426 158.092357 
L 339.05568 168.174557 
L 339.163935 120.96104 
L 339.380443 149.721741 
L 339.596952 122.032454 
L 339.81346 168.414128 
L 339.921715 160.453133 
L 340.029969 131.725507 
L 340.138223 135.238474 
L 340.246477 122.449451 
L 340.354732 135.244469 
L 340.57124 108.753011 
L 340.679494 156.089107 
L 340.787749 154.729669 
L 341.004257 116.995466 
L 341.112511 124.295271 
L 341.220766 159.612368 
L 341.32902 106.333991 
L 341.437274 185.311747 
L 341.545529 128.015426 
L 341.653783 139.979924 
L 341.762037 129.481509 
L 341.870291 183.406752 
L 341.978546 125.7376 
L 342.195054 149.306533 
L 342.303308 124.170566 
L 342.411563 129.532387 
L 342.628071 166.354235 
L 342.736325 266.541935 
L 342.84458 158.839215 
L 342.952834 191.088596 
L 343.061088 92.394059 
L 343.169343 144.802403 
L 343.277597 103.614231 
L 343.385851 125.814545 
L 343.494105 111.808176 
L 343.60236 116.059044 
L 343.710614 194.232411 
L 343.818868 107.167825 
L 344.035377 176.929784 
L 344.143631 110.22161 
L 344.251885 155.25031 
L 344.360139 151.674078 
L 344.468394 114.089313 
L 344.684902 129.442775 
L 344.793157 129.242829 
L 344.901411 120.455488 
L 345.009665 192.691212 
L 345.226174 137.097272 
L 345.334428 114.924141 
L 345.442682 133.65755 
L 345.659191 120.434238 
L 345.767445 176.662402 
L 345.875699 176.640439 
L 345.983953 167.547559 
L 346.092208 134.023368 
L 346.200462 173.903723 
L 346.416971 121.516064 
L 346.525225 185.092501 
L 346.633479 178.566354 
L 346.741733 113.940349 
L 346.849988 118.668595 
L 346.958242 130.204839 
L 347.066496 123.452838 
L 347.17475 99.157679 
L 347.499513 151.753072 
L 347.607767 137.971313 
L 347.716022 149.386713 
L 347.824276 124.693067 
L 347.93253 202.28699 
L 348.040785 116.30831 
L 348.149039 130.963504 
L 348.257293 107.386136 
L 348.365547 108.15134 
L 348.473802 150.888045 
L 348.582056 121.599788 
L 348.798564 163.568273 
L 348.906819 131.376116 
L 349.015073 143.970575 
L 349.123327 171.668519 
L 349.339836 115.867278 
L 349.44809 144.401786 
L 349.556344 119.490585 
L 349.664599 136.371711 
L 349.881107 117.746365 
L 349.989361 164.556084 
L 350.097616 123.698685 
L 350.20587 128.953397 
L 350.314124 151.938707 
L 350.422378 120.70506 
L 350.638887 137.09925 
L 350.747141 86.554574 
L 350.96365 119.939002 
L 351.071904 295.488 
L 351.288413 106.39664 
L 351.396667 169.80697 
L 351.504921 117.624971 
L 351.613175 163.462342 
L 351.72143 115.729488 
L 351.937938 164.61616 
L 352.046192 162.970088 
L 352.154447 117.503223 
L 352.262701 144.029866 
L 352.370955 231.176874 
L 352.479209 130.344629 
L 352.587464 138.859796 
L 352.695718 127.815479 
L 352.912226 165.655455 
L 353.128735 122.170513 
L 353.236989 121.684243 
L 353.345244 111.643562 
L 353.561752 140.67671 
L 353.670006 118.306702 
L 353.778261 153.310684 
L 353.886515 124.381808 
L 353.994769 146.993944 
L 354.103023 129.182984 
L 354.211278 208.513034 
L 354.319532 140.273324 
L 354.427786 143.279829 
L 354.53604 140.45808 
L 354.644295 105.254958 
L 354.752549 115.494861 
L 354.860803 89.439678 
L 354.969058 170.695668 
L 355.185566 107.492489 
L 355.29382 141.946884 
L 355.402075 134.807826 
L 355.510329 105.473874 
L 355.618583 157.877708 
L 355.726837 116.435036 
L 355.835092 177.877706 
L 355.943346 119.573092 
L 356.0516 123.101067 
L 356.159854 135.321549 
L 356.268109 255.602901 
L 356.484617 108.188878 
L 356.701126 161.687361 
L 356.80938 128.879509 
L 356.917634 185.083852 
L 357.025889 78.170197 
L 357.134143 112.346623 
L 357.242397 254.416723 
L 357.458906 130.456997 
L 357.56716 137.915296 
L 357.675414 154.350471 
L 357.783668 136.428794 
L 357.891923 185.39098 
L 358.108431 100.337994 
L 358.216686 158.763703 
L 358.433194 112.966744 
L 358.541448 153.330564 
L 358.757957 80.455153 
L 358.866211 163.497273 
L 359.08272 107.632773 
L 359.190974 120.609345 
L 359.299228 107.196091 
L 359.407482 122.341 
L 359.515737 108.637348 
L 359.623991 127.475359 
L 359.732245 117.4918 
L 359.8405 181.986182 
L 359.948754 127.557109 
L 360.057008 183.008814 
L 360.165262 137.938973 
L 360.273517 138.985391 
L 360.381771 197.024844 
L 360.598279 172.044669 
L 360.814788 136.282554 
L 360.923042 144.439352 
L 361.139551 114.488827 
L 361.247805 128.034924 
L 361.356059 120.937221 
L 361.464314 153.666211 
L 361.572568 124.389372 
L 361.680822 150.233084 
L 361.789076 131.919111 
L 361.897331 176.347593 
L 362.005585 130.066734 
L 362.113839 130.843408 
L 362.222093 113.135999 
L 362.330348 150.180354 
L 362.438602 115.685348 
L 362.65511 161.798546 
L 362.763365 170.403942 
L 362.871619 125.686144 
L 363.088128 164.978148 
L 363.304636 142.359245 
L 363.41289 141.936469 
L 363.521145 151.042697 
L 363.629399 130.559493 
L 363.737653 194.988162 
L 363.954162 112.106313 
L 364.062416 220.877752 
L 364.387179 158.252293 
L 364.495433 164.102625 
L 364.711942 107.747498 
L 364.92845 166.57358 
L 365.036704 102.156171 
L 365.253213 145.472185 
L 365.361467 154.286261 
L 365.469721 127.958063 
L 365.577976 150.444139 
L 365.68623 127.238837 
L 365.794484 152.486339 
L 366.010993 116.8229 
L 366.119247 159.883874 
L 366.227501 132.831138 
L 366.335756 170.280102 
L 366.44401 109.359205 
L 366.660518 150.711761 
L 366.768773 172.448512 
L 366.877027 68.819345 
L 367.093535 221.580447 
L 367.310044 121.691884 
L 367.418298 118.76744 
L 367.526552 120.304612 
L 367.634807 159.637495 
L 367.743061 157.801946 
L 367.851315 74.845409 
L 367.95957 169.627451 
L 368.067824 162.055665 
L 368.176078 107.410958 
L 368.284332 131.26071 
L 368.392587 119.150095 
L 368.500841 198.71 
L 368.609095 107.499202 
L 368.717349 136.02743 
L 368.825604 121.62319 
L 368.933858 148.232023 
L 369.042112 119.807495 
L 369.150366 206.408437 
L 369.366875 116.815485 
L 369.475129 97.205279 
L 369.583384 146.669219 
L 369.691638 131.56689 
L 369.799892 162.030722 
L 369.908146 132.349947 
L 370.016401 172.285125 
L 370.232909 136.631442 
L 370.341163 199.915111 
L 370.449418 115.217613 
L 370.557672 116.722722 
L 370.665926 184.26296 
L 370.77418 164.555933 
L 370.882435 115.052342 
L 370.990689 161.833951 
L 371.207198 125.745243 
L 371.315452 205.726146 
L 371.423706 168.359019 
L 371.53196 261.998405 
L 371.640215 137.596794 
L 371.748469 152.537755 
L 371.964977 102.600483 
L 372.181486 111.896654 
L 372.28974 185.661729 
L 372.397994 117.6714 
L 372.506249 167.309032 
L 372.614503 164.496088 
L 372.722757 98.690576 
L 372.831012 112.577383 
L 372.939266 144.430685 
L 373.04752 137.975606 
L 373.155774 74.575134 
L 373.264029 159.903921 
L 373.372283 93.62176 
L 373.480537 111.165375 
L 373.588791 98.165369 
L 373.697046 131.865425 
L 373.913554 98.664166 
L 374.130063 149.291562 
L 374.238317 142.367312 
L 374.346571 114.588521 
L 374.454826 137.458977 
L 374.56308 119.469952 
L 374.671334 139.874197 
L 374.779588 189.053117 
L 374.887843 137.899284 
L 374.996097 141.733789 
L 375.104351 133.782663 
L 375.429114 172.240275 
L 375.537368 136.515499 
L 375.862131 198.038397 
L 375.970385 128.801634 
L 376.07864 139.612247 
L 376.186894 102.153096 
L 376.403402 130.085394 
L 376.511657 180.758685 
L 376.619911 85.773512 
L 376.728165 121.217766 
L 376.836419 211.139743 
L 377.052928 95.94779 
L 377.161182 128.094686 
L 377.269436 126.131732 
L 377.377691 135.154244 
L 377.485945 130.530886 
L 377.594199 159.024855 
L 377.702454 119.601112 
L 377.810708 145.640941 
L 377.918962 117.303557 
L 378.135471 199.057388 
L 378.351979 134.945415 
L 378.460233 162.177344 
L 378.568488 97.851251 
L 378.676742 191.897131 
L 378.784996 68.472937 
L 378.89325 168.189361 
L 379.109759 93.613927 
L 379.218013 178.95324 
L 379.326268 121.279423 
L 379.542776 128.721739 
L 379.65103 187.853351 
L 379.759285 182.684937 
L 379.867539 128.789187 
L 379.975793 200.61871 
L 380.084047 101.717257 
L 380.40881 169.682282 
L 380.517064 128.447635 
L 380.625319 150.974583 
L 380.841827 125.71876 
L 380.950082 226.33355 
L 381.058336 102.038869 
L 381.16659 193.563323 
L 381.274844 69.323817 
L 381.383099 129.213371 
L 381.491353 94.237096 
L 381.599607 203.625834 
L 381.707861 105.340965 
L 381.816116 167.10819 
L 381.92437 85.410626 
L 382.032624 185.787967 
L 382.249133 137.752112 
L 382.357387 143.803441 
L 382.465641 85.095884 
L 382.68215 154.432227 
L 382.790404 121.309435 
L 383.006913 151.741786 
L 383.115167 239.486334 
L 383.331675 119.210785 
L 383.43993 164.59235 
L 383.548184 133.935513 
L 383.656438 202.892996 
L 383.764692 102.809067 
L 383.872947 107.980846 
L 384.089455 182.237737 
L 384.19771 107.375747 
L 384.414218 139.918163 
L 384.630727 131.091267 
L 384.738981 174.38057 
L 384.847235 107.83861 
L 384.955489 117.712712 
L 385.063744 207.91389 
L 385.171998 191.249847 
L 385.280252 124.212307 
L 385.496761 158.568864 
L 385.713269 94.96714 
L 385.821524 163.753931 
L 385.929778 91.624902 
L 386.146286 126.792211 
L 386.254541 104.191459 
L 386.362795 154.843712 
L 386.579303 91.201238 
L 386.687558 142.559547 
L 386.795812 133.169744 
L 386.904066 156.596025 
L 387.01232 137.637611 
L 387.120575 182.115654 
L 387.337083 105.386827 
L 387.445338 187.439615 
L 387.553592 180.54265 
L 387.661846 119.268391 
L 387.7701 161.90615 
L 387.878355 121.88612 
L 387.986609 139.759834 
L 388.094863 101.935269 
L 388.203117 171.699249 
L 388.52788 105.105956 
L 388.636134 131.842434 
L 388.744389 127.428951 
L 388.852643 202.768945 
L 388.960897 100.330199 
L 389.177406 154.85994 
L 389.28566 113.550352 
L 389.393914 184.869558 
L 389.610423 118.27379 
L 389.718677 127.095718 
L 389.826931 184.904107 
L 389.935186 122.077625 
L 390.04344 136.215599 
L 390.151694 120.436162 
L 390.259948 187.429439 
L 390.476457 87.847283 
L 390.80122 166.429858 
L 390.909474 178.109389 
L 391.017728 129.060829 
L 391.234237 162.358493 
L 391.342491 108.904493 
L 391.667254 125.651332 
L 391.775508 149.38941 
L 391.992017 85.25866 
L 392.100271 173.447318 
L 392.31678 141.256888 
L 392.425034 137.142644 
L 392.533288 141.194791 
L 392.749797 83.272133 
L 392.858051 138.155794 
L 392.966305 122.680137 
L 393.074559 178.013791 
L 393.291068 132.471346 
L 393.399322 151.211554 
L 393.507576 111.12212 
L 393.615831 146.832437 
L 393.724085 142.394379 
L 393.940594 197.26528 
L 394.048848 101.448221 
L 394.265356 185.444529 
L 394.373611 85.333261 
L 394.481865 148.676657 
L 394.590119 73.214256 
L 394.806628 197.906472 
L 394.914882 107.595901 
L 395.023136 153.914112 
L 395.347899 80.010255 
L 395.564408 119.36542 
L 395.672662 182.55642 
L 395.780916 123.259574 
L 395.88917 164.354766 
L 395.997425 162.174099 
L 396.105679 131.342615 
L 396.213933 171.279045 
L 396.322187 139.467486 
L 396.430442 188.868767 
L 396.64695 88.478795 
L 396.755204 117.332884 
L 396.863459 111.671388 
L 396.971713 199.834134 
L 397.079967 108.651452 
L 397.188222 180.036022 
L 397.296476 122.235771 
L 397.40473 245.560691 
L 397.621239 103.20845 
L 397.729493 109.533796 
L 397.837747 77.03314 
L 397.946001 143.10775 
L 398.054256 139.861522 
L 398.270764 103.853608 
L 398.379018 136.368032 
L 398.487273 127.973091 
L 398.487273 127.973091 
" clip-path="url(#pf21b811d91)" style="fill: none; stroke: #1f77b4; stroke-width: 1.5; stroke-linecap: square"/>
   </g>
   <g id="patch_3">
    <path d="M 57.6 307.584 
L 57.6 41.472 
" style="fill: none; stroke: #000000; stroke-width: 0.8; stroke-linejoin: miter; stroke-linecap: square"/>
   </g>
   <g id="patch_4">
    <path d="M 414.72 307.584 
L 414.72 41.472 
" style="fill: none; stroke: #000000; stroke-width: 0.8; stroke-linejoin: miter; stroke-linecap: square"/>
   </g>
   <g id="patch_5">
    <path d="M 57.6 307.584 
L 414.72 307.584 
" style="fill: none; stroke: #000000; stroke-width: 0.8; stroke-linejoin: miter; stroke-linecap: square"/>
   </g>
   <g id="patch_6">
    <path d="M 57.6 41.472 
L 414.72 41.472 
" style="fill: none; stroke: #000000; stroke-width: 0.8; stroke-linejoin: miter; stroke-linecap: square"/>
   </g>
   <g id="text_18">
    <!-- Loss curve, seed=1437 -->
    <g transform="translate(165.85125 35.472) scale(0.12 -0.12)">
     <defs>
      <path id="DejaVuSans-20" transform="scale(0.015625)"/>
      <path id="DejaVuSans-63" d="M 3122 3366 
L 3122 2828 
Q 2878 2963 2633 3030 
Q 2388 3097 2138 3097 
Q 1578 3097 1268 2742 
Q 959 2388 959 1747 
Q 959 1106 1268 751 
Q 1578 397 2138 397 
Q 2388 397 2633 464 
Q 2878 531 3122 666 
L 3122 134 
Q 2881 22 2623 -34 
Q 2366 -91 2075 -91 
Q 1284 -91 818 406 
Q 353 903 353 1747 
Q 353 2603 823 3093 
Q 1294 3584 2113 3584 
Q 2378 3584 2631 3529 
Q 2884 3475 3122 3366 
z
" transform="scale(0.015625)"/>
      <path id="DejaVuSans-75" d="M 544 1381 
L 544 3500 
L 1119 3500 
L 1119 1403 
Q 1119 906 1312 657 
Q 1506 409 1894 409 
Q 2359 409 2629 706 
Q 2900 1003 2900 1516 
L 2900 3500 
L 3475 3500 
L 3475 0 
L 2900 0 
L 2900 538 
Q 2691 219 2414 64 
Q 2138 -91 1772 -91 
Q 1169 -91 856 284 
Q 544 659 544 1381 
z
M 1991 3584 
L 1991 3584 
z
" transform="scale(0.015625)"/>
      <path id="DejaVuSans-72" d="M 2631 2963 
Q 2534 3019 2420 3045 
Q 2306 3072 2169 3072 
Q 1681 3072 1420 2755 
Q 1159 2438 1159 1844 
L 1159 0 
L 581 0 
L 581 3500 
L 1159 3500 
L 1159 2956 
Q 1341 3275 1631 3429 
Q 1922 3584 2338 3584 
Q 2397 3584 2469 3576 
Q 2541 3569 2628 3553 
L 2631 2963 
z
" transform="scale(0.015625)"/>
      <path id="DejaVuSans-76" d="M 191 3500 
L 800 3500 
L 1894 563 
L 2988 3500 
L 3597 3500 
L 2284 0 
L 1503 0 
L 191 3500 
z
" transform="scale(0.015625)"/>
      <path id="DejaVuSans-2c" d="M 750 794 
L 1409 794 
L 1409 256 
L 897 -744 
L 494 -744 
L 750 256 
L 750 794 
z
" transform="scale(0.015625)"/>
      <path id="DejaVuSans-3d" d="M 678 2906 
L 4684 2906 
L 4684 2381 
L 678 2381 
L 678 2906 
z
M 678 1631 
L 4684 1631 
L 4684 1100 
L 678 1100 
L 678 1631 
z
" transform="scale(0.015625)"/>
      <path id="DejaVuSans-37" d="M 525 4666 
L 3525 4666 
L 3525 4397 
L 1831 0 
L 1172 0 
L 2766 4134 
L 525 4134 
L 525 4666 
z
" transform="scale(0.015625)"/>
     </defs>
     <use xlink:href="#DejaVuSans-4c"/>
     <use xlink:href="#DejaVuSans-6f" transform="translate(53.962891 0)"/>
     <use xlink:href="#DejaVuSans-73" transform="translate(115.144531 0)"/>
     <use xlink:href="#DejaVuSans-73" transform="translate(167.244141 0)"/>
     <use xlink:href="#DejaVuSans-20" transform="translate(219.34375 0)"/>
     <use xlink:href="#DejaVuSans-63" transform="translate(251.130859 0)"/>
     <use xlink:href="#DejaVuSans-75" transform="translate(306.111328 0)"/>
     <use xlink:href="#DejaVuSans-72" transform="translate(369.490234 0)"/>
     <use xlink:href="#DejaVuSans-76" transform="translate(410.603516 0)"/>
     <use xlink:href="#DejaVuSans-65" transform="translate(469.783203 0)"/>
     <use xlink:href="#DejaVuSans-2c" transform="translate(531.306641 0)"/>
     <use xlink:href="#DejaVuSans-20" transform="translate(563.09375 0)"/>
     <use xlink:href="#DejaVuSans-73" transform="translate(594.880859 0)"/>
     <use xlink:href="#DejaVuSans-65" transform="translate(646.980469 0)"/>
     <use xlink:href="#DejaVuSans-65" transform="translate(708.503906 0)"/>
     <use xlink:href="#DejaVuSans-64" transform="translate(770.027344 0)"/>
     <use xlink:href="#DejaVuSans-3d" transform="translate(833.503906 0)"/>
     <use xlink:href="#DejaVuSans-31" transform="translate(917.292969 0)"/>
     <use xlink:href="#DejaVuSans-34" transform="translate(980.916016 0)"/>
     <use xlink:href="#DejaVuSans-33" transform="translate(1044.539062 0)"/>
     <use xlink:href="#DejaVuSans-37" transform="translate(1108.162109 0)"/>
    </g>
   </g>
  </g>
 </g>
 <defs>
  <clipPath id="pf21b811d91">
   <rect x="57.6" y="41.472" width="357.12" height="266.112"/>
  </clipPath>
 </defs>
</svg>
