<?xml version="1.0" encoding="utf-8" standalone="no"?>
<!DOCTYPE svg PUBLIC "-//W3C//DTD SVG 1.1//EN"
  "http://www.w3.org/Graphics/SVG/1.1/DTD/svg11.dtd">
<svg xmlns:xlink="http://www.w3.org/1999/xlink" width="460.8pt" height="345.6pt" viewBox="0 0 460.8 345.6" xmlns="http://www.w3.org/2000/svg" version="1.1">
 <metadata>
  <rdf:RDF xmlns:dc="http://purl.org/dc/elements/1.1/" xmlns:cc="http://creativecommons.org/ns#" xmlns:rdf="http://www.w3.org/1999/02/22-rdf-syntax-ns#">
   <cc:Work>
    <dc:type rdf:resource="http://purl.org/dc/dcmitype/StillImage"/>
    <dc:date>2025-01-04T19:59:16.409371</dc:date>
    <dc:format>image/svg+xml</dc:format>
    <dc:creator>
     <cc:Agent>
      <dc:title>Matplotlib v3.10.0, https://matplotlib.org/</dc:title>
     </cc:Agent>
    </dc:creator>
   </cc:Work>
  </rdf:RDF>
 </metadata>
 <defs>
  <style type="text/css">*{stroke-linejoin: round; stroke-linecap: butt}</style>
 </defs>
 <g id="figure_1">
  <g id="patch_1">
   <path d="M 0 345.6 
L 460.8 345.6 
L 460.8 0 
L 0 0 
z
" style="fill: #ffffff"/>
  </g>
  <g id="axes_1">
   <g id="patch_2">
    <path d="M 57.6 307.584 
L 414.72 307.584 
L 414.72 41.472 
L 57.6 41.472 
z
" style="fill: #ffffff"/>
   </g>
   <g id="matplotlib.axis_1">
    <g id="xtick_1">
     <g id="line2d_1">
      <defs>
       <path id="m6ac7dafd22" d="M 0 0 
L 0 3.5 
" style="stroke: #000000; stroke-width: 0.8"/>
      </defs>
      <g>
       <use xlink:href="#m6ac7dafd22" x="73.832727" y="307.584" style="stroke: #000000; stroke-width: 0.8"/>
      </g>
     </g>
     <g id="text_1">
      <!-- 0 -->
      <g transform="translate(70.651477 322.182437) scale(0.1 -0.1)">
       <defs>
        <path id="DejaVuSans-30" d="M 2034 4250 
Q 1547 4250 1301 3770 
Q 1056 3291 1056 2328 
Q 1056 1369 1301 889 
Q 1547 409 2034 409 
Q 2525 409 2770 889 
Q 3016 1369 3016 2328 
Q 3016 3291 2770 3770 
Q 2525 4250 2034 4250 
z
M 2034 4750 
Q 2819 4750 3233 4129 
Q 3647 3509 3647 2328 
Q 3647 1150 3233 529 
Q 2819 -91 2034 -91 
Q 1250 -91 836 529 
Q 422 1150 422 2328 
Q 422 3509 836 4129 
Q 1250 4750 2034 4750 
z
" transform="scale(0.015625)"/>
       </defs>
       <use xlink:href="#DejaVuSans-30"/>
      </g>
     </g>
    </g>
    <g id="xtick_2">
     <g id="line2d_2">
      <g>
       <use xlink:href="#m6ac7dafd22" x="127.959861" y="307.584" style="stroke: #000000; stroke-width: 0.8"/>
      </g>
     </g>
     <g id="text_2">
      <!-- 500 -->
      <g transform="translate(118.416111 322.182437) scale(0.1 -0.1)">
       <defs>
        <path id="DejaVuSans-35" d="M 691 4666 
L 3169 4666 
L 3169 4134 
L 1269 4134 
L 1269 2991 
Q 1406 3038 1543 3061 
Q 1681 3084 1819 3084 
Q 2600 3084 3056 2656 
Q 3513 2228 3513 1497 
Q 3513 744 3044 326 
Q 2575 -91 1722 -91 
Q 1428 -91 1123 -41 
Q 819 9 494 109 
L 494 744 
Q 775 591 1075 516 
Q 1375 441 1709 441 
Q 2250 441 2565 725 
Q 2881 1009 2881 1497 
Q 2881 1984 2565 2268 
Q 2250 2553 1709 2553 
Q 1456 2553 1204 2497 
Q 953 2441 691 2322 
L 691 4666 
z
" transform="scale(0.015625)"/>
       </defs>
       <use xlink:href="#DejaVuSans-35"/>
       <use xlink:href="#DejaVuSans-30" transform="translate(63.623047 0)"/>
       <use xlink:href="#DejaVuSans-30" transform="translate(127.246094 0)"/>
      </g>
     </g>
    </g>
    <g id="xtick_3">
     <g id="line2d_3">
      <g>
       <use xlink:href="#m6ac7dafd22" x="182.086994" y="307.584" style="stroke: #000000; stroke-width: 0.8"/>
      </g>
     </g>
     <g id="text_3">
      <!-- 1000 -->
      <g transform="translate(169.361994 322.182437) scale(0.1 -0.1)">
       <defs>
        <path id="DejaVuSans-31" d="M 794 531 
L 1825 531 
L 1825 4091 
L 703 3866 
L 703 4441 
L 1819 4666 
L 2450 4666 
L 2450 531 
L 3481 531 
L 3481 0 
L 794 0 
L 794 531 
z
" transform="scale(0.015625)"/>
       </defs>
       <use xlink:href="#DejaVuSans-31"/>
       <use xlink:href="#DejaVuSans-30" transform="translate(63.623047 0)"/>
       <use xlink:href="#DejaVuSans-30" transform="translate(127.246094 0)"/>
       <use xlink:href="#DejaVuSans-30" transform="translate(190.869141 0)"/>
      </g>
     </g>
    </g>
    <g id="xtick_4">
     <g id="line2d_4">
      <g>
       <use xlink:href="#m6ac7dafd22" x="236.214127" y="307.584" style="stroke: #000000; stroke-width: 0.8"/>
      </g>
     </g>
     <g id="text_4">
      <!-- 1500 -->
      <g transform="translate(223.489127 322.182437) scale(0.1 -0.1)">
       <use xlink:href="#DejaVuSans-31"/>
       <use xlink:href="#DejaVuSans-35" transform="translate(63.623047 0)"/>
       <use xlink:href="#DejaVuSans-30" transform="translate(127.246094 0)"/>
       <use xlink:href="#DejaVuSans-30" transform="translate(190.869141 0)"/>
      </g>
     </g>
    </g>
    <g id="xtick_5">
     <g id="line2d_5">
      <g>
       <use xlink:href="#m6ac7dafd22" x="290.34126" y="307.584" style="stroke: #000000; stroke-width: 0.8"/>
      </g>
     </g>
     <g id="text_5">
      <!-- 2000 -->
      <g transform="translate(277.61626 322.182437) scale(0.1 -0.1)">
       <defs>
        <path id="DejaVuSans-32" d="M 1228 531 
L 3431 531 
L 3431 0 
L 469 0 
L 469 531 
Q 828 903 1448 1529 
Q 2069 2156 2228 2338 
Q 2531 2678 2651 2914 
Q 2772 3150 2772 3378 
Q 2772 3750 2511 3984 
Q 2250 4219 1831 4219 
Q 1534 4219 1204 4116 
Q 875 4013 500 3803 
L 500 4441 
Q 881 4594 1212 4672 
Q 1544 4750 1819 4750 
Q 2544 4750 2975 4387 
Q 3406 4025 3406 3419 
Q 3406 3131 3298 2873 
Q 3191 2616 2906 2266 
Q 2828 2175 2409 1742 
Q 1991 1309 1228 531 
z
" transform="scale(0.015625)"/>
       </defs>
       <use xlink:href="#DejaVuSans-32"/>
       <use xlink:href="#DejaVuSans-30" transform="translate(63.623047 0)"/>
       <use xlink:href="#DejaVuSans-30" transform="translate(127.246094 0)"/>
       <use xlink:href="#DejaVuSans-30" transform="translate(190.869141 0)"/>
      </g>
     </g>
    </g>
    <g id="xtick_6">
     <g id="line2d_6">
      <g>
       <use xlink:href="#m6ac7dafd22" x="344.468394" y="307.584" style="stroke: #000000; stroke-width: 0.8"/>
      </g>
     </g>
     <g id="text_6">
      <!-- 2500 -->
      <g transform="translate(331.743394 322.182437) scale(0.1 -0.1)">
       <use xlink:href="#DejaVuSans-32"/>
       <use xlink:href="#DejaVuSans-35" transform="translate(63.623047 0)"/>
       <use xlink:href="#DejaVuSans-30" transform="translate(127.246094 0)"/>
       <use xlink:href="#DejaVuSans-30" transform="translate(190.869141 0)"/>
      </g>
     </g>
    </g>
    <g id="xtick_7">
     <g id="line2d_7">
      <g>
       <use xlink:href="#m6ac7dafd22" x="398.595527" y="307.584" style="stroke: #000000; stroke-width: 0.8"/>
      </g>
     </g>
     <g id="text_7">
      <!-- 3000 -->
      <g transform="translate(385.870527 322.182437) scale(0.1 -0.1)">
       <defs>
        <path id="DejaVuSans-33" d="M 2597 2516 
Q 3050 2419 3304 2112 
Q 3559 1806 3559 1356 
Q 3559 666 3084 287 
Q 2609 -91 1734 -91 
Q 1441 -91 1130 -33 
Q 819 25 488 141 
L 488 750 
Q 750 597 1062 519 
Q 1375 441 1716 441 
Q 2309 441 2620 675 
Q 2931 909 2931 1356 
Q 2931 1769 2642 2001 
Q 2353 2234 1838 2234 
L 1294 2234 
L 1294 2753 
L 1863 2753 
Q 2328 2753 2575 2939 
Q 2822 3125 2822 3475 
Q 2822 3834 2567 4026 
Q 2313 4219 1838 4219 
Q 1578 4219 1281 4162 
Q 984 4106 628 3988 
L 628 4550 
Q 988 4650 1302 4700 
Q 1616 4750 1894 4750 
Q 2613 4750 3031 4423 
Q 3450 4097 3450 3541 
Q 3450 3153 3228 2886 
Q 3006 2619 2597 2516 
z
" transform="scale(0.015625)"/>
       </defs>
       <use xlink:href="#DejaVuSans-33"/>
       <use xlink:href="#DejaVuSans-30" transform="translate(63.623047 0)"/>
       <use xlink:href="#DejaVuSans-30" transform="translate(127.246094 0)"/>
       <use xlink:href="#DejaVuSans-30" transform="translate(190.869141 0)"/>
      </g>
     </g>
    </g>
    <g id="text_8">
     <!-- Episode -->
     <g transform="translate(216.5225 335.860562) scale(0.1 -0.1)">
      <defs>
       <path id="DejaVuSans-45" d="M 628 4666 
L 3578 4666 
L 3578 4134 
L 1259 4134 
L 1259 2753 
L 3481 2753 
L 3481 2222 
L 1259 2222 
L 1259 531 
L 3634 531 
L 3634 0 
L 628 0 
L 628 4666 
z
" transform="scale(0.015625)"/>
       <path id="DejaVuSans-70" d="M 1159 525 
L 1159 -1331 
L 581 -1331 
L 581 3500 
L 1159 3500 
L 1159 2969 
Q 1341 3281 1617 3432 
Q 1894 3584 2278 3584 
Q 2916 3584 3314 3078 
Q 3713 2572 3713 1747 
Q 3713 922 3314 415 
Q 2916 -91 2278 -91 
Q 1894 -91 1617 61 
Q 1341 213 1159 525 
z
M 3116 1747 
Q 3116 2381 2855 2742 
Q 2594 3103 2138 3103 
Q 1681 3103 1420 2742 
Q 1159 2381 1159 1747 
Q 1159 1113 1420 752 
Q 1681 391 2138 391 
Q 2594 391 2855 752 
Q 3116 1113 3116 1747 
z
" transform="scale(0.015625)"/>
       <path id="DejaVuSans-69" d="M 603 3500 
L 1178 3500 
L 1178 0 
L 603 0 
L 603 3500 
z
M 603 4863 
L 1178 4863 
L 1178 4134 
L 603 4134 
L 603 4863 
z
" transform="scale(0.015625)"/>
       <path id="DejaVuSans-73" d="M 2834 3397 
L 2834 2853 
Q 2591 2978 2328 3040 
Q 2066 3103 1784 3103 
Q 1356 3103 1142 2972 
Q 928 2841 928 2578 
Q 928 2378 1081 2264 
Q 1234 2150 1697 2047 
L 1894 2003 
Q 2506 1872 2764 1633 
Q 3022 1394 3022 966 
Q 3022 478 2636 193 
Q 2250 -91 1575 -91 
Q 1294 -91 989 -36 
Q 684 19 347 128 
L 347 722 
Q 666 556 975 473 
Q 1284 391 1588 391 
Q 1994 391 2212 530 
Q 2431 669 2431 922 
Q 2431 1156 2273 1281 
Q 2116 1406 1581 1522 
L 1381 1569 
Q 847 1681 609 1914 
Q 372 2147 372 2553 
Q 372 3047 722 3315 
Q 1072 3584 1716 3584 
Q 2034 3584 2315 3537 
Q 2597 3491 2834 3397 
z
" transform="scale(0.015625)"/>
       <path id="DejaVuSans-6f" d="M 1959 3097 
Q 1497 3097 1228 2736 
Q 959 2375 959 1747 
Q 959 1119 1226 758 
Q 1494 397 1959 397 
Q 2419 397 2687 759 
Q 2956 1122 2956 1747 
Q 2956 2369 2687 2733 
Q 2419 3097 1959 3097 
z
M 1959 3584 
Q 2709 3584 3137 3096 
Q 3566 2609 3566 1747 
Q 3566 888 3137 398 
Q 2709 -91 1959 -91 
Q 1206 -91 779 398 
Q 353 888 353 1747 
Q 353 2609 779 3096 
Q 1206 3584 1959 3584 
z
" transform="scale(0.015625)"/>
       <path id="DejaVuSans-64" d="M 2906 2969 
L 2906 4863 
L 3481 4863 
L 3481 0 
L 2906 0 
L 2906 525 
Q 2725 213 2448 61 
Q 2172 -91 1784 -91 
Q 1150 -91 751 415 
Q 353 922 353 1747 
Q 353 2572 751 3078 
Q 1150 3584 1784 3584 
Q 2172 3584 2448 3432 
Q 2725 3281 2906 2969 
z
M 947 1747 
Q 947 1113 1208 752 
Q 1469 391 1925 391 
Q 2381 391 2643 752 
Q 2906 1113 2906 1747 
Q 2906 2381 2643 2742 
Q 2381 3103 1925 3103 
Q 1469 3103 1208 2742 
Q 947 2381 947 1747 
z
" transform="scale(0.015625)"/>
       <path id="DejaVuSans-65" d="M 3597 1894 
L 3597 1613 
L 953 1613 
Q 991 1019 1311 708 
Q 1631 397 2203 397 
Q 2534 397 2845 478 
Q 3156 559 3463 722 
L 3463 178 
Q 3153 47 2828 -22 
Q 2503 -91 2169 -91 
Q 1331 -91 842 396 
Q 353 884 353 1716 
Q 353 2575 817 3079 
Q 1281 3584 2069 3584 
Q 2775 3584 3186 3129 
Q 3597 2675 3597 1894 
z
M 3022 2063 
Q 3016 2534 2758 2815 
Q 2500 3097 2075 3097 
Q 1594 3097 1305 2825 
Q 1016 2553 972 2059 
L 3022 2063 
z
" transform="scale(0.015625)"/>
      </defs>
      <use xlink:href="#DejaVuSans-45"/>
      <use xlink:href="#DejaVuSans-70" transform="translate(63.183594 0)"/>
      <use xlink:href="#DejaVuSans-69" transform="translate(126.660156 0)"/>
      <use xlink:href="#DejaVuSans-73" transform="translate(154.443359 0)"/>
      <use xlink:href="#DejaVuSans-6f" transform="translate(206.542969 0)"/>
      <use xlink:href="#DejaVuSans-64" transform="translate(267.724609 0)"/>
      <use xlink:href="#DejaVuSans-65" transform="translate(331.201172 0)"/>
     </g>
    </g>
   </g>
   <g id="matplotlib.axis_2">
    <g id="ytick_1">
     <g id="line2d_8">
      <defs>
       <path id="m65be424bf0" d="M 0 0 
L -3.5 0 
" style="stroke: #000000; stroke-width: 0.8"/>
      </defs>
      <g>
       <use xlink:href="#m65be424bf0" x="57.6" y="304.018176" style="stroke: #000000; stroke-width: 0.8"/>
      </g>
     </g>
     <g id="text_9">
      <!-- −0.025 -->
      <g transform="translate(13.592188 307.817394) scale(0.1 -0.1)">
       <defs>
        <path id="DejaVuSans-2212" d="M 678 2272 
L 4684 2272 
L 4684 1741 
L 678 1741 
L 678 2272 
z
" transform="scale(0.015625)"/>
        <path id="DejaVuSans-2e" d="M 684 794 
L 1344 794 
L 1344 0 
L 684 0 
L 684 794 
z
" transform="scale(0.015625)"/>
       </defs>
       <use xlink:href="#DejaVuSans-2212"/>
       <use xlink:href="#DejaVuSans-30" transform="translate(83.789062 0)"/>
       <use xlink:href="#DejaVuSans-2e" transform="translate(147.412109 0)"/>
       <use xlink:href="#DejaVuSans-30" transform="translate(179.199219 0)"/>
       <use xlink:href="#DejaVuSans-32" transform="translate(242.822266 0)"/>
       <use xlink:href="#DejaVuSans-35" transform="translate(306.445312 0)"/>
      </g>
     </g>
    </g>
    <g id="ytick_2">
     <g id="line2d_9">
      <g>
       <use xlink:href="#m65be424bf0" x="57.6" y="266.698234" style="stroke: #000000; stroke-width: 0.8"/>
      </g>
     </g>
     <g id="text_10">
      <!-- −0.020 -->
      <g transform="translate(13.592188 270.497453) scale(0.1 -0.1)">
       <use xlink:href="#DejaVuSans-2212"/>
       <use xlink:href="#DejaVuSans-30" transform="translate(83.789062 0)"/>
       <use xlink:href="#DejaVuSans-2e" transform="translate(147.412109 0)"/>
       <use xlink:href="#DejaVuSans-30" transform="translate(179.199219 0)"/>
       <use xlink:href="#DejaVuSans-32" transform="translate(242.822266 0)"/>
       <use xlink:href="#DejaVuSans-30" transform="translate(306.445312 0)"/>
      </g>
     </g>
    </g>
    <g id="ytick_3">
     <g id="line2d_10">
      <g>
       <use xlink:href="#m65be424bf0" x="57.6" y="229.378293" style="stroke: #000000; stroke-width: 0.8"/>
      </g>
     </g>
     <g id="text_11">
      <!-- −0.015 -->
      <g transform="translate(13.592188 233.177512) scale(0.1 -0.1)">
       <use xlink:href="#DejaVuSans-2212"/>
       <use xlink:href="#DejaVuSans-30" transform="translate(83.789062 0)"/>
       <use xlink:href="#DejaVuSans-2e" transform="translate(147.412109 0)"/>
       <use xlink:href="#DejaVuSans-30" transform="translate(179.199219 0)"/>
       <use xlink:href="#DejaVuSans-31" transform="translate(242.822266 0)"/>
       <use xlink:href="#DejaVuSans-35" transform="translate(306.445312 0)"/>
      </g>
     </g>
    </g>
    <g id="ytick_4">
     <g id="line2d_11">
      <g>
       <use xlink:href="#m65be424bf0" x="57.6" y="192.058352" style="stroke: #000000; stroke-width: 0.8"/>
      </g>
     </g>
     <g id="text_12">
      <!-- −0.010 -->
      <g transform="translate(13.592188 195.85757) scale(0.1 -0.1)">
       <use xlink:href="#DejaVuSans-2212"/>
       <use xlink:href="#DejaVuSans-30" transform="translate(83.789062 0)"/>
       <use xlink:href="#DejaVuSans-2e" transform="translate(147.412109 0)"/>
       <use xlink:href="#DejaVuSans-30" transform="translate(179.199219 0)"/>
       <use xlink:href="#DejaVuSans-31" transform="translate(242.822266 0)"/>
       <use xlink:href="#DejaVuSans-30" transform="translate(306.445312 0)"/>
      </g>
     </g>
    </g>
    <g id="ytick_5">
     <g id="line2d_12">
      <g>
       <use xlink:href="#m65be424bf0" x="57.6" y="154.73841" style="stroke: #000000; stroke-width: 0.8"/>
      </g>
     </g>
     <g id="text_13">
      <!-- −0.005 -->
      <g transform="translate(13.592188 158.537629) scale(0.1 -0.1)">
       <use xlink:href="#DejaVuSans-2212"/>
       <use xlink:href="#DejaVuSans-30" transform="translate(83.789062 0)"/>
       <use xlink:href="#DejaVuSans-2e" transform="translate(147.412109 0)"/>
       <use xlink:href="#DejaVuSans-30" transform="translate(179.199219 0)"/>
       <use xlink:href="#DejaVuSans-30" transform="translate(242.822266 0)"/>
       <use xlink:href="#DejaVuSans-35" transform="translate(306.445312 0)"/>
      </g>
     </g>
    </g>
    <g id="ytick_6">
     <g id="line2d_13">
      <g>
       <use xlink:href="#m65be424bf0" x="57.6" y="117.418469" style="stroke: #000000; stroke-width: 0.8"/>
      </g>
     </g>
     <g id="text_14">
      <!-- 0.000 -->
      <g transform="translate(21.971875 121.217688) scale(0.1 -0.1)">
       <use xlink:href="#DejaVuSans-30"/>
       <use xlink:href="#DejaVuSans-2e" transform="translate(63.623047 0)"/>
       <use xlink:href="#DejaVuSans-30" transform="translate(95.410156 0)"/>
       <use xlink:href="#DejaVuSans-30" transform="translate(159.033203 0)"/>
       <use xlink:href="#DejaVuSans-30" transform="translate(222.65625 0)"/>
      </g>
     </g>
    </g>
    <g id="ytick_7">
     <g id="line2d_14">
      <g>
       <use xlink:href="#m65be424bf0" x="57.6" y="80.098528" style="stroke: #000000; stroke-width: 0.8"/>
      </g>
     </g>
     <g id="text_15">
      <!-- 0.005 -->
      <g transform="translate(21.971875 83.897747) scale(0.1 -0.1)">
       <use xlink:href="#DejaVuSans-30"/>
       <use xlink:href="#DejaVuSans-2e" transform="translate(63.623047 0)"/>
       <use xlink:href="#DejaVuSans-30" transform="translate(95.410156 0)"/>
       <use xlink:href="#DejaVuSans-30" transform="translate(159.033203 0)"/>
       <use xlink:href="#DejaVuSans-35" transform="translate(222.65625 0)"/>
      </g>
     </g>
    </g>
    <g id="ytick_8">
     <g id="line2d_15">
      <g>
       <use xlink:href="#m65be424bf0" x="57.6" y="42.778586" style="stroke: #000000; stroke-width: 0.8"/>
      </g>
     </g>
     <g id="text_16">
      <!-- 0.010 -->
      <g transform="translate(21.971875 46.577805) scale(0.1 -0.1)">
       <use xlink:href="#DejaVuSans-30"/>
       <use xlink:href="#DejaVuSans-2e" transform="translate(63.623047 0)"/>
       <use xlink:href="#DejaVuSans-30" transform="translate(95.410156 0)"/>
       <use xlink:href="#DejaVuSans-31" transform="translate(159.033203 0)"/>
       <use xlink:href="#DejaVuSans-30" transform="translate(222.65625 0)"/>
      </g>
     </g>
    </g>
    <g id="text_17">
     <!-- Loss -->
     <g transform="translate(7.5125 185.495187) rotate(-90) scale(0.1 -0.1)">
      <defs>
       <path id="DejaVuSans-4c" d="M 628 4666 
L 1259 4666 
L 1259 531 
L 3531 531 
L 3531 0 
L 628 0 
L 628 4666 
z
" transform="scale(0.015625)"/>
      </defs>
      <use xlink:href="#DejaVuSans-4c"/>
      <use xlink:href="#DejaVuSans-6f" transform="translate(53.962891 0)"/>
      <use xlink:href="#DejaVuSans-73" transform="translate(115.144531 0)"/>
      <use xlink:href="#DejaVuSans-73" transform="translate(167.244141 0)"/>
     </g>
    </g>
   </g>
   <g id="line2d_16">
    <path d="M 73.832727 100.34479 
L 73.940982 116.756532 
L 74.049236 114.194617 
L 74.265744 75.837777 
L 74.373999 90.086429 
L 74.482253 63.734196 
L 74.590507 108.295581 
L 74.698761 53.568 
L 75.023524 126.15182 
L 75.131778 148.909343 
L 75.240033 134.214991 
L 75.456541 92.395132 
L 75.564796 148.386578 
L 75.67305 115.542617 
L 75.781304 158.182061 
L 75.889558 107.206119 
L 75.997813 112.338781 
L 76.106067 134.923268 
L 76.214321 129.869372 
L 76.322575 142.388341 
L 76.539084 117.019805 
L 76.647338 140.04453 
L 76.755592 127.695512 
L 76.863847 128.153748 
L 76.972101 187.072215 
L 77.18861 125.894428 
L 77.296864 128.40856 
L 77.405118 166.646545 
L 77.513372 102.595081 
L 77.621627 123.726794 
L 77.838135 113.111683 
L 77.946389 122.740855 
L 78.054644 113.705933 
L 78.162898 122.038399 
L 78.271152 114.317677 
L 78.379406 88.308815 
L 78.595915 113.189762 
L 78.704169 112.338046 
L 78.812424 102.327657 
L 78.920678 110.845718 
L 79.028932 107.199229 
L 79.137186 108.586791 
L 79.245441 134.083414 
L 79.461949 111.820146 
L 79.570203 120.083618 
L 79.786712 72.078891 
L 79.894966 116.975402 
L 80.00322 91.548899 
L 80.111475 93.229082 
L 80.219729 120.345726 
L 80.327983 117.615759 
L 80.436238 110.723231 
L 80.544492 82.432896 
L 80.652746 148.411565 
L 80.869255 113.528006 
L 81.194017 141.307501 
L 81.410526 114.363943 
L 81.51878 143.518311 
L 81.627034 141.746905 
L 81.735289 128.117998 
L 81.843543 128.124029 
L 81.951797 125.849225 
L 82.060052 106.996241 
L 82.168306 114.072297 
L 82.384814 143.279644 
L 82.601323 117.086522 
L 82.709577 130.82622 
L 82.817831 93.153515 
L 82.926086 97.197326 
L 83.142594 148.155153 
L 83.250848 110.774147 
L 83.467357 148.829027 
L 83.683866 115.212133 
L 83.79212 160.534231 
L 84.116883 84.709984 
L 84.225137 119.011356 
L 84.333391 112.092115 
L 84.441645 91.816118 
L 84.658154 133.94883 
L 84.766408 143.957112 
L 84.874662 115.535605 
L 84.982917 118.105579 
L 85.091171 140.684843 
L 85.30768 99.344236 
L 85.415934 131.36763 
L 85.524188 117.119966 
L 85.632442 142.512457 
L 85.740697 132.216033 
L 85.848951 108.645658 
L 85.957205 154.826887 
L 86.173714 113.330372 
L 86.281968 151.047386 
L 86.390222 138.151303 
L 86.498476 105.787003 
L 86.606731 123.935975 
L 86.714985 106.956697 
L 86.823239 129.646032 
L 86.931494 126.749505 
L 87.039748 152.496012 
L 87.148002 107.686357 
L 87.364511 139.19153 
L 87.581019 125.595696 
L 87.797528 121.20853 
L 87.905782 131.969372 
L 88.014036 166.355161 
L 88.230545 114.575742 
L 88.447053 136.243175 
L 88.555308 133.331963 
L 88.663562 295.488 
L 88.771816 116.874431 
L 88.88007 129.946152 
L 89.096579 123.687355 
L 89.204833 106.407481 
L 89.313087 145.060341 
L 89.421342 112.999547 
L 89.529596 138.904207 
L 89.63785 127.090603 
L 89.746104 131.491134 
L 89.854359 122.202441 
L 89.962613 126.175553 
L 90.070867 141.983177 
L 90.179122 126.008351 
L 90.39563 146.633854 
L 90.612139 135.680615 
L 90.720393 121.035912 
L 90.936901 139.960664 
L 91.045156 126.937383 
L 91.15341 127.192673 
L 91.261664 132.52667 
L 91.369918 129.002121 
L 91.478173 117.589809 
L 91.802936 128.200407 
L 91.91119 109.051069 
L 92.019444 136.364544 
L 92.127698 136.106215 
L 92.452461 121.895011 
L 92.66897 128.772589 
L 92.777224 124.510168 
L 92.885478 133.539677 
L 92.993732 126.113149 
L 93.210241 128.358923 
L 93.318495 144.381561 
L 93.42675 134.267219 
L 93.535004 135.850258 
L 93.643258 134.071557 
L 93.751512 122.330789 
L 93.859767 128.512299 
L 93.968021 122.471892 
L 94.076275 127.188767 
L 94.184529 126.479848 
L 94.401038 130.488247 
L 94.509292 124.897109 
L 94.617546 138.553543 
L 94.725801 128.612041 
L 94.834055 130.209788 
L 94.942309 113.801943 
L 95.158818 121.856885 
L 95.267072 126.609057 
L 95.483581 119.588694 
L 95.591835 128.831431 
L 95.700089 120.907033 
L 95.808343 121.637142 
L 95.916598 119.791802 
L 96.133106 130.210212 
L 96.349615 122.808622 
L 96.457869 117.186486 
L 96.566123 118.169843 
L 96.782632 131.296041 
L 96.890886 129.407668 
L 96.99914 122.668092 
L 97.107395 126.13121 
L 97.323903 115.839399 
L 97.432157 117.176619 
L 97.540412 131.257592 
L 97.75692 117.420759 
L 97.865174 119.338424 
L 97.973429 125.420209 
L 98.189937 119.775494 
L 98.298192 122.402388 
L 98.406446 128.468427 
L 98.5147 123.265043 
L 98.622954 123.373323 
L 98.839463 133.36552 
L 98.947717 120.279195 
L 99.164226 127.779149 
L 99.27248 121.397944 
L 99.380734 127.877291 
L 99.597243 117.408281 
L 99.813751 126.033036 
L 99.922006 123.267451 
L 100.03026 123.457309 
L 100.138514 117.541451 
L 100.246768 130.921405 
L 100.355023 118.331469 
L 100.463277 123.853678 
L 100.571531 115.233745 
L 100.679785 127.69107 
L 100.896294 118.283818 
L 101.004548 123.41565 
L 101.112802 114.243983 
L 101.329311 130.454374 
L 101.54582 123.316296 
L 101.654074 131.167201 
L 101.870582 121.974562 
L 101.978837 122.090766 
L 102.087091 116.497468 
L 102.195345 131.271548 
L 102.303599 124.119053 
L 102.520108 128.981618 
L 102.844871 122.126979 
L 102.953125 131.012666 
L 103.061379 126.121321 
L 103.169634 137.60853 
L 103.386142 119.84286 
L 103.494396 117.395392 
L 103.602651 117.430999 
L 103.710905 121.417702 
L 103.927413 119.329763 
L 104.143922 124.858397 
L 104.36043 123.113346 
L 104.468685 117.156524 
L 104.576939 125.414195 
L 104.685193 121.840089 
L 104.901702 130.782711 
L 105.009956 121.814002 
L 105.11821 128.110959 
L 105.226465 123.741086 
L 105.334719 123.784342 
L 105.442973 119.854815 
L 105.767736 126.623708 
L 105.87599 120.63068 
L 106.092499 126.469533 
L 106.525516 117.146991 
L 106.742024 127.159896 
L 106.850279 125.529588 
L 106.958533 120.543552 
L 107.175041 126.611777 
L 107.283296 123.329772 
L 107.39155 123.812534 
L 107.499804 118.06552 
L 107.608058 123.818364 
L 107.824567 114.236992 
L 108.041076 123.774685 
L 108.14933 124.193723 
L 108.257584 119.965813 
L 108.474093 121.235266 
L 108.582347 118.050141 
L 108.798855 119.846432 
L 108.90711 116.795703 
L 109.231872 126.63549 
L 109.448381 118.990405 
L 109.66489 122.784479 
L 109.881398 117.698875 
L 110.097907 124.158825 
L 110.206161 115.559666 
L 110.639178 122.193057 
L 110.747432 120.214462 
L 110.963941 131.854154 
L 111.072195 123.960817 
L 111.180449 130.688574 
L 111.288704 129.142202 
L 111.505212 120.234317 
L 111.613466 127.988341 
L 111.721721 117.981687 
L 111.829975 118.786592 
L 112.046483 123.937792 
L 112.154738 121.861029 
L 112.262992 124.98811 
L 112.371246 114.350328 
L 112.587755 118.01201 
L 112.804263 119.265846 
L 112.912518 119.195293 
L 113.020772 117.452224 
L 113.129026 119.077887 
L 113.23728 117.528319 
L 113.562043 123.831259 
L 113.670297 117.312423 
L 113.778552 117.404762 
L 113.886806 116.186862 
L 113.99506 116.351527 
L 114.103314 117.622473 
L 114.536332 114.08426 
L 114.75284 119.931626 
L 114.861094 119.966482 
L 114.969349 116.133539 
L 115.077603 118.463902 
L 115.185857 116.005782 
L 115.402366 119.765916 
L 115.51062 121.651151 
L 115.618874 117.713142 
L 115.727128 117.835401 
L 115.835383 137.492223 
L 116.051891 119.772014 
L 116.160146 119.276097 
L 116.2684 115.05175 
L 116.484908 122.563335 
L 116.701417 115.989268 
L 117.02618 120.5481 
L 117.350942 116.794893 
L 117.567451 121.740659 
L 117.675705 114.252493 
L 117.78396 118.954494 
L 117.892214 117.671561 
L 118.000468 122.173843 
L 118.108722 118.940569 
L 118.216977 121.500617 
L 118.325231 119.557757 
L 118.433485 121.144481 
L 118.541739 118.163956 
L 118.649994 118.747346 
L 118.758248 117.658364 
L 118.866502 120.699388 
L 118.974756 118.904107 
L 119.083011 122.068156 
L 119.191265 121.399953 
L 119.299519 118.710217 
L 119.407774 126.733765 
L 119.624282 118.313069 
L 119.732536 124.162833 
L 119.949045 117.413476 
L 120.057299 119.23265 
L 120.165553 118.842819 
L 120.382062 115.991282 
L 120.490316 116.648762 
L 120.59857 114.703939 
L 120.815079 119.786545 
L 121.031587 118.547607 
L 121.139842 118.450696 
L 121.248096 116.246044 
L 121.35635 119.796245 
L 121.464605 119.618718 
L 121.572859 119.684402 
L 121.681113 121.206001 
L 121.897622 116.901073 
L 122.11413 118.81558 
L 122.222384 117.927392 
L 122.330639 119.790365 
L 122.438893 116.662052 
L 122.547147 118.260501 
L 122.655401 117.601679 
L 122.763656 123.662663 
L 122.87191 118.670201 
L 123.088419 124.711914 
L 123.196673 124.327426 
L 123.413181 117.074042 
L 123.521436 115.595918 
L 123.846198 119.607203 
L 124.062707 117.393439 
L 124.170961 120.445462 
L 124.279215 116.102359 
L 124.38747 116.327982 
L 124.495724 119.757122 
L 124.603978 116.092981 
L 124.712233 116.10519 
L 124.820487 114.394291 
L 125.036995 120.108309 
L 125.14525 114.958275 
L 125.253504 120.532505 
L 125.361758 119.071535 
L 125.470012 121.034553 
L 125.578267 116.523948 
L 125.794775 119.216312 
L 126.011284 120.697346 
L 126.227792 118.588384 
L 126.336047 118.181341 
L 126.444301 119.482852 
L 126.552555 117.256908 
L 126.660809 121.119404 
L 126.877318 116.128555 
L 126.985572 117.702525 
L 127.093826 116.216851 
L 127.202081 116.539444 
L 127.418589 119.506671 
L 127.526843 119.356631 
L 127.635098 117.772232 
L 127.743352 120.025014 
L 127.959861 117.707677 
L 128.068115 123.414773 
L 128.392878 116.799815 
L 128.501132 115.018001 
L 128.71764 115.655857 
L 128.825895 115.290023 
L 128.934149 119.793449 
L 129.042403 117.176327 
L 129.258912 120.739914 
L 129.367166 120.194845 
L 129.47542 115.915616 
L 129.583675 119.428702 
L 129.691929 119.337967 
L 129.908437 117.359237 
L 130.124946 119.137699 
L 130.449709 116.684796 
L 130.557963 117.463977 
L 130.666217 123.528031 
L 130.774471 115.409073 
L 131.099234 119.841683 
L 131.207489 115.274577 
L 131.532251 122.892018 
L 131.640506 118.832169 
L 131.857014 123.868506 
L 131.965268 115.848131 
L 132.181777 122.580209 
L 132.398285 114.987799 
L 132.723048 123.229536 
L 132.831303 118.287942 
L 132.939557 118.410892 
L 133.047811 117.568699 
L 133.372574 120.18003 
L 133.480828 120.148298 
L 133.589082 119.279795 
L 133.697337 120.269559 
L 133.805591 116.13682 
L 133.913845 117.790442 
L 134.022099 117.2614 
L 134.130354 114.999022 
L 134.238608 115.993998 
L 134.455117 121.19236 
L 134.563371 115.349543 
L 134.779879 119.489707 
L 134.888134 115.505644 
L 134.996388 119.015031 
L 135.104642 117.129747 
L 135.212896 119.806191 
L 135.321151 116.669017 
L 135.429405 121.087984 
L 135.537659 117.103721 
L 135.754168 119.303462 
L 135.862422 117.057405 
L 135.970676 117.535043 
L 136.078931 119.045292 
L 136.187185 117.181823 
L 136.295439 119.358792 
L 136.403693 118.777079 
L 136.511948 120.385709 
L 136.728456 117.691774 
L 136.83671 120.182665 
L 136.944965 118.936223 
L 137.053219 120.391758 
L 137.161473 120.374102 
L 137.269727 120.142923 
L 137.377982 116.556422 
L 137.486236 120.969547 
L 137.59449 118.330935 
L 137.702745 119.391706 
L 137.810999 117.764686 
L 137.919253 118.387056 
L 138.027507 121.86598 
L 138.135762 115.377669 
L 138.35227 118.976267 
L 138.460524 115.095717 
L 138.568779 117.56021 
L 138.677033 114.061687 
L 138.785287 121.921557 
L 138.893541 116.419397 
L 139.001796 121.062827 
L 139.11005 115.155485 
L 139.218304 118.553879 
L 139.326559 116.027387 
L 139.434813 118.074144 
L 139.543067 115.189866 
L 139.759576 118.241831 
L 139.86783 118.48543 
L 140.084338 119.340569 
L 140.192593 118.408796 
L 140.300847 119.012513 
L 140.409101 118.434205 
L 140.517355 120.889279 
L 140.62561 119.7467 
L 140.733864 124.140899 
L 140.842118 119.072182 
L 140.950373 119.148391 
L 141.058627 122.763649 
L 141.166881 117.769569 
L 141.275135 119.100647 
L 141.38339 116.137943 
L 141.599898 122.423438 
L 141.816407 120.36395 
L 142.032915 115.959263 
L 142.141169 118.399013 
L 142.249424 116.801802 
L 142.357678 117.407133 
L 142.465932 116.552892 
L 142.682441 117.410159 
L 142.790695 116.575534 
L 142.898949 114.111378 
L 143.007204 116.578165 
L 143.115458 113.834864 
L 143.223712 117.371038 
L 143.331966 114.537104 
L 143.440221 116.779092 
L 143.548475 116.772171 
L 143.656729 116.475029 
L 143.873238 118.450071 
L 143.981492 117.674595 
L 144.089746 124.560585 
L 144.198001 118.944035 
L 144.306255 120.919884 
L 144.631018 115.023311 
L 144.847526 116.138725 
L 144.95578 119.528935 
L 145.064035 127.269105 
L 145.280543 122.251592 
L 145.497052 116.044774 
L 145.605306 116.581714 
L 145.71356 127.832962 
L 145.821815 114.322607 
L 145.930069 118.555238 
L 146.038323 117.027738 
L 146.254832 117.234429 
L 146.47134 119.784494 
L 146.579594 119.805813 
L 146.687849 119.24706 
L 147.012611 115.542929 
L 147.120866 115.166322 
L 147.22912 117.507002 
L 147.337374 116.814657 
L 147.445629 117.173231 
L 147.662137 114.569064 
L 147.878646 116.917209 
L 147.9869 120.182809 
L 148.095154 119.646475 
L 148.203408 117.217059 
L 148.311663 119.398473 
L 148.419917 115.200778 
L 148.528171 117.931449 
L 148.636425 114.809368 
L 148.852934 123.112893 
L 149.069443 118.772716 
L 149.177697 119.231224 
L 149.285951 118.167882 
L 149.50246 119.929495 
L 149.610714 114.229685 
L 149.718968 118.907974 
L 149.827222 116.683379 
L 149.935477 120.794456 
L 150.043731 120.697178 
L 150.151985 118.33762 
L 150.260239 121.599926 
L 150.476748 119.724494 
L 150.693257 118.35601 
L 150.801511 117.18974 
L 150.909765 123.996042 
L 151.018019 116.614978 
L 151.234528 118.321193 
L 151.342782 117.394653 
L 151.451036 120.579044 
L 151.667545 114.232967 
L 151.775799 120.705438 
L 151.884053 114.983262 
L 151.992308 118.356693 
L 152.100562 118.340757 
L 152.208816 115.983253 
L 152.425325 120.110509 
L 152.641833 114.717851 
L 152.858342 117.728712 
L 152.966596 121.765794 
L 153.07485 115.428431 
L 153.291359 120.336145 
L 153.399613 114.879373 
L 153.507867 118.218616 
L 153.616122 115.788886 
L 153.724376 120.749315 
L 153.83263 117.199117 
L 153.940885 118.483229 
L 154.049139 123.032342 
L 154.157393 114.987649 
L 154.265647 116.995999 
L 154.373902 116.946368 
L 154.482156 123.270496 
L 154.59041 116.853961 
L 154.698664 121.291439 
L 154.806919 116.87453 
L 154.915173 117.103899 
L 155.023427 119.966178 
L 155.131681 119.447686 
L 155.239936 116.679056 
L 155.456444 121.581039 
L 155.564699 119.7578 
L 155.672953 120.183842 
L 155.781207 119.039599 
L 155.997716 113.335868 
L 156.214224 117.847145 
L 156.322478 113.747797 
L 156.430733 120.702791 
L 156.538987 115.68038 
L 156.647241 116.597515 
L 156.755495 115.411315 
L 156.86375 116.880554 
L 156.972004 116.641604 
L 157.080258 117.373045 
L 157.188513 116.193774 
L 157.296767 116.390651 
L 157.405021 116.341918 
L 157.513275 114.451499 
L 157.729784 123.473254 
L 157.838038 118.035953 
L 157.946292 118.461021 
L 158.054547 116.278743 
L 158.162801 116.952843 
L 158.271055 120.269325 
L 158.487564 116.984021 
L 158.595818 118.061204 
L 158.704072 120.288126 
L 158.812327 119.258106 
L 159.028835 120.318889 
L 159.137089 119.29968 
L 159.245344 119.652302 
L 159.353598 119.568573 
L 159.461852 116.808478 
L 159.678361 118.142032 
L 159.786615 119.006651 
L 159.894869 116.956597 
L 160.111378 121.026163 
L 160.219632 120.490465 
L 160.436141 115.064577 
L 160.544395 115.198762 
L 160.652649 116.751544 
L 160.977412 114.77119 
L 161.19392 117.341242 
L 161.410429 116.325436 
L 161.518683 119.524984 
L 161.626937 116.433827 
L 161.843446 118.447259 
L 161.9517 115.019423 
L 162.168209 120.540361 
L 162.492972 116.91556 
L 162.601226 119.458658 
L 162.70948 119.262306 
L 162.925989 122.36836 
L 163.034243 120.091761 
L 163.142497 120.289016 
L 163.250751 113.67045 
L 163.46726 120.743712 
L 163.575514 113.364737 
L 163.683769 120.61117 
L 163.792023 116.838774 
L 163.900277 118.620821 
L 164.008531 117.089789 
L 164.116786 120.324312 
L 164.22504 118.049852 
L 164.333294 111.317978 
L 164.549803 117.88464 
L 164.658057 117.53023 
L 164.766311 114.937215 
L 164.98282 115.794802 
L 165.091074 115.10933 
L 165.307583 118.53046 
L 165.524091 114.586157 
L 165.632345 114.971366 
L 165.7406 114.657599 
L 165.848854 113.610511 
L 165.957108 114.822636 
L 166.065362 118.374213 
L 166.173617 117.626664 
L 166.281871 120.366529 
L 166.390125 118.794828 
L 166.498379 119.48289 
L 166.606634 118.588934 
L 166.714888 124.994033 
L 166.931397 119.333545 
L 167.039651 119.429966 
L 167.147905 120.428227 
L 167.364414 117.926985 
L 167.472668 120.194684 
L 167.580922 115.851328 
L 167.797431 119.049856 
L 168.013939 121.545031 
L 168.122193 119.601139 
L 168.230448 120.119123 
L 168.338702 119.54127 
L 168.446956 120.250643 
L 168.555211 115.855841 
L 168.663465 119.290664 
L 168.988228 117.318709 
L 169.096482 121.018454 
L 169.31299 116.821214 
L 169.421245 117.062194 
L 169.529499 120.153039 
L 169.637753 119.090717 
L 169.746007 120.637222 
L 169.854262 118.481184 
L 170.07077 120.816506 
L 170.179025 120.426345 
L 170.395533 116.605535 
L 170.503787 115.958605 
L 170.612042 117.836027 
L 170.720296 113.900589 
L 170.936804 118.617758 
L 171.045059 114.399329 
L 171.261567 118.446048 
L 171.369821 117.524838 
L 171.478076 118.325284 
L 171.58633 120.355422 
L 171.802839 117.195024 
L 172.127601 124.226035 
L 172.235856 118.668866 
L 172.34411 120.926386 
L 172.560618 117.064094 
L 172.668873 120.054769 
L 172.777127 116.530769 
L 172.885381 119.319115 
L 172.993635 118.276169 
L 173.10189 119.658199 
L 173.318398 115.596858 
L 173.426653 117.039568 
L 173.534907 114.034003 
L 173.643161 114.326111 
L 173.85967 119.769049 
L 173.967924 119.240954 
L 174.184432 117.785009 
L 174.292687 117.635433 
L 174.400941 114.729563 
L 174.617449 118.381135 
L 174.833958 114.320637 
L 174.942212 120.364565 
L 175.050467 119.379086 
L 175.158721 117.200869 
L 175.266975 120.551331 
L 175.483484 116.198751 
L 175.591738 117.316973 
L 175.699992 116.98538 
L 175.808246 118.869822 
L 175.916501 116.871362 
L 176.024755 119.031904 
L 176.133009 118.272919 
L 176.241263 119.644833 
L 176.349518 116.22789 
L 176.457772 116.773271 
L 176.566026 120.154319 
L 176.674281 118.140723 
L 176.782535 121.692216 
L 176.999043 116.225811 
L 177.107298 117.076557 
L 177.215552 114.733348 
L 177.323806 115.530334 
L 177.43206 118.679404 
L 177.648569 117.490235 
L 177.756823 116.831126 
L 177.865077 118.545381 
L 178.081586 115.664418 
L 178.18984 115.582076 
L 178.298095 115.900344 
L 178.406349 117.920599 
L 178.514603 117.207621 
L 178.622857 122.053951 
L 178.839366 117.145799 
L 178.94762 121.13979 
L 179.055874 115.622502 
L 179.164129 115.986834 
L 179.272383 115.738038 
L 179.488891 117.299527 
L 179.7054 115.839243 
L 179.813654 117.983091 
L 179.921909 117.797687 
L 180.030163 118.16195 
L 180.138417 115.547967 
L 180.246671 118.136315 
L 180.354926 118.108485 
L 180.46318 114.785214 
L 180.679688 117.329719 
L 180.787943 116.19227 
L 180.896197 117.534058 
L 181.004451 121.98093 
L 181.112705 120.309964 
L 181.22096 114.130696 
L 181.329214 120.788927 
L 181.437468 116.720787 
L 181.545723 116.836651 
L 181.653977 115.430645 
L 181.870485 119.553817 
L 181.97874 118.006196 
L 182.086994 118.514745 
L 182.195248 113.774869 
L 182.303502 117.070631 
L 182.411757 116.453809 
L 182.520011 118.071181 
L 182.736519 115.527885 
L 182.844774 115.989203 
L 182.953028 117.238943 
L 183.061282 113.331763 
L 183.169537 117.982524 
L 183.277791 114.653858 
L 183.386045 117.398967 
L 183.494299 114.912411 
L 183.710808 115.826987 
L 183.819062 115.70331 
L 184.035571 120.674347 
L 184.143825 113.917692 
L 184.252079 116.710293 
L 184.360333 115.995882 
L 184.576842 120.195229 
L 184.685096 117.048543 
L 184.793351 118.094144 
L 184.901605 116.628067 
L 185.009859 117.30109 
L 185.226368 114.909117 
L 185.334622 114.933718 
L 185.55113 117.83885 
L 185.659385 115.956515 
L 185.767639 116.306351 
L 185.984147 115.124995 
L 186.092402 117.065545 
L 186.30891 114.252357 
L 186.417165 115.967714 
L 186.525419 115.653837 
L 186.633673 114.825378 
L 186.741927 115.219458 
L 186.850182 112.383849 
L 186.958436 112.43001 
L 187.283199 117.639044 
L 187.607961 114.317901 
L 187.716216 118.110225 
L 187.82447 115.617437 
L 188.040979 117.713587 
L 188.149233 117.447369 
L 188.257487 118.919677 
L 188.365741 116.328817 
L 188.58225 118.488356 
L 188.798758 123.868074 
L 189.015267 115.92983 
L 189.231775 119.098762 
L 189.34003 121.084593 
L 189.448284 120.852404 
L 189.556538 123.673921 
L 189.664793 119.897019 
L 189.773047 120.464531 
L 189.881301 123.174363 
L 190.206064 116.154665 
L 190.314318 119.80115 
L 190.422572 116.113377 
L 190.530827 117.245583 
L 190.639081 113.849222 
L 190.855589 114.157631 
L 190.963844 113.548408 
L 191.072098 118.921329 
L 191.180352 112.821759 
L 191.288607 112.857626 
L 191.396861 112.417671 
L 191.505115 111.334734 
L 191.613369 118.659741 
L 191.721624 117.011963 
L 191.829878 117.243698 
L 192.046386 114.782311 
L 192.154641 117.278391 
L 192.262895 117.015714 
L 192.371149 118.504808 
L 192.479403 117.868821 
L 192.587658 116.154669 
L 192.804166 120.005158 
L 192.912421 119.658535 
L 193.020675 120.437274 
L 193.128929 116.580909 
L 193.345438 122.110207 
L 193.453692 117.399881 
L 193.561946 119.966355 
L 193.778455 116.56596 
L 193.886709 118.838971 
L 193.994963 118.488541 
L 194.103217 116.651327 
L 194.211472 121.047178 
L 194.42798 117.779722 
L 194.644489 115.549409 
L 194.752743 116.285226 
L 194.860997 115.223806 
L 194.969252 116.895302 
L 195.077506 115.050925 
L 195.18576 116.455929 
L 195.294014 116.418827 
L 195.402269 116.540528 
L 195.510523 117.071772 
L 195.618777 118.252284 
L 195.727031 116.40754 
L 195.835286 116.545918 
L 195.94354 118.835868 
L 196.160049 115.788393 
L 196.376557 118.816576 
L 196.484811 118.359151 
L 196.593066 118.779604 
L 196.70132 120.980021 
L 196.809574 120.618834 
L 196.917828 118.26435 
L 197.026083 118.327241 
L 197.134337 117.879855 
L 197.350845 115.585683 
L 197.567354 117.20033 
L 197.675608 115.515981 
L 197.783862 117.97565 
L 197.892117 115.509459 
L 198.000371 117.984721 
L 198.108625 115.309758 
L 198.325134 117.926558 
L 198.433388 115.777724 
L 198.541642 117.821969 
L 198.649897 116.329954 
L 198.758151 119.637196 
L 199.082914 115.752977 
L 199.191168 117.666218 
L 199.299422 117.23704 
L 199.407676 117.290757 
L 199.515931 116.440504 
L 199.624185 118.085734 
L 199.840694 115.547675 
L 199.948948 115.534692 
L 200.165456 117.605639 
L 200.273711 116.383587 
L 200.381965 116.886369 
L 200.490219 120.413026 
L 200.706728 115.797614 
L 201.03149 119.006371 
L 201.139745 116.842291 
L 201.247999 120.707933 
L 201.464508 115.514015 
L 201.572762 117.367328 
L 201.78927 116.292966 
L 202.005779 121.157819 
L 202.114033 114.180634 
L 202.222287 115.875031 
L 202.330542 120.908015 
L 202.54705 114.330589 
L 202.980067 119.341742 
L 203.088322 117.42139 
L 203.30483 119.687226 
L 203.413084 116.133836 
L 203.521339 118.27016 
L 203.629593 118.086991 
L 203.846101 119.902549 
L 203.954356 118.558665 
L 204.06261 118.757108 
L 204.170864 121.304009 
L 204.387373 117.164117 
L 204.495627 116.255793 
L 204.603881 117.925149 
L 204.82039 117.45174 
L 204.928644 117.249004 
L 205.036898 118.128923 
L 205.145153 116.274732 
L 205.253407 118.713781 
L 205.361661 117.652122 
L 205.469915 121.683675 
L 205.794678 113.486968 
L 205.902932 111.355923 
L 206.011187 112.792684 
L 206.227695 119.619849 
L 206.33595 116.085874 
L 206.444204 121.665277 
L 206.768967 114.507307 
L 206.985475 119.33033 
L 207.093729 115.869973 
L 207.310238 120.618878 
L 207.418492 118.769954 
L 207.526746 119.551833 
L 207.635001 117.285319 
L 207.743255 117.469454 
L 207.851509 119.708534 
L 207.959764 112.542115 
L 208.068018 119.038784 
L 208.176272 113.970117 
L 208.392781 118.378483 
L 208.501035 113.755263 
L 208.609289 119.163449 
L 208.717543 113.898608 
L 208.825798 115.552512 
L 208.934052 113.605674 
L 209.15056 117.811751 
L 209.258815 116.998116 
L 209.367069 118.701276 
L 209.583578 116.932595 
L 209.90834 120.401637 
L 210.016595 123.450635 
L 210.124849 117.734775 
L 210.233103 123.032851 
L 210.449612 117.821875 
L 210.557866 119.917555 
L 210.66612 119.470222 
L 210.774374 117.59792 
L 210.882629 119.812036 
L 210.990883 114.168043 
L 211.099137 114.187336 
L 211.207392 119.745037 
L 211.315646 115.39048 
L 211.532154 117.083629 
L 211.640409 115.515979 
L 211.748663 116.525325 
L 211.965171 113.642817 
L 212.18168 118.08222 
L 212.398188 115.847348 
L 212.506443 117.587373 
L 212.614697 114.749462 
L 212.831206 116.562747 
L 212.93946 114.719922 
L 213.155968 119.067583 
L 213.264223 122.662605 
L 213.372477 116.62769 
L 213.69724 121.790459 
L 213.805494 116.119957 
L 213.913748 116.267653 
L 214.022002 116.870577 
L 214.238511 120.818803 
L 214.346765 118.042185 
L 214.45502 119.36343 
L 214.563274 119.28954 
L 214.671528 113.178177 
L 214.888037 118.11777 
L 214.996291 116.12401 
L 215.104545 121.19814 
L 215.429308 112.129176 
L 215.537562 113.241112 
L 215.645816 112.851525 
L 215.970579 123.65478 
L 216.078834 115.253672 
L 216.187088 121.681687 
L 216.403596 115.209019 
L 216.620105 121.159443 
L 216.728359 119.653317 
L 216.836613 124.025899 
L 216.944868 117.637746 
L 217.053122 122.647968 
L 217.377885 110.87817 
L 217.486139 112.169426 
L 217.594393 109.801957 
L 217.702648 114.713804 
L 217.810902 109.885737 
L 217.919156 121.274817 
L 218.135665 111.364714 
L 218.243919 113.905399 
L 218.352173 111.945289 
L 218.460427 112.067899 
L 218.676936 119.602522 
L 219.001699 123.146365 
L 219.434716 118.15108 
L 219.651224 121.1285 
L 219.759479 115.21532 
L 219.867733 119.231815 
L 219.975987 112.1232 
L 220.192496 114.541588 
L 220.30075 121.370842 
L 220.409004 118.648069 
L 220.625513 122.149766 
L 220.733767 126.625257 
L 220.950276 119.731647 
L 221.05853 121.988501 
L 221.166784 119.592965 
L 221.383293 124.406972 
L 221.491547 120.714768 
L 221.599801 123.486442 
L 221.81631 121.356604 
L 221.924564 122.842669 
L 222.141072 118.175956 
L 222.249327 118.669071 
L 222.357581 120.048274 
L 222.57409 114.26763 
L 222.682344 115.140497 
L 222.790598 113.707774 
L 222.898852 114.31636 
L 223.007107 113.050814 
L 223.223615 114.323715 
L 223.440124 112.473635 
L 223.548378 113.839542 
L 223.656632 113.057918 
L 223.873141 115.44 
L 223.981395 117.318639 
L 224.089649 116.074357 
L 224.197904 116.251277 
L 224.306158 115.948949 
L 224.414412 121.241493 
L 224.522666 118.150153 
L 224.630921 120.606948 
L 224.739175 118.296631 
L 224.847429 118.603208 
L 224.955683 117.623483 
L 225.063938 120.406309 
L 225.172192 117.143415 
L 225.280446 118.10107 
L 225.3887 117.38352 
L 225.496955 118.22575 
L 225.605209 117.52514 
L 225.713463 118.244375 
L 225.929972 116.639298 
L 226.038226 115.616231 
L 226.14648 117.571178 
L 226.362989 114.7483 
L 226.471243 117.546323 
L 226.579497 115.761561 
L 226.687752 117.175726 
L 226.796006 116.136109 
L 226.90426 117.595636 
L 227.229023 115.757673 
L 227.337277 118.874663 
L 227.445532 117.084086 
L 227.553786 117.717148 
L 227.66204 116.010667 
L 227.770294 116.869451 
L 227.986803 115.776659 
L 228.095057 115.97983 
L 228.311566 118.564855 
L 228.528074 115.718894 
L 228.636328 117.017759 
L 228.744583 120.553668 
L 228.852837 118.605548 
L 228.961091 118.742371 
L 229.069346 115.293478 
L 229.1776 115.966855 
L 229.285854 118.791687 
L 229.394108 117.391826 
L 229.610617 118.70394 
L 229.827125 116.999693 
L 229.93538 118.761825 
L 230.043634 116.072938 
L 230.151888 116.425364 
L 230.368397 118.697798 
L 230.476651 118.18241 
L 230.584905 119.385439 
L 230.69316 115.013083 
L 230.801414 115.643645 
L 231.017922 117.989805 
L 231.126177 116.56132 
L 231.342685 118.249324 
L 231.450939 117.862853 
L 231.559194 117.998513 
L 231.667448 116.7678 
L 231.775702 116.995051 
L 231.883956 116.937302 
L 231.992211 117.954209 
L 232.100465 116.957104 
L 232.208719 117.529735 
L 232.316974 116.102928 
L 232.425228 120.756873 
L 232.533482 115.598862 
L 232.641736 117.55633 
L 232.749991 116.405877 
L 232.858245 118.818114 
L 232.966499 115.959988 
L 233.074753 116.159703 
L 233.183008 117.228456 
L 233.291262 116.305203 
L 233.399516 117.960599 
L 233.50777 116.870194 
L 233.616025 114.208724 
L 233.832533 117.501714 
L 233.940788 116.724297 
L 234.049042 117.057722 
L 234.157296 116.968237 
L 234.26555 120.786489 
L 234.482059 115.476887 
L 234.590313 116.088298 
L 234.698567 117.106378 
L 235.131584 115.443498 
L 235.348093 117.011131 
L 235.456347 116.712549 
L 235.564602 119.310065 
L 235.672856 117.480147 
L 235.78111 118.108638 
L 235.889364 117.832495 
L 235.997619 117.094317 
L 236.214127 118.292363 
L 236.322381 119.48315 
L 236.53889 117.778387 
L 236.755398 116.384432 
L 236.863653 116.623909 
L 236.971907 116.372726 
L 237.080161 117.683038 
L 237.188416 116.784955 
L 237.29667 117.238529 
L 237.404924 116.76217 
L 237.621433 118.743954 
L 237.837941 114.355491 
L 237.946195 114.568776 
L 238.162704 117.20355 
L 238.270958 116.748436 
L 238.379212 118.049153 
L 238.703975 115.317932 
L 238.81223 119.247517 
L 239.028738 116.011079 
L 239.136992 116.289175 
L 239.245247 118.148057 
L 239.353501 116.054726 
L 239.570009 118.959865 
L 239.678264 117.113369 
L 239.786518 120.499271 
L 240.003026 116.569624 
L 240.111281 116.092328 
L 240.327789 118.523389 
L 240.436044 118.140875 
L 240.652552 117.76799 
L 240.869061 114.809407 
L 240.977315 116.864799 
L 241.085569 116.441428 
L 241.193823 118.895424 
L 241.302078 118.848598 
L 241.518586 114.944281 
L 241.62684 118.533743 
L 241.735095 116.469352 
L 241.843349 116.510798 
L 241.951603 116.656441 
L 242.059858 117.362193 
L 242.168112 119.138382 
L 242.276366 118.914052 
L 242.492875 118.026706 
L 242.601129 117.942597 
L 242.817637 117.371277 
L 242.925892 118.70439 
L 243.034146 118.414291 
L 243.1424 117.515793 
L 243.250654 117.575373 
L 243.358909 118.402556 
L 243.467163 117.931068 
L 243.575417 116.36542 
L 243.683672 118.802742 
L 243.791926 118.186287 
L 243.90018 118.599873 
L 244.008434 116.813738 
L 244.224943 117.385479 
L 244.333197 116.6488 
L 244.441451 118.603617 
L 244.549706 115.938353 
L 244.65796 117.293555 
L 244.766214 116.262398 
L 244.982723 118.929733 
L 245.199231 115.504154 
L 245.307486 115.693273 
L 245.523994 117.591633 
L 245.632248 116.615743 
L 245.740503 117.876376 
L 245.957011 115.03288 
L 246.17352 116.0766 
L 246.281774 115.407438 
L 246.498282 118.275601 
L 246.606537 117.438068 
L 246.714791 118.901426 
L 246.823045 118.854581 
L 246.9313 117.576683 
L 247.039554 119.917812 
L 247.147808 118.204153 
L 247.256062 119.575629 
L 247.472571 118.165154 
L 247.580825 118.289042 
L 247.689079 118.874811 
L 247.905588 118.7862 
L 248.013842 118.230927 
L 248.230351 116.242113 
L 248.338605 117.558374 
L 248.555114 114.737644 
L 248.771622 118.273356 
L 248.879876 116.691257 
L 248.988131 119.219648 
L 249.204639 116.94638 
L 249.312893 117.412826 
L 249.421148 113.43379 
L 249.637656 116.469266 
L 249.74591 116.206447 
L 249.854165 115.422637 
L 249.962419 116.405091 
L 250.070673 120.59917 
L 250.287182 115.051795 
L 250.395436 115.167734 
L 250.50369 115.56909 
L 250.720199 125.664673 
L 250.936707 114.770099 
L 251.044962 119.175737 
L 251.26147 116.178557 
L 251.369724 116.697511 
L 251.477979 114.328124 
L 251.586233 118.26749 
L 251.802742 116.103785 
L 251.910996 118.074135 
L 252.01925 115.577794 
L 252.127504 120.150853 
L 252.235759 117.264529 
L 252.344013 121.055952 
L 252.452267 121.037532 
L 252.668776 116.691933 
L 252.885284 121.38875 
L 253.101793 118.499622 
L 253.210047 118.209825 
L 253.318301 115.966292 
L 253.426556 116.548099 
L 253.643064 119.14154 
L 253.751318 119.998092 
L 253.967827 114.241067 
L 254.184335 115.563109 
L 254.29259 114.817703 
L 254.400844 115.135078 
L 254.509098 117.274494 
L 254.617352 116.008014 
L 254.725607 117.721708 
L 254.833861 117.513582 
L 254.942115 117.849392 
L 255.05037 117.682671 
L 255.158624 117.919059 
L 255.591641 120.983917 
L 255.916404 118.026577 
L 256.024658 117.142863 
L 256.241166 117.624448 
L 256.349421 117.128365 
L 256.457675 117.28253 
L 256.890692 115.952361 
L 256.998946 116.957324 
L 257.107201 116.675829 
L 257.215455 117.7823 
L 257.323709 117.059421 
L 257.431963 118.02833 
L 257.648472 116.937012 
L 257.756726 116.53973 
L 257.973235 117.55781 
L 258.081489 117.95489 
L 258.189743 117.452924 
L 258.297998 119.367558 
L 258.406252 118.572817 
L 258.514506 119.828786 
L 258.731015 116.381131 
L 258.839269 116.085075 
L 259.055777 122.058933 
L 259.272286 118.57362 
L 259.597049 113.147221 
L 259.705303 114.201289 
L 259.921812 120.071827 
L 260.030066 120.680866 
L 260.246574 114.727535 
L 260.354829 113.550471 
L 260.571337 117.518019 
L 260.679591 119.380348 
L 260.787846 119.211192 
L 261.112608 117.127338 
L 261.329117 116.555106 
L 261.545626 118.891468 
L 261.762134 116.916092 
L 261.870388 117.640637 
L 261.978643 116.953208 
L 262.195151 118.314544 
L 262.303405 117.482881 
L 262.41166 118.656359 
L 262.519914 116.539433 
L 262.628168 116.779234 
L 262.736422 116.619205 
L 262.844677 117.049946 
L 262.952931 116.232206 
L 263.061185 116.415167 
L 263.277694 117.012861 
L 263.385948 116.250085 
L 263.494202 116.416981 
L 263.602457 115.800118 
L 263.710711 118.194574 
L 263.818965 116.822189 
L 263.927219 121.675972 
L 264.143728 114.945535 
L 264.251982 117.029203 
L 264.360236 116.16139 
L 264.468491 116.197879 
L 264.684999 118.061654 
L 264.793254 117.247214 
L 264.901508 117.966981 
L 265.009762 110.405655 
L 265.226271 119.345166 
L 265.334525 121.060828 
L 265.551033 118.594701 
L 265.659288 119.058214 
L 265.875796 115.959784 
L 265.98405 116.887163 
L 266.200559 116.469161 
L 266.308813 115.280248 
L 266.417068 117.03381 
L 266.525322 114.887781 
L 266.633576 117.142165 
L 266.74183 116.805787 
L 266.850085 118.071509 
L 266.958339 116.657434 
L 267.066593 119.571321 
L 267.283102 114.928632 
L 267.49961 120.170678 
L 267.607864 121.243197 
L 267.716119 117.665341 
L 267.824373 118.899362 
L 268.040882 116.848131 
L 268.149136 116.383111 
L 268.365644 117.244507 
L 268.473899 123.372922 
L 268.690407 118.109741 
L 268.798661 119.427461 
L 268.906916 117.056715 
L 269.01517 118.51221 
L 269.123424 116.220933 
L 269.556441 118.654096 
L 269.881204 114.216399 
L 269.989458 112.601185 
L 270.097713 121.351674 
L 270.314221 114.45083 
L 270.53073 119.152744 
L 270.638984 114.738404 
L 270.747238 120.228742 
L 270.963747 114.875785 
L 271.396764 118.978471 
L 271.613272 116.536485 
L 271.721527 118.760358 
L 271.829781 116.464757 
L 271.938035 116.604954 
L 272.046289 118.205695 
L 272.154544 123.223944 
L 272.262798 112.971439 
L 272.371052 116.774886 
L 272.479306 114.314434 
L 272.587561 115.910615 
L 272.695815 114.146408 
L 272.804069 117.563656 
L 272.912324 115.699376 
L 273.128832 117.635045 
L 273.237086 122.414008 
L 273.561849 113.829897 
L 273.670103 114.280874 
L 273.778358 115.838811 
L 273.886612 122.007533 
L 274.10312 118.707515 
L 274.211375 119.309412 
L 274.319629 117.278149 
L 274.427883 121.473206 
L 274.536138 116.976131 
L 274.644392 118.403107 
L 274.8609 116.927683 
L 274.969155 121.229623 
L 275.185663 116.778073 
L 275.293917 117.287637 
L 275.402172 117.181546 
L 275.510426 117.961413 
L 275.726934 115.756583 
L 275.943443 121.220004 
L 276.159951 119.282682 
L 276.268206 118.983442 
L 276.37646 119.326966 
L 276.592969 119.023862 
L 276.701223 120.010702 
L 276.809477 117.086048 
L 276.917731 119.230484 
L 277.025986 118.681517 
L 277.13424 116.577525 
L 277.242494 117.948073 
L 277.459003 116.58156 
L 277.567257 118.107826 
L 277.783765 114.978934 
L 278.108528 118.213997 
L 278.216783 117.809641 
L 278.433291 115.945655 
L 278.541545 120.336398 
L 278.758054 114.325791 
L 278.866308 117.407204 
L 279.082817 116.87716 
L 279.299325 111.553225 
L 279.407579 108.373173 
L 279.515834 108.520829 
L 279.732342 111.942162 
L 279.840597 113.509203 
L 279.948851 119.916731 
L 280.165359 118.38674 
L 280.273614 123.578939 
L 280.381868 123.298882 
L 280.490122 126.897599 
L 280.598376 124.352452 
L 280.814885 127.411067 
L 281.139648 118.041568 
L 281.789173 110.86665 
L 281.897428 112.268205 
L 282.005682 111.965965 
L 282.113936 110.189257 
L 282.330445 112.297737 
L 282.438699 111.531349 
L 282.546953 112.181206 
L 282.763462 115.401539 
L 283.088225 117.11536 
L 283.196479 117.819555 
L 283.304733 117.481439 
L 283.412987 120.554949 
L 283.521242 120.11895 
L 283.73775 117.862062 
L 283.846004 118.963676 
L 283.954259 114.321314 
L 284.062513 114.713181 
L 284.170767 112.488688 
L 284.279021 114.627227 
L 284.49553 113.087108 
L 284.603784 117.448054 
L 284.712039 113.975256 
L 284.928547 119.038089 
L 285.145056 115.729916 
L 285.361564 118.163329 
L 285.469818 117.434937 
L 285.794581 112.503378 
L 285.902835 115.378027 
L 286.01109 114.976787 
L 286.119344 113.768571 
L 286.227598 113.787351 
L 286.444107 116.861809 
L 286.552361 114.089974 
L 286.76887 116.369669 
L 286.877124 115.70112 
L 287.093632 121.304814 
L 287.310141 114.929524 
L 287.418395 118.190537 
L 287.634904 116.017548 
L 287.851412 117.52401 
L 287.959667 117.438756 
L 288.176175 115.171736 
L 288.284429 117.178893 
L 288.392684 115.860275 
L 288.825701 119.41739 
L 288.933955 118.334863 
L 289.042209 121.936012 
L 289.366972 115.894283 
L 289.475226 117.636389 
L 289.583481 116.214095 
L 289.691735 116.632329 
L 289.908243 114.563583 
L 290.016498 115.797493 
L 290.233006 110.482849 
L 290.666023 119.850042 
L 290.882532 113.796258 
L 290.990786 115.9828 
L 291.09904 113.11183 
L 291.207295 119.803255 
L 291.423803 114.488414 
L 291.640312 122.335885 
L 291.748566 116.662679 
L 291.85682 118.698214 
L 291.965074 116.041683 
L 292.073329 116.899843 
L 292.181583 111.588855 
L 292.289837 113.324517 
L 292.398091 116.865322 
L 292.506346 113.092484 
L 292.6146 116.230961 
L 292.722854 115.390755 
L 292.831109 118.909095 
L 293.047617 112.856241 
L 293.155871 114.687587 
L 293.264126 114.612715 
L 293.480634 117.110952 
L 293.588888 116.216404 
L 293.805397 118.133982 
L 293.913651 116.137785 
L 294.238414 121.312049 
L 294.346668 117.319578 
L 294.563177 118.234684 
L 294.88794 114.023415 
L 295.104448 117.061944 
L 295.212702 113.475856 
L 295.537465 118.234509 
L 295.645719 118.052164 
L 295.753974 120.268765 
L 295.862228 117.726544 
L 295.970482 120.320267 
L 296.186991 116.346266 
L 296.295245 117.83282 
L 296.403499 113.519383 
L 296.620008 116.765276 
L 296.728262 115.27363 
L 296.836516 115.344469 
L 296.944771 116.367498 
L 297.053025 118.896861 
L 297.269533 116.685924 
L 297.377788 115.958939 
L 297.594296 117.28647 
L 297.702551 121.030133 
L 297.810805 118.786475 
L 297.919059 118.794752 
L 298.027313 116.768731 
L 298.135568 119.047168 
L 298.243822 115.296294 
L 298.352076 117.897669 
L 298.46033 116.74764 
L 298.568585 117.798964 
L 298.676839 117.517417 
L 298.785093 115.325817 
L 299.001602 118.23535 
L 299.109856 114.414206 
L 299.326365 117.91873 
L 299.434619 113.848436 
L 299.542873 114.057693 
L 299.759382 118.192934 
L 299.97589 116.452722 
L 300.084144 115.770359 
L 300.192399 116.507351 
L 300.300653 121.43516 
L 300.408907 119.445644 
L 300.517161 120.652364 
L 300.841924 115.784339 
L 300.950179 116.837326 
L 301.058433 119.568126 
L 301.166687 115.388688 
L 301.274941 116.199555 
L 301.383196 119.671257 
L 301.599704 116.454772 
L 301.707958 114.943733 
L 301.816213 117.035421 
L 301.924467 114.676725 
L 302.140975 117.735782 
L 302.24923 117.112971 
L 302.357484 118.338924 
L 302.465738 116.106675 
L 302.573993 120.251233 
L 302.682247 117.756508 
L 302.790501 118.828952 
L 302.898755 116.473077 
L 303.00701 118.175406 
L 303.115264 117.627364 
L 303.223518 119.340596 
L 303.440027 113.556172 
L 303.548281 116.010491 
L 303.764789 114.717964 
L 303.981298 119.05687 
L 304.089552 120.046141 
L 304.306061 115.532115 
L 304.630824 118.279727 
L 304.739078 121.638304 
L 304.847332 121.142237 
L 304.955586 118.804684 
L 305.063841 120.683743 
L 305.172095 118.343911 
L 305.280349 118.656343 
L 305.388603 117.296919 
L 305.496858 117.711402 
L 305.605112 116.860855 
L 305.929875 118.336804 
L 306.038129 119.988854 
L 306.146383 117.905059 
L 306.254638 119.316238 
L 306.471146 116.142045 
L 306.5794 117.100735 
L 306.687655 121.214833 
L 306.795909 118.208418 
L 306.904163 119.140853 
L 307.120672 124.713986 
L 307.228926 118.482621 
L 307.33718 118.772241 
L 307.445435 122.16854 
L 307.661943 116.076983 
L 307.770197 118.888708 
L 307.878452 117.86456 
L 307.986706 119.04657 
L 308.09496 119.025449 
L 308.203214 119.695858 
L 308.311469 118.461614 
L 308.419723 118.675221 
L 308.636231 117.381279 
L 308.744486 117.240093 
L 308.85274 117.963936 
L 309.069249 116.408172 
L 309.177503 117.246466 
L 309.285757 122.464809 
L 309.502266 117.648168 
L 309.61052 118.630451 
L 309.718774 115.449224 
L 309.827028 116.171664 
L 309.935283 118.912758 
L 310.043537 115.839403 
L 310.260045 119.870124 
L 310.584808 116.506024 
L 310.693063 119.877117 
L 310.909571 118.165854 
L 311.017825 116.936168 
L 311.234334 118.104599 
L 311.342588 120.096755 
L 311.559097 118.565785 
L 311.775605 118.286181 
L 311.883859 118.809141 
L 311.992114 118.312388 
L 312.100368 118.73358 
L 312.208622 116.45408 
L 312.425131 117.364172 
L 312.533385 116.209921 
L 312.641639 119.022256 
L 312.749894 114.776537 
L 313.074656 119.006209 
L 313.291165 115.748581 
L 313.399419 118.771586 
L 313.507673 115.605471 
L 313.615928 117.339453 
L 313.724182 115.896507 
L 313.832436 118.805524 
L 313.940691 118.560595 
L 314.157199 116.368663 
L 314.265453 118.777156 
L 314.373708 118.567387 
L 314.590216 114.325512 
L 314.69847 115.812422 
L 314.806725 112.944331 
L 315.131487 119.361067 
L 315.347996 118.663047 
L 315.564505 115.949573 
L 315.781013 117.853588 
L 315.997522 117.332517 
L 316.105776 116.022994 
L 316.21403 116.641849 
L 316.322284 120.598714 
L 316.430539 120.322754 
L 316.538793 116.120733 
L 316.755301 117.088502 
L 316.863556 120.80332 
L 317.080064 114.970511 
L 317.188319 114.504333 
L 317.404827 117.810383 
L 317.621336 116.337592 
L 317.72959 116.849943 
L 317.837844 118.630699 
L 317.946098 114.27599 
L 318.054353 119.89748 
L 318.162607 115.24638 
L 318.379115 119.605566 
L 318.48737 118.326852 
L 318.595624 119.538652 
L 318.812133 116.600548 
L 318.920387 119.701114 
L 319.028641 115.68604 
L 319.136895 116.722788 
L 319.24515 120.261602 
L 319.353404 119.271403 
L 319.461658 121.721614 
L 319.569912 120.277627 
L 319.678167 120.597501 
L 320.002929 115.70082 
L 320.111184 119.891068 
L 320.219438 117.427985 
L 320.327692 118.426675 
L 320.435947 116.140749 
L 320.544201 119.938179 
L 320.652455 118.812773 
L 320.868964 115.929271 
L 320.977218 116.017856 
L 321.193726 118.657794 
L 321.301981 117.955386 
L 321.410235 118.373343 
L 321.518489 117.302788 
L 321.626743 117.966548 
L 321.734998 117.536833 
L 321.843252 118.282927 
L 321.951506 118.207562 
L 322.059761 116.991699 
L 322.168015 117.772088 
L 322.276269 115.072528 
L 322.384523 115.159224 
L 322.492778 118.048035 
L 322.81754 115.158966 
L 322.925795 120.650489 
L 323.034049 117.332862 
L 323.142303 121.623131 
L 323.250557 117.883444 
L 323.358812 118.734091 
L 323.57532 116.861368 
L 323.791829 120.234409 
L 323.900083 119.466447 
L 324.008337 121.384875 
L 324.224846 120.16961 
L 324.3331 121.445443 
L 324.441354 124.155153 
L 324.657863 114.608319 
L 324.874371 116.710221 
L 324.982626 116.915928 
L 325.09088 117.378272 
L 325.199134 116.807411 
L 325.415643 114.4584 
L 325.523897 115.836259 
L 325.632151 115.793326 
L 325.740406 116.195892 
L 325.84866 118.153553 
L 325.956914 117.146274 
L 326.065168 119.676485 
L 326.173423 116.976026 
L 326.281677 119.709791 
L 326.389931 117.251403 
L 326.498185 117.259939 
L 326.60644 116.153088 
L 326.714694 118.360312 
L 327.039457 117.103122 
L 327.147711 116.805252 
L 327.255965 118.019374 
L 327.36422 117.179924 
L 327.580728 113.858367 
L 327.688982 116.962071 
L 327.905491 115.096934 
L 328.013745 124.897082 
L 328.121999 115.87329 
L 328.230254 117.07209 
L 328.446762 115.441656 
L 328.555017 115.969967 
L 328.663271 117.10181 
L 328.771525 116.555508 
L 328.988034 119.424748 
L 329.096288 117.855989 
L 329.204542 119.919718 
L 329.421051 115.399775 
L 329.529305 122.378653 
L 329.854068 117.361276 
L 329.962322 119.379792 
L 330.178831 117.335673 
L 330.287085 119.707183 
L 330.503593 116.960508 
L 330.720102 120.390006 
L 330.93661 115.460194 
L 331.153119 117.426782 
L 331.261373 116.820956 
L 331.477882 120.335646 
L 331.69439 117.349883 
L 331.802645 115.975012 
L 331.910899 122.673531 
L 332.127407 118.490346 
L 332.343916 119.565348 
L 332.45217 119.146494 
L 332.560424 122.680563 
L 332.776933 116.188799 
L 332.885187 120.614167 
L 332.993441 116.459825 
L 333.101696 121.889975 
L 333.20995 116.147387 
L 333.318204 117.001327 
L 333.534713 116.81295 
L 333.642967 114.137459 
L 333.751221 116.720515 
L 333.859476 114.599201 
L 334.075984 115.773381 
L 334.184238 115.24814 
L 334.292493 118.007226 
L 334.509001 116.484731 
L 334.617255 117.980776 
L 334.833764 116.610334 
L 335.050273 117.763411 
L 335.158527 120.79774 
L 335.375035 116.330727 
L 335.48329 117.546728 
L 335.699798 115.884443 
L 335.808052 116.530346 
L 335.916307 116.08123 
L 336.024561 118.352979 
L 336.132815 115.928767 
L 336.241069 116.483461 
L 336.349324 117.962112 
L 336.674087 116.039909 
L 336.998849 117.723203 
L 337.107104 119.093592 
L 337.215358 116.529059 
L 337.323612 116.679104 
L 337.431866 115.456358 
L 337.540121 117.171584 
L 337.648375 117.097786 
L 337.756629 115.61084 
L 337.864883 118.813651 
L 338.081392 116.360856 
L 338.189646 114.861504 
L 338.297901 118.295388 
L 338.514409 115.992303 
L 338.622663 119.143539 
L 338.730918 115.373249 
L 338.839172 121.356272 
L 338.947426 116.178239 
L 339.05568 118.014844 
L 339.163935 116.27624 
L 339.272189 120.184031 
L 339.380443 118.235357 
L 339.488697 119.298999 
L 339.596952 118.163596 
L 339.705206 118.229146 
L 339.921715 119.814126 
L 340.029969 119.538575 
L 340.246477 116.881071 
L 340.354732 114.39976 
L 340.462986 114.708232 
L 340.57124 117.41886 
L 340.679494 115.592373 
L 340.787749 116.288146 
L 340.896003 114.718052 
L 341.112511 119.721408 
L 341.220766 115.380352 
L 341.32902 115.558895 
L 341.437274 116.155022 
L 341.545529 118.679168 
L 341.762037 115.093236 
L 341.870291 122.788055 
L 342.0868 115.42477 
L 342.195054 116.503053 
L 342.411563 115.847051 
L 342.519817 116.668255 
L 342.628071 114.97068 
L 342.736325 115.756079 
L 342.84458 118.052535 
L 342.952834 115.471757 
L 343.061088 116.225063 
L 343.169343 115.341426 
L 343.277597 116.156557 
L 343.494105 115.13227 
L 343.60236 115.52034 
L 343.710614 117.317445 
L 343.818868 116.277921 
L 343.927122 116.775122 
L 344.143631 116.235267 
L 344.251885 117.081512 
L 344.468394 119.050673 
L 344.576648 115.508811 
L 344.684902 118.093238 
L 344.793157 115.958819 
L 344.901411 116.031937 
L 345.009665 116.6915 
L 345.117919 118.960456 
L 345.226174 116.580459 
L 345.334428 117.267999 
L 345.442682 121.678979 
L 345.550936 120.767682 
L 345.767445 117.292355 
L 345.875699 117.962108 
L 346.092208 115.858322 
L 346.308716 117.288231 
L 346.416971 117.105486 
L 346.525225 120.368309 
L 346.741733 116.77442 
L 346.849988 116.462247 
L 347.17475 123.679298 
L 347.283005 119.310798 
L 347.391259 119.40355 
L 347.499513 115.115851 
L 347.607767 119.169884 
L 347.716022 116.273342 
L 347.93253 125.594669 
L 348.149039 113.09215 
L 348.257293 112.574462 
L 348.365547 115.555035 
L 348.473802 113.845245 
L 348.906819 118.775416 
L 349.015073 116.396374 
L 349.123327 117.163175 
L 349.231581 116.973217 
L 349.339836 118.006406 
L 349.44809 117.036259 
L 349.556344 121.149239 
L 349.664599 117.637134 
L 349.772853 117.947292 
L 349.881107 125.489626 
L 350.097616 117.296595 
L 350.20587 119.527554 
L 350.422378 116.214747 
L 350.530633 115.631467 
L 350.638887 115.863313 
L 350.747141 115.674649 
L 350.855395 115.885762 
L 350.96365 118.347248 
L 351.180158 115.486923 
L 351.396667 116.981559 
L 351.504921 115.884359 
L 351.613175 116.96993 
L 351.72143 116.884915 
L 351.829684 115.978143 
L 351.937938 116.038264 
L 352.046192 115.46159 
L 352.370955 117.134497 
L 352.479209 118.607801 
L 352.695718 118.167898 
L 352.803972 120.789721 
L 353.020481 116.801156 
L 353.128735 118.462211 
L 353.236989 117.561193 
L 353.345244 120.59392 
L 353.453498 116.617174 
L 353.561752 116.968302 
L 353.670006 119.311975 
L 353.778261 117.822784 
L 353.886515 120.242647 
L 353.994769 118.64088 
L 354.103023 114.857192 
L 354.53604 120.360913 
L 354.644295 117.807928 
L 354.752549 118.691031 
L 354.860803 126.383134 
L 354.969058 118.715475 
L 355.077312 122.086314 
L 355.185566 118.445374 
L 355.29382 120.096785 
L 355.510329 116.763605 
L 355.726837 115.276439 
L 355.835092 118.11179 
L 355.943346 114.772963 
L 356.0516 116.761528 
L 356.159854 116.098048 
L 356.484617 119.078185 
L 356.592872 120.363914 
L 356.701126 125.300032 
L 356.80938 121.432947 
L 357.025889 122.299315 
L 357.134143 120.529273 
L 357.242397 121.705007 
L 357.350651 121.091202 
L 357.56716 117.967595 
L 357.783668 115.061218 
L 357.891923 117.574018 
L 358.000177 117.35984 
L 358.216686 113.190635 
L 358.433194 115.566864 
L 358.649703 117.315736 
L 358.757957 116.605163 
L 358.866211 118.438585 
L 359.08272 117.304121 
L 359.190974 120.265342 
L 359.299228 116.56104 
L 359.515737 120.3714 
L 359.732245 119.813428 
L 359.8405 115.975561 
L 360.057008 118.149763 
L 360.165262 119.101951 
L 360.273517 118.209218 
L 360.381771 114.800973 
L 360.490025 114.886237 
L 360.706534 116.743139 
L 360.814788 114.360789 
L 360.923042 118.240532 
L 361.139551 115.324048 
L 361.356059 120.323277 
L 361.464314 120.059306 
L 361.572568 121.378159 
L 361.789076 119.105549 
L 361.897331 118.433783 
L 362.005585 119.057229 
L 362.222093 117.849018 
L 362.330348 118.178708 
L 362.438602 119.098742 
L 362.65511 116.671568 
L 362.763365 117.046134 
L 362.871619 120.073396 
L 363.088128 115.617978 
L 363.196382 120.116659 
L 363.521145 114.384898 
L 363.629399 118.907146 
L 363.845907 116.801256 
L 363.954162 120.162333 
L 364.17067 116.516989 
L 364.278924 118.830483 
L 364.387179 116.677737 
L 364.495433 121.562849 
L 364.603687 121.345072 
L 364.711942 117.443934 
L 364.820196 118.002839 
L 364.92845 117.024416 
L 365.036704 118.603558 
L 365.253213 116.621928 
L 365.361467 117.079414 
L 365.469721 118.697682 
L 365.577976 117.243879 
L 365.68623 120.901716 
L 365.794484 117.390627 
L 365.902738 118.679469 
L 366.010993 115.432629 
L 366.227501 117.88748 
L 366.335756 118.167889 
L 366.552264 116.760221 
L 366.660518 117.104339 
L 366.768773 114.988275 
L 366.877027 115.256743 
L 366.985281 116.407181 
L 367.20179 114.777682 
L 367.418298 115.52534 
L 367.526552 122.386653 
L 367.634807 115.80794 
L 367.743061 116.233854 
L 367.851315 115.637574 
L 368.067824 117.94167 
L 368.176078 119.145779 
L 368.392587 115.697239 
L 368.500841 119.889323 
L 368.609095 116.707099 
L 368.717349 118.87474 
L 368.933858 116.748448 
L 369.042112 129.221225 
L 369.258621 117.55899 
L 369.366875 116.888142 
L 369.475129 117.597 
L 369.691638 115.20596 
L 370.016401 118.493523 
L 370.124655 118.734024 
L 370.232909 116.281122 
L 370.449418 121.355418 
L 370.557672 118.646181 
L 370.665926 120.212049 
L 370.77418 115.66339 
L 370.882435 116.139121 
L 370.990689 115.905488 
L 371.098943 116.412846 
L 371.207198 115.522523 
L 371.315452 116.219874 
L 371.423706 115.915692 
L 371.53196 116.248184 
L 371.748469 119.411689 
L 371.856723 114.837775 
L 372.073232 116.968875 
L 372.181486 123.151889 
L 372.397994 115.43122 
L 372.506249 115.866356 
L 372.722757 116.812158 
L 372.831012 116.265124 
L 372.939266 116.618993 
L 373.04752 115.477455 
L 373.155774 117.646251 
L 373.264029 115.766301 
L 373.372283 118.604143 
L 373.588791 116.821175 
L 373.697046 118.183581 
L 373.8053 116.873113 
L 374.021808 117.259778 
L 374.130063 115.649007 
L 374.238317 118.354341 
L 374.454826 115.465073 
L 374.671334 116.230607 
L 374.779588 118.104838 
L 375.104351 115.488274 
L 375.212605 115.379439 
L 375.32086 115.521348 
L 375.537368 118.273678 
L 375.645622 115.132047 
L 375.862131 118.679791 
L 376.295148 114.202786 
L 376.511657 114.510291 
L 376.619911 114.30132 
L 376.836419 114.58308 
L 376.944674 114.858605 
L 377.161182 116.029613 
L 377.377691 116.269982 
L 377.485945 116.158657 
L 377.594199 117.376475 
L 377.702454 115.726808 
L 377.810708 116.697362 
L 377.918962 119.964586 
L 378.027216 115.335838 
L 378.135471 119.136541 
L 378.243725 114.81149 
L 378.351979 115.906979 
L 378.460233 114.193392 
L 378.568488 118.8265 
L 378.784996 115.000643 
L 379.109759 118.46438 
L 379.218013 116.421828 
L 379.326268 117.624547 
L 379.434522 117.224757 
L 379.542776 115.683276 
L 379.65103 116.520938 
L 379.759285 123.717528 
L 379.975793 114.951469 
L 380.084047 115.189035 
L 380.300556 114.876381 
L 380.40881 116.85834 
L 380.517064 115.70321 
L 380.625319 116.058179 
L 380.733573 115.861539 
L 380.841827 116.118991 
L 380.950082 117.196812 
L 381.16659 115.065379 
L 381.274844 115.544474 
L 381.383099 116.673295 
L 381.491353 116.655356 
L 381.707861 119.212542 
L 381.816116 116.562658 
L 381.92437 117.115259 
L 382.032624 116.228512 
L 382.140878 116.731039 
L 382.249133 120.521593 
L 382.465641 116.766382 
L 382.573896 117.073941 
L 382.68215 122.619429 
L 382.790404 116.499055 
L 382.898658 119.327916 
L 383.115167 115.464996 
L 383.223421 115.295818 
L 383.331675 114.190169 
L 383.43993 115.178199 
L 383.548184 115.145797 
L 383.764692 116.75023 
L 383.872947 115.607063 
L 384.089455 118.913197 
L 384.19771 115.843949 
L 384.305964 118.431059 
L 384.522472 116.408146 
L 384.630727 116.488035 
L 384.738981 116.848813 
L 384.847235 114.811741 
L 385.063744 116.957102 
L 385.171998 117.069479 
L 385.388506 118.132334 
L 385.496761 117.521216 
L 385.605015 118.100079 
L 385.713269 114.713742 
L 386.146286 118.062226 
L 386.362795 114.077904 
L 386.579303 117.056215 
L 386.687558 116.922551 
L 386.795812 120.889619 
L 386.904066 117.135399 
L 387.01232 117.237976 
L 387.120575 113.750461 
L 387.445338 121.360952 
L 387.553592 120.954043 
L 387.878355 114.536719 
L 387.986609 113.899095 
L 388.094863 117.23159 
L 388.203117 116.058575 
L 388.311372 116.098023 
L 388.419626 117.679767 
L 388.52788 116.670459 
L 388.636134 113.682391 
L 388.744389 119.019061 
L 388.960897 115.529496 
L 389.069152 116.262179 
L 389.177406 114.541885 
L 389.28566 123.633169 
L 389.393914 115.855068 
L 389.502169 117.731736 
L 389.718677 116.582069 
L 389.826931 123.041974 
L 390.04344 117.039211 
L 390.151694 117.656763 
L 390.259948 116.936447 
L 390.476457 117.67489 
L 390.584711 117.55502 
L 390.692966 117.67133 
L 390.80122 116.930888 
L 390.909474 114.799593 
L 391.125983 114.995675 
L 391.234237 115.670159 
L 391.342491 115.541429 
L 391.450745 116.103577 
L 391.559 117.704035 
L 391.667254 115.896279 
L 391.883762 118.309989 
L 392.100271 116.392563 
L 392.31678 117.486081 
L 392.425034 116.218767 
L 392.641542 116.798015 
L 392.749797 118.373506 
L 393.074559 115.658813 
L 393.291068 117.456701 
L 393.507576 115.877494 
L 393.615831 117.759463 
L 393.724085 115.578923 
L 393.832339 116.56114 
L 393.940594 119.126282 
L 394.157102 116.800132 
L 394.265356 116.804825 
L 394.373611 116.642545 
L 394.481865 120.25665 
L 394.698373 115.968429 
L 394.806628 117.890672 
L 394.914882 117.432166 
L 395.023136 118.113535 
L 395.239645 116.239888 
L 395.347899 117.268603 
L 395.456153 116.020492 
L 395.564408 119.72647 
L 395.672662 119.461476 
L 395.780916 119.974472 
L 395.88917 117.446225 
L 395.997425 117.745628 
L 396.105679 118.57818 
L 396.213933 115.585179 
L 396.322187 116.63852 
L 396.430442 116.222458 
L 396.64695 117.199515 
L 396.755204 116.164562 
L 396.863459 118.17578 
L 396.971713 118.034291 
L 397.079967 118.313978 
L 397.296476 120.883201 
L 397.40473 115.445992 
L 397.621239 117.819581 
L 397.837747 115.966319 
L 397.946001 117.955406 
L 398.16251 114.878288 
L 398.270764 116.063402 
L 398.379018 115.579653 
L 398.487273 116.057273 
L 398.487273 116.057273 
" clip-path="url(#p060a21b9e1)" style="fill: none; stroke: #1f77b4; stroke-width: 1.5; stroke-linecap: square"/>
   </g>
   <g id="patch_3">
    <path d="M 57.6 307.584 
L 57.6 41.472 
" style="fill: none; stroke: #000000; stroke-width: 0.8; stroke-linejoin: miter; stroke-linecap: square"/>
   </g>
   <g id="patch_4">
    <path d="M 414.72 307.584 
L 414.72 41.472 
" style="fill: none; stroke: #000000; stroke-width: 0.8; stroke-linejoin: miter; stroke-linecap: square"/>
   </g>
   <g id="patch_5">
    <path d="M 57.6 307.584 
L 414.72 307.584 
" style="fill: none; stroke: #000000; stroke-width: 0.8; stroke-linejoin: miter; stroke-linecap: square"/>
   </g>
   <g id="patch_6">
    <path d="M 57.6 41.472 
L 414.72 41.472 
" style="fill: none; stroke: #000000; stroke-width: 0.8; stroke-linejoin: miter; stroke-linecap: square"/>
   </g>
   <g id="text_18">
    <!-- Loss curve, seed=0 -->
    <g transform="translate(177.30375 35.472) scale(0.12 -0.12)">
     <defs>
      <path id="DejaVuSans-20" transform="scale(0.015625)"/>
      <path id="DejaVuSans-63" d="M 3122 3366 
L 3122 2828 
Q 2878 2963 2633 3030 
Q 2388 3097 2138 3097 
Q 1578 3097 1268 2742 
Q 959 2388 959 1747 
Q 959 1106 1268 751 
Q 1578 397 2138 397 
Q 2388 397 2633 464 
Q 2878 531 3122 666 
L 3122 134 
Q 2881 22 2623 -34 
Q 2366 -91 2075 -91 
Q 1284 -91 818 406 
Q 353 903 353 1747 
Q 353 2603 823 3093 
Q 1294 3584 2113 3584 
Q 2378 3584 2631 3529 
Q 2884 3475 3122 3366 
z
" transform="scale(0.015625)"/>
      <path id="DejaVuSans-75" d="M 544 1381 
L 544 3500 
L 1119 3500 
L 1119 1403 
Q 1119 906 1312 657 
Q 1506 409 1894 409 
Q 2359 409 2629 706 
Q 2900 1003 2900 1516 
L 2900 3500 
L 3475 3500 
L 3475 0 
L 2900 0 
L 2900 538 
Q 2691 219 2414 64 
Q 2138 -91 1772 -91 
Q 1169 -91 856 284 
Q 544 659 544 1381 
z
M 1991 3584 
L 1991 3584 
z
" transform="scale(0.015625)"/>
      <path id="DejaVuSans-72" d="M 2631 2963 
Q 2534 3019 2420 3045 
Q 2306 3072 2169 3072 
Q 1681 3072 1420 2755 
Q 1159 2438 1159 1844 
L 1159 0 
L 581 0 
L 581 3500 
L 1159 3500 
L 1159 2956 
Q 1341 3275 1631 3429 
Q 1922 3584 2338 3584 
Q 2397 3584 2469 3576 
Q 2541 3569 2628 3553 
L 2631 2963 
z
" transform="scale(0.015625)"/>
      <path id="DejaVuSans-76" d="M 191 3500 
L 800 3500 
L 1894 563 
L 2988 3500 
L 3597 3500 
L 2284 0 
L 1503 0 
L 191 3500 
z
" transform="scale(0.015625)"/>
      <path id="DejaVuSans-2c" d="M 750 794 
L 1409 794 
L 1409 256 
L 897 -744 
L 494 -744 
L 750 256 
L 750 794 
z
" transform="scale(0.015625)"/>
      <path id="DejaVuSans-3d" d="M 678 2906 
L 4684 2906 
L 4684 2381 
L 678 2381 
L 678 2906 
z
M 678 1631 
L 4684 1631 
L 4684 1100 
L 678 1100 
L 678 1631 
z
" transform="scale(0.015625)"/>
     </defs>
     <use xlink:href="#DejaVuSans-4c"/>
     <use xlink:href="#DejaVuSans-6f" transform="translate(53.962891 0)"/>
     <use xlink:href="#DejaVuSans-73" transform="translate(115.144531 0)"/>
     <use xlink:href="#DejaVuSans-73" transform="translate(167.244141 0)"/>
     <use xlink:href="#DejaVuSans-20" transform="translate(219.34375 0)"/>
     <use xlink:href="#DejaVuSans-63" transform="translate(251.130859 0)"/>
     <use xlink:href="#DejaVuSans-75" transform="translate(306.111328 0)"/>
     <use xlink:href="#DejaVuSans-72" transform="translate(369.490234 0)"/>
     <use xlink:href="#DejaVuSans-76" transform="translate(410.603516 0)"/>
     <use xlink:href="#DejaVuSans-65" transform="translate(469.783203 0)"/>
     <use xlink:href="#DejaVuSans-2c" transform="translate(531.306641 0)"/>
     <use xlink:href="#DejaVuSans-20" transform="translate(563.09375 0)"/>
     <use xlink:href="#DejaVuSans-73" transform="translate(594.880859 0)"/>
     <use xlink:href="#DejaVuSans-65" transform="translate(646.980469 0)"/>
     <use xlink:href="#DejaVuSans-65" transform="translate(708.503906 0)"/>
     <use xlink:href="#DejaVuSans-64" transform="translate(770.027344 0)"/>
     <use xlink:href="#DejaVuSans-3d" transform="translate(833.503906 0)"/>
     <use xlink:href="#DejaVuSans-30" transform="translate(917.292969 0)"/>
    </g>
   </g>
  </g>
 </g>
 <defs>
  <clipPath id="p060a21b9e1">
   <rect x="57.6" y="41.472" width="357.12" height="266.112"/>
  </clipPath>
 </defs>
</svg>
