<?xml version="1.0" encoding="utf-8" standalone="no"?>
<!DOCTYPE svg PUBLIC "-//W3C//DTD SVG 1.1//EN"
  "http://www.w3.org/Graphics/SVG/1.1/DTD/svg11.dtd">
<svg xmlns:xlink="http://www.w3.org/1999/xlink" width="460.8pt" height="345.6pt" viewBox="0 0 460.8 345.6" xmlns="http://www.w3.org/2000/svg" version="1.1">
 <metadata>
  <rdf:RDF xmlns:dc="http://purl.org/dc/elements/1.1/" xmlns:cc="http://creativecommons.org/ns#" xmlns:rdf="http://www.w3.org/1999/02/22-rdf-syntax-ns#">
   <cc:Work>
    <dc:type rdf:resource="http://purl.org/dc/dcmitype/StillImage"/>
    <dc:date>2025-01-04T20:03:07.005632</dc:date>
    <dc:format>image/svg+xml</dc:format>
    <dc:creator>
     <cc:Agent>
      <dc:title>Matplotlib v3.10.0, https://matplotlib.org/</dc:title>
     </cc:Agent>
    </dc:creator>
   </cc:Work>
  </rdf:RDF>
 </metadata>
 <defs>
  <style type="text/css">*{stroke-linejoin: round; stroke-linecap: butt}</style>
 </defs>
 <g id="figure_1">
  <g id="patch_1">
   <path d="M 0 345.6 
L 460.8 345.6 
L 460.8 0 
L 0 0 
z
" style="fill: #ffffff"/>
  </g>
  <g id="axes_1">
   <g id="patch_2">
    <path d="M 57.6 307.584 
L 414.72 307.584 
L 414.72 41.472 
L 57.6 41.472 
z
" style="fill: #ffffff"/>
   </g>
   <g id="matplotlib.axis_1">
    <g id="xtick_1">
     <g id="line2d_1">
      <defs>
       <path id="m043f441bc2" d="M 0 0 
L 0 3.5 
" style="stroke: #000000; stroke-width: 0.8"/>
      </defs>
      <g>
       <use xlink:href="#m043f441bc2" x="73.832727" y="307.584" style="stroke: #000000; stroke-width: 0.8"/>
      </g>
     </g>
     <g id="text_1">
      <!-- 0 -->
      <g transform="translate(70.651477 322.182437) scale(0.1 -0.1)">
       <defs>
        <path id="DejaVuSans-30" d="M 2034 4250 
Q 1547 4250 1301 3770 
Q 1056 3291 1056 2328 
Q 1056 1369 1301 889 
Q 1547 409 2034 409 
Q 2525 409 2770 889 
Q 3016 1369 3016 2328 
Q 3016 3291 2770 3770 
Q 2525 4250 2034 4250 
z
M 2034 4750 
Q 2819 4750 3233 4129 
Q 3647 3509 3647 2328 
Q 3647 1150 3233 529 
Q 2819 -91 2034 -91 
Q 1250 -91 836 529 
Q 422 1150 422 2328 
Q 422 3509 836 4129 
Q 1250 4750 2034 4750 
z
" transform="scale(0.015625)"/>
       </defs>
       <use xlink:href="#DejaVuSans-30"/>
      </g>
     </g>
    </g>
    <g id="xtick_2">
     <g id="line2d_2">
      <g>
       <use xlink:href="#m043f441bc2" x="127.959861" y="307.584" style="stroke: #000000; stroke-width: 0.8"/>
      </g>
     </g>
     <g id="text_2">
      <!-- 500 -->
      <g transform="translate(118.416111 322.182437) scale(0.1 -0.1)">
       <defs>
        <path id="DejaVuSans-35" d="M 691 4666 
L 3169 4666 
L 3169 4134 
L 1269 4134 
L 1269 2991 
Q 1406 3038 1543 3061 
Q 1681 3084 1819 3084 
Q 2600 3084 3056 2656 
Q 3513 2228 3513 1497 
Q 3513 744 3044 326 
Q 2575 -91 1722 -91 
Q 1428 -91 1123 -41 
Q 819 9 494 109 
L 494 744 
Q 775 591 1075 516 
Q 1375 441 1709 441 
Q 2250 441 2565 725 
Q 2881 1009 2881 1497 
Q 2881 1984 2565 2268 
Q 2250 2553 1709 2553 
Q 1456 2553 1204 2497 
Q 953 2441 691 2322 
L 691 4666 
z
" transform="scale(0.015625)"/>
       </defs>
       <use xlink:href="#DejaVuSans-35"/>
       <use xlink:href="#DejaVuSans-30" transform="translate(63.623047 0)"/>
       <use xlink:href="#DejaVuSans-30" transform="translate(127.246094 0)"/>
      </g>
     </g>
    </g>
    <g id="xtick_3">
     <g id="line2d_3">
      <g>
       <use xlink:href="#m043f441bc2" x="182.086994" y="307.584" style="stroke: #000000; stroke-width: 0.8"/>
      </g>
     </g>
     <g id="text_3">
      <!-- 1000 -->
      <g transform="translate(169.361994 322.182437) scale(0.1 -0.1)">
       <defs>
        <path id="DejaVuSans-31" d="M 794 531 
L 1825 531 
L 1825 4091 
L 703 3866 
L 703 4441 
L 1819 4666 
L 2450 4666 
L 2450 531 
L 3481 531 
L 3481 0 
L 794 0 
L 794 531 
z
" transform="scale(0.015625)"/>
       </defs>
       <use xlink:href="#DejaVuSans-31"/>
       <use xlink:href="#DejaVuSans-30" transform="translate(63.623047 0)"/>
       <use xlink:href="#DejaVuSans-30" transform="translate(127.246094 0)"/>
       <use xlink:href="#DejaVuSans-30" transform="translate(190.869141 0)"/>
      </g>
     </g>
    </g>
    <g id="xtick_4">
     <g id="line2d_4">
      <g>
       <use xlink:href="#m043f441bc2" x="236.214127" y="307.584" style="stroke: #000000; stroke-width: 0.8"/>
      </g>
     </g>
     <g id="text_4">
      <!-- 1500 -->
      <g transform="translate(223.489127 322.182437) scale(0.1 -0.1)">
       <use xlink:href="#DejaVuSans-31"/>
       <use xlink:href="#DejaVuSans-35" transform="translate(63.623047 0)"/>
       <use xlink:href="#DejaVuSans-30" transform="translate(127.246094 0)"/>
       <use xlink:href="#DejaVuSans-30" transform="translate(190.869141 0)"/>
      </g>
     </g>
    </g>
    <g id="xtick_5">
     <g id="line2d_5">
      <g>
       <use xlink:href="#m043f441bc2" x="290.34126" y="307.584" style="stroke: #000000; stroke-width: 0.8"/>
      </g>
     </g>
     <g id="text_5">
      <!-- 2000 -->
      <g transform="translate(277.61626 322.182437) scale(0.1 -0.1)">
       <defs>
        <path id="DejaVuSans-32" d="M 1228 531 
L 3431 531 
L 3431 0 
L 469 0 
L 469 531 
Q 828 903 1448 1529 
Q 2069 2156 2228 2338 
Q 2531 2678 2651 2914 
Q 2772 3150 2772 3378 
Q 2772 3750 2511 3984 
Q 2250 4219 1831 4219 
Q 1534 4219 1204 4116 
Q 875 4013 500 3803 
L 500 4441 
Q 881 4594 1212 4672 
Q 1544 4750 1819 4750 
Q 2544 4750 2975 4387 
Q 3406 4025 3406 3419 
Q 3406 3131 3298 2873 
Q 3191 2616 2906 2266 
Q 2828 2175 2409 1742 
Q 1991 1309 1228 531 
z
" transform="scale(0.015625)"/>
       </defs>
       <use xlink:href="#DejaVuSans-32"/>
       <use xlink:href="#DejaVuSans-30" transform="translate(63.623047 0)"/>
       <use xlink:href="#DejaVuSans-30" transform="translate(127.246094 0)"/>
       <use xlink:href="#DejaVuSans-30" transform="translate(190.869141 0)"/>
      </g>
     </g>
    </g>
    <g id="xtick_6">
     <g id="line2d_6">
      <g>
       <use xlink:href="#m043f441bc2" x="344.468394" y="307.584" style="stroke: #000000; stroke-width: 0.8"/>
      </g>
     </g>
     <g id="text_6">
      <!-- 2500 -->
      <g transform="translate(331.743394 322.182437) scale(0.1 -0.1)">
       <use xlink:href="#DejaVuSans-32"/>
       <use xlink:href="#DejaVuSans-35" transform="translate(63.623047 0)"/>
       <use xlink:href="#DejaVuSans-30" transform="translate(127.246094 0)"/>
       <use xlink:href="#DejaVuSans-30" transform="translate(190.869141 0)"/>
      </g>
     </g>
    </g>
    <g id="xtick_7">
     <g id="line2d_7">
      <g>
       <use xlink:href="#m043f441bc2" x="398.595527" y="307.584" style="stroke: #000000; stroke-width: 0.8"/>
      </g>
     </g>
     <g id="text_7">
      <!-- 3000 -->
      <g transform="translate(385.870527 322.182437) scale(0.1 -0.1)">
       <defs>
        <path id="DejaVuSans-33" d="M 2597 2516 
Q 3050 2419 3304 2112 
Q 3559 1806 3559 1356 
Q 3559 666 3084 287 
Q 2609 -91 1734 -91 
Q 1441 -91 1130 -33 
Q 819 25 488 141 
L 488 750 
Q 750 597 1062 519 
Q 1375 441 1716 441 
Q 2309 441 2620 675 
Q 2931 909 2931 1356 
Q 2931 1769 2642 2001 
Q 2353 2234 1838 2234 
L 1294 2234 
L 1294 2753 
L 1863 2753 
Q 2328 2753 2575 2939 
Q 2822 3125 2822 3475 
Q 2822 3834 2567 4026 
Q 2313 4219 1838 4219 
Q 1578 4219 1281 4162 
Q 984 4106 628 3988 
L 628 4550 
Q 988 4650 1302 4700 
Q 1616 4750 1894 4750 
Q 2613 4750 3031 4423 
Q 3450 4097 3450 3541 
Q 3450 3153 3228 2886 
Q 3006 2619 2597 2516 
z
" transform="scale(0.015625)"/>
       </defs>
       <use xlink:href="#DejaVuSans-33"/>
       <use xlink:href="#DejaVuSans-30" transform="translate(63.623047 0)"/>
       <use xlink:href="#DejaVuSans-30" transform="translate(127.246094 0)"/>
       <use xlink:href="#DejaVuSans-30" transform="translate(190.869141 0)"/>
      </g>
     </g>
    </g>
    <g id="text_8">
     <!-- Episode -->
     <g transform="translate(216.5225 335.860562) scale(0.1 -0.1)">
      <defs>
       <path id="DejaVuSans-45" d="M 628 4666 
L 3578 4666 
L 3578 4134 
L 1259 4134 
L 1259 2753 
L 3481 2753 
L 3481 2222 
L 1259 2222 
L 1259 531 
L 3634 531 
L 3634 0 
L 628 0 
L 628 4666 
z
" transform="scale(0.015625)"/>
       <path id="DejaVuSans-70" d="M 1159 525 
L 1159 -1331 
L 581 -1331 
L 581 3500 
L 1159 3500 
L 1159 2969 
Q 1341 3281 1617 3432 
Q 1894 3584 2278 3584 
Q 2916 3584 3314 3078 
Q 3713 2572 3713 1747 
Q 3713 922 3314 415 
Q 2916 -91 2278 -91 
Q 1894 -91 1617 61 
Q 1341 213 1159 525 
z
M 3116 1747 
Q 3116 2381 2855 2742 
Q 2594 3103 2138 3103 
Q 1681 3103 1420 2742 
Q 1159 2381 1159 1747 
Q 1159 1113 1420 752 
Q 1681 391 2138 391 
Q 2594 391 2855 752 
Q 3116 1113 3116 1747 
z
" transform="scale(0.015625)"/>
       <path id="DejaVuSans-69" d="M 603 3500 
L 1178 3500 
L 1178 0 
L 603 0 
L 603 3500 
z
M 603 4863 
L 1178 4863 
L 1178 4134 
L 603 4134 
L 603 4863 
z
" transform="scale(0.015625)"/>
       <path id="DejaVuSans-73" d="M 2834 3397 
L 2834 2853 
Q 2591 2978 2328 3040 
Q 2066 3103 1784 3103 
Q 1356 3103 1142 2972 
Q 928 2841 928 2578 
Q 928 2378 1081 2264 
Q 1234 2150 1697 2047 
L 1894 2003 
Q 2506 1872 2764 1633 
Q 3022 1394 3022 966 
Q 3022 478 2636 193 
Q 2250 -91 1575 -91 
Q 1294 -91 989 -36 
Q 684 19 347 128 
L 347 722 
Q 666 556 975 473 
Q 1284 391 1588 391 
Q 1994 391 2212 530 
Q 2431 669 2431 922 
Q 2431 1156 2273 1281 
Q 2116 1406 1581 1522 
L 1381 1569 
Q 847 1681 609 1914 
Q 372 2147 372 2553 
Q 372 3047 722 3315 
Q 1072 3584 1716 3584 
Q 2034 3584 2315 3537 
Q 2597 3491 2834 3397 
z
" transform="scale(0.015625)"/>
       <path id="DejaVuSans-6f" d="M 1959 3097 
Q 1497 3097 1228 2736 
Q 959 2375 959 1747 
Q 959 1119 1226 758 
Q 1494 397 1959 397 
Q 2419 397 2687 759 
Q 2956 1122 2956 1747 
Q 2956 2369 2687 2733 
Q 2419 3097 1959 3097 
z
M 1959 3584 
Q 2709 3584 3137 3096 
Q 3566 2609 3566 1747 
Q 3566 888 3137 398 
Q 2709 -91 1959 -91 
Q 1206 -91 779 398 
Q 353 888 353 1747 
Q 353 2609 779 3096 
Q 1206 3584 1959 3584 
z
" transform="scale(0.015625)"/>
       <path id="DejaVuSans-64" d="M 2906 2969 
L 2906 4863 
L 3481 4863 
L 3481 0 
L 2906 0 
L 2906 525 
Q 2725 213 2448 61 
Q 2172 -91 1784 -91 
Q 1150 -91 751 415 
Q 353 922 353 1747 
Q 353 2572 751 3078 
Q 1150 3584 1784 3584 
Q 2172 3584 2448 3432 
Q 2725 3281 2906 2969 
z
M 947 1747 
Q 947 1113 1208 752 
Q 1469 391 1925 391 
Q 2381 391 2643 752 
Q 2906 1113 2906 1747 
Q 2906 2381 2643 2742 
Q 2381 3103 1925 3103 
Q 1469 3103 1208 2742 
Q 947 2381 947 1747 
z
" transform="scale(0.015625)"/>
       <path id="DejaVuSans-65" d="M 3597 1894 
L 3597 1613 
L 953 1613 
Q 991 1019 1311 708 
Q 1631 397 2203 397 
Q 2534 397 2845 478 
Q 3156 559 3463 722 
L 3463 178 
Q 3153 47 2828 -22 
Q 2503 -91 2169 -91 
Q 1331 -91 842 396 
Q 353 884 353 1716 
Q 353 2575 817 3079 
Q 1281 3584 2069 3584 
Q 2775 3584 3186 3129 
Q 3597 2675 3597 1894 
z
M 3022 2063 
Q 3016 2534 2758 2815 
Q 2500 3097 2075 3097 
Q 1594 3097 1305 2825 
Q 1016 2553 972 2059 
L 3022 2063 
z
" transform="scale(0.015625)"/>
      </defs>
      <use xlink:href="#DejaVuSans-45"/>
      <use xlink:href="#DejaVuSans-70" transform="translate(63.183594 0)"/>
      <use xlink:href="#DejaVuSans-69" transform="translate(126.660156 0)"/>
      <use xlink:href="#DejaVuSans-73" transform="translate(154.443359 0)"/>
      <use xlink:href="#DejaVuSans-6f" transform="translate(206.542969 0)"/>
      <use xlink:href="#DejaVuSans-64" transform="translate(267.724609 0)"/>
      <use xlink:href="#DejaVuSans-65" transform="translate(331.201172 0)"/>
     </g>
    </g>
   </g>
   <g id="matplotlib.axis_2">
    <g id="ytick_1">
     <g id="line2d_8">
      <defs>
       <path id="m752e93f37c" d="M 0 0 
L -3.5 0 
" style="stroke: #000000; stroke-width: 0.8"/>
      </defs>
      <g>
       <use xlink:href="#m752e93f37c" x="57.6" y="305.229751" style="stroke: #000000; stroke-width: 0.8"/>
      </g>
     </g>
     <g id="text_9">
      <!-- −0.015 -->
      <g transform="translate(13.592188 309.028969) scale(0.1 -0.1)">
       <defs>
        <path id="DejaVuSans-2212" d="M 678 2272 
L 4684 2272 
L 4684 1741 
L 678 1741 
L 678 2272 
z
" transform="scale(0.015625)"/>
        <path id="DejaVuSans-2e" d="M 684 794 
L 1344 794 
L 1344 0 
L 684 0 
L 684 794 
z
" transform="scale(0.015625)"/>
       </defs>
       <use xlink:href="#DejaVuSans-2212"/>
       <use xlink:href="#DejaVuSans-30" transform="translate(83.789062 0)"/>
       <use xlink:href="#DejaVuSans-2e" transform="translate(147.412109 0)"/>
       <use xlink:href="#DejaVuSans-30" transform="translate(179.199219 0)"/>
       <use xlink:href="#DejaVuSans-31" transform="translate(242.822266 0)"/>
       <use xlink:href="#DejaVuSans-35" transform="translate(306.445312 0)"/>
      </g>
     </g>
    </g>
    <g id="ytick_2">
     <g id="line2d_9">
      <g>
       <use xlink:href="#m752e93f37c" x="57.6" y="267.902912" style="stroke: #000000; stroke-width: 0.8"/>
      </g>
     </g>
     <g id="text_10">
      <!-- −0.010 -->
      <g transform="translate(13.592188 271.702131) scale(0.1 -0.1)">
       <use xlink:href="#DejaVuSans-2212"/>
       <use xlink:href="#DejaVuSans-30" transform="translate(83.789062 0)"/>
       <use xlink:href="#DejaVuSans-2e" transform="translate(147.412109 0)"/>
       <use xlink:href="#DejaVuSans-30" transform="translate(179.199219 0)"/>
       <use xlink:href="#DejaVuSans-31" transform="translate(242.822266 0)"/>
       <use xlink:href="#DejaVuSans-30" transform="translate(306.445312 0)"/>
      </g>
     </g>
    </g>
    <g id="ytick_3">
     <g id="line2d_10">
      <g>
       <use xlink:href="#m752e93f37c" x="57.6" y="230.576073" style="stroke: #000000; stroke-width: 0.8"/>
      </g>
     </g>
     <g id="text_11">
      <!-- −0.005 -->
      <g transform="translate(13.592188 234.375292) scale(0.1 -0.1)">
       <use xlink:href="#DejaVuSans-2212"/>
       <use xlink:href="#DejaVuSans-30" transform="translate(83.789062 0)"/>
       <use xlink:href="#DejaVuSans-2e" transform="translate(147.412109 0)"/>
       <use xlink:href="#DejaVuSans-30" transform="translate(179.199219 0)"/>
       <use xlink:href="#DejaVuSans-30" transform="translate(242.822266 0)"/>
       <use xlink:href="#DejaVuSans-35" transform="translate(306.445312 0)"/>
      </g>
     </g>
    </g>
    <g id="ytick_4">
     <g id="line2d_11">
      <g>
       <use xlink:href="#m752e93f37c" x="57.6" y="193.249234" style="stroke: #000000; stroke-width: 0.8"/>
      </g>
     </g>
     <g id="text_12">
      <!-- 0.000 -->
      <g transform="translate(21.971875 197.048453) scale(0.1 -0.1)">
       <use xlink:href="#DejaVuSans-30"/>
       <use xlink:href="#DejaVuSans-2e" transform="translate(63.623047 0)"/>
       <use xlink:href="#DejaVuSans-30" transform="translate(95.410156 0)"/>
       <use xlink:href="#DejaVuSans-30" transform="translate(159.033203 0)"/>
       <use xlink:href="#DejaVuSans-30" transform="translate(222.65625 0)"/>
      </g>
     </g>
    </g>
    <g id="ytick_5">
     <g id="line2d_12">
      <g>
       <use xlink:href="#m752e93f37c" x="57.6" y="155.922395" style="stroke: #000000; stroke-width: 0.8"/>
      </g>
     </g>
     <g id="text_13">
      <!-- 0.005 -->
      <g transform="translate(21.971875 159.721614) scale(0.1 -0.1)">
       <use xlink:href="#DejaVuSans-30"/>
       <use xlink:href="#DejaVuSans-2e" transform="translate(63.623047 0)"/>
       <use xlink:href="#DejaVuSans-30" transform="translate(95.410156 0)"/>
       <use xlink:href="#DejaVuSans-30" transform="translate(159.033203 0)"/>
       <use xlink:href="#DejaVuSans-35" transform="translate(222.65625 0)"/>
      </g>
     </g>
    </g>
    <g id="ytick_6">
     <g id="line2d_13">
      <g>
       <use xlink:href="#m752e93f37c" x="57.6" y="118.595556" style="stroke: #000000; stroke-width: 0.8"/>
      </g>
     </g>
     <g id="text_14">
      <!-- 0.010 -->
      <g transform="translate(21.971875 122.394775) scale(0.1 -0.1)">
       <use xlink:href="#DejaVuSans-30"/>
       <use xlink:href="#DejaVuSans-2e" transform="translate(63.623047 0)"/>
       <use xlink:href="#DejaVuSans-30" transform="translate(95.410156 0)"/>
       <use xlink:href="#DejaVuSans-31" transform="translate(159.033203 0)"/>
       <use xlink:href="#DejaVuSans-30" transform="translate(222.65625 0)"/>
      </g>
     </g>
    </g>
    <g id="ytick_7">
     <g id="line2d_14">
      <g>
       <use xlink:href="#m752e93f37c" x="57.6" y="81.268717" style="stroke: #000000; stroke-width: 0.8"/>
      </g>
     </g>
     <g id="text_15">
      <!-- 0.015 -->
      <g transform="translate(21.971875 85.067936) scale(0.1 -0.1)">
       <use xlink:href="#DejaVuSans-30"/>
       <use xlink:href="#DejaVuSans-2e" transform="translate(63.623047 0)"/>
       <use xlink:href="#DejaVuSans-30" transform="translate(95.410156 0)"/>
       <use xlink:href="#DejaVuSans-31" transform="translate(159.033203 0)"/>
       <use xlink:href="#DejaVuSans-35" transform="translate(222.65625 0)"/>
      </g>
     </g>
    </g>
    <g id="ytick_8">
     <g id="line2d_15">
      <g>
       <use xlink:href="#m752e93f37c" x="57.6" y="43.941878" style="stroke: #000000; stroke-width: 0.8"/>
      </g>
     </g>
     <g id="text_16">
      <!-- 0.020 -->
      <g transform="translate(21.971875 47.741097) scale(0.1 -0.1)">
       <use xlink:href="#DejaVuSans-30"/>
       <use xlink:href="#DejaVuSans-2e" transform="translate(63.623047 0)"/>
       <use xlink:href="#DejaVuSans-30" transform="translate(95.410156 0)"/>
       <use xlink:href="#DejaVuSans-32" transform="translate(159.033203 0)"/>
       <use xlink:href="#DejaVuSans-30" transform="translate(222.65625 0)"/>
      </g>
     </g>
    </g>
    <g id="text_17">
     <!-- Loss -->
     <g transform="translate(7.5125 185.495187) rotate(-90) scale(0.1 -0.1)">
      <defs>
       <path id="DejaVuSans-4c" d="M 628 4666 
L 1259 4666 
L 1259 531 
L 3531 531 
L 3531 0 
L 628 0 
L 628 4666 
z
" transform="scale(0.015625)"/>
      </defs>
      <use xlink:href="#DejaVuSans-4c"/>
      <use xlink:href="#DejaVuSans-6f" transform="translate(53.962891 0)"/>
      <use xlink:href="#DejaVuSans-73" transform="translate(115.144531 0)"/>
      <use xlink:href="#DejaVuSans-73" transform="translate(167.244141 0)"/>
     </g>
    </g>
   </g>
   <g id="line2d_16">
    <path d="M 73.832727 122.875403 
L 74.049236 200.369234 
L 74.15749 214.060307 
L 74.482253 178.556202 
L 74.590507 235.216858 
L 74.807016 170.230123 
L 75.023524 53.568 
L 75.240033 144.72987 
L 75.348287 147.19937 
L 75.67305 184.160165 
L 75.781304 161.676415 
L 75.889558 165.215568 
L 75.997813 147.46038 
L 76.214321 210.72103 
L 76.322575 182.93234 
L 76.43083 184.161211 
L 76.647338 219.803449 
L 76.972101 191.916879 
L 77.080355 165.067932 
L 77.296864 200.886308 
L 77.405118 195.697249 
L 77.513372 173.162121 
L 77.621627 180.748247 
L 77.729881 166.42523 
L 77.946389 204.243018 
L 78.054644 148.440142 
L 78.162898 192.350722 
L 78.271152 179.532028 
L 78.487661 194.458443 
L 78.595915 189.145022 
L 78.704169 198.661745 
L 78.812424 167.536304 
L 78.920678 188.851778 
L 79.028932 184.820222 
L 79.137186 170.075612 
L 79.245441 232.381909 
L 79.353695 219.498171 
L 79.461949 178.607428 
L 79.570203 206.865993 
L 79.894966 181.33907 
L 80.00322 218.860257 
L 80.219729 190.866945 
L 80.327983 185.136129 
L 80.436238 195.546288 
L 80.544492 194.724005 
L 80.652746 179.723875 
L 80.761 188.454986 
L 80.869255 174.844718 
L 80.977509 188.606819 
L 81.085763 178.289809 
L 81.194017 188.860266 
L 81.302272 234.041336 
L 81.410526 192.938411 
L 81.51878 200.676225 
L 81.627034 187.838322 
L 81.735289 248.834968 
L 81.843543 210.347114 
L 81.951797 220.158172 
L 82.060052 267.716106 
L 82.168306 207.890628 
L 82.27656 208.426009 
L 82.384814 214.096716 
L 82.493069 213.30199 
L 82.709577 199.980594 
L 82.817831 250.462229 
L 82.926086 153.871464 
L 83.250848 198.616377 
L 83.359103 216.972839 
L 83.467357 189.213889 
L 83.575611 203.359758 
L 83.683866 193.958916 
L 84.008628 207.58936 
L 84.116883 195.164173 
L 84.225137 206.213065 
L 84.333391 181.465504 
L 84.441645 272.974129 
L 84.5499 173.711046 
L 84.658154 180.096328 
L 84.766408 160.343234 
L 85.091171 206.146041 
L 85.199425 203.62855 
L 85.30768 206.203796 
L 85.415934 221.200469 
L 85.632442 191.167565 
L 85.740697 181.810486 
L 85.848951 236.631357 
L 85.957205 182.85799 
L 86.065459 209.650874 
L 86.173714 198.494294 
L 86.390222 169.055208 
L 86.606731 193.411859 
L 86.714985 182.01737 
L 86.931494 200.511249 
L 87.039748 173.191522 
L 87.148002 190.80928 
L 87.256256 188.354804 
L 87.364511 199.711976 
L 87.472765 232.941637 
L 87.581019 193.252032 
L 87.689273 205.939799 
L 87.797528 204.685383 
L 87.905782 231.826857 
L 88.12229 189.840314 
L 88.230545 295.488 
L 88.447053 184.072444 
L 88.555308 164.585768 
L 88.663562 284.461865 
L 88.88007 165.448305 
L 89.529596 260.713207 
L 89.63785 202.19115 
L 89.746104 243.393718 
L 90.070867 211.547091 
L 90.179122 236.920143 
L 90.39563 176.82398 
L 90.503884 178.302475 
L 90.720393 201.461735 
L 90.828647 190.198739 
L 90.936901 212.268009 
L 91.045156 194.354485 
L 91.15341 216.858246 
L 91.478173 203.262093 
L 91.694681 215.433589 
L 91.802936 210.813878 
L 91.91119 228.748891 
L 92.127698 200.972143 
L 92.235953 200.654521 
L 92.344207 209.875164 
L 92.452461 208.386334 
L 92.560715 187.36835 
L 92.66897 201.927854 
L 92.993732 191.076246 
L 93.210241 198.933475 
L 93.318495 198.847621 
L 93.42675 214.074171 
L 93.643258 190.799021 
L 93.751512 205.982681 
L 93.859767 196.790052 
L 93.968021 197.330547 
L 94.076275 208.692302 
L 94.292784 195.814843 
L 94.401038 209.151197 
L 94.509292 196.98294 
L 94.617546 213.622534 
L 94.725801 194.808173 
L 94.834055 198.3507 
L 94.942309 205.69181 
L 95.050564 198.495761 
L 95.158818 201.74479 
L 95.267072 217.513811 
L 95.375326 205.289306 
L 95.483581 206.76877 
L 95.591835 201.50195 
L 95.700089 205.441254 
L 95.808343 198.4238 
L 95.916598 199.410304 
L 96.024852 205.488725 
L 96.24136 197.734651 
L 96.349615 202.53131 
L 96.457869 198.773289 
L 96.566123 203.351113 
L 96.674378 201.924425 
L 96.782632 203.63526 
L 96.99914 200.113563 
L 97.107395 223.857562 
L 97.215649 200.918703 
L 97.432157 204.673343 
L 97.75692 194.654429 
L 97.865174 202.515959 
L 98.081683 195.006352 
L 98.189937 201.254059 
L 98.298192 199.500937 
L 98.5147 192.030429 
L 98.622954 193.481345 
L 98.731209 198.931262 
L 98.839463 191.278661 
L 98.947717 192.185436 
L 99.055971 196.333549 
L 99.164226 194.252399 
L 99.27248 195.368114 
L 99.380734 193.190081 
L 99.488988 193.463471 
L 99.597243 194.970792 
L 99.705497 190.342059 
L 99.813751 194.178731 
L 99.922006 190.733287 
L 100.03026 195.477733 
L 100.138514 186.317037 
L 100.246768 196.773511 
L 100.355023 192.697783 
L 100.463277 197.015455 
L 100.571531 187.248261 
L 100.679785 194.166102 
L 100.78804 193.231994 
L 100.896294 195.023389 
L 101.004548 192.934073 
L 101.221057 198.640646 
L 101.329311 197.142117 
L 101.437565 194.570858 
L 101.54582 186.94045 
L 101.654074 190.00295 
L 101.762328 197.340566 
L 101.978837 193.437506 
L 102.087091 197.37075 
L 102.195345 194.059321 
L 102.411854 195.044394 
L 102.520108 201.21317 
L 102.844871 189.04438 
L 103.169634 194.09402 
L 103.386142 197.315257 
L 103.494396 198.795968 
L 103.602651 197.052808 
L 103.710905 201.913384 
L 103.819159 195.814718 
L 103.927413 196.411889 
L 104.035668 193.075726 
L 104.252176 198.056359 
L 104.36043 190.436142 
L 104.468685 199.637853 
L 104.685193 194.765335 
L 104.793448 194.787606 
L 105.009956 199.889038 
L 105.11821 197.618432 
L 105.226465 192.854674 
L 105.334719 198.163875 
L 105.551227 195.442204 
L 105.767736 191.525714 
L 105.87599 196.736205 
L 105.984244 195.238913 
L 106.092499 195.370495 
L 106.200753 195.012272 
L 106.309007 197.908129 
L 106.417262 196.54883 
L 106.525516 199.75775 
L 106.63377 194.347675 
L 106.742024 194.86295 
L 106.850279 193.492988 
L 106.958533 197.554089 
L 107.066787 191.730189 
L 107.175041 194.325292 
L 107.283296 193.914129 
L 107.39155 195.264053 
L 107.499804 200.869349 
L 107.608058 191.445209 
L 107.716313 194.151039 
L 107.824567 193.671307 
L 107.932821 198.963966 
L 108.14933 191.459803 
L 108.257584 192.218546 
L 108.365838 198.727918 
L 108.474093 194.06823 
L 108.690601 195.314835 
L 108.798855 200.05766 
L 109.015364 191.853845 
L 109.123618 192.305422 
L 109.231872 198.834385 
L 109.340127 196.873749 
L 109.448381 199.376884 
L 109.556635 193.629084 
L 109.66489 194.617117 
L 109.881398 200.721733 
L 109.989652 193.625705 
L 110.097907 194.14752 
L 110.206161 200.686653 
L 110.422669 194.48014 
L 110.530924 198.473946 
L 110.639178 192.348772 
L 110.747432 194.546952 
L 110.855686 192.513844 
L 110.963941 198.586504 
L 111.072195 192.870803 
L 111.180449 196.474422 
L 111.288704 191.827991 
L 111.396958 197.507971 
L 111.505212 194.452144 
L 111.613466 194.968546 
L 111.829975 192.484948 
L 112.046483 200.913742 
L 112.154738 197.71562 
L 112.262992 199.617031 
L 112.371246 194.980111 
L 112.4795 201.112131 
L 112.696009 194.212748 
L 112.804263 193.808613 
L 112.912518 197.040946 
L 113.020772 193.863062 
L 113.129026 201.718862 
L 113.23728 190.916638 
L 113.345535 192.303568 
L 113.453789 191.29687 
L 113.670297 199.04393 
L 113.886806 194.326021 
L 114.103314 200.086223 
L 114.211569 196.853253 
L 114.319823 201.280311 
L 114.428077 193.953121 
L 114.536332 196.249219 
L 114.644586 191.338733 
L 114.75284 199.490745 
L 114.969349 195.978075 
L 115.077603 203.724669 
L 115.185857 198.400249 
L 115.294111 199.324852 
L 115.618874 194.562191 
L 115.727128 196.771536 
L 115.835383 188.902239 
L 116.2684 201.595945 
L 116.593163 192.868196 
L 116.701417 200.976002 
L 116.809671 189.610622 
L 116.917925 193.562086 
L 117.02618 191.710384 
L 117.134434 194.836909 
L 117.242688 192.686478 
L 117.350942 194.967848 
L 117.459197 194.35683 
L 117.567451 195.469945 
L 117.675705 195.039703 
L 117.892214 189.495303 
L 118.000468 196.359871 
L 118.108722 191.007962 
L 118.216977 191.416471 
L 118.325231 198.470196 
L 118.649994 193.470715 
L 118.758248 192.640151 
L 118.866502 190.464548 
L 118.974756 192.072705 
L 119.083011 191.419454 
L 119.191265 191.711738 
L 119.299519 197.321686 
L 119.516028 189.373081 
L 119.840791 193.628388 
L 120.057299 192.068655 
L 120.165553 195.578992 
L 120.382062 191.450801 
L 120.490316 194.981312 
L 120.706825 192.202693 
L 120.923333 189.665384 
L 121.031587 193.156087 
L 121.139842 191.803917 
L 121.248096 197.824467 
L 121.35635 188.440549 
L 121.572859 192.398957 
L 121.681113 195.698535 
L 121.789367 194.102245 
L 121.897622 197.265684 
L 122.005876 188.691584 
L 122.222384 194.165087 
L 122.438893 191.288244 
L 122.547147 192.338923 
L 122.655401 189.982076 
L 122.763656 194.252342 
L 122.980164 190.179902 
L 123.088419 197.185181 
L 123.196673 193.482156 
L 123.304927 193.718486 
L 123.413181 197.521777 
L 123.521436 190.517961 
L 123.62969 196.007418 
L 123.737944 193.511181 
L 123.846198 195.508445 
L 124.062707 192.422501 
L 124.170961 196.592685 
L 124.38747 192.497487 
L 124.495724 194.842376 
L 124.603978 199.607903 
L 124.712233 191.216407 
L 124.820487 192.88887 
L 125.036995 190.626356 
L 125.14525 194.450129 
L 125.253504 194.392137 
L 125.361758 193.657913 
L 125.470012 196.637918 
L 125.578267 195.582139 
L 125.686521 193.13504 
L 125.794775 195.12934 
L 125.903029 193.431611 
L 126.011284 198.293254 
L 126.119538 191.476533 
L 126.227792 195.279489 
L 126.336047 189.555707 
L 126.552555 194.20137 
L 126.660809 197.816325 
L 126.769064 194.974115 
L 126.877318 196.498498 
L 126.985572 193.188552 
L 127.093826 194.280613 
L 127.202081 199.511822 
L 127.526843 190.813194 
L 127.635098 191.415526 
L 127.743352 194.583511 
L 127.851606 193.29563 
L 127.959861 197.424633 
L 128.068115 195.746792 
L 128.176369 196.858842 
L 128.392878 193.503743 
L 128.501132 195.551859 
L 128.71764 191.992524 
L 128.825895 192.492689 
L 128.934149 194.041874 
L 129.042403 192.404069 
L 129.258912 195.612741 
L 129.47542 187.833594 
L 129.691929 194.996642 
L 129.800183 189.667414 
L 129.908437 195.850549 
L 130.016692 195.637032 
L 130.124946 196.567638 
L 130.341454 191.392769 
L 130.449709 192.45015 
L 130.557963 189.735455 
L 130.774471 190.420851 
L 130.99098 192.523579 
L 131.207489 190.386188 
L 131.315743 194.361127 
L 131.423997 194.266948 
L 131.532251 194.497334 
L 131.640506 195.196168 
L 131.74876 194.851801 
L 131.857014 196.882927 
L 131.965268 194.296373 
L 132.073523 195.365696 
L 132.181777 198.866606 
L 132.398285 195.325741 
L 132.50654 193.864368 
L 132.614794 190.783777 
L 132.723048 194.167997 
L 132.831303 188.369546 
L 132.939557 193.236668 
L 133.047811 193.112892 
L 133.156065 191.245223 
L 133.26432 194.387837 
L 133.372574 193.864096 
L 133.589082 196.71606 
L 133.805591 189.056017 
L 134.022099 202.094693 
L 134.130354 191.570797 
L 134.238608 193.41184 
L 134.455117 199.214296 
L 134.563371 190.277321 
L 134.671625 191.259428 
L 134.779879 190.479946 
L 134.888134 191.633803 
L 134.996388 191.32634 
L 135.104642 191.882095 
L 135.321151 191.305317 
L 135.429405 190.57428 
L 135.537659 193.527688 
L 135.645913 191.561968 
L 135.862422 192.172532 
L 136.078931 201.718206 
L 136.187185 194.848343 
L 136.295439 195.597825 
L 136.403693 193.527444 
L 136.620202 194.051767 
L 136.83671 191.118527 
L 137.053219 195.190311 
L 137.161473 194.685235 
L 137.377982 196.862426 
L 137.59449 193.912533 
L 137.702745 195.149937 
L 137.810999 199.958576 
L 137.919253 196.490543 
L 138.027507 199.185592 
L 138.135762 195.857594 
L 138.244016 196.075534 
L 138.35227 192.255299 
L 138.568779 199.238994 
L 138.785287 192.674014 
L 138.893541 190.937777 
L 139.001796 195.489987 
L 139.11005 192.683002 
L 139.218304 196.992274 
L 139.434813 194.554751 
L 139.543067 197.289398 
L 139.651321 195.008415 
L 139.759576 197.013735 
L 139.86783 195.019867 
L 139.976084 200.016669 
L 140.192593 192.652975 
L 140.409101 193.688204 
L 140.62561 191.734127 
L 140.733864 194.173124 
L 140.842118 192.862425 
L 141.058627 194.66588 
L 141.275135 192.982606 
L 141.38339 191.545787 
L 141.491644 193.212998 
L 141.708152 192.316212 
L 141.816407 192.855662 
L 141.924661 195.53998 
L 142.032915 192.39059 
L 142.249424 194.196374 
L 142.357678 192.456067 
L 142.465932 197.443485 
L 142.682441 192.56174 
L 142.790695 195.560718 
L 143.007204 193.567789 
L 143.223712 194.516023 
L 143.331966 194.011669 
L 143.440221 197.95178 
L 143.656729 191.694834 
L 143.764983 193.456106 
L 143.981492 192.140249 
L 144.306255 195.823827 
L 144.522763 190.629992 
L 144.631018 192.30348 
L 144.739272 197.017689 
L 144.847526 195.300339 
L 144.95578 191.36473 
L 145.172289 193.590055 
L 145.280543 192.361717 
L 145.388797 197.893303 
L 145.497052 189.893231 
L 145.605306 190.234593 
L 145.821815 192.635904 
L 145.930069 189.243245 
L 146.038323 192.64443 
L 146.254832 189.482021 
L 146.363086 192.122503 
L 146.47134 187.771782 
L 146.796103 193.698545 
L 146.904357 189.889518 
L 147.120866 193.954253 
L 147.22912 193.84525 
L 147.337374 188.338273 
L 147.553883 193.528877 
L 147.662137 195.812979 
L 147.770391 189.253434 
L 147.878646 194.713339 
L 147.9869 191.492703 
L 148.203408 193.460513 
L 148.311663 191.20661 
L 148.419917 193.957479 
L 148.528171 192.5671 
L 148.74468 196.51108 
L 148.852934 192.323164 
L 148.961188 197.717362 
L 149.069443 192.099662 
L 149.285951 195.601777 
L 149.50246 191.265375 
L 149.610714 191.544509 
L 149.718968 189.799428 
L 149.827222 194.098702 
L 150.043731 190.696974 
L 150.151985 195.211022 
L 150.260239 194.962793 
L 150.368494 196.075568 
L 150.476748 195.663683 
L 150.585002 194.364248 
L 150.693257 194.453398 
L 150.801511 191.415939 
L 150.909765 192.963499 
L 151.018019 191.987289 
L 151.126274 198.267073 
L 151.234528 192.462482 
L 151.451036 194.884595 
L 151.559291 193.129048 
L 151.667545 197.278693 
L 151.884053 192.27556 
L 151.992308 193.826784 
L 152.100562 194.802686 
L 152.208816 199.156708 
L 152.425325 188.160548 
L 152.641833 196.417555 
L 152.750088 193.033781 
L 152.858342 195.146117 
L 152.966596 200.272672 
L 153.07485 194.898515 
L 153.183105 195.372593 
L 153.399613 191.598012 
L 153.507867 190.770713 
L 153.724376 193.888597 
L 153.83263 190.819301 
L 153.940885 191.107866 
L 154.049139 190.570484 
L 154.265647 198.979678 
L 154.482156 191.947686 
L 154.59041 195.009733 
L 154.698664 190.515406 
L 154.806919 197.083233 
L 155.023427 193.655358 
L 155.131681 193.863503 
L 155.34819 189.258871 
L 155.564699 196.165299 
L 155.672953 193.146845 
L 155.781207 194.081465 
L 155.889461 192.594151 
L 155.997716 193.080567 
L 156.10597 192.622111 
L 156.322478 193.880123 
L 156.430733 192.847354 
L 156.647241 190.544852 
L 156.755495 194.726029 
L 156.972004 193.114697 
L 157.080258 188.375407 
L 157.188513 191.336557 
L 157.296767 191.005396 
L 157.405021 191.987002 
L 157.513275 190.666111 
L 157.62153 190.789767 
L 157.729784 193.837165 
L 157.946292 191.12168 
L 158.054547 194.506687 
L 158.162801 190.748909 
L 158.271055 190.830432 
L 158.487564 194.058227 
L 158.704072 192.15832 
L 158.812327 192.291516 
L 159.028835 191.253938 
L 159.137089 194.552509 
L 159.353598 193.781496 
L 159.461852 194.452342 
L 159.678361 193.549638 
L 159.786615 195.274185 
L 159.894869 203.165298 
L 160.003123 194.001194 
L 160.219632 195.781887 
L 160.436141 193.758535 
L 160.544395 196.941884 
L 160.869158 190.090337 
L 160.977412 191.424444 
L 161.19392 196.108358 
L 161.410429 197.70671 
L 161.626937 192.32356 
L 161.735192 195.448648 
L 161.843446 193.430939 
L 161.9517 195.798048 
L 162.059955 191.426801 
L 162.168209 191.432232 
L 162.276463 191.244613 
L 162.492972 196.489669 
L 162.601226 194.446504 
L 162.70948 194.562785 
L 162.925989 191.488274 
L 163.034243 194.030415 
L 163.250751 192.380275 
L 163.46726 196.198917 
L 163.683769 190.66266 
L 163.900277 193.163542 
L 164.008531 191.798998 
L 164.116786 192.03773 
L 164.22504 191.344289 
L 164.441548 192.034949 
L 164.549803 189.64235 
L 164.766311 194.26887 
L 164.874565 191.618347 
L 165.091074 192.52796 
L 165.199328 191.557729 
L 165.307583 193.924611 
L 165.415837 192.325182 
L 165.524091 192.60566 
L 165.632345 191.566784 
L 165.7406 193.337702 
L 165.848854 191.943972 
L 166.173617 196.239792 
L 166.281871 196.389449 
L 166.498379 193.211901 
L 166.606634 193.055814 
L 166.714888 195.024158 
L 166.823142 191.332953 
L 166.931397 191.430648 
L 167.256159 197.206761 
L 167.364414 193.259126 
L 167.472668 195.967326 
L 167.689176 191.414298 
L 167.797431 193.441537 
L 167.905685 192.883353 
L 168.013939 195.004665 
L 168.338702 191.07276 
L 168.446956 191.507188 
L 168.555211 193.253026 
L 168.771719 189.934773 
L 168.988228 195.071398 
L 169.096482 193.243963 
L 169.204736 194.07663 
L 169.421245 189.374108 
L 169.529499 191.80532 
L 169.746007 190.38443 
L 169.854262 192.382496 
L 170.07077 190.639243 
L 170.287279 194.474369 
L 170.395533 192.025757 
L 170.503787 192.100234 
L 170.612042 192.03505 
L 170.720296 190.612223 
L 170.82855 192.611681 
L 170.936804 191.592337 
L 171.045059 192.154318 
L 171.261567 194.920195 
L 171.478076 192.197092 
L 171.58633 192.434226 
L 171.694584 192.027276 
L 171.802839 195.536102 
L 171.911093 191.942312 
L 172.019347 194.188437 
L 172.127601 192.011412 
L 172.34411 193.884149 
L 172.452364 194.814966 
L 172.560618 194.550127 
L 172.668873 193.645531 
L 172.777127 194.90578 
L 172.885381 192.227012 
L 172.993635 195.137332 
L 173.10189 192.823306 
L 173.210144 194.069995 
L 173.426653 193.410936 
L 173.534907 193.22987 
L 173.643161 190.812518 
L 173.751415 192.65881 
L 173.85967 192.201332 
L 173.967924 191.231061 
L 174.076178 193.751657 
L 174.292687 191.94205 
L 174.400941 192.871377 
L 174.509195 192.399694 
L 174.725704 195.362532 
L 174.833958 195.683786 
L 175.158721 189.316704 
L 175.375229 192.317791 
L 175.483484 194.592266 
L 175.699992 190.073665 
L 175.916501 193.093066 
L 176.024755 190.92124 
L 176.133009 192.587787 
L 176.241263 191.398305 
L 176.674281 194.990261 
L 176.782535 192.082971 
L 176.890789 193.41698 
L 176.999043 191.540862 
L 177.107298 194.108039 
L 177.215552 192.814833 
L 177.323806 193.182426 
L 177.540315 191.591943 
L 177.648569 197.834602 
L 177.973332 188.602781 
L 178.081586 192.28071 
L 178.18984 190.880321 
L 178.406349 192.519857 
L 178.514603 191.031848 
L 178.622857 192.222646 
L 178.731112 191.930361 
L 178.839366 190.306252 
L 178.94762 190.367658 
L 179.055874 192.413319 
L 179.164129 199.037546 
L 179.272383 191.841717 
L 179.380637 193.867549 
L 179.488891 193.318758 
L 179.597146 192.183134 
L 179.813654 193.248558 
L 180.030163 197.365441 
L 180.354926 193.953348 
L 180.46318 192.595106 
L 180.571434 192.650895 
L 180.679688 190.771527 
L 180.787943 191.432654 
L 181.112705 195.845617 
L 181.22096 192.156369 
L 181.329214 194.058118 
L 181.545723 191.049292 
L 181.653977 188.655142 
L 181.870485 192.009654 
L 181.97874 192.473222 
L 182.086994 195.809208 
L 182.195248 193.326625 
L 182.303502 194.928544 
L 182.411757 194.503742 
L 182.520011 195.411091 
L 182.628265 192.821265 
L 182.736519 194.153358 
L 182.844774 191.160558 
L 182.953028 194.060211 
L 183.061282 192.824912 
L 183.169537 192.840413 
L 183.277791 193.94354 
L 183.494299 191.472299 
L 183.602554 190.448015 
L 183.710808 194.835856 
L 183.927316 190.973782 
L 184.143825 195.753627 
L 184.252079 195.003677 
L 184.468588 201.006158 
L 184.685096 191.27397 
L 184.901605 196.996725 
L 185.009859 196.444881 
L 185.118113 190.624172 
L 185.334622 198.55031 
L 185.442876 198.291523 
L 185.55113 197.376723 
L 185.659385 197.657505 
L 185.875893 193.518525 
L 185.984147 193.570708 
L 186.092402 191.807708 
L 186.200656 195.539495 
L 186.30891 194.770952 
L 186.417165 202.988726 
L 186.525419 192.461689 
L 186.633673 197.207519 
L 186.741927 190.32095 
L 186.850182 195.165095 
L 186.958436 186.825069 
L 187.283199 195.34381 
L 187.391453 198.90145 
L 187.499707 196.632182 
L 187.607961 197.041115 
L 187.716216 195.96218 
L 187.932724 192.540711 
L 188.040979 194.776596 
L 188.149233 191.769447 
L 188.365741 196.456972 
L 188.473996 193.525399 
L 188.58225 197.703336 
L 188.798758 192.623031 
L 188.907013 193.546486 
L 189.015267 192.435554 
L 189.231775 193.431891 
L 189.34003 195.947509 
L 189.448284 192.173524 
L 189.556538 192.183019 
L 189.664793 194.472924 
L 189.773047 193.374989 
L 189.881301 187.686124 
L 189.989555 193.558388 
L 190.09781 191.458715 
L 190.314318 192.49241 
L 190.422572 194.0296 
L 190.530827 193.682451 
L 190.639081 191.706628 
L 190.963844 194.840032 
L 191.072098 194.47612 
L 191.180352 193.526182 
L 191.288607 195.364879 
L 191.505115 192.825643 
L 191.721624 193.941182 
L 191.829878 197.447775 
L 191.938132 193.698534 
L 192.154641 196.142562 
L 192.262895 193.674154 
L 192.587658 197.316013 
L 192.695912 192.048489 
L 192.804166 195.714372 
L 192.912421 192.897272 
L 193.128929 196.480352 
L 193.237183 194.169536 
L 193.345438 194.367551 
L 193.453692 192.948537 
L 193.561946 195.424626 
L 193.6702 190.284858 
L 193.778455 190.65362 
L 193.886709 194.862902 
L 194.103217 191.377871 
L 194.211472 194.526567 
L 194.644489 192.35846 
L 194.752743 192.015999 
L 195.077506 195.609084 
L 195.18576 194.518396 
L 195.294014 195.718304 
L 195.402269 192.014619 
L 195.510523 193.985597 
L 195.618777 192.705174 
L 195.727031 189.535439 
L 195.835286 195.038317 
L 195.94354 193.59345 
L 196.051794 195.188327 
L 196.268303 192.663416 
L 196.376557 193.308732 
L 196.484811 194.860839 
L 196.70132 191.271325 
L 196.809574 195.123232 
L 196.917828 192.981648 
L 197.026083 193.742514 
L 197.242591 189.666698 
L 197.567354 193.812053 
L 197.783862 196.767586 
L 198.108625 190.658435 
L 198.21688 190.96181 
L 198.325134 194.326776 
L 198.433388 192.121696 
L 198.541642 196.093592 
L 198.649897 193.073882 
L 198.866405 194.660152 
L 199.082914 191.196207 
L 199.191168 190.409848 
L 199.407676 193.257354 
L 199.515931 195.200527 
L 199.732439 193.159843 
L 199.840694 190.30374 
L 199.948948 191.241227 
L 200.057202 190.701419 
L 200.165456 190.764884 
L 200.381965 193.931177 
L 200.490219 193.332655 
L 200.598473 194.955128 
L 200.706728 194.525573 
L 200.814982 192.459229 
L 200.923236 192.487499 
L 201.03149 191.080414 
L 201.356253 192.988574 
L 201.464508 196.90855 
L 201.681016 191.848173 
L 201.78927 192.034605 
L 201.897525 193.629311 
L 202.005779 192.304286 
L 202.114033 192.673387 
L 202.222287 194.213972 
L 202.330542 194.168789 
L 202.438796 192.984246 
L 202.54705 194.856505 
L 202.655304 192.13464 
L 202.763559 193.858686 
L 202.871813 191.983473 
L 202.980067 193.434548 
L 203.088322 192.101308 
L 203.196576 192.579259 
L 203.30483 192.052693 
L 203.413084 195.084248 
L 203.521339 194.12993 
L 203.629593 194.880586 
L 203.954356 193.133624 
L 204.170864 192.467659 
L 204.387373 192.929914 
L 204.495627 194.857881 
L 205.253407 190.45533 
L 205.361661 189.042362 
L 205.57817 192.920386 
L 205.686424 192.297133 
L 205.794678 192.517732 
L 205.902932 191.225151 
L 206.011187 192.162423 
L 206.119441 191.884466 
L 206.227695 192.584464 
L 206.33595 189.132462 
L 206.444204 192.93171 
L 206.660712 191.296968 
L 206.877221 193.939515 
L 206.985475 191.591624 
L 207.093729 191.823392 
L 207.201984 190.272015 
L 207.310238 191.720401 
L 207.418492 190.93175 
L 207.526746 194.235456 
L 207.743255 191.518774 
L 207.959764 195.375569 
L 208.284526 190.393464 
L 208.501035 191.715652 
L 208.609289 191.347948 
L 208.825798 192.900071 
L 208.934052 192.741075 
L 209.042306 191.243423 
L 209.367069 192.647854 
L 209.583578 191.885221 
L 209.800086 192.375132 
L 209.90834 195.401183 
L 210.124849 192.323706 
L 210.341357 189.549816 
L 210.882629 193.296715 
L 210.990883 192.108629 
L 211.099137 192.533683 
L 211.315646 192.020064 
L 211.4239 191.708512 
L 211.532154 194.951143 
L 211.640409 192.068422 
L 211.748663 194.186026 
L 211.856917 193.235975 
L 211.965171 193.683442 
L 212.18168 195.116799 
L 212.289934 199.249244 
L 212.398188 195.493831 
L 212.506443 195.710265 
L 212.722951 192.529534 
L 212.831206 193.076559 
L 212.93946 192.187635 
L 213.047714 195.288777 
L 213.155968 193.892338 
L 213.372477 200.115794 
L 213.588985 191.153172 
L 213.805494 194.075591 
L 213.913748 191.225426 
L 214.022002 194.547641 
L 214.130257 191.45139 
L 214.346765 192.558017 
L 214.45502 191.004395 
L 214.563274 193.330632 
L 214.671528 193.030628 
L 214.779782 191.613704 
L 214.888037 186.310132 
L 215.104545 190.126432 
L 215.212799 197.391458 
L 215.321054 196.116618 
L 215.537562 196.351745 
L 215.645816 191.825102 
L 215.754071 192.675326 
L 215.862325 195.851361 
L 216.078834 188.757798 
L 216.187088 187.741201 
L 216.295342 190.031206 
L 216.403596 189.996735 
L 216.511851 189.893415 
L 216.728359 193.891016 
L 216.944868 191.049205 
L 217.161376 194.696722 
L 217.486139 190.657323 
L 217.594393 193.407202 
L 217.702648 189.327304 
L 217.810902 191.301136 
L 217.919156 190.401471 
L 218.02741 196.783368 
L 218.243919 190.799238 
L 218.352173 192.013032 
L 218.460427 191.94134 
L 218.676936 195.26306 
L 218.78519 194.061269 
L 218.893444 194.330482 
L 219.001699 192.282973 
L 219.109953 192.545265 
L 219.326462 188.247328 
L 219.434716 190.58975 
L 219.54297 189.89368 
L 219.867733 196.93885 
L 219.975987 195.976575 
L 220.084241 196.181205 
L 220.192496 196.811398 
L 220.30075 193.095307 
L 220.409004 193.242575 
L 220.517258 192.150111 
L 220.625513 195.754923 
L 220.842021 192.646713 
L 220.950276 195.857608 
L 221.166784 192.489587 
L 221.275038 205.131996 
L 221.491547 198.091221 
L 221.599801 201.773303 
L 221.81631 187.812573 
L 222.032818 201.175853 
L 222.357581 191.350091 
L 222.57409 198.234502 
L 222.682344 193.085561 
L 222.790598 194.267879 
L 222.898852 192.546724 
L 223.007107 194.022854 
L 223.115361 197.511598 
L 223.331869 190.938195 
L 223.548378 195.406102 
L 223.656632 192.862372 
L 223.764886 194.570096 
L 223.873141 193.619825 
L 223.981395 194.2378 
L 224.089649 193.675699 
L 224.197904 194.764085 
L 224.306158 192.152092 
L 224.414412 194.008093 
L 224.739175 192.96083 
L 224.847429 195.624254 
L 224.955683 194.302517 
L 225.172192 197.140055 
L 225.3887 193.842046 
L 225.496955 194.856535 
L 225.821718 190.531316 
L 225.929972 192.47589 
L 226.038226 191.010359 
L 226.14648 193.742947 
L 226.254735 189.331775 
L 226.362989 193.766161 
L 226.471243 192.28486 
L 226.579497 196.829337 
L 226.687752 190.803815 
L 226.90426 194.238713 
L 227.012514 196.498781 
L 227.229023 193.821862 
L 227.445532 191.418939 
L 227.66204 194.125897 
L 227.770294 194.300022 
L 227.878549 195.641248 
L 228.095057 192.084359 
L 228.203311 193.239945 
L 228.311566 193.011112 
L 228.41982 197.819493 
L 228.636328 192.272056 
L 228.744583 191.357207 
L 228.852837 191.729828 
L 228.961091 180.552374 
L 229.069346 196.296353 
L 229.1776 196.010662 
L 229.285854 196.879445 
L 229.502363 192.996246 
L 229.610617 192.880532 
L 229.718871 193.091728 
L 229.827125 194.567398 
L 229.93538 193.495692 
L 230.043634 194.377977 
L 230.260142 187.430318 
L 230.368397 186.887413 
L 230.476651 185.574395 
L 230.69316 187.244355 
L 231.126177 194.254417 
L 231.234431 192.209969 
L 231.342685 193.245292 
L 231.559194 190.424521 
L 231.667448 188.996592 
L 231.775702 195.509733 
L 231.883956 188.664004 
L 231.992211 195.098219 
L 232.208719 191.833532 
L 232.316974 194.008255 
L 232.425228 188.050148 
L 232.533482 194.514394 
L 232.641736 191.670385 
L 232.749991 194.267659 
L 232.966499 193.772352 
L 233.074753 193.20385 
L 233.183008 191.534728 
L 233.291262 194.266633 
L 233.399516 194.164894 
L 233.50777 191.289431 
L 233.616025 192.74262 
L 233.724279 191.123169 
L 233.832533 195.078327 
L 233.940788 194.915739 
L 234.157296 190.035033 
L 234.26555 192.670043 
L 234.373805 191.713426 
L 234.698567 194.604665 
L 234.806822 194.287407 
L 234.915076 195.389961 
L 235.02333 192.586494 
L 235.131584 193.475803 
L 235.239839 193.199664 
L 235.348093 195.296073 
L 235.456347 193.624155 
L 235.564602 194.456545 
L 235.672856 191.964955 
L 235.889364 194.662284 
L 235.997619 191.969845 
L 236.105873 193.965038 
L 236.322381 190.338955 
L 236.430636 191.28544 
L 236.53889 190.728486 
L 236.647144 191.21909 
L 236.755398 194.744845 
L 236.971907 190.306219 
L 237.188416 192.66148 
L 237.404924 189.998477 
L 237.513178 191.468422 
L 237.729687 194.972952 
L 237.837941 195.066218 
L 238.05445 192.074594 
L 238.162704 194.273588 
L 238.379212 190.83054 
L 238.487467 191.547848 
L 238.703975 195.074076 
L 238.81223 196.085907 
L 238.920484 195.634321 
L 239.028738 196.469014 
L 239.245247 192.839204 
L 239.353501 196.636118 
L 239.570009 193.432536 
L 239.678264 194.460172 
L 239.786518 197.204244 
L 240.003026 192.644834 
L 240.111281 197.061305 
L 240.219535 192.685648 
L 240.327789 194.499073 
L 240.436044 191.279881 
L 240.652552 195.416541 
L 240.977315 188.131823 
L 241.085569 188.758895 
L 241.193823 194.783203 
L 241.410332 190.98756 
L 241.518586 191.09275 
L 241.62684 190.961157 
L 241.735095 191.649457 
L 241.843349 190.50938 
L 241.951603 193.224651 
L 242.059858 193.159114 
L 242.168112 194.352005 
L 242.276366 192.106784 
L 242.38462 199.228326 
L 242.492875 197.040394 
L 242.601129 200.090273 
L 242.709383 189.494377 
L 243.1424 197.605918 
L 243.250654 196.82814 
L 243.358909 196.264523 
L 243.467163 197.356403 
L 243.575417 190.594053 
L 243.90018 198.542534 
L 244.008434 196.146291 
L 244.116689 198.312451 
L 244.224943 194.013403 
L 244.333197 195.319352 
L 244.549706 193.387015 
L 244.65796 195.783456 
L 244.766214 192.878299 
L 244.874468 193.061421 
L 244.982723 193.554351 
L 245.090977 191.387404 
L 245.307486 195.228746 
L 245.41574 192.575116 
L 245.523994 196.262864 
L 245.632248 192.800447 
L 245.740503 194.729709 
L 245.848757 194.437486 
L 246.065265 195.536367 
L 246.17352 194.713418 
L 246.281774 191.417269 
L 246.498282 197.300205 
L 246.606537 194.189619 
L 246.823045 196.7199 
L 246.9313 195.636569 
L 247.039554 197.02374 
L 247.147808 196.129124 
L 247.256062 190.960751 
L 247.364317 191.734546 
L 247.472571 190.981755 
L 247.580825 193.022054 
L 247.689079 192.885685 
L 247.797334 194.293849 
L 247.905588 193.757307 
L 248.013842 194.022449 
L 248.122096 199.520218 
L 248.230351 197.450522 
L 248.446859 190.699915 
L 248.555114 191.113925 
L 248.663368 190.408006 
L 248.988131 194.408646 
L 249.204639 192.458034 
L 249.312893 192.65677 
L 249.421148 190.394121 
L 249.637656 196.455496 
L 249.854165 190.55781 
L 249.962419 192.274211 
L 250.178928 191.325675 
L 250.287182 193.721039 
L 250.395436 193.162236 
L 250.50369 191.777788 
L 250.611945 196.060211 
L 250.720199 191.21303 
L 250.828453 192.769384 
L 250.936707 192.272578 
L 251.044962 190.266192 
L 251.153216 191.080024 
L 251.26147 191.002788 
L 251.477979 194.270511 
L 251.586233 191.939538 
L 251.694487 192.365046 
L 251.802742 192.199102 
L 251.910996 191.086834 
L 252.01925 193.338311 
L 252.127504 192.393023 
L 252.235759 195.648313 
L 252.560521 190.786095 
L 252.77703 191.341979 
L 252.993538 195.366525 
L 253.101793 195.83768 
L 253.210047 195.400322 
L 253.318301 192.802291 
L 253.426556 193.347052 
L 253.53481 190.972815 
L 253.751318 194.214749 
L 253.967827 192.357133 
L 254.184335 194.876665 
L 254.29259 194.486085 
L 254.400844 191.961964 
L 254.509098 193.354677 
L 254.617352 193.290014 
L 254.725607 197.528773 
L 254.833861 196.859641 
L 255.05037 194.248667 
L 255.158624 195.665911 
L 255.266878 194.50869 
L 255.375132 194.605199 
L 255.483387 194.138786 
L 255.591641 197.183751 
L 255.699895 193.856482 
L 255.808149 195.017514 
L 255.916404 192.695832 
L 256.024658 194.47392 
L 256.241166 189.470879 
L 256.349421 190.265499 
L 256.457675 194.114871 
L 256.565929 190.354198 
L 256.674184 192.901164 
L 256.782438 190.393792 
L 256.890692 190.537516 
L 256.998946 191.050438 
L 257.107201 194.116053 
L 257.323709 193.551783 
L 257.431963 193.267506 
L 257.540218 194.327692 
L 257.648472 193.218718 
L 257.756726 205.326111 
L 257.973235 195.421578 
L 258.081489 195.52647 
L 258.189743 199.227726 
L 258.406252 195.288272 
L 258.514506 198.71486 
L 258.62276 197.336452 
L 258.731015 198.790401 
L 259.055777 196.15322 
L 259.164032 195.671686 
L 259.488794 191.387762 
L 259.597049 194.038365 
L 259.705303 193.274703 
L 259.813557 195.480358 
L 260.030066 193.327088 
L 260.13832 188.420195 
L 260.246574 194.331368 
L 260.463083 191.390111 
L 260.787846 194.019582 
L 260.8961 193.721325 
L 261.004354 187.439996 
L 261.220863 190.600316 
L 261.437371 202.000599 
L 261.65388 192.026272 
L 261.762134 188.148694 
L 261.870388 188.16789 
L 261.978643 188.769015 
L 262.086897 190.248159 
L 262.195151 188.174654 
L 262.41166 196.697492 
L 262.519914 198.911503 
L 262.628168 198.180972 
L 263.16944 190.069736 
L 263.277694 195.349007 
L 263.385948 193.690887 
L 263.494202 197.857882 
L 263.602457 194.053278 
L 263.818965 198.046845 
L 263.927219 192.053256 
L 264.251982 197.203172 
L 264.468491 191.575657 
L 264.576745 192.964115 
L 264.684999 191.619777 
L 264.793254 194.302513 
L 264.901508 193.162921 
L 265.009762 194.382456 
L 265.118016 204.115478 
L 265.334525 194.157361 
L 265.551033 190.773258 
L 265.767542 197.734016 
L 265.875796 196.008091 
L 265.98405 191.690544 
L 266.092305 194.886421 
L 266.200559 194.105753 
L 266.308813 189.643726 
L 266.417068 194.830295 
L 266.525322 194.030754 
L 266.633576 194.177268 
L 266.74183 194.729149 
L 266.850085 192.504737 
L 266.958339 193.523603 
L 267.174847 191.902677 
L 267.283102 194.947087 
L 267.391356 190.354274 
L 267.49961 190.707137 
L 267.716119 196.534295 
L 267.824373 196.90453 
L 268.040882 194.838201 
L 268.149136 196.004394 
L 268.365644 195.165954 
L 268.473899 195.565055 
L 268.690407 191.930117 
L 268.798661 192.878949 
L 268.906916 189.867953 
L 269.01517 192.522878 
L 269.123424 192.227179 
L 269.231678 192.421227 
L 269.448187 196.619011 
L 269.556441 194.188915 
L 269.664696 194.951809 
L 269.77295 190.884418 
L 269.881204 191.35214 
L 269.989458 192.87015 
L 270.097713 196.122062 
L 270.205967 194.74496 
L 270.422475 191.838587 
L 270.638984 193.728318 
L 270.747238 192.80274 
L 270.855492 193.844733 
L 270.963747 188.716702 
L 271.072001 194.247096 
L 271.180255 192.411548 
L 271.28851 192.781163 
L 271.396764 191.40306 
L 271.505018 191.435453 
L 271.721527 191.537107 
L 271.829781 194.674126 
L 271.938035 194.176911 
L 272.154544 192.705005 
L 272.262798 192.738416 
L 272.371052 192.37563 
L 272.695815 198.476292 
L 272.804069 192.459891 
L 273.128832 194.557711 
L 273.345341 193.041052 
L 273.453595 194.980792 
L 273.561849 194.364802 
L 273.670103 192.641424 
L 273.778358 192.862114 
L 273.886612 195.131802 
L 274.211375 191.699728 
L 274.319629 192.110937 
L 274.427883 191.856172 
L 274.536138 192.84875 
L 274.752646 192.303771 
L 274.8609 193.975942 
L 274.969155 191.876163 
L 275.077409 194.958755 
L 275.293917 192.182211 
L 275.402172 193.941713 
L 275.61868 192.783014 
L 275.835189 194.110751 
L 275.943443 192.085019 
L 276.051697 193.04537 
L 276.268206 192.450321 
L 276.37646 193.334677 
L 276.484714 192.126842 
L 276.592969 194.517426 
L 276.701223 192.556376 
L 276.809477 193.196141 
L 276.917731 192.808363 
L 277.025986 192.939048 
L 277.13424 194.520109 
L 277.350748 192.77314 
L 277.459003 193.228546 
L 277.675511 192.050122 
L 277.783765 193.024055 
L 277.89202 192.565995 
L 278.000274 192.921423 
L 278.108528 192.732215 
L 278.216783 194.18593 
L 278.433291 191.642106 
L 278.541545 191.299575 
L 278.758054 193.335087 
L 278.866308 192.000027 
L 278.974562 192.241372 
L 279.082817 192.003998 
L 279.191071 192.631804 
L 279.299325 196.571712 
L 279.407579 192.92984 
L 279.515834 192.942892 
L 279.624088 192.549688 
L 279.732342 193.404746 
L 279.840597 192.050169 
L 279.948851 194.493477 
L 280.057105 193.718771 
L 280.165359 191.633486 
L 280.273614 191.726363 
L 280.381868 193.653729 
L 280.490122 192.204952 
L 280.598376 192.276822 
L 280.706631 193.369741 
L 281.031393 192.034991 
L 281.139648 190.41936 
L 281.247902 192.453891 
L 281.356156 192.218263 
L 281.464411 193.54915 
L 281.572665 193.504368 
L 281.680919 192.7131 
L 281.789173 193.647024 
L 281.897428 193.240962 
L 282.005682 193.898052 
L 282.113936 193.642714 
L 282.22219 192.292992 
L 282.330445 193.662866 
L 282.546953 191.299495 
L 282.655207 191.375411 
L 282.763462 193.311695 
L 282.871716 192.386734 
L 282.97997 192.873576 
L 283.088225 191.752775 
L 283.196479 193.201216 
L 283.304733 192.907398 
L 283.412987 193.827419 
L 283.629496 191.680392 
L 283.73775 193.611298 
L 283.846004 193.301315 
L 284.062513 192.378687 
L 284.170767 193.607178 
L 284.279021 192.937004 
L 284.387276 193.141155 
L 284.712039 191.235891 
L 284.820293 193.316142 
L 284.928547 191.673762 
L 285.036801 194.847042 
L 285.145056 192.327358 
L 285.25331 193.460876 
L 285.361564 193.168062 
L 285.469818 192.503679 
L 285.578073 192.959679 
L 285.794581 192.137227 
L 285.902835 194.633979 
L 286.01109 192.047299 
L 286.119344 192.153495 
L 286.227598 192.49215 
L 286.335853 195.337581 
L 286.552361 190.550094 
L 286.660615 191.40845 
L 286.877124 196.920826 
L 287.093632 194.294506 
L 287.201887 193.55046 
L 287.310141 195.065315 
L 287.418395 190.812891 
L 287.526649 191.354456 
L 287.634904 190.34406 
L 287.743158 191.661478 
L 287.851412 189.604936 
L 288.176175 195.360708 
L 288.392684 194.179324 
L 288.500938 197.701778 
L 288.609192 193.190056 
L 288.825701 196.110391 
L 288.933955 193.318414 
L 289.042209 199.318849 
L 289.258718 190.558539 
L 289.366972 190.216176 
L 289.475226 193.624445 
L 289.691735 190.001962 
L 289.908243 192.031626 
L 290.016498 197.504848 
L 290.124752 197.264471 
L 290.34126 189.956605 
L 290.449515 188.915401 
L 290.557769 189.087424 
L 290.666023 194.424953 
L 290.774277 190.210008 
L 290.990786 196.244835 
L 291.09904 194.563789 
L 291.207295 191.062256 
L 291.423803 194.330526 
L 291.532057 191.867081 
L 291.640312 196.360607 
L 291.748566 193.543828 
L 291.85682 194.097536 
L 291.965074 192.572642 
L 292.073329 192.939228 
L 292.289837 194.60293 
L 292.398091 193.50056 
L 292.506346 195.941492 
L 292.722854 192.85526 
L 292.831109 192.292423 
L 292.939363 190.391459 
L 293.047617 193.362158 
L 293.155871 193.075314 
L 293.264126 194.100869 
L 293.37238 192.77103 
L 293.588888 193.781332 
L 293.697143 192.130502 
L 293.805397 192.438412 
L 293.913651 192.314962 
L 294.021905 190.569133 
L 294.238414 193.017467 
L 294.346668 192.684703 
L 294.563177 193.968272 
L 294.779685 193.3171 
L 294.88794 193.579677 
L 294.996194 193.019252 
L 295.104448 193.347402 
L 295.320957 192.273617 
L 295.429211 197.02046 
L 295.645719 193.418513 
L 295.753974 195.891325 
L 296.078737 193.332641 
L 296.186991 195.395306 
L 296.403499 192.750264 
L 296.511754 193.962837 
L 296.728262 192.045259 
L 296.836516 191.794166 
L 297.053025 197.131761 
L 297.269533 190.954243 
L 297.377788 193.983911 
L 297.486042 193.723167 
L 297.594296 194.922686 
L 297.702551 193.63817 
L 297.919059 195.076378 
L 298.027313 196.146629 
L 298.135568 195.781184 
L 298.352076 191.945232 
L 298.676839 195.545905 
L 298.785093 194.079941 
L 298.893347 196.918758 
L 299.001602 195.020561 
L 299.109856 195.189771 
L 299.326365 190.573486 
L 299.434619 195.794775 
L 299.542873 192.584151 
L 299.651127 192.715577 
L 299.759382 191.439778 
L 299.867636 194.265431 
L 299.97589 191.352366 
L 300.084144 192.814586 
L 300.192399 189.945844 
L 300.300653 191.125094 
L 300.408907 189.345884 
L 300.517161 190.503181 
L 300.73367 194.508927 
L 300.841924 196.383439 
L 300.950179 194.617742 
L 301.058433 197.559044 
L 301.166687 197.171024 
L 301.274941 192.960267 
L 301.383196 195.650694 
L 301.49145 194.167683 
L 301.599704 196.125324 
L 301.707958 193.769424 
L 301.816213 197.049961 
L 301.924467 194.889412 
L 302.032721 196.098954 
L 302.24923 192.605317 
L 302.357484 192.145288 
L 302.465738 191.156606 
L 302.573993 194.9062 
L 302.790501 194.526642 
L 303.00701 192.011548 
L 303.331772 194.38519 
L 303.440027 194.98 
L 303.548281 192.192123 
L 303.656535 193.996032 
L 303.873044 192.416779 
L 303.981298 192.388201 
L 304.089552 191.776277 
L 304.306061 194.274795 
L 304.414315 191.931432 
L 304.630824 196.871057 
L 304.955586 191.248753 
L 305.172095 195.337713 
L 305.280349 196.028283 
L 305.388603 191.842255 
L 305.496858 193.942943 
L 305.605112 192.583684 
L 305.713366 192.854131 
L 305.821621 188.762333 
L 305.929875 190.358676 
L 306.146383 196.225245 
L 306.254638 197.525511 
L 306.362892 195.459114 
L 306.471146 198.316244 
L 306.687655 193.048317 
L 306.795909 197.505765 
L 306.904163 193.922614 
L 307.120672 195.849308 
L 307.445435 192.286778 
L 307.661943 194.904574 
L 307.770197 193.313188 
L 307.878452 193.722784 
L 307.986706 193.37753 
L 308.09496 191.918538 
L 308.203214 192.878949 
L 308.419723 190.884095 
L 308.527977 191.130078 
L 308.744486 192.193439 
L 308.85274 191.629318 
L 308.960994 192.556572 
L 309.069249 192.482109 
L 309.177503 192.563559 
L 309.285757 193.036765 
L 309.394011 194.527201 
L 309.502266 191.476367 
L 309.718774 191.975524 
L 309.827028 197.563923 
L 309.935283 192.536195 
L 310.043537 193.462889 
L 310.260045 191.284664 
L 310.476554 192.259285 
L 310.584808 191.83299 
L 310.693063 193.561501 
L 310.801317 190.892173 
L 310.909571 191.84 
L 311.12608 191.249461 
L 311.234334 191.103183 
L 311.342588 192.747376 
L 311.450842 192.358846 
L 311.559097 192.605274 
L 311.667351 191.725503 
L 311.992114 195.317692 
L 312.208622 192.332473 
L 312.316877 191.482852 
L 312.425131 200.796856 
L 312.533385 192.206651 
L 312.749894 194.918952 
L 312.858148 191.118881 
L 312.966402 195.754744 
L 313.182911 191.959363 
L 313.399419 194.57132 
L 313.507673 192.776751 
L 313.615928 193.035696 
L 313.724182 191.662074 
L 313.832436 192.892812 
L 313.940691 196.26492 
L 314.048945 192.033684 
L 314.157199 192.977083 
L 314.265453 191.905933 
L 314.481962 194.334341 
L 314.590216 193.576937 
L 314.69847 196.199544 
L 314.806725 193.09912 
L 314.914979 194.341077 
L 315.023233 193.002489 
L 315.131487 197.444633 
L 315.239742 197.287064 
L 315.45625 194.019241 
L 315.564505 194.725932 
L 315.781013 194.069728 
L 315.889267 194.602977 
L 316.105776 192.240426 
L 316.21403 193.16089 
L 316.322284 192.484239 
L 316.430539 194.300694 
L 316.538793 198.215371 
L 316.755301 191.93231 
L 316.863556 192.700211 
L 316.97181 192.309683 
L 317.188319 193.334656 
L 317.296573 195.459749 
L 317.404827 192.137738 
L 317.513081 196.942618 
L 317.621336 194.89571 
L 317.72959 195.489335 
L 317.837844 190.769071 
L 318.162607 194.704606 
L 318.270861 192.325475 
L 318.379115 192.886605 
L 318.48737 192.862474 
L 318.703878 191.672407 
L 318.920387 201.482013 
L 319.028641 193.514295 
L 319.136895 194.844553 
L 319.24515 200.008977 
L 319.461658 193.886808 
L 319.569912 195.750771 
L 319.678167 193.643359 
L 319.786421 194.309912 
L 319.894675 193.2691 
L 320.002929 197.225967 
L 320.219438 193.566649 
L 320.327692 192.243833 
L 320.435947 196.631283 
L 320.652455 192.475135 
L 320.868964 198.587227 
L 321.085472 191.877207 
L 321.193726 192.147744 
L 321.410235 194.97391 
L 321.518489 191.086349 
L 321.626743 191.87749 
L 321.734998 195.216509 
L 321.843252 190.680988 
L 322.059761 194.434675 
L 322.168015 191.943714 
L 322.276269 196.82594 
L 322.384523 191.350725 
L 322.492778 192.017674 
L 322.601032 194.357239 
L 322.709286 190.83563 
L 322.925795 196.517915 
L 323.034049 191.871917 
L 323.142303 191.892392 
L 323.358812 194.368736 
L 323.57532 190.763874 
L 323.683575 199.271343 
L 323.791829 191.546642 
L 324.008337 193.755492 
L 324.224846 191.35971 
L 324.3331 195.399801 
L 324.549609 194.793158 
L 324.766117 194.548044 
L 324.874371 194.667719 
L 324.982626 198.695904 
L 325.199134 193.576727 
L 325.307389 198.434348 
L 325.415643 192.089496 
L 325.523897 196.022597 
L 325.632151 194.673151 
L 325.740406 195.707411 
L 325.84866 197.883972 
L 326.065168 193.325799 
L 326.173423 193.800959 
L 326.498185 189.585393 
L 326.60644 193.104966 
L 326.822948 191.207755 
L 326.931203 190.404981 
L 327.147711 192.915042 
L 327.36422 191.672399 
L 327.580728 198.548655 
L 327.688982 195.39486 
L 327.797237 196.476866 
L 327.905491 196.04789 
L 328.121999 191.597139 
L 328.230254 191.950137 
L 328.338508 190.918459 
L 328.446762 193.052462 
L 328.555017 192.873794 
L 328.663271 193.741683 
L 328.771525 197.913185 
L 328.988034 192.897868 
L 329.096288 192.094253 
L 329.204542 193.978754 
L 329.312796 193.670363 
L 329.421051 197.081604 
L 329.529305 192.204746 
L 329.637559 192.729903 
L 329.745813 197.603663 
L 329.854068 191.652687 
L 329.962322 197.021398 
L 330.070576 191.361933 
L 330.178831 193.028375 
L 330.287085 192.902089 
L 330.503593 193.913169 
L 330.720102 191.595952 
L 330.828356 192.275361 
L 330.93661 190.950528 
L 331.153119 193.490912 
L 331.261373 191.452748 
L 331.586136 196.050364 
L 331.69439 195.313145 
L 331.802645 190.398992 
L 331.910899 198.210681 
L 332.019153 196.804689 
L 332.127407 198.46163 
L 332.235662 196.8481 
L 332.45217 191.889855 
L 332.560424 189.456816 
L 332.668679 193.366765 
L 332.776933 192.061333 
L 332.885187 193.652717 
L 332.993441 191.819501 
L 333.101696 194.140668 
L 333.20995 190.957131 
L 333.426459 192.897458 
L 333.534713 192.134485 
L 333.642967 192.231764 
L 333.751221 189.978627 
L 333.96773 194.200586 
L 334.075984 193.491711 
L 334.292493 194.288371 
L 334.400747 194.599109 
L 334.509001 194.148009 
L 334.617255 191.845709 
L 334.72551 194.013242 
L 334.833764 193.746446 
L 334.942018 194.238474 
L 335.050273 198.683933 
L 335.375035 191.706631 
L 335.48329 192.786512 
L 335.591544 191.996716 
L 335.699798 192.850896 
L 335.808052 191.986095 
L 335.916307 194.420331 
L 336.132815 192.206031 
L 336.241069 192.335905 
L 336.565832 193.079042 
L 336.782341 190.654991 
L 336.998849 192.17733 
L 337.323612 190.436062 
L 337.540121 192.287305 
L 337.648375 190.594115 
L 337.864883 193.923417 
L 337.973138 192.264507 
L 338.081392 194.278679 
L 338.189646 192.367051 
L 338.297901 192.651488 
L 338.514409 196.17291 
L 338.622663 193.449489 
L 338.730918 194.372411 
L 338.839172 191.585253 
L 339.05568 193.023425 
L 339.163935 191.322544 
L 339.380443 194.156676 
L 339.488697 191.975557 
L 339.596952 195.837075 
L 339.705206 192.196249 
L 339.921715 194.549334 
L 340.029969 192.908467 
L 340.138223 194.516413 
L 340.354732 191.410874 
L 340.462986 190.745201 
L 340.57124 190.9761 
L 340.679494 191.577311 
L 340.787749 193.510123 
L 340.896003 190.703307 
L 341.112511 193.72339 
L 341.220766 194.111839 
L 341.32902 189.80394 
L 341.545529 198.03338 
L 341.653783 190.920242 
L 341.762037 191.121878 
L 341.978546 196.871537 
L 342.0868 193.97449 
L 342.195054 194.861378 
L 342.303308 191.803895 
L 342.411563 192.938688 
L 342.736325 190.415613 
L 342.84458 195.906217 
L 342.952834 191.837165 
L 343.169343 194.445606 
L 343.277597 193.953948 
L 343.385851 194.371099 
L 343.494105 193.954057 
L 343.710614 192.734311 
L 343.818868 192.950401 
L 343.927122 193.987299 
L 344.035377 193.844522 
L 344.143631 194.867913 
L 344.360139 193.082259 
L 344.576648 192.58407 
L 344.684902 194.013706 
L 344.793157 193.418313 
L 344.901411 194.686623 
L 345.117919 193.233696 
L 345.226174 192.773478 
L 345.334428 192.971823 
L 345.442682 193.713722 
L 345.550936 193.609336 
L 345.659191 191.657031 
L 345.767445 191.760227 
L 345.875699 191.691309 
L 345.983953 193.012436 
L 346.092208 192.721637 
L 346.200462 192.777163 
L 346.308716 191.861364 
L 346.416971 192.494527 
L 346.741733 191.663272 
L 346.849988 195.658427 
L 346.958242 190.549442 
L 347.066496 193.500341 
L 347.17475 193.079724 
L 347.283005 194.311854 
L 347.391259 194.273524 
L 347.607767 191.724022 
L 347.716022 191.969236 
L 347.93253 194.732753 
L 348.040785 193.969408 
L 348.149039 194.593324 
L 348.257293 194.529826 
L 348.473802 193.129591 
L 348.582056 195.146871 
L 348.798564 191.213343 
L 348.906819 195.492523 
L 349.015073 193.900064 
L 349.123327 190.157642 
L 349.231581 191.087204 
L 349.44809 194.46569 
L 349.556344 192.833347 
L 349.772853 193.484164 
L 349.881107 193.349976 
L 350.097616 192.447514 
L 350.20587 191.823873 
L 350.314124 192.475395 
L 350.422378 191.09088 
L 350.530633 191.596857 
L 350.638887 193.687003 
L 350.747141 191.561656 
L 350.855395 193.827113 
L 350.96365 193.406963 
L 351.071904 192.113441 
L 351.180158 192.267465 
L 351.288413 192.837193 
L 351.396667 194.426114 
L 351.504921 193.559238 
L 351.613175 195.316006 
L 351.72143 192.022949 
L 351.937938 193.306467 
L 352.046192 192.096444 
L 352.154447 193.198627 
L 352.262701 191.940126 
L 352.479209 192.140928 
L 352.695718 194.182332 
L 352.803972 192.131953 
L 352.912226 192.525534 
L 353.020481 190.787471 
L 353.128735 194.899165 
L 353.345244 192.473754 
L 353.453498 192.145601 
L 353.561752 190.276483 
L 353.670006 192.350543 
L 353.778261 189.765346 
L 353.994769 195.436065 
L 354.103023 196.938046 
L 354.319532 190.357255 
L 354.427786 190.805981 
L 354.53604 189.769111 
L 354.644295 190.088332 
L 354.860803 192.344165 
L 355.077312 191.221795 
L 355.185566 192.567 
L 355.29382 196.576097 
L 355.510329 188.09863 
L 355.618583 189.505732 
L 355.726837 196.397538 
L 355.943346 191.081713 
L 356.159854 195.262039 
L 356.376363 196.320087 
L 356.701126 190.552958 
L 356.80938 193.637482 
L 356.917634 193.500804 
L 357.025889 193.8956 
L 357.134143 194.775467 
L 357.242397 196.743359 
L 357.56716 192.196914 
L 357.783668 193.283365 
L 357.891923 195.27106 
L 358.108431 190.515083 
L 358.216686 190.937326 
L 358.32494 192.968217 
L 358.649703 191.861285 
L 358.757957 192.874236 
L 358.866211 190.5966 
L 358.974465 199.286341 
L 359.190974 194.109869 
L 359.299228 193.668189 
L 359.407482 194.508387 
L 359.515737 191.862445 
L 359.623991 193.020352 
L 359.732245 187.932507 
L 359.8405 194.394025 
L 359.948754 192.694794 
L 360.165262 197.679904 
L 360.273517 193.144773 
L 360.381771 193.185406 
L 360.490025 191.804498 
L 360.598279 193.929871 
L 360.706534 189.256182 
L 360.814788 192.277618 
L 360.923042 190.960026 
L 361.139551 194.531045 
L 361.247805 194.540513 
L 361.464314 193.02655 
L 361.572568 196.394343 
L 361.789076 190.383731 
L 362.005585 194.284434 
L 362.113839 194.004874 
L 362.222093 196.364759 
L 362.438602 193.532802 
L 362.546856 194.897238 
L 362.763365 192.212762 
L 362.871619 191.602363 
L 362.979873 193.137672 
L 363.088128 197.361444 
L 363.196382 197.031205 
L 363.304636 195.396903 
L 363.41289 191.756669 
L 363.521145 192.002356 
L 363.629399 194.90182 
L 363.845907 185.942566 
L 363.954162 193.078411 
L 364.062416 190.827812 
L 364.17067 194.649772 
L 364.278924 192.557244 
L 364.387179 195.400407 
L 364.495433 192.182806 
L 364.711942 194.356436 
L 364.820196 190.942126 
L 364.92845 195.810699 
L 365.036704 191.827605 
L 365.361467 197.031091 
L 365.469721 194.101928 
L 365.577976 194.336644 
L 365.68623 194.102925 
L 365.794484 193.240116 
L 365.902738 193.767994 
L 366.010993 189.998761 
L 366.119247 191.903743 
L 366.227501 191.83403 
L 366.335756 190.925408 
L 366.552264 193.203575 
L 366.660518 192.663619 
L 366.768773 196.040301 
L 366.877027 193.877516 
L 366.985281 194.065885 
L 367.093535 192.700747 
L 367.20179 194.419442 
L 367.310044 189.771552 
L 367.418298 191.457012 
L 367.526552 186.669167 
L 367.634807 198.788364 
L 367.743061 198.713329 
L 367.851315 196.555227 
L 367.95957 197.472004 
L 368.176078 191.09934 
L 368.284332 189.584304 
L 368.500841 190.349619 
L 368.609095 187.213106 
L 368.825604 192.886404 
L 368.933858 192.637581 
L 369.042112 191.550994 
L 369.150366 194.824478 
L 369.366875 190.239404 
L 369.475129 191.880761 
L 369.691638 189.632349 
L 369.799892 184.979219 
L 370.016401 198.058637 
L 370.124655 196.016377 
L 370.341163 198.129027 
L 370.449418 195.331667 
L 370.557672 188.286035 
L 370.665926 193.937595 
L 370.990689 193.297518 
L 371.098943 189.714108 
L 371.315452 195.598375 
L 371.748469 191.964969 
L 371.856723 187.995311 
L 371.964977 189.877277 
L 372.28974 187.615628 
L 372.506249 192.688545 
L 372.614503 189.631153 
L 372.722757 189.771626 
L 372.831012 190.858721 
L 372.939266 188.612077 
L 373.04752 191.014898 
L 373.155774 189.250437 
L 373.264029 190.602129 
L 373.372283 193.475361 
L 373.480537 193.323741 
L 373.697046 195.530347 
L 373.8053 190.94947 
L 373.913554 197.268569 
L 374.021808 193.415367 
L 374.130063 195.159608 
L 374.454826 189.659056 
L 374.671334 195.385289 
L 374.779588 195.140982 
L 374.887843 199.068873 
L 375.104351 190.899078 
L 375.212605 194.291587 
L 375.32086 192.549856 
L 375.429114 194.831956 
L 375.537368 199.945374 
L 375.753877 194.664559 
L 376.07864 191.66025 
L 376.295148 191.867769 
L 376.511657 193.015382 
L 376.619911 193.1157 
L 376.728165 189.294753 
L 376.836419 193.102824 
L 376.944674 190.506273 
L 377.161182 193.328983 
L 377.269436 201.0813 
L 377.485945 191.64486 
L 377.594199 193.251041 
L 377.810708 191.234306 
L 377.918962 192.992178 
L 378.027216 192.564749 
L 378.135471 191.617879 
L 378.243725 194.569421 
L 378.351979 204.845474 
L 378.460233 193.789509 
L 378.568488 196.839477 
L 378.676742 196.24321 
L 378.784996 193.171632 
L 378.89325 198.211273 
L 379.109759 191.372435 
L 379.218013 194.085546 
L 379.326268 193.913815 
L 379.542776 197.026445 
L 379.867539 191.312259 
L 380.084047 193.743992 
L 380.192302 191.721411 
L 380.300556 192.347053 
L 380.40881 195.743946 
L 380.517064 194.684513 
L 380.625319 195.657828 
L 380.733573 193.949356 
L 380.841827 194.231305 
L 380.950082 195.008472 
L 381.058336 193.125815 
L 381.16659 193.370581 
L 381.383099 191.097229 
L 381.599607 194.745598 
L 381.816116 195.776673 
L 382.140878 191.032274 
L 382.249133 190.528657 
L 382.357387 194.349694 
L 382.465641 202.686102 
L 382.790404 189.236231 
L 382.898658 188.195025 
L 383.006913 192.496009 
L 383.115167 192.481258 
L 383.223421 189.722152 
L 383.331675 190.90169 
L 383.43993 185.721145 
L 383.656438 196.111013 
L 383.872947 187.560321 
L 383.981201 186.894047 
L 384.19771 198.334797 
L 384.414218 187.955543 
L 384.522472 188.857142 
L 384.738981 200.285559 
L 384.955489 191.471569 
L 385.063744 191.911832 
L 385.171998 191.552037 
L 385.388506 198.772465 
L 385.713269 191.702481 
L 386.038032 199.496974 
L 386.146286 191.729929 
L 386.254541 194.176622 
L 386.471049 192.239001 
L 386.579303 194.531527 
L 386.687558 194.489314 
L 386.795812 191.987186 
L 386.904066 192.107401 
L 387.01232 193.284382 
L 387.120575 192.409445 
L 387.228829 192.913426 
L 387.445338 195.492705 
L 387.661846 191.931961 
L 387.7701 191.421863 
L 387.878355 197.6509 
L 387.986609 195.853093 
L 388.094863 199.664349 
L 388.311372 192.854797 
L 388.419626 192.118793 
L 388.636134 194.846127 
L 388.744389 191.007029 
L 388.852643 196.208942 
L 388.960897 196.139449 
L 389.069152 193.34625 
L 389.177406 193.615197 
L 389.28566 194.851536 
L 389.393914 191.633792 
L 389.610423 194.892879 
L 389.718677 192.193051 
L 389.935186 193.359333 
L 390.04344 192.275688 
L 390.151694 195.819428 
L 390.368203 192.19675 
L 390.476457 194.61236 
L 390.692966 193.773202 
L 390.80122 194.920377 
L 390.909474 192.02006 
L 391.017728 192.543549 
L 391.125983 194.048484 
L 391.234237 192.518873 
L 391.342491 193.88683 
L 391.450745 192.60917 
L 391.559 196.632553 
L 391.775508 194.294754 
L 391.883762 195.838812 
L 392.100271 192.214002 
L 392.31678 193.550282 
L 392.425034 192.074888 
L 392.533288 195.142006 
L 392.749797 191.952551 
L 392.858051 192.572026 
L 392.966305 199.170175 
L 393.182814 192.180749 
L 393.291068 196.800134 
L 393.507576 192.773921 
L 393.615831 194.156726 
L 393.724085 193.16856 
L 393.940594 194.495587 
L 394.048848 194.027551 
L 394.157102 192.02399 
L 394.265356 197.262763 
L 394.373611 192.050875 
L 394.481865 196.354861 
L 394.698373 193.04275 
L 394.806628 192.079686 
L 394.914882 195.738714 
L 395.13139 193.526254 
L 395.239645 192.130379 
L 395.347899 192.178545 
L 395.456153 192.75495 
L 395.564408 192.553022 
L 395.780916 189.99801 
L 395.88917 192.311762 
L 395.997425 191.901564 
L 396.105679 195.312133 
L 396.213933 193.938783 
L 396.322187 194.051434 
L 396.430442 192.94757 
L 396.538696 194.236553 
L 396.755204 191.351594 
L 396.863459 192.113323 
L 396.971713 195.399046 
L 397.079967 194.542593 
L 397.188222 195.780388 
L 397.40473 192.010561 
L 397.512984 193.881289 
L 397.729493 191.949488 
L 398.054256 195.362521 
L 398.16251 189.894178 
L 398.270764 192.087237 
L 398.379018 192.043405 
L 398.487273 192.552124 
L 398.487273 192.552124 
" clip-path="url(#p926ff64a87)" style="fill: none; stroke: #1f77b4; stroke-width: 1.5; stroke-linecap: square"/>
   </g>
   <g id="patch_3">
    <path d="M 57.6 307.584 
L 57.6 41.472 
" style="fill: none; stroke: #000000; stroke-width: 0.8; stroke-linejoin: miter; stroke-linecap: square"/>
   </g>
   <g id="patch_4">
    <path d="M 414.72 307.584 
L 414.72 41.472 
" style="fill: none; stroke: #000000; stroke-width: 0.8; stroke-linejoin: miter; stroke-linecap: square"/>
   </g>
   <g id="patch_5">
    <path d="M 57.6 307.584 
L 414.72 307.584 
" style="fill: none; stroke: #000000; stroke-width: 0.8; stroke-linejoin: miter; stroke-linecap: square"/>
   </g>
   <g id="patch_6">
    <path d="M 57.6 41.472 
L 414.72 41.472 
" style="fill: none; stroke: #000000; stroke-width: 0.8; stroke-linejoin: miter; stroke-linecap: square"/>
   </g>
   <g id="text_18">
    <!-- Loss curve, seed=1437 -->
    <g transform="translate(165.85125 35.472) scale(0.12 -0.12)">
     <defs>
      <path id="DejaVuSans-20" transform="scale(0.015625)"/>
      <path id="DejaVuSans-63" d="M 3122 3366 
L 3122 2828 
Q 2878 2963 2633 3030 
Q 2388 3097 2138 3097 
Q 1578 3097 1268 2742 
Q 959 2388 959 1747 
Q 959 1106 1268 751 
Q 1578 397 2138 397 
Q 2388 397 2633 464 
Q 2878 531 3122 666 
L 3122 134 
Q 2881 22 2623 -34 
Q 2366 -91 2075 -91 
Q 1284 -91 818 406 
Q 353 903 353 1747 
Q 353 2603 823 3093 
Q 1294 3584 2113 3584 
Q 2378 3584 2631 3529 
Q 2884 3475 3122 3366 
z
" transform="scale(0.015625)"/>
      <path id="DejaVuSans-75" d="M 544 1381 
L 544 3500 
L 1119 3500 
L 1119 1403 
Q 1119 906 1312 657 
Q 1506 409 1894 409 
Q 2359 409 2629 706 
Q 2900 1003 2900 1516 
L 2900 3500 
L 3475 3500 
L 3475 0 
L 2900 0 
L 2900 538 
Q 2691 219 2414 64 
Q 2138 -91 1772 -91 
Q 1169 -91 856 284 
Q 544 659 544 1381 
z
M 1991 3584 
L 1991 3584 
z
" transform="scale(0.015625)"/>
      <path id="DejaVuSans-72" d="M 2631 2963 
Q 2534 3019 2420 3045 
Q 2306 3072 2169 3072 
Q 1681 3072 1420 2755 
Q 1159 2438 1159 1844 
L 1159 0 
L 581 0 
L 581 3500 
L 1159 3500 
L 1159 2956 
Q 1341 3275 1631 3429 
Q 1922 3584 2338 3584 
Q 2397 3584 2469 3576 
Q 2541 3569 2628 3553 
L 2631 2963 
z
" transform="scale(0.015625)"/>
      <path id="DejaVuSans-76" d="M 191 3500 
L 800 3500 
L 1894 563 
L 2988 3500 
L 3597 3500 
L 2284 0 
L 1503 0 
L 191 3500 
z
" transform="scale(0.015625)"/>
      <path id="DejaVuSans-2c" d="M 750 794 
L 1409 794 
L 1409 256 
L 897 -744 
L 494 -744 
L 750 256 
L 750 794 
z
" transform="scale(0.015625)"/>
      <path id="DejaVuSans-3d" d="M 678 2906 
L 4684 2906 
L 4684 2381 
L 678 2381 
L 678 2906 
z
M 678 1631 
L 4684 1631 
L 4684 1100 
L 678 1100 
L 678 1631 
z
" transform="scale(0.015625)"/>
      <path id="DejaVuSans-34" d="M 2419 4116 
L 825 1625 
L 2419 1625 
L 2419 4116 
z
M 2253 4666 
L 3047 4666 
L 3047 1625 
L 3713 1625 
L 3713 1100 
L 3047 1100 
L 3047 0 
L 2419 0 
L 2419 1100 
L 313 1100 
L 313 1709 
L 2253 4666 
z
" transform="scale(0.015625)"/>
      <path id="DejaVuSans-37" d="M 525 4666 
L 3525 4666 
L 3525 4397 
L 1831 0 
L 1172 0 
L 2766 4134 
L 525 4134 
L 525 4666 
z
" transform="scale(0.015625)"/>
     </defs>
     <use xlink:href="#DejaVuSans-4c"/>
     <use xlink:href="#DejaVuSans-6f" transform="translate(53.962891 0)"/>
     <use xlink:href="#DejaVuSans-73" transform="translate(115.144531 0)"/>
     <use xlink:href="#DejaVuSans-73" transform="translate(167.244141 0)"/>
     <use xlink:href="#DejaVuSans-20" transform="translate(219.34375 0)"/>
     <use xlink:href="#DejaVuSans-63" transform="translate(251.130859 0)"/>
     <use xlink:href="#DejaVuSans-75" transform="translate(306.111328 0)"/>
     <use xlink:href="#DejaVuSans-72" transform="translate(369.490234 0)"/>
     <use xlink:href="#DejaVuSans-76" transform="translate(410.603516 0)"/>
     <use xlink:href="#DejaVuSans-65" transform="translate(469.783203 0)"/>
     <use xlink:href="#DejaVuSans-2c" transform="translate(531.306641 0)"/>
     <use xlink:href="#DejaVuSans-20" transform="translate(563.09375 0)"/>
     <use xlink:href="#DejaVuSans-73" transform="translate(594.880859 0)"/>
     <use xlink:href="#DejaVuSans-65" transform="translate(646.980469 0)"/>
     <use xlink:href="#DejaVuSans-65" transform="translate(708.503906 0)"/>
     <use xlink:href="#DejaVuSans-64" transform="translate(770.027344 0)"/>
     <use xlink:href="#DejaVuSans-3d" transform="translate(833.503906 0)"/>
     <use xlink:href="#DejaVuSans-31" transform="translate(917.292969 0)"/>
     <use xlink:href="#DejaVuSans-34" transform="translate(980.916016 0)"/>
     <use xlink:href="#DejaVuSans-33" transform="translate(1044.539062 0)"/>
     <use xlink:href="#DejaVuSans-37" transform="translate(1108.162109 0)"/>
    </g>
   </g>
  </g>
 </g>
 <defs>
  <clipPath id="p926ff64a87">
   <rect x="57.6" y="41.472" width="357.12" height="266.112"/>
  </clipPath>
 </defs>
</svg>
