<?xml version="1.0" encoding="utf-8" standalone="no"?>
<!DOCTYPE svg PUBLIC "-//W3C//DTD SVG 1.1//EN"
  "http://www.w3.org/Graphics/SVG/1.1/DTD/svg11.dtd">
<svg xmlns:xlink="http://www.w3.org/1999/xlink" width="460.8pt" height="345.6pt" viewBox="0 0 460.8 345.6" xmlns="http://www.w3.org/2000/svg" version="1.1">
 <metadata>
  <rdf:RDF xmlns:dc="http://purl.org/dc/elements/1.1/" xmlns:cc="http://creativecommons.org/ns#" xmlns:rdf="http://www.w3.org/1999/02/22-rdf-syntax-ns#">
   <cc:Work>
    <dc:type rdf:resource="http://purl.org/dc/dcmitype/StillImage"/>
    <dc:date>2025-01-04T20:07:12.787959</dc:date>
    <dc:format>image/svg+xml</dc:format>
    <dc:creator>
     <cc:Agent>
      <dc:title>Matplotlib v3.10.0, https://matplotlib.org/</dc:title>
     </cc:Agent>
    </dc:creator>
   </cc:Work>
  </rdf:RDF>
 </metadata>
 <defs>
  <style type="text/css">*{stroke-linejoin: round; stroke-linecap: butt}</style>
 </defs>
 <g id="figure_1">
  <g id="patch_1">
   <path d="M 0 345.6 
L 460.8 345.6 
L 460.8 0 
L 0 0 
z
" style="fill: #ffffff"/>
  </g>
  <g id="axes_1">
   <g id="patch_2">
    <path d="M 57.6 307.584 
L 414.72 307.584 
L 414.72 41.472 
L 57.6 41.472 
z
" style="fill: #ffffff"/>
   </g>
   <g id="matplotlib.axis_1">
    <g id="xtick_1">
     <g id="line2d_1">
      <defs>
       <path id="m348d977ccd" d="M 0 0 
L 0 3.5 
" style="stroke: #000000; stroke-width: 0.8"/>
      </defs>
      <g>
       <use xlink:href="#m348d977ccd" x="73.832727" y="307.584" style="stroke: #000000; stroke-width: 0.8"/>
      </g>
     </g>
     <g id="text_1">
      <!-- 0 -->
      <g transform="translate(70.651477 322.182437) scale(0.1 -0.1)">
       <defs>
        <path id="DejaVuSans-30" d="M 2034 4250 
Q 1547 4250 1301 3770 
Q 1056 3291 1056 2328 
Q 1056 1369 1301 889 
Q 1547 409 2034 409 
Q 2525 409 2770 889 
Q 3016 1369 3016 2328 
Q 3016 3291 2770 3770 
Q 2525 4250 2034 4250 
z
M 2034 4750 
Q 2819 4750 3233 4129 
Q 3647 3509 3647 2328 
Q 3647 1150 3233 529 
Q 2819 -91 2034 -91 
Q 1250 -91 836 529 
Q 422 1150 422 2328 
Q 422 3509 836 4129 
Q 1250 4750 2034 4750 
z
" transform="scale(0.015625)"/>
       </defs>
       <use xlink:href="#DejaVuSans-30"/>
      </g>
     </g>
    </g>
    <g id="xtick_2">
     <g id="line2d_2">
      <g>
       <use xlink:href="#m348d977ccd" x="127.959861" y="307.584" style="stroke: #000000; stroke-width: 0.8"/>
      </g>
     </g>
     <g id="text_2">
      <!-- 500 -->
      <g transform="translate(118.416111 322.182437) scale(0.1 -0.1)">
       <defs>
        <path id="DejaVuSans-35" d="M 691 4666 
L 3169 4666 
L 3169 4134 
L 1269 4134 
L 1269 2991 
Q 1406 3038 1543 3061 
Q 1681 3084 1819 3084 
Q 2600 3084 3056 2656 
Q 3513 2228 3513 1497 
Q 3513 744 3044 326 
Q 2575 -91 1722 -91 
Q 1428 -91 1123 -41 
Q 819 9 494 109 
L 494 744 
Q 775 591 1075 516 
Q 1375 441 1709 441 
Q 2250 441 2565 725 
Q 2881 1009 2881 1497 
Q 2881 1984 2565 2268 
Q 2250 2553 1709 2553 
Q 1456 2553 1204 2497 
Q 953 2441 691 2322 
L 691 4666 
z
" transform="scale(0.015625)"/>
       </defs>
       <use xlink:href="#DejaVuSans-35"/>
       <use xlink:href="#DejaVuSans-30" transform="translate(63.623047 0)"/>
       <use xlink:href="#DejaVuSans-30" transform="translate(127.246094 0)"/>
      </g>
     </g>
    </g>
    <g id="xtick_3">
     <g id="line2d_3">
      <g>
       <use xlink:href="#m348d977ccd" x="182.086994" y="307.584" style="stroke: #000000; stroke-width: 0.8"/>
      </g>
     </g>
     <g id="text_3">
      <!-- 1000 -->
      <g transform="translate(169.361994 322.182437) scale(0.1 -0.1)">
       <defs>
        <path id="DejaVuSans-31" d="M 794 531 
L 1825 531 
L 1825 4091 
L 703 3866 
L 703 4441 
L 1819 4666 
L 2450 4666 
L 2450 531 
L 3481 531 
L 3481 0 
L 794 0 
L 794 531 
z
" transform="scale(0.015625)"/>
       </defs>
       <use xlink:href="#DejaVuSans-31"/>
       <use xlink:href="#DejaVuSans-30" transform="translate(63.623047 0)"/>
       <use xlink:href="#DejaVuSans-30" transform="translate(127.246094 0)"/>
       <use xlink:href="#DejaVuSans-30" transform="translate(190.869141 0)"/>
      </g>
     </g>
    </g>
    <g id="xtick_4">
     <g id="line2d_4">
      <g>
       <use xlink:href="#m348d977ccd" x="236.214127" y="307.584" style="stroke: #000000; stroke-width: 0.8"/>
      </g>
     </g>
     <g id="text_4">
      <!-- 1500 -->
      <g transform="translate(223.489127 322.182437) scale(0.1 -0.1)">
       <use xlink:href="#DejaVuSans-31"/>
       <use xlink:href="#DejaVuSans-35" transform="translate(63.623047 0)"/>
       <use xlink:href="#DejaVuSans-30" transform="translate(127.246094 0)"/>
       <use xlink:href="#DejaVuSans-30" transform="translate(190.869141 0)"/>
      </g>
     </g>
    </g>
    <g id="xtick_5">
     <g id="line2d_5">
      <g>
       <use xlink:href="#m348d977ccd" x="290.34126" y="307.584" style="stroke: #000000; stroke-width: 0.8"/>
      </g>
     </g>
     <g id="text_5">
      <!-- 2000 -->
      <g transform="translate(277.61626 322.182437) scale(0.1 -0.1)">
       <defs>
        <path id="DejaVuSans-32" d="M 1228 531 
L 3431 531 
L 3431 0 
L 469 0 
L 469 531 
Q 828 903 1448 1529 
Q 2069 2156 2228 2338 
Q 2531 2678 2651 2914 
Q 2772 3150 2772 3378 
Q 2772 3750 2511 3984 
Q 2250 4219 1831 4219 
Q 1534 4219 1204 4116 
Q 875 4013 500 3803 
L 500 4441 
Q 881 4594 1212 4672 
Q 1544 4750 1819 4750 
Q 2544 4750 2975 4387 
Q 3406 4025 3406 3419 
Q 3406 3131 3298 2873 
Q 3191 2616 2906 2266 
Q 2828 2175 2409 1742 
Q 1991 1309 1228 531 
z
" transform="scale(0.015625)"/>
       </defs>
       <use xlink:href="#DejaVuSans-32"/>
       <use xlink:href="#DejaVuSans-30" transform="translate(63.623047 0)"/>
       <use xlink:href="#DejaVuSans-30" transform="translate(127.246094 0)"/>
       <use xlink:href="#DejaVuSans-30" transform="translate(190.869141 0)"/>
      </g>
     </g>
    </g>
    <g id="xtick_6">
     <g id="line2d_6">
      <g>
       <use xlink:href="#m348d977ccd" x="344.468394" y="307.584" style="stroke: #000000; stroke-width: 0.8"/>
      </g>
     </g>
     <g id="text_6">
      <!-- 2500 -->
      <g transform="translate(331.743394 322.182437) scale(0.1 -0.1)">
       <use xlink:href="#DejaVuSans-32"/>
       <use xlink:href="#DejaVuSans-35" transform="translate(63.623047 0)"/>
       <use xlink:href="#DejaVuSans-30" transform="translate(127.246094 0)"/>
       <use xlink:href="#DejaVuSans-30" transform="translate(190.869141 0)"/>
      </g>
     </g>
    </g>
    <g id="xtick_7">
     <g id="line2d_7">
      <g>
       <use xlink:href="#m348d977ccd" x="398.595527" y="307.584" style="stroke: #000000; stroke-width: 0.8"/>
      </g>
     </g>
     <g id="text_7">
      <!-- 3000 -->
      <g transform="translate(385.870527 322.182437) scale(0.1 -0.1)">
       <defs>
        <path id="DejaVuSans-33" d="M 2597 2516 
Q 3050 2419 3304 2112 
Q 3559 1806 3559 1356 
Q 3559 666 3084 287 
Q 2609 -91 1734 -91 
Q 1441 -91 1130 -33 
Q 819 25 488 141 
L 488 750 
Q 750 597 1062 519 
Q 1375 441 1716 441 
Q 2309 441 2620 675 
Q 2931 909 2931 1356 
Q 2931 1769 2642 2001 
Q 2353 2234 1838 2234 
L 1294 2234 
L 1294 2753 
L 1863 2753 
Q 2328 2753 2575 2939 
Q 2822 3125 2822 3475 
Q 2822 3834 2567 4026 
Q 2313 4219 1838 4219 
Q 1578 4219 1281 4162 
Q 984 4106 628 3988 
L 628 4550 
Q 988 4650 1302 4700 
Q 1616 4750 1894 4750 
Q 2613 4750 3031 4423 
Q 3450 4097 3450 3541 
Q 3450 3153 3228 2886 
Q 3006 2619 2597 2516 
z
" transform="scale(0.015625)"/>
       </defs>
       <use xlink:href="#DejaVuSans-33"/>
       <use xlink:href="#DejaVuSans-30" transform="translate(63.623047 0)"/>
       <use xlink:href="#DejaVuSans-30" transform="translate(127.246094 0)"/>
       <use xlink:href="#DejaVuSans-30" transform="translate(190.869141 0)"/>
      </g>
     </g>
    </g>
    <g id="text_8">
     <!-- Episode -->
     <g transform="translate(216.5225 335.860562) scale(0.1 -0.1)">
      <defs>
       <path id="DejaVuSans-45" d="M 628 4666 
L 3578 4666 
L 3578 4134 
L 1259 4134 
L 1259 2753 
L 3481 2753 
L 3481 2222 
L 1259 2222 
L 1259 531 
L 3634 531 
L 3634 0 
L 628 0 
L 628 4666 
z
" transform="scale(0.015625)"/>
       <path id="DejaVuSans-70" d="M 1159 525 
L 1159 -1331 
L 581 -1331 
L 581 3500 
L 1159 3500 
L 1159 2969 
Q 1341 3281 1617 3432 
Q 1894 3584 2278 3584 
Q 2916 3584 3314 3078 
Q 3713 2572 3713 1747 
Q 3713 922 3314 415 
Q 2916 -91 2278 -91 
Q 1894 -91 1617 61 
Q 1341 213 1159 525 
z
M 3116 1747 
Q 3116 2381 2855 2742 
Q 2594 3103 2138 3103 
Q 1681 3103 1420 2742 
Q 1159 2381 1159 1747 
Q 1159 1113 1420 752 
Q 1681 391 2138 391 
Q 2594 391 2855 752 
Q 3116 1113 3116 1747 
z
" transform="scale(0.015625)"/>
       <path id="DejaVuSans-69" d="M 603 3500 
L 1178 3500 
L 1178 0 
L 603 0 
L 603 3500 
z
M 603 4863 
L 1178 4863 
L 1178 4134 
L 603 4134 
L 603 4863 
z
" transform="scale(0.015625)"/>
       <path id="DejaVuSans-73" d="M 2834 3397 
L 2834 2853 
Q 2591 2978 2328 3040 
Q 2066 3103 1784 3103 
Q 1356 3103 1142 2972 
Q 928 2841 928 2578 
Q 928 2378 1081 2264 
Q 1234 2150 1697 2047 
L 1894 2003 
Q 2506 1872 2764 1633 
Q 3022 1394 3022 966 
Q 3022 478 2636 193 
Q 2250 -91 1575 -91 
Q 1294 -91 989 -36 
Q 684 19 347 128 
L 347 722 
Q 666 556 975 473 
Q 1284 391 1588 391 
Q 1994 391 2212 530 
Q 2431 669 2431 922 
Q 2431 1156 2273 1281 
Q 2116 1406 1581 1522 
L 1381 1569 
Q 847 1681 609 1914 
Q 372 2147 372 2553 
Q 372 3047 722 3315 
Q 1072 3584 1716 3584 
Q 2034 3584 2315 3537 
Q 2597 3491 2834 3397 
z
" transform="scale(0.015625)"/>
       <path id="DejaVuSans-6f" d="M 1959 3097 
Q 1497 3097 1228 2736 
Q 959 2375 959 1747 
Q 959 1119 1226 758 
Q 1494 397 1959 397 
Q 2419 397 2687 759 
Q 2956 1122 2956 1747 
Q 2956 2369 2687 2733 
Q 2419 3097 1959 3097 
z
M 1959 3584 
Q 2709 3584 3137 3096 
Q 3566 2609 3566 1747 
Q 3566 888 3137 398 
Q 2709 -91 1959 -91 
Q 1206 -91 779 398 
Q 353 888 353 1747 
Q 353 2609 779 3096 
Q 1206 3584 1959 3584 
z
" transform="scale(0.015625)"/>
       <path id="DejaVuSans-64" d="M 2906 2969 
L 2906 4863 
L 3481 4863 
L 3481 0 
L 2906 0 
L 2906 525 
Q 2725 213 2448 61 
Q 2172 -91 1784 -91 
Q 1150 -91 751 415 
Q 353 922 353 1747 
Q 353 2572 751 3078 
Q 1150 3584 1784 3584 
Q 2172 3584 2448 3432 
Q 2725 3281 2906 2969 
z
M 947 1747 
Q 947 1113 1208 752 
Q 1469 391 1925 391 
Q 2381 391 2643 752 
Q 2906 1113 2906 1747 
Q 2906 2381 2643 2742 
Q 2381 3103 1925 3103 
Q 1469 3103 1208 2742 
Q 947 2381 947 1747 
z
" transform="scale(0.015625)"/>
       <path id="DejaVuSans-65" d="M 3597 1894 
L 3597 1613 
L 953 1613 
Q 991 1019 1311 708 
Q 1631 397 2203 397 
Q 2534 397 2845 478 
Q 3156 559 3463 722 
L 3463 178 
Q 3153 47 2828 -22 
Q 2503 -91 2169 -91 
Q 1331 -91 842 396 
Q 353 884 353 1716 
Q 353 2575 817 3079 
Q 1281 3584 2069 3584 
Q 2775 3584 3186 3129 
Q 3597 2675 3597 1894 
z
M 3022 2063 
Q 3016 2534 2758 2815 
Q 2500 3097 2075 3097 
Q 1594 3097 1305 2825 
Q 1016 2553 972 2059 
L 3022 2063 
z
" transform="scale(0.015625)"/>
      </defs>
      <use xlink:href="#DejaVuSans-45"/>
      <use xlink:href="#DejaVuSans-70" transform="translate(63.183594 0)"/>
      <use xlink:href="#DejaVuSans-69" transform="translate(126.660156 0)"/>
      <use xlink:href="#DejaVuSans-73" transform="translate(154.443359 0)"/>
      <use xlink:href="#DejaVuSans-6f" transform="translate(206.542969 0)"/>
      <use xlink:href="#DejaVuSans-64" transform="translate(267.724609 0)"/>
      <use xlink:href="#DejaVuSans-65" transform="translate(331.201172 0)"/>
     </g>
    </g>
   </g>
   <g id="matplotlib.axis_2">
    <g id="ytick_1">
     <g id="line2d_8">
      <defs>
       <path id="mce3b4f7d1e" d="M 0 0 
L -3.5 0 
" style="stroke: #000000; stroke-width: 0.8"/>
      </defs>
      <g>
       <use xlink:href="#mce3b4f7d1e" x="57.6" y="277.501955" style="stroke: #000000; stroke-width: 0.8"/>
      </g>
     </g>
     <g id="text_9">
      <!-- −0.010 -->
      <g transform="translate(13.592188 281.301174) scale(0.1 -0.1)">
       <defs>
        <path id="DejaVuSans-2212" d="M 678 2272 
L 4684 2272 
L 4684 1741 
L 678 1741 
L 678 2272 
z
" transform="scale(0.015625)"/>
        <path id="DejaVuSans-2e" d="M 684 794 
L 1344 794 
L 1344 0 
L 684 0 
L 684 794 
z
" transform="scale(0.015625)"/>
       </defs>
       <use xlink:href="#DejaVuSans-2212"/>
       <use xlink:href="#DejaVuSans-30" transform="translate(83.789062 0)"/>
       <use xlink:href="#DejaVuSans-2e" transform="translate(147.412109 0)"/>
       <use xlink:href="#DejaVuSans-30" transform="translate(179.199219 0)"/>
       <use xlink:href="#DejaVuSans-31" transform="translate(242.822266 0)"/>
       <use xlink:href="#DejaVuSans-30" transform="translate(306.445312 0)"/>
      </g>
     </g>
    </g>
    <g id="ytick_2">
     <g id="line2d_9">
      <g>
       <use xlink:href="#mce3b4f7d1e" x="57.6" y="220.135021" style="stroke: #000000; stroke-width: 0.8"/>
      </g>
     </g>
     <g id="text_10">
      <!-- −0.005 -->
      <g transform="translate(13.592188 223.93424) scale(0.1 -0.1)">
       <use xlink:href="#DejaVuSans-2212"/>
       <use xlink:href="#DejaVuSans-30" transform="translate(83.789062 0)"/>
       <use xlink:href="#DejaVuSans-2e" transform="translate(147.412109 0)"/>
       <use xlink:href="#DejaVuSans-30" transform="translate(179.199219 0)"/>
       <use xlink:href="#DejaVuSans-30" transform="translate(242.822266 0)"/>
       <use xlink:href="#DejaVuSans-35" transform="translate(306.445312 0)"/>
      </g>
     </g>
    </g>
    <g id="ytick_3">
     <g id="line2d_10">
      <g>
       <use xlink:href="#mce3b4f7d1e" x="57.6" y="162.768087" style="stroke: #000000; stroke-width: 0.8"/>
      </g>
     </g>
     <g id="text_11">
      <!-- 0.000 -->
      <g transform="translate(21.971875 166.567306) scale(0.1 -0.1)">
       <use xlink:href="#DejaVuSans-30"/>
       <use xlink:href="#DejaVuSans-2e" transform="translate(63.623047 0)"/>
       <use xlink:href="#DejaVuSans-30" transform="translate(95.410156 0)"/>
       <use xlink:href="#DejaVuSans-30" transform="translate(159.033203 0)"/>
       <use xlink:href="#DejaVuSans-30" transform="translate(222.65625 0)"/>
      </g>
     </g>
    </g>
    <g id="ytick_4">
     <g id="line2d_11">
      <g>
       <use xlink:href="#mce3b4f7d1e" x="57.6" y="105.401153" style="stroke: #000000; stroke-width: 0.8"/>
      </g>
     </g>
     <g id="text_12">
      <!-- 0.005 -->
      <g transform="translate(21.971875 109.200372) scale(0.1 -0.1)">
       <use xlink:href="#DejaVuSans-30"/>
       <use xlink:href="#DejaVuSans-2e" transform="translate(63.623047 0)"/>
       <use xlink:href="#DejaVuSans-30" transform="translate(95.410156 0)"/>
       <use xlink:href="#DejaVuSans-30" transform="translate(159.033203 0)"/>
       <use xlink:href="#DejaVuSans-35" transform="translate(222.65625 0)"/>
      </g>
     </g>
    </g>
    <g id="ytick_5">
     <g id="line2d_12">
      <g>
       <use xlink:href="#mce3b4f7d1e" x="57.6" y="48.034219" style="stroke: #000000; stroke-width: 0.8"/>
      </g>
     </g>
     <g id="text_13">
      <!-- 0.010 -->
      <g transform="translate(21.971875 51.833438) scale(0.1 -0.1)">
       <use xlink:href="#DejaVuSans-30"/>
       <use xlink:href="#DejaVuSans-2e" transform="translate(63.623047 0)"/>
       <use xlink:href="#DejaVuSans-30" transform="translate(95.410156 0)"/>
       <use xlink:href="#DejaVuSans-31" transform="translate(159.033203 0)"/>
       <use xlink:href="#DejaVuSans-30" transform="translate(222.65625 0)"/>
      </g>
     </g>
    </g>
    <g id="text_14">
     <!-- Loss -->
     <g transform="translate(7.5125 185.495187) rotate(-90) scale(0.1 -0.1)">
      <defs>
       <path id="DejaVuSans-4c" d="M 628 4666 
L 1259 4666 
L 1259 531 
L 3531 531 
L 3531 0 
L 628 0 
L 628 4666 
z
" transform="scale(0.015625)"/>
      </defs>
      <use xlink:href="#DejaVuSans-4c"/>
      <use xlink:href="#DejaVuSans-6f" transform="translate(53.962891 0)"/>
      <use xlink:href="#DejaVuSans-73" transform="translate(115.144531 0)"/>
      <use xlink:href="#DejaVuSans-73" transform="translate(167.244141 0)"/>
     </g>
    </g>
   </g>
   <g id="line2d_13">
    <path d="M 73.832727 82.101293 
L 74.049236 188.740512 
L 74.15749 148.69014 
L 74.265744 210.57944 
L 74.373999 176.528309 
L 74.482253 203.927945 
L 74.590507 123.703007 
L 74.807016 166.454345 
L 74.91527 168.446762 
L 75.023524 141.5801 
L 75.131778 215.712248 
L 75.348287 53.568 
L 75.456541 97.701403 
L 75.564796 96.16384 
L 75.67305 108.879965 
L 75.781304 100.976994 
L 75.997813 162.546962 
L 76.106067 149.917053 
L 76.322575 74.354981 
L 76.43083 162.694854 
L 76.755592 78.979979 
L 76.863847 92.869834 
L 77.080355 167.634208 
L 77.18861 123.846293 
L 77.296864 173.45597 
L 77.405118 142.729767 
L 77.513372 152.319069 
L 77.621627 123.484747 
L 77.946389 162.081237 
L 78.054644 164.978583 
L 78.162898 199.796319 
L 78.271152 162.083364 
L 78.379406 215.321188 
L 78.487661 161.381483 
L 78.812424 202.516657 
L 78.920678 180.571386 
L 79.028932 246.408688 
L 79.137186 235.871278 
L 79.245441 162.160676 
L 79.353695 164.819201 
L 79.461949 156.483827 
L 79.570203 180.846998 
L 79.678458 152.492547 
L 79.786712 153.611867 
L 79.894966 206.972658 
L 80.00322 170.402541 
L 80.111475 205.377383 
L 80.327983 99.623236 
L 80.436238 195.630334 
L 80.544492 75.505288 
L 80.652746 253.814322 
L 80.761 115.647883 
L 80.869255 196.356598 
L 80.977509 114.19887 
L 81.194017 149.858507 
L 81.410526 99.650019 
L 81.51878 191.25652 
L 81.627034 190.553668 
L 81.735289 186.789321 
L 81.843543 187.505239 
L 81.951797 129.193173 
L 82.27656 283.786809 
L 82.384814 166.773991 
L 82.601323 180.022798 
L 82.817831 167.577863 
L 82.926086 168.327414 
L 83.03434 171.261152 
L 83.142594 138.621625 
L 83.250848 212.003572 
L 83.359103 137.195698 
L 83.575611 205.705279 
L 83.79212 169.56634 
L 83.900374 176.911356 
L 84.008628 148.705959 
L 84.225137 188.737977 
L 84.441645 155.289391 
L 84.5499 164.079345 
L 84.658154 277.404918 
L 84.874662 164.207199 
L 84.982917 234.414011 
L 85.091171 151.079225 
L 85.199425 157.46633 
L 85.30768 129.160035 
L 85.524188 148.486741 
L 85.632442 142.063715 
L 85.848951 168.513723 
L 86.065459 141.189138 
L 86.281968 221.963777 
L 86.390222 160.112203 
L 86.498476 182.813802 
L 86.606731 163.114547 
L 86.714985 231.470855 
L 86.931494 178.498852 
L 87.039748 220.364569 
L 87.148002 181.054693 
L 87.256256 262.796266 
L 87.472765 145.238915 
L 87.581019 227.376735 
L 87.797528 174.558539 
L 88.014036 205.851439 
L 88.230545 162.399747 
L 88.338799 203.621292 
L 88.447053 187.396133 
L 88.555308 122.309313 
L 88.663562 170.34552 
L 88.771816 152.637111 
L 88.88007 209.743023 
L 88.988325 186.078308 
L 89.096579 205.717177 
L 89.313087 106.392126 
L 89.529596 190.411274 
L 89.63785 173.158831 
L 89.746104 181.527662 
L 89.854359 161.943321 
L 89.962613 104.926316 
L 90.070867 168.393296 
L 90.179122 158.906267 
L 90.287376 208.628111 
L 90.39563 123.79818 
L 90.612139 204.921241 
L 90.720393 159.507772 
L 90.936901 295.488 
L 91.045156 169.979381 
L 91.15341 295.111136 
L 91.261664 288.452065 
L 91.369918 164.372488 
L 91.478173 181.511303 
L 91.694681 146.862294 
L 91.802936 171.820221 
L 91.91119 168.35909 
L 92.019444 146.153781 
L 92.235953 165.417259 
L 92.452461 142.465929 
L 92.560715 145.168221 
L 92.66897 138.939346 
L 92.777224 139.444777 
L 92.885478 129.949749 
L 92.993732 138.025405 
L 93.101987 156.037413 
L 93.318495 149.792961 
L 93.42675 163.796069 
L 93.535004 161.961869 
L 93.859767 183.485881 
L 94.076275 171.442711 
L 94.184529 199.232134 
L 94.401038 168.462412 
L 94.617546 156.954193 
L 94.725801 163.401763 
L 94.834055 186.509737 
L 95.050564 159.433751 
L 95.267072 173.384808 
L 95.375326 169.407172 
L 95.483581 186.647972 
L 95.591835 170.810194 
L 95.808343 181.668612 
L 96.024852 168.734667 
L 96.133106 186.003975 
L 96.24136 171.009526 
L 96.457869 180.617116 
L 96.566123 178.191614 
L 96.782632 172.296002 
L 96.890886 155.969844 
L 97.107395 170.807122 
L 97.215649 165.495238 
L 97.323903 172.992917 
L 97.540412 163.918327 
L 97.648666 164.741543 
L 97.973429 176.336699 
L 98.189937 167.141221 
L 98.298192 167.8689 
L 98.406446 171.615563 
L 98.5147 160.931666 
L 98.622954 164.288478 
L 98.731209 161.73221 
L 98.839463 163.796478 
L 98.947717 161.788045 
L 99.164226 163.324618 
L 99.27248 159.46208 
L 99.488988 163.554582 
L 99.597243 164.688811 
L 99.705497 170.767134 
L 99.813751 165.670701 
L 99.922006 172.289504 
L 100.03026 168.614099 
L 100.138514 183.667928 
L 100.355023 159.38107 
L 100.463277 167.57492 
L 100.571531 159.642054 
L 100.679785 160.878203 
L 100.896294 164.926808 
L 101.004548 165.547807 
L 101.112802 158.82804 
L 101.329311 168.431282 
L 101.54582 173.62787 
L 101.870582 160.985412 
L 101.978837 163.431116 
L 102.087091 162.745166 
L 102.195345 160.926295 
L 102.303599 165.504401 
L 102.520108 162.703637 
L 102.628362 166.523745 
L 102.844871 159.518013 
L 102.953125 179.892814 
L 103.169634 164.14491 
L 103.386142 170.265594 
L 103.494396 170.198416 
L 103.602651 163.648093 
L 103.819159 169.738995 
L 104.143922 159.943672 
L 104.36043 170.883595 
L 104.468685 150.809281 
L 104.685193 168.292252 
L 104.901702 170.959102 
L 105.11821 162.366646 
L 105.226465 163.711011 
L 105.551227 159.016165 
L 105.767736 189.536397 
L 105.87599 161.171345 
L 105.984244 167.8921 
L 106.092499 162.976935 
L 106.200753 164.793555 
L 106.417262 155.94182 
L 106.63377 162.314131 
L 106.742024 163.795928 
L 106.850279 166.834192 
L 106.958533 160.961126 
L 107.066787 162.447755 
L 107.175041 161.5217 
L 107.283296 173.824625 
L 107.39155 164.928341 
L 107.499804 171.432968 
L 107.716313 162.202679 
L 107.824567 170.076776 
L 107.932821 162.770463 
L 108.041076 163.031947 
L 108.257584 168.967224 
L 108.474093 180.977225 
L 108.582347 167.832628 
L 108.690601 179.999765 
L 108.798855 163.574112 
L 108.90711 163.61415 
L 109.015364 162.688971 
L 109.123618 159.707453 
L 109.340127 175.438826 
L 109.66489 157.085727 
L 109.773144 161.729413 
L 109.989652 159.75575 
L 110.097907 161.988437 
L 110.206161 175.722998 
L 110.422669 166.595263 
L 110.639178 169.578536 
L 110.747432 162.794995 
L 110.855686 172.720202 
L 110.963941 160.814536 
L 111.180449 167.322072 
L 111.288704 163.182919 
L 111.396958 176.323197 
L 111.505212 174.16204 
L 111.613466 162.945744 
L 111.829975 172.978595 
L 111.938229 168.061836 
L 112.046483 168.691055 
L 112.154738 177.924912 
L 112.262992 168.848145 
L 112.371246 171.426537 
L 112.587755 158.216606 
L 112.696009 174.875199 
L 112.804263 170.308422 
L 112.912518 160.091709 
L 113.020772 161.559294 
L 113.23728 175.288511 
L 113.345535 168.981721 
L 113.453789 170.598107 
L 113.562043 161.30385 
L 113.670297 182.962808 
L 113.886806 158.996968 
L 113.99506 172.778122 
L 114.211569 169.451804 
L 114.319823 161.727319 
L 114.536332 170.835406 
L 114.644586 158.729816 
L 114.969349 162.546387 
L 115.294111 174.064898 
L 115.51062 162.750579 
L 115.618874 165.476756 
L 115.727128 164.469487 
L 115.835383 165.555858 
L 115.943637 162.925 
L 116.160146 175.147805 
L 116.2684 163.304561 
L 116.484908 168.799316 
L 116.593163 161.09713 
L 116.701417 169.930734 
L 116.917925 161.483769 
L 117.02618 166.267971 
L 117.134434 165.215564 
L 117.350942 168.208062 
L 117.459197 167.173758 
L 117.567451 159.021175 
L 117.675705 171.365763 
L 117.892214 162.477419 
L 118.000468 163.675091 
L 118.108722 162.797082 
L 118.216977 157.994668 
L 118.325231 166.240277 
L 118.433485 160.30412 
L 118.649994 178.061071 
L 118.866502 165.477382 
L 119.083011 172.904167 
L 119.191265 166.863418 
L 119.299519 174.278649 
L 119.407774 164.891559 
L 119.516028 171.058385 
L 119.732536 167.209032 
L 119.949045 162.180513 
L 120.165553 182.583292 
L 120.382062 157.421193 
L 120.706825 181.258811 
L 120.815079 158.265211 
L 120.923333 175.385043 
L 121.031587 161.828479 
L 121.139842 170.233161 
L 121.248096 169.111951 
L 121.35635 173.601241 
L 121.464605 167.643378 
L 121.572859 168.640786 
L 121.681113 167.409933 
L 121.789367 174.861572 
L 122.11413 161.591202 
L 122.222384 162.571657 
L 122.330639 165.64693 
L 122.438893 158.736054 
L 122.655401 165.025292 
L 122.763656 165.232711 
L 122.87191 163.450127 
L 123.088419 178.189545 
L 123.304927 159.463334 
L 123.413181 167.76618 
L 123.62969 155.340623 
L 123.737944 168.15369 
L 123.954453 157.848684 
L 124.170961 161.003246 
L 124.38747 170.841844 
L 124.603978 161.911536 
L 124.712233 162.823093 
L 124.820487 155.963789 
L 124.928741 166.89828 
L 125.036995 160.931952 
L 125.14525 163.579831 
L 125.253504 161.500843 
L 125.470012 169.32536 
L 125.686521 164.305192 
L 125.794775 164.93312 
L 125.903029 164.902379 
L 126.011284 166.409902 
L 126.227792 162.879467 
L 126.336047 164.468555 
L 126.444301 157.305907 
L 126.660809 165.427207 
L 126.769064 182.425984 
L 126.877318 165.956502 
L 127.093826 168.296918 
L 127.202081 166.742084 
L 127.310335 166.930749 
L 127.418589 169.867809 
L 127.526843 163.012299 
L 127.743352 164.315126 
L 127.851606 163.385746 
L 127.959861 160.071387 
L 128.176369 163.920786 
L 128.284623 164.041572 
L 128.392878 161.209008 
L 128.501132 171.16124 
L 128.71764 163.761609 
L 128.825895 162.180023 
L 128.934149 164.056067 
L 129.042403 163.207762 
L 129.150657 159.599278 
L 129.367166 163.093607 
L 129.47542 163.854616 
L 129.583675 162.348452 
L 129.691929 163.559808 
L 129.800183 163.275392 
L 129.908437 159.481666 
L 130.016692 164.894773 
L 130.124946 159.362999 
L 130.341454 161.977772 
L 130.557963 162.874845 
L 130.666217 165.256978 
L 130.882726 163.630197 
L 131.099234 162.443387 
L 131.207489 163.751849 
L 131.315743 162.227277 
L 131.532251 165.288448 
L 131.640506 159.733802 
L 131.74876 164.142029 
L 131.857014 161.499669 
L 132.073523 170.344734 
L 132.290031 163.776734 
L 132.398285 168.01415 
L 132.614794 164.173224 
L 132.831303 162.047788 
L 132.939557 165.49737 
L 133.047811 173.32737 
L 133.156065 160.969094 
L 133.26432 169.372079 
L 133.372574 163.065852 
L 133.480828 168.724355 
L 133.589082 165.293858 
L 133.697337 165.638554 
L 133.805591 165.267592 
L 133.913845 167.057263 
L 134.022099 166.752585 
L 134.130354 167.275264 
L 134.238608 164.482252 
L 134.455117 169.589496 
L 134.563371 161.698201 
L 134.779879 165.383778 
L 134.888134 162.047928 
L 135.104642 167.049788 
L 135.212896 163.691302 
L 135.321151 163.787257 
L 135.429405 172.817565 
L 135.754168 165.238019 
L 135.862422 168.822622 
L 135.970676 163.641504 
L 136.187185 172.071057 
L 136.403693 165.644302 
L 136.511948 167.246644 
L 136.620202 161.147879 
L 136.728456 164.872984 
L 136.83671 180.162475 
L 136.944965 172.093128 
L 137.053219 176.051856 
L 137.161473 184.658482 
L 137.377982 159.504951 
L 137.486236 166.062774 
L 137.702745 158.409111 
L 137.919253 169.119852 
L 138.244016 172.843029 
L 138.35227 164.360912 
L 138.568779 170.524435 
L 138.785287 162.958441 
L 138.893541 170.53431 
L 139.11005 163.682559 
L 139.218304 164.64142 
L 139.326559 162.263054 
L 139.434813 167.325146 
L 139.543067 167.120629 
L 139.651321 164.864501 
L 139.976084 171.682622 
L 140.084338 171.009793 
L 140.192593 180.942479 
L 140.300847 168.703664 
L 140.409101 169.01841 
L 140.517355 168.220956 
L 140.62561 165.579563 
L 140.733864 165.905086 
L 140.842118 171.346843 
L 140.950373 159.462654 
L 141.058627 170.128994 
L 141.166881 158.879427 
L 141.275135 166.415646 
L 141.38339 166.246822 
L 141.491644 162.971231 
L 141.599898 170.874084 
L 141.816407 163.049164 
L 141.924661 164.122367 
L 142.032915 168.140893 
L 142.249424 161.254559 
L 142.357678 164.253112 
L 142.574187 159.599081 
L 142.682441 162.889926 
L 142.790695 162.237327 
L 143.007204 166.509954 
L 143.223712 160.912429 
L 143.331966 160.48096 
L 143.440221 163.215828 
L 143.548475 163.068312 
L 143.873238 160.282418 
L 144.089746 163.873483 
L 144.198001 159.981212 
L 144.414509 167.255251 
L 144.522763 159.495818 
L 144.631018 160.076667 
L 144.739272 170.422568 
L 144.95578 162.710782 
L 145.064035 166.270822 
L 145.388797 162.818423 
L 145.605306 165.20164 
L 145.71356 163.013605 
L 145.821815 164.362384 
L 145.930069 160.460273 
L 146.038323 166.18867 
L 146.146577 161.990716 
L 146.254832 169.337609 
L 146.363086 167.959754 
L 146.47134 160.008031 
L 146.687849 167.760579 
L 146.796103 169.767137 
L 147.012611 164.245025 
L 147.120866 167.797914 
L 147.22912 163.893998 
L 147.553883 173.532213 
L 147.662137 169.83673 
L 147.770391 158.087409 
L 147.9869 165.090526 
L 148.095154 165.438649 
L 148.203408 163.512146 
L 148.311663 164.609786 
L 148.419917 161.619618 
L 148.528171 168.384825 
L 148.74468 161.485718 
L 148.852934 168.063274 
L 149.069443 159.468263 
L 149.177697 158.249756 
L 149.285951 165.417964 
L 149.394205 162.314289 
L 149.50246 164.603271 
L 149.610714 160.315343 
L 149.718968 165.976462 
L 149.827222 161.955877 
L 150.043731 165.752425 
L 150.151985 160.144599 
L 150.260239 164.009786 
L 150.476748 161.033287 
L 150.585002 161.087829 
L 150.693257 168.066949 
L 150.909765 163.606094 
L 151.126274 169.257605 
L 151.234528 169.857979 
L 151.342782 163.850257 
L 151.559291 170.929022 
L 151.775799 162.460249 
L 151.884053 164.919921 
L 151.992308 160.306649 
L 152.100562 161.188111 
L 152.208816 160.16709 
L 152.317071 172.783322 
L 152.533579 160.710035 
L 152.641833 165.759161 
L 152.966596 154.288526 
L 153.183105 159.650914 
L 153.291359 171.141146 
L 153.507867 161.396213 
L 153.616122 166.878207 
L 153.83263 159.986231 
L 153.940885 164.417794 
L 154.049139 161.31199 
L 154.157393 162.076097 
L 154.265647 160.622652 
L 154.373902 165.634166 
L 154.482156 162.191979 
L 154.59041 162.294228 
L 154.698664 162.747179 
L 154.806919 160.19758 
L 154.915173 164.895475 
L 155.131681 160.813116 
L 155.34819 164.565048 
L 155.456444 170.160625 
L 155.564699 156.019748 
L 155.781207 162.78258 
L 155.889461 162.066802 
L 155.997716 163.782819 
L 156.10597 162.711004 
L 156.214224 163.779122 
L 156.322478 163.00779 
L 156.430733 166.034662 
L 156.755495 159.625444 
L 156.86375 163.273153 
L 156.972004 162.516986 
L 157.188513 165.526952 
L 157.405021 157.242897 
L 157.62153 171.595091 
L 157.729784 161.488706 
L 157.838038 163.855046 
L 157.946292 159.123268 
L 158.162801 166.17127 
L 158.271055 163.053683 
L 158.379309 168.227768 
L 158.487564 165.358545 
L 158.595818 165.785261 
L 158.812327 161.585877 
L 158.920581 162.362625 
L 159.028835 164.15096 
L 159.245344 162.295501 
L 159.353598 163.46711 
L 159.678361 159.763689 
L 159.894869 159.732482 
L 160.003123 159.234267 
L 160.219632 163.684912 
L 160.327886 165.276165 
L 160.436141 170.240903 
L 160.760903 160.708467 
L 160.869158 163.096187 
L 160.977412 162.353815 
L 161.085666 167.937488 
L 161.19392 162.800935 
L 161.302175 163.206769 
L 161.410429 161.55729 
L 161.518683 168.278205 
L 161.626937 166.764625 
L 161.735192 169.045334 
L 161.9517 161.183079 
L 162.059955 161.005048 
L 162.384717 164.14453 
L 162.601226 163.123684 
L 162.70948 164.15578 
L 162.817734 162.93187 
L 162.925989 167.350994 
L 163.034243 165.438332 
L 163.142497 160.384298 
L 163.359006 163.601293 
L 163.46726 159.924845 
L 163.575514 162.921702 
L 163.683769 161.170936 
L 163.900277 163.904437 
L 164.008531 161.407033 
L 164.116786 165.214678 
L 164.22504 163.109558 
L 164.333294 165.568941 
L 164.441548 159.990048 
L 164.549803 162.993088 
L 164.766311 161.455341 
L 164.874565 165.261143 
L 164.98282 161.943401 
L 165.091074 164.853411 
L 165.199328 163.020272 
L 165.307583 157.301363 
L 165.632345 167.05271 
L 165.7406 166.656143 
L 165.848854 162.125241 
L 166.065362 165.656902 
L 166.173617 163.425239 
L 166.281871 164.448214 
L 166.498379 161.479325 
L 166.714888 165.294797 
L 166.931397 162.714108 
L 167.039651 167.508158 
L 167.147905 167.498992 
L 167.472668 162.253906 
L 167.689176 166.141631 
L 167.797431 163.24663 
L 167.905685 164.693191 
L 168.122193 161.144012 
L 168.230448 163.371083 
L 168.338702 158.940621 
L 168.555211 163.104596 
L 168.663465 159.812861 
L 168.771719 163.231369 
L 168.988228 159.802492 
L 169.096482 161.701864 
L 169.204736 160.750107 
L 169.31299 164.280002 
L 169.421245 162.366395 
L 169.529499 163.374763 
L 169.637753 163.280513 
L 169.746007 164.511576 
L 169.854262 161.712374 
L 170.07077 169.507552 
L 170.287279 166.906542 
L 170.395533 166.624507 
L 170.503787 182.11994 
L 170.612042 162.362192 
L 170.82855 168.354892 
L 170.936804 166.384087 
L 171.045059 172.879886 
L 171.153313 167.746027 
L 171.261567 168.95728 
L 171.369821 165.070342 
L 171.58633 174.396607 
L 171.694584 159.366731 
L 171.802839 161.472065 
L 171.911093 167.013206 
L 172.019347 162.489094 
L 172.127601 165.467577 
L 172.235856 172.934102 
L 172.452364 163.515285 
L 172.560618 164.194079 
L 172.668873 165.780165 
L 172.777127 159.33421 
L 172.885381 159.863268 
L 173.10189 166.022097 
L 173.210144 162.605212 
L 173.426653 167.096858 
L 173.534907 165.48 
L 173.643161 170.426519 
L 173.85967 160.191368 
L 173.967924 159.810126 
L 174.076178 161.689565 
L 174.184432 166.927937 
L 174.292687 161.586423 
L 174.509195 163.919233 
L 174.617449 163.473221 
L 174.725704 169.551988 
L 174.942212 166.413054 
L 175.050467 167.514737 
L 175.266975 163.508717 
L 175.591738 167.204223 
L 175.699992 161.4146 
L 175.808246 165.198789 
L 175.916501 163.440598 
L 176.024755 164.602234 
L 176.133009 167.398182 
L 176.241263 166.768438 
L 176.349518 167.380403 
L 176.566026 163.312246 
L 176.674281 163.703824 
L 176.782535 160.100086 
L 176.890789 167.281814 
L 177.107298 164.098685 
L 177.323806 164.288845 
L 177.43206 167.167627 
L 177.540315 159.760684 
L 177.756823 166.361453 
L 177.973332 159.814826 
L 178.081586 168.930485 
L 178.298095 157.406812 
L 178.406349 158.886786 
L 178.514603 158.600129 
L 178.622857 165.982545 
L 178.731112 159.212781 
L 178.839366 166.262584 
L 178.94762 163.612202 
L 179.055874 164.485867 
L 179.164129 167.442249 
L 179.272383 159.578175 
L 179.380637 163.173309 
L 179.488891 161.740586 
L 179.597146 162.766639 
L 179.7054 161.730716 
L 179.921909 164.049459 
L 180.030163 165.100234 
L 180.138417 164.465306 
L 180.246671 166.902084 
L 180.354926 162.278833 
L 180.46318 164.05346 
L 180.571434 163.594042 
L 180.679688 164.843814 
L 180.787943 164.351257 
L 180.896197 168.030499 
L 181.004451 163.384156 
L 181.112705 168.31542 
L 181.22096 160.557891 
L 181.329214 162.086951 
L 181.437468 159.276567 
L 181.545723 160.209589 
L 181.653977 158.292919 
L 181.762231 160.941302 
L 181.870485 159.29706 
L 182.086994 163.442947 
L 182.303502 159.376186 
L 182.411757 164.339127 
L 182.628265 159.925504 
L 182.736519 161.563863 
L 182.953028 158.790986 
L 183.061282 160.188302 
L 183.169537 169.822241 
L 183.386045 160.297124 
L 183.494299 163.944739 
L 183.602554 159.741653 
L 183.819062 163.957572 
L 184.035571 161.124202 
L 184.252079 167.494104 
L 184.360333 161.45763 
L 184.576842 163.893654 
L 184.685096 163.878529 
L 184.793351 157.169463 
L 184.901605 163.258754 
L 185.009859 160.363956 
L 185.118113 161.149852 
L 185.226368 169.414685 
L 185.442876 160.403057 
L 185.55113 165.179936 
L 185.659385 162.017044 
L 185.767639 165.135318 
L 185.875893 159.982353 
L 185.984147 162.067829 
L 186.092402 159.137437 
L 186.200656 167.949339 
L 186.417165 162.608761 
L 186.525419 163.156108 
L 186.633673 161.207521 
L 186.741927 168.219217 
L 186.850182 161.076613 
L 187.06669 162.592438 
L 187.174944 159.573557 
L 187.283199 161.995499 
L 187.391453 172.378186 
L 187.499707 162.487163 
L 187.607961 165.07866 
L 187.716216 163.911726 
L 187.82447 164.71344 
L 187.932724 170.295878 
L 188.149233 162.418697 
L 188.257487 161.535398 
L 188.365741 158.541273 
L 188.473996 158.844259 
L 188.690504 162.001295 
L 188.907013 169.443215 
L 189.015267 162.89528 
L 189.231775 171.235659 
L 189.556538 157.794174 
L 189.664793 158.503019 
L 189.773047 164.73865 
L 189.989555 157.694974 
L 190.206064 166.236803 
L 190.314318 164.994598 
L 190.422572 161.923843 
L 190.530827 161.954164 
L 190.639081 165.837798 
L 190.855589 156.646233 
L 191.072098 160.992273 
L 191.288607 163.278136 
L 191.396861 161.124062 
L 191.505115 168.34276 
L 191.721624 158.905833 
L 191.938132 162.773461 
L 192.046386 159.386944 
L 192.154641 166.701211 
L 192.262895 160.099574 
L 192.371149 162.152139 
L 192.479403 161.762879 
L 192.587658 168.315895 
L 192.695912 160.476731 
L 192.912421 167.74459 
L 193.128929 157.8559 
L 193.237183 165.423989 
L 193.453692 162.745161 
L 193.561946 172.983674 
L 193.6702 157.084808 
L 193.778455 159.569005 
L 193.886709 157.951493 
L 193.994963 152.832532 
L 194.211472 165.499197 
L 194.319726 162.421396 
L 194.42798 164.871269 
L 194.536235 157.652154 
L 194.644489 160.42323 
L 194.752743 159.108012 
L 194.860997 161.830123 
L 194.969252 159.84422 
L 195.077506 161.402861 
L 195.18576 158.560519 
L 195.294014 163.038553 
L 195.402269 159.43528 
L 195.618777 166.840848 
L 195.727031 162.018992 
L 195.94354 168.314065 
L 196.160049 161.37954 
L 196.268303 159.534683 
L 196.376557 162.352199 
L 196.484811 160.661149 
L 196.593066 155.618773 
L 196.70132 165.729155 
L 196.809574 160.01092 
L 196.917828 161.103409 
L 197.026083 159.485702 
L 197.242591 173.432166 
L 197.4591 164.515091 
L 197.567354 171.581941 
L 197.783862 158.309332 
L 197.892117 159.076408 
L 198.000371 161.915211 
L 198.108625 156.742982 
L 198.433388 170.055785 
L 198.866405 159.267381 
L 198.974659 158.624186 
L 199.191168 172.906361 
L 199.407676 160.039057 
L 199.515931 170.012083 
L 199.732439 156.795139 
L 200.165456 169.303928 
L 200.381965 157.422626 
L 200.490219 162.124303 
L 200.598473 172.460159 
L 200.814982 159.654041 
L 200.923236 162.304836 
L 201.03149 170.223974 
L 201.247999 161.777607 
L 201.356253 156.880333 
L 201.572762 160.881752 
L 201.681016 157.435734 
L 201.78927 159.433021 
L 201.897525 154.290829 
L 202.222287 162.715964 
L 202.438796 158.809933 
L 202.655304 163.571528 
L 202.763559 166.124183 
L 202.871813 162.874038 
L 202.980067 162.998283 
L 203.088322 164.171831 
L 203.30483 160.926396 
L 203.737847 167.863043 
L 203.846101 160.93822 
L 204.06261 166.446878 
L 204.170864 161.637286 
L 204.279118 168.015438 
L 204.387373 158.56417 
L 204.495627 160.692691 
L 204.603881 157.338877 
L 204.712136 160.301971 
L 204.82039 158.031186 
L 204.928644 164.92581 
L 205.036898 156.908917 
L 205.145153 159.982827 
L 205.253407 158.923808 
L 205.361661 163.794744 
L 205.57817 158.226693 
L 205.686424 157.059334 
L 205.794678 162.605595 
L 205.902932 153.013771 
L 206.119441 162.754974 
L 206.227695 160.33214 
L 206.33595 163.890117 
L 206.552458 161.197262 
L 206.660712 166.557958 
L 206.877221 163.254172 
L 206.985475 161.630286 
L 207.201984 169.374654 
L 207.310238 160.810446 
L 207.526746 164.828729 
L 207.635001 163.760953 
L 207.851509 159.983772 
L 208.068018 165.367835 
L 208.176272 163.679203 
L 208.392781 166.320486 
L 208.501035 169.38726 
L 208.609289 162.346833 
L 208.717543 168.608094 
L 208.825798 164.326888 
L 208.934052 169.016469 
L 209.15056 161.512506 
L 209.367069 163.569787 
L 209.475323 157.129333 
L 209.583578 164.493932 
L 209.691832 162.750195 
L 209.800086 165.533402 
L 210.016595 157.0402 
L 210.124849 158.440591 
L 210.449612 171.214634 
L 210.557866 170.473004 
L 210.66612 172.878303 
L 210.882629 159.744138 
L 210.990883 161.738499 
L 211.099137 161.048536 
L 211.207392 161.269935 
L 211.532154 170.290146 
L 211.640409 163.457609 
L 211.748663 164.770472 
L 211.856917 161.447851 
L 211.965171 165.451883 
L 212.073426 160.802202 
L 212.18168 167.265987 
L 212.289934 166.941174 
L 212.398188 167.618641 
L 212.506443 172.821593 
L 212.614697 170.336121 
L 212.722951 162.477603 
L 212.831206 169.242108 
L 213.155968 162.00011 
L 213.264223 165.042746 
L 213.372477 161.612262 
L 213.480731 165.589665 
L 213.805494 160.45027 
L 213.913748 166.300681 
L 214.022002 163.642907 
L 214.130257 166.373881 
L 214.346765 165.958915 
L 214.45502 156.565712 
L 214.671528 163.882652 
L 214.779782 158.153562 
L 214.888037 164.661205 
L 214.996291 161.035476 
L 215.104545 162.856275 
L 215.212799 162.645744 
L 215.537562 169.15143 
L 215.754071 164.145533 
L 215.970579 160.449314 
L 216.078834 163.409822 
L 216.187088 156.94901 
L 216.511851 168.20049 
L 216.728359 160.658152 
L 216.836613 162.354698 
L 217.053122 154.782876 
L 217.377885 165.789154 
L 217.486139 159.425992 
L 217.594393 162.969386 
L 217.919156 152.190169 
L 218.02741 160.691136 
L 218.135665 156.357392 
L 218.352173 161.509667 
L 218.460427 159.344481 
L 218.568682 163.584667 
L 218.78519 161.152108 
L 218.893444 160.063845 
L 219.001699 163.108378 
L 219.109953 157.242596 
L 219.218207 164.854599 
L 219.326462 162.530956 
L 219.434716 168.955346 
L 219.54297 167.715435 
L 219.759479 163.223922 
L 219.867733 165.536128 
L 219.975987 165.051665 
L 220.084241 158.425974 
L 220.192496 167.675111 
L 220.30075 159.839379 
L 220.409004 160.101472 
L 220.625513 163.857099 
L 220.733767 160.921818 
L 220.842021 163.316419 
L 221.05853 161.220972 
L 221.166784 163.824936 
L 221.383293 158.440403 
L 221.708055 165.796306 
L 221.81631 160.63132 
L 221.924564 160.923812 
L 222.032818 161.788182 
L 222.141072 159.306859 
L 222.249327 161.022765 
L 222.357581 156.994555 
L 222.465835 163.391733 
L 222.57409 158.312481 
L 222.682344 159.396675 
L 222.790598 162.185585 
L 222.898852 157.257864 
L 223.223615 162.342085 
L 223.331869 163.199966 
L 223.440124 160.111833 
L 223.548378 166.848991 
L 223.764886 160.630436 
L 223.873141 159.112164 
L 223.981395 164.477481 
L 224.089649 160.579528 
L 224.197904 163.439432 
L 224.522666 159.013224 
L 224.739175 159.606515 
L 224.847429 158.115788 
L 224.955683 161.68356 
L 225.172192 158.291567 
L 225.280446 164.398438 
L 225.3887 160.922503 
L 225.496955 166.907196 
L 225.821718 158.886806 
L 225.929972 160.968311 
L 226.038226 158.772021 
L 226.14648 160.789747 
L 226.254735 159.771876 
L 226.362989 169.126529 
L 226.471243 158.099189 
L 226.796006 164.283464 
L 227.012514 156.863084 
L 227.120769 164.384438 
L 227.229023 159.863798 
L 227.337277 162.679352 
L 227.553786 158.39507 
L 227.66204 161.631639 
L 227.770294 161.091653 
L 227.878549 159.690402 
L 228.095057 163.514008 
L 228.203311 162.395207 
L 228.311566 162.301964 
L 228.528074 164.327227 
L 228.636328 160.213157 
L 228.852837 165.925372 
L 228.961091 160.831527 
L 229.069346 164.342232 
L 229.1776 161.588997 
L 229.285854 163.981823 
L 229.394108 163.717688 
L 229.610617 159.209171 
L 229.827125 167.972046 
L 229.93538 158.471422 
L 230.043634 162.056044 
L 230.151888 159.782311 
L 230.368397 162.566513 
L 230.476651 160.927489 
L 230.584905 156.88 
L 230.69316 164.686921 
L 230.801414 164.300184 
L 230.909668 158.326819 
L 231.017922 163.407477 
L 231.126177 155.363634 
L 231.342685 166.229166 
L 231.450939 159.442897 
L 231.667448 165.306872 
L 231.775702 162.308064 
L 231.883956 165.648788 
L 231.992211 159.561666 
L 232.208719 164.618446 
L 232.316974 161.214758 
L 232.425228 162.499402 
L 232.641736 168.807297 
L 232.858245 166.771799 
L 232.966499 166.478567 
L 233.183008 162.923933 
L 233.291262 166.214042 
L 233.50777 161.859403 
L 233.616025 162.458306 
L 233.724279 167.316274 
L 233.832533 164.177329 
L 233.940788 164.523154 
L 234.049042 162.52696 
L 234.157296 164.624437 
L 234.26555 161.776768 
L 234.482059 165.617178 
L 234.590313 164.625122 
L 234.698567 161.496665 
L 234.915076 163.635727 
L 235.02333 163.355521 
L 235.131584 165.604362 
L 235.239839 163.497434 
L 235.348093 164.681587 
L 235.456347 172.536205 
L 235.672856 165.507035 
L 235.78111 167.572062 
L 235.889364 164.539516 
L 235.997619 164.63318 
L 236.214127 160.517033 
L 236.430636 161.399991 
L 236.53889 159.679577 
L 236.647144 162.241368 
L 236.971907 159.142643 
L 237.188416 161.737411 
L 237.29667 162.276969 
L 237.621433 168.537331 
L 237.837941 159.463574 
L 238.05445 164.370709 
L 238.162704 160.85839 
L 238.379212 164.649523 
L 238.595721 166.238496 
L 238.703975 163.369714 
L 238.81223 167.872706 
L 238.920484 158.528537 
L 239.353501 165.846222 
L 239.461755 169.585678 
L 239.570009 164.156184 
L 239.678264 164.74307 
L 239.786518 164.650763 
L 239.894772 159.645844 
L 240.003026 163.223576 
L 240.111281 159.154218 
L 240.219535 159.780265 
L 240.436044 163.928855 
L 240.652552 166.534473 
L 240.760806 160.842691 
L 240.869061 161.298713 
L 241.193823 156.27752 
L 241.302078 159.416611 
L 241.410332 158.254992 
L 241.518586 164.940499 
L 241.62684 164.690965 
L 241.735095 161.470209 
L 241.843349 173.967951 
L 241.951603 158.048553 
L 242.059858 159.586147 
L 242.168112 171.088503 
L 242.38462 157.932102 
L 242.492875 170.177596 
L 242.601129 167.8778 
L 242.817637 161.083067 
L 242.925892 161.495796 
L 243.034146 172.59196 
L 243.1424 157.340342 
L 243.250654 159.901359 
L 243.358909 157.997696 
L 243.575417 161.694591 
L 243.683672 162.495256 
L 243.791926 160.029718 
L 244.008434 161.317173 
L 244.116689 155.61728 
L 244.224943 157.57468 
L 244.333197 165.686351 
L 244.441451 155.614602 
L 244.65796 164.037418 
L 244.766214 162.85227 
L 244.874468 157.025923 
L 244.982723 163.28077 
L 245.090977 160.406467 
L 245.199231 165.995663 
L 245.307486 163.18375 
L 245.41574 156.665971 
L 245.523994 164.373519 
L 245.632248 163.379527 
L 245.740503 160.624145 
L 245.848757 170.98001 
L 245.957011 156.991139 
L 246.17352 165.091689 
L 246.281774 163.468589 
L 246.390028 178.345245 
L 246.498282 156.616316 
L 246.714791 166.05505 
L 246.9313 159.833525 
L 247.039554 161.708908 
L 247.256062 167.734049 
L 247.364317 163.405336 
L 247.472571 167.238148 
L 247.580825 161.722253 
L 247.797334 166.719621 
L 247.905588 169.433818 
L 248.013842 161.963387 
L 248.122096 163.381286 
L 248.230351 167.53433 
L 248.338605 164.700264 
L 248.446859 166.629414 
L 248.555114 163.268457 
L 248.663368 164.722292 
L 248.771622 157.596125 
L 248.879876 163.059209 
L 249.096385 158.064527 
L 249.204639 161.978392 
L 249.312893 160.01142 
L 249.421148 153.895746 
L 249.637656 172.082834 
L 249.74591 169.079409 
L 249.962419 159.15168 
L 250.070673 156.175615 
L 250.287182 165.569428 
L 250.395436 165.821668 
L 250.611945 160.784205 
L 250.720199 164.120262 
L 250.936707 160.912885 
L 251.153216 162.439276 
L 251.26147 161.408283 
L 251.369724 164.654196 
L 251.477979 161.533557 
L 251.694487 165.866368 
L 251.802742 163.84879 
L 251.910996 164.134761 
L 252.01925 167.670064 
L 252.127504 160.356696 
L 252.344013 161.434485 
L 252.452267 159.620525 
L 252.560521 168.618371 
L 252.77703 157.965005 
L 252.885284 166.518258 
L 252.993538 160.834018 
L 253.101793 162.183467 
L 253.318301 169.510903 
L 253.53481 163.242176 
L 253.643064 164.607278 
L 253.751318 163.258315 
L 253.859573 159.728029 
L 253.967827 164.541388 
L 254.076081 163.435469 
L 254.184335 171.632718 
L 254.400844 162.282248 
L 254.617352 166.474796 
L 254.725607 158.945259 
L 254.833861 161.992827 
L 254.942115 170.419557 
L 255.05037 162.542967 
L 255.158624 166.398634 
L 255.483387 163.64416 
L 255.591641 164.22782 
L 255.699895 158.205787 
L 255.916404 169.692095 
L 256.024658 166.885474 
L 256.132912 168.110487 
L 256.349421 159.735258 
L 256.457675 161.407919 
L 256.565929 159.221129 
L 256.674184 161.290286 
L 256.782438 165.821593 
L 256.998946 165.129489 
L 257.107201 172.246038 
L 257.323709 165.065951 
L 257.540218 160.354082 
L 257.756726 165.651682 
L 257.86498 164.158333 
L 257.973235 165.715375 
L 258.081489 165.315953 
L 258.189743 163.168692 
L 258.406252 165.773378 
L 258.731015 157.803331 
L 258.839269 157.843993 
L 259.055777 165.137118 
L 259.164032 165.566657 
L 259.272286 158.536954 
L 259.488794 163.487995 
L 259.597049 153.466648 
L 259.813557 160.535882 
L 259.921812 163.501519 
L 260.030066 162.900518 
L 260.13832 166.907886 
L 260.354829 160.925387 
L 260.463083 162.721261 
L 260.571337 166.585012 
L 260.787846 162.775962 
L 261.004354 164.124646 
L 261.329117 168.573276 
L 261.437371 166.332677 
L 261.545626 161.559551 
L 261.762134 161.939806 
L 261.978643 157.736992 
L 262.086897 162.369126 
L 262.195151 160.453186 
L 262.519914 164.46331 
L 262.736422 157.718044 
L 263.061185 160.987379 
L 263.16944 159.649906 
L 263.385948 164.055635 
L 263.494202 162.553332 
L 263.602457 159.126407 
L 263.710711 163.1696 
L 263.818965 161.338021 
L 263.927219 161.730248 
L 264.035474 159.822164 
L 264.143728 170.054257 
L 264.251982 160.174754 
L 264.360236 163.543092 
L 264.576745 161.769177 
L 264.684999 165.299528 
L 264.793254 161.852774 
L 265.009762 166.723335 
L 265.226271 161.164346 
L 265.334525 163.948604 
L 265.442779 163.212465 
L 265.551033 161.178906 
L 265.659288 164.872127 
L 265.767542 160.537094 
L 265.98405 165.079432 
L 266.092305 161.127835 
L 266.200559 164.827086 
L 266.417068 160.88817 
L 266.633576 163.491934 
L 266.74183 161.50207 
L 266.850085 169.734417 
L 266.958339 169.335118 
L 267.066593 165.907607 
L 267.174847 167.819297 
L 267.283102 161.200651 
L 267.391356 162.752842 
L 267.607864 157.487383 
L 267.824373 167.847453 
L 267.932627 168.713405 
L 268.149136 162.48752 
L 268.25739 166.062912 
L 268.365644 164.314783 
L 268.473899 167.919118 
L 268.690407 163.08376 
L 268.798661 166.780342 
L 269.01517 163.604448 
L 269.123424 163.502288 
L 269.339933 161.103674 
L 269.448187 163.879968 
L 269.556441 159.258685 
L 269.77295 164.250947 
L 269.881204 158.727062 
L 270.097713 167.439233 
L 270.205967 162.667166 
L 270.314221 164.256742 
L 270.422475 160.498073 
L 270.53073 163.275732 
L 270.638984 161.365878 
L 270.747238 164.840125 
L 270.855492 162.638752 
L 270.963747 167.418841 
L 271.180255 164.817194 
L 271.28851 166.235351 
L 271.505018 159.984629 
L 271.613272 158.503388 
L 271.829781 162.26277 
L 271.938035 161.863586 
L 272.154544 164.499831 
L 272.262798 163.723952 
L 272.371052 168.017285 
L 272.587561 158.593806 
L 272.804069 158.447398 
L 272.912324 163.143899 
L 273.020578 156.817131 
L 273.128832 157.191342 
L 273.237086 159.891971 
L 273.345341 158.728032 
L 273.561849 162.109194 
L 273.670103 157.068283 
L 273.994866 162.644926 
L 274.10312 158.383501 
L 274.427883 166.67873 
L 274.536138 164.588084 
L 274.644392 159.976188 
L 274.752646 163.007358 
L 274.8609 161.51547 
L 274.969155 162.937729 
L 275.185663 160.313078 
L 275.293917 158.591295 
L 275.402172 166.454776 
L 275.510426 159.80597 
L 275.61868 163.685989 
L 275.726934 162.683528 
L 275.835189 157.932337 
L 275.943443 163.52331 
L 276.051697 158.25786 
L 276.268206 163.661372 
L 276.37646 160.474161 
L 276.592969 164.343463 
L 276.701223 166.664314 
L 276.917731 161.019586 
L 277.025986 164.988856 
L 277.242494 162.117173 
L 277.350748 161.98481 
L 277.567257 165.550101 
L 277.675511 165.366974 
L 277.783765 161.949852 
L 277.89202 165.031096 
L 278.108528 161.881498 
L 278.216783 161.086258 
L 278.325037 164.856927 
L 278.541545 160.813136 
L 278.6498 165.75428 
L 278.758054 165.153913 
L 278.974562 159.257759 
L 279.082817 158.589677 
L 279.299325 166.235649 
L 279.407579 162.687228 
L 279.515834 164.023026 
L 279.624088 162.956083 
L 279.732342 165.372525 
L 279.948851 162.734742 
L 280.057105 164.340213 
L 280.165359 162.995057 
L 280.381868 152.334644 
L 280.598376 167.824569 
L 280.706631 165.76083 
L 280.814885 168.898194 
L 281.031393 155.355258 
L 281.139648 158.02085 
L 281.356156 173.933114 
L 281.572665 147.821145 
L 281.680919 143.787696 
L 281.789173 160.29012 
L 281.897428 143.837651 
L 282.005682 145.239223 
L 282.113936 154.761645 
L 282.22219 146.681795 
L 282.330445 156.649449 
L 282.438699 155.244288 
L 282.546953 180.339407 
L 282.655207 138.621035 
L 282.763462 181.445953 
L 282.871716 169.803075 
L 283.088225 189.809933 
L 283.196479 185.81075 
L 283.304733 207.525087 
L 283.521242 176.714752 
L 283.73775 159.869873 
L 283.846004 149.682289 
L 284.170767 182.101439 
L 284.279021 165.997017 
L 284.387276 167.105536 
L 284.49553 164.783785 
L 284.603784 158.385104 
L 284.712039 159.936704 
L 284.820293 166.057338 
L 285.036801 142.291044 
L 285.145056 151.094138 
L 285.25331 148.61342 
L 285.361564 155.992667 
L 285.469818 153.329884 
L 285.578073 156.314692 
L 285.686327 165.467419 
L 285.794581 162.24124 
L 286.01109 165.19989 
L 286.119344 164.293624 
L 286.227598 161.145603 
L 286.335853 167.929009 
L 286.552361 158.886798 
L 286.660615 159.094226 
L 286.76887 158.032318 
L 286.877124 167.908688 
L 286.985378 166.899858 
L 287.093632 160.600606 
L 287.201887 173.117929 
L 287.634904 156.778187 
L 287.743158 155.691963 
L 287.959667 157.076475 
L 288.067921 157.435332 
L 288.176175 156.569033 
L 288.284429 151.896262 
L 288.392684 159.685205 
L 288.609192 153.446816 
L 288.825701 158.213147 
L 288.933955 161.82457 
L 289.042209 159.378543 
L 289.150463 160.590473 
L 289.366972 154.92436 
L 289.475226 154.986722 
L 289.583481 155.503129 
L 289.908243 161.467568 
L 290.124752 157.447058 
L 290.233006 160.605431 
L 290.34126 160.293377 
L 290.557769 157.504279 
L 290.666023 156.652893 
L 290.774277 159.134549 
L 290.882532 157.168715 
L 290.990786 157.186427 
L 291.207295 162.866248 
L 291.315549 161.723085 
L 291.423803 158.989559 
L 291.532057 162.676617 
L 291.640312 159.357982 
L 291.85682 159.56541 
L 291.965074 160.474946 
L 292.073329 156.358154 
L 292.181583 161.820114 
L 292.398091 155.854002 
L 292.506346 161.231918 
L 292.6146 161.204883 
L 292.722854 165.335665 
L 292.831109 156.484996 
L 292.939363 157.900073 
L 293.047617 162.85905 
L 293.155871 156.427677 
L 293.37238 158.746833 
L 293.480634 157.650047 
L 293.588888 166.312202 
L 293.697143 160.515454 
L 293.805397 163.45808 
L 293.913651 158.460486 
L 294.13016 159.8276 
L 294.238414 158.6814 
L 294.346668 160.178311 
L 294.563177 158.330032 
L 294.779685 161.759478 
L 294.88794 160.199661 
L 294.996194 167.148657 
L 295.212702 161.119125 
L 295.320957 169.436108 
L 295.429211 164.425268 
L 295.537465 167.200888 
L 295.645719 161.237551 
L 295.753974 162.055328 
L 295.862228 168.917517 
L 296.078737 161.248955 
L 296.186991 160.822781 
L 296.403499 162.99893 
L 296.511754 165.677294 
L 296.620008 160.733256 
L 296.728262 161.863503 
L 297.161279 158.032284 
L 297.269533 161.703988 
L 297.594296 158.846007 
L 297.919059 161.622053 
L 298.027313 160.007701 
L 298.135568 161.677531 
L 298.243822 158.929729 
L 298.352076 165.339201 
L 298.46033 162.664088 
L 298.568585 163.949373 
L 298.785093 158.332917 
L 299.001602 164.162106 
L 299.21811 159.588577 
L 299.434619 166.847017 
L 299.651127 160.13214 
L 299.759382 163.544373 
L 299.867636 158.85906 
L 299.97589 160.123479 
L 300.084144 159.477675 
L 300.192399 159.614999 
L 300.300653 162.166609 
L 300.408907 160.872513 
L 300.625416 164.466793 
L 300.73367 160.587968 
L 300.950179 161.927254 
L 301.058433 167.065505 
L 301.274941 161.252275 
L 301.383196 161.308534 
L 301.49145 160.381898 
L 301.599704 161.608734 
L 301.816213 159.006051 
L 302.140975 164.410326 
L 302.24923 165.360661 
L 302.357484 157.576395 
L 302.465738 161.385033 
L 302.573993 159.413798 
L 302.682247 160.59119 
L 302.790501 160.247839 
L 302.898755 158.881059 
L 303.00701 161.851739 
L 303.115264 160.039121 
L 303.223518 160.627822 
L 303.331772 167.935599 
L 303.440027 160.743504 
L 303.548281 164.404767 
L 303.656535 163.731886 
L 303.764789 161.98558 
L 303.981298 165.540438 
L 304.089552 160.967436 
L 304.197807 163.446968 
L 304.522569 158.718437 
L 304.630824 160.23799 
L 304.739078 159.400619 
L 304.955586 163.86939 
L 305.063841 161.529871 
L 305.388603 166.444624 
L 305.496858 163.054886 
L 305.605112 167.266207 
L 305.821621 164.587368 
L 306.038129 163.53821 
L 306.146383 166.748612 
L 306.362892 161.7968 
L 306.471146 163.037446 
L 306.5794 161.312783 
L 306.687655 162.720513 
L 306.795909 167.253432 
L 307.012417 160.407101 
L 307.228926 162.671511 
L 307.33718 159.829919 
L 307.445435 162.683641 
L 307.553689 170.227862 
L 307.661943 160.346917 
L 307.770197 162.904001 
L 307.986706 160.283193 
L 308.09496 161.714146 
L 308.203214 161.580503 
L 308.311469 160.596682 
L 308.419723 160.803014 
L 308.527977 166.289933 
L 308.636231 163.137289 
L 308.744486 164.133411 
L 308.85274 163.365872 
L 309.069249 160.29614 
L 309.177503 161.7359 
L 309.285757 159.583366 
L 309.394011 160.193648 
L 309.502266 163.592914 
L 309.61052 161.271571 
L 309.718774 161.331633 
L 309.827028 163.430018 
L 309.935283 162.088288 
L 310.043537 166.028195 
L 310.3683 160.211314 
L 310.584808 164.891476 
L 310.801317 161.562257 
L 310.909571 160.883653 
L 311.12608 164.602066 
L 311.234334 160.153639 
L 311.342588 163.27373 
L 311.450842 162.077786 
L 311.559097 163.685831 
L 311.775605 160.346412 
L 311.992114 160.868159 
L 312.100368 166.819775 
L 312.208622 159.43828 
L 312.316877 162.294821 
L 312.425131 159.03716 
L 312.533385 159.376033 
L 312.858148 163.669356 
L 312.966402 158.177128 
L 313.074656 166.951796 
L 313.182911 160.172964 
L 313.291165 160.797831 
L 313.399419 163.464992 
L 313.507673 159.940704 
L 313.724182 160.806097 
L 313.832436 160.822484 
L 313.940691 162.517091 
L 314.157199 160.905695 
L 314.265453 164.469828 
L 314.373708 160.08503 
L 314.481962 164.022368 
L 314.69847 159.370318 
L 314.806725 158.650546 
L 314.914979 161.242671 
L 315.023233 160.822218 
L 315.131487 156.397503 
L 315.239742 161.722032 
L 315.347996 159.72007 
L 315.781013 167.238481 
L 315.997522 161.405853 
L 316.105776 161.914234 
L 316.21403 161.134426 
L 316.430539 167.453667 
L 316.647047 162.518282 
L 316.755301 164.230704 
L 316.97181 162.213793 
L 317.080064 162.659712 
L 317.188319 161.633791 
L 317.296573 167.153737 
L 317.404827 163.147504 
L 317.513081 166.876577 
L 317.621336 161.195727 
L 317.72959 161.558717 
L 317.837844 160.829768 
L 318.054353 162.70578 
L 318.162607 162.157259 
L 318.270861 165.372767 
L 318.48737 160.149544 
L 318.595624 161.13083 
L 318.812133 165.961372 
L 319.028641 160.739582 
L 319.136895 160.56824 
L 319.24515 159.859582 
L 319.353404 162.895061 
L 319.461658 159.605732 
L 319.569912 163.028225 
L 319.678167 161.604697 
L 319.786421 165.587482 
L 320.111184 159.367354 
L 320.219438 162.943038 
L 320.435947 162.032409 
L 320.544201 168.19997 
L 320.760709 161.682061 
L 320.868964 162.43269 
L 320.977218 160.657506 
L 321.193726 164.899163 
L 321.301981 161.229201 
L 321.626743 162.239602 
L 321.734998 164.451586 
L 321.843252 160.191381 
L 321.951506 161.930883 
L 322.059761 161.784943 
L 322.168015 159.839093 
L 322.384523 161.848846 
L 322.492778 169.035988 
L 322.601032 164.422993 
L 322.81754 172.166611 
L 323.034049 162.372786 
L 323.142303 167.751252 
L 323.250557 164.578658 
L 323.467066 165.942042 
L 323.57532 176.645453 
L 323.791829 162.448137 
L 323.900083 160.610711 
L 324.116592 161.166125 
L 324.224846 163.665564 
L 324.3331 160.927784 
L 324.441354 163.450423 
L 324.549609 159.506859 
L 324.657863 159.951501 
L 324.766117 159.613931 
L 324.982626 163.334986 
L 325.199134 160.301819 
L 325.307389 170.422776 
L 325.415643 160.91348 
L 325.523897 167.534183 
L 325.632151 159.98848 
L 325.740406 160.398786 
L 325.956914 169.698145 
L 326.173423 159.665387 
L 326.281677 161.709281 
L 326.389931 160.667398 
L 326.498185 160.702562 
L 326.60644 167.117486 
L 326.714694 161.159783 
L 326.822948 163.371705 
L 326.931203 159.966665 
L 327.147711 161.010553 
L 327.255965 167.333928 
L 327.472474 159.899394 
L 327.580728 161.392549 
L 327.688982 160.983721 
L 327.797237 159.763554 
L 328.013745 161.391483 
L 328.121999 162.249569 
L 328.230254 166.456058 
L 328.338508 161.157808 
L 328.446762 168.1734 
L 328.555017 161.238404 
L 328.771525 164.183811 
L 328.879779 162.933259 
L 328.988034 168.925861 
L 329.204542 162.800487 
L 329.312796 162.42236 
L 329.529305 159.580677 
L 329.637559 165.099864 
L 329.854068 161.032799 
L 329.962322 162.228291 
L 330.070576 160.653443 
L 330.287085 164.439413 
L 330.395339 162.559493 
L 330.503593 166.070628 
L 330.720102 161.391682 
L 330.93661 162.29679 
L 331.044865 161.152054 
L 331.153119 164.173365 
L 331.261373 160.559624 
L 331.369627 160.846955 
L 331.477882 161.572988 
L 331.586136 170.59924 
L 331.69439 160.746437 
L 331.802645 161.669458 
L 331.910899 161.586898 
L 332.019153 160.942863 
L 332.127407 165.352556 
L 332.45217 160.434083 
L 332.560424 161.587853 
L 332.668679 172.439732 
L 332.776933 159.869432 
L 332.885187 161.510252 
L 332.993441 160.255206 
L 333.101696 160.707758 
L 333.20995 159.750589 
L 333.318204 162.880524 
L 333.426459 158.757896 
L 333.534713 160.610909 
L 333.642967 165.303873 
L 333.859476 162.518522 
L 333.96773 161.828098 
L 334.075984 162.051567 
L 334.292493 158.889078 
L 334.400747 162.519639 
L 334.509001 159.337165 
L 334.617255 168.227801 
L 334.72551 159.667205 
L 334.942018 166.967521 
L 335.050273 159.827384 
L 335.158527 160.317354 
L 335.266781 160.226465 
L 335.48329 166.96571 
L 335.699798 161.768442 
L 335.808052 161.696341 
L 335.916307 162.925237 
L 336.024561 161.01642 
L 336.132815 162.407276 
L 336.241069 162.326638 
L 336.349324 162.473136 
L 336.565832 160.09856 
L 336.674087 165.413928 
L 336.782341 161.88548 
L 336.890595 163.393249 
L 336.998849 169.242247 
L 337.215358 160.358982 
L 337.323612 160.528132 
L 337.431866 162.648087 
L 337.540121 162.440482 
L 337.756629 160.715909 
L 337.864883 159.485703 
L 338.081392 163.281445 
L 338.297901 160.861003 
L 338.514409 164.765218 
L 338.622663 162.389968 
L 338.730918 166.17121 
L 338.947426 164.11168 
L 339.05568 166.068095 
L 339.272189 161.623142 
L 339.380443 168.440142 
L 339.596952 161.969718 
L 339.705206 163.08012 
L 339.81346 160.457158 
L 339.921715 164.302229 
L 340.029969 158.147888 
L 340.138223 161.468145 
L 340.354732 158.591363 
L 340.462986 162.226101 
L 340.679494 159.754053 
L 340.787749 159.666369 
L 340.896003 162.017429 
L 341.004257 169.228538 
L 341.220766 160.461931 
L 341.437274 160.926449 
L 341.545529 161.033115 
L 341.653783 164.503571 
L 341.762037 158.619186 
L 341.870291 166.844237 
L 342.0868 162.064873 
L 342.195054 164.004463 
L 342.519817 160.625746 
L 342.628071 162.554485 
L 342.736325 162.52393 
L 342.952834 158.586867 
L 343.061088 163.433751 
L 343.277597 160.040885 
L 343.494105 162.528847 
L 343.60236 160.741318 
L 343.927122 168.784264 
L 344.035377 163.724317 
L 344.143631 164.993046 
L 344.251885 171.479761 
L 344.360139 163.178777 
L 344.576648 172.366345 
L 344.684902 163.456917 
L 344.793157 164.400755 
L 344.901411 160.080787 
L 345.009665 163.309413 
L 345.117919 162.306478 
L 345.226174 163.713987 
L 345.334428 162.033801 
L 345.442682 162.051373 
L 345.550936 161.829447 
L 345.659191 160.504652 
L 345.767445 161.978504 
L 345.875699 161.652297 
L 345.983953 160.748119 
L 346.092208 169.948391 
L 346.308716 161.488818 
L 346.416971 160.059943 
L 346.525225 160.22406 
L 346.633479 159.921379 
L 346.741733 161.875352 
L 346.849988 159.459199 
L 346.958242 159.8834 
L 347.066496 163.021064 
L 347.17475 162.704219 
L 347.283005 159.974793 
L 347.391259 160.513275 
L 347.499513 160.113448 
L 347.607767 160.570688 
L 347.716022 164.255631 
L 347.824276 159.65313 
L 347.93253 161.6139 
L 348.149039 159.052399 
L 348.257293 166.236425 
L 348.365547 157.751081 
L 348.473802 159.209265 
L 348.69031 158.6744 
L 348.798564 158.695814 
L 348.906819 160.007567 
L 349.123327 159.149735 
L 349.231581 166.411772 
L 349.339836 160.226446 
L 349.44809 161.812517 
L 349.556344 160.577851 
L 349.664599 163.655311 
L 349.772853 159.410609 
L 349.881107 163.29063 
L 350.20587 160.227016 
L 350.314124 160.712877 
L 350.422378 160.640194 
L 350.530633 160.037355 
L 350.638887 161.415401 
L 350.747141 167.771046 
L 350.855395 160.154558 
L 350.96365 162.666417 
L 351.288413 159.197082 
L 351.396667 160.952284 
L 351.504921 159.753372 
L 351.613175 162.095175 
L 351.829684 159.521822 
L 351.937938 159.991208 
L 352.046192 159.426074 
L 352.154447 162.456186 
L 352.370955 159.032948 
L 352.587464 163.587548 
L 352.803972 158.683475 
L 352.912226 158.790929 
L 353.020481 160.399005 
L 353.128735 159.395478 
L 353.236989 161.948521 
L 353.345244 161.137774 
L 353.453498 162.336403 
L 353.561752 160.09857 
L 353.886515 161.104545 
L 353.994769 161.518768 
L 354.211278 168.574661 
L 354.319532 160.448955 
L 354.427786 163.371426 
L 354.53604 160.472235 
L 354.644295 161.540787 
L 354.860803 160.943838 
L 354.969058 161.925298 
L 355.185566 160.691222 
L 355.29382 166.759314 
L 355.402075 161.906249 
L 355.510329 166.475704 
L 355.618583 161.441696 
L 355.726837 171.696433 
L 355.835092 161.724314 
L 356.0516 163.867849 
L 356.159854 172.119495 
L 356.376363 160.257138 
L 356.592872 164.656329 
L 356.701126 161.068275 
L 356.917634 163.955518 
L 357.134143 160.745206 
L 357.242397 162.141625 
L 357.458906 165.726947 
L 357.56716 164.107441 
L 357.675414 160.774427 
L 357.783668 160.88222 
L 357.891923 162.529735 
L 358.000177 162.304966 
L 358.108431 159.520178 
L 358.216686 161.486373 
L 358.433194 160.89694 
L 358.541448 161.286578 
L 358.649703 158.738337 
L 358.866211 162.068111 
L 358.974465 161.780738 
L 359.08272 162.851725 
L 359.190974 162.007856 
L 359.299228 165.977827 
L 359.407482 162.626369 
L 359.515737 162.811683 
L 359.732245 162.23668 
L 359.8405 162.827417 
L 360.057008 160.759104 
L 360.165262 164.132285 
L 360.273517 162.455058 
L 360.381771 163.12426 
L 360.490025 164.836628 
L 360.598279 161.672117 
L 360.706534 162.277316 
L 360.923042 161.208857 
L 361.139551 158.080566 
L 361.247805 170.539474 
L 361.464314 159.018249 
L 361.572568 160.443011 
L 361.680822 158.796605 
L 361.789076 168.225541 
L 361.897331 158.177517 
L 362.005585 164.449278 
L 362.222093 158.029893 
L 362.330348 168.447358 
L 362.438602 168.282177 
L 362.65511 160.703331 
L 362.871619 164.041361 
L 362.979873 161.270824 
L 363.196382 163.897057 
L 363.41289 159.891769 
L 363.521145 162.808961 
L 363.737653 158.25939 
L 363.954162 162.104715 
L 364.062416 157.575984 
L 364.278924 158.804531 
L 364.387179 157.832073 
L 364.495433 160.635018 
L 364.820196 158.071635 
L 364.92845 159.758767 
L 365.036704 158.172651 
L 365.144959 162.16292 
L 365.253213 162.085978 
L 365.361467 158.571526 
L 365.577976 160.379813 
L 365.68623 159.940472 
L 365.794484 164.42742 
L 366.010993 156.576166 
L 366.119247 163.309031 
L 366.227501 159.010781 
L 366.44401 163.873882 
L 366.552264 159.472735 
L 366.660518 160.992488 
L 366.768773 157.472873 
L 366.877027 160.431454 
L 366.985281 157.701034 
L 367.20179 165.303278 
L 367.310044 160.953276 
L 367.418298 163.872609 
L 367.634807 160.282004 
L 367.851315 161.069921 
L 367.95957 158.44086 
L 368.067824 159.36034 
L 368.284332 158.697693 
L 368.392587 162.370858 
L 368.500841 158.284832 
L 368.609095 161.5373 
L 368.717349 159.072745 
L 368.933858 160.244106 
L 369.150366 159.263402 
L 369.258621 160.424491 
L 369.366875 159.876065 
L 369.475129 161.304907 
L 369.583384 159.814904 
L 369.799892 163.544427 
L 370.341163 160.300177 
L 370.665926 166.866779 
L 370.77418 163.436211 
L 370.882435 170.363282 
L 371.207198 161.746092 
L 371.315452 163.364197 
L 371.423706 161.918778 
L 371.53196 164.931156 
L 371.640215 161.012445 
L 371.748469 163.308685 
L 371.964977 160.845285 
L 372.073232 161.648166 
L 372.181486 169.522475 
L 372.28974 161.829074 
L 372.397994 162.365533 
L 372.506249 165.673826 
L 372.614503 162.973036 
L 372.722757 163.103334 
L 372.831012 162.628972 
L 372.939266 163.302 
L 373.04752 161.44278 
L 373.155774 165.516953 
L 373.264029 161.858567 
L 373.372283 162.217811 
L 373.480537 160.681159 
L 373.588791 162.139581 
L 373.697046 162.039947 
L 373.8053 162.850129 
L 373.913554 161.133446 
L 374.021808 164.368387 
L 374.130063 162.289922 
L 374.238317 166.594164 
L 374.346571 163.791457 
L 374.56308 167.583018 
L 374.779588 161.594983 
L 374.887843 163.072883 
L 374.996097 163.060494 
L 375.212605 161.352188 
L 375.32086 161.407419 
L 375.537368 160.094457 
L 375.645622 167.690123 
L 375.753877 161.522915 
L 375.862131 162.774334 
L 375.970385 159.489607 
L 376.07864 160.977395 
L 376.186894 159.807452 
L 376.403402 161.468347 
L 376.619911 158.76025 
L 376.728165 160.58938 
L 376.836419 159.864089 
L 376.944674 160.993406 
L 377.052928 160.408105 
L 377.161182 165.247519 
L 377.269436 160.804903 
L 377.377691 164.147598 
L 377.485945 161.51151 
L 377.594199 167.185162 
L 377.702454 161.684581 
L 377.810708 161.725582 
L 378.027216 164.970369 
L 378.135471 163.014091 
L 378.243725 163.173326 
L 378.351979 164.840338 
L 378.460233 159.266257 
L 378.568488 166.725971 
L 378.784996 160.269117 
L 378.89325 164.977854 
L 379.218013 160.01303 
L 379.326268 162.215393 
L 379.434522 160.140917 
L 379.542776 160.71279 
L 379.65103 159.004726 
L 379.867539 168.105837 
L 379.975793 176.756942 
L 380.192302 160.35539 
L 380.40881 159.352593 
L 380.517064 158.618298 
L 380.733573 162.634682 
L 380.841827 166.633414 
L 381.058336 165.740134 
L 381.16659 162.853197 
L 381.274844 164.361343 
L 381.383099 161.413861 
L 381.491353 164.415218 
L 381.599607 164.391211 
L 381.707861 162.880093 
L 381.92437 164.09498 
L 382.032624 163.346271 
L 382.140878 168.405316 
L 382.249133 167.157005 
L 382.465641 162.788022 
L 382.573896 166.373411 
L 382.68215 163.312546 
L 382.790404 167.138529 
L 383.006913 163.896076 
L 383.115167 163.448436 
L 383.331675 169.33695 
L 383.43993 163.988614 
L 383.548184 164.47923 
L 383.656438 162.026107 
L 383.981201 165.94779 
L 384.089455 165.013278 
L 384.19771 162.373456 
L 384.305964 163.12737 
L 384.414218 166.685139 
L 384.522472 166.484927 
L 384.630727 167.053818 
L 384.847235 161.438628 
L 385.063744 166.294575 
L 385.280252 168.71355 
L 385.496761 163.126404 
L 385.605015 163.629528 
L 385.713269 160.583693 
L 385.929778 167.176857 
L 386.254541 160.973084 
L 386.362795 160.959965 
L 386.471049 161.346686 
L 386.579303 163.219765 
L 386.687558 162.975893 
L 386.795812 162.271683 
L 386.904066 163.552052 
L 387.120575 158.571909 
L 387.228829 158.974627 
L 387.337083 159.822693 
L 387.445338 162.74719 
L 387.661846 160.798682 
L 387.878355 157.454598 
L 387.986609 159.104318 
L 388.094863 158.896294 
L 388.311372 159.758234 
L 388.419626 158.606062 
L 388.52788 159.748984 
L 388.636134 157.633945 
L 388.744389 158.807712 
L 388.852643 157.382481 
L 388.960897 164.470418 
L 389.069152 159.439593 
L 389.28566 161.991067 
L 389.393914 159.657187 
L 389.502169 161.606289 
L 389.610423 160.498079 
L 389.718677 164.182588 
L 389.826931 161.222458 
L 390.04344 162.436157 
L 390.151694 158.795327 
L 390.368203 165.358826 
L 390.476457 165.238125 
L 390.584711 165.286527 
L 390.692966 161.514072 
L 391.017728 164.025985 
L 391.125983 167.243538 
L 391.234237 164.400015 
L 391.342491 165.512137 
L 391.450745 160.714099 
L 391.559 165.417179 
L 391.775508 162.417992 
L 391.883762 163.244799 
L 391.992017 159.999178 
L 392.100271 163.390446 
L 392.208525 161.794215 
L 392.31678 164.384586 
L 392.533288 160.52851 
L 392.641542 164.741586 
L 392.749797 161.626476 
L 392.858051 162.697467 
L 392.966305 162.47056 
L 393.182814 160.271199 
L 393.291068 165.623604 
L 393.399322 164.704782 
L 393.507576 160.069534 
L 393.724085 168.048945 
L 394.048848 161.665878 
L 394.157102 161.649362 
L 394.481865 165.096314 
L 394.806628 162.130725 
L 395.13139 166.270272 
L 395.456153 159.971929 
L 395.672662 161.951268 
L 395.780916 162.305458 
L 395.88917 160.325907 
L 395.997425 160.866022 
L 396.213933 160.309545 
L 396.322187 160.460697 
L 396.430442 162.525552 
L 396.64695 160.767462 
L 396.755204 160.787345 
L 396.863459 162.385213 
L 396.971713 161.957555 
L 397.079967 162.023822 
L 397.188222 159.630478 
L 397.40473 162.110361 
L 397.512984 160.679339 
L 397.729493 163.139762 
L 397.837747 162.892346 
L 397.946001 161.495906 
L 398.054256 162.248523 
L 398.16251 165.222432 
L 398.270764 164.616308 
L 398.379018 163.249918 
L 398.487273 164.891915 
L 398.487273 164.891915 
" clip-path="url(#paa019c9dd0)" style="fill: none; stroke: #1f77b4; stroke-width: 1.5; stroke-linecap: square"/>
   </g>
   <g id="patch_3">
    <path d="M 57.6 307.584 
L 57.6 41.472 
" style="fill: none; stroke: #000000; stroke-width: 0.8; stroke-linejoin: miter; stroke-linecap: square"/>
   </g>
   <g id="patch_4">
    <path d="M 414.72 307.584 
L 414.72 41.472 
" style="fill: none; stroke: #000000; stroke-width: 0.8; stroke-linejoin: miter; stroke-linecap: square"/>
   </g>
   <g id="patch_5">
    <path d="M 57.6 307.584 
L 414.72 307.584 
" style="fill: none; stroke: #000000; stroke-width: 0.8; stroke-linejoin: miter; stroke-linecap: square"/>
   </g>
   <g id="patch_6">
    <path d="M 57.6 41.472 
L 414.72 41.472 
" style="fill: none; stroke: #000000; stroke-width: 0.8; stroke-linejoin: miter; stroke-linecap: square"/>
   </g>
   <g id="text_15">
    <!-- Loss curve, seed=114514 -->
    <g transform="translate(158.21625 35.472) scale(0.12 -0.12)">
     <defs>
      <path id="DejaVuSans-20" transform="scale(0.015625)"/>
      <path id="DejaVuSans-63" d="M 3122 3366 
L 3122 2828 
Q 2878 2963 2633 3030 
Q 2388 3097 2138 3097 
Q 1578 3097 1268 2742 
Q 959 2388 959 1747 
Q 959 1106 1268 751 
Q 1578 397 2138 397 
Q 2388 397 2633 464 
Q 2878 531 3122 666 
L 3122 134 
Q 2881 22 2623 -34 
Q 2366 -91 2075 -91 
Q 1284 -91 818 406 
Q 353 903 353 1747 
Q 353 2603 823 3093 
Q 1294 3584 2113 3584 
Q 2378 3584 2631 3529 
Q 2884 3475 3122 3366 
z
" transform="scale(0.015625)"/>
      <path id="DejaVuSans-75" d="M 544 1381 
L 544 3500 
L 1119 3500 
L 1119 1403 
Q 1119 906 1312 657 
Q 1506 409 1894 409 
Q 2359 409 2629 706 
Q 2900 1003 2900 1516 
L 2900 3500 
L 3475 3500 
L 3475 0 
L 2900 0 
L 2900 538 
Q 2691 219 2414 64 
Q 2138 -91 1772 -91 
Q 1169 -91 856 284 
Q 544 659 544 1381 
z
M 1991 3584 
L 1991 3584 
z
" transform="scale(0.015625)"/>
      <path id="DejaVuSans-72" d="M 2631 2963 
Q 2534 3019 2420 3045 
Q 2306 3072 2169 3072 
Q 1681 3072 1420 2755 
Q 1159 2438 1159 1844 
L 1159 0 
L 581 0 
L 581 3500 
L 1159 3500 
L 1159 2956 
Q 1341 3275 1631 3429 
Q 1922 3584 2338 3584 
Q 2397 3584 2469 3576 
Q 2541 3569 2628 3553 
L 2631 2963 
z
" transform="scale(0.015625)"/>
      <path id="DejaVuSans-76" d="M 191 3500 
L 800 3500 
L 1894 563 
L 2988 3500 
L 3597 3500 
L 2284 0 
L 1503 0 
L 191 3500 
z
" transform="scale(0.015625)"/>
      <path id="DejaVuSans-2c" d="M 750 794 
L 1409 794 
L 1409 256 
L 897 -744 
L 494 -744 
L 750 256 
L 750 794 
z
" transform="scale(0.015625)"/>
      <path id="DejaVuSans-3d" d="M 678 2906 
L 4684 2906 
L 4684 2381 
L 678 2381 
L 678 2906 
z
M 678 1631 
L 4684 1631 
L 4684 1100 
L 678 1100 
L 678 1631 
z
" transform="scale(0.015625)"/>
      <path id="DejaVuSans-34" d="M 2419 4116 
L 825 1625 
L 2419 1625 
L 2419 4116 
z
M 2253 4666 
L 3047 4666 
L 3047 1625 
L 3713 1625 
L 3713 1100 
L 3047 1100 
L 3047 0 
L 2419 0 
L 2419 1100 
L 313 1100 
L 313 1709 
L 2253 4666 
z
" transform="scale(0.015625)"/>
     </defs>
     <use xlink:href="#DejaVuSans-4c"/>
     <use xlink:href="#DejaVuSans-6f" transform="translate(53.962891 0)"/>
     <use xlink:href="#DejaVuSans-73" transform="translate(115.144531 0)"/>
     <use xlink:href="#DejaVuSans-73" transform="translate(167.244141 0)"/>
     <use xlink:href="#DejaVuSans-20" transform="translate(219.34375 0)"/>
     <use xlink:href="#DejaVuSans-63" transform="translate(251.130859 0)"/>
     <use xlink:href="#DejaVuSans-75" transform="translate(306.111328 0)"/>
     <use xlink:href="#DejaVuSans-72" transform="translate(369.490234 0)"/>
     <use xlink:href="#DejaVuSans-76" transform="translate(410.603516 0)"/>
     <use xlink:href="#DejaVuSans-65" transform="translate(469.783203 0)"/>
     <use xlink:href="#DejaVuSans-2c" transform="translate(531.306641 0)"/>
     <use xlink:href="#DejaVuSans-20" transform="translate(563.09375 0)"/>
     <use xlink:href="#DejaVuSans-73" transform="translate(594.880859 0)"/>
     <use xlink:href="#DejaVuSans-65" transform="translate(646.980469 0)"/>
     <use xlink:href="#DejaVuSans-65" transform="translate(708.503906 0)"/>
     <use xlink:href="#DejaVuSans-64" transform="translate(770.027344 0)"/>
     <use xlink:href="#DejaVuSans-3d" transform="translate(833.503906 0)"/>
     <use xlink:href="#DejaVuSans-31" transform="translate(917.292969 0)"/>
     <use xlink:href="#DejaVuSans-31" transform="translate(980.916016 0)"/>
     <use xlink:href="#DejaVuSans-34" transform="translate(1044.539062 0)"/>
     <use xlink:href="#DejaVuSans-35" transform="translate(1108.162109 0)"/>
     <use xlink:href="#DejaVuSans-31" transform="translate(1171.785156 0)"/>
     <use xlink:href="#DejaVuSans-34" transform="translate(1235.408203 0)"/>
    </g>
   </g>
  </g>
 </g>
 <defs>
  <clipPath id="paa019c9dd0">
   <rect x="57.6" y="41.472" width="357.12" height="266.112"/>
  </clipPath>
 </defs>
</svg>
