<?xml version="1.0" encoding="utf-8" standalone="no"?>
<!DOCTYPE svg PUBLIC "-//W3C//DTD SVG 1.1//EN"
  "http://www.w3.org/Graphics/SVG/1.1/DTD/svg11.dtd">
<svg xmlns:xlink="http://www.w3.org/1999/xlink" width="460.8pt" height="345.6pt" viewBox="0 0 460.8 345.6" xmlns="http://www.w3.org/2000/svg" version="1.1">
 <metadata>
  <rdf:RDF xmlns:dc="http://purl.org/dc/elements/1.1/" xmlns:cc="http://creativecommons.org/ns#" xmlns:rdf="http://www.w3.org/1999/02/22-rdf-syntax-ns#">
   <cc:Work>
    <dc:type rdf:resource="http://purl.org/dc/dcmitype/StillImage"/>
    <dc:date>2024-10-23T15:42:13.657646</dc:date>
    <dc:format>image/svg+xml</dc:format>
    <dc:creator>
     <cc:Agent>
      <dc:title>Matplotlib v3.9.2, https://matplotlib.org/</dc:title>
     </cc:Agent>
    </dc:creator>
   </cc:Work>
  </rdf:RDF>
 </metadata>
 <defs>
  <style type="text/css">*{stroke-linejoin: round; stroke-linecap: butt}</style>
 </defs>
 <g id="figure_1">
  <g id="patch_1">
   <path d="M 0 345.6 
L 460.8 345.6 
L 460.8 0 
L 0 0 
z
" style="fill: #ffffff"/>
  </g>
  <g id="axes_1">
   <g id="patch_2">
    <path d="M 57.6 307.584 
L 414.72 307.584 
L 414.72 41.472 
L 57.6 41.472 
z
" style="fill: #ffffff"/>
   </g>
   <g id="matplotlib.axis_1">
    <g id="xtick_1">
     <g id="line2d_1">
      <defs>
       <path id="m3e5f75c489" d="M 0 0 
L 0 3.5 
" style="stroke: #000000; stroke-width: 0.8"/>
      </defs>
      <g>
       <use xlink:href="#m3e5f75c489" x="73.832727" y="307.584" style="stroke: #000000; stroke-width: 0.8"/>
      </g>
     </g>
     <g id="text_1">
      <!-- 0 -->
      <g transform="translate(71.078821 322.182437) scale(0.1 -0.1)">
       <defs>
        <path id="WenQuanYiMicroHei-30" d="M 3225 2291 
Q 3225 1738 3145 1300 
Q 3066 863 2889 559 
Q 2713 256 2434 96 
Q 2156 -63 1759 -63 
Q 1391 -63 1117 96 
Q 844 256 664 559 
Q 484 863 395 1300 
Q 306 1738 306 2291 
Q 306 2844 386 3281 
Q 466 3719 639 4020 
Q 813 4322 1089 4481 
Q 1366 4641 1759 4641 
Q 2131 4641 2406 4483 
Q 2681 4325 2862 4023 
Q 3044 3722 3134 3284 
Q 3225 2847 3225 2291 
z
M 884 2291 
Q 884 1822 931 1472 
Q 978 1122 1081 889 
Q 1184 656 1351 539 
Q 1519 422 1759 422 
Q 2000 422 2169 537 
Q 2338 653 2445 884 
Q 2553 1116 2601 1467 
Q 2650 1819 2650 2291 
Q 2650 2759 2601 3109 
Q 2553 3459 2445 3690 
Q 2338 3922 2169 4037 
Q 2000 4153 1759 4153 
Q 1519 4153 1351 4037 
Q 1184 3922 1081 3690 
Q 978 3459 931 3109 
Q 884 2759 884 2291 
z
" transform="scale(0.015625)"/>
       </defs>
       <use xlink:href="#WenQuanYiMicroHei-30"/>
      </g>
     </g>
    </g>
    <g id="xtick_2">
     <g id="line2d_2">
      <g>
       <use xlink:href="#m3e5f75c489" x="138.828632" y="307.584" style="stroke: #000000; stroke-width: 0.8"/>
      </g>
     </g>
     <g id="text_2">
      <!-- 200 -->
      <g transform="translate(130.566914 322.182437) scale(0.1 -0.1)">
       <defs>
        <path id="WenQuanYiMicroHei-32" d="M 3150 0 
L 300 0 
L 300 488 
L 1394 1678 
Q 1628 1931 1812 2140 
Q 1997 2350 2126 2550 
Q 2256 2750 2325 2951 
Q 2394 3153 2394 3391 
Q 2394 3575 2341 3715 
Q 2288 3856 2189 3954 
Q 2091 4053 1956 4103 
Q 1822 4153 1656 4153 
Q 1359 4153 1120 4033 
Q 881 3913 666 3725 
L 347 4097 
Q 472 4209 615 4307 
Q 759 4406 925 4478 
Q 1091 4550 1275 4592 
Q 1459 4634 1663 4634 
Q 1963 4634 2205 4550 
Q 2447 4466 2615 4308 
Q 2784 4150 2876 3923 
Q 2969 3697 2969 3413 
Q 2969 3147 2886 2906 
Q 2803 2666 2658 2433 
Q 2513 2200 2311 1965 
Q 2109 1731 1875 1478 
L 997 544 
L 997 519 
L 3150 519 
L 3150 0 
z
" transform="scale(0.015625)"/>
       </defs>
       <use xlink:href="#WenQuanYiMicroHei-32"/>
       <use xlink:href="#WenQuanYiMicroHei-30" x="55.078125"/>
       <use xlink:href="#WenQuanYiMicroHei-30" x="110.15625"/>
      </g>
     </g>
    </g>
    <g id="xtick_3">
     <g id="line2d_3">
      <g>
       <use xlink:href="#m3e5f75c489" x="203.824537" y="307.584" style="stroke: #000000; stroke-width: 0.8"/>
      </g>
     </g>
     <g id="text_3">
      <!-- 400 -->
      <g transform="translate(195.562819 322.182437) scale(0.1 -0.1)">
       <defs>
        <path id="WenQuanYiMicroHei-34" d="M 3397 1025 
L 2731 1025 
L 2731 0 
L 2181 0 
L 2181 1025 
L 72 1025 
L 72 1522 
L 2144 4594 
L 2731 4594 
L 2731 1544 
L 3397 1544 
L 3397 1025 
z
M 2181 1544 
L 2181 2656 
Q 2181 2831 2186 3023 
Q 2191 3216 2197 3398 
Q 2203 3581 2211 3740 
Q 2219 3900 2222 4006 
L 2194 4006 
Q 2172 3944 2139 3867 
Q 2106 3791 2067 3714 
Q 2028 3638 1987 3566 
Q 1947 3494 1913 3444 
L 628 1544 
L 2181 1544 
z
" transform="scale(0.015625)"/>
       </defs>
       <use xlink:href="#WenQuanYiMicroHei-34"/>
       <use xlink:href="#WenQuanYiMicroHei-30" x="55.078125"/>
       <use xlink:href="#WenQuanYiMicroHei-30" x="110.15625"/>
      </g>
     </g>
    </g>
    <g id="xtick_4">
     <g id="line2d_4">
      <g>
       <use xlink:href="#m3e5f75c489" x="268.820442" y="307.584" style="stroke: #000000; stroke-width: 0.8"/>
      </g>
     </g>
     <g id="text_4">
      <!-- 600 -->
      <g transform="translate(260.558724 322.182437) scale(0.1 -0.1)">
       <defs>
        <path id="WenQuanYiMicroHei-36" d="M 353 1953 
Q 353 2281 386 2606 
Q 419 2931 501 3229 
Q 584 3528 728 3784 
Q 872 4041 1094 4230 
Q 1316 4419 1625 4526 
Q 1934 4634 2350 4634 
Q 2409 4634 2481 4631 
Q 2553 4628 2626 4620 
Q 2700 4613 2767 4602 
Q 2834 4591 2888 4575 
L 2888 4091 
Q 2778 4128 2640 4147 
Q 2503 4166 2369 4166 
Q 2088 4166 1873 4098 
Q 1659 4031 1503 3909 
Q 1347 3788 1242 3619 
Q 1138 3450 1072 3245 
Q 1006 3041 975 2809 
Q 944 2578 934 2328 
L 972 2328 
Q 1034 2441 1123 2539 
Q 1213 2638 1331 2708 
Q 1450 2778 1598 2818 
Q 1747 2859 1931 2859 
Q 2228 2859 2468 2767 
Q 2709 2675 2878 2497 
Q 3047 2319 3139 2061 
Q 3231 1803 3231 1472 
Q 3231 1116 3134 831 
Q 3038 547 2856 348 
Q 2675 150 2419 43 
Q 2163 -63 1844 -63 
Q 1531 -63 1257 59 
Q 984 181 784 431 
Q 584 681 468 1059 
Q 353 1438 353 1953 
z
M 1838 416 
Q 2025 416 2179 480 
Q 2334 544 2446 673 
Q 2559 803 2620 1001 
Q 2681 1200 2681 1472 
Q 2681 1691 2629 1864 
Q 2578 2038 2475 2159 
Q 2372 2281 2217 2347 
Q 2063 2413 1856 2413 
Q 1647 2413 1473 2339 
Q 1300 2266 1178 2148 
Q 1056 2031 989 1881 
Q 922 1731 922 1581 
Q 922 1372 980 1164 
Q 1038 956 1152 790 
Q 1266 625 1437 520 
Q 1609 416 1838 416 
z
" transform="scale(0.015625)"/>
       </defs>
       <use xlink:href="#WenQuanYiMicroHei-36"/>
       <use xlink:href="#WenQuanYiMicroHei-30" x="55.078125"/>
       <use xlink:href="#WenQuanYiMicroHei-30" x="110.15625"/>
      </g>
     </g>
    </g>
    <g id="xtick_5">
     <g id="line2d_5">
      <g>
       <use xlink:href="#m3e5f75c489" x="333.816347" y="307.584" style="stroke: #000000; stroke-width: 0.8"/>
      </g>
     </g>
     <g id="text_5">
      <!-- 800 -->
      <g transform="translate(325.554629 322.182437) scale(0.1 -0.1)">
       <defs>
        <path id="WenQuanYiMicroHei-38" d="M 1766 4641 
Q 2028 4641 2261 4572 
Q 2494 4503 2670 4365 
Q 2847 4228 2950 4022 
Q 3053 3816 3053 3541 
Q 3053 3331 2990 3162 
Q 2928 2994 2818 2858 
Q 2709 2722 2559 2614 
Q 2409 2506 2234 2419 
Q 2416 2322 2589 2203 
Q 2763 2084 2898 1936 
Q 3034 1788 3117 1603 
Q 3200 1419 3200 1191 
Q 3200 903 3095 670 
Q 2991 438 2802 275 
Q 2613 113 2348 25 
Q 2084 -63 1766 -63 
Q 1422 -63 1155 21 
Q 888 106 705 264 
Q 522 422 426 650 
Q 331 878 331 1166 
Q 331 1400 401 1587 
Q 472 1775 590 1925 
Q 709 2075 871 2190 
Q 1034 2306 1216 2394 
Q 1063 2491 928 2605 
Q 794 2719 695 2859 
Q 597 3000 539 3170 
Q 481 3341 481 3547 
Q 481 3819 586 4023 
Q 691 4228 869 4365 
Q 1047 4503 1280 4572 
Q 1513 4641 1766 4641 
z
M 891 1159 
Q 891 994 941 855 
Q 991 716 1097 617 
Q 1203 519 1365 464 
Q 1528 409 1753 409 
Q 1972 409 2139 464 
Q 2306 519 2418 620 
Q 2531 722 2587 865 
Q 2644 1009 2644 1184 
Q 2644 1347 2583 1478 
Q 2522 1609 2408 1721 
Q 2294 1834 2134 1934 
Q 1975 2034 1778 2131 
L 1684 2175 
Q 1291 1988 1091 1745 
Q 891 1503 891 1159 
z
M 1759 4166 
Q 1428 4166 1233 4000 
Q 1038 3834 1038 3519 
Q 1038 3341 1092 3212 
Q 1147 3084 1244 2984 
Q 1341 2884 1477 2804 
Q 1613 2725 1772 2650 
Q 1922 2719 2055 2800 
Q 2188 2881 2286 2984 
Q 2384 3088 2440 3219 
Q 2497 3350 2497 3519 
Q 2497 3834 2300 4000 
Q 2103 4166 1759 4166 
z
" transform="scale(0.015625)"/>
       </defs>
       <use xlink:href="#WenQuanYiMicroHei-38"/>
       <use xlink:href="#WenQuanYiMicroHei-30" x="55.078125"/>
       <use xlink:href="#WenQuanYiMicroHei-30" x="110.15625"/>
      </g>
     </g>
    </g>
    <g id="xtick_6">
     <g id="line2d_6">
      <g>
       <use xlink:href="#m3e5f75c489" x="398.812252" y="307.584" style="stroke: #000000; stroke-width: 0.8"/>
      </g>
     </g>
     <g id="text_6">
      <!-- 1000 -->
      <g transform="translate(387.796627 322.182437) scale(0.1 -0.1)">
       <defs>
        <path id="WenQuanYiMicroHei-31" d="M 2222 0 
L 1672 0 
L 1672 2853 
Q 1672 2988 1673 3141 
Q 1675 3294 1679 3445 
Q 1684 3597 1689 3736 
Q 1694 3875 1697 3981 
Q 1644 3925 1603 3884 
Q 1563 3844 1520 3806 
Q 1478 3769 1431 3726 
Q 1384 3684 1319 3628 
L 856 3250 
L 556 3634 
L 1753 4569 
L 2222 4569 
L 2222 0 
z
" transform="scale(0.015625)"/>
       </defs>
       <use xlink:href="#WenQuanYiMicroHei-31"/>
       <use xlink:href="#WenQuanYiMicroHei-30" x="55.078125"/>
       <use xlink:href="#WenQuanYiMicroHei-30" x="110.15625"/>
       <use xlink:href="#WenQuanYiMicroHei-30" x="165.234375"/>
      </g>
     </g>
    </g>
    <g id="text_7">
     <!-- 迭代次数 -->
     <g transform="translate(216.16 336.184) scale(0.1 -0.1)">
      <defs>
       <path id="WenQuanYiMicroHei-8fed" d="M 750 5025 
Q 1250 4700 1650 4250 
L 1300 3825 
Q 875 4325 400 4650 
L 750 5025 
z
M 325 2950 
L 1575 2950 
L 1575 550 
Q 1875 325 2337 225 
Q 2800 125 4350 125 
L 6100 125 
L 5850 -425 
L 3850 -425 
Q 2750 -425 2250 -275 
Q 1750 -125 1375 200 
L 650 -525 
L 300 0 
Q 700 225 1075 475 
L 1075 2475 
L 325 2475 
L 325 2950 
z
M 2900 5000 
L 3375 4825 
L 3175 4200 
L 3875 4200 
L 3875 5175 
L 4375 5175 
L 4375 4200 
L 5700 4200 
L 5700 3725 
L 4375 3725 
L 4375 3275 
Q 4375 3025 4325 2800 
L 5900 2800 
L 5900 2325 
L 4200 2325 
Q 4175 2250 4150 2200 
Q 5100 1550 5775 700 
L 5425 275 
Q 4700 1200 3925 1775 
Q 3325 900 2275 350 
L 2000 800 
Q 3250 1475 3650 2325 
L 2050 2325 
L 2050 2800 
L 3825 2800 
Q 3875 3025 3875 3275 
L 3875 3725 
L 3000 3725 
Q 2800 3300 2575 2925 
L 2125 3200 
Q 2625 4000 2900 5000 
z
" transform="scale(0.015625)"/>
       <path id="WenQuanYiMicroHei-4ee3" d="M 1775 5175 
L 2275 5025 
Q 2000 4300 1625 3600 
L 1625 -575 
L 1125 -575 
L 1125 2800 
Q 825 2400 500 2050 
L 250 2550 
Q 1325 3800 1775 5175 
z
M 5925 3675 
L 5975 3200 
L 3775 2925 
Q 4000 1450 4500 750 
Q 5000 50 5200 50 
Q 5400 50 5500 225 
Q 5600 400 5650 925 
L 6100 775 
Q 6025 -25 5837 -275 
Q 5650 -525 5275 -525 
Q 4775 -525 4175 250 
Q 3575 1025 3275 2850 
L 2150 2725 
L 2075 3200 
L 3200 3350 
Q 3075 4150 3000 5175 
L 3500 5175 
Q 3600 4150 3700 3400 
L 5925 3675 
z
M 4525 5075 
Q 4975 4625 5275 4125 
L 4850 3875 
Q 4575 4375 4100 4800 
L 4525 5075 
z
" transform="scale(0.015625)"/>
       <path id="WenQuanYiMicroHei-6b21" d="M 900 4875 
Q 1500 4425 2000 3800 
L 1625 3350 
Q 1125 4025 550 4500 
L 900 4875 
z
M 1625 2375 
L 2075 2075 
Q 1625 800 850 -400 
L 350 -25 
Q 1150 1100 1625 2375 
z
M 3100 5225 
L 3575 5100 
Q 3475 4675 3325 4250 
L 5700 4250 
L 5700 3800 
Q 5425 3225 5050 2650 
L 4625 2875 
Q 4925 3325 5125 3775 
L 3175 3775 
Q 2850 3000 2425 2450 
L 2050 2850 
Q 2750 3850 3100 5225 
z
M 3675 3375 
L 4150 3300 
Q 4150 2800 4075 2375 
Q 4400 1450 4850 875 
Q 5300 300 6125 -150 
L 5675 -575 
Q 4425 225 3900 1550 
Q 3525 250 2050 -575 
L 1675 -175 
Q 2750 425 3187 1175 
Q 3625 1925 3675 3375 
z
" transform="scale(0.015625)"/>
       <path id="WenQuanYiMicroHei-6570" d="M 4275 4125 
L 5950 4125 
L 5950 3650 
L 5675 3650 
Q 5525 1900 4975 1000 
Q 5425 400 6125 -100 
L 5750 -575 
Q 5175 -100 4675 550 
Q 4175 -125 3450 -600 
L 3100 -150 
Q 3850 300 4350 1025 
Q 4000 1625 3700 2375 
L 3500 1950 
L 3100 2250 
Q 3725 3575 4000 5175 
L 4500 5025 
Q 4400 4550 4275 4125 
z
M 5175 3650 
L 4150 3650 
Q 4125 3525 3975 3075 
Q 4275 2175 4650 1525 
Q 4975 2225 5125 3225 
L 5125 3250 
L 5175 3650 
z
M 450 4100 
L 1750 4100 
L 1750 5150 
L 2200 5150 
L 2200 4100 
L 3400 4100 
L 3400 3675 
L 2200 3675 
L 2200 2525 
L 1750 2525 
L 1750 3300 
Q 1325 2700 750 2325 
L 425 2725 
Q 1050 3050 1525 3675 
L 450 3675 
L 450 4100 
z
M 1050 5050 
Q 1250 4750 1375 4375 
L 975 4175 
Q 850 4550 675 4875 
L 1050 5050 
z
M 2900 5050 
L 3275 4875 
Q 3050 4450 2800 4225 
L 2475 4525 
Q 2725 4750 2900 5050 
z
M 2725 3450 
Q 3000 3150 3175 2825 
L 2800 2600 
Q 2650 2950 2375 3250 
L 2725 3450 
z
M 425 2000 
L 1400 2000 
Q 1500 2200 1575 2400 
L 2050 2350 
L 1900 2000 
L 3025 2000 
L 3025 1575 
Q 2725 925 2300 475 
Q 2725 225 3075 0 
L 2775 -450 
Q 2450 -175 1925 125 
Q 1400 -325 525 -600 
L 375 -175 
Q 1025 25 1500 350 
Q 1100 575 625 800 
Q 925 1200 1150 1575 
L 425 1575 
L 425 2000 
z
M 1675 1575 
Q 1500 1250 1300 1000 
L 1900 700 
Q 2275 1100 2500 1575 
L 1675 1575 
z
" transform="scale(0.015625)"/>
      </defs>
      <use xlink:href="#WenQuanYiMicroHei-8fed"/>
      <use xlink:href="#WenQuanYiMicroHei-4ee3" x="100"/>
      <use xlink:href="#WenQuanYiMicroHei-6b21" x="200"/>
      <use xlink:href="#WenQuanYiMicroHei-6570" x="300"/>
     </g>
    </g>
   </g>
   <g id="matplotlib.axis_2">
    <g id="ytick_1">
     <g id="line2d_7">
      <defs>
       <path id="m92f5997a2a" d="M 0 0 
L -3.5 0 
" style="stroke: #000000; stroke-width: 0.8"/>
      </defs>
      <g>
       <use xlink:href="#m92f5997a2a" x="57.6" y="307.584" style="stroke: #000000; stroke-width: 0.8"/>
      </g>
     </g>
     <g id="text_8">
      <!-- 2 -->
      <g transform="translate(45.092188 311.383219) scale(0.1 -0.1)">
       <use xlink:href="#WenQuanYiMicroHei-32"/>
      </g>
     </g>
    </g>
    <g id="ytick_2">
     <g id="line2d_8">
      <g>
       <use xlink:href="#m92f5997a2a" x="57.6" y="254.3616" style="stroke: #000000; stroke-width: 0.8"/>
      </g>
     </g>
     <g id="text_9">
      <!-- 4 -->
      <g transform="translate(45.092188 258.160819) scale(0.1 -0.1)">
       <use xlink:href="#WenQuanYiMicroHei-34"/>
      </g>
     </g>
    </g>
    <g id="ytick_3">
     <g id="line2d_9">
      <g>
       <use xlink:href="#m92f5997a2a" x="57.6" y="201.1392" style="stroke: #000000; stroke-width: 0.8"/>
      </g>
     </g>
     <g id="text_10">
      <!-- 6 -->
      <g transform="translate(45.092188 204.938419) scale(0.1 -0.1)">
       <use xlink:href="#WenQuanYiMicroHei-36"/>
      </g>
     </g>
    </g>
    <g id="ytick_4">
     <g id="line2d_10">
      <g>
       <use xlink:href="#m92f5997a2a" x="57.6" y="147.9168" style="stroke: #000000; stroke-width: 0.8"/>
      </g>
     </g>
     <g id="text_11">
      <!-- 8 -->
      <g transform="translate(45.092188 151.716019) scale(0.1 -0.1)">
       <use xlink:href="#WenQuanYiMicroHei-38"/>
      </g>
     </g>
    </g>
    <g id="ytick_5">
     <g id="line2d_11">
      <g>
       <use xlink:href="#m92f5997a2a" x="57.6" y="94.6944" style="stroke: #000000; stroke-width: 0.8"/>
      </g>
     </g>
     <g id="text_12">
      <!-- 10 -->
      <g transform="translate(39.584375 98.493619) scale(0.1 -0.1)">
       <use xlink:href="#WenQuanYiMicroHei-31"/>
       <use xlink:href="#WenQuanYiMicroHei-30" x="55.078125"/>
      </g>
     </g>
    </g>
    <g id="ytick_6">
     <g id="line2d_12">
      <g>
       <use xlink:href="#m92f5997a2a" x="57.6" y="41.472" style="stroke: #000000; stroke-width: 0.8"/>
      </g>
     </g>
     <g id="text_13">
      <!-- 12 -->
      <g transform="translate(39.584375 45.271219) scale(0.1 -0.1)">
       <use xlink:href="#WenQuanYiMicroHei-31"/>
       <use xlink:href="#WenQuanYiMicroHei-32" x="55.078125"/>
      </g>
     </g>
    </g>
    <g id="text_14">
     <!-- 目标函数 -->
     <g transform="translate(33.18125 194.528) rotate(-90) scale(0.1 -0.1)">
      <defs>
       <path id="WenQuanYiMicroHei-76ee" d="M 5275 4900 
L 5275 -575 
L 4775 -575 
L 4775 -25 
L 1550 -25 
L 1550 -575 
L 1050 -575 
L 1050 4900 
L 5275 4900 
z
M 1550 3400 
L 4775 3400 
L 4775 4425 
L 1550 4425 
L 1550 3400 
z
M 1550 1925 
L 4775 1925 
L 4775 2950 
L 1550 2950 
L 1550 1925 
z
M 1550 450 
L 4775 450 
L 4775 1450 
L 1550 1450 
L 1550 450 
z
" transform="scale(0.015625)"/>
       <path id="WenQuanYiMicroHei-6807" d="M 425 4025 
L 1225 4025 
L 1225 5175 
L 1700 5175 
L 1700 4025 
L 2450 4025 
L 2450 3550 
L 1700 3550 
L 1700 3250 
Q 2175 2675 2525 2125 
L 2200 1650 
Q 1950 2175 1700 2575 
L 1700 -575 
L 1225 -575 
L 1225 2150 
Q 950 1325 575 775 
L 225 1125 
Q 950 2200 1175 3550 
L 425 3550 
L 425 4025 
z
M 2850 4850 
L 5550 4850 
L 5550 4375 
L 2850 4375 
L 2850 4850 
z
M 2475 3425 
L 5975 3425 
L 5975 2950 
L 4450 2950 
L 4450 50 
Q 4450 -300 4287 -450 
Q 4125 -600 3550 -600 
Q 3350 -600 3175 -525 
L 3075 0 
Q 3325 -100 3550 -100 
Q 3750 -100 3837 -37 
Q 3925 25 3925 150 
L 3925 2950 
L 2475 2950 
L 2475 3425 
z
M 5250 2325 
Q 5775 1400 6100 350 
L 5625 75 
Q 5325 1125 4800 2050 
L 5250 2325 
z
M 3000 2300 
L 3450 2075 
Q 3025 750 2525 50 
L 2125 400 
Q 2650 1250 3000 2300 
z
" transform="scale(0.015625)"/>
       <path id="WenQuanYiMicroHei-51fd" d="M 5425 3550 
L 5925 3550 
L 5925 -550 
L 5425 -550 
L 5425 -200 
L 475 -200 
L 475 3575 
L 975 3575 
L 975 275 
L 5425 275 
L 5425 3550 
z
M 1250 4925 
L 5200 4925 
L 5200 4400 
Q 4450 3925 3550 3500 
L 3550 2850 
Q 4275 3100 4800 3525 
L 5100 3125 
Q 4450 2675 3550 2325 
L 3550 2225 
Q 4500 1725 5175 1250 
L 4875 850 
Q 4225 1350 3550 1725 
L 3550 900 
Q 3550 675 3412 550 
Q 3275 425 3025 425 
Q 2725 425 2425 450 
L 2375 950 
Q 2600 900 2900 900 
Q 3050 900 3050 1000 
L 3050 1975 
Q 2150 1300 1450 950 
L 1200 1450 
Q 2350 1975 3050 2525 
L 3050 3775 
Q 3775 4125 4350 4450 
L 1250 4450 
L 1250 4925 
z
M 1625 3575 
Q 2225 3200 2700 2700 
L 2375 2300 
Q 1875 2850 1325 3250 
L 1625 3575 
z
" transform="scale(0.015625)"/>
      </defs>
      <use xlink:href="#WenQuanYiMicroHei-76ee"/>
      <use xlink:href="#WenQuanYiMicroHei-6807" x="100"/>
      <use xlink:href="#WenQuanYiMicroHei-51fd" x="200"/>
      <use xlink:href="#WenQuanYiMicroHei-6570" x="300"/>
     </g>
    </g>
   </g>
   <g id="line2d_13">
    <path d="M 73.832727 177.259004 
L 73.940708 -1 
L 73.940708 -1 
" clip-path="url(#pd4faee3426)" style="fill: none; stroke: #1f77b4; stroke-width: 1.5; stroke-linecap: square"/>
   </g>
   <g id="line2d_14">
    <path d="M 73.832727 177.259004 
L 74.157707 171.205118 
L 74.482686 101.348422 
L 74.550386 -1 
L 74.550386 -1 
" clip-path="url(#pd4faee3426)" style="fill: none; stroke: #ff7f0e; stroke-width: 1.5; stroke-linecap: square"/>
   </g>
   <g id="line2d_15">
    <path d="M 73.832727 177.259004 
L 74.482686 181.611128 
L 74.807666 182.993576 
L 75.132645 183.81415 
L 75.457625 183.996133 
L 75.782604 183.414467 
L 76.107584 181.885767 
L 76.432563 179.153658 
L 76.757543 174.86828 
L 77.082523 168.558309 
L 77.407502 159.593281 
L 77.732482 147.133206 
L 78.057461 130.061451 
L 78.382441 106.895525 
L 79.0324 33.772745 
L 79.234111 -1 
L 79.234111 -1 
" clip-path="url(#pd4faee3426)" style="fill: none; stroke: #2ca02c; stroke-width: 1.5; stroke-linecap: square"/>
   </g>
   <g id="line2d_16">
    <path d="M 73.832727 177.259004 
L 74.482686 183.360005 
L 75.457625 189.975236 
L 76.757543 196.747473 
L 78.382441 203.809222 
L 80.332318 211.226744 
L 82.607174 218.912185 
L 84.882031 225.76933 
L 87.156888 231.919248 
L 89.431744 237.449756 
L 91.706601 242.43309 
L 93.981458 246.931011 
L 96.581294 251.545485 
L 99.18113 255.664885 
L 101.780966 259.348856 
L 104.380803 262.649035 
L 106.980639 265.610287 
L 109.905455 268.585062 
L 112.83027 271.228503 
L 115.755086 273.582201 
L 119.004881 275.901123 
L 122.254676 277.948921 
L 125.829451 279.931358 
L 129.729206 281.817565 
L 133.62896 283.458467 
L 137.853694 285.00228 
L 142.403407 286.436503 
L 147.603079 287.83562 
L 153.127731 289.093132 
L 159.302342 290.274263 
L 166.451892 291.408545 
L 174.57638 292.463328 
L 184.000786 293.45283 
L 195.05009 294.37934 
L 208.049271 295.240317 
L 223.973268 296.062419 
L 243.472039 296.834638 
L 267.520524 297.552763 
L 297.093661 298.204414 
L 334.141327 298.788524 
L 380.938378 299.294092 
L 398.487273 299.438034 
L 398.487273 299.438034 
" clip-path="url(#pd4faee3426)" style="fill: none; stroke: #d62728; stroke-width: 1.5; stroke-linecap: square"/>
   </g>
   <g id="line2d_17">
    <path d="M 73.832727 177.259004 
L 74.157707 180.912066 
L 74.807666 184.978509 
L 76.107584 191.213521 
L 77.732482 197.653872 
L 79.682359 204.314258 
L 81.957215 211.205722 
L 84.232072 217.423955 
L 86.831908 223.862677 
L 89.431744 229.6861 
L 92.031581 234.967023 
L 94.631417 239.764741 
L 97.231253 244.13006 
L 100.156069 248.579207 
L 103.080885 252.592291 
L 106.0057 256.217443 
L 108.930516 259.496819 
L 111.855332 262.467467 
L 115.105127 265.445686 
L 118.354922 268.122314 
L 121.929697 270.759151 
L 125.504472 273.112368 
L 129.404226 275.396448 
L 133.30398 277.422605 
L 137.528714 279.364945 
L 142.078428 281.203 
L 146.95312 282.922589 
L 152.152793 284.515307 
L 157.677445 285.977813 
L 163.852056 287.379347 
L 170.676626 288.693584 
L 178.151155 289.904542 
L 186.600622 291.045261 
L 196.350008 292.12775 
L 207.399312 293.125025 
L 220.398493 294.067894 
L 235.672531 294.947202 
L 254.196364 295.782705 
L 276.619951 296.564194 
L 304.24321 297.296776 
L 338.366061 297.971482 
L 380.938378 298.581679 
L 398.487273 298.780286 
L 398.487273 298.780286 
" clip-path="url(#pd4faee3426)" style="fill: none; stroke: #9467bd; stroke-width: 1.5; stroke-linecap: square"/>
   </g>
   <g id="line2d_18">
    <path d="M 73.832727 177.259004 
L 74.157707 180.758127 
L 75.457625 186.239895 
L 76.757543 190.832844 
L 78.382441 195.805692 
L 80.332318 201.070218 
L 82.607174 206.593839 
L 85.207011 212.33936 
L 88.131826 218.242952 
L 91.056642 223.647257 
L 93.981458 228.612303 
L 97.231253 233.668023 
L 100.481048 238.287264 
L 103.730844 242.513561 
L 106.980639 246.385093 
L 110.230434 249.935658 
L 113.805209 253.506371 
L 117.379984 256.760639 
L 120.954758 259.730011 
L 124.854513 262.677273 
L 128.754267 265.351088 
L 132.979001 267.972153 
L 137.203735 270.337709 
L 141.753448 272.631637 
L 146.628141 274.831547 
L 151.827813 276.920176 
L 157.352465 278.885186 
L 163.202097 280.7188 
L 169.376708 282.417321 
L 176.201278 284.053321 
L 183.350827 285.537552 
L 191.150336 286.93258 
L 199.924783 288.271055 
L 209.674169 289.525212 
L 220.398493 290.678556 
L 232.747715 291.776853 
L 246.721835 292.792406 
L 262.970811 293.746824 
L 282.144603 294.645517 
L 305.218149 295.496846 
L 333.166388 296.297458 
L 367.614218 297.051949 
L 398.487273 297.57925 
L 398.487273 297.57925 
" clip-path="url(#pd4faee3426)" style="fill: none; stroke: #8c564b; stroke-width: 1.5; stroke-linecap: square"/>
   </g>
   <g id="line2d_19">
    <path d="M 73.832727 177.259004 
L 74.157707 180.097971 
L 75.132645 183.167446 
L 76.757543 187.430983 
L 78.70742 191.857951 
L 80.982277 196.397524 
L 83.582113 201.047478 
L 86.506929 205.81532 
L 89.756724 210.695497 
L 93.331499 215.663362 
L 97.231253 220.679272 
L 101.131007 225.324298 
L 105.030762 229.635283 
L 109.255495 233.9628 
L 113.480229 237.965175 
L 117.704963 241.670685 
L 122.254676 245.358108 
L 126.80439 248.758654 
L 131.679083 252.112415 
L 136.553776 255.193693 
L 141.753448 258.208107 
L 146.95312 260.96792 
L 152.477772 263.648262 
L 158.327404 266.231436 
L 164.502015 268.703251 
L 171.001605 271.052898 
L 177.826175 273.272764 
L 184.975725 275.35817 
L 192.450254 277.307081 
L 200.574742 279.190843 
L 209.349189 280.986966 
L 218.773595 282.67898 
L 228.847961 284.256089 
L 239.897265 285.753558 
L 251.921507 287.152738 
L 265.245667 288.472324 
L 279.869746 289.694043 
L 296.443702 290.850241 
L 315.292514 291.934868 
L 336.741163 292.941763 
L 361.764586 293.889109 
L 391.337723 294.78047 
L 398.487273 294.967188 
L 398.487273 294.967188 
" clip-path="url(#pd4faee3426)" style="fill: none; stroke: #e377c2; stroke-width: 1.5; stroke-linecap: square"/>
   </g>
   <g id="line2d_20">
    <path d="M 73.832727 177.259004 
L 74.157707 178.931597 
L 74.807666 180.619115 
L 75.782604 182.208756 
L 78.057461 185.358302 
L 80.657297 188.572385 
L 83.582113 191.832 
L 86.831908 195.128847 
L 90.731663 198.757025 
L 95.281376 202.661103 
L 100.156069 206.551271 
L 105.680721 210.674282 
L 111.530352 214.766251 
L 117.704963 218.821432 
L 124.204554 222.828131 
L 131.029124 226.77214 
L 138.178673 230.638836 
L 145.328223 234.255583 
L 152.802752 237.790137 
L 160.60226 241.230356 
L 168.726749 244.56577 
L 177.176216 247.787595 
L 185.950663 250.8887 
L 195.05009 253.863541 
L 204.474496 256.708077 
L 214.223882 259.419672 
L 224.623227 262.076564 
L 235.347551 264.585686 
L 246.721835 267.015645 
L 258.746077 269.351656 
L 271.420278 271.58207 
L 284.744439 273.698244 
L 299.043538 275.738256 
L 313.992596 277.645603 
L 330.241572 279.490073 
L 347.465487 281.21905 
L 365.98932 282.854563 
L 386.138051 284.408335 
L 398.487273 285.260052 
L 398.487273 285.260052 
" clip-path="url(#pd4faee3426)" style="fill: none; stroke: #7f7f7f; stroke-width: 1.5; stroke-linecap: square"/>
   </g>
   <g id="patch_3">
    <path d="M 57.6 307.584 
L 57.6 41.472 
" style="fill: none; stroke: #000000; stroke-width: 0.8; stroke-linejoin: miter; stroke-linecap: square"/>
   </g>
   <g id="patch_4">
    <path d="M 414.72 307.584 
L 414.72 41.472 
" style="fill: none; stroke: #000000; stroke-width: 0.8; stroke-linejoin: miter; stroke-linecap: square"/>
   </g>
   <g id="patch_5">
    <path d="M 57.6 307.584 
L 414.72 307.584 
" style="fill: none; stroke: #000000; stroke-width: 0.8; stroke-linejoin: miter; stroke-linecap: square"/>
   </g>
   <g id="patch_6">
    <path d="M 57.6 41.472 
L 414.72 41.472 
" style="fill: none; stroke: #000000; stroke-width: 0.8; stroke-linejoin: miter; stroke-linecap: square"/>
   </g>
   <g id="text_15">
    <!-- 梯度下降 -->
    <g transform="translate(212.16 35.472) scale(0.12 -0.12)">
     <defs>
      <path id="WenQuanYiMicroHei-68af" d="M 425 4025 
L 1225 4025 
L 1225 5175 
L 1700 5175 
L 1700 4025 
L 2450 4025 
L 2450 3550 
L 1700 3550 
L 1700 3250 
Q 2175 2675 2525 2125 
L 2200 1650 
Q 1950 2175 1700 2575 
L 1700 -575 
L 1225 -575 
L 1225 2150 
Q 950 1325 575 775 
L 225 1125 
Q 950 2200 1175 3550 
L 425 3550 
L 425 4025 
z
M 3650 5175 
Q 3875 4725 4000 4200 
L 4450 4200 
Q 4700 4675 4900 5200 
L 5425 5025 
Q 5225 4575 5000 4200 
L 5825 4200 
L 5825 2625 
L 4525 2625 
L 4525 1875 
L 6075 1875 
Q 6000 525 5837 200 
Q 5675 -125 5325 -125 
Q 5075 -125 4775 -50 
L 4675 450 
Q 5000 375 5225 375 
Q 5375 375 5437 537 
Q 5500 700 5525 1425 
L 4525 1425 
L 4525 -600 
L 4050 -600 
L 4050 1250 
Q 3550 150 2625 -475 
L 2300 -100 
Q 3225 550 3675 1425 
L 2675 1425 
L 2850 3075 
L 4050 3075 
L 4050 3750 
L 2825 3750 
L 2825 4200 
L 3500 4200 
Q 3375 4650 3200 5025 
L 3650 5175 
z
M 4525 3075 
L 5325 3075 
L 5325 3750 
L 4525 3750 
L 4525 3075 
z
M 3325 2625 
L 3250 1875 
L 4050 1875 
L 4050 2625 
L 3325 2625 
z
" transform="scale(0.015625)"/>
      <path id="WenQuanYiMicroHei-5ea6" d="M 3450 5200 
Q 3600 4975 3700 4675 
L 5925 4675 
L 5925 4225 
L 1375 4225 
L 1375 2275 
Q 1375 675 725 -575 
L 250 -275 
Q 600 450 737 1037 
Q 875 1625 875 2450 
L 875 4675 
L 3150 4675 
Q 3075 4875 2950 5050 
L 3450 5200 
z
M 1500 3575 
L 2450 3575 
L 2450 4050 
L 2925 4050 
L 2925 3575 
L 4450 3575 
L 4450 4050 
L 4925 4050 
L 4925 3575 
L 5875 3575 
L 5875 3150 
L 4925 3150 
L 4925 2150 
L 2450 2150 
L 2450 3150 
L 1500 3150 
L 1500 3575 
z
M 4450 2575 
L 4450 3150 
L 2925 3150 
L 2925 2575 
L 4450 2575 
z
M 1750 1725 
L 5475 1725 
L 5475 1350 
Q 5050 725 4250 275 
Q 4925 0 6100 -50 
L 5950 -550 
Q 4525 -500 3650 -25 
Q 2725 -400 1525 -600 
L 1225 -150 
Q 2350 0 3125 275 
Q 2550 650 2075 1300 
L 1750 1300 
L 1750 1725 
z
M 2700 1300 
Q 3175 775 3700 525 
Q 4350 850 4750 1300 
L 2700 1300 
z
" transform="scale(0.015625)"/>
      <path id="WenQuanYiMicroHei-4e0b" d="M 2750 4350 
L 450 4350 
L 450 4825 
L 5975 4825 
L 5975 4350 
L 3250 4350 
L 3250 2950 
Q 4475 2225 5325 1525 
L 4975 1050 
Q 4150 1800 3250 2375 
L 3250 -575 
L 2750 -575 
L 2750 4350 
z
" transform="scale(0.015625)"/>
      <path id="WenQuanYiMicroHei-964d" d="M 2375 4950 
L 2375 4500 
L 1775 3000 
Q 2300 2300 2300 1625 
Q 2300 1125 2112 875 
Q 1925 625 1550 625 
Q 1400 625 1200 675 
L 1100 1175 
Q 1375 1100 1550 1100 
Q 1700 1100 1775 1237 
Q 1850 1375 1850 1625 
Q 1850 2275 1300 2925 
L 1875 4500 
L 950 4500 
L 950 -575 
L 500 -575 
L 500 4950 
L 2375 4950 
z
M 3500 5200 
L 4000 5075 
Q 3950 4900 3850 4700 
L 5575 4700 
L 5575 4325 
Q 5225 3700 4775 3300 
Q 5375 3075 6075 2925 
L 5850 2450 
Q 5000 2625 4300 3000 
Q 3600 2575 2700 2400 
L 2425 2825 
Q 3250 3000 3825 3275 
Q 3500 3500 3250 3800 
Q 3025 3525 2750 3300 
L 2400 3650 
Q 3150 4250 3500 5200 
z
M 3525 4150 
Q 3850 3800 4275 3550 
Q 4725 3875 4975 4300 
L 3625 4300 
L 3525 4150 
z
M 2975 1650 
L 3425 1425 
L 3125 875 
L 4325 875 
L 4325 1750 
L 2675 1750 
L 2675 2225 
L 4325 2225 
L 4325 2650 
L 4825 2650 
L 4825 2225 
L 5800 2225 
L 5800 1750 
L 4825 1750 
L 4825 875 
L 5925 875 
L 5925 425 
L 4825 425 
L 4825 -575 
L 4325 -575 
L 4325 425 
L 2700 425 
L 2525 825 
L 2975 1650 
z
" transform="scale(0.015625)"/>
     </defs>
     <use xlink:href="#WenQuanYiMicroHei-68af"/>
     <use xlink:href="#WenQuanYiMicroHei-5ea6" x="100"/>
     <use xlink:href="#WenQuanYiMicroHei-4e0b" x="200"/>
     <use xlink:href="#WenQuanYiMicroHei-964d" x="300"/>
    </g>
   </g>
   <g id="legend_1">
    <g id="patch_7">
     <path d="M 198.42 169.4845 
L 407.72 169.4845 
Q 409.72 169.4845 409.72 167.4845 
L 409.72 48.472 
Q 409.72 46.472 407.72 46.472 
L 198.42 46.472 
Q 196.42 46.472 196.42 48.472 
L 196.42 167.4845 
Q 196.42 169.4845 198.42 169.4845 
z
" style="fill: #ffffff; opacity: 0.8; stroke: #cccccc; stroke-linejoin: miter"/>
    </g>
    <g id="line2d_21">
     <path d="M 200.42 54.570438 
L 210.42 54.570438 
L 220.42 54.570438 
" style="fill: none; stroke: #1f77b4; stroke-width: 1.5; stroke-linecap: square"/>
    </g>
    <g id="text_16">
     <!-- $\eta$=0.5, loss=nan -->
     <g transform="translate(228.42 58.070438) scale(0.1 -0.1)">
      <defs>
       <path id="DejaVuSans-Oblique-3b7" d="M 3703 2113 
L 3034 -1331 
L 2459 -1331 
L 3125 2094 
Q 3222 2591 3075 2838 
Q 2931 3084 2544 3084 
Q 2078 3084 1750 2788 
Q 1425 2491 1325 1978 
L 941 0 
L 363 0 
L 1044 3500 
L 1622 3500 
L 1516 2956 
Q 1781 3272 2094 3428 
Q 2403 3584 2769 3584 
Q 3372 3584 3609 3213 
Q 3844 2838 3703 2113 
z
" transform="scale(0.015625)"/>
       <path id="WenQuanYiMicroHei-3d" d="M 319 2663 
L 319 3128 
L 3206 3128 
L 3206 2663 
L 319 2663 
z
M 319 1381 
L 319 1850 
L 3206 1850 
L 3206 1381 
L 319 1381 
z
" transform="scale(0.015625)"/>
       <path id="WenQuanYiMicroHei-2e" d="M 459 347 
Q 459 466 490 548 
Q 522 631 575 682 
Q 628 734 700 757 
Q 772 781 856 781 
Q 938 781 1011 757 
Q 1084 734 1137 682 
Q 1191 631 1222 548 
Q 1253 466 1253 347 
Q 1253 231 1222 148 
Q 1191 66 1137 12 
Q 1084 -41 1011 -66 
Q 938 -91 856 -91 
Q 772 -91 700 -66 
Q 628 -41 575 12 
Q 522 66 490 148 
Q 459 231 459 347 
z
" transform="scale(0.015625)"/>
       <path id="WenQuanYiMicroHei-35" d="M 1703 2803 
Q 2013 2803 2280 2717 
Q 2547 2631 2745 2462 
Q 2944 2294 3056 2044 
Q 3169 1794 3169 1466 
Q 3169 1109 3062 825 
Q 2956 541 2747 344 
Q 2538 147 2230 42 
Q 1922 -63 1522 -63 
Q 1363 -63 1208 -47 
Q 1053 -31 911 -1 
Q 769 28 641 75 
Q 513 122 409 184 
L 409 722 
Q 513 650 652 594 
Q 791 538 944 500 
Q 1097 463 1251 442 
Q 1406 422 1538 422 
Q 1784 422 1978 480 
Q 2172 538 2306 659 
Q 2441 781 2512 965 
Q 2584 1150 2584 1403 
Q 2584 1850 2309 2086 
Q 2034 2322 1509 2322 
Q 1425 2322 1326 2314 
Q 1228 2306 1129 2293 
Q 1031 2281 942 2267 
Q 853 2253 788 2241 
L 506 2419 
L 678 4569 
L 2834 4569 
L 2834 4050 
L 1172 4050 
L 1050 2741 
Q 1150 2759 1314 2781 
Q 1478 2803 1703 2803 
z
" transform="scale(0.015625)"/>
       <path id="WenQuanYiMicroHei-2c" d="M 1131 744 
L 1178 672 
Q 1134 503 1073 312 
Q 1013 122 939 -72 
Q 866 -266 786 -458 
Q 706 -650 628 -825 
L 197 -825 
Q 244 -634 289 -428 
Q 334 -222 376 -17 
Q 419 188 453 383 
Q 488 578 513 744 
L 1131 744 
z
" transform="scale(0.015625)"/>
       <path id="WenQuanYiMicroHei-20" transform="scale(0.015625)"/>
       <path id="WenQuanYiMicroHei-6c" d="M 1113 0 
L 544 0 
L 544 4863 
L 1113 4863 
L 1113 0 
z
" transform="scale(0.015625)"/>
       <path id="WenQuanYiMicroHei-6f" d="M 3341 1722 
Q 3341 1294 3236 961 
Q 3131 628 2936 401 
Q 2741 175 2462 56 
Q 2184 -63 1838 -63 
Q 1516 -63 1244 56 
Q 972 175 773 401 
Q 575 628 464 961 
Q 353 1294 353 1722 
Q 353 2147 458 2476 
Q 563 2806 756 3032 
Q 950 3259 1229 3376 
Q 1509 3494 1856 3494 
Q 2178 3494 2450 3376 
Q 2722 3259 2920 3032 
Q 3119 2806 3230 2476 
Q 3341 2147 3341 1722 
z
M 941 1722 
Q 941 1069 1155 739 
Q 1369 409 1850 409 
Q 2331 409 2542 739 
Q 2753 1069 2753 1722 
Q 2753 2375 2539 2698 
Q 2325 3022 1844 3022 
Q 1363 3022 1152 2698 
Q 941 2375 941 1722 
z
" transform="scale(0.015625)"/>
       <path id="WenQuanYiMicroHei-73" d="M 2597 941 
Q 2597 691 2506 503 
Q 2416 316 2245 189 
Q 2075 63 1834 0 
Q 1594 -63 1294 -63 
Q 953 -63 709 -8 
Q 466 47 281 153 
L 281 672 
Q 378 622 497 573 
Q 616 525 747 487 
Q 878 450 1017 426 
Q 1156 403 1294 403 
Q 1497 403 1639 437 
Q 1781 472 1870 536 
Q 1959 600 2000 692 
Q 2041 784 2041 897 
Q 2041 994 2009 1072 
Q 1978 1150 1895 1226 
Q 1813 1303 1669 1381 
Q 1525 1459 1300 1556 
Q 1075 1653 895 1747 
Q 716 1841 591 1956 
Q 466 2072 398 2223 
Q 331 2375 331 2584 
Q 331 2803 417 2973 
Q 503 3144 659 3259 
Q 816 3375 1034 3434 
Q 1253 3494 1522 3494 
Q 1825 3494 2076 3428 
Q 2328 3363 2553 3256 
L 2356 2797 
Q 2153 2888 1939 2955 
Q 1725 3022 1503 3022 
Q 1184 3022 1031 2917 
Q 878 2813 878 2619 
Q 878 2509 914 2428 
Q 950 2347 1037 2275 
Q 1125 2203 1272 2129 
Q 1419 2056 1638 1966 
Q 1863 1872 2039 1778 
Q 2216 1684 2341 1567 
Q 2466 1450 2531 1300 
Q 2597 1150 2597 941 
z
" transform="scale(0.015625)"/>
       <path id="WenQuanYiMicroHei-6e" d="M 2688 0 
L 2688 2209 
Q 2688 2616 2523 2819 
Q 2359 3022 2009 3022 
Q 1756 3022 1584 2940 
Q 1413 2859 1308 2700 
Q 1203 2541 1158 2309 
Q 1113 2078 1113 1778 
L 1113 0 
L 544 0 
L 544 3431 
L 1006 3431 
L 1088 2969 
L 1119 2969 
Q 1197 3103 1305 3201 
Q 1413 3300 1541 3365 
Q 1669 3431 1812 3462 
Q 1956 3494 2106 3494 
Q 2678 3494 2967 3195 
Q 3256 2897 3256 2241 
L 3256 0 
L 2688 0 
z
" transform="scale(0.015625)"/>
       <path id="WenQuanYiMicroHei-61" d="M 2478 0 
L 2363 475 
L 2338 475 
Q 2234 334 2131 232 
Q 2028 131 1906 65 
Q 1784 0 1634 -31 
Q 1484 -63 1288 -63 
Q 1072 -63 890 -2 
Q 709 59 576 186 
Q 444 313 369 505 
Q 294 697 294 959 
Q 294 1472 655 1747 
Q 1016 2022 1753 2047 
L 2328 2069 
L 2328 2284 
Q 2328 2494 2283 2634 
Q 2238 2775 2152 2861 
Q 2066 2947 1939 2984 
Q 1813 3022 1650 3022 
Q 1391 3022 1167 2947 
Q 944 2872 738 2766 
L 538 3194 
Q 769 3319 1053 3406 
Q 1338 3494 1650 3494 
Q 1969 3494 2201 3430 
Q 2434 3366 2586 3227 
Q 2738 3088 2813 2872 
Q 2888 2656 2888 2350 
L 2888 0 
L 2478 0 
z
M 1434 397 
Q 1625 397 1787 456 
Q 1950 516 2069 636 
Q 2188 756 2255 939 
Q 2322 1122 2322 1369 
L 2322 1678 
L 1875 1656 
Q 1594 1644 1403 1594 
Q 1213 1544 1098 1455 
Q 984 1366 934 1239 
Q 884 1113 884 953 
Q 884 666 1036 531 
Q 1188 397 1434 397 
z
" transform="scale(0.015625)"/>
      </defs>
      <use xlink:href="#DejaVuSans-Oblique-3b7" transform="translate(0 0.015625)"/>
      <use xlink:href="#WenQuanYiMicroHei-3d" transform="translate(63.378906 0.015625)"/>
      <use xlink:href="#WenQuanYiMicroHei-30" transform="translate(118.457031 0.015625)"/>
      <use xlink:href="#WenQuanYiMicroHei-2e" transform="translate(173.535156 0.015625)"/>
      <use xlink:href="#WenQuanYiMicroHei-35" transform="translate(200.341797 0.015625)"/>
      <use xlink:href="#WenQuanYiMicroHei-2c" transform="translate(255.419922 0.015625)"/>
      <use xlink:href="#WenQuanYiMicroHei-20" transform="translate(280.419922 0.015625)"/>
      <use xlink:href="#WenQuanYiMicroHei-6c" transform="translate(306.396484 0.015625)"/>
      <use xlink:href="#WenQuanYiMicroHei-6f" transform="translate(332.275391 0.015625)"/>
      <use xlink:href="#WenQuanYiMicroHei-73" transform="translate(389.990234 0.015625)"/>
      <use xlink:href="#WenQuanYiMicroHei-73" transform="translate(435.107422 0.015625)"/>
      <use xlink:href="#WenQuanYiMicroHei-3d" transform="translate(480.224609 0.015625)"/>
      <use xlink:href="#WenQuanYiMicroHei-6e" transform="translate(535.302734 0.015625)"/>
      <use xlink:href="#WenQuanYiMicroHei-61" transform="translate(594.189453 0.015625)"/>
      <use xlink:href="#WenQuanYiMicroHei-6e" transform="translate(647.265625 0.015625)"/>
     </g>
    </g>
    <g id="line2d_22">
     <path d="M 200.42 69.572 
L 210.42 69.572 
L 220.42 69.572 
" style="fill: none; stroke: #ff7f0e; stroke-width: 1.5; stroke-linecap: square"/>
    </g>
    <g id="text_17">
     <!-- $\eta$=0.1, loss=nan -->
     <g transform="translate(228.42 73.072) scale(0.1 -0.1)">
      <use xlink:href="#DejaVuSans-Oblique-3b7" transform="translate(0 0.015625)"/>
      <use xlink:href="#WenQuanYiMicroHei-3d" transform="translate(63.378906 0.015625)"/>
      <use xlink:href="#WenQuanYiMicroHei-30" transform="translate(118.457031 0.015625)"/>
      <use xlink:href="#WenQuanYiMicroHei-2e" transform="translate(173.535156 0.015625)"/>
      <use xlink:href="#WenQuanYiMicroHei-31" transform="translate(200.341797 0.015625)"/>
      <use xlink:href="#WenQuanYiMicroHei-2c" transform="translate(255.419922 0.015625)"/>
      <use xlink:href="#WenQuanYiMicroHei-20" transform="translate(280.419922 0.015625)"/>
      <use xlink:href="#WenQuanYiMicroHei-6c" transform="translate(306.396484 0.015625)"/>
      <use xlink:href="#WenQuanYiMicroHei-6f" transform="translate(332.275391 0.015625)"/>
      <use xlink:href="#WenQuanYiMicroHei-73" transform="translate(389.990234 0.015625)"/>
      <use xlink:href="#WenQuanYiMicroHei-73" transform="translate(435.107422 0.015625)"/>
      <use xlink:href="#WenQuanYiMicroHei-3d" transform="translate(480.224609 0.015625)"/>
      <use xlink:href="#WenQuanYiMicroHei-6e" transform="translate(535.302734 0.015625)"/>
      <use xlink:href="#WenQuanYiMicroHei-61" transform="translate(594.189453 0.015625)"/>
      <use xlink:href="#WenQuanYiMicroHei-6e" transform="translate(647.265625 0.015625)"/>
     </g>
    </g>
    <g id="line2d_23">
     <path d="M 200.42 84.573563 
L 210.42 84.573563 
L 220.42 84.573563 
" style="fill: none; stroke: #2ca02c; stroke-width: 1.5; stroke-linecap: square"/>
    </g>
    <g id="text_18">
     <!-- $\eta$=0.06, loss=1.136553175146402e+121 -->
     <g transform="translate(228.42 88.073563) scale(0.1 -0.1)">
      <defs>
       <path id="WenQuanYiMicroHei-33" d="M 3003 3500 
Q 3003 3272 2931 3084 
Q 2859 2897 2729 2759 
Q 2600 2622 2419 2533 
Q 2238 2444 2016 2406 
L 2016 2388 
Q 2569 2319 2856 2036 
Q 3144 1753 3144 1300 
Q 3144 1000 3042 750 
Q 2941 500 2734 319 
Q 2528 138 2212 37 
Q 1897 -63 1466 -63 
Q 1125 -63 823 -9 
Q 522 44 256 184 
L 256 716 
Q 528 572 845 494 
Q 1163 416 1453 416 
Q 1741 416 1950 478 
Q 2159 541 2295 656 
Q 2431 772 2495 940 
Q 2559 1109 2559 1319 
Q 2559 1531 2476 1682 
Q 2394 1834 2241 1932 
Q 2088 2031 1867 2078 
Q 1647 2125 1369 2125 
L 953 2125 
L 953 2597 
L 1369 2597 
Q 1622 2597 1819 2659 
Q 2016 2722 2148 2837 
Q 2281 2953 2350 3112 
Q 2419 3272 2419 3463 
Q 2419 3625 2362 3753 
Q 2306 3881 2203 3970 
Q 2100 4059 1956 4106 
Q 1813 4153 1638 4153 
Q 1303 4153 1048 4048 
Q 794 3944 563 3775 
L 275 4166 
Q 394 4263 539 4347 
Q 684 4431 856 4495 
Q 1028 4559 1223 4596 
Q 1419 4634 1638 4634 
Q 1975 4634 2229 4550 
Q 2484 4466 2656 4314 
Q 2828 4163 2915 3955 
Q 3003 3747 3003 3500 
z
" transform="scale(0.015625)"/>
       <path id="WenQuanYiMicroHei-37" d="M 878 0 
L 2638 4050 
L 281 4050 
L 281 4569 
L 3219 4569 
L 3219 4116 
L 1484 0 
L 878 0 
z
" transform="scale(0.015625)"/>
       <path id="WenQuanYiMicroHei-65" d="M 1900 -63 
Q 1556 -63 1272 53 
Q 988 169 783 391 
Q 578 613 465 941 
Q 353 1269 353 1691 
Q 353 2116 456 2450 
Q 559 2784 746 3017 
Q 934 3250 1195 3372 
Q 1456 3494 1772 3494 
Q 2081 3494 2328 3383 
Q 2575 3272 2747 3070 
Q 2919 2869 3011 2586 
Q 3103 2303 3103 1959 
L 3103 1606 
L 941 1606 
Q 956 1003 1195 718 
Q 1434 434 1906 434 
Q 2066 434 2202 450 
Q 2338 466 2464 495 
Q 2591 525 2709 570 
Q 2828 616 2950 672 
L 2950 166 
Q 2825 106 2704 62 
Q 2584 19 2457 -9 
Q 2331 -38 2195 -50 
Q 2059 -63 1900 -63 
z
M 1759 3022 
Q 1403 3022 1195 2778 
Q 988 2534 953 2069 
L 2491 2069 
Q 2491 2281 2448 2457 
Q 2406 2634 2317 2759 
Q 2228 2884 2090 2953 
Q 1953 3022 1759 3022 
z
" transform="scale(0.015625)"/>
       <path id="WenQuanYiMicroHei-2b" d="M 1528 2022 
L 319 2022 
L 319 2491 
L 1528 2491 
L 1528 3706 
L 1997 3706 
L 1997 2491 
L 3206 2491 
L 3206 2022 
L 1997 2022 
L 1997 819 
L 1528 819 
L 1528 2022 
z
" transform="scale(0.015625)"/>
      </defs>
      <use xlink:href="#DejaVuSans-Oblique-3b7" transform="translate(0 0.015625)"/>
      <use xlink:href="#WenQuanYiMicroHei-3d" transform="translate(63.378906 0.015625)"/>
      <use xlink:href="#WenQuanYiMicroHei-30" transform="translate(118.457031 0.015625)"/>
      <use xlink:href="#WenQuanYiMicroHei-2e" transform="translate(173.535156 0.015625)"/>
      <use xlink:href="#WenQuanYiMicroHei-30" transform="translate(200.341797 0.015625)"/>
      <use xlink:href="#WenQuanYiMicroHei-36" transform="translate(255.419922 0.015625)"/>
      <use xlink:href="#WenQuanYiMicroHei-2c" transform="translate(310.498047 0.015625)"/>
      <use xlink:href="#WenQuanYiMicroHei-20" transform="translate(335.498047 0.015625)"/>
      <use xlink:href="#WenQuanYiMicroHei-6c" transform="translate(361.474609 0.015625)"/>
      <use xlink:href="#WenQuanYiMicroHei-6f" transform="translate(387.353516 0.015625)"/>
      <use xlink:href="#WenQuanYiMicroHei-73" transform="translate(445.068359 0.015625)"/>
      <use xlink:href="#WenQuanYiMicroHei-73" transform="translate(490.185547 0.015625)"/>
      <use xlink:href="#WenQuanYiMicroHei-3d" transform="translate(535.302734 0.015625)"/>
      <use xlink:href="#WenQuanYiMicroHei-31" transform="translate(590.380859 0.015625)"/>
      <use xlink:href="#WenQuanYiMicroHei-2e" transform="translate(645.458984 0.015625)"/>
      <use xlink:href="#WenQuanYiMicroHei-31" transform="translate(672.265625 0.015625)"/>
      <use xlink:href="#WenQuanYiMicroHei-33" transform="translate(727.34375 0.015625)"/>
      <use xlink:href="#WenQuanYiMicroHei-36" transform="translate(782.421875 0.015625)"/>
      <use xlink:href="#WenQuanYiMicroHei-35" transform="translate(837.5 0.015625)"/>
      <use xlink:href="#WenQuanYiMicroHei-35" transform="translate(892.578125 0.015625)"/>
      <use xlink:href="#WenQuanYiMicroHei-33" transform="translate(947.65625 0.015625)"/>
      <use xlink:href="#WenQuanYiMicroHei-31" transform="translate(1002.734375 0.015625)"/>
      <use xlink:href="#WenQuanYiMicroHei-37" transform="translate(1057.8125 0.015625)"/>
      <use xlink:href="#WenQuanYiMicroHei-35" transform="translate(1112.890625 0.015625)"/>
      <use xlink:href="#WenQuanYiMicroHei-31" transform="translate(1167.96875 0.015625)"/>
      <use xlink:href="#WenQuanYiMicroHei-34" transform="translate(1223.046875 0.015625)"/>
      <use xlink:href="#WenQuanYiMicroHei-36" transform="translate(1278.125 0.015625)"/>
      <use xlink:href="#WenQuanYiMicroHei-34" transform="translate(1333.203125 0.015625)"/>
      <use xlink:href="#WenQuanYiMicroHei-30" transform="translate(1388.28125 0.015625)"/>
      <use xlink:href="#WenQuanYiMicroHei-32" transform="translate(1443.359375 0.015625)"/>
      <use xlink:href="#WenQuanYiMicroHei-65" transform="translate(1498.4375 0.015625)"/>
      <use xlink:href="#WenQuanYiMicroHei-2b" transform="translate(1551.953125 0.015625)"/>
      <use xlink:href="#WenQuanYiMicroHei-31" transform="translate(1607.03125 0.015625)"/>
      <use xlink:href="#WenQuanYiMicroHei-32" transform="translate(1662.109375 0.015625)"/>
      <use xlink:href="#WenQuanYiMicroHei-31" transform="translate(1717.1875 0.015625)"/>
     </g>
    </g>
    <g id="line2d_24">
     <path d="M 200.42 99.575125 
L 210.42 99.575125 
L 220.42 99.575125 
" style="fill: none; stroke: #d62728; stroke-width: 1.5; stroke-linecap: square"/>
    </g>
    <g id="text_19">
     <!-- $\eta$=0.05, loss=2.3061104508948476 -->
     <g transform="translate(228.42 103.075125) scale(0.1 -0.1)">
      <defs>
       <path id="WenQuanYiMicroHei-39" d="M 3213 2619 
Q 3213 2291 3180 1964 
Q 3147 1638 3064 1341 
Q 2981 1044 2837 786 
Q 2694 528 2472 340 
Q 2250 153 1940 45 
Q 1631 -63 1216 -63 
Q 1156 -63 1084 -59 
Q 1013 -56 941 -48 
Q 869 -41 800 -31 
Q 731 -22 678 -6 
L 678 481 
Q 788 441 925 422 
Q 1063 403 1197 403 
Q 1619 403 1891 550 
Q 2163 697 2322 948 
Q 2481 1200 2548 1534 
Q 2616 1869 2631 2241 
L 2591 2241 
Q 2528 2128 2440 2031 
Q 2353 1934 2234 1862 
Q 2116 1791 1966 1750 
Q 1816 1709 1631 1709 
Q 1334 1709 1093 1801 
Q 853 1894 684 2072 
Q 516 2250 423 2508 
Q 331 2766 331 3097 
Q 331 3453 429 3739 
Q 528 4025 708 4223 
Q 888 4422 1145 4528 
Q 1403 4634 1722 4634 
Q 2038 4634 2309 4512 
Q 2581 4391 2781 4141 
Q 2981 3891 3097 3511 
Q 3213 3131 3213 2619 
z
M 1728 4153 
Q 1541 4153 1386 4090 
Q 1231 4028 1118 3897 
Q 1006 3766 945 3567 
Q 884 3369 884 3097 
Q 884 2878 936 2704 
Q 988 2531 1091 2409 
Q 1194 2288 1348 2222 
Q 1503 2156 1709 2156 
Q 1922 2156 2094 2229 
Q 2266 2303 2387 2420 
Q 2509 2538 2576 2688 
Q 2644 2838 2644 2988 
Q 2644 3197 2586 3405 
Q 2528 3613 2414 3780 
Q 2300 3947 2128 4050 
Q 1956 4153 1728 4153 
z
" transform="scale(0.015625)"/>
      </defs>
      <use xlink:href="#DejaVuSans-Oblique-3b7" transform="translate(0 0.015625)"/>
      <use xlink:href="#WenQuanYiMicroHei-3d" transform="translate(63.378906 0.015625)"/>
      <use xlink:href="#WenQuanYiMicroHei-30" transform="translate(118.457031 0.015625)"/>
      <use xlink:href="#WenQuanYiMicroHei-2e" transform="translate(173.535156 0.015625)"/>
      <use xlink:href="#WenQuanYiMicroHei-30" transform="translate(200.341797 0.015625)"/>
      <use xlink:href="#WenQuanYiMicroHei-35" transform="translate(255.419922 0.015625)"/>
      <use xlink:href="#WenQuanYiMicroHei-2c" transform="translate(310.498047 0.015625)"/>
      <use xlink:href="#WenQuanYiMicroHei-20" transform="translate(335.498047 0.015625)"/>
      <use xlink:href="#WenQuanYiMicroHei-6c" transform="translate(361.474609 0.015625)"/>
      <use xlink:href="#WenQuanYiMicroHei-6f" transform="translate(387.353516 0.015625)"/>
      <use xlink:href="#WenQuanYiMicroHei-73" transform="translate(445.068359 0.015625)"/>
      <use xlink:href="#WenQuanYiMicroHei-73" transform="translate(490.185547 0.015625)"/>
      <use xlink:href="#WenQuanYiMicroHei-3d" transform="translate(535.302734 0.015625)"/>
      <use xlink:href="#WenQuanYiMicroHei-32" transform="translate(590.380859 0.015625)"/>
      <use xlink:href="#WenQuanYiMicroHei-2e" transform="translate(645.458984 0.015625)"/>
      <use xlink:href="#WenQuanYiMicroHei-33" transform="translate(672.265625 0.015625)"/>
      <use xlink:href="#WenQuanYiMicroHei-30" transform="translate(727.34375 0.015625)"/>
      <use xlink:href="#WenQuanYiMicroHei-36" transform="translate(782.421875 0.015625)"/>
      <use xlink:href="#WenQuanYiMicroHei-31" transform="translate(837.5 0.015625)"/>
      <use xlink:href="#WenQuanYiMicroHei-31" transform="translate(892.578125 0.015625)"/>
      <use xlink:href="#WenQuanYiMicroHei-30" transform="translate(947.65625 0.015625)"/>
      <use xlink:href="#WenQuanYiMicroHei-34" transform="translate(1002.734375 0.015625)"/>
      <use xlink:href="#WenQuanYiMicroHei-35" transform="translate(1057.8125 0.015625)"/>
      <use xlink:href="#WenQuanYiMicroHei-30" transform="translate(1112.890625 0.015625)"/>
      <use xlink:href="#WenQuanYiMicroHei-38" transform="translate(1167.96875 0.015625)"/>
      <use xlink:href="#WenQuanYiMicroHei-39" transform="translate(1223.046875 0.015625)"/>
      <use xlink:href="#WenQuanYiMicroHei-34" transform="translate(1278.125 0.015625)"/>
      <use xlink:href="#WenQuanYiMicroHei-38" transform="translate(1333.203125 0.015625)"/>
      <use xlink:href="#WenQuanYiMicroHei-34" transform="translate(1388.28125 0.015625)"/>
      <use xlink:href="#WenQuanYiMicroHei-37" transform="translate(1443.359375 0.015625)"/>
      <use xlink:href="#WenQuanYiMicroHei-36" transform="translate(1498.4375 0.015625)"/>
     </g>
    </g>
    <g id="line2d_25">
     <path d="M 200.42 114.576688 
L 210.42 114.576688 
L 220.42 114.576688 
" style="fill: none; stroke: #9467bd; stroke-width: 1.5; stroke-linecap: square"/>
    </g>
    <g id="text_20">
     <!-- $\eta$=0.04, loss=2.3308274073098008 -->
     <g transform="translate(228.42 118.076688) scale(0.1 -0.1)">
      <use xlink:href="#DejaVuSans-Oblique-3b7" transform="translate(0 0.015625)"/>
      <use xlink:href="#WenQuanYiMicroHei-3d" transform="translate(63.378906 0.015625)"/>
      <use xlink:href="#WenQuanYiMicroHei-30" transform="translate(118.457031 0.015625)"/>
      <use xlink:href="#WenQuanYiMicroHei-2e" transform="translate(173.535156 0.015625)"/>
      <use xlink:href="#WenQuanYiMicroHei-30" transform="translate(200.341797 0.015625)"/>
      <use xlink:href="#WenQuanYiMicroHei-34" transform="translate(255.419922 0.015625)"/>
      <use xlink:href="#WenQuanYiMicroHei-2c" transform="translate(310.498047 0.015625)"/>
      <use xlink:href="#WenQuanYiMicroHei-20" transform="translate(335.498047 0.015625)"/>
      <use xlink:href="#WenQuanYiMicroHei-6c" transform="translate(361.474609 0.015625)"/>
      <use xlink:href="#WenQuanYiMicroHei-6f" transform="translate(387.353516 0.015625)"/>
      <use xlink:href="#WenQuanYiMicroHei-73" transform="translate(445.068359 0.015625)"/>
      <use xlink:href="#WenQuanYiMicroHei-73" transform="translate(490.185547 0.015625)"/>
      <use xlink:href="#WenQuanYiMicroHei-3d" transform="translate(535.302734 0.015625)"/>
      <use xlink:href="#WenQuanYiMicroHei-32" transform="translate(590.380859 0.015625)"/>
      <use xlink:href="#WenQuanYiMicroHei-2e" transform="translate(645.458984 0.015625)"/>
      <use xlink:href="#WenQuanYiMicroHei-33" transform="translate(672.265625 0.015625)"/>
      <use xlink:href="#WenQuanYiMicroHei-33" transform="translate(727.34375 0.015625)"/>
      <use xlink:href="#WenQuanYiMicroHei-30" transform="translate(782.421875 0.015625)"/>
      <use xlink:href="#WenQuanYiMicroHei-38" transform="translate(837.5 0.015625)"/>
      <use xlink:href="#WenQuanYiMicroHei-32" transform="translate(892.578125 0.015625)"/>
      <use xlink:href="#WenQuanYiMicroHei-37" transform="translate(947.65625 0.015625)"/>
      <use xlink:href="#WenQuanYiMicroHei-34" transform="translate(1002.734375 0.015625)"/>
      <use xlink:href="#WenQuanYiMicroHei-30" transform="translate(1057.8125 0.015625)"/>
      <use xlink:href="#WenQuanYiMicroHei-37" transform="translate(1112.890625 0.015625)"/>
      <use xlink:href="#WenQuanYiMicroHei-33" transform="translate(1167.96875 0.015625)"/>
      <use xlink:href="#WenQuanYiMicroHei-30" transform="translate(1223.046875 0.015625)"/>
      <use xlink:href="#WenQuanYiMicroHei-39" transform="translate(1278.125 0.015625)"/>
      <use xlink:href="#WenQuanYiMicroHei-38" transform="translate(1333.203125 0.015625)"/>
      <use xlink:href="#WenQuanYiMicroHei-30" transform="translate(1388.28125 0.015625)"/>
      <use xlink:href="#WenQuanYiMicroHei-30" transform="translate(1443.359375 0.015625)"/>
      <use xlink:href="#WenQuanYiMicroHei-38" transform="translate(1498.4375 0.015625)"/>
     </g>
    </g>
    <g id="line2d_26">
     <path d="M 200.42 129.57825 
L 210.42 129.57825 
L 220.42 129.57825 
" style="fill: none; stroke: #8c564b; stroke-width: 1.5; stroke-linecap: square"/>
    </g>
    <g id="text_21">
     <!-- $\eta$=0.03, loss=2.375960116167571 -->
     <g transform="translate(228.42 133.07825) scale(0.1 -0.1)">
      <use xlink:href="#DejaVuSans-Oblique-3b7" transform="translate(0 0.015625)"/>
      <use xlink:href="#WenQuanYiMicroHei-3d" transform="translate(63.378906 0.015625)"/>
      <use xlink:href="#WenQuanYiMicroHei-30" transform="translate(118.457031 0.015625)"/>
      <use xlink:href="#WenQuanYiMicroHei-2e" transform="translate(173.535156 0.015625)"/>
      <use xlink:href="#WenQuanYiMicroHei-30" transform="translate(200.341797 0.015625)"/>
      <use xlink:href="#WenQuanYiMicroHei-33" transform="translate(255.419922 0.015625)"/>
      <use xlink:href="#WenQuanYiMicroHei-2c" transform="translate(310.498047 0.015625)"/>
      <use xlink:href="#WenQuanYiMicroHei-20" transform="translate(335.498047 0.015625)"/>
      <use xlink:href="#WenQuanYiMicroHei-6c" transform="translate(361.474609 0.015625)"/>
      <use xlink:href="#WenQuanYiMicroHei-6f" transform="translate(387.353516 0.015625)"/>
      <use xlink:href="#WenQuanYiMicroHei-73" transform="translate(445.068359 0.015625)"/>
      <use xlink:href="#WenQuanYiMicroHei-73" transform="translate(490.185547 0.015625)"/>
      <use xlink:href="#WenQuanYiMicroHei-3d" transform="translate(535.302734 0.015625)"/>
      <use xlink:href="#WenQuanYiMicroHei-32" transform="translate(590.380859 0.015625)"/>
      <use xlink:href="#WenQuanYiMicroHei-2e" transform="translate(645.458984 0.015625)"/>
      <use xlink:href="#WenQuanYiMicroHei-33" transform="translate(672.265625 0.015625)"/>
      <use xlink:href="#WenQuanYiMicroHei-37" transform="translate(727.34375 0.015625)"/>
      <use xlink:href="#WenQuanYiMicroHei-35" transform="translate(782.421875 0.015625)"/>
      <use xlink:href="#WenQuanYiMicroHei-39" transform="translate(837.5 0.015625)"/>
      <use xlink:href="#WenQuanYiMicroHei-36" transform="translate(892.578125 0.015625)"/>
      <use xlink:href="#WenQuanYiMicroHei-30" transform="translate(947.65625 0.015625)"/>
      <use xlink:href="#WenQuanYiMicroHei-31" transform="translate(1002.734375 0.015625)"/>
      <use xlink:href="#WenQuanYiMicroHei-31" transform="translate(1057.8125 0.015625)"/>
      <use xlink:href="#WenQuanYiMicroHei-36" transform="translate(1112.890625 0.015625)"/>
      <use xlink:href="#WenQuanYiMicroHei-31" transform="translate(1167.96875 0.015625)"/>
      <use xlink:href="#WenQuanYiMicroHei-36" transform="translate(1223.046875 0.015625)"/>
      <use xlink:href="#WenQuanYiMicroHei-37" transform="translate(1278.125 0.015625)"/>
      <use xlink:href="#WenQuanYiMicroHei-35" transform="translate(1333.203125 0.015625)"/>
      <use xlink:href="#WenQuanYiMicroHei-37" transform="translate(1388.28125 0.015625)"/>
      <use xlink:href="#WenQuanYiMicroHei-31" transform="translate(1443.359375 0.015625)"/>
     </g>
    </g>
    <g id="line2d_27">
     <path d="M 200.42 144.579813 
L 210.42 144.579813 
L 220.42 144.579813 
" style="fill: none; stroke: #e377c2; stroke-width: 1.5; stroke-linecap: square"/>
    </g>
    <g id="text_22">
     <!-- $\eta$=0.02, loss=2.4741166243524475 -->
     <g transform="translate(228.42 148.079813) scale(0.1 -0.1)">
      <use xlink:href="#DejaVuSans-Oblique-3b7" transform="translate(0 0.015625)"/>
      <use xlink:href="#WenQuanYiMicroHei-3d" transform="translate(63.378906 0.015625)"/>
      <use xlink:href="#WenQuanYiMicroHei-30" transform="translate(118.457031 0.015625)"/>
      <use xlink:href="#WenQuanYiMicroHei-2e" transform="translate(173.535156 0.015625)"/>
      <use xlink:href="#WenQuanYiMicroHei-30" transform="translate(200.341797 0.015625)"/>
      <use xlink:href="#WenQuanYiMicroHei-32" transform="translate(255.419922 0.015625)"/>
      <use xlink:href="#WenQuanYiMicroHei-2c" transform="translate(310.498047 0.015625)"/>
      <use xlink:href="#WenQuanYiMicroHei-20" transform="translate(335.498047 0.015625)"/>
      <use xlink:href="#WenQuanYiMicroHei-6c" transform="translate(361.474609 0.015625)"/>
      <use xlink:href="#WenQuanYiMicroHei-6f" transform="translate(387.353516 0.015625)"/>
      <use xlink:href="#WenQuanYiMicroHei-73" transform="translate(445.068359 0.015625)"/>
      <use xlink:href="#WenQuanYiMicroHei-73" transform="translate(490.185547 0.015625)"/>
      <use xlink:href="#WenQuanYiMicroHei-3d" transform="translate(535.302734 0.015625)"/>
      <use xlink:href="#WenQuanYiMicroHei-32" transform="translate(590.380859 0.015625)"/>
      <use xlink:href="#WenQuanYiMicroHei-2e" transform="translate(645.458984 0.015625)"/>
      <use xlink:href="#WenQuanYiMicroHei-34" transform="translate(672.265625 0.015625)"/>
      <use xlink:href="#WenQuanYiMicroHei-37" transform="translate(727.34375 0.015625)"/>
      <use xlink:href="#WenQuanYiMicroHei-34" transform="translate(782.421875 0.015625)"/>
      <use xlink:href="#WenQuanYiMicroHei-31" transform="translate(837.5 0.015625)"/>
      <use xlink:href="#WenQuanYiMicroHei-31" transform="translate(892.578125 0.015625)"/>
      <use xlink:href="#WenQuanYiMicroHei-36" transform="translate(947.65625 0.015625)"/>
      <use xlink:href="#WenQuanYiMicroHei-36" transform="translate(1002.734375 0.015625)"/>
      <use xlink:href="#WenQuanYiMicroHei-32" transform="translate(1057.8125 0.015625)"/>
      <use xlink:href="#WenQuanYiMicroHei-34" transform="translate(1112.890625 0.015625)"/>
      <use xlink:href="#WenQuanYiMicroHei-33" transform="translate(1167.96875 0.015625)"/>
      <use xlink:href="#WenQuanYiMicroHei-35" transform="translate(1223.046875 0.015625)"/>
      <use xlink:href="#WenQuanYiMicroHei-32" transform="translate(1278.125 0.015625)"/>
      <use xlink:href="#WenQuanYiMicroHei-34" transform="translate(1333.203125 0.015625)"/>
      <use xlink:href="#WenQuanYiMicroHei-34" transform="translate(1388.28125 0.015625)"/>
      <use xlink:href="#WenQuanYiMicroHei-37" transform="translate(1443.359375 0.015625)"/>
      <use xlink:href="#WenQuanYiMicroHei-35" transform="translate(1498.4375 0.015625)"/>
     </g>
    </g>
    <g id="line2d_28">
     <path d="M 200.42 159.581375 
L 210.42 159.581375 
L 220.42 159.581375 
" style="fill: none; stroke: #7f7f7f; stroke-width: 1.5; stroke-linecap: square"/>
    </g>
    <g id="text_23">
     <!-- $\eta$=0.01, loss=2.8388929407898047 -->
     <g transform="translate(228.42 163.081375) scale(0.1 -0.1)">
      <use xlink:href="#DejaVuSans-Oblique-3b7" transform="translate(0 0.015625)"/>
      <use xlink:href="#WenQuanYiMicroHei-3d" transform="translate(63.378906 0.015625)"/>
      <use xlink:href="#WenQuanYiMicroHei-30" transform="translate(118.457031 0.015625)"/>
      <use xlink:href="#WenQuanYiMicroHei-2e" transform="translate(173.535156 0.015625)"/>
      <use xlink:href="#WenQuanYiMicroHei-30" transform="translate(200.341797 0.015625)"/>
      <use xlink:href="#WenQuanYiMicroHei-31" transform="translate(255.419922 0.015625)"/>
      <use xlink:href="#WenQuanYiMicroHei-2c" transform="translate(310.498047 0.015625)"/>
      <use xlink:href="#WenQuanYiMicroHei-20" transform="translate(335.498047 0.015625)"/>
      <use xlink:href="#WenQuanYiMicroHei-6c" transform="translate(361.474609 0.015625)"/>
      <use xlink:href="#WenQuanYiMicroHei-6f" transform="translate(387.353516 0.015625)"/>
      <use xlink:href="#WenQuanYiMicroHei-73" transform="translate(445.068359 0.015625)"/>
      <use xlink:href="#WenQuanYiMicroHei-73" transform="translate(490.185547 0.015625)"/>
      <use xlink:href="#WenQuanYiMicroHei-3d" transform="translate(535.302734 0.015625)"/>
      <use xlink:href="#WenQuanYiMicroHei-32" transform="translate(590.380859 0.015625)"/>
      <use xlink:href="#WenQuanYiMicroHei-2e" transform="translate(645.458984 0.015625)"/>
      <use xlink:href="#WenQuanYiMicroHei-38" transform="translate(672.265625 0.015625)"/>
      <use xlink:href="#WenQuanYiMicroHei-33" transform="translate(727.34375 0.015625)"/>
      <use xlink:href="#WenQuanYiMicroHei-38" transform="translate(782.421875 0.015625)"/>
      <use xlink:href="#WenQuanYiMicroHei-38" transform="translate(837.5 0.015625)"/>
      <use xlink:href="#WenQuanYiMicroHei-39" transform="translate(892.578125 0.015625)"/>
      <use xlink:href="#WenQuanYiMicroHei-32" transform="translate(947.65625 0.015625)"/>
      <use xlink:href="#WenQuanYiMicroHei-39" transform="translate(1002.734375 0.015625)"/>
      <use xlink:href="#WenQuanYiMicroHei-34" transform="translate(1057.8125 0.015625)"/>
      <use xlink:href="#WenQuanYiMicroHei-30" transform="translate(1112.890625 0.015625)"/>
      <use xlink:href="#WenQuanYiMicroHei-37" transform="translate(1167.96875 0.015625)"/>
      <use xlink:href="#WenQuanYiMicroHei-38" transform="translate(1223.046875 0.015625)"/>
      <use xlink:href="#WenQuanYiMicroHei-39" transform="translate(1278.125 0.015625)"/>
      <use xlink:href="#WenQuanYiMicroHei-38" transform="translate(1333.203125 0.015625)"/>
      <use xlink:href="#WenQuanYiMicroHei-30" transform="translate(1388.28125 0.015625)"/>
      <use xlink:href="#WenQuanYiMicroHei-34" transform="translate(1443.359375 0.015625)"/>
      <use xlink:href="#WenQuanYiMicroHei-37" transform="translate(1498.4375 0.015625)"/>
     </g>
    </g>
   </g>
  </g>
 </g>
 <defs>
  <clipPath id="pd4faee3426">
   <rect x="57.6" y="41.472" width="357.12" height="266.112"/>
  </clipPath>
 </defs>
</svg>
