<?xml version="1.0" encoding="utf-8" standalone="no"?>
<!DOCTYPE svg PUBLIC "-//W3C//DTD SVG 1.1//EN"
  "http://www.w3.org/Graphics/SVG/1.1/DTD/svg11.dtd">
<svg xmlns:xlink="http://www.w3.org/1999/xlink" width="460.8pt" height="345.6pt" viewBox="0 0 460.8 345.6" xmlns="http://www.w3.org/2000/svg" version="1.1">
 <metadata>
  <rdf:RDF xmlns:dc="http://purl.org/dc/elements/1.1/" xmlns:cc="http://creativecommons.org/ns#" xmlns:rdf="http://www.w3.org/1999/02/22-rdf-syntax-ns#">
   <cc:Work>
    <dc:type rdf:resource="http://purl.org/dc/dcmitype/StillImage"/>
    <dc:date>2024-10-03T00:14:36.826548</dc:date>
    <dc:format>image/svg+xml</dc:format>
    <dc:creator>
     <cc:Agent>
      <dc:title>Matplotlib v3.9.2, https://matplotlib.org/</dc:title>
     </cc:Agent>
    </dc:creator>
   </cc:Work>
  </rdf:RDF>
 </metadata>
 <defs>
  <style type="text/css">*{stroke-linejoin: round; stroke-linecap: butt}</style>
 </defs>
 <g id="figure_1">
  <g id="patch_1">
   <path d="M 0 345.6 
L 460.8 345.6 
L 460.8 0 
L 0 0 
z
" style="fill: #ffffff"/>
  </g>
  <g id="axes_1">
   <g id="patch_2">
    <path d="M 57.6 307.584 
L 414.72 307.584 
L 414.72 41.472 
L 57.6 41.472 
z
" style="fill: #ffffff"/>
   </g>
   <g id="matplotlib.axis_1">
    <g id="xtick_1">
     <g id="line2d_1">
      <defs>
       <path id="m989e329f9e" d="M 0 0 
L 0 3.5 
" style="stroke: #000000; stroke-width: 0.8"/>
      </defs>
      <g>
       <use xlink:href="#m989e329f9e" x="109.905455" y="307.584" style="stroke: #000000; stroke-width: 0.8"/>
      </g>
     </g>
     <g id="text_1">
      <!-- $\mathdefault{10^{-6}}$ -->
      <g transform="translate(100.355455 322.182437) scale(0.1 -0.1)">
       <defs>
        <path id="WenQuanYiMicroHei-31" d="M 2222 0 
L 1672 0 
L 1672 2853 
Q 1672 2988 1673 3141 
Q 1675 3294 1679 3445 
Q 1684 3597 1689 3736 
Q 1694 3875 1697 3981 
Q 1644 3925 1603 3884 
Q 1563 3844 1520 3806 
Q 1478 3769 1431 3726 
Q 1384 3684 1319 3628 
L 856 3250 
L 556 3634 
L 1753 4569 
L 2222 4569 
L 2222 0 
z
" transform="scale(0.015625)"/>
        <path id="WenQuanYiMicroHei-30" d="M 3225 2291 
Q 3225 1738 3145 1300 
Q 3066 863 2889 559 
Q 2713 256 2434 96 
Q 2156 -63 1759 -63 
Q 1391 -63 1117 96 
Q 844 256 664 559 
Q 484 863 395 1300 
Q 306 1738 306 2291 
Q 306 2844 386 3281 
Q 466 3719 639 4020 
Q 813 4322 1089 4481 
Q 1366 4641 1759 4641 
Q 2131 4641 2406 4483 
Q 2681 4325 2862 4023 
Q 3044 3722 3134 3284 
Q 3225 2847 3225 2291 
z
M 884 2291 
Q 884 1822 931 1472 
Q 978 1122 1081 889 
Q 1184 656 1351 539 
Q 1519 422 1759 422 
Q 2000 422 2169 537 
Q 2338 653 2445 884 
Q 2553 1116 2601 1467 
Q 2650 1819 2650 2291 
Q 2650 2759 2601 3109 
Q 2553 3459 2445 3690 
Q 2338 3922 2169 4037 
Q 2000 4153 1759 4153 
Q 1519 4153 1351 4037 
Q 1184 3922 1081 3690 
Q 978 3459 931 3109 
Q 884 2759 884 2291 
z
" transform="scale(0.015625)"/>
        <path id="WenQuanYiMicroHei-2212" d="M 319 2022 
L 319 2491 
L 3206 2491 
L 3206 2022 
L 319 2022 
z
" transform="scale(0.015625)"/>
        <path id="WenQuanYiMicroHei-36" d="M 353 1953 
Q 353 2281 386 2606 
Q 419 2931 501 3229 
Q 584 3528 728 3784 
Q 872 4041 1094 4230 
Q 1316 4419 1625 4526 
Q 1934 4634 2350 4634 
Q 2409 4634 2481 4631 
Q 2553 4628 2626 4620 
Q 2700 4613 2767 4602 
Q 2834 4591 2888 4575 
L 2888 4091 
Q 2778 4128 2640 4147 
Q 2503 4166 2369 4166 
Q 2088 4166 1873 4098 
Q 1659 4031 1503 3909 
Q 1347 3788 1242 3619 
Q 1138 3450 1072 3245 
Q 1006 3041 975 2809 
Q 944 2578 934 2328 
L 972 2328 
Q 1034 2441 1123 2539 
Q 1213 2638 1331 2708 
Q 1450 2778 1598 2818 
Q 1747 2859 1931 2859 
Q 2228 2859 2468 2767 
Q 2709 2675 2878 2497 
Q 3047 2319 3139 2061 
Q 3231 1803 3231 1472 
Q 3231 1116 3134 831 
Q 3038 547 2856 348 
Q 2675 150 2419 43 
Q 2163 -63 1844 -63 
Q 1531 -63 1257 59 
Q 984 181 784 431 
Q 584 681 468 1059 
Q 353 1438 353 1953 
z
M 1838 416 
Q 2025 416 2179 480 
Q 2334 544 2446 673 
Q 2559 803 2620 1001 
Q 2681 1200 2681 1472 
Q 2681 1691 2629 1864 
Q 2578 2038 2475 2159 
Q 2372 2281 2217 2347 
Q 2063 2413 1856 2413 
Q 1647 2413 1473 2339 
Q 1300 2266 1178 2148 
Q 1056 2031 989 1881 
Q 922 1731 922 1581 
Q 922 1372 980 1164 
Q 1038 956 1152 790 
Q 1266 625 1437 520 
Q 1609 416 1838 416 
z
" transform="scale(0.015625)"/>
       </defs>
       <use xlink:href="#WenQuanYiMicroHei-31" transform="translate(0 0.789062)"/>
       <use xlink:href="#WenQuanYiMicroHei-30" transform="translate(55.078125 0.789062)"/>
       <use xlink:href="#WenQuanYiMicroHei-2212" transform="translate(111.094414 38.315625) scale(0.7)"/>
       <use xlink:href="#WenQuanYiMicroHei-36" transform="translate(149.649102 38.315625) scale(0.7)"/>
      </g>
     </g>
    </g>
    <g id="xtick_2">
     <g id="line2d_2">
      <g>
       <use xlink:href="#m989e329f9e" x="182.050909" y="307.584" style="stroke: #000000; stroke-width: 0.8"/>
      </g>
     </g>
     <g id="text_2">
      <!-- $\mathdefault{10^{-4}}$ -->
      <g transform="translate(172.500909 322.182437) scale(0.1 -0.1)">
       <defs>
        <path id="WenQuanYiMicroHei-34" d="M 3397 1025 
L 2731 1025 
L 2731 0 
L 2181 0 
L 2181 1025 
L 72 1025 
L 72 1522 
L 2144 4594 
L 2731 4594 
L 2731 1544 
L 3397 1544 
L 3397 1025 
z
M 2181 1544 
L 2181 2656 
Q 2181 2831 2186 3023 
Q 2191 3216 2197 3398 
Q 2203 3581 2211 3740 
Q 2219 3900 2222 4006 
L 2194 4006 
Q 2172 3944 2139 3867 
Q 2106 3791 2067 3714 
Q 2028 3638 1987 3566 
Q 1947 3494 1913 3444 
L 628 1544 
L 2181 1544 
z
" transform="scale(0.015625)"/>
       </defs>
       <use xlink:href="#WenQuanYiMicroHei-31" transform="translate(0 0.226562)"/>
       <use xlink:href="#WenQuanYiMicroHei-30" transform="translate(55.078125 0.226562)"/>
       <use xlink:href="#WenQuanYiMicroHei-2212" transform="translate(111.094414 37.753125) scale(0.7)"/>
       <use xlink:href="#WenQuanYiMicroHei-34" transform="translate(149.649102 37.753125) scale(0.7)"/>
      </g>
     </g>
    </g>
    <g id="xtick_3">
     <g id="line2d_3">
      <g>
       <use xlink:href="#m989e329f9e" x="254.196364" y="307.584" style="stroke: #000000; stroke-width: 0.8"/>
      </g>
     </g>
     <g id="text_3">
      <!-- $\mathdefault{10^{-2}}$ -->
      <g transform="translate(244.646364 322.182437) scale(0.1 -0.1)">
       <defs>
        <path id="WenQuanYiMicroHei-32" d="M 3150 0 
L 300 0 
L 300 488 
L 1394 1678 
Q 1628 1931 1812 2140 
Q 1997 2350 2126 2550 
Q 2256 2750 2325 2951 
Q 2394 3153 2394 3391 
Q 2394 3575 2341 3715 
Q 2288 3856 2189 3954 
Q 2091 4053 1956 4103 
Q 1822 4153 1656 4153 
Q 1359 4153 1120 4033 
Q 881 3913 666 3725 
L 347 4097 
Q 472 4209 615 4307 
Q 759 4406 925 4478 
Q 1091 4550 1275 4592 
Q 1459 4634 1663 4634 
Q 1963 4634 2205 4550 
Q 2447 4466 2615 4308 
Q 2784 4150 2876 3923 
Q 2969 3697 2969 3413 
Q 2969 3147 2886 2906 
Q 2803 2666 2658 2433 
Q 2513 2200 2311 1965 
Q 2109 1731 1875 1478 
L 997 544 
L 997 519 
L 3150 519 
L 3150 0 
z
" transform="scale(0.015625)"/>
       </defs>
       <use xlink:href="#WenQuanYiMicroHei-31" transform="translate(0 0.789062)"/>
       <use xlink:href="#WenQuanYiMicroHei-30" transform="translate(55.078125 0.789062)"/>
       <use xlink:href="#WenQuanYiMicroHei-2212" transform="translate(111.094414 38.315625) scale(0.7)"/>
       <use xlink:href="#WenQuanYiMicroHei-32" transform="translate(149.649102 38.315625) scale(0.7)"/>
      </g>
     </g>
    </g>
    <g id="xtick_4">
     <g id="line2d_4">
      <g>
       <use xlink:href="#m989e329f9e" x="326.341818" y="307.584" style="stroke: #000000; stroke-width: 0.8"/>
      </g>
     </g>
     <g id="text_4">
      <!-- $\mathdefault{10^{0}}$ -->
      <g transform="translate(318.691818 322.182437) scale(0.1 -0.1)">
       <use xlink:href="#WenQuanYiMicroHei-31" transform="translate(0 0.7125)"/>
       <use xlink:href="#WenQuanYiMicroHei-30" transform="translate(55.078125 0.7125)"/>
       <use xlink:href="#WenQuanYiMicroHei-30" transform="translate(111.094414 38.239063) scale(0.7)"/>
      </g>
     </g>
    </g>
    <g id="xtick_5">
     <g id="line2d_5">
      <g>
       <use xlink:href="#m989e329f9e" x="398.487273" y="307.584" style="stroke: #000000; stroke-width: 0.8"/>
      </g>
     </g>
     <g id="text_5">
      <!-- $\mathdefault{10^{2}}$ -->
      <g transform="translate(390.837273 322.182437) scale(0.1 -0.1)">
       <use xlink:href="#WenQuanYiMicroHei-31" transform="translate(0 0.789062)"/>
       <use xlink:href="#WenQuanYiMicroHei-30" transform="translate(55.078125 0.789062)"/>
       <use xlink:href="#WenQuanYiMicroHei-32" transform="translate(111.094414 38.315625) scale(0.7)"/>
      </g>
     </g>
    </g>
    <g id="text_6">
     <!-- 正则化系数 -->
     <g transform="translate(211.16 336.184) scale(0.1 -0.1)">
      <defs>
       <path id="WenQuanYiMicroHei-6b63" d="M 625 4850 
L 5875 4850 
L 5875 4375 
L 3625 4375 
L 3625 2700 
L 5700 2700 
L 5700 2225 
L 3625 2225 
L 3625 100 
L 6075 100 
L 6075 -375 
L 325 -375 
L 325 100 
L 1275 100 
L 1275 3350 
L 1775 3350 
L 1775 100 
L 3125 100 
L 3125 4375 
L 625 4375 
L 625 4850 
z
" transform="scale(0.015625)"/>
       <path id="WenQuanYiMicroHei-5219" d="M 5250 5175 
L 5750 5175 
L 5750 75 
Q 5750 -300 5600 -437 
Q 5450 -575 5000 -575 
Q 4600 -575 4250 -450 
L 4150 75 
Q 4575 -75 5000 -75 
Q 5250 -75 5250 175 
L 5250 5175 
z
M 3900 4500 
L 4400 4500 
L 4400 875 
L 3900 875 
L 3900 4500 
z
M 3375 4850 
L 3375 1375 
L 2875 1375 
L 2875 4375 
L 1200 4375 
L 1200 1250 
L 700 1250 
L 700 4850 
L 3375 4850 
z
M 1825 3975 
L 2300 3975 
Q 2300 2150 2250 1750 
Q 2150 950 1737 362 
Q 1325 -225 600 -600 
L 300 -200 
Q 900 100 1237 537 
Q 1575 975 1700 1537 
Q 1825 2100 1825 3975 
z
M 2600 950 
Q 3175 425 3600 -175 
L 3250 -550 
Q 2825 125 2225 675 
L 2600 950 
z
" transform="scale(0.015625)"/>
       <path id="WenQuanYiMicroHei-5316" d="M 1775 5175 
L 2275 5025 
Q 2000 4300 1625 3600 
L 1625 -575 
L 1125 -575 
L 1125 2800 
Q 825 2400 500 2050 
L 250 2550 
Q 1325 3800 1775 5175 
z
M 3200 5050 
L 3725 5050 
L 3725 2925 
Q 4675 3625 5425 4550 
L 5800 4250 
Q 4900 3075 3725 2275 
L 3725 325 
Q 3725 150 3812 87 
Q 3900 25 4350 25 
Q 4700 25 4887 37 
Q 5075 50 5075 75 
Q 5350 75 5437 275 
Q 5525 475 5550 1250 
L 6075 1025 
Q 5950 -175 5725 -300 
Q 5400 -475 4350 -475 
L 4100 -475 
Q 3525 -475 3362 -337 
Q 3200 -200 3200 125 
L 3200 1950 
Q 2850 1750 2550 1600 
L 2300 2025 
Q 2700 2225 3200 2550 
L 3200 5050 
z
" transform="scale(0.015625)"/>
       <path id="WenQuanYiMicroHei-7cfb" d="M 4225 4175 
L 4675 4000 
Q 3300 2650 1800 1900 
Q 3375 2025 4650 2200 
Q 4400 2475 4125 2750 
L 4575 3025 
Q 5350 2300 5825 1450 
L 5350 1175 
Q 5175 1525 4925 1850 
L 3525 1650 
L 3525 125 
Q 3525 -275 3400 -425 
Q 3275 -575 2925 -575 
Q 2575 -575 2275 -500 
L 2175 0 
Q 2500 -75 2850 -75 
Q 2975 -75 2975 225 
L 2975 1600 
Q 2025 1500 1000 1425 
L 875 1825 
Q 1800 2275 2650 2875 
Q 1875 2750 1075 2675 
L 975 3125 
Q 1825 3650 2400 4450 
L 950 4400 
L 675 4850 
Q 3850 4950 5150 5125 
L 5525 4700 
Q 4500 4575 3050 4475 
Q 2500 3675 1750 3150 
Q 2625 3225 3275 3350 
Q 3750 3725 4225 4175 
z
M 1900 1250 
L 2225 850 
Q 1475 75 575 -400 
L 325 75 
Q 1125 450 1900 1250 
z
M 4475 1250 
Q 5250 600 5725 -125 
L 5250 -400 
Q 4800 300 4025 950 
L 4475 1250 
z
" transform="scale(0.015625)"/>
       <path id="WenQuanYiMicroHei-6570" d="M 4275 4125 
L 5950 4125 
L 5950 3650 
L 5675 3650 
Q 5525 1900 4975 1000 
Q 5425 400 6125 -100 
L 5750 -575 
Q 5175 -100 4675 550 
Q 4175 -125 3450 -600 
L 3100 -150 
Q 3850 300 4350 1025 
Q 4000 1625 3700 2375 
L 3500 1950 
L 3100 2250 
Q 3725 3575 4000 5175 
L 4500 5025 
Q 4400 4550 4275 4125 
z
M 5175 3650 
L 4150 3650 
Q 4125 3525 3975 3075 
Q 4275 2175 4650 1525 
Q 4975 2225 5125 3225 
L 5125 3250 
L 5175 3650 
z
M 450 4100 
L 1750 4100 
L 1750 5150 
L 2200 5150 
L 2200 4100 
L 3400 4100 
L 3400 3675 
L 2200 3675 
L 2200 2525 
L 1750 2525 
L 1750 3300 
Q 1325 2700 750 2325 
L 425 2725 
Q 1050 3050 1525 3675 
L 450 3675 
L 450 4100 
z
M 1050 5050 
Q 1250 4750 1375 4375 
L 975 4175 
Q 850 4550 675 4875 
L 1050 5050 
z
M 2900 5050 
L 3275 4875 
Q 3050 4450 2800 4225 
L 2475 4525 
Q 2725 4750 2900 5050 
z
M 2725 3450 
Q 3000 3150 3175 2825 
L 2800 2600 
Q 2650 2950 2375 3250 
L 2725 3450 
z
M 425 2000 
L 1400 2000 
Q 1500 2200 1575 2400 
L 2050 2350 
L 1900 2000 
L 3025 2000 
L 3025 1575 
Q 2725 925 2300 475 
Q 2725 225 3075 0 
L 2775 -450 
Q 2450 -175 1925 125 
Q 1400 -325 525 -600 
L 375 -175 
Q 1025 25 1500 350 
Q 1100 575 625 800 
Q 925 1200 1150 1575 
L 425 1575 
L 425 2000 
z
M 1675 1575 
Q 1500 1250 1300 1000 
L 1900 700 
Q 2275 1100 2500 1575 
L 1675 1575 
z
" transform="scale(0.015625)"/>
      </defs>
      <use xlink:href="#WenQuanYiMicroHei-6b63"/>
      <use xlink:href="#WenQuanYiMicroHei-5219" x="100"/>
      <use xlink:href="#WenQuanYiMicroHei-5316" x="200"/>
      <use xlink:href="#WenQuanYiMicroHei-7cfb" x="300"/>
      <use xlink:href="#WenQuanYiMicroHei-6570" x="400"/>
     </g>
    </g>
   </g>
   <g id="matplotlib.axis_2">
    <g id="ytick_1">
     <g id="line2d_6">
      <defs>
       <path id="m14ddeda739" d="M 0 0 
L -3.5 0 
" style="stroke: #000000; stroke-width: 0.8"/>
      </defs>
      <g>
       <use xlink:href="#m14ddeda739" x="57.6" y="219.049086" style="stroke: #000000; stroke-width: 0.8"/>
      </g>
     </g>
     <g id="text_7">
      <!-- $\mathdefault{10^{1}}$ -->
      <g transform="translate(35.3 222.848305) scale(0.1 -0.1)">
       <use xlink:href="#WenQuanYiMicroHei-31" transform="translate(0 0.5)"/>
       <use xlink:href="#WenQuanYiMicroHei-30" transform="translate(55.078125 0.5)"/>
       <use xlink:href="#WenQuanYiMicroHei-31" transform="translate(111.094414 38.026562) scale(0.7)"/>
      </g>
     </g>
    </g>
    <g id="ytick_2">
     <g id="line2d_7">
      <g>
       <use xlink:href="#m14ddeda739" x="57.6" y="83.518064" style="stroke: #000000; stroke-width: 0.8"/>
      </g>
     </g>
     <g id="text_8">
      <!-- $\mathdefault{10^{2}}$ -->
      <g transform="translate(35.3 87.317283) scale(0.1 -0.1)">
       <use xlink:href="#WenQuanYiMicroHei-31" transform="translate(0 0.789062)"/>
       <use xlink:href="#WenQuanYiMicroHei-30" transform="translate(55.078125 0.789062)"/>
       <use xlink:href="#WenQuanYiMicroHei-32" transform="translate(111.094414 38.315625) scale(0.7)"/>
      </g>
     </g>
    </g>
    <g id="ytick_3">
     <g id="line2d_8">
      <defs>
       <path id="m12d46270dc" d="M 0 0 
L -2 0 
" style="stroke: #000000; stroke-width: 0.6"/>
      </defs>
      <g>
       <use xlink:href="#m12d46270dc" x="57.6" y="289.915377" style="stroke: #000000; stroke-width: 0.6"/>
      </g>
     </g>
    </g>
    <g id="ytick_4">
     <g id="line2d_9">
      <g>
       <use xlink:href="#m12d46270dc" x="57.6" y="272.982302" style="stroke: #000000; stroke-width: 0.6"/>
      </g>
     </g>
    </g>
    <g id="ytick_5">
     <g id="line2d_10">
      <g>
       <use xlink:href="#m12d46270dc" x="57.6" y="259.847989" style="stroke: #000000; stroke-width: 0.6"/>
      </g>
     </g>
    </g>
    <g id="ytick_6">
     <g id="line2d_11">
      <g>
       <use xlink:href="#m12d46270dc" x="57.6" y="249.116474" style="stroke: #000000; stroke-width: 0.6"/>
      </g>
     </g>
    </g>
    <g id="ytick_7">
     <g id="line2d_12">
      <g>
       <use xlink:href="#m12d46270dc" x="57.6" y="240.043107" style="stroke: #000000; stroke-width: 0.6"/>
      </g>
     </g>
    </g>
    <g id="ytick_8">
     <g id="line2d_13">
      <g>
       <use xlink:href="#m12d46270dc" x="57.6" y="232.183399" style="stroke: #000000; stroke-width: 0.6"/>
      </g>
     </g>
    </g>
    <g id="ytick_9">
     <g id="line2d_14">
      <g>
       <use xlink:href="#m12d46270dc" x="57.6" y="225.250645" style="stroke: #000000; stroke-width: 0.6"/>
      </g>
     </g>
    </g>
    <g id="ytick_10">
     <g id="line2d_15">
      <g>
       <use xlink:href="#m12d46270dc" x="57.6" y="178.250183" style="stroke: #000000; stroke-width: 0.6"/>
      </g>
     </g>
    </g>
    <g id="ytick_11">
     <g id="line2d_16">
      <g>
       <use xlink:href="#m12d46270dc" x="57.6" y="154.384355" style="stroke: #000000; stroke-width: 0.6"/>
      </g>
     </g>
    </g>
    <g id="ytick_12">
     <g id="line2d_17">
      <g>
       <use xlink:href="#m12d46270dc" x="57.6" y="137.45128" style="stroke: #000000; stroke-width: 0.6"/>
      </g>
     </g>
    </g>
    <g id="ytick_13">
     <g id="line2d_18">
      <g>
       <use xlink:href="#m12d46270dc" x="57.6" y="124.316967" style="stroke: #000000; stroke-width: 0.6"/>
      </g>
     </g>
    </g>
    <g id="ytick_14">
     <g id="line2d_19">
      <g>
       <use xlink:href="#m12d46270dc" x="57.6" y="113.585452" style="stroke: #000000; stroke-width: 0.6"/>
      </g>
     </g>
    </g>
    <g id="ytick_15">
     <g id="line2d_20">
      <g>
       <use xlink:href="#m12d46270dc" x="57.6" y="104.512085" style="stroke: #000000; stroke-width: 0.6"/>
      </g>
     </g>
    </g>
    <g id="ytick_16">
     <g id="line2d_21">
      <g>
       <use xlink:href="#m12d46270dc" x="57.6" y="96.652377" style="stroke: #000000; stroke-width: 0.6"/>
      </g>
     </g>
    </g>
    <g id="ytick_17">
     <g id="line2d_22">
      <g>
       <use xlink:href="#m12d46270dc" x="57.6" y="89.719623" style="stroke: #000000; stroke-width: 0.6"/>
      </g>
     </g>
    </g>
    <g id="ytick_18">
     <g id="line2d_23">
      <g>
       <use xlink:href="#m12d46270dc" x="57.6" y="42.719161" style="stroke: #000000; stroke-width: 0.6"/>
      </g>
     </g>
    </g>
    <g id="text_9">
     <!-- 目标函数 -->
     <g transform="translate(28.896875 194.528) rotate(-90) scale(0.1 -0.1)">
      <defs>
       <path id="WenQuanYiMicroHei-76ee" d="M 5275 4900 
L 5275 -575 
L 4775 -575 
L 4775 -25 
L 1550 -25 
L 1550 -575 
L 1050 -575 
L 1050 4900 
L 5275 4900 
z
M 1550 3400 
L 4775 3400 
L 4775 4425 
L 1550 4425 
L 1550 3400 
z
M 1550 1925 
L 4775 1925 
L 4775 2950 
L 1550 2950 
L 1550 1925 
z
M 1550 450 
L 4775 450 
L 4775 1450 
L 1550 1450 
L 1550 450 
z
" transform="scale(0.015625)"/>
       <path id="WenQuanYiMicroHei-6807" d="M 425 4025 
L 1225 4025 
L 1225 5175 
L 1700 5175 
L 1700 4025 
L 2450 4025 
L 2450 3550 
L 1700 3550 
L 1700 3250 
Q 2175 2675 2525 2125 
L 2200 1650 
Q 1950 2175 1700 2575 
L 1700 -575 
L 1225 -575 
L 1225 2150 
Q 950 1325 575 775 
L 225 1125 
Q 950 2200 1175 3550 
L 425 3550 
L 425 4025 
z
M 2850 4850 
L 5550 4850 
L 5550 4375 
L 2850 4375 
L 2850 4850 
z
M 2475 3425 
L 5975 3425 
L 5975 2950 
L 4450 2950 
L 4450 50 
Q 4450 -300 4287 -450 
Q 4125 -600 3550 -600 
Q 3350 -600 3175 -525 
L 3075 0 
Q 3325 -100 3550 -100 
Q 3750 -100 3837 -37 
Q 3925 25 3925 150 
L 3925 2950 
L 2475 2950 
L 2475 3425 
z
M 5250 2325 
Q 5775 1400 6100 350 
L 5625 75 
Q 5325 1125 4800 2050 
L 5250 2325 
z
M 3000 2300 
L 3450 2075 
Q 3025 750 2525 50 
L 2125 400 
Q 2650 1250 3000 2300 
z
" transform="scale(0.015625)"/>
       <path id="WenQuanYiMicroHei-51fd" d="M 5425 3550 
L 5925 3550 
L 5925 -550 
L 5425 -550 
L 5425 -200 
L 475 -200 
L 475 3575 
L 975 3575 
L 975 275 
L 5425 275 
L 5425 3550 
z
M 1250 4925 
L 5200 4925 
L 5200 4400 
Q 4450 3925 3550 3500 
L 3550 2850 
Q 4275 3100 4800 3525 
L 5100 3125 
Q 4450 2675 3550 2325 
L 3550 2225 
Q 4500 1725 5175 1250 
L 4875 850 
Q 4225 1350 3550 1725 
L 3550 900 
Q 3550 675 3412 550 
Q 3275 425 3025 425 
Q 2725 425 2425 450 
L 2375 950 
Q 2600 900 2900 900 
Q 3050 900 3050 1000 
L 3050 1975 
Q 2150 1300 1450 950 
L 1200 1450 
Q 2350 1975 3050 2525 
L 3050 3775 
Q 3775 4125 4350 4450 
L 1250 4450 
L 1250 4925 
z
M 1625 3575 
Q 2225 3200 2700 2700 
L 2375 2300 
Q 1875 2850 1325 3250 
L 1625 3575 
z
" transform="scale(0.015625)"/>
      </defs>
      <use xlink:href="#WenQuanYiMicroHei-76ee"/>
      <use xlink:href="#WenQuanYiMicroHei-6807" x="100"/>
      <use xlink:href="#WenQuanYiMicroHei-51fd" x="200"/>
      <use xlink:href="#WenQuanYiMicroHei-6570" x="300"/>
     </g>
    </g>
   </g>
   <g id="line2d_24">
    <path d="M 73.832727 266.846679 
L 109.905455 288.995535 
L 145.978182 295.488 
L 182.050909 294.929544 
L 218.123636 292.726953 
L 254.196364 275.610265 
L 290.269091 204.673659 
L 326.341818 106.836198 
L 362.414545 53.568 
L 398.487273 103.555912 
" clip-path="url(#p290b1e2839)" style="fill: none; stroke: #1f77b4; stroke-width: 1.5; stroke-linecap: square"/>
   </g>
   <g id="patch_3">
    <path d="M 57.6 307.584 
L 57.6 41.472 
" style="fill: none; stroke: #000000; stroke-width: 0.8; stroke-linejoin: miter; stroke-linecap: square"/>
   </g>
   <g id="patch_4">
    <path d="M 414.72 307.584 
L 414.72 41.472 
" style="fill: none; stroke: #000000; stroke-width: 0.8; stroke-linejoin: miter; stroke-linecap: square"/>
   </g>
   <g id="patch_5">
    <path d="M 57.6 307.584 
L 414.72 307.584 
" style="fill: none; stroke: #000000; stroke-width: 0.8; stroke-linejoin: miter; stroke-linecap: square"/>
   </g>
   <g id="patch_6">
    <path d="M 57.6 41.472 
L 414.72 41.472 
" style="fill: none; stroke: #000000; stroke-width: 0.8; stroke-linejoin: miter; stroke-linecap: square"/>
   </g>
   <g id="text_10">
    <!-- 解析解 -->
    <g transform="translate(218.16 35.472) scale(0.12 -0.12)">
     <defs>
      <path id="WenQuanYiMicroHei-89e3" d="M 1425 5200 
L 1900 5050 
Q 1825 4875 1725 4700 
L 2800 4700 
L 2800 4275 
Q 2650 3950 2500 3700 
L 3150 3700 
L 3150 -50 
Q 3150 -325 3025 -462 
Q 2900 -600 2675 -600 
Q 2450 -600 2075 -550 
L 1975 -75 
Q 2400 -125 2550 -125 
Q 2675 -125 2675 25 
L 2675 1025 
L 2175 1025 
L 2175 125 
L 1725 125 
L 1725 1025 
L 1225 1025 
Q 1200 -25 900 -600 
L 425 -425 
Q 750 225 750 1400 
L 750 3375 
Q 650 3300 550 3200 
L 300 3650 
Q 1075 4400 1425 5200 
z
M 1050 3700 
L 1950 3700 
Q 2125 3950 2275 4250 
L 1450 4250 
L 1050 3700 
z
M 1225 2575 
L 1725 2575 
L 1725 3250 
L 1225 3250 
L 1225 2575 
z
M 2175 3250 
L 2175 2575 
L 2675 2575 
L 2675 3250 
L 2175 3250 
z
M 1225 1475 
L 1725 1475 
L 1725 2150 
L 1225 2150 
L 1225 1475 
z
M 2175 2150 
L 2175 1475 
L 2675 1475 
L 2675 2150 
L 2175 2150 
z
M 3350 4900 
L 5950 4900 
Q 5950 3550 5812 3287 
Q 5675 3025 5275 3025 
Q 5025 3025 4650 3100 
L 4550 3550 
Q 4950 3475 5225 3475 
Q 5350 3475 5387 3600 
Q 5425 3725 5450 4475 
L 4525 4475 
Q 4375 3350 3575 2900 
L 3275 3300 
Q 3925 3650 4075 4475 
L 3350 4475 
L 3350 4900 
z
M 3900 2925 
L 4300 2800 
Q 4225 2525 4125 2250 
L 4600 2250 
L 4600 2900 
L 5075 2900 
L 5075 2250 
L 5950 2250 
L 5950 1800 
L 5075 1800 
L 5075 1100 
L 6075 1100 
L 6075 650 
L 5075 650 
L 5075 -575 
L 4600 -575 
L 4600 650 
L 3375 650 
L 3375 1100 
L 4600 1100 
L 4600 1800 
L 3950 1800 
Q 3800 1475 3625 1250 
L 3250 1525 
Q 3700 2175 3900 2925 
z
" transform="scale(0.015625)"/>
      <path id="WenQuanYiMicroHei-6790" d="M 400 4025 
L 1325 4025 
L 1325 5175 
L 1825 5175 
L 1825 4025 
L 2700 4025 
L 2700 3550 
L 1825 3550 
L 1825 3300 
Q 2375 2700 2775 2125 
L 2450 1650 
Q 2125 2200 1825 2625 
L 1825 -575 
L 1325 -575 
L 1325 2250 
Q 1025 1400 500 775 
L 150 1125 
Q 975 2150 1275 3550 
L 400 3550 
L 400 4025 
z
M 5825 5050 
L 6075 4625 
Q 4975 4400 3500 4300 
L 3500 3150 
L 6075 3150 
L 6075 2725 
L 5250 2725 
L 5250 -500 
L 4800 -500 
L 4800 2725 
L 3500 2725 
Q 3500 1225 3350 587 
Q 3200 -50 2875 -550 
L 2475 -225 
Q 2775 225 2900 887 
Q 3025 1550 3025 3275 
L 3025 4700 
Q 4750 4825 5825 5050 
z
" transform="scale(0.015625)"/>
     </defs>
     <use xlink:href="#WenQuanYiMicroHei-89e3"/>
     <use xlink:href="#WenQuanYiMicroHei-6790" x="100"/>
     <use xlink:href="#WenQuanYiMicroHei-89e3" x="200"/>
    </g>
   </g>
  </g>
 </g>
 <defs>
  <clipPath id="p290b1e2839">
   <rect x="57.6" y="41.472" width="357.12" height="266.112"/>
  </clipPath>
 </defs>
</svg>
