<?xml version="1.0" encoding="utf-8" standalone="no"?>
<!DOCTYPE svg PUBLIC "-//W3C//DTD SVG 1.1//EN"
  "http://www.w3.org/Graphics/SVG/1.1/DTD/svg11.dtd">
<svg xmlns:xlink="http://www.w3.org/1999/xlink" width="460.8pt" height="345.6pt" viewBox="0 0 460.8 345.6" xmlns="http://www.w3.org/2000/svg" version="1.1">
 <metadata>
  <rdf:RDF xmlns:dc="http://purl.org/dc/elements/1.1/" xmlns:cc="http://creativecommons.org/ns#" xmlns:rdf="http://www.w3.org/1999/02/22-rdf-syntax-ns#">
   <cc:Work>
    <dc:type rdf:resource="http://purl.org/dc/dcmitype/StillImage"/>
    <dc:date>2024-10-27T20:29:58.537897</dc:date>
    <dc:format>image/svg+xml</dc:format>
    <dc:creator>
     <cc:Agent>
      <dc:title>Matplotlib v3.9.2, https://matplotlib.org/</dc:title>
     </cc:Agent>
    </dc:creator>
   </cc:Work>
  </rdf:RDF>
 </metadata>
 <defs>
  <style type="text/css">*{stroke-linejoin: round; stroke-linecap: butt}</style>
 </defs>
 <g id="figure_1">
  <g id="patch_1">
   <path d="M 0 345.6 
L 460.8 345.6 
L 460.8 0 
L 0 0 
z
" style="fill: #ffffff"/>
  </g>
  <g id="axes_1">
   <g id="patch_2">
    <path d="M 57.6 307.584 
L 414.72 307.584 
L 414.72 41.472 
L 57.6 41.472 
z
" style="fill: #ffffff"/>
   </g>
   <g id="matplotlib.axis_1">
    <g id="xtick_1">
     <g id="line2d_1">
      <defs>
       <path id="m272b82fad7" d="M 0 0 
L 0 3.5 
" style="stroke: #000000; stroke-width: 0.8"/>
      </defs>
      <g>
       <use xlink:href="#m272b82fad7" x="73.832727" y="307.584" style="stroke: #000000; stroke-width: 0.8"/>
      </g>
     </g>
     <g id="text_1">
      <!-- $\mathdefault{2^{0}}$ -->
      <g transform="translate(68.932727 322.182437) scale(0.1 -0.1)">
       <defs>
        <path id="WenQuanYiMicroHei-32" d="M 3150 0 
L 300 0 
L 300 488 
L 1394 1678 
Q 1628 1931 1812 2140 
Q 1997 2350 2126 2550 
Q 2256 2750 2325 2951 
Q 2394 3153 2394 3391 
Q 2394 3575 2341 3715 
Q 2288 3856 2189 3954 
Q 2091 4053 1956 4103 
Q 1822 4153 1656 4153 
Q 1359 4153 1120 4033 
Q 881 3913 666 3725 
L 347 4097 
Q 472 4209 615 4307 
Q 759 4406 925 4478 
Q 1091 4550 1275 4592 
Q 1459 4634 1663 4634 
Q 1963 4634 2205 4550 
Q 2447 4466 2615 4308 
Q 2784 4150 2876 3923 
Q 2969 3697 2969 3413 
Q 2969 3147 2886 2906 
Q 2803 2666 2658 2433 
Q 2513 2200 2311 1965 
Q 2109 1731 1875 1478 
L 997 544 
L 997 519 
L 3150 519 
L 3150 0 
z
" transform="scale(0.015625)"/>
        <path id="WenQuanYiMicroHei-30" d="M 3225 2291 
Q 3225 1738 3145 1300 
Q 3066 863 2889 559 
Q 2713 256 2434 96 
Q 2156 -63 1759 -63 
Q 1391 -63 1117 96 
Q 844 256 664 559 
Q 484 863 395 1300 
Q 306 1738 306 2291 
Q 306 2844 386 3281 
Q 466 3719 639 4020 
Q 813 4322 1089 4481 
Q 1366 4641 1759 4641 
Q 2131 4641 2406 4483 
Q 2681 4325 2862 4023 
Q 3044 3722 3134 3284 
Q 3225 2847 3225 2291 
z
M 884 2291 
Q 884 1822 931 1472 
Q 978 1122 1081 889 
Q 1184 656 1351 539 
Q 1519 422 1759 422 
Q 2000 422 2169 537 
Q 2338 653 2445 884 
Q 2553 1116 2601 1467 
Q 2650 1819 2650 2291 
Q 2650 2759 2601 3109 
Q 2553 3459 2445 3690 
Q 2338 3922 2169 4037 
Q 2000 4153 1759 4153 
Q 1519 4153 1351 4037 
Q 1184 3922 1081 3690 
Q 978 3459 931 3109 
Q 884 2759 884 2291 
z
" transform="scale(0.015625)"/>
       </defs>
       <use xlink:href="#WenQuanYiMicroHei-32" transform="translate(0 0.7125)"/>
       <use xlink:href="#WenQuanYiMicroHei-30" transform="translate(56.016289 38.239063) scale(0.7)"/>
      </g>
     </g>
    </g>
    <g id="xtick_2">
     <g id="line2d_2">
      <g>
       <use xlink:href="#m272b82fad7" x="127.941818" y="307.584" style="stroke: #000000; stroke-width: 0.8"/>
      </g>
     </g>
     <g id="text_2">
      <!-- $\mathdefault{2^{1}}$ -->
      <g transform="translate(123.041818 322.182437) scale(0.1 -0.1)">
       <defs>
        <path id="WenQuanYiMicroHei-31" d="M 2222 0 
L 1672 0 
L 1672 2853 
Q 1672 2988 1673 3141 
Q 1675 3294 1679 3445 
Q 1684 3597 1689 3736 
Q 1694 3875 1697 3981 
Q 1644 3925 1603 3884 
Q 1563 3844 1520 3806 
Q 1478 3769 1431 3726 
Q 1384 3684 1319 3628 
L 856 3250 
L 556 3634 
L 1753 4569 
L 2222 4569 
L 2222 0 
z
" transform="scale(0.015625)"/>
       </defs>
       <use xlink:href="#WenQuanYiMicroHei-32" transform="translate(0 0.5)"/>
       <use xlink:href="#WenQuanYiMicroHei-31" transform="translate(56.016289 38.026562) scale(0.7)"/>
      </g>
     </g>
    </g>
    <g id="xtick_3">
     <g id="line2d_3">
      <g>
       <use xlink:href="#m272b82fad7" x="182.050909" y="307.584" style="stroke: #000000; stroke-width: 0.8"/>
      </g>
     </g>
     <g id="text_3">
      <!-- $\mathdefault{2^{2}}$ -->
      <g transform="translate(177.150909 322.182437) scale(0.1 -0.1)">
       <use xlink:href="#WenQuanYiMicroHei-32" transform="translate(0 0.789062)"/>
       <use xlink:href="#WenQuanYiMicroHei-32" transform="translate(56.016289 38.315625) scale(0.7)"/>
      </g>
     </g>
    </g>
    <g id="xtick_4">
     <g id="line2d_4">
      <g>
       <use xlink:href="#m272b82fad7" x="236.16" y="307.584" style="stroke: #000000; stroke-width: 0.8"/>
      </g>
     </g>
     <g id="text_4">
      <!-- $\mathdefault{2^{3}}$ -->
      <g transform="translate(231.26 322.182437) scale(0.1 -0.1)">
       <defs>
        <path id="WenQuanYiMicroHei-33" d="M 3003 3500 
Q 3003 3272 2931 3084 
Q 2859 2897 2729 2759 
Q 2600 2622 2419 2533 
Q 2238 2444 2016 2406 
L 2016 2388 
Q 2569 2319 2856 2036 
Q 3144 1753 3144 1300 
Q 3144 1000 3042 750 
Q 2941 500 2734 319 
Q 2528 138 2212 37 
Q 1897 -63 1466 -63 
Q 1125 -63 823 -9 
Q 522 44 256 184 
L 256 716 
Q 528 572 845 494 
Q 1163 416 1453 416 
Q 1741 416 1950 478 
Q 2159 541 2295 656 
Q 2431 772 2495 940 
Q 2559 1109 2559 1319 
Q 2559 1531 2476 1682 
Q 2394 1834 2241 1932 
Q 2088 2031 1867 2078 
Q 1647 2125 1369 2125 
L 953 2125 
L 953 2597 
L 1369 2597 
Q 1622 2597 1819 2659 
Q 2016 2722 2148 2837 
Q 2281 2953 2350 3112 
Q 2419 3272 2419 3463 
Q 2419 3625 2362 3753 
Q 2306 3881 2203 3970 
Q 2100 4059 1956 4106 
Q 1813 4153 1638 4153 
Q 1303 4153 1048 4048 
Q 794 3944 563 3775 
L 275 4166 
Q 394 4263 539 4347 
Q 684 4431 856 4495 
Q 1028 4559 1223 4596 
Q 1419 4634 1638 4634 
Q 1975 4634 2229 4550 
Q 2484 4466 2656 4314 
Q 2828 4163 2915 3955 
Q 3003 3747 3003 3500 
z
" transform="scale(0.015625)"/>
       </defs>
       <use xlink:href="#WenQuanYiMicroHei-32" transform="translate(0 0.789062)"/>
       <use xlink:href="#WenQuanYiMicroHei-33" transform="translate(56.016289 38.315625) scale(0.7)"/>
      </g>
     </g>
    </g>
    <g id="xtick_5">
     <g id="line2d_5">
      <g>
       <use xlink:href="#m272b82fad7" x="290.269091" y="307.584" style="stroke: #000000; stroke-width: 0.8"/>
      </g>
     </g>
     <g id="text_5">
      <!-- $\mathdefault{2^{4}}$ -->
      <g transform="translate(285.369091 322.182437) scale(0.1 -0.1)">
       <defs>
        <path id="WenQuanYiMicroHei-34" d="M 3397 1025 
L 2731 1025 
L 2731 0 
L 2181 0 
L 2181 1025 
L 72 1025 
L 72 1522 
L 2144 4594 
L 2731 4594 
L 2731 1544 
L 3397 1544 
L 3397 1025 
z
M 2181 1544 
L 2181 2656 
Q 2181 2831 2186 3023 
Q 2191 3216 2197 3398 
Q 2203 3581 2211 3740 
Q 2219 3900 2222 4006 
L 2194 4006 
Q 2172 3944 2139 3867 
Q 2106 3791 2067 3714 
Q 2028 3638 1987 3566 
Q 1947 3494 1913 3444 
L 628 1544 
L 2181 1544 
z
" transform="scale(0.015625)"/>
       </defs>
       <use xlink:href="#WenQuanYiMicroHei-32" transform="translate(0 0.226562)"/>
       <use xlink:href="#WenQuanYiMicroHei-34" transform="translate(56.016289 37.753125) scale(0.7)"/>
      </g>
     </g>
    </g>
    <g id="xtick_6">
     <g id="line2d_6">
      <g>
       <use xlink:href="#m272b82fad7" x="344.378182" y="307.584" style="stroke: #000000; stroke-width: 0.8"/>
      </g>
     </g>
     <g id="text_6">
      <!-- $\mathdefault{2^{5}}$ -->
      <g transform="translate(339.478182 322.182437) scale(0.1 -0.1)">
       <defs>
        <path id="WenQuanYiMicroHei-35" d="M 1703 2803 
Q 2013 2803 2280 2717 
Q 2547 2631 2745 2462 
Q 2944 2294 3056 2044 
Q 3169 1794 3169 1466 
Q 3169 1109 3062 825 
Q 2956 541 2747 344 
Q 2538 147 2230 42 
Q 1922 -63 1522 -63 
Q 1363 -63 1208 -47 
Q 1053 -31 911 -1 
Q 769 28 641 75 
Q 513 122 409 184 
L 409 722 
Q 513 650 652 594 
Q 791 538 944 500 
Q 1097 463 1251 442 
Q 1406 422 1538 422 
Q 1784 422 1978 480 
Q 2172 538 2306 659 
Q 2441 781 2512 965 
Q 2584 1150 2584 1403 
Q 2584 1850 2309 2086 
Q 2034 2322 1509 2322 
Q 1425 2322 1326 2314 
Q 1228 2306 1129 2293 
Q 1031 2281 942 2267 
Q 853 2253 788 2241 
L 506 2419 
L 678 4569 
L 2834 4569 
L 2834 4050 
L 1172 4050 
L 1050 2741 
Q 1150 2759 1314 2781 
Q 1478 2803 1703 2803 
z
" transform="scale(0.015625)"/>
       </defs>
       <use xlink:href="#WenQuanYiMicroHei-32" transform="translate(0 0.5)"/>
       <use xlink:href="#WenQuanYiMicroHei-35" transform="translate(56.016289 38.026562) scale(0.7)"/>
      </g>
     </g>
    </g>
    <g id="xtick_7">
     <g id="line2d_7">
      <g>
       <use xlink:href="#m272b82fad7" x="398.487273" y="307.584" style="stroke: #000000; stroke-width: 0.8"/>
      </g>
     </g>
     <g id="text_7">
      <!-- $\mathdefault{2^{6}}$ -->
      <g transform="translate(393.587273 322.182437) scale(0.1 -0.1)">
       <defs>
        <path id="WenQuanYiMicroHei-36" d="M 353 1953 
Q 353 2281 386 2606 
Q 419 2931 501 3229 
Q 584 3528 728 3784 
Q 872 4041 1094 4230 
Q 1316 4419 1625 4526 
Q 1934 4634 2350 4634 
Q 2409 4634 2481 4631 
Q 2553 4628 2626 4620 
Q 2700 4613 2767 4602 
Q 2834 4591 2888 4575 
L 2888 4091 
Q 2778 4128 2640 4147 
Q 2503 4166 2369 4166 
Q 2088 4166 1873 4098 
Q 1659 4031 1503 3909 
Q 1347 3788 1242 3619 
Q 1138 3450 1072 3245 
Q 1006 3041 975 2809 
Q 944 2578 934 2328 
L 972 2328 
Q 1034 2441 1123 2539 
Q 1213 2638 1331 2708 
Q 1450 2778 1598 2818 
Q 1747 2859 1931 2859 
Q 2228 2859 2468 2767 
Q 2709 2675 2878 2497 
Q 3047 2319 3139 2061 
Q 3231 1803 3231 1472 
Q 3231 1116 3134 831 
Q 3038 547 2856 348 
Q 2675 150 2419 43 
Q 2163 -63 1844 -63 
Q 1531 -63 1257 59 
Q 984 181 784 431 
Q 584 681 468 1059 
Q 353 1438 353 1953 
z
M 1838 416 
Q 2025 416 2179 480 
Q 2334 544 2446 673 
Q 2559 803 2620 1001 
Q 2681 1200 2681 1472 
Q 2681 1691 2629 1864 
Q 2578 2038 2475 2159 
Q 2372 2281 2217 2347 
Q 2063 2413 1856 2413 
Q 1647 2413 1473 2339 
Q 1300 2266 1178 2148 
Q 1056 2031 989 1881 
Q 922 1731 922 1581 
Q 922 1372 980 1164 
Q 1038 956 1152 790 
Q 1266 625 1437 520 
Q 1609 416 1838 416 
z
" transform="scale(0.015625)"/>
       </defs>
       <use xlink:href="#WenQuanYiMicroHei-32" transform="translate(0 0.789062)"/>
       <use xlink:href="#WenQuanYiMicroHei-36" transform="translate(56.016289 38.315625) scale(0.7)"/>
      </g>
     </g>
    </g>
    <g id="text_8">
     <!-- 批大小 -->
     <g transform="translate(221.16 336.184) scale(0.1 -0.1)">
      <defs>
       <path id="WenQuanYiMicroHei-6279" d="M 2375 2900 
L 2450 2450 
L 1725 2050 
L 1725 100 
Q 1725 -275 1600 -425 
Q 1475 -575 1175 -575 
Q 825 -575 525 -500 
L 425 25 
Q 750 -75 1100 -75 
Q 1225 -75 1225 225 
L 1225 1800 
Q 825 1625 375 1450 
L 200 1975 
Q 750 2175 1225 2375 
L 1225 3650 
L 400 3650 
L 400 4125 
L 1225 4125 
L 1225 5175 
L 1725 5175 
L 1725 4125 
L 2425 4125 
L 2425 3650 
L 1725 3650 
L 1725 2575 
Q 2050 2750 2375 2900 
z
M 2800 5125 
L 3300 5125 
L 3300 3275 
L 4150 3275 
L 4150 2800 
L 3300 2800 
L 3300 100 
Q 3725 250 4050 425 
L 4150 -75 
Q 3675 -300 3025 -500 
L 2800 -250 
L 2800 5125 
z
M 4375 5125 
L 4850 5125 
L 4850 3100 
Q 5350 3475 5800 3950 
L 6125 3525 
Q 5525 2975 4850 2575 
L 4850 175 
Q 4850 50 4900 12 
Q 4950 -25 5125 -25 
Q 5425 -25 5512 112 
Q 5600 250 5650 925 
L 6125 750 
Q 6025 -125 5850 -312 
Q 5675 -500 5125 -500 
Q 4675 -500 4525 -375 
Q 4375 -250 4375 75 
L 4375 5125 
z
" transform="scale(0.015625)"/>
       <path id="WenQuanYiMicroHei-5927" d="M 550 3700 
L 2875 3700 
L 2875 5150 
L 3425 5150 
L 3425 3700 
L 5875 3700 
L 5875 3200 
L 3525 3200 
Q 4200 825 6150 -25 
L 5875 -575 
Q 4100 250 3275 2425 
Q 2725 600 550 -575 
L 275 -100 
Q 2700 1275 2850 3200 
L 550 3200 
L 550 3700 
z
" transform="scale(0.015625)"/>
       <path id="WenQuanYiMicroHei-5c0f" d="M 3025 5175 
L 3525 5175 
L 3525 50 
Q 3525 -300 3400 -437 
Q 3275 -575 2850 -575 
Q 2300 -575 1825 -475 
L 1725 25 
Q 2300 -100 2850 -100 
Q 3025 -100 3025 125 
L 3025 5175 
z
M 1575 3950 
L 2050 3775 
Q 1600 1900 900 575 
L 400 900 
Q 1175 2250 1575 3950 
z
M 4850 3950 
Q 5575 2525 6075 850 
L 5525 600 
Q 5075 2350 4375 3750 
L 4850 3950 
z
" transform="scale(0.015625)"/>
      </defs>
      <use xlink:href="#WenQuanYiMicroHei-6279"/>
      <use xlink:href="#WenQuanYiMicroHei-5927" x="100"/>
      <use xlink:href="#WenQuanYiMicroHei-5c0f" x="200"/>
     </g>
    </g>
   </g>
   <g id="matplotlib.axis_2">
    <g id="ytick_1">
     <g id="line2d_8">
      <defs>
       <path id="m0213668934" d="M 0 0 
L -3.5 0 
" style="stroke: #000000; stroke-width: 0.8"/>
      </defs>
      <g>
       <use xlink:href="#m0213668934" x="57.6" y="282.455535" style="stroke: #000000; stroke-width: 0.8"/>
      </g>
     </g>
     <g id="text_9">
      <!-- 0.490 -->
      <g transform="translate(25.8875 286.254754) scale(0.1 -0.1)">
       <defs>
        <path id="WenQuanYiMicroHei-2e" d="M 459 347 
Q 459 466 490 548 
Q 522 631 575 682 
Q 628 734 700 757 
Q 772 781 856 781 
Q 938 781 1011 757 
Q 1084 734 1137 682 
Q 1191 631 1222 548 
Q 1253 466 1253 347 
Q 1253 231 1222 148 
Q 1191 66 1137 12 
Q 1084 -41 1011 -66 
Q 938 -91 856 -91 
Q 772 -91 700 -66 
Q 628 -41 575 12 
Q 522 66 490 148 
Q 459 231 459 347 
z
" transform="scale(0.015625)"/>
        <path id="WenQuanYiMicroHei-39" d="M 3213 2619 
Q 3213 2291 3180 1964 
Q 3147 1638 3064 1341 
Q 2981 1044 2837 786 
Q 2694 528 2472 340 
Q 2250 153 1940 45 
Q 1631 -63 1216 -63 
Q 1156 -63 1084 -59 
Q 1013 -56 941 -48 
Q 869 -41 800 -31 
Q 731 -22 678 -6 
L 678 481 
Q 788 441 925 422 
Q 1063 403 1197 403 
Q 1619 403 1891 550 
Q 2163 697 2322 948 
Q 2481 1200 2548 1534 
Q 2616 1869 2631 2241 
L 2591 2241 
Q 2528 2128 2440 2031 
Q 2353 1934 2234 1862 
Q 2116 1791 1966 1750 
Q 1816 1709 1631 1709 
Q 1334 1709 1093 1801 
Q 853 1894 684 2072 
Q 516 2250 423 2508 
Q 331 2766 331 3097 
Q 331 3453 429 3739 
Q 528 4025 708 4223 
Q 888 4422 1145 4528 
Q 1403 4634 1722 4634 
Q 2038 4634 2309 4512 
Q 2581 4391 2781 4141 
Q 2981 3891 3097 3511 
Q 3213 3131 3213 2619 
z
M 1728 4153 
Q 1541 4153 1386 4090 
Q 1231 4028 1118 3897 
Q 1006 3766 945 3567 
Q 884 3369 884 3097 
Q 884 2878 936 2704 
Q 988 2531 1091 2409 
Q 1194 2288 1348 2222 
Q 1503 2156 1709 2156 
Q 1922 2156 2094 2229 
Q 2266 2303 2387 2420 
Q 2509 2538 2576 2688 
Q 2644 2838 2644 2988 
Q 2644 3197 2586 3405 
Q 2528 3613 2414 3780 
Q 2300 3947 2128 4050 
Q 1956 4153 1728 4153 
z
" transform="scale(0.015625)"/>
       </defs>
       <use xlink:href="#WenQuanYiMicroHei-30"/>
       <use xlink:href="#WenQuanYiMicroHei-2e" x="55.078125"/>
       <use xlink:href="#WenQuanYiMicroHei-34" x="81.884766"/>
       <use xlink:href="#WenQuanYiMicroHei-39" x="136.962891"/>
       <use xlink:href="#WenQuanYiMicroHei-30" x="192.041016"/>
      </g>
     </g>
    </g>
    <g id="ytick_2">
     <g id="line2d_9">
      <g>
       <use xlink:href="#m0213668934" x="57.6" y="228.491768" style="stroke: #000000; stroke-width: 0.8"/>
      </g>
     </g>
     <g id="text_10">
      <!-- 0.495 -->
      <g transform="translate(25.8875 232.290986) scale(0.1 -0.1)">
       <use xlink:href="#WenQuanYiMicroHei-30"/>
       <use xlink:href="#WenQuanYiMicroHei-2e" x="55.078125"/>
       <use xlink:href="#WenQuanYiMicroHei-34" x="81.884766"/>
       <use xlink:href="#WenQuanYiMicroHei-39" x="136.962891"/>
       <use xlink:href="#WenQuanYiMicroHei-35" x="192.041016"/>
      </g>
     </g>
    </g>
    <g id="ytick_3">
     <g id="line2d_10">
      <g>
       <use xlink:href="#m0213668934" x="57.6" y="174.528" style="stroke: #000000; stroke-width: 0.8"/>
      </g>
     </g>
     <g id="text_11">
      <!-- 0.500 -->
      <g transform="translate(25.8875 178.327219) scale(0.1 -0.1)">
       <use xlink:href="#WenQuanYiMicroHei-30"/>
       <use xlink:href="#WenQuanYiMicroHei-2e" x="55.078125"/>
       <use xlink:href="#WenQuanYiMicroHei-35" x="81.884766"/>
       <use xlink:href="#WenQuanYiMicroHei-30" x="136.962891"/>
       <use xlink:href="#WenQuanYiMicroHei-30" x="192.041016"/>
      </g>
     </g>
    </g>
    <g id="ytick_4">
     <g id="line2d_11">
      <g>
       <use xlink:href="#m0213668934" x="57.6" y="120.564232" style="stroke: #000000; stroke-width: 0.8"/>
      </g>
     </g>
     <g id="text_12">
      <!-- 0.505 -->
      <g transform="translate(25.8875 124.363451) scale(0.1 -0.1)">
       <use xlink:href="#WenQuanYiMicroHei-30"/>
       <use xlink:href="#WenQuanYiMicroHei-2e" x="55.078125"/>
       <use xlink:href="#WenQuanYiMicroHei-35" x="81.884766"/>
       <use xlink:href="#WenQuanYiMicroHei-30" x="136.962891"/>
       <use xlink:href="#WenQuanYiMicroHei-35" x="192.041016"/>
      </g>
     </g>
    </g>
    <g id="ytick_5">
     <g id="line2d_12">
      <g>
       <use xlink:href="#m0213668934" x="57.6" y="66.600465" style="stroke: #000000; stroke-width: 0.8"/>
      </g>
     </g>
     <g id="text_13">
      <!-- 0.510 -->
      <g transform="translate(25.8875 70.399683) scale(0.1 -0.1)">
       <use xlink:href="#WenQuanYiMicroHei-30"/>
       <use xlink:href="#WenQuanYiMicroHei-2e" x="55.078125"/>
       <use xlink:href="#WenQuanYiMicroHei-35" x="81.884766"/>
       <use xlink:href="#WenQuanYiMicroHei-31" x="136.962891"/>
       <use xlink:href="#WenQuanYiMicroHei-30" x="192.041016"/>
      </g>
     </g>
    </g>
    <g id="text_14">
     <!-- 准确率 -->
     <g transform="translate(19.484375 189.528) rotate(-90) scale(0.1 -0.1)">
      <defs>
       <path id="WenQuanYiMicroHei-51c6" d="M 875 5000 
Q 1350 4425 1675 3725 
L 1200 3450 
Q 925 4125 425 4725 
L 875 5000 
z
M 1250 2175 
L 1675 1900 
Q 1375 675 825 -450 
L 325 -75 
Q 900 1000 1250 2175 
z
M 2875 -150 
L 2875 -575 
L 2375 -575 
L 2375 3025 
Q 2100 2625 1825 2300 
L 1575 2800 
Q 2450 3925 2825 5200 
L 3325 5025 
Q 3200 4575 2975 4150 
L 4100 4150 
Q 3975 4625 3725 5000 
L 4225 5175 
Q 4500 4700 4650 4150 
L 6050 4150 
L 6050 3675 
L 4675 3675 
L 4675 2850 
L 5875 2850 
L 5875 2425 
L 4675 2425 
L 4675 1575 
L 5875 1575 
L 5875 1125 
L 4675 1125 
L 4675 300 
L 6100 300 
L 6100 -150 
L 2875 -150 
z
M 2875 3675 
L 2875 2850 
L 4200 2850 
L 4200 3675 
L 2875 3675 
z
M 2875 2425 
L 2875 1575 
L 4200 1575 
L 4200 2425 
L 2875 2425 
z
M 2875 1125 
L 2875 300 
L 4200 300 
L 4200 1125 
L 2875 1125 
z
" transform="scale(0.015625)"/>
       <path id="WenQuanYiMicroHei-786e" d="M 3575 5175 
L 4075 5050 
Q 4025 4900 3950 4725 
L 5300 4725 
L 5300 4300 
Q 5125 3975 4925 3725 
L 5925 3725 
L 5925 0 
Q 5925 -275 5800 -412 
Q 5675 -550 5450 -550 
Q 5250 -550 4950 -500 
L 4850 -25 
Q 5175 -75 5325 -75 
Q 5450 -75 5450 75 
L 5450 950 
L 4600 950 
L 4600 -400 
L 4125 -400 
L 4125 950 
L 3325 950 
Q 3200 75 2825 -575 
L 2375 -300 
Q 2900 750 2900 1925 
L 2900 3225 
Q 2825 3150 2725 3075 
L 2400 3450 
Q 3200 4200 3575 5175 
z
M 4325 3725 
Q 4550 4000 4700 4275 
L 3725 4275 
Q 3500 3875 3350 3725 
L 4325 3725 
z
M 3375 2575 
L 4125 2575 
L 4125 3275 
L 3375 3275 
L 3375 2575 
z
M 4600 3275 
L 4600 2575 
L 5450 2575 
L 5450 3275 
L 4600 3275 
z
M 3375 1400 
L 4125 1400 
L 4125 2125 
L 3375 2125 
L 3375 1725 
L 3375 1400 
z
M 4600 2125 
L 4600 1400 
L 5450 1400 
L 5450 2125 
L 4600 2125 
z
M 400 4775 
L 2700 4775 
L 2700 4300 
L 1675 4300 
Q 1450 3425 1200 2800 
L 2450 2800 
L 2450 -50 
L 1975 -50 
L 1975 200 
L 1400 200 
L 1400 -375 
L 950 -375 
L 950 2200 
Q 725 1750 550 1525 
L 250 1925 
Q 850 2850 1175 4300 
L 400 4300 
L 400 4775 
z
M 1400 650 
L 1975 650 
L 1975 2350 
L 1400 2350 
L 1400 650 
z
" transform="scale(0.015625)"/>
       <path id="WenQuanYiMicroHei-7387" d="M 3275 5200 
Q 3475 4900 3575 4550 
L 6050 4550 
L 6050 4075 
L 350 4075 
L 350 4550 
L 2950 4550 
Q 2875 4825 2750 5025 
L 3275 5200 
z
M 2975 1625 
L 3450 1625 
L 3450 1100 
L 6000 1100 
L 6000 650 
L 3450 650 
L 3450 -575 
L 2975 -575 
L 2975 650 
L 400 650 
L 400 1100 
L 2975 1100 
L 2975 1625 
z
M 2925 4450 
L 3375 4325 
Q 3000 3550 2700 3200 
Q 3050 3200 3475 3275 
Q 3700 3525 3900 3800 
L 4350 3650 
Q 3625 2675 2725 2025 
Q 3350 2125 3875 2250 
Q 3775 2400 3650 2550 
L 4050 2750 
Q 4475 2250 4775 1625 
L 4325 1425 
Q 4225 1675 4100 1900 
Q 3150 1675 2050 1525 
L 1925 1925 
Q 2525 2300 3075 2850 
Q 2650 2775 2175 2725 
L 2100 3150 
Q 2625 3775 2925 4450 
z
M 1100 3975 
Q 1500 3625 1775 3200 
L 1325 2950 
Q 1075 3350 650 3700 
L 1100 3975 
z
M 5325 3975 
L 5750 3725 
Q 5325 3175 4900 2850 
L 4525 3200 
Q 5025 3575 5325 3975 
z
M 1625 2725 
L 2000 2450 
Q 1550 1900 875 1425 
L 500 1800 
Q 1200 2275 1625 2725 
z
M 4925 2650 
Q 5450 2350 5900 1925 
L 5525 1475 
Q 5100 1975 4600 2300 
L 4925 2650 
z
" transform="scale(0.015625)"/>
      </defs>
      <use xlink:href="#WenQuanYiMicroHei-51c6"/>
      <use xlink:href="#WenQuanYiMicroHei-786e" x="100"/>
      <use xlink:href="#WenQuanYiMicroHei-7387" x="200"/>
     </g>
    </g>
   </g>
   <g id="line2d_13">
    <path d="M 73.832727 138.110733 
L 127.941818 138.110733 
L 182.050909 138.110733 
L 236.16 210.945267 
L 290.269091 138.110733 
L 344.378182 138.110733 
L 398.487273 138.110733 
" clip-path="url(#pe055a94607)" style="fill: none; stroke: #1f77b4; stroke-width: 1.5; stroke-linecap: square"/>
   </g>
   <g id="line2d_14">
    <path d="M 73.832727 295.488 
L 127.941818 295.488 
L 182.050909 295.488 
L 236.16 53.568 
L 290.269091 295.488 
L 344.378182 295.488 
L 398.487273 295.488 
" clip-path="url(#pe055a94607)" style="fill: none; stroke: #ff7f0e; stroke-width: 1.5; stroke-linecap: square"/>
   </g>
   <g id="patch_3">
    <path d="M 57.6 307.584 
L 57.6 41.472 
" style="fill: none; stroke: #000000; stroke-width: 0.8; stroke-linejoin: miter; stroke-linecap: square"/>
   </g>
   <g id="patch_4">
    <path d="M 414.72 307.584 
L 414.72 41.472 
" style="fill: none; stroke: #000000; stroke-width: 0.8; stroke-linejoin: miter; stroke-linecap: square"/>
   </g>
   <g id="patch_5">
    <path d="M 57.6 307.584 
L 414.72 307.584 
" style="fill: none; stroke: #000000; stroke-width: 0.8; stroke-linejoin: miter; stroke-linecap: square"/>
   </g>
   <g id="patch_6">
    <path d="M 57.6 41.472 
L 414.72 41.472 
" style="fill: none; stroke: #000000; stroke-width: 0.8; stroke-linejoin: miter; stroke-linecap: square"/>
   </g>
   <g id="legend_1">
    <g id="patch_7">
     <path d="M 305.72 79.475125 
L 407.72 79.475125 
Q 409.72 79.475125 409.72 77.475125 
L 409.72 48.472 
Q 409.72 46.472 407.72 46.472 
L 305.72 46.472 
Q 303.72 46.472 303.72 48.472 
L 303.72 77.475125 
Q 303.72 79.475125 305.72 79.475125 
z
" style="fill: #ffffff; opacity: 0.8; stroke: #cccccc; stroke-linejoin: miter"/>
    </g>
    <g id="line2d_15">
     <path d="M 307.72 54.570437 
L 317.72 54.570437 
L 327.72 54.570437 
" style="fill: none; stroke: #1f77b4; stroke-width: 1.5; stroke-linecap: square"/>
    </g>
    <g id="text_15">
     <!-- 训练集上准确率 -->
     <g transform="translate(335.72 58.070437) scale(0.1 -0.1)">
      <defs>
       <path id="WenQuanYiMicroHei-8bad" d="M 1250 5175 
Q 1650 4675 1900 4125 
L 1425 3850 
Q 1200 4400 800 4900 
L 1250 5175 
z
M 325 3325 
L 1625 3325 
L 1625 575 
L 1950 1025 
L 2250 750 
Q 1975 225 1525 -250 
L 1150 75 
L 1150 2875 
L 325 2875 
L 325 3325 
z
M 5375 5200 
L 5875 5200 
L 5875 -575 
L 5375 -575 
L 5375 5200 
z
M 2950 5200 
L 3450 5200 
L 3450 1900 
Q 3450 375 2575 -600 
L 2175 -275 
Q 2950 600 2950 1900 
L 2950 5200 
z
M 4175 4875 
L 4650 4875 
L 4650 -100 
L 4175 -100 
L 4175 4875 
z
" transform="scale(0.015625)"/>
       <path id="WenQuanYiMicroHei-7ec3" d="M 2000 4150 
L 2450 3975 
Q 1825 2575 1075 1750 
Q 1675 1900 2150 2075 
L 2275 1700 
Q 1475 1375 525 1200 
L 375 1600 
Q 900 2150 1375 2950 
Q 950 2875 525 2825 
L 425 3275 
Q 950 4000 1300 5175 
L 1775 5025 
Q 1450 3925 950 3300 
Q 1325 3325 1600 3375 
Q 1825 3750 2000 4150 
z
M 2175 950 
L 2275 500 
Q 1475 175 525 -50 
L 325 475 
Q 1350 700 2175 950 
z
M 4000 5175 
L 4475 5075 
L 4275 4350 
L 5975 4350 
L 5975 3875 
L 4100 3875 
Q 4025 3600 3900 3350 
L 4875 3350 
L 4875 2050 
L 5900 2050 
L 5900 1625 
L 4875 1625 
L 4875 0 
Q 4875 -275 4750 -412 
Q 4625 -550 4375 -550 
Q 4125 -550 3725 -500 
L 3600 -25 
Q 4075 -75 4250 -75 
Q 4375 -75 4375 75 
L 4375 1625 
L 2775 1625 
L 2675 2050 
Q 2925 2425 3150 2875 
L 2625 2875 
L 2625 3350 
L 3375 3350 
L 3575 3875 
L 2575 3875 
L 2575 4350 
L 3750 4350 
L 4000 5175 
z
M 4375 2050 
L 4375 2875 
L 3725 2875 
Q 3500 2425 3275 2050 
L 4375 2050 
z
M 5500 1350 
Q 5875 725 6125 25 
L 5625 -200 
Q 5400 550 5075 1150 
L 5500 1350 
z
M 3100 1350 
L 3550 1075 
Q 3150 200 2725 -300 
L 2325 50 
Q 2800 650 3100 1350 
z
" transform="scale(0.015625)"/>
       <path id="WenQuanYiMicroHei-96c6" d="M 1625 5200 
L 2100 5050 
L 1900 4675 
L 3200 4675 
Q 3125 4850 3000 5025 
L 3450 5175 
Q 3600 4925 3700 4675 
L 5750 4675 
L 5750 4250 
L 3700 4250 
L 3700 3900 
L 5425 3900 
L 5425 3500 
L 3700 3500 
L 3700 3125 
L 5425 3125 
L 5425 2750 
L 3700 2750 
L 3700 2400 
L 5825 2400 
L 5825 1975 
L 1650 1975 
L 1650 1725 
L 1150 1725 
L 1150 3675 
Q 875 3400 575 3175 
L 325 3625 
Q 1225 4375 1625 5200 
z
M 3200 3900 
L 3200 4250 
L 1650 4250 
L 1650 3900 
L 3200 3900 
z
M 3200 3125 
L 3200 3500 
L 1650 3500 
L 1650 3125 
L 3200 3125 
z
M 3200 2400 
L 3200 2750 
L 1650 2750 
L 1650 2400 
L 3200 2400 
z
M 425 1400 
L 2950 1400 
L 2950 1800 
L 3450 1800 
L 3450 1400 
L 5950 1400 
L 5950 975 
L 3850 975 
Q 4725 375 6100 75 
L 5825 -450 
Q 4350 0 3450 850 
L 3450 -600 
L 2950 -600 
L 2950 875 
Q 2050 50 625 -425 
L 300 25 
Q 1625 375 2475 975 
L 425 975 
L 425 1400 
z
" transform="scale(0.015625)"/>
       <path id="WenQuanYiMicroHei-4e0a" d="M 2675 5075 
L 3200 5075 
L 3200 3325 
L 5650 3325 
L 5650 2825 
L 3200 2825 
L 3200 200 
L 5950 200 
L 5950 -300 
L 500 -300 
L 500 200 
L 2675 200 
L 2675 5075 
z
" transform="scale(0.015625)"/>
      </defs>
      <use xlink:href="#WenQuanYiMicroHei-8bad"/>
      <use xlink:href="#WenQuanYiMicroHei-7ec3" x="100"/>
      <use xlink:href="#WenQuanYiMicroHei-96c6" x="200"/>
      <use xlink:href="#WenQuanYiMicroHei-4e0a" x="300"/>
      <use xlink:href="#WenQuanYiMicroHei-51c6" x="400"/>
      <use xlink:href="#WenQuanYiMicroHei-786e" x="500"/>
      <use xlink:href="#WenQuanYiMicroHei-7387" x="600"/>
     </g>
    </g>
    <g id="line2d_16">
     <path d="M 307.72 69.572 
L 317.72 69.572 
L 327.72 69.572 
" style="fill: none; stroke: #ff7f0e; stroke-width: 1.5; stroke-linecap: square"/>
    </g>
    <g id="text_16">
     <!-- 验证集上准确率 -->
     <g transform="translate(335.72 73.072) scale(0.1 -0.1)">
      <defs>
       <path id="WenQuanYiMicroHei-9a8c" d="M 475 4975 
L 2375 4975 
L 2200 2350 
L 2625 2350 
Q 2550 300 2350 -125 
Q 2150 -550 1700 -550 
L 1325 -550 
L 1225 -75 
Q 1775 -75 1825 -25 
Q 1925 75 1975 400 
Q 2050 875 2075 1900 
L 550 1900 
L 750 4150 
L 1200 4075 
L 1075 2350 
L 1725 2350 
L 1900 4550 
L 475 4550 
L 475 4975 
z
M 1600 1425 
L 1700 975 
Q 1200 600 575 325 
L 400 825 
Q 1050 1075 1600 1425 
z
M 4100 5100 
L 4600 4950 
Q 4550 4825 4475 4700 
Q 5225 3700 6050 3175 
L 5775 2675 
Q 5550 2825 5350 3000 
L 5350 2625 
L 3175 2625 
L 3175 2950 
Q 2975 2800 2800 2650 
L 2500 3100 
Q 3600 4050 4100 5100 
z
M 3300 3075 
L 5275 3075 
Q 4775 3525 4225 4275 
Q 3775 3550 3300 3075 
z
M 2725 150 
L 4525 150 
Q 4925 1250 5150 2325 
L 5675 2150 
Q 5375 1000 5025 150 
L 5925 150 
L 5925 -350 
L 2725 -350 
L 2725 150 
z
M 4225 2250 
Q 4425 1550 4525 825 
L 4025 700 
Q 3975 1475 3775 2150 
L 4225 2250 
z
M 3275 2100 
Q 3575 1325 3650 500 
L 3200 375 
Q 3100 1250 2825 2000 
L 3275 2100 
z
" transform="scale(0.015625)"/>
       <path id="WenQuanYiMicroHei-8bc1" d="M 1225 5175 
Q 1575 4700 1800 4175 
L 1325 3900 
Q 1125 4425 775 4900 
L 1225 5175 
z
M 325 3325 
L 1500 3325 
L 1500 475 
Q 1700 675 1900 950 
L 2225 650 
Q 1925 175 1400 -250 
L 1050 75 
L 1050 2875 
L 325 2875 
L 325 3325 
z
M 2450 4850 
L 5975 4850 
L 5975 4375 
L 4525 4375 
L 4525 2475 
L 5775 2475 
L 5775 2000 
L 4525 2000 
L 4525 125 
L 6100 125 
L 6100 -350 
L 2025 -350 
L 2025 125 
L 2625 125 
L 2625 3250 
L 3125 3250 
L 3125 125 
L 4025 125 
L 4025 4375 
L 2450 4375 
L 2450 4850 
z
" transform="scale(0.015625)"/>
      </defs>
      <use xlink:href="#WenQuanYiMicroHei-9a8c"/>
      <use xlink:href="#WenQuanYiMicroHei-8bc1" x="100"/>
      <use xlink:href="#WenQuanYiMicroHei-96c6" x="200"/>
      <use xlink:href="#WenQuanYiMicroHei-4e0a" x="300"/>
      <use xlink:href="#WenQuanYiMicroHei-51c6" x="400"/>
      <use xlink:href="#WenQuanYiMicroHei-786e" x="500"/>
      <use xlink:href="#WenQuanYiMicroHei-7387" x="600"/>
     </g>
    </g>
   </g>
  </g>
 </g>
 <defs>
  <clipPath id="pe055a94607">
   <rect x="57.6" y="41.472" width="357.12" height="266.112"/>
  </clipPath>
 </defs>
</svg>
