<?xml version="1.0" encoding="utf-8" standalone="no"?>
<!DOCTYPE svg PUBLIC "-//W3C//DTD SVG 1.1//EN"
  "http://www.w3.org/Graphics/SVG/1.1/DTD/svg11.dtd">
<svg xmlns:xlink="http://www.w3.org/1999/xlink" width="460.8pt" height="345.6pt" viewBox="0 0 460.8 345.6" xmlns="http://www.w3.org/2000/svg" version="1.1">
 <metadata>
  <rdf:RDF xmlns:dc="http://purl.org/dc/elements/1.1/" xmlns:cc="http://creativecommons.org/ns#" xmlns:rdf="http://www.w3.org/1999/02/22-rdf-syntax-ns#">
   <cc:Work>
    <dc:type rdf:resource="http://purl.org/dc/dcmitype/StillImage"/>
    <dc:date>2024-10-27T19:44:05.530632</dc:date>
    <dc:format>image/svg+xml</dc:format>
    <dc:creator>
     <cc:Agent>
      <dc:title>Matplotlib v3.9.2, https://matplotlib.org/</dc:title>
     </cc:Agent>
    </dc:creator>
   </cc:Work>
  </rdf:RDF>
 </metadata>
 <defs>
  <style type="text/css">*{stroke-linejoin: round; stroke-linecap: butt}</style>
 </defs>
 <g id="figure_1">
  <g id="patch_1">
   <path d="M 0 345.6 
L 460.8 345.6 
L 460.8 0 
L 0 0 
z
" style="fill: #ffffff"/>
  </g>
  <g id="axes_1">
   <g id="patch_2">
    <path d="M 57.6 307.584 
L 414.72 307.584 
L 414.72 41.472 
L 57.6 41.472 
z
" style="fill: #ffffff"/>
   </g>
   <g id="matplotlib.axis_1">
    <g id="xtick_1">
     <g id="line2d_1">
      <defs>
       <path id="m085abdb6c2" d="M 0 0 
L 0 3.5 
" style="stroke: #000000; stroke-width: 0.8"/>
      </defs>
      <g>
       <use xlink:href="#m085abdb6c2" x="73.832727" y="307.584" style="stroke: #000000; stroke-width: 0.8"/>
      </g>
     </g>
     <g id="text_1">
      <!-- $\mathdefault{10^{-10}}$ -->
      <g transform="translate(62.332727 322.182437) scale(0.1 -0.1)">
       <defs>
        <path id="WenQuanYiMicroHei-31" d="M 2222 0 
L 1672 0 
L 1672 2853 
Q 1672 2988 1673 3141 
Q 1675 3294 1679 3445 
Q 1684 3597 1689 3736 
Q 1694 3875 1697 3981 
Q 1644 3925 1603 3884 
Q 1563 3844 1520 3806 
Q 1478 3769 1431 3726 
Q 1384 3684 1319 3628 
L 856 3250 
L 556 3634 
L 1753 4569 
L 2222 4569 
L 2222 0 
z
" transform="scale(0.015625)"/>
        <path id="WenQuanYiMicroHei-30" d="M 3225 2291 
Q 3225 1738 3145 1300 
Q 3066 863 2889 559 
Q 2713 256 2434 96 
Q 2156 -63 1759 -63 
Q 1391 -63 1117 96 
Q 844 256 664 559 
Q 484 863 395 1300 
Q 306 1738 306 2291 
Q 306 2844 386 3281 
Q 466 3719 639 4020 
Q 813 4322 1089 4481 
Q 1366 4641 1759 4641 
Q 2131 4641 2406 4483 
Q 2681 4325 2862 4023 
Q 3044 3722 3134 3284 
Q 3225 2847 3225 2291 
z
M 884 2291 
Q 884 1822 931 1472 
Q 978 1122 1081 889 
Q 1184 656 1351 539 
Q 1519 422 1759 422 
Q 2000 422 2169 537 
Q 2338 653 2445 884 
Q 2553 1116 2601 1467 
Q 2650 1819 2650 2291 
Q 2650 2759 2601 3109 
Q 2553 3459 2445 3690 
Q 2338 3922 2169 4037 
Q 2000 4153 1759 4153 
Q 1519 4153 1351 4037 
Q 1184 3922 1081 3690 
Q 978 3459 931 3109 
Q 884 2759 884 2291 
z
" transform="scale(0.015625)"/>
        <path id="WenQuanYiMicroHei-2212" d="M 319 2022 
L 319 2491 
L 3206 2491 
L 3206 2022 
L 319 2022 
z
" transform="scale(0.015625)"/>
       </defs>
       <use xlink:href="#WenQuanYiMicroHei-31" transform="translate(0 0.7125)"/>
       <use xlink:href="#WenQuanYiMicroHei-30" transform="translate(55.078125 0.7125)"/>
       <use xlink:href="#WenQuanYiMicroHei-2212" transform="translate(111.094414 38.239063) scale(0.7)"/>
       <use xlink:href="#WenQuanYiMicroHei-31" transform="translate(149.649102 38.239063) scale(0.7)"/>
       <use xlink:href="#WenQuanYiMicroHei-30" transform="translate(188.203789 38.239063) scale(0.7)"/>
      </g>
     </g>
    </g>
    <g id="xtick_2">
     <g id="line2d_2">
      <g>
       <use xlink:href="#m085abdb6c2" x="112.02738" y="307.584" style="stroke: #000000; stroke-width: 0.8"/>
      </g>
     </g>
     <g id="text_2">
      <!-- $\mathdefault{10^{-9}}$ -->
      <g transform="translate(102.47738 322.182437) scale(0.1 -0.1)">
       <defs>
        <path id="WenQuanYiMicroHei-39" d="M 3213 2619 
Q 3213 2291 3180 1964 
Q 3147 1638 3064 1341 
Q 2981 1044 2837 786 
Q 2694 528 2472 340 
Q 2250 153 1940 45 
Q 1631 -63 1216 -63 
Q 1156 -63 1084 -59 
Q 1013 -56 941 -48 
Q 869 -41 800 -31 
Q 731 -22 678 -6 
L 678 481 
Q 788 441 925 422 
Q 1063 403 1197 403 
Q 1619 403 1891 550 
Q 2163 697 2322 948 
Q 2481 1200 2548 1534 
Q 2616 1869 2631 2241 
L 2591 2241 
Q 2528 2128 2440 2031 
Q 2353 1934 2234 1862 
Q 2116 1791 1966 1750 
Q 1816 1709 1631 1709 
Q 1334 1709 1093 1801 
Q 853 1894 684 2072 
Q 516 2250 423 2508 
Q 331 2766 331 3097 
Q 331 3453 429 3739 
Q 528 4025 708 4223 
Q 888 4422 1145 4528 
Q 1403 4634 1722 4634 
Q 2038 4634 2309 4512 
Q 2581 4391 2781 4141 
Q 2981 3891 3097 3511 
Q 3213 3131 3213 2619 
z
M 1728 4153 
Q 1541 4153 1386 4090 
Q 1231 4028 1118 3897 
Q 1006 3766 945 3567 
Q 884 3369 884 3097 
Q 884 2878 936 2704 
Q 988 2531 1091 2409 
Q 1194 2288 1348 2222 
Q 1503 2156 1709 2156 
Q 1922 2156 2094 2229 
Q 2266 2303 2387 2420 
Q 2509 2538 2576 2688 
Q 2644 2838 2644 2988 
Q 2644 3197 2586 3405 
Q 2528 3613 2414 3780 
Q 2300 3947 2128 4050 
Q 1956 4153 1728 4153 
z
" transform="scale(0.015625)"/>
       </defs>
       <use xlink:href="#WenQuanYiMicroHei-31" transform="translate(0 0.789062)"/>
       <use xlink:href="#WenQuanYiMicroHei-30" transform="translate(55.078125 0.789062)"/>
       <use xlink:href="#WenQuanYiMicroHei-2212" transform="translate(111.094414 38.315625) scale(0.7)"/>
       <use xlink:href="#WenQuanYiMicroHei-39" transform="translate(149.649102 38.315625) scale(0.7)"/>
      </g>
     </g>
    </g>
    <g id="xtick_3">
     <g id="line2d_3">
      <g>
       <use xlink:href="#m085abdb6c2" x="150.222032" y="307.584" style="stroke: #000000; stroke-width: 0.8"/>
      </g>
     </g>
     <g id="text_3">
      <!-- $\mathdefault{10^{-8}}$ -->
      <g transform="translate(140.672032 322.182437) scale(0.1 -0.1)">
       <defs>
        <path id="WenQuanYiMicroHei-38" d="M 1766 4641 
Q 2028 4641 2261 4572 
Q 2494 4503 2670 4365 
Q 2847 4228 2950 4022 
Q 3053 3816 3053 3541 
Q 3053 3331 2990 3162 
Q 2928 2994 2818 2858 
Q 2709 2722 2559 2614 
Q 2409 2506 2234 2419 
Q 2416 2322 2589 2203 
Q 2763 2084 2898 1936 
Q 3034 1788 3117 1603 
Q 3200 1419 3200 1191 
Q 3200 903 3095 670 
Q 2991 438 2802 275 
Q 2613 113 2348 25 
Q 2084 -63 1766 -63 
Q 1422 -63 1155 21 
Q 888 106 705 264 
Q 522 422 426 650 
Q 331 878 331 1166 
Q 331 1400 401 1587 
Q 472 1775 590 1925 
Q 709 2075 871 2190 
Q 1034 2306 1216 2394 
Q 1063 2491 928 2605 
Q 794 2719 695 2859 
Q 597 3000 539 3170 
Q 481 3341 481 3547 
Q 481 3819 586 4023 
Q 691 4228 869 4365 
Q 1047 4503 1280 4572 
Q 1513 4641 1766 4641 
z
M 891 1159 
Q 891 994 941 855 
Q 991 716 1097 617 
Q 1203 519 1365 464 
Q 1528 409 1753 409 
Q 1972 409 2139 464 
Q 2306 519 2418 620 
Q 2531 722 2587 865 
Q 2644 1009 2644 1184 
Q 2644 1347 2583 1478 
Q 2522 1609 2408 1721 
Q 2294 1834 2134 1934 
Q 1975 2034 1778 2131 
L 1684 2175 
Q 1291 1988 1091 1745 
Q 891 1503 891 1159 
z
M 1759 4166 
Q 1428 4166 1233 4000 
Q 1038 3834 1038 3519 
Q 1038 3341 1092 3212 
Q 1147 3084 1244 2984 
Q 1341 2884 1477 2804 
Q 1613 2725 1772 2650 
Q 1922 2719 2055 2800 
Q 2188 2881 2286 2984 
Q 2384 3088 2440 3219 
Q 2497 3350 2497 3519 
Q 2497 3834 2300 4000 
Q 2103 4166 1759 4166 
z
" transform="scale(0.015625)"/>
       </defs>
       <use xlink:href="#WenQuanYiMicroHei-31" transform="translate(0 0.7125)"/>
       <use xlink:href="#WenQuanYiMicroHei-30" transform="translate(55.078125 0.7125)"/>
       <use xlink:href="#WenQuanYiMicroHei-2212" transform="translate(111.094414 38.239063) scale(0.7)"/>
       <use xlink:href="#WenQuanYiMicroHei-38" transform="translate(149.649102 38.239063) scale(0.7)"/>
      </g>
     </g>
    </g>
    <g id="xtick_4">
     <g id="line2d_4">
      <g>
       <use xlink:href="#m085abdb6c2" x="188.416684" y="307.584" style="stroke: #000000; stroke-width: 0.8"/>
      </g>
     </g>
     <g id="text_4">
      <!-- $\mathdefault{10^{-7}}$ -->
      <g transform="translate(178.866684 322.182437) scale(0.1 -0.1)">
       <defs>
        <path id="WenQuanYiMicroHei-37" d="M 878 0 
L 2638 4050 
L 281 4050 
L 281 4569 
L 3219 4569 
L 3219 4116 
L 1484 0 
L 878 0 
z
" transform="scale(0.015625)"/>
       </defs>
       <use xlink:href="#WenQuanYiMicroHei-31" transform="translate(0 0.5)"/>
       <use xlink:href="#WenQuanYiMicroHei-30" transform="translate(55.078125 0.5)"/>
       <use xlink:href="#WenQuanYiMicroHei-2212" transform="translate(111.094414 38.026562) scale(0.7)"/>
       <use xlink:href="#WenQuanYiMicroHei-37" transform="translate(149.649102 38.026562) scale(0.7)"/>
      </g>
     </g>
    </g>
    <g id="xtick_5">
     <g id="line2d_5">
      <g>
       <use xlink:href="#m085abdb6c2" x="226.611337" y="307.584" style="stroke: #000000; stroke-width: 0.8"/>
      </g>
     </g>
     <g id="text_5">
      <!-- $\mathdefault{10^{-6}}$ -->
      <g transform="translate(217.061337 322.182437) scale(0.1 -0.1)">
       <defs>
        <path id="WenQuanYiMicroHei-36" d="M 353 1953 
Q 353 2281 386 2606 
Q 419 2931 501 3229 
Q 584 3528 728 3784 
Q 872 4041 1094 4230 
Q 1316 4419 1625 4526 
Q 1934 4634 2350 4634 
Q 2409 4634 2481 4631 
Q 2553 4628 2626 4620 
Q 2700 4613 2767 4602 
Q 2834 4591 2888 4575 
L 2888 4091 
Q 2778 4128 2640 4147 
Q 2503 4166 2369 4166 
Q 2088 4166 1873 4098 
Q 1659 4031 1503 3909 
Q 1347 3788 1242 3619 
Q 1138 3450 1072 3245 
Q 1006 3041 975 2809 
Q 944 2578 934 2328 
L 972 2328 
Q 1034 2441 1123 2539 
Q 1213 2638 1331 2708 
Q 1450 2778 1598 2818 
Q 1747 2859 1931 2859 
Q 2228 2859 2468 2767 
Q 2709 2675 2878 2497 
Q 3047 2319 3139 2061 
Q 3231 1803 3231 1472 
Q 3231 1116 3134 831 
Q 3038 547 2856 348 
Q 2675 150 2419 43 
Q 2163 -63 1844 -63 
Q 1531 -63 1257 59 
Q 984 181 784 431 
Q 584 681 468 1059 
Q 353 1438 353 1953 
z
M 1838 416 
Q 2025 416 2179 480 
Q 2334 544 2446 673 
Q 2559 803 2620 1001 
Q 2681 1200 2681 1472 
Q 2681 1691 2629 1864 
Q 2578 2038 2475 2159 
Q 2372 2281 2217 2347 
Q 2063 2413 1856 2413 
Q 1647 2413 1473 2339 
Q 1300 2266 1178 2148 
Q 1056 2031 989 1881 
Q 922 1731 922 1581 
Q 922 1372 980 1164 
Q 1038 956 1152 790 
Q 1266 625 1437 520 
Q 1609 416 1838 416 
z
" transform="scale(0.015625)"/>
       </defs>
       <use xlink:href="#WenQuanYiMicroHei-31" transform="translate(0 0.789062)"/>
       <use xlink:href="#WenQuanYiMicroHei-30" transform="translate(55.078125 0.789062)"/>
       <use xlink:href="#WenQuanYiMicroHei-2212" transform="translate(111.094414 38.315625) scale(0.7)"/>
       <use xlink:href="#WenQuanYiMicroHei-36" transform="translate(149.649102 38.315625) scale(0.7)"/>
      </g>
     </g>
    </g>
    <g id="xtick_6">
     <g id="line2d_6">
      <g>
       <use xlink:href="#m085abdb6c2" x="264.805989" y="307.584" style="stroke: #000000; stroke-width: 0.8"/>
      </g>
     </g>
     <g id="text_6">
      <!-- $\mathdefault{10^{-5}}$ -->
      <g transform="translate(255.255989 322.182437) scale(0.1 -0.1)">
       <defs>
        <path id="WenQuanYiMicroHei-35" d="M 1703 2803 
Q 2013 2803 2280 2717 
Q 2547 2631 2745 2462 
Q 2944 2294 3056 2044 
Q 3169 1794 3169 1466 
Q 3169 1109 3062 825 
Q 2956 541 2747 344 
Q 2538 147 2230 42 
Q 1922 -63 1522 -63 
Q 1363 -63 1208 -47 
Q 1053 -31 911 -1 
Q 769 28 641 75 
Q 513 122 409 184 
L 409 722 
Q 513 650 652 594 
Q 791 538 944 500 
Q 1097 463 1251 442 
Q 1406 422 1538 422 
Q 1784 422 1978 480 
Q 2172 538 2306 659 
Q 2441 781 2512 965 
Q 2584 1150 2584 1403 
Q 2584 1850 2309 2086 
Q 2034 2322 1509 2322 
Q 1425 2322 1326 2314 
Q 1228 2306 1129 2293 
Q 1031 2281 942 2267 
Q 853 2253 788 2241 
L 506 2419 
L 678 4569 
L 2834 4569 
L 2834 4050 
L 1172 4050 
L 1050 2741 
Q 1150 2759 1314 2781 
Q 1478 2803 1703 2803 
z
" transform="scale(0.015625)"/>
       </defs>
       <use xlink:href="#WenQuanYiMicroHei-31" transform="translate(0 0.5)"/>
       <use xlink:href="#WenQuanYiMicroHei-30" transform="translate(55.078125 0.5)"/>
       <use xlink:href="#WenQuanYiMicroHei-2212" transform="translate(111.094414 38.026562) scale(0.7)"/>
       <use xlink:href="#WenQuanYiMicroHei-35" transform="translate(149.649102 38.026562) scale(0.7)"/>
      </g>
     </g>
    </g>
    <g id="xtick_7">
     <g id="line2d_7">
      <g>
       <use xlink:href="#m085abdb6c2" x="303.000642" y="307.584" style="stroke: #000000; stroke-width: 0.8"/>
      </g>
     </g>
     <g id="text_7">
      <!-- $\mathdefault{10^{-4}}$ -->
      <g transform="translate(293.450642 322.182437) scale(0.1 -0.1)">
       <defs>
        <path id="WenQuanYiMicroHei-34" d="M 3397 1025 
L 2731 1025 
L 2731 0 
L 2181 0 
L 2181 1025 
L 72 1025 
L 72 1522 
L 2144 4594 
L 2731 4594 
L 2731 1544 
L 3397 1544 
L 3397 1025 
z
M 2181 1544 
L 2181 2656 
Q 2181 2831 2186 3023 
Q 2191 3216 2197 3398 
Q 2203 3581 2211 3740 
Q 2219 3900 2222 4006 
L 2194 4006 
Q 2172 3944 2139 3867 
Q 2106 3791 2067 3714 
Q 2028 3638 1987 3566 
Q 1947 3494 1913 3444 
L 628 1544 
L 2181 1544 
z
" transform="scale(0.015625)"/>
       </defs>
       <use xlink:href="#WenQuanYiMicroHei-31" transform="translate(0 0.226562)"/>
       <use xlink:href="#WenQuanYiMicroHei-30" transform="translate(55.078125 0.226562)"/>
       <use xlink:href="#WenQuanYiMicroHei-2212" transform="translate(111.094414 37.753125) scale(0.7)"/>
       <use xlink:href="#WenQuanYiMicroHei-34" transform="translate(149.649102 37.753125) scale(0.7)"/>
      </g>
     </g>
    </g>
    <g id="xtick_8">
     <g id="line2d_8">
      <g>
       <use xlink:href="#m085abdb6c2" x="341.195294" y="307.584" style="stroke: #000000; stroke-width: 0.8"/>
      </g>
     </g>
     <g id="text_8">
      <!-- $\mathdefault{10^{-3}}$ -->
      <g transform="translate(331.645294 322.182437) scale(0.1 -0.1)">
       <defs>
        <path id="WenQuanYiMicroHei-33" d="M 3003 3500 
Q 3003 3272 2931 3084 
Q 2859 2897 2729 2759 
Q 2600 2622 2419 2533 
Q 2238 2444 2016 2406 
L 2016 2388 
Q 2569 2319 2856 2036 
Q 3144 1753 3144 1300 
Q 3144 1000 3042 750 
Q 2941 500 2734 319 
Q 2528 138 2212 37 
Q 1897 -63 1466 -63 
Q 1125 -63 823 -9 
Q 522 44 256 184 
L 256 716 
Q 528 572 845 494 
Q 1163 416 1453 416 
Q 1741 416 1950 478 
Q 2159 541 2295 656 
Q 2431 772 2495 940 
Q 2559 1109 2559 1319 
Q 2559 1531 2476 1682 
Q 2394 1834 2241 1932 
Q 2088 2031 1867 2078 
Q 1647 2125 1369 2125 
L 953 2125 
L 953 2597 
L 1369 2597 
Q 1622 2597 1819 2659 
Q 2016 2722 2148 2837 
Q 2281 2953 2350 3112 
Q 2419 3272 2419 3463 
Q 2419 3625 2362 3753 
Q 2306 3881 2203 3970 
Q 2100 4059 1956 4106 
Q 1813 4153 1638 4153 
Q 1303 4153 1048 4048 
Q 794 3944 563 3775 
L 275 4166 
Q 394 4263 539 4347 
Q 684 4431 856 4495 
Q 1028 4559 1223 4596 
Q 1419 4634 1638 4634 
Q 1975 4634 2229 4550 
Q 2484 4466 2656 4314 
Q 2828 4163 2915 3955 
Q 3003 3747 3003 3500 
z
" transform="scale(0.015625)"/>
       </defs>
       <use xlink:href="#WenQuanYiMicroHei-31" transform="translate(0 0.789062)"/>
       <use xlink:href="#WenQuanYiMicroHei-30" transform="translate(55.078125 0.789062)"/>
       <use xlink:href="#WenQuanYiMicroHei-2212" transform="translate(111.094414 38.315625) scale(0.7)"/>
       <use xlink:href="#WenQuanYiMicroHei-33" transform="translate(149.649102 38.315625) scale(0.7)"/>
      </g>
     </g>
    </g>
    <g id="xtick_9">
     <g id="line2d_9">
      <g>
       <use xlink:href="#m085abdb6c2" x="379.389947" y="307.584" style="stroke: #000000; stroke-width: 0.8"/>
      </g>
     </g>
     <g id="text_9">
      <!-- $\mathdefault{10^{-2}}$ -->
      <g transform="translate(369.839947 322.182437) scale(0.1 -0.1)">
       <defs>
        <path id="WenQuanYiMicroHei-32" d="M 3150 0 
L 300 0 
L 300 488 
L 1394 1678 
Q 1628 1931 1812 2140 
Q 1997 2350 2126 2550 
Q 2256 2750 2325 2951 
Q 2394 3153 2394 3391 
Q 2394 3575 2341 3715 
Q 2288 3856 2189 3954 
Q 2091 4053 1956 4103 
Q 1822 4153 1656 4153 
Q 1359 4153 1120 4033 
Q 881 3913 666 3725 
L 347 4097 
Q 472 4209 615 4307 
Q 759 4406 925 4478 
Q 1091 4550 1275 4592 
Q 1459 4634 1663 4634 
Q 1963 4634 2205 4550 
Q 2447 4466 2615 4308 
Q 2784 4150 2876 3923 
Q 2969 3697 2969 3413 
Q 2969 3147 2886 2906 
Q 2803 2666 2658 2433 
Q 2513 2200 2311 1965 
Q 2109 1731 1875 1478 
L 997 544 
L 997 519 
L 3150 519 
L 3150 0 
z
" transform="scale(0.015625)"/>
       </defs>
       <use xlink:href="#WenQuanYiMicroHei-31" transform="translate(0 0.789062)"/>
       <use xlink:href="#WenQuanYiMicroHei-30" transform="translate(55.078125 0.789062)"/>
       <use xlink:href="#WenQuanYiMicroHei-2212" transform="translate(111.094414 38.315625) scale(0.7)"/>
       <use xlink:href="#WenQuanYiMicroHei-32" transform="translate(149.649102 38.315625) scale(0.7)"/>
      </g>
     </g>
    </g>
    <g id="xtick_10">
     <g id="line2d_10">
      <defs>
       <path id="mba6e6c51f1" d="M 0 0 
L 0 2 
" style="stroke: #000000; stroke-width: 0.6"/>
      </defs>
      <g>
       <use xlink:href="#mba6e6c51f1" x="58.633547" y="307.584" style="stroke: #000000; stroke-width: 0.6"/>
      </g>
     </g>
    </g>
    <g id="xtick_11">
     <g id="line2d_11">
      <g>
       <use xlink:href="#mba6e6c51f1" x="62.334991" y="307.584" style="stroke: #000000; stroke-width: 0.6"/>
      </g>
     </g>
    </g>
    <g id="xtick_12">
     <g id="line2d_12">
      <g>
       <use xlink:href="#mba6e6c51f1" x="65.359291" y="307.584" style="stroke: #000000; stroke-width: 0.6"/>
      </g>
     </g>
    </g>
    <g id="xtick_13">
     <g id="line2d_13">
      <g>
       <use xlink:href="#mba6e6c51f1" x="67.916301" y="307.584" style="stroke: #000000; stroke-width: 0.6"/>
      </g>
     </g>
    </g>
    <g id="xtick_14">
     <g id="line2d_14">
      <g>
       <use xlink:href="#mba6e6c51f1" x="70.131283" y="307.584" style="stroke: #000000; stroke-width: 0.6"/>
      </g>
     </g>
    </g>
    <g id="xtick_15">
     <g id="line2d_15">
      <g>
       <use xlink:href="#mba6e6c51f1" x="72.085036" y="307.584" style="stroke: #000000; stroke-width: 0.6"/>
      </g>
     </g>
    </g>
    <g id="xtick_16">
     <g id="line2d_16">
      <g>
       <use xlink:href="#mba6e6c51f1" x="85.330463" y="307.584" style="stroke: #000000; stroke-width: 0.6"/>
      </g>
     </g>
    </g>
    <g id="xtick_17">
     <g id="line2d_17">
      <g>
       <use xlink:href="#mba6e6c51f1" x="92.056208" y="307.584" style="stroke: #000000; stroke-width: 0.6"/>
      </g>
     </g>
    </g>
    <g id="xtick_18">
     <g id="line2d_18">
      <g>
       <use xlink:href="#mba6e6c51f1" x="96.828199" y="307.584" style="stroke: #000000; stroke-width: 0.6"/>
      </g>
     </g>
    </g>
    <g id="xtick_19">
     <g id="line2d_19">
      <g>
       <use xlink:href="#mba6e6c51f1" x="100.529644" y="307.584" style="stroke: #000000; stroke-width: 0.6"/>
      </g>
     </g>
    </g>
    <g id="xtick_20">
     <g id="line2d_20">
      <g>
       <use xlink:href="#mba6e6c51f1" x="103.553944" y="307.584" style="stroke: #000000; stroke-width: 0.6"/>
      </g>
     </g>
    </g>
    <g id="xtick_21">
     <g id="line2d_21">
      <g>
       <use xlink:href="#mba6e6c51f1" x="106.110953" y="307.584" style="stroke: #000000; stroke-width: 0.6"/>
      </g>
     </g>
    </g>
    <g id="xtick_22">
     <g id="line2d_22">
      <g>
       <use xlink:href="#mba6e6c51f1" x="108.325935" y="307.584" style="stroke: #000000; stroke-width: 0.6"/>
      </g>
     </g>
    </g>
    <g id="xtick_23">
     <g id="line2d_23">
      <g>
       <use xlink:href="#mba6e6c51f1" x="110.279688" y="307.584" style="stroke: #000000; stroke-width: 0.6"/>
      </g>
     </g>
    </g>
    <g id="xtick_24">
     <g id="line2d_24">
      <g>
       <use xlink:href="#mba6e6c51f1" x="123.525116" y="307.584" style="stroke: #000000; stroke-width: 0.6"/>
      </g>
     </g>
    </g>
    <g id="xtick_25">
     <g id="line2d_25">
      <g>
       <use xlink:href="#mba6e6c51f1" x="130.25086" y="307.584" style="stroke: #000000; stroke-width: 0.6"/>
      </g>
     </g>
    </g>
    <g id="xtick_26">
     <g id="line2d_26">
      <g>
       <use xlink:href="#mba6e6c51f1" x="135.022852" y="307.584" style="stroke: #000000; stroke-width: 0.6"/>
      </g>
     </g>
    </g>
    <g id="xtick_27">
     <g id="line2d_27">
      <g>
       <use xlink:href="#mba6e6c51f1" x="138.724296" y="307.584" style="stroke: #000000; stroke-width: 0.6"/>
      </g>
     </g>
    </g>
    <g id="xtick_28">
     <g id="line2d_28">
      <g>
       <use xlink:href="#mba6e6c51f1" x="141.748596" y="307.584" style="stroke: #000000; stroke-width: 0.6"/>
      </g>
     </g>
    </g>
    <g id="xtick_29">
     <g id="line2d_29">
      <g>
       <use xlink:href="#mba6e6c51f1" x="144.305606" y="307.584" style="stroke: #000000; stroke-width: 0.6"/>
      </g>
     </g>
    </g>
    <g id="xtick_30">
     <g id="line2d_30">
      <g>
       <use xlink:href="#mba6e6c51f1" x="146.520588" y="307.584" style="stroke: #000000; stroke-width: 0.6"/>
      </g>
     </g>
    </g>
    <g id="xtick_31">
     <g id="line2d_31">
      <g>
       <use xlink:href="#mba6e6c51f1" x="148.474341" y="307.584" style="stroke: #000000; stroke-width: 0.6"/>
      </g>
     </g>
    </g>
    <g id="xtick_32">
     <g id="line2d_32">
      <g>
       <use xlink:href="#mba6e6c51f1" x="161.719768" y="307.584" style="stroke: #000000; stroke-width: 0.6"/>
      </g>
     </g>
    </g>
    <g id="xtick_33">
     <g id="line2d_33">
      <g>
       <use xlink:href="#mba6e6c51f1" x="168.445513" y="307.584" style="stroke: #000000; stroke-width: 0.6"/>
      </g>
     </g>
    </g>
    <g id="xtick_34">
     <g id="line2d_34">
      <g>
       <use xlink:href="#mba6e6c51f1" x="173.217504" y="307.584" style="stroke: #000000; stroke-width: 0.6"/>
      </g>
     </g>
    </g>
    <g id="xtick_35">
     <g id="line2d_35">
      <g>
       <use xlink:href="#mba6e6c51f1" x="176.918948" y="307.584" style="stroke: #000000; stroke-width: 0.6"/>
      </g>
     </g>
    </g>
    <g id="xtick_36">
     <g id="line2d_36">
      <g>
       <use xlink:href="#mba6e6c51f1" x="179.943249" y="307.584" style="stroke: #000000; stroke-width: 0.6"/>
      </g>
     </g>
    </g>
    <g id="xtick_37">
     <g id="line2d_37">
      <g>
       <use xlink:href="#mba6e6c51f1" x="182.500258" y="307.584" style="stroke: #000000; stroke-width: 0.6"/>
      </g>
     </g>
    </g>
    <g id="xtick_38">
     <g id="line2d_38">
      <g>
       <use xlink:href="#mba6e6c51f1" x="184.71524" y="307.584" style="stroke: #000000; stroke-width: 0.6"/>
      </g>
     </g>
    </g>
    <g id="xtick_39">
     <g id="line2d_39">
      <g>
       <use xlink:href="#mba6e6c51f1" x="186.668993" y="307.584" style="stroke: #000000; stroke-width: 0.6"/>
      </g>
     </g>
    </g>
    <g id="xtick_40">
     <g id="line2d_40">
      <g>
       <use xlink:href="#mba6e6c51f1" x="199.914421" y="307.584" style="stroke: #000000; stroke-width: 0.6"/>
      </g>
     </g>
    </g>
    <g id="xtick_41">
     <g id="line2d_41">
      <g>
       <use xlink:href="#mba6e6c51f1" x="206.640165" y="307.584" style="stroke: #000000; stroke-width: 0.6"/>
      </g>
     </g>
    </g>
    <g id="xtick_42">
     <g id="line2d_42">
      <g>
       <use xlink:href="#mba6e6c51f1" x="211.412157" y="307.584" style="stroke: #000000; stroke-width: 0.6"/>
      </g>
     </g>
    </g>
    <g id="xtick_43">
     <g id="line2d_43">
      <g>
       <use xlink:href="#mba6e6c51f1" x="215.113601" y="307.584" style="stroke: #000000; stroke-width: 0.6"/>
      </g>
     </g>
    </g>
    <g id="xtick_44">
     <g id="line2d_44">
      <g>
       <use xlink:href="#mba6e6c51f1" x="218.137901" y="307.584" style="stroke: #000000; stroke-width: 0.6"/>
      </g>
     </g>
    </g>
    <g id="xtick_45">
     <g id="line2d_45">
      <g>
       <use xlink:href="#mba6e6c51f1" x="220.69491" y="307.584" style="stroke: #000000; stroke-width: 0.6"/>
      </g>
     </g>
    </g>
    <g id="xtick_46">
     <g id="line2d_46">
      <g>
       <use xlink:href="#mba6e6c51f1" x="222.909893" y="307.584" style="stroke: #000000; stroke-width: 0.6"/>
      </g>
     </g>
    </g>
    <g id="xtick_47">
     <g id="line2d_47">
      <g>
       <use xlink:href="#mba6e6c51f1" x="224.863645" y="307.584" style="stroke: #000000; stroke-width: 0.6"/>
      </g>
     </g>
    </g>
    <g id="xtick_48">
     <g id="line2d_48">
      <g>
       <use xlink:href="#mba6e6c51f1" x="238.109073" y="307.584" style="stroke: #000000; stroke-width: 0.6"/>
      </g>
     </g>
    </g>
    <g id="xtick_49">
     <g id="line2d_49">
      <g>
       <use xlink:href="#mba6e6c51f1" x="244.834817" y="307.584" style="stroke: #000000; stroke-width: 0.6"/>
      </g>
     </g>
    </g>
    <g id="xtick_50">
     <g id="line2d_50">
      <g>
       <use xlink:href="#mba6e6c51f1" x="249.606809" y="307.584" style="stroke: #000000; stroke-width: 0.6"/>
      </g>
     </g>
    </g>
    <g id="xtick_51">
     <g id="line2d_51">
      <g>
       <use xlink:href="#mba6e6c51f1" x="253.308253" y="307.584" style="stroke: #000000; stroke-width: 0.6"/>
      </g>
     </g>
    </g>
    <g id="xtick_52">
     <g id="line2d_52">
      <g>
       <use xlink:href="#mba6e6c51f1" x="256.332553" y="307.584" style="stroke: #000000; stroke-width: 0.6"/>
      </g>
     </g>
    </g>
    <g id="xtick_53">
     <g id="line2d_53">
      <g>
       <use xlink:href="#mba6e6c51f1" x="258.889563" y="307.584" style="stroke: #000000; stroke-width: 0.6"/>
      </g>
     </g>
    </g>
    <g id="xtick_54">
     <g id="line2d_54">
      <g>
       <use xlink:href="#mba6e6c51f1" x="261.104545" y="307.584" style="stroke: #000000; stroke-width: 0.6"/>
      </g>
     </g>
    </g>
    <g id="xtick_55">
     <g id="line2d_55">
      <g>
       <use xlink:href="#mba6e6c51f1" x="263.058298" y="307.584" style="stroke: #000000; stroke-width: 0.6"/>
      </g>
     </g>
    </g>
    <g id="xtick_56">
     <g id="line2d_56">
      <g>
       <use xlink:href="#mba6e6c51f1" x="276.303725" y="307.584" style="stroke: #000000; stroke-width: 0.6"/>
      </g>
     </g>
    </g>
    <g id="xtick_57">
     <g id="line2d_57">
      <g>
       <use xlink:href="#mba6e6c51f1" x="283.02947" y="307.584" style="stroke: #000000; stroke-width: 0.6"/>
      </g>
     </g>
    </g>
    <g id="xtick_58">
     <g id="line2d_58">
      <g>
       <use xlink:href="#mba6e6c51f1" x="287.801461" y="307.584" style="stroke: #000000; stroke-width: 0.6"/>
      </g>
     </g>
    </g>
    <g id="xtick_59">
     <g id="line2d_59">
      <g>
       <use xlink:href="#mba6e6c51f1" x="291.502906" y="307.584" style="stroke: #000000; stroke-width: 0.6"/>
      </g>
     </g>
    </g>
    <g id="xtick_60">
     <g id="line2d_60">
      <g>
       <use xlink:href="#mba6e6c51f1" x="294.527206" y="307.584" style="stroke: #000000; stroke-width: 0.6"/>
      </g>
     </g>
    </g>
    <g id="xtick_61">
     <g id="line2d_61">
      <g>
       <use xlink:href="#mba6e6c51f1" x="297.084215" y="307.584" style="stroke: #000000; stroke-width: 0.6"/>
      </g>
     </g>
    </g>
    <g id="xtick_62">
     <g id="line2d_62">
      <g>
       <use xlink:href="#mba6e6c51f1" x="299.299197" y="307.584" style="stroke: #000000; stroke-width: 0.6"/>
      </g>
     </g>
    </g>
    <g id="xtick_63">
     <g id="line2d_63">
      <g>
       <use xlink:href="#mba6e6c51f1" x="301.25295" y="307.584" style="stroke: #000000; stroke-width: 0.6"/>
      </g>
     </g>
    </g>
    <g id="xtick_64">
     <g id="line2d_64">
      <g>
       <use xlink:href="#mba6e6c51f1" x="314.498378" y="307.584" style="stroke: #000000; stroke-width: 0.6"/>
      </g>
     </g>
    </g>
    <g id="xtick_65">
     <g id="line2d_65">
      <g>
       <use xlink:href="#mba6e6c51f1" x="321.224122" y="307.584" style="stroke: #000000; stroke-width: 0.6"/>
      </g>
     </g>
    </g>
    <g id="xtick_66">
     <g id="line2d_66">
      <g>
       <use xlink:href="#mba6e6c51f1" x="325.996114" y="307.584" style="stroke: #000000; stroke-width: 0.6"/>
      </g>
     </g>
    </g>
    <g id="xtick_67">
     <g id="line2d_67">
      <g>
       <use xlink:href="#mba6e6c51f1" x="329.697558" y="307.584" style="stroke: #000000; stroke-width: 0.6"/>
      </g>
     </g>
    </g>
    <g id="xtick_68">
     <g id="line2d_68">
      <g>
       <use xlink:href="#mba6e6c51f1" x="332.721858" y="307.584" style="stroke: #000000; stroke-width: 0.6"/>
      </g>
     </g>
    </g>
    <g id="xtick_69">
     <g id="line2d_69">
      <g>
       <use xlink:href="#mba6e6c51f1" x="335.278868" y="307.584" style="stroke: #000000; stroke-width: 0.6"/>
      </g>
     </g>
    </g>
    <g id="xtick_70">
     <g id="line2d_70">
      <g>
       <use xlink:href="#mba6e6c51f1" x="337.49385" y="307.584" style="stroke: #000000; stroke-width: 0.6"/>
      </g>
     </g>
    </g>
    <g id="xtick_71">
     <g id="line2d_71">
      <g>
       <use xlink:href="#mba6e6c51f1" x="339.447603" y="307.584" style="stroke: #000000; stroke-width: 0.6"/>
      </g>
     </g>
    </g>
    <g id="xtick_72">
     <g id="line2d_72">
      <g>
       <use xlink:href="#mba6e6c51f1" x="352.69303" y="307.584" style="stroke: #000000; stroke-width: 0.6"/>
      </g>
     </g>
    </g>
    <g id="xtick_73">
     <g id="line2d_73">
      <g>
       <use xlink:href="#mba6e6c51f1" x="359.418775" y="307.584" style="stroke: #000000; stroke-width: 0.6"/>
      </g>
     </g>
    </g>
    <g id="xtick_74">
     <g id="line2d_74">
      <g>
       <use xlink:href="#mba6e6c51f1" x="364.190766" y="307.584" style="stroke: #000000; stroke-width: 0.6"/>
      </g>
     </g>
    </g>
    <g id="xtick_75">
     <g id="line2d_75">
      <g>
       <use xlink:href="#mba6e6c51f1" x="367.89221" y="307.584" style="stroke: #000000; stroke-width: 0.6"/>
      </g>
     </g>
    </g>
    <g id="xtick_76">
     <g id="line2d_76">
      <g>
       <use xlink:href="#mba6e6c51f1" x="370.916511" y="307.584" style="stroke: #000000; stroke-width: 0.6"/>
      </g>
     </g>
    </g>
    <g id="xtick_77">
     <g id="line2d_77">
      <g>
       <use xlink:href="#mba6e6c51f1" x="373.47352" y="307.584" style="stroke: #000000; stroke-width: 0.6"/>
      </g>
     </g>
    </g>
    <g id="xtick_78">
     <g id="line2d_78">
      <g>
       <use xlink:href="#mba6e6c51f1" x="375.688502" y="307.584" style="stroke: #000000; stroke-width: 0.6"/>
      </g>
     </g>
    </g>
    <g id="xtick_79">
     <g id="line2d_79">
      <g>
       <use xlink:href="#mba6e6c51f1" x="377.642255" y="307.584" style="stroke: #000000; stroke-width: 0.6"/>
      </g>
     </g>
    </g>
    <g id="xtick_80">
     <g id="line2d_80">
      <g>
       <use xlink:href="#mba6e6c51f1" x="390.887683" y="307.584" style="stroke: #000000; stroke-width: 0.6"/>
      </g>
     </g>
    </g>
    <g id="xtick_81">
     <g id="line2d_81">
      <g>
       <use xlink:href="#mba6e6c51f1" x="397.613427" y="307.584" style="stroke: #000000; stroke-width: 0.6"/>
      </g>
     </g>
    </g>
    <g id="xtick_82">
     <g id="line2d_82">
      <g>
       <use xlink:href="#mba6e6c51f1" x="402.385419" y="307.584" style="stroke: #000000; stroke-width: 0.6"/>
      </g>
     </g>
    </g>
    <g id="xtick_83">
     <g id="line2d_83">
      <g>
       <use xlink:href="#mba6e6c51f1" x="406.086863" y="307.584" style="stroke: #000000; stroke-width: 0.6"/>
      </g>
     </g>
    </g>
    <g id="xtick_84">
     <g id="line2d_84">
      <g>
       <use xlink:href="#mba6e6c51f1" x="409.111163" y="307.584" style="stroke: #000000; stroke-width: 0.6"/>
      </g>
     </g>
    </g>
    <g id="xtick_85">
     <g id="line2d_85">
      <g>
       <use xlink:href="#mba6e6c51f1" x="411.668172" y="307.584" style="stroke: #000000; stroke-width: 0.6"/>
      </g>
     </g>
    </g>
    <g id="xtick_86">
     <g id="line2d_86">
      <g>
       <use xlink:href="#mba6e6c51f1" x="413.883155" y="307.584" style="stroke: #000000; stroke-width: 0.6"/>
      </g>
     </g>
    </g>
    <g id="text_10">
     <!-- 正则化系数 -->
     <g transform="translate(211.16 336.184) scale(0.1 -0.1)">
      <defs>
       <path id="WenQuanYiMicroHei-6b63" d="M 625 4850 
L 5875 4850 
L 5875 4375 
L 3625 4375 
L 3625 2700 
L 5700 2700 
L 5700 2225 
L 3625 2225 
L 3625 100 
L 6075 100 
L 6075 -375 
L 325 -375 
L 325 100 
L 1275 100 
L 1275 3350 
L 1775 3350 
L 1775 100 
L 3125 100 
L 3125 4375 
L 625 4375 
L 625 4850 
z
" transform="scale(0.015625)"/>
       <path id="WenQuanYiMicroHei-5219" d="M 5250 5175 
L 5750 5175 
L 5750 75 
Q 5750 -300 5600 -437 
Q 5450 -575 5000 -575 
Q 4600 -575 4250 -450 
L 4150 75 
Q 4575 -75 5000 -75 
Q 5250 -75 5250 175 
L 5250 5175 
z
M 3900 4500 
L 4400 4500 
L 4400 875 
L 3900 875 
L 3900 4500 
z
M 3375 4850 
L 3375 1375 
L 2875 1375 
L 2875 4375 
L 1200 4375 
L 1200 1250 
L 700 1250 
L 700 4850 
L 3375 4850 
z
M 1825 3975 
L 2300 3975 
Q 2300 2150 2250 1750 
Q 2150 950 1737 362 
Q 1325 -225 600 -600 
L 300 -200 
Q 900 100 1237 537 
Q 1575 975 1700 1537 
Q 1825 2100 1825 3975 
z
M 2600 950 
Q 3175 425 3600 -175 
L 3250 -550 
Q 2825 125 2225 675 
L 2600 950 
z
" transform="scale(0.015625)"/>
       <path id="WenQuanYiMicroHei-5316" d="M 1775 5175 
L 2275 5025 
Q 2000 4300 1625 3600 
L 1625 -575 
L 1125 -575 
L 1125 2800 
Q 825 2400 500 2050 
L 250 2550 
Q 1325 3800 1775 5175 
z
M 3200 5050 
L 3725 5050 
L 3725 2925 
Q 4675 3625 5425 4550 
L 5800 4250 
Q 4900 3075 3725 2275 
L 3725 325 
Q 3725 150 3812 87 
Q 3900 25 4350 25 
Q 4700 25 4887 37 
Q 5075 50 5075 75 
Q 5350 75 5437 275 
Q 5525 475 5550 1250 
L 6075 1025 
Q 5950 -175 5725 -300 
Q 5400 -475 4350 -475 
L 4100 -475 
Q 3525 -475 3362 -337 
Q 3200 -200 3200 125 
L 3200 1950 
Q 2850 1750 2550 1600 
L 2300 2025 
Q 2700 2225 3200 2550 
L 3200 5050 
z
" transform="scale(0.015625)"/>
       <path id="WenQuanYiMicroHei-7cfb" d="M 4225 4175 
L 4675 4000 
Q 3300 2650 1800 1900 
Q 3375 2025 4650 2200 
Q 4400 2475 4125 2750 
L 4575 3025 
Q 5350 2300 5825 1450 
L 5350 1175 
Q 5175 1525 4925 1850 
L 3525 1650 
L 3525 125 
Q 3525 -275 3400 -425 
Q 3275 -575 2925 -575 
Q 2575 -575 2275 -500 
L 2175 0 
Q 2500 -75 2850 -75 
Q 2975 -75 2975 225 
L 2975 1600 
Q 2025 1500 1000 1425 
L 875 1825 
Q 1800 2275 2650 2875 
Q 1875 2750 1075 2675 
L 975 3125 
Q 1825 3650 2400 4450 
L 950 4400 
L 675 4850 
Q 3850 4950 5150 5125 
L 5525 4700 
Q 4500 4575 3050 4475 
Q 2500 3675 1750 3150 
Q 2625 3225 3275 3350 
Q 3750 3725 4225 4175 
z
M 1900 1250 
L 2225 850 
Q 1475 75 575 -400 
L 325 75 
Q 1125 450 1900 1250 
z
M 4475 1250 
Q 5250 600 5725 -125 
L 5250 -400 
Q 4800 300 4025 950 
L 4475 1250 
z
" transform="scale(0.015625)"/>
       <path id="WenQuanYiMicroHei-6570" d="M 4275 4125 
L 5950 4125 
L 5950 3650 
L 5675 3650 
Q 5525 1900 4975 1000 
Q 5425 400 6125 -100 
L 5750 -575 
Q 5175 -100 4675 550 
Q 4175 -125 3450 -600 
L 3100 -150 
Q 3850 300 4350 1025 
Q 4000 1625 3700 2375 
L 3500 1950 
L 3100 2250 
Q 3725 3575 4000 5175 
L 4500 5025 
Q 4400 4550 4275 4125 
z
M 5175 3650 
L 4150 3650 
Q 4125 3525 3975 3075 
Q 4275 2175 4650 1525 
Q 4975 2225 5125 3225 
L 5125 3250 
L 5175 3650 
z
M 450 4100 
L 1750 4100 
L 1750 5150 
L 2200 5150 
L 2200 4100 
L 3400 4100 
L 3400 3675 
L 2200 3675 
L 2200 2525 
L 1750 2525 
L 1750 3300 
Q 1325 2700 750 2325 
L 425 2725 
Q 1050 3050 1525 3675 
L 450 3675 
L 450 4100 
z
M 1050 5050 
Q 1250 4750 1375 4375 
L 975 4175 
Q 850 4550 675 4875 
L 1050 5050 
z
M 2900 5050 
L 3275 4875 
Q 3050 4450 2800 4225 
L 2475 4525 
Q 2725 4750 2900 5050 
z
M 2725 3450 
Q 3000 3150 3175 2825 
L 2800 2600 
Q 2650 2950 2375 3250 
L 2725 3450 
z
M 425 2000 
L 1400 2000 
Q 1500 2200 1575 2400 
L 2050 2350 
L 1900 2000 
L 3025 2000 
L 3025 1575 
Q 2725 925 2300 475 
Q 2725 225 3075 0 
L 2775 -450 
Q 2450 -175 1925 125 
Q 1400 -325 525 -600 
L 375 -175 
Q 1025 25 1500 350 
Q 1100 575 625 800 
Q 925 1200 1150 1575 
L 425 1575 
L 425 2000 
z
M 1675 1575 
Q 1500 1250 1300 1000 
L 1900 700 
Q 2275 1100 2500 1575 
L 1675 1575 
z
" transform="scale(0.015625)"/>
      </defs>
      <use xlink:href="#WenQuanYiMicroHei-6b63"/>
      <use xlink:href="#WenQuanYiMicroHei-5219" x="100"/>
      <use xlink:href="#WenQuanYiMicroHei-5316" x="200"/>
      <use xlink:href="#WenQuanYiMicroHei-7cfb" x="300"/>
      <use xlink:href="#WenQuanYiMicroHei-6570" x="400"/>
     </g>
    </g>
   </g>
   <g id="matplotlib.axis_2">
    <g id="ytick_1">
     <g id="line2d_87">
      <defs>
       <path id="m941aeb933b" d="M 0 0 
L -3.5 0 
" style="stroke: #000000; stroke-width: 0.8"/>
      </defs>
      <g>
       <use xlink:href="#m941aeb933b" x="57.6" y="293.722161" style="stroke: #000000; stroke-width: 0.8"/>
      </g>
     </g>
     <g id="text_11">
      <!-- 0.5 -->
      <g transform="translate(36.903125 297.521379) scale(0.1 -0.1)">
       <defs>
        <path id="WenQuanYiMicroHei-2e" d="M 459 347 
Q 459 466 490 548 
Q 522 631 575 682 
Q 628 734 700 757 
Q 772 781 856 781 
Q 938 781 1011 757 
Q 1084 734 1137 682 
Q 1191 631 1222 548 
Q 1253 466 1253 347 
Q 1253 231 1222 148 
Q 1191 66 1137 12 
Q 1084 -41 1011 -66 
Q 938 -91 856 -91 
Q 772 -91 700 -66 
Q 628 -41 575 12 
Q 522 66 490 148 
Q 459 231 459 347 
z
" transform="scale(0.015625)"/>
       </defs>
       <use xlink:href="#WenQuanYiMicroHei-30"/>
       <use xlink:href="#WenQuanYiMicroHei-2e" x="55.078125"/>
       <use xlink:href="#WenQuanYiMicroHei-35" x="81.884766"/>
      </g>
     </g>
    </g>
    <g id="ytick_2">
     <g id="line2d_88">
      <g>
       <use xlink:href="#m941aeb933b" x="57.6" y="241.389102" style="stroke: #000000; stroke-width: 0.8"/>
      </g>
     </g>
     <g id="text_12">
      <!-- 0.6 -->
      <g transform="translate(36.903125 245.18832) scale(0.1 -0.1)">
       <use xlink:href="#WenQuanYiMicroHei-30"/>
       <use xlink:href="#WenQuanYiMicroHei-2e" x="55.078125"/>
       <use xlink:href="#WenQuanYiMicroHei-36" x="81.884766"/>
      </g>
     </g>
    </g>
    <g id="ytick_3">
     <g id="line2d_89">
      <g>
       <use xlink:href="#m941aeb933b" x="57.6" y="189.056042" style="stroke: #000000; stroke-width: 0.8"/>
      </g>
     </g>
     <g id="text_13">
      <!-- 0.7 -->
      <g transform="translate(36.903125 192.855261) scale(0.1 -0.1)">
       <use xlink:href="#WenQuanYiMicroHei-30"/>
       <use xlink:href="#WenQuanYiMicroHei-2e" x="55.078125"/>
       <use xlink:href="#WenQuanYiMicroHei-37" x="81.884766"/>
      </g>
     </g>
    </g>
    <g id="ytick_4">
     <g id="line2d_90">
      <g>
       <use xlink:href="#m941aeb933b" x="57.6" y="136.722983" style="stroke: #000000; stroke-width: 0.8"/>
      </g>
     </g>
     <g id="text_14">
      <!-- 0.8 -->
      <g transform="translate(36.903125 140.522202) scale(0.1 -0.1)">
       <use xlink:href="#WenQuanYiMicroHei-30"/>
       <use xlink:href="#WenQuanYiMicroHei-2e" x="55.078125"/>
       <use xlink:href="#WenQuanYiMicroHei-38" x="81.884766"/>
      </g>
     </g>
    </g>
    <g id="ytick_5">
     <g id="line2d_91">
      <g>
       <use xlink:href="#m941aeb933b" x="57.6" y="84.389924" style="stroke: #000000; stroke-width: 0.8"/>
      </g>
     </g>
     <g id="text_15">
      <!-- 0.9 -->
      <g transform="translate(36.903125 88.189143) scale(0.1 -0.1)">
       <use xlink:href="#WenQuanYiMicroHei-30"/>
       <use xlink:href="#WenQuanYiMicroHei-2e" x="55.078125"/>
       <use xlink:href="#WenQuanYiMicroHei-39" x="81.884766"/>
      </g>
     </g>
    </g>
    <g id="text_16">
     <!-- 准确率 -->
     <g transform="translate(30.5 189.528) rotate(-90) scale(0.1 -0.1)">
      <defs>
       <path id="WenQuanYiMicroHei-51c6" d="M 875 5000 
Q 1350 4425 1675 3725 
L 1200 3450 
Q 925 4125 425 4725 
L 875 5000 
z
M 1250 2175 
L 1675 1900 
Q 1375 675 825 -450 
L 325 -75 
Q 900 1000 1250 2175 
z
M 2875 -150 
L 2875 -575 
L 2375 -575 
L 2375 3025 
Q 2100 2625 1825 2300 
L 1575 2800 
Q 2450 3925 2825 5200 
L 3325 5025 
Q 3200 4575 2975 4150 
L 4100 4150 
Q 3975 4625 3725 5000 
L 4225 5175 
Q 4500 4700 4650 4150 
L 6050 4150 
L 6050 3675 
L 4675 3675 
L 4675 2850 
L 5875 2850 
L 5875 2425 
L 4675 2425 
L 4675 1575 
L 5875 1575 
L 5875 1125 
L 4675 1125 
L 4675 300 
L 6100 300 
L 6100 -150 
L 2875 -150 
z
M 2875 3675 
L 2875 2850 
L 4200 2850 
L 4200 3675 
L 2875 3675 
z
M 2875 2425 
L 2875 1575 
L 4200 1575 
L 4200 2425 
L 2875 2425 
z
M 2875 1125 
L 2875 300 
L 4200 300 
L 4200 1125 
L 2875 1125 
z
" transform="scale(0.015625)"/>
       <path id="WenQuanYiMicroHei-786e" d="M 3575 5175 
L 4075 5050 
Q 4025 4900 3950 4725 
L 5300 4725 
L 5300 4300 
Q 5125 3975 4925 3725 
L 5925 3725 
L 5925 0 
Q 5925 -275 5800 -412 
Q 5675 -550 5450 -550 
Q 5250 -550 4950 -500 
L 4850 -25 
Q 5175 -75 5325 -75 
Q 5450 -75 5450 75 
L 5450 950 
L 4600 950 
L 4600 -400 
L 4125 -400 
L 4125 950 
L 3325 950 
Q 3200 75 2825 -575 
L 2375 -300 
Q 2900 750 2900 1925 
L 2900 3225 
Q 2825 3150 2725 3075 
L 2400 3450 
Q 3200 4200 3575 5175 
z
M 4325 3725 
Q 4550 4000 4700 4275 
L 3725 4275 
Q 3500 3875 3350 3725 
L 4325 3725 
z
M 3375 2575 
L 4125 2575 
L 4125 3275 
L 3375 3275 
L 3375 2575 
z
M 4600 3275 
L 4600 2575 
L 5450 2575 
L 5450 3275 
L 4600 3275 
z
M 3375 1400 
L 4125 1400 
L 4125 2125 
L 3375 2125 
L 3375 1725 
L 3375 1400 
z
M 4600 2125 
L 4600 1400 
L 5450 1400 
L 5450 2125 
L 4600 2125 
z
M 400 4775 
L 2700 4775 
L 2700 4300 
L 1675 4300 
Q 1450 3425 1200 2800 
L 2450 2800 
L 2450 -50 
L 1975 -50 
L 1975 200 
L 1400 200 
L 1400 -375 
L 950 -375 
L 950 2200 
Q 725 1750 550 1525 
L 250 1925 
Q 850 2850 1175 4300 
L 400 4300 
L 400 4775 
z
M 1400 650 
L 1975 650 
L 1975 2350 
L 1400 2350 
L 1400 650 
z
" transform="scale(0.015625)"/>
       <path id="WenQuanYiMicroHei-7387" d="M 3275 5200 
Q 3475 4900 3575 4550 
L 6050 4550 
L 6050 4075 
L 350 4075 
L 350 4550 
L 2950 4550 
Q 2875 4825 2750 5025 
L 3275 5200 
z
M 2975 1625 
L 3450 1625 
L 3450 1100 
L 6000 1100 
L 6000 650 
L 3450 650 
L 3450 -575 
L 2975 -575 
L 2975 650 
L 400 650 
L 400 1100 
L 2975 1100 
L 2975 1625 
z
M 2925 4450 
L 3375 4325 
Q 3000 3550 2700 3200 
Q 3050 3200 3475 3275 
Q 3700 3525 3900 3800 
L 4350 3650 
Q 3625 2675 2725 2025 
Q 3350 2125 3875 2250 
Q 3775 2400 3650 2550 
L 4050 2750 
Q 4475 2250 4775 1625 
L 4325 1425 
Q 4225 1675 4100 1900 
Q 3150 1675 2050 1525 
L 1925 1925 
Q 2525 2300 3075 2850 
Q 2650 2775 2175 2725 
L 2100 3150 
Q 2625 3775 2925 4450 
z
M 1100 3975 
Q 1500 3625 1775 3200 
L 1325 2950 
Q 1075 3350 650 3700 
L 1100 3975 
z
M 5325 3975 
L 5750 3725 
Q 5325 3175 4900 2850 
L 4525 3200 
Q 5025 3575 5325 3975 
z
M 1625 2725 
L 2000 2450 
Q 1550 1900 875 1425 
L 500 1800 
Q 1200 2275 1625 2725 
z
M 4925 2650 
Q 5450 2350 5900 1925 
L 5525 1475 
Q 5100 1975 4600 2300 
L 4925 2650 
z
" transform="scale(0.015625)"/>
      </defs>
      <use xlink:href="#WenQuanYiMicroHei-51c6"/>
      <use xlink:href="#WenQuanYiMicroHei-786e" x="100"/>
      <use xlink:href="#WenQuanYiMicroHei-7387" x="200"/>
     </g>
    </g>
   </g>
   <g id="line2d_92">
    <path d="M 73.832727 53.728531 
L 92.930053 53.728531 
L 112.02738 53.728531 
L 131.124706 53.728531 
L 150.222032 53.728531 
L 169.319358 53.728531 
L 188.416684 53.568 
L 207.514011 53.728531 
L 226.611337 53.728531 
L 245.708663 53.728531 
L 264.805989 53.728531 
L 283.903316 54.210123 
L 303.000642 55.012778 
L 322.097968 59.347111 
L 341.195294 83.105678 
L 360.29262 151.652353 
L 379.389947 243.957595 
L 398.487273 295.488 
" clip-path="url(#p1bd91479b6)" style="fill: none; stroke: #1f77b4; stroke-width: 1.5; stroke-linecap: square"/>
   </g>
   <g id="line2d_93">
    <path d="M 73.832727 104.331734 
L 92.930053 104.331734 
L 112.02738 104.331734 
L 131.124706 104.331734 
L 150.222032 104.331734 
L 169.319358 104.331734 
L 188.416684 104.710136 
L 207.514011 106.223746 
L 226.611337 105.088538 
L 245.708663 105.088538 
L 264.805989 105.845343 
L 283.903316 106.602148 
L 303.000642 105.845343 
L 322.097968 107.737356 
L 341.195294 116.819014 
L 360.29262 168.281748 
L 379.389947 244.719043 
L 398.487273 287.856923 
" clip-path="url(#p1bd91479b6)" style="fill: none; stroke: #ff7f0e; stroke-width: 1.5; stroke-linecap: square"/>
   </g>
   <g id="patch_3">
    <path d="M 57.6 307.584 
L 57.6 41.472 
" style="fill: none; stroke: #000000; stroke-width: 0.8; stroke-linejoin: miter; stroke-linecap: square"/>
   </g>
   <g id="patch_4">
    <path d="M 414.72 307.584 
L 414.72 41.472 
" style="fill: none; stroke: #000000; stroke-width: 0.8; stroke-linejoin: miter; stroke-linecap: square"/>
   </g>
   <g id="patch_5">
    <path d="M 57.6 307.584 
L 414.72 307.584 
" style="fill: none; stroke: #000000; stroke-width: 0.8; stroke-linejoin: miter; stroke-linecap: square"/>
   </g>
   <g id="patch_6">
    <path d="M 57.6 41.472 
L 414.72 41.472 
" style="fill: none; stroke: #000000; stroke-width: 0.8; stroke-linejoin: miter; stroke-linecap: square"/>
   </g>
   <g id="legend_1">
    <g id="patch_7">
     <path d="M 64.6 302.584 
L 166.6 302.584 
Q 168.6 302.584 168.6 300.584 
L 168.6 271.580875 
Q 168.6 269.580875 166.6 269.580875 
L 64.6 269.580875 
Q 62.6 269.580875 62.6 271.580875 
L 62.6 300.584 
Q 62.6 302.584 64.6 302.584 
z
" style="fill: #ffffff; opacity: 0.8; stroke: #cccccc; stroke-linejoin: miter"/>
    </g>
    <g id="line2d_94">
     <path d="M 66.6 277.679312 
L 76.6 277.679312 
L 86.6 277.679312 
" style="fill: none; stroke: #1f77b4; stroke-width: 1.5; stroke-linecap: square"/>
    </g>
    <g id="text_17">
     <!-- 训练集上准确率 -->
     <g transform="translate(94.6 281.179312) scale(0.1 -0.1)">
      <defs>
       <path id="WenQuanYiMicroHei-8bad" d="M 1250 5175 
Q 1650 4675 1900 4125 
L 1425 3850 
Q 1200 4400 800 4900 
L 1250 5175 
z
M 325 3325 
L 1625 3325 
L 1625 575 
L 1950 1025 
L 2250 750 
Q 1975 225 1525 -250 
L 1150 75 
L 1150 2875 
L 325 2875 
L 325 3325 
z
M 5375 5200 
L 5875 5200 
L 5875 -575 
L 5375 -575 
L 5375 5200 
z
M 2950 5200 
L 3450 5200 
L 3450 1900 
Q 3450 375 2575 -600 
L 2175 -275 
Q 2950 600 2950 1900 
L 2950 5200 
z
M 4175 4875 
L 4650 4875 
L 4650 -100 
L 4175 -100 
L 4175 4875 
z
" transform="scale(0.015625)"/>
       <path id="WenQuanYiMicroHei-7ec3" d="M 2000 4150 
L 2450 3975 
Q 1825 2575 1075 1750 
Q 1675 1900 2150 2075 
L 2275 1700 
Q 1475 1375 525 1200 
L 375 1600 
Q 900 2150 1375 2950 
Q 950 2875 525 2825 
L 425 3275 
Q 950 4000 1300 5175 
L 1775 5025 
Q 1450 3925 950 3300 
Q 1325 3325 1600 3375 
Q 1825 3750 2000 4150 
z
M 2175 950 
L 2275 500 
Q 1475 175 525 -50 
L 325 475 
Q 1350 700 2175 950 
z
M 4000 5175 
L 4475 5075 
L 4275 4350 
L 5975 4350 
L 5975 3875 
L 4100 3875 
Q 4025 3600 3900 3350 
L 4875 3350 
L 4875 2050 
L 5900 2050 
L 5900 1625 
L 4875 1625 
L 4875 0 
Q 4875 -275 4750 -412 
Q 4625 -550 4375 -550 
Q 4125 -550 3725 -500 
L 3600 -25 
Q 4075 -75 4250 -75 
Q 4375 -75 4375 75 
L 4375 1625 
L 2775 1625 
L 2675 2050 
Q 2925 2425 3150 2875 
L 2625 2875 
L 2625 3350 
L 3375 3350 
L 3575 3875 
L 2575 3875 
L 2575 4350 
L 3750 4350 
L 4000 5175 
z
M 4375 2050 
L 4375 2875 
L 3725 2875 
Q 3500 2425 3275 2050 
L 4375 2050 
z
M 5500 1350 
Q 5875 725 6125 25 
L 5625 -200 
Q 5400 550 5075 1150 
L 5500 1350 
z
M 3100 1350 
L 3550 1075 
Q 3150 200 2725 -300 
L 2325 50 
Q 2800 650 3100 1350 
z
" transform="scale(0.015625)"/>
       <path id="WenQuanYiMicroHei-96c6" d="M 1625 5200 
L 2100 5050 
L 1900 4675 
L 3200 4675 
Q 3125 4850 3000 5025 
L 3450 5175 
Q 3600 4925 3700 4675 
L 5750 4675 
L 5750 4250 
L 3700 4250 
L 3700 3900 
L 5425 3900 
L 5425 3500 
L 3700 3500 
L 3700 3125 
L 5425 3125 
L 5425 2750 
L 3700 2750 
L 3700 2400 
L 5825 2400 
L 5825 1975 
L 1650 1975 
L 1650 1725 
L 1150 1725 
L 1150 3675 
Q 875 3400 575 3175 
L 325 3625 
Q 1225 4375 1625 5200 
z
M 3200 3900 
L 3200 4250 
L 1650 4250 
L 1650 3900 
L 3200 3900 
z
M 3200 3125 
L 3200 3500 
L 1650 3500 
L 1650 3125 
L 3200 3125 
z
M 3200 2400 
L 3200 2750 
L 1650 2750 
L 1650 2400 
L 3200 2400 
z
M 425 1400 
L 2950 1400 
L 2950 1800 
L 3450 1800 
L 3450 1400 
L 5950 1400 
L 5950 975 
L 3850 975 
Q 4725 375 6100 75 
L 5825 -450 
Q 4350 0 3450 850 
L 3450 -600 
L 2950 -600 
L 2950 875 
Q 2050 50 625 -425 
L 300 25 
Q 1625 375 2475 975 
L 425 975 
L 425 1400 
z
" transform="scale(0.015625)"/>
       <path id="WenQuanYiMicroHei-4e0a" d="M 2675 5075 
L 3200 5075 
L 3200 3325 
L 5650 3325 
L 5650 2825 
L 3200 2825 
L 3200 200 
L 5950 200 
L 5950 -300 
L 500 -300 
L 500 200 
L 2675 200 
L 2675 5075 
z
" transform="scale(0.015625)"/>
      </defs>
      <use xlink:href="#WenQuanYiMicroHei-8bad"/>
      <use xlink:href="#WenQuanYiMicroHei-7ec3" x="100"/>
      <use xlink:href="#WenQuanYiMicroHei-96c6" x="200"/>
      <use xlink:href="#WenQuanYiMicroHei-4e0a" x="300"/>
      <use xlink:href="#WenQuanYiMicroHei-51c6" x="400"/>
      <use xlink:href="#WenQuanYiMicroHei-786e" x="500"/>
      <use xlink:href="#WenQuanYiMicroHei-7387" x="600"/>
     </g>
    </g>
    <g id="line2d_95">
     <path d="M 66.6 292.680875 
L 76.6 292.680875 
L 86.6 292.680875 
" style="fill: none; stroke: #ff7f0e; stroke-width: 1.5; stroke-linecap: square"/>
    </g>
    <g id="text_18">
     <!-- 验证集上准确率 -->
     <g transform="translate(94.6 296.180875) scale(0.1 -0.1)">
      <defs>
       <path id="WenQuanYiMicroHei-9a8c" d="M 475 4975 
L 2375 4975 
L 2200 2350 
L 2625 2350 
Q 2550 300 2350 -125 
Q 2150 -550 1700 -550 
L 1325 -550 
L 1225 -75 
Q 1775 -75 1825 -25 
Q 1925 75 1975 400 
Q 2050 875 2075 1900 
L 550 1900 
L 750 4150 
L 1200 4075 
L 1075 2350 
L 1725 2350 
L 1900 4550 
L 475 4550 
L 475 4975 
z
M 1600 1425 
L 1700 975 
Q 1200 600 575 325 
L 400 825 
Q 1050 1075 1600 1425 
z
M 4100 5100 
L 4600 4950 
Q 4550 4825 4475 4700 
Q 5225 3700 6050 3175 
L 5775 2675 
Q 5550 2825 5350 3000 
L 5350 2625 
L 3175 2625 
L 3175 2950 
Q 2975 2800 2800 2650 
L 2500 3100 
Q 3600 4050 4100 5100 
z
M 3300 3075 
L 5275 3075 
Q 4775 3525 4225 4275 
Q 3775 3550 3300 3075 
z
M 2725 150 
L 4525 150 
Q 4925 1250 5150 2325 
L 5675 2150 
Q 5375 1000 5025 150 
L 5925 150 
L 5925 -350 
L 2725 -350 
L 2725 150 
z
M 4225 2250 
Q 4425 1550 4525 825 
L 4025 700 
Q 3975 1475 3775 2150 
L 4225 2250 
z
M 3275 2100 
Q 3575 1325 3650 500 
L 3200 375 
Q 3100 1250 2825 2000 
L 3275 2100 
z
" transform="scale(0.015625)"/>
       <path id="WenQuanYiMicroHei-8bc1" d="M 1225 5175 
Q 1575 4700 1800 4175 
L 1325 3900 
Q 1125 4425 775 4900 
L 1225 5175 
z
M 325 3325 
L 1500 3325 
L 1500 475 
Q 1700 675 1900 950 
L 2225 650 
Q 1925 175 1400 -250 
L 1050 75 
L 1050 2875 
L 325 2875 
L 325 3325 
z
M 2450 4850 
L 5975 4850 
L 5975 4375 
L 4525 4375 
L 4525 2475 
L 5775 2475 
L 5775 2000 
L 4525 2000 
L 4525 125 
L 6100 125 
L 6100 -350 
L 2025 -350 
L 2025 125 
L 2625 125 
L 2625 3250 
L 3125 3250 
L 3125 125 
L 4025 125 
L 4025 4375 
L 2450 4375 
L 2450 4850 
z
" transform="scale(0.015625)"/>
      </defs>
      <use xlink:href="#WenQuanYiMicroHei-9a8c"/>
      <use xlink:href="#WenQuanYiMicroHei-8bc1" x="100"/>
      <use xlink:href="#WenQuanYiMicroHei-96c6" x="200"/>
      <use xlink:href="#WenQuanYiMicroHei-4e0a" x="300"/>
      <use xlink:href="#WenQuanYiMicroHei-51c6" x="400"/>
      <use xlink:href="#WenQuanYiMicroHei-786e" x="500"/>
      <use xlink:href="#WenQuanYiMicroHei-7387" x="600"/>
     </g>
    </g>
   </g>
  </g>
 </g>
 <defs>
  <clipPath id="p1bd91479b6">
   <rect x="57.6" y="41.472" width="357.12" height="266.112"/>
  </clipPath>
 </defs>
</svg>
